<?xml version="1.0" encoding="utf-8" standalone="no"?>
<!DOCTYPE svg PUBLIC "-//W3C//DTD SVG 1.1//EN"
  "http://www.w3.org/Graphics/SVG/1.1/DTD/svg11.dtd">
<svg xmlns:xlink="http://www.w3.org/1999/xlink" width="324pt" height="324pt" viewBox="0 0 324 324" xmlns="http://www.w3.org/2000/svg" version="1.1">
 <metadata>
  <rdf:RDF xmlns:dc="http://purl.org/dc/elements/1.1/" xmlns:cc="http://creativecommons.org/ns#" xmlns:rdf="http://www.w3.org/1999/02/22-rdf-syntax-ns#">
   <cc:Work>
    <dc:type rdf:resource="http://purl.org/dc/dcmitype/StillImage"/>
    <dc:date>2026-02-05T14:44:58.101194</dc:date>
    <dc:format>image/svg+xml</dc:format>
    <dc:creator>
     <cc:Agent>
      <dc:title>Matplotlib v3.8.0, https://matplotlib.org/</dc:title>
     </cc:Agent>
    </dc:creator>
   </cc:Work>
  </rdf:RDF>
 </metadata>
 <defs>
  <style type="text/css">*{stroke-linejoin: round; stroke-linecap: butt}</style>
 </defs>
 <g id="figure_1">
  <g id="patch_1">
   <path d="M 0 324 
L 324 324 
L 324 0 
L 0 0 
z
" style="fill: #ffffff"/>
  </g>
  <g id="axes_1">
   <g id="patch_2">
    <path d="M 40.5 288.36 
L 291.6 288.36 
L 291.6 38.88 
L 40.5 38.88 
z
" style="fill: #ffffff"/>
   </g>
   <g id="PathCollection_1">
    <defs>
     <path id="m09df4391a1" d="M 0 3 
C 0.795609 3 1.55874 2.683901 2.12132 2.12132 
C 2.683901 1.55874 3 0.795609 3 0 
C 3 -0.795609 2.683901 -1.55874 2.12132 -2.12132 
C 1.55874 -2.683901 0.795609 -3 0 -3 
C -0.795609 -3 -1.55874 -2.683901 -2.12132 -2.12132 
C -2.683901 -1.55874 -3 -0.795609 -3 0 
C -3 0.795609 -2.683901 1.55874 -2.12132 2.12132 
C -1.55874 2.683901 -0.795609 3 0 3 
z
" style="stroke: #ff0000"/>
    </defs>
    <g clip-path="url(#p77fb947c22)">
     <use xlink:href="#m09df4391a1" x="51.913636" y="174.800742" style="fill: #ff0000; stroke: #ff0000"/>
     <use xlink:href="#m09df4391a1" x="63.92799" y="49.974346" style="fill: #ff0000; stroke: #ff0000"/>
     <use xlink:href="#m09df4391a1" x="75.942344" y="170.229337" style="fill: #ff0000; stroke: #ff0000"/>
     <use xlink:href="#m09df4391a1" x="87.956699" y="103.563959" style="fill: #ff0000; stroke: #ff0000"/>
     <use xlink:href="#m09df4391a1" x="99.971053" y="176.321643" style="fill: #ff0000; stroke: #ff0000"/>
     <use xlink:href="#m09df4391a1" x="111.985407" y="138.415469" style="fill: #ff0000; stroke: #ff0000"/>
     <use xlink:href="#m09df4391a1" x="123.999761" y="187.878124" style="fill: #ff0000; stroke: #ff0000"/>
     <use xlink:href="#m09df4391a1" x="136.014115" y="166.291332" style="fill: #ff0000; stroke: #ff0000"/>
     <use xlink:href="#m09df4391a1" x="148.028469" y="200.434947" style="fill: #ff0000; stroke: #ff0000"/>
     <use xlink:href="#m09df4391a1" x="160.042823" y="190.364323" style="fill: #ff0000; stroke: #ff0000"/>
     <use xlink:href="#m09df4391a1" x="172.057177" y="212.989747" style="fill: #ff0000; stroke: #ff0000"/>
     <use xlink:href="#m09df4391a1" x="184.071531" y="209.394883" style="fill: #ff0000; stroke: #ff0000"/>
     <use xlink:href="#m09df4391a1" x="196.085885" y="226.706856" style="fill: #ff0000; stroke: #ff0000"/>
     <use xlink:href="#m09df4391a1" x="208.100239" y="227.324762" style="fill: #ff0000; stroke: #ff0000"/>
     <use xlink:href="#m09df4391a1" x="220.114593" y="241.211274" style="fill: #ff0000; stroke: #ff0000"/>
     <use xlink:href="#m09df4391a1" x="232.128947" y="244.356483" style="fill: #ff0000; stroke: #ff0000"/>
     <use xlink:href="#m09df4391a1" x="244.143301" y="253.905987" style="fill: #ff0000; stroke: #ff0000"/>
     <use xlink:href="#m09df4391a1" x="256.157656" y="258.911643" style="fill: #ff0000; stroke: #ff0000"/>
     <use xlink:href="#m09df4391a1" x="268.17201" y="265.699254" style="fill: #ff0000; stroke: #ff0000"/>
     <use xlink:href="#m09df4391a1" x="280.186364" y="271.598063" style="fill: #ff0000; stroke: #ff0000"/>
    </g>
   </g>
   <g id="PathCollection_2">
    <defs>
     <path id="mf38c69cc96" d="M 0 -3 
L -0.673542 -0.927051 
L -2.85317 -0.927051 
L -1.089814 0.354102 
L -1.763356 2.427051 
L -0 1.145898 
L 1.763356 2.427051 
L 1.089814 0.354102 
L 2.85317 -0.927051 
L 0.673542 -0.927051 
z
" style="stroke: #0000ff"/>
    </defs>
    <g clip-path="url(#p77fb947c22)">
     <use xlink:href="#mf38c69cc96" x="51.913636" y="174.800753" style="fill: #0000ff; stroke: #0000ff"/>
     <use xlink:href="#mf38c69cc96" x="63.92799" y="49.974348" style="fill: #0000ff; stroke: #0000ff"/>
     <use xlink:href="#mf38c69cc96" x="75.942344" y="170.229347" style="fill: #0000ff; stroke: #0000ff"/>
     <use xlink:href="#mf38c69cc96" x="87.956699" y="103.563965" style="fill: #0000ff; stroke: #0000ff"/>
     <use xlink:href="#mf38c69cc96" x="99.971053" y="176.321652" style="fill: #0000ff; stroke: #0000ff"/>
     <use xlink:href="#mf38c69cc96" x="111.985407" y="138.415476" style="fill: #0000ff; stroke: #0000ff"/>
     <use xlink:href="#mf38c69cc96" x="123.999761" y="187.878148" style="fill: #0000ff; stroke: #0000ff"/>
     <use xlink:href="#mf38c69cc96" x="136.014115" y="166.291345" style="fill: #0000ff; stroke: #0000ff"/>
     <use xlink:href="#mf38c69cc96" x="148.028469" y="200.434837" style="fill: #0000ff; stroke: #0000ff"/>
     <use xlink:href="#mf38c69cc96" x="160.042823" y="190.364276" style="fill: #0000ff; stroke: #0000ff"/>
     <use xlink:href="#mf38c69cc96" x="172.057177" y="212.990044" style="fill: #0000ff; stroke: #0000ff"/>
     <use xlink:href="#mf38c69cc96" x="184.071531" y="209.39504" style="fill: #0000ff; stroke: #0000ff"/>
     <use xlink:href="#mf38c69cc96" x="196.085885" y="226.706666" style="fill: #0000ff; stroke: #0000ff"/>
     <use xlink:href="#mf38c69cc96" x="208.100239" y="227.324538" style="fill: #0000ff; stroke: #0000ff"/>
     <use xlink:href="#mf38c69cc96" x="220.114593" y="241.211015" style="fill: #0000ff; stroke: #0000ff"/>
     <use xlink:href="#mf38c69cc96" x="232.128947" y="244.356382" style="fill: #0000ff; stroke: #0000ff"/>
     <use xlink:href="#mf38c69cc96" x="244.143301" y="253.906075" style="fill: #0000ff; stroke: #0000ff"/>
     <use xlink:href="#mf38c69cc96" x="256.157656" y="258.911825" style="fill: #0000ff; stroke: #0000ff"/>
     <use xlink:href="#mf38c69cc96" x="268.17201" y="265.699567" style="fill: #0000ff; stroke: #0000ff"/>
     <use xlink:href="#mf38c69cc96" x="280.186364" y="271.598312" style="fill: #0000ff; stroke: #0000ff"/>
    </g>
   </g>
   <g id="matplotlib.axis_1">
    <g id="xtick_1">
     <g id="line2d_1">
      <defs>
       <path id="mc6d2ade0f5" d="M 0 0 
L 0 8 
" style="stroke: #000000; stroke-width: 1.5"/>
      </defs>
      <g>
       <use xlink:href="#mc6d2ade0f5" x="99.971053" y="288.36" style="stroke: #000000; stroke-width: 1.5"/>
      </g>
     </g>
     <g id="text_1">
      <!-- 5 -->
      <g transform="translate(96.153553 308.978125) scale(0.12 -0.12)">
       <defs>
        <path id="DejaVuSans-35" d="M 691 4666 
L 3169 4666 
L 3169 4134 
L 1269 4134 
L 1269 2991 
Q 1406 3038 1543 3061 
Q 1681 3084 1819 3084 
Q 2600 3084 3056 2656 
Q 3513 2228 3513 1497 
Q 3513 744 3044 326 
Q 2575 -91 1722 -91 
Q 1428 -91 1123 -41 
Q 819 9 494 109 
L 494 744 
Q 775 591 1075 516 
Q 1375 441 1709 441 
Q 2250 441 2565 725 
Q 2881 1009 2881 1497 
Q 2881 1984 2565 2268 
Q 2250 2553 1709 2553 
Q 1456 2553 1204 2497 
Q 953 2441 691 2322 
L 691 4666 
z
" transform="scale(0.015625)"/>
       </defs>
       <use xlink:href="#DejaVuSans-35"/>
      </g>
     </g>
    </g>
    <g id="xtick_2">
     <g id="line2d_2">
      <g>
       <use xlink:href="#mc6d2ade0f5" x="160.042823" y="288.36" style="stroke: #000000; stroke-width: 1.5"/>
      </g>
     </g>
     <g id="text_2">
      <!-- 10 -->
      <g transform="translate(152.407823 308.978125) scale(0.12 -0.12)">
       <defs>
        <path id="DejaVuSans-31" d="M 794 531 
L 1825 531 
L 1825 4091 
L 703 3866 
L 703 4441 
L 1819 4666 
L 2450 4666 
L 2450 531 
L 3481 531 
L 3481 0 
L 794 0 
L 794 531 
z
" transform="scale(0.015625)"/>
        <path id="DejaVuSans-30" d="M 2034 4250 
Q 1547 4250 1301 3770 
Q 1056 3291 1056 2328 
Q 1056 1369 1301 889 
Q 1547 409 2034 409 
Q 2525 409 2770 889 
Q 3016 1369 3016 2328 
Q 3016 3291 2770 3770 
Q 2525 4250 2034 4250 
z
M 2034 4750 
Q 2819 4750 3233 4129 
Q 3647 3509 3647 2328 
Q 3647 1150 3233 529 
Q 2819 -91 2034 -91 
Q 1250 -91 836 529 
Q 422 1150 422 2328 
Q 422 3509 836 4129 
Q 1250 4750 2034 4750 
z
" transform="scale(0.015625)"/>
       </defs>
       <use xlink:href="#DejaVuSans-31"/>
       <use xlink:href="#DejaVuSans-30" x="63.623047"/>
      </g>
     </g>
    </g>
    <g id="xtick_3">
     <g id="line2d_3">
      <g>
       <use xlink:href="#mc6d2ade0f5" x="220.114593" y="288.36" style="stroke: #000000; stroke-width: 1.5"/>
      </g>
     </g>
     <g id="text_3">
      <!-- 15 -->
      <g transform="translate(212.479593 308.978125) scale(0.12 -0.12)">
       <use xlink:href="#DejaVuSans-31"/>
       <use xlink:href="#DejaVuSans-35" x="63.623047"/>
      </g>
     </g>
    </g>
    <g id="xtick_4">
     <g id="line2d_4">
      <g>
       <use xlink:href="#mc6d2ade0f5" x="280.186364" y="288.36" style="stroke: #000000; stroke-width: 1.5"/>
      </g>
     </g>
     <g id="text_4">
      <!-- 20 -->
      <g transform="translate(272.551364 308.978125) scale(0.12 -0.12)">
       <defs>
        <path id="DejaVuSans-32" d="M 1228 531 
L 3431 531 
L 3431 0 
L 469 0 
L 469 531 
Q 828 903 1448 1529 
Q 2069 2156 2228 2338 
Q 2531 2678 2651 2914 
Q 2772 3150 2772 3378 
Q 2772 3750 2511 3984 
Q 2250 4219 1831 4219 
Q 1534 4219 1204 4116 
Q 875 4013 500 3803 
L 500 4441 
Q 881 4594 1212 4672 
Q 1544 4750 1819 4750 
Q 2544 4750 2975 4387 
Q 3406 4025 3406 3419 
Q 3406 3131 3298 2873 
Q 3191 2616 2906 2266 
Q 2828 2175 2409 1742 
Q 1991 1309 1228 531 
z
" transform="scale(0.015625)"/>
       </defs>
       <use xlink:href="#DejaVuSans-32"/>
       <use xlink:href="#DejaVuSans-30" x="63.623047"/>
      </g>
     </g>
    </g>
   </g>
   <g id="matplotlib.axis_2">
    <g id="ytick_1">
     <g id="line2d_5">
      <defs>
       <path id="m48d38f0f2d" d="M 0 0 
L -8 0 
" style="stroke: #000000; stroke-width: 1.5"/>
      </defs>
      <g>
       <use xlink:href="#m48d38f0f2d" x="40.5" y="288.36" style="stroke: #000000; stroke-width: 1.5"/>
      </g>
     </g>
     <g id="text_5">
      <!-- 2 -->
      <g transform="translate(21.365 292.919063) scale(0.12 -0.12)">
       <use xlink:href="#DejaVuSans-32"/>
      </g>
     </g>
    </g>
    <g id="ytick_2">
     <g id="line2d_6">
      <g>
       <use xlink:href="#m48d38f0f2d" x="40.5" y="218.553447" style="stroke: #000000; stroke-width: 1.5"/>
      </g>
     </g>
     <g id="text_6">
      <!-- 3 -->
      <g transform="translate(21.365 223.11251) scale(0.12 -0.12)">
       <defs>
        <path id="DejaVuSans-33" d="M 2597 2516 
Q 3050 2419 3304 2112 
Q 3559 1806 3559 1356 
Q 3559 666 3084 287 
Q 2609 -91 1734 -91 
Q 1441 -91 1130 -33 
Q 819 25 488 141 
L 488 750 
Q 750 597 1062 519 
Q 1375 441 1716 441 
Q 2309 441 2620 675 
Q 2931 909 2931 1356 
Q 2931 1769 2642 2001 
Q 2353 2234 1838 2234 
L 1294 2234 
L 1294 2753 
L 1863 2753 
Q 2328 2753 2575 2939 
Q 2822 3125 2822 3475 
Q 2822 3834 2567 4026 
Q 2313 4219 1838 4219 
Q 1578 4219 1281 4162 
Q 984 4106 628 3988 
L 628 4550 
Q 988 4650 1302 4700 
Q 1616 4750 1894 4750 
Q 2613 4750 3031 4423 
Q 3450 4097 3450 3541 
Q 3450 3153 3228 2886 
Q 3006 2619 2597 2516 
z
" transform="scale(0.015625)"/>
       </defs>
       <use xlink:href="#DejaVuSans-33"/>
      </g>
     </g>
    </g>
    <g id="ytick_3">
     <g id="line2d_7">
      <g>
       <use xlink:href="#m48d38f0f2d" x="40.5" y="148.746895" style="stroke: #000000; stroke-width: 1.5"/>
      </g>
     </g>
     <g id="text_7">
      <!-- 4 -->
      <g transform="translate(21.365 153.305957) scale(0.12 -0.12)">
       <defs>
        <path id="DejaVuSans-34" d="M 2419 4116 
L 825 1625 
L 2419 1625 
L 2419 4116 
z
M 2253 4666 
L 3047 4666 
L 3047 1625 
L 3713 1625 
L 3713 1100 
L 3047 1100 
L 3047 0 
L 2419 0 
L 2419 1100 
L 313 1100 
L 313 1709 
L 2253 4666 
z
" transform="scale(0.015625)"/>
       </defs>
       <use xlink:href="#DejaVuSans-34"/>
      </g>
     </g>
    </g>
    <g id="ytick_4">
     <g id="line2d_8">
      <g>
       <use xlink:href="#m48d38f0f2d" x="40.5" y="78.940342" style="stroke: #000000; stroke-width: 1.5"/>
      </g>
     </g>
     <g id="text_8">
      <!-- 5 -->
      <g transform="translate(21.365 83.499405) scale(0.12 -0.12)">
       <use xlink:href="#DejaVuSans-35"/>
      </g>
     </g>
    </g>
    <g id="text_9">
     <!-- 1e−5 -->
     <g transform="translate(40.5 35.88) scale(0.1 -0.1)">
      <defs>
       <path id="DejaVuSans-65" d="M 3597 1894 
L 3597 1613 
L 953 1613 
Q 991 1019 1311 708 
Q 1631 397 2203 397 
Q 2534 397 2845 478 
Q 3156 559 3463 722 
L 3463 178 
Q 3153 47 2828 -22 
Q 2503 -91 2169 -91 
Q 1331 -91 842 396 
Q 353 884 353 1716 
Q 353 2575 817 3079 
Q 1281 3584 2069 3584 
Q 2775 3584 3186 3129 
Q 3597 2675 3597 1894 
z
M 3022 2063 
Q 3016 2534 2758 2815 
Q 2500 3097 2075 3097 
Q 1594 3097 1305 2825 
Q 1016 2553 972 2059 
L 3022 2063 
z
" transform="scale(0.015625)"/>
       <path id="DejaVuSans-2212" d="M 678 2272 
L 4684 2272 
L 4684 1741 
L 678 1741 
L 678 2272 
z
" transform="scale(0.015625)"/>
      </defs>
      <use xlink:href="#DejaVuSans-31"/>
      <use xlink:href="#DejaVuSans-65" x="63.623047"/>
      <use xlink:href="#DejaVuSans-2212" x="125.146484"/>
      <use xlink:href="#DejaVuSans-35" x="208.935547"/>
     </g>
    </g>
   </g>
   <g id="line2d_9">
    <path d="M 51.913636 176.081786 
L 52.153923 175.811246 
L 52.514354 174.857705 
L 52.994928 172.599028 
L 53.595646 168.284577 
L 54.316507 161.139243 
L 55.277656 148.845741 
L 56.599234 128.432667 
L 59.602823 80.672907 
L 60.684115 67.503821 
L 61.52512 59.916506 
L 62.125837 56.128125 
L 62.606411 54.137192 
L 62.966842 53.265394 
L 63.327273 52.930107 
L 63.56756 53.003992 
L 63.807847 53.313981 
L 64.168278 54.215735 
L 64.648852 56.212746 
L 65.249569 59.925253 
L 65.970431 66.015943 
L 66.811435 75.066831 
L 68.012871 90.731974 
L 72.338038 150.486516 
L 73.299187 159.768625 
L 74.140191 165.723065 
L 74.740909 168.629586 
L 75.221483 170.121475 
L 75.581914 170.752485 
L 75.942344 170.969169 
L 76.182632 170.886958 
L 76.543062 170.431299 
L 76.903493 169.588767 
L 77.384067 167.892347 
L 77.984785 164.918737 
L 78.825789 159.366883 
L 79.907081 150.389779 
L 81.829378 131.943192 
L 83.511388 116.657359 
L 84.592679 108.799582 
L 85.433684 104.257156 
L 86.034402 101.986769 
L 86.514976 100.795458 
L 86.99555 100.176475 
L 87.355981 100.091549 
L 87.716411 100.33086 
L 88.076842 100.890503 
L 88.557416 102.123037 
L 89.158134 104.411229 
L 89.878995 108.168334 
L 90.72 113.764577 
L 91.921435 123.492451 
L 94.44445 146.61154 
L 95.886172 158.684878 
L 96.967464 166.067008 
L 97.808469 170.491734 
L 98.52933 173.250111 
L 99.130048 174.782604 
L 99.610622 175.500972 
L 99.971053 175.746053 
L 100.331483 175.744188 
L 100.691914 175.501992 
L 101.172488 174.820432 
L 101.773206 173.429332 
L 102.494067 171.05315 
L 103.335072 167.472145 
L 104.536507 161.303075 
L 107.780383 144.070959 
L 108.741531 140.313133 
L 109.462392 138.227435 
L 110.06311 137.033688 
L 110.543684 136.45752 
L 111.024258 136.228265 
L 111.384689 136.286241 
L 111.74512 136.540752 
L 112.225694 137.181483 
L 112.826411 138.451427 
L 113.547273 140.620695 
L 114.388278 143.944336 
L 115.469569 149.231641 
L 117.151579 158.838174 
L 119.674593 173.179286 
L 120.876029 178.696736 
L 121.837177 182.106664 
L 122.558038 183.990982 
L 123.2789 185.265809 
L 123.879617 185.858117 
L 124.360191 186.029677 
L 124.840766 185.94201 
L 125.32134 185.607999 
L 125.922057 184.869501 
L 126.642919 183.565372 
L 127.604067 181.252187 
L 128.925646 177.379873 
L 131.44866 169.859491 
L 132.409809 167.632258 
L 133.250813 166.199234 
L 133.971675 165.422935 
L 134.572392 165.123003 
L 135.052967 165.119084 
L 135.533541 165.327434 
L 136.134258 165.884042 
L 136.734976 166.760217 
L 137.455837 168.208463 
L 138.296842 170.389221 
L 139.378134 173.828703 
L 141.060144 180.071576 
L 143.703301 189.92794 
L 144.904737 193.602024 
L 145.865885 195.931377 
L 146.70689 197.45687 
L 147.427751 198.362559 
L 148.028469 198.832335 
L 148.629187 199.049543 
L 149.229904 199.026585 
L 149.830622 198.781409 
L 150.551483 198.226457 
L 151.392488 197.280511 
L 152.593923 195.539869 
L 155.717656 190.763588 
L 156.678804 189.752306 
L 157.519809 189.19746 
L 158.24067 189.00478 
L 158.841388 189.05823 
L 159.442105 189.311821 
L 160.162967 189.879874 
L 161.003971 190.893313 
L 161.96512 192.474299 
L 163.046411 194.705069 
L 164.608278 198.505774 
L 168.09244 207.205321 
L 169.293876 209.592339 
L 170.375167 211.270066 
L 171.336316 212.343387 
L 172.177321 212.952087 
L 173.018325 213.26291 
L 173.85933 213.300192 
L 174.700335 213.100383 
L 175.661483 212.641609 
L 177.103206 211.665795 
L 179.506077 210.006961 
L 180.587368 209.534759 
L 181.548517 209.366284 
L 182.389522 209.44897 
L 183.230526 209.764298 
L 184.071531 210.317194 
L 185.032679 211.230958 
L 186.113971 212.584629 
L 187.43555 214.616681 
L 189.598134 218.444808 
L 192.001005 222.608095 
L 193.442727 224.679271 
L 194.644163 226.033586 
L 195.725455 226.929491 
L 196.686603 227.467913 
L 197.647751 227.779675 
L 198.729043 227.896302 
L 200.050622 227.785467 
L 202.573636 227.257592 
L 204.135502 227.063675 
L 205.336938 227.133129 
L 206.41823 227.413921 
L 207.499522 227.926478 
L 208.580813 228.675021 
L 209.902392 229.887688 
L 211.464258 231.661773 
L 214.107416 235.087915 
L 216.510287 238.051944 
L 218.072153 239.634261 
L 219.393732 240.682802 
L 220.715311 241.450735 
L 222.03689 241.958669 
L 223.478612 242.274676 
L 225.641196 242.485727 
L 228.164211 242.767926 
L 229.726077 243.174644 
L 231.167799 243.790905 
L 232.609522 244.659688 
L 234.171388 245.866041 
L 236.213828 247.752295 
L 241.259856 252.557853 
L 243.06201 253.884853 
L 244.744019 254.838173 
L 246.426029 255.535692 
L 248.468469 256.135003 
L 253.274211 257.442814 
L 255.076364 258.214586 
L 256.878517 259.221784 
L 258.920957 260.619714 
L 262.40512 263.334956 
L 265.408708 265.556153 
L 267.571292 266.879323 
L 269.613732 267.875019 
L 272.016603 268.790213 
L 278.504354 271.107753 
L 280.06622 271.861267 
L 280.06622 271.861267 
" clip-path="url(#p77fb947c22)" style="fill: none; stroke-dasharray: 5.55,2.4; stroke-dashoffset: 0; stroke: #000000; stroke-width: 1.5"/>
   </g>
   <g id="patch_3">
    <path d="M 40.5 288.36 
L 40.5 38.88 
" style="fill: none; stroke: #000000; stroke-width: 1.6; stroke-linejoin: miter; stroke-linecap: square"/>
   </g>
   <g id="patch_4">
    <path d="M 291.6 288.36 
L 291.6 38.88 
" style="fill: none; stroke: #000000; stroke-width: 1.6; stroke-linejoin: miter; stroke-linecap: square"/>
   </g>
   <g id="patch_5">
    <path d="M 40.5 288.36 
L 291.6 288.36 
" style="fill: none; stroke: #000000; stroke-width: 1.6; stroke-linejoin: miter; stroke-linecap: square"/>
   </g>
   <g id="patch_6">
    <path d="M 40.5 38.88 
L 291.6 38.88 
" style="fill: none; stroke: #000000; stroke-width: 1.6; stroke-linejoin: miter; stroke-linecap: square"/>
   </g>
   <g id="legend_1">
    <g id="patch_7">
     <path d="M 164.145 101.345625 
L 283.2 101.345625 
Q 285.6 101.345625 285.6 98.945625 
L 285.6 47.28 
Q 285.6 44.88 283.2 44.88 
L 164.145 44.88 
Q 161.745 44.88 161.745 47.28 
L 161.745 98.945625 
Q 161.745 101.345625 164.145 101.345625 
z
" style="fill: #ffffff; opacity: 0.8"/>
    </g>
    <g id="PathCollection_3">
     <g>
      <use xlink:href="#m09df4391a1" x="178.545" y="55.648125" style="fill: #ff0000; stroke: #ff0000"/>
     </g>
    </g>
    <g id="text_10">
     <!-- C(r) -->
     <g transform="translate(200.145 58.798125) scale(0.12 -0.12)">
      <defs>
       <path id="DejaVuSans-43" d="M 4122 4306 
L 4122 3641 
Q 3803 3938 3442 4084 
Q 3081 4231 2675 4231 
Q 1875 4231 1450 3742 
Q 1025 3253 1025 2328 
Q 1025 1406 1450 917 
Q 1875 428 2675 428 
Q 3081 428 3442 575 
Q 3803 722 4122 1019 
L 4122 359 
Q 3791 134 3420 21 
Q 3050 -91 2638 -91 
Q 1578 -91 968 557 
Q 359 1206 359 2328 
Q 359 3453 968 4101 
Q 1578 4750 2638 4750 
Q 3056 4750 3426 4639 
Q 3797 4528 4122 4306 
z
" transform="scale(0.015625)"/>
       <path id="DejaVuSans-28" d="M 1984 4856 
Q 1566 4138 1362 3434 
Q 1159 2731 1159 2009 
Q 1159 1288 1364 580 
Q 1569 -128 1984 -844 
L 1484 -844 
Q 1016 -109 783 600 
Q 550 1309 550 2009 
Q 550 2706 781 3412 
Q 1013 4119 1484 4856 
L 1984 4856 
z
" transform="scale(0.015625)"/>
       <path id="DejaVuSans-72" d="M 2631 2963 
Q 2534 3019 2420 3045 
Q 2306 3072 2169 3072 
Q 1681 3072 1420 2755 
Q 1159 2438 1159 1844 
L 1159 0 
L 581 0 
L 581 3500 
L 1159 3500 
L 1159 2956 
Q 1341 3275 1631 3429 
Q 1922 3584 2338 3584 
Q 2397 3584 2469 3576 
Q 2541 3569 2628 3553 
L 2631 2963 
z
" transform="scale(0.015625)"/>
       <path id="DejaVuSans-29" d="M 513 4856 
L 1013 4856 
Q 1481 4119 1714 3412 
Q 1947 2706 1947 2009 
Q 1947 1309 1714 600 
Q 1481 -109 1013 -844 
L 513 -844 
Q 928 -128 1133 580 
Q 1338 1288 1338 2009 
Q 1338 2731 1133 3434 
Q 928 4138 513 4856 
z
" transform="scale(0.015625)"/>
      </defs>
      <use xlink:href="#DejaVuSans-43"/>
      <use xlink:href="#DejaVuSans-28" x="69.824219"/>
      <use xlink:href="#DejaVuSans-72" x="108.837891"/>
      <use xlink:href="#DejaVuSans-29" x="149.951172"/>
     </g>
    </g>
    <g id="PathCollection_4">
     <g>
      <use xlink:href="#mf38c69cc96" x="178.545" y="73.261875" style="fill: #0000ff; stroke: #0000ff"/>
     </g>
    </g>
    <g id="text_11">
     <!-- ED -->
     <g transform="translate(200.145 76.411875) scale(0.12 -0.12)">
      <defs>
       <path id="DejaVuSans-45" d="M 628 4666 
L 3578 4666 
L 3578 4134 
L 1259 4134 
L 1259 2753 
L 3481 2753 
L 3481 2222 
L 1259 2222 
L 1259 531 
L 3634 531 
L 3634 0 
L 628 0 
L 628 4666 
z
" transform="scale(0.015625)"/>
       <path id="DejaVuSans-44" d="M 1259 4147 
L 1259 519 
L 2022 519 
Q 2988 519 3436 956 
Q 3884 1394 3884 2338 
Q 3884 3275 3436 3711 
Q 2988 4147 2022 4147 
L 1259 4147 
z
M 628 4666 
L 1925 4666 
Q 3281 4666 3915 4102 
Q 4550 3538 4550 2338 
Q 4550 1131 3912 565 
Q 3275 0 1925 0 
L 628 0 
L 628 4666 
z
" transform="scale(0.015625)"/>
      </defs>
      <use xlink:href="#DejaVuSans-45"/>
      <use xlink:href="#DejaVuSans-44" x="63.183594"/>
     </g>
    </g>
    <g id="line2d_10">
     <path d="M 166.545 89.825625 
L 178.545 89.825625 
L 190.545 89.825625 
" style="fill: none; stroke-dasharray: 5.55,2.4; stroke-dashoffset: 0; stroke: #000000; stroke-width: 1.5"/>
    </g>
    <g id="text_12">
     <!-- Fit: ξ = 25.45 -->
     <g transform="translate(200.145 94.025625) scale(0.12 -0.12)">
      <defs>
       <path id="DejaVuSans-46" d="M 628 4666 
L 3309 4666 
L 3309 4134 
L 1259 4134 
L 1259 2759 
L 3109 2759 
L 3109 2228 
L 1259 2228 
L 1259 0 
L 628 0 
L 628 4666 
z
" transform="scale(0.015625)"/>
       <path id="DejaVuSans-69" d="M 603 3500 
L 1178 3500 
L 1178 0 
L 603 0 
L 603 3500 
z
M 603 4863 
L 1178 4863 
L 1178 4134 
L 603 4134 
L 603 4863 
z
" transform="scale(0.015625)"/>
       <path id="DejaVuSans-74" d="M 1172 4494 
L 1172 3500 
L 2356 3500 
L 2356 3053 
L 1172 3053 
L 1172 1153 
Q 1172 725 1289 603 
Q 1406 481 1766 481 
L 2356 481 
L 2356 0 
L 1766 0 
Q 1100 0 847 248 
Q 594 497 594 1153 
L 594 3053 
L 172 3053 
L 172 3500 
L 594 3500 
L 594 4494 
L 1172 4494 
z
" transform="scale(0.015625)"/>
       <path id="DejaVuSans-3a" d="M 750 794 
L 1409 794 
L 1409 0 
L 750 0 
L 750 794 
z
M 750 3309 
L 1409 3309 
L 1409 2516 
L 750 2516 
L 750 3309 
z
" transform="scale(0.015625)"/>
       <path id="DejaVuSans-20" transform="scale(0.015625)"/>
       <path id="DejaVuSans-3be" d="M 2281 397 
Q 2694 394 2941 159 
Q 3203 -88 3203 -463 
Q 3203 -822 2972 -1072 
Q 2722 -1344 2213 -1344 
Q 2213 -1109 2213 -872 
Q 2428 -888 2559 -750 
Q 2659 -641 2659 -525 
Q 2659 -359 2559 -222 
Q 2463 -91 2281 -91 
Q 334 -91 334 1275 
Q 334 2213 1375 2488 
Q 500 2600 500 3413 
Q 500 4028 1188 4284 
L 538 4284 
L 538 4863 
L 3003 4863 
L 3003 4284 
Q 1038 4284 1038 3375 
Q 1038 2778 2688 2750 
L 2688 2219 
Q 906 2288 913 1275 
Q 916 428 2281 397 
z
" transform="scale(0.015625)"/>
       <path id="DejaVuSans-3d" d="M 678 2906 
L 4684 2906 
L 4684 2381 
L 678 2381 
L 678 2906 
z
M 678 1631 
L 4684 1631 
L 4684 1100 
L 678 1100 
L 678 1631 
z
" transform="scale(0.015625)"/>
       <path id="DejaVuSans-2e" d="M 684 794 
L 1344 794 
L 1344 0 
L 684 0 
L 684 794 
z
" transform="scale(0.015625)"/>
      </defs>
      <use xlink:href="#DejaVuSans-46"/>
      <use xlink:href="#DejaVuSans-69" x="50.269531"/>
      <use xlink:href="#DejaVuSans-74" x="78.052734"/>
      <use xlink:href="#DejaVuSans-3a" x="117.261719"/>
      <use xlink:href="#DejaVuSans-20" x="150.953125"/>
      <use xlink:href="#DejaVuSans-3be" x="182.740234"/>
      <use xlink:href="#DejaVuSans-20" x="238.501953"/>
      <use xlink:href="#DejaVuSans-3d" x="270.289062"/>
      <use xlink:href="#DejaVuSans-20" x="354.078125"/>
      <use xlink:href="#DejaVuSans-32" x="385.865234"/>
      <use xlink:href="#DejaVuSans-35" x="449.488281"/>
      <use xlink:href="#DejaVuSans-2e" x="513.111328"/>
      <use xlink:href="#DejaVuSans-34" x="544.898438"/>
      <use xlink:href="#DejaVuSans-35" x="608.521484"/>
     </g>
    </g>
   </g>
  </g>
 </g>
 <defs>
  <clipPath id="p77fb947c22">
   <rect x="40.5" y="38.88" width="251.1" height="249.48"/>
  </clipPath>
 </defs>
</svg>
