<?xml version="1.0" encoding="utf-8" standalone="no"?>
<!DOCTYPE svg PUBLIC "-//W3C//DTD SVG 1.1//EN"
  "http://www.w3.org/Graphics/SVG/1.1/DTD/svg11.dtd">
<svg xmlns:xlink="http://www.w3.org/1999/xlink" width="324pt" height="324pt" viewBox="0 0 324 324" xmlns="http://www.w3.org/2000/svg" version="1.1">
 <metadata>
  <rdf:RDF xmlns:dc="http://purl.org/dc/elements/1.1/" xmlns:cc="http://creativecommons.org/ns#" xmlns:rdf="http://www.w3.org/1999/02/22-rdf-syntax-ns#">
   <cc:Work>
    <dc:type rdf:resource="http://purl.org/dc/dcmitype/StillImage"/>
    <dc:date>2026-01-11T16:26:04.734223</dc:date>
    <dc:format>image/svg+xml</dc:format>
    <dc:creator>
     <cc:Agent>
      <dc:title>Matplotlib v3.8.0, https://matplotlib.org/</dc:title>
     </cc:Agent>
    </dc:creator>
   </cc:Work>
  </rdf:RDF>
 </metadata>
 <defs>
  <style type="text/css">*{stroke-linejoin: round; stroke-linecap: butt}</style>
 </defs>
 <g id="figure_1">
  <g id="patch_1">
   <path d="M 0 324 
L 324 324 
L 324 0 
L 0 0 
z
" style="fill: #ffffff"/>
  </g>
  <g id="axes_1">
   <g id="patch_2">
    <path d="M 40.5 288.36 
L 291.6 288.36 
L 291.6 38.88 
L 40.5 38.88 
z
" style="fill: #ffffff"/>
   </g>
   <g id="matplotlib.axis_1">
    <g id="xtick_1">
     <g id="line2d_1">
      <defs>
       <path id="m177103f9ea" d="M 0 0 
L 0 8 
" style="stroke: #000000; stroke-width: 1.5"/>
      </defs>
      <g>
       <use xlink:href="#m177103f9ea" x="100.829221" y="288.36" style="stroke: #000000; stroke-width: 1.5"/>
      </g>
     </g>
     <g id="text_1">
      <!-- 2 -->
      <g transform="translate(97.011721 308.978125) scale(0.12 -0.12)">
       <defs>
        <path id="DejaVuSans-32" d="M 1228 531 
L 3431 531 
L 3431 0 
L 469 0 
L 469 531 
Q 828 903 1448 1529 
Q 2069 2156 2228 2338 
Q 2531 2678 2651 2914 
Q 2772 3150 2772 3378 
Q 2772 3750 2511 3984 
Q 2250 4219 1831 4219 
Q 1534 4219 1204 4116 
Q 875 4013 500 3803 
L 500 4441 
Q 881 4594 1212 4672 
Q 1544 4750 1819 4750 
Q 2544 4750 2975 4387 
Q 3406 4025 3406 3419 
Q 3406 3131 3298 2873 
Q 3191 2616 2906 2266 
Q 2828 2175 2409 1742 
Q 1991 1309 1228 531 
z
" transform="scale(0.015625)"/>
       </defs>
       <use xlink:href="#DejaVuSans-32"/>
      </g>
     </g>
    </g>
    <g id="xtick_2">
     <g id="line2d_2">
      <g>
       <use xlink:href="#m177103f9ea" x="182.355195" y="288.36" style="stroke: #000000; stroke-width: 1.5"/>
      </g>
     </g>
     <g id="text_2">
      <!-- 3 -->
      <g transform="translate(178.537695 308.978125) scale(0.12 -0.12)">
       <defs>
        <path id="DejaVuSans-33" d="M 2597 2516 
Q 3050 2419 3304 2112 
Q 3559 1806 3559 1356 
Q 3559 666 3084 287 
Q 2609 -91 1734 -91 
Q 1441 -91 1130 -33 
Q 819 25 488 141 
L 488 750 
Q 750 597 1062 519 
Q 1375 441 1716 441 
Q 2309 441 2620 675 
Q 2931 909 2931 1356 
Q 2931 1769 2642 2001 
Q 2353 2234 1838 2234 
L 1294 2234 
L 1294 2753 
L 1863 2753 
Q 2328 2753 2575 2939 
Q 2822 3125 2822 3475 
Q 2822 3834 2567 4026 
Q 2313 4219 1838 4219 
Q 1578 4219 1281 4162 
Q 984 4106 628 3988 
L 628 4550 
Q 988 4650 1302 4700 
Q 1616 4750 1894 4750 
Q 2613 4750 3031 4423 
Q 3450 4097 3450 3541 
Q 3450 3153 3228 2886 
Q 3006 2619 2597 2516 
z
" transform="scale(0.015625)"/>
       </defs>
       <use xlink:href="#DejaVuSans-33"/>
      </g>
     </g>
    </g>
    <g id="xtick_3">
     <g id="line2d_3">
      <g>
       <use xlink:href="#m177103f9ea" x="263.881169" y="288.36" style="stroke: #000000; stroke-width: 1.5"/>
      </g>
     </g>
     <g id="text_3">
      <!-- 4 -->
      <g transform="translate(260.063669 308.978125) scale(0.12 -0.12)">
       <defs>
        <path id="DejaVuSans-34" d="M 2419 4116 
L 825 1625 
L 2419 1625 
L 2419 4116 
z
M 2253 4666 
L 3047 4666 
L 3047 1625 
L 3713 1625 
L 3713 1100 
L 3047 1100 
L 3047 0 
L 2419 0 
L 2419 1100 
L 313 1100 
L 313 1709 
L 2253 4666 
z
" transform="scale(0.015625)"/>
       </defs>
       <use xlink:href="#DejaVuSans-34"/>
      </g>
     </g>
    </g>
   </g>
   <g id="matplotlib.axis_2">
    <g id="ytick_1">
     <g id="line2d_4">
      <defs>
       <path id="m89724377b0" d="M 0 0 
L -8 0 
" style="stroke: #000000; stroke-width: 1.5"/>
      </defs>
      <g>
       <use xlink:href="#m89724377b0" x="40.5" y="288.36" style="stroke: #000000; stroke-width: 1.5"/>
      </g>
     </g>
     <g id="text_4">
      <!-- 0 -->
      <g transform="translate(21.365 292.919062) scale(0.12 -0.12)">
       <defs>
        <path id="DejaVuSans-30" d="M 2034 4250 
Q 1547 4250 1301 3770 
Q 1056 3291 1056 2328 
Q 1056 1369 1301 889 
Q 1547 409 2034 409 
Q 2525 409 2770 889 
Q 3016 1369 3016 2328 
Q 3016 3291 2770 3770 
Q 2525 4250 2034 4250 
z
M 2034 4750 
Q 2819 4750 3233 4129 
Q 3647 3509 3647 2328 
Q 3647 1150 3233 529 
Q 2819 -91 2034 -91 
Q 1250 -91 836 529 
Q 422 1150 422 2328 
Q 422 3509 836 4129 
Q 1250 4750 2034 4750 
z
" transform="scale(0.015625)"/>
       </defs>
       <use xlink:href="#DejaVuSans-30"/>
      </g>
     </g>
    </g>
    <g id="ytick_2">
     <g id="line2d_5">
      <g>
       <use xlink:href="#m89724377b0" x="40.5" y="228.96" style="stroke: #000000; stroke-width: 1.5"/>
      </g>
     </g>
     <g id="text_5">
      <!-- 1 -->
      <g transform="translate(21.365 233.519063) scale(0.12 -0.12)">
       <defs>
        <path id="DejaVuSans-31" d="M 794 531 
L 1825 531 
L 1825 4091 
L 703 3866 
L 703 4441 
L 1819 4666 
L 2450 4666 
L 2450 531 
L 3481 531 
L 3481 0 
L 794 0 
L 794 531 
z
" transform="scale(0.015625)"/>
       </defs>
       <use xlink:href="#DejaVuSans-31"/>
      </g>
     </g>
    </g>
    <g id="ytick_3">
     <g id="line2d_6">
      <g>
       <use xlink:href="#m89724377b0" x="40.5" y="169.56" style="stroke: #000000; stroke-width: 1.5"/>
      </g>
     </g>
     <g id="text_6">
      <!-- 2 -->
      <g transform="translate(21.365 174.119063) scale(0.12 -0.12)">
       <use xlink:href="#DejaVuSans-32"/>
      </g>
     </g>
    </g>
    <g id="ytick_4">
     <g id="line2d_7">
      <g>
       <use xlink:href="#m89724377b0" x="40.5" y="110.16" style="stroke: #000000; stroke-width: 1.5"/>
      </g>
     </g>
     <g id="text_7">
      <!-- 3 -->
      <g transform="translate(21.365 114.719063) scale(0.12 -0.12)">
       <use xlink:href="#DejaVuSans-33"/>
      </g>
     </g>
    </g>
    <g id="ytick_5">
     <g id="line2d_8">
      <g>
       <use xlink:href="#m89724377b0" x="40.5" y="50.76" style="stroke: #000000; stroke-width: 1.5"/>
      </g>
     </g>
     <g id="text_8">
      <!-- 4 -->
      <g transform="translate(21.365 55.319062) scale(0.12 -0.12)">
       <use xlink:href="#DejaVuSans-34"/>
      </g>
     </g>
    </g>
   </g>
   <g id="line2d_9">
    <path d="M 51.913636 47.979589 
L 68.218831 92.29844 
L 84.524026 123.985398 
L 100.829221 147.944579 
L 117.134416 166.741691 
L 133.43961 181.914848 
L 149.744805 194.136406 
L 166.05 204.129745 
L 182.355195 212.791539 
L 198.66039 219.993354 
L 214.965584 226.16878 
L 231.270779 231.41401 
L 247.575974 236.057374 
L 263.881169 240.052674 
L 280.186364 243.505029 
" clip-path="url(#p71051a3f23)" style="fill: none; stroke: #ff0000; stroke-width: 1.5; stroke-linecap: square"/>
   </g>
   <g id="LineCollection_1">
    <path d="M 51.913636 48.900838 
L 51.913636 47.058341 
" clip-path="url(#p71051a3f23)" style="fill: none; stroke: #ff0000; stroke-width: 2"/>
    <path d="M 68.218831 92.864538 
L 68.218831 91.732342 
" clip-path="url(#p71051a3f23)" style="fill: none; stroke: #ff0000; stroke-width: 2"/>
    <path d="M 84.524026 124.385405 
L 84.524026 123.585392 
" clip-path="url(#p71051a3f23)" style="fill: none; stroke: #ff0000; stroke-width: 2"/>
    <path d="M 100.829221 148.161688 
L 100.829221 147.72747 
" clip-path="url(#p71051a3f23)" style="fill: none; stroke: #ff0000; stroke-width: 2"/>
    <path d="M 117.134416 166.972975 
L 117.134416 166.510406 
" clip-path="url(#p71051a3f23)" style="fill: none; stroke: #ff0000; stroke-width: 2"/>
    <path d="M 133.43961 182.042863 
L 133.43961 181.786833 
" clip-path="url(#p71051a3f23)" style="fill: none; stroke: #ff0000; stroke-width: 2"/>
    <path d="M 149.744805 194.336755 
L 149.744805 193.936058 
" clip-path="url(#p71051a3f23)" style="fill: none; stroke: #ff0000; stroke-width: 2"/>
    <path d="M 166.05 204.306258 
L 166.05 203.953231 
" clip-path="url(#p71051a3f23)" style="fill: none; stroke: #ff0000; stroke-width: 2"/>
    <path d="M 182.355195 212.880641 
L 182.355195 212.702437 
" clip-path="url(#p71051a3f23)" style="fill: none; stroke: #ff0000; stroke-width: 2"/>
    <path d="M 198.66039 220.089566 
L 198.66039 219.897143 
" clip-path="url(#p71051a3f23)" style="fill: none; stroke: #ff0000; stroke-width: 2"/>
    <path d="M 214.965584 226.223147 
L 214.965584 226.114412 
" clip-path="url(#p71051a3f23)" style="fill: none; stroke: #ff0000; stroke-width: 2"/>
    <path d="M 231.270779 231.472983 
L 231.270779 231.355037 
" clip-path="url(#p71051a3f23)" style="fill: none; stroke: #ff0000; stroke-width: 2"/>
    <path d="M 247.575974 236.113241 
L 247.575974 236.001508 
" clip-path="url(#p71051a3f23)" style="fill: none; stroke: #ff0000; stroke-width: 2"/>
    <path d="M 263.881169 240.111471 
L 263.881169 239.993877 
" clip-path="url(#p71051a3f23)" style="fill: none; stroke: #ff0000; stroke-width: 2"/>
    <path d="M 280.186364 243.57403 
L 280.186364 243.436028 
" clip-path="url(#p71051a3f23)" style="fill: none; stroke: #ff0000; stroke-width: 2"/>
   </g>
   <g id="line2d_10">
    <defs>
     <path id="m1e96f400c8" d="M 3 0 
L -3 -0 
" style="stroke: #ff0000; stroke-width: 2"/>
    </defs>
    <g clip-path="url(#p71051a3f23)">
     <use xlink:href="#m1e96f400c8" x="51.913636" y="48.900838" style="fill: #ff0000; stroke: #ff0000; stroke-width: 2"/>
     <use xlink:href="#m1e96f400c8" x="68.218831" y="92.864538" style="fill: #ff0000; stroke: #ff0000; stroke-width: 2"/>
     <use xlink:href="#m1e96f400c8" x="84.524026" y="124.385405" style="fill: #ff0000; stroke: #ff0000; stroke-width: 2"/>
     <use xlink:href="#m1e96f400c8" x="100.829221" y="148.161688" style="fill: #ff0000; stroke: #ff0000; stroke-width: 2"/>
     <use xlink:href="#m1e96f400c8" x="117.134416" y="166.972975" style="fill: #ff0000; stroke: #ff0000; stroke-width: 2"/>
     <use xlink:href="#m1e96f400c8" x="133.43961" y="182.042863" style="fill: #ff0000; stroke: #ff0000; stroke-width: 2"/>
     <use xlink:href="#m1e96f400c8" x="149.744805" y="194.336755" style="fill: #ff0000; stroke: #ff0000; stroke-width: 2"/>
     <use xlink:href="#m1e96f400c8" x="166.05" y="204.306258" style="fill: #ff0000; stroke: #ff0000; stroke-width: 2"/>
     <use xlink:href="#m1e96f400c8" x="182.355195" y="212.880641" style="fill: #ff0000; stroke: #ff0000; stroke-width: 2"/>
     <use xlink:href="#m1e96f400c8" x="198.66039" y="220.089566" style="fill: #ff0000; stroke: #ff0000; stroke-width: 2"/>
     <use xlink:href="#m1e96f400c8" x="214.965584" y="226.223147" style="fill: #ff0000; stroke: #ff0000; stroke-width: 2"/>
     <use xlink:href="#m1e96f400c8" x="231.270779" y="231.472983" style="fill: #ff0000; stroke: #ff0000; stroke-width: 2"/>
     <use xlink:href="#m1e96f400c8" x="247.575974" y="236.113241" style="fill: #ff0000; stroke: #ff0000; stroke-width: 2"/>
     <use xlink:href="#m1e96f400c8" x="263.881169" y="240.111471" style="fill: #ff0000; stroke: #ff0000; stroke-width: 2"/>
     <use xlink:href="#m1e96f400c8" x="280.186364" y="243.57403" style="fill: #ff0000; stroke: #ff0000; stroke-width: 2"/>
    </g>
   </g>
   <g id="line2d_11">
    <g clip-path="url(#p71051a3f23)">
     <use xlink:href="#m1e96f400c8" x="51.913636" y="47.058341" style="fill: #ff0000; stroke: #ff0000; stroke-width: 2"/>
     <use xlink:href="#m1e96f400c8" x="68.218831" y="91.732342" style="fill: #ff0000; stroke: #ff0000; stroke-width: 2"/>
     <use xlink:href="#m1e96f400c8" x="84.524026" y="123.585392" style="fill: #ff0000; stroke: #ff0000; stroke-width: 2"/>
     <use xlink:href="#m1e96f400c8" x="100.829221" y="147.72747" style="fill: #ff0000; stroke: #ff0000; stroke-width: 2"/>
     <use xlink:href="#m1e96f400c8" x="117.134416" y="166.510406" style="fill: #ff0000; stroke: #ff0000; stroke-width: 2"/>
     <use xlink:href="#m1e96f400c8" x="133.43961" y="181.786833" style="fill: #ff0000; stroke: #ff0000; stroke-width: 2"/>
     <use xlink:href="#m1e96f400c8" x="149.744805" y="193.936058" style="fill: #ff0000; stroke: #ff0000; stroke-width: 2"/>
     <use xlink:href="#m1e96f400c8" x="166.05" y="203.953231" style="fill: #ff0000; stroke: #ff0000; stroke-width: 2"/>
     <use xlink:href="#m1e96f400c8" x="182.355195" y="212.702437" style="fill: #ff0000; stroke: #ff0000; stroke-width: 2"/>
     <use xlink:href="#m1e96f400c8" x="198.66039" y="219.897143" style="fill: #ff0000; stroke: #ff0000; stroke-width: 2"/>
     <use xlink:href="#m1e96f400c8" x="214.965584" y="226.114412" style="fill: #ff0000; stroke: #ff0000; stroke-width: 2"/>
     <use xlink:href="#m1e96f400c8" x="231.270779" y="231.355037" style="fill: #ff0000; stroke: #ff0000; stroke-width: 2"/>
     <use xlink:href="#m1e96f400c8" x="247.575974" y="236.001508" style="fill: #ff0000; stroke: #ff0000; stroke-width: 2"/>
     <use xlink:href="#m1e96f400c8" x="263.881169" y="239.993877" style="fill: #ff0000; stroke: #ff0000; stroke-width: 2"/>
     <use xlink:href="#m1e96f400c8" x="280.186364" y="243.436028" style="fill: #ff0000; stroke: #ff0000; stroke-width: 2"/>
    </g>
   </g>
   <g id="line2d_12">
    <path d="M 51.913636 72.669262 
L 68.218831 115.230218 
L 84.524026 146.130358 
L 100.829221 171.225829 
L 117.134416 189.41193 
L 133.43961 203.141514 
L 149.744805 214.785247 
L 166.05 223.755849 
L 182.355195 231.132542 
L 198.66039 237.278827 
L 214.965584 242.659787 
L 231.270779 247.112528 
L 247.575974 250.948707 
L 263.881169 254.382665 
L 280.186364 257.09284 
" clip-path="url(#p71051a3f23)" style="fill: none; stroke: #000000; stroke-width: 1.5; stroke-linecap: square"/>
   </g>
   <g id="LineCollection_2">
    <path d="M 51.913636 74.40324 
L 51.913636 70.935284 
" clip-path="url(#p71051a3f23)" style="fill: none; stroke: #000000; stroke-width: 2"/>
    <path d="M 68.218831 117.087045 
L 68.218831 113.37339 
" clip-path="url(#p71051a3f23)" style="fill: none; stroke: #000000; stroke-width: 2"/>
    <path d="M 84.524026 148.089179 
L 84.524026 144.171536 
" clip-path="url(#p71051a3f23)" style="fill: none; stroke: #000000; stroke-width: 2"/>
    <path d="M 100.829221 171.704892 
L 100.829221 170.746766 
" clip-path="url(#p71051a3f23)" style="fill: none; stroke: #000000; stroke-width: 2"/>
    <path d="M 117.134416 189.797801 
L 117.134416 189.02606 
" clip-path="url(#p71051a3f23)" style="fill: none; stroke: #000000; stroke-width: 2"/>
    <path d="M 133.43961 203.44074 
L 133.43961 202.842288 
" clip-path="url(#p71051a3f23)" style="fill: none; stroke: #000000; stroke-width: 2"/>
    <path d="M 149.744805 215.203258 
L 149.744805 214.367235 
" clip-path="url(#p71051a3f23)" style="fill: none; stroke: #000000; stroke-width: 2"/>
    <path d="M 166.05 224.020265 
L 166.05 223.491434 
" clip-path="url(#p71051a3f23)" style="fill: none; stroke: #000000; stroke-width: 2"/>
    <path d="M 182.355195 231.275098 
L 182.355195 230.989986 
" clip-path="url(#p71051a3f23)" style="fill: none; stroke: #000000; stroke-width: 2"/>
    <path d="M 198.66039 237.41377 
L 198.66039 237.143885 
" clip-path="url(#p71051a3f23)" style="fill: none; stroke: #000000; stroke-width: 2"/>
    <path d="M 214.965584 242.780457 
L 214.965584 242.539117 
" clip-path="url(#p71051a3f23)" style="fill: none; stroke: #000000; stroke-width: 2"/>
    <path d="M 231.270779 247.239202 
L 231.270779 246.985853 
" clip-path="url(#p71051a3f23)" style="fill: none; stroke: #000000; stroke-width: 2"/>
    <path d="M 247.575974 251.061573 
L 247.575974 250.835841 
" clip-path="url(#p71051a3f23)" style="fill: none; stroke: #000000; stroke-width: 2"/>
    <path d="M 263.881169 254.439984 
L 263.881169 254.325345 
" clip-path="url(#p71051a3f23)" style="fill: none; stroke: #000000; stroke-width: 2"/>
    <path d="M 280.186364 257.179944 
L 280.186364 257.005735 
" clip-path="url(#p71051a3f23)" style="fill: none; stroke: #000000; stroke-width: 2"/>
   </g>
   <g id="line2d_13">
    <defs>
     <path id="m73fff17d8e" d="M 3 0 
L -3 -0 
" style="stroke: #000000; stroke-width: 2"/>
    </defs>
    <g clip-path="url(#p71051a3f23)">
     <use xlink:href="#m73fff17d8e" x="51.913636" y="74.40324" style="stroke: #000000; stroke-width: 2"/>
     <use xlink:href="#m73fff17d8e" x="68.218831" y="117.087045" style="stroke: #000000; stroke-width: 2"/>
     <use xlink:href="#m73fff17d8e" x="84.524026" y="148.089179" style="stroke: #000000; stroke-width: 2"/>
     <use xlink:href="#m73fff17d8e" x="100.829221" y="171.704892" style="stroke: #000000; stroke-width: 2"/>
     <use xlink:href="#m73fff17d8e" x="117.134416" y="189.797801" style="stroke: #000000; stroke-width: 2"/>
     <use xlink:href="#m73fff17d8e" x="133.43961" y="203.44074" style="stroke: #000000; stroke-width: 2"/>
     <use xlink:href="#m73fff17d8e" x="149.744805" y="215.203258" style="stroke: #000000; stroke-width: 2"/>
     <use xlink:href="#m73fff17d8e" x="166.05" y="224.020265" style="stroke: #000000; stroke-width: 2"/>
     <use xlink:href="#m73fff17d8e" x="182.355195" y="231.275098" style="stroke: #000000; stroke-width: 2"/>
     <use xlink:href="#m73fff17d8e" x="198.66039" y="237.41377" style="stroke: #000000; stroke-width: 2"/>
     <use xlink:href="#m73fff17d8e" x="214.965584" y="242.780457" style="stroke: #000000; stroke-width: 2"/>
     <use xlink:href="#m73fff17d8e" x="231.270779" y="247.239202" style="stroke: #000000; stroke-width: 2"/>
     <use xlink:href="#m73fff17d8e" x="247.575974" y="251.061573" style="stroke: #000000; stroke-width: 2"/>
     <use xlink:href="#m73fff17d8e" x="263.881169" y="254.439984" style="stroke: #000000; stroke-width: 2"/>
     <use xlink:href="#m73fff17d8e" x="280.186364" y="257.179944" style="stroke: #000000; stroke-width: 2"/>
    </g>
   </g>
   <g id="line2d_14">
    <g clip-path="url(#p71051a3f23)">
     <use xlink:href="#m73fff17d8e" x="51.913636" y="70.935284" style="stroke: #000000; stroke-width: 2"/>
     <use xlink:href="#m73fff17d8e" x="68.218831" y="113.37339" style="stroke: #000000; stroke-width: 2"/>
     <use xlink:href="#m73fff17d8e" x="84.524026" y="144.171536" style="stroke: #000000; stroke-width: 2"/>
     <use xlink:href="#m73fff17d8e" x="100.829221" y="170.746766" style="stroke: #000000; stroke-width: 2"/>
     <use xlink:href="#m73fff17d8e" x="117.134416" y="189.02606" style="stroke: #000000; stroke-width: 2"/>
     <use xlink:href="#m73fff17d8e" x="133.43961" y="202.842288" style="stroke: #000000; stroke-width: 2"/>
     <use xlink:href="#m73fff17d8e" x="149.744805" y="214.367235" style="stroke: #000000; stroke-width: 2"/>
     <use xlink:href="#m73fff17d8e" x="166.05" y="223.491434" style="stroke: #000000; stroke-width: 2"/>
     <use xlink:href="#m73fff17d8e" x="182.355195" y="230.989986" style="stroke: #000000; stroke-width: 2"/>
     <use xlink:href="#m73fff17d8e" x="198.66039" y="237.143885" style="stroke: #000000; stroke-width: 2"/>
     <use xlink:href="#m73fff17d8e" x="214.965584" y="242.539117" style="stroke: #000000; stroke-width: 2"/>
     <use xlink:href="#m73fff17d8e" x="231.270779" y="246.985853" style="stroke: #000000; stroke-width: 2"/>
     <use xlink:href="#m73fff17d8e" x="247.575974" y="250.835841" style="stroke: #000000; stroke-width: 2"/>
     <use xlink:href="#m73fff17d8e" x="263.881169" y="254.325345" style="stroke: #000000; stroke-width: 2"/>
     <use xlink:href="#m73fff17d8e" x="280.186364" y="257.005735" style="stroke: #000000; stroke-width: 2"/>
    </g>
   </g>
   <g id="line2d_15">
    <path d="M 51.913636 93.200242 
L 68.218831 134.0412 
L 84.524026 165.539714 
L 100.829221 186.997153 
L 117.134416 204.248978 
L 133.43961 217.357059 
L 149.744805 228.537803 
L 166.05 236.894046 
L 182.355195 244.131255 
L 198.66039 250.014532 
L 214.965584 254.766016 
L 231.270779 258.851456 
L 247.575974 262.202471 
L 263.881169 264.972125 
L 280.186364 267.410766 
" clip-path="url(#p71051a3f23)" style="fill: none; stroke: #0000ff; stroke-width: 1.5; stroke-linecap: square"/>
   </g>
   <g id="LineCollection_3">
    <path d="M 51.913636 94.989292 
L 51.913636 91.411193 
" clip-path="url(#p71051a3f23)" style="fill: none; stroke: #0000ff; stroke-width: 2"/>
    <path d="M 68.218831 134.897781 
L 68.218831 133.184619 
" clip-path="url(#p71051a3f23)" style="fill: none; stroke: #0000ff; stroke-width: 2"/>
    <path d="M 84.524026 166.25742 
L 84.524026 164.822008 
" clip-path="url(#p71051a3f23)" style="fill: none; stroke: #0000ff; stroke-width: 2"/>
    <path d="M 100.829221 187.41375 
L 100.829221 186.580556 
" clip-path="url(#p71051a3f23)" style="fill: none; stroke: #0000ff; stroke-width: 2"/>
    <path d="M 117.134416 204.402371 
L 117.134416 204.095585 
" clip-path="url(#p71051a3f23)" style="fill: none; stroke: #0000ff; stroke-width: 2"/>
    <path d="M 133.43961 217.737183 
L 133.43961 216.976935 
" clip-path="url(#p71051a3f23)" style="fill: none; stroke: #0000ff; stroke-width: 2"/>
    <path d="M 149.744805 228.869712 
L 149.744805 228.205894 
" clip-path="url(#p71051a3f23)" style="fill: none; stroke: #0000ff; stroke-width: 2"/>
    <path d="M 166.05 237.084899 
L 166.05 236.703194 
" clip-path="url(#p71051a3f23)" style="fill: none; stroke: #0000ff; stroke-width: 2"/>
    <path d="M 182.355195 244.246262 
L 182.355195 244.016247 
" clip-path="url(#p71051a3f23)" style="fill: none; stroke: #0000ff; stroke-width: 2"/>
    <path d="M 198.66039 250.13579 
L 198.66039 249.893273 
" clip-path="url(#p71051a3f23)" style="fill: none; stroke: #0000ff; stroke-width: 2"/>
    <path d="M 214.965584 254.846995 
L 214.965584 254.685038 
" clip-path="url(#p71051a3f23)" style="fill: none; stroke: #0000ff; stroke-width: 2"/>
    <path d="M 231.270779 258.957789 
L 231.270779 258.745122 
" clip-path="url(#p71051a3f23)" style="fill: none; stroke: #0000ff; stroke-width: 2"/>
    <path d="M 247.575974 262.256505 
L 247.575974 262.148436 
" clip-path="url(#p71051a3f23)" style="fill: none; stroke: #0000ff; stroke-width: 2"/>
    <path d="M 263.881169 265.027431 
L 263.881169 264.91682 
" clip-path="url(#p71051a3f23)" style="fill: none; stroke: #0000ff; stroke-width: 2"/>
    <path d="M 280.186364 267.463355 
L 280.186364 267.358176 
" clip-path="url(#p71051a3f23)" style="fill: none; stroke: #0000ff; stroke-width: 2"/>
   </g>
   <g id="line2d_16">
    <defs>
     <path id="mcd7c5e55de" d="M 3 0 
L -3 -0 
" style="stroke: #0000ff; stroke-width: 2"/>
    </defs>
    <g clip-path="url(#p71051a3f23)">
     <use xlink:href="#mcd7c5e55de" x="51.913636" y="94.989292" style="fill: #0000ff; stroke: #0000ff; stroke-width: 2"/>
     <use xlink:href="#mcd7c5e55de" x="68.218831" y="134.897781" style="fill: #0000ff; stroke: #0000ff; stroke-width: 2"/>
     <use xlink:href="#mcd7c5e55de" x="84.524026" y="166.25742" style="fill: #0000ff; stroke: #0000ff; stroke-width: 2"/>
     <use xlink:href="#mcd7c5e55de" x="100.829221" y="187.41375" style="fill: #0000ff; stroke: #0000ff; stroke-width: 2"/>
     <use xlink:href="#mcd7c5e55de" x="117.134416" y="204.402371" style="fill: #0000ff; stroke: #0000ff; stroke-width: 2"/>
     <use xlink:href="#mcd7c5e55de" x="133.43961" y="217.737183" style="fill: #0000ff; stroke: #0000ff; stroke-width: 2"/>
     <use xlink:href="#mcd7c5e55de" x="149.744805" y="228.869712" style="fill: #0000ff; stroke: #0000ff; stroke-width: 2"/>
     <use xlink:href="#mcd7c5e55de" x="166.05" y="237.084899" style="fill: #0000ff; stroke: #0000ff; stroke-width: 2"/>
     <use xlink:href="#mcd7c5e55de" x="182.355195" y="244.246262" style="fill: #0000ff; stroke: #0000ff; stroke-width: 2"/>
     <use xlink:href="#mcd7c5e55de" x="198.66039" y="250.13579" style="fill: #0000ff; stroke: #0000ff; stroke-width: 2"/>
     <use xlink:href="#mcd7c5e55de" x="214.965584" y="254.846995" style="fill: #0000ff; stroke: #0000ff; stroke-width: 2"/>
     <use xlink:href="#mcd7c5e55de" x="231.270779" y="258.957789" style="fill: #0000ff; stroke: #0000ff; stroke-width: 2"/>
     <use xlink:href="#mcd7c5e55de" x="247.575974" y="262.256505" style="fill: #0000ff; stroke: #0000ff; stroke-width: 2"/>
     <use xlink:href="#mcd7c5e55de" x="263.881169" y="265.027431" style="fill: #0000ff; stroke: #0000ff; stroke-width: 2"/>
     <use xlink:href="#mcd7c5e55de" x="280.186364" y="267.463355" style="fill: #0000ff; stroke: #0000ff; stroke-width: 2"/>
    </g>
   </g>
   <g id="line2d_17">
    <g clip-path="url(#p71051a3f23)">
     <use xlink:href="#mcd7c5e55de" x="51.913636" y="91.411193" style="fill: #0000ff; stroke: #0000ff; stroke-width: 2"/>
     <use xlink:href="#mcd7c5e55de" x="68.218831" y="133.184619" style="fill: #0000ff; stroke: #0000ff; stroke-width: 2"/>
     <use xlink:href="#mcd7c5e55de" x="84.524026" y="164.822008" style="fill: #0000ff; stroke: #0000ff; stroke-width: 2"/>
     <use xlink:href="#mcd7c5e55de" x="100.829221" y="186.580556" style="fill: #0000ff; stroke: #0000ff; stroke-width: 2"/>
     <use xlink:href="#mcd7c5e55de" x="117.134416" y="204.095585" style="fill: #0000ff; stroke: #0000ff; stroke-width: 2"/>
     <use xlink:href="#mcd7c5e55de" x="133.43961" y="216.976935" style="fill: #0000ff; stroke: #0000ff; stroke-width: 2"/>
     <use xlink:href="#mcd7c5e55de" x="149.744805" y="228.205894" style="fill: #0000ff; stroke: #0000ff; stroke-width: 2"/>
     <use xlink:href="#mcd7c5e55de" x="166.05" y="236.703194" style="fill: #0000ff; stroke: #0000ff; stroke-width: 2"/>
     <use xlink:href="#mcd7c5e55de" x="182.355195" y="244.016247" style="fill: #0000ff; stroke: #0000ff; stroke-width: 2"/>
     <use xlink:href="#mcd7c5e55de" x="198.66039" y="249.893273" style="fill: #0000ff; stroke: #0000ff; stroke-width: 2"/>
     <use xlink:href="#mcd7c5e55de" x="214.965584" y="254.685038" style="fill: #0000ff; stroke: #0000ff; stroke-width: 2"/>
     <use xlink:href="#mcd7c5e55de" x="231.270779" y="258.745122" style="fill: #0000ff; stroke: #0000ff; stroke-width: 2"/>
     <use xlink:href="#mcd7c5e55de" x="247.575974" y="262.148436" style="fill: #0000ff; stroke: #0000ff; stroke-width: 2"/>
     <use xlink:href="#mcd7c5e55de" x="263.881169" y="264.91682" style="fill: #0000ff; stroke: #0000ff; stroke-width: 2"/>
     <use xlink:href="#mcd7c5e55de" x="280.186364" y="267.358176" style="fill: #0000ff; stroke: #0000ff; stroke-width: 2"/>
    </g>
   </g>
   <g id="line2d_18">
    <path d="M 51.913636 108.383377 
L 68.218831 149.322643 
L 84.524026 178.185448 
L 100.829221 200.171944 
L 117.134416 217.553013 
L 133.43961 230.635835 
L 149.744805 241.058582 
L 166.05 249.180346 
L 182.355195 255.963959 
L 198.66039 261.129471 
L 214.965584 265.26665 
L 231.270779 268.624184 
L 247.575974 271.350822 
L 263.881169 273.506098 
L 280.186364 275.256219 
" clip-path="url(#p71051a3f23)" style="fill: none; stroke: #bf00bf; stroke-width: 1.5; stroke-linecap: square"/>
   </g>
   <g id="LineCollection_4">
    <path d="M 51.913636 110.908791 
L 51.913636 105.857963 
" clip-path="url(#p71051a3f23)" style="fill: none; stroke: #bf00bf; stroke-width: 2"/>
    <path d="M 68.218831 150.42905 
L 68.218831 148.216235 
" clip-path="url(#p71051a3f23)" style="fill: none; stroke: #bf00bf; stroke-width: 2"/>
    <path d="M 84.524026 180.01336 
L 84.524026 176.357535 
" clip-path="url(#p71051a3f23)" style="fill: none; stroke: #bf00bf; stroke-width: 2"/>
    <path d="M 100.829221 201.119843 
L 100.829221 199.224046 
" clip-path="url(#p71051a3f23)" style="fill: none; stroke: #bf00bf; stroke-width: 2"/>
    <path d="M 117.134416 218.21176 
L 117.134416 216.894266 
" clip-path="url(#p71051a3f23)" style="fill: none; stroke: #bf00bf; stroke-width: 2"/>
    <path d="M 133.43961 231.016082 
L 133.43961 230.255589 
" clip-path="url(#p71051a3f23)" style="fill: none; stroke: #bf00bf; stroke-width: 2"/>
    <path d="M 149.744805 241.397347 
L 149.744805 240.719816 
" clip-path="url(#p71051a3f23)" style="fill: none; stroke: #bf00bf; stroke-width: 2"/>
    <path d="M 166.05 249.436127 
L 166.05 248.924565 
" clip-path="url(#p71051a3f23)" style="fill: none; stroke: #bf00bf; stroke-width: 2"/>
    <path d="M 182.355195 256.099137 
L 182.355195 255.828781 
" clip-path="url(#p71051a3f23)" style="fill: none; stroke: #bf00bf; stroke-width: 2"/>
    <path d="M 198.66039 261.228204 
L 198.66039 261.030737 
" clip-path="url(#p71051a3f23)" style="fill: none; stroke: #bf00bf; stroke-width: 2"/>
    <path d="M 214.965584 265.373204 
L 214.965584 265.160097 
" clip-path="url(#p71051a3f23)" style="fill: none; stroke: #bf00bf; stroke-width: 2"/>
    <path d="M 231.270779 268.69574 
L 231.270779 268.552627 
" clip-path="url(#p71051a3f23)" style="fill: none; stroke: #bf00bf; stroke-width: 2"/>
    <path d="M 247.575974 271.420266 
L 247.575974 271.281379 
" clip-path="url(#p71051a3f23)" style="fill: none; stroke: #bf00bf; stroke-width: 2"/>
    <path d="M 263.881169 273.541976 
L 263.881169 273.47022 
" clip-path="url(#p71051a3f23)" style="fill: none; stroke: #bf00bf; stroke-width: 2"/>
    <path d="M 280.186364 275.295093 
L 280.186364 275.217344 
" clip-path="url(#p71051a3f23)" style="fill: none; stroke: #bf00bf; stroke-width: 2"/>
   </g>
   <g id="line2d_19">
    <defs>
     <path id="m4c6ca6dabb" d="M 3 0 
L -3 -0 
" style="stroke: #bf00bf; stroke-width: 2"/>
    </defs>
    <g clip-path="url(#p71051a3f23)">
     <use xlink:href="#m4c6ca6dabb" x="51.913636" y="110.908791" style="fill: #bf00bf; stroke: #bf00bf; stroke-width: 2"/>
     <use xlink:href="#m4c6ca6dabb" x="68.218831" y="150.42905" style="fill: #bf00bf; stroke: #bf00bf; stroke-width: 2"/>
     <use xlink:href="#m4c6ca6dabb" x="84.524026" y="180.01336" style="fill: #bf00bf; stroke: #bf00bf; stroke-width: 2"/>
     <use xlink:href="#m4c6ca6dabb" x="100.829221" y="201.119843" style="fill: #bf00bf; stroke: #bf00bf; stroke-width: 2"/>
     <use xlink:href="#m4c6ca6dabb" x="117.134416" y="218.21176" style="fill: #bf00bf; stroke: #bf00bf; stroke-width: 2"/>
     <use xlink:href="#m4c6ca6dabb" x="133.43961" y="231.016082" style="fill: #bf00bf; stroke: #bf00bf; stroke-width: 2"/>
     <use xlink:href="#m4c6ca6dabb" x="149.744805" y="241.397347" style="fill: #bf00bf; stroke: #bf00bf; stroke-width: 2"/>
     <use xlink:href="#m4c6ca6dabb" x="166.05" y="249.436127" style="fill: #bf00bf; stroke: #bf00bf; stroke-width: 2"/>
     <use xlink:href="#m4c6ca6dabb" x="182.355195" y="256.099137" style="fill: #bf00bf; stroke: #bf00bf; stroke-width: 2"/>
     <use xlink:href="#m4c6ca6dabb" x="198.66039" y="261.228204" style="fill: #bf00bf; stroke: #bf00bf; stroke-width: 2"/>
     <use xlink:href="#m4c6ca6dabb" x="214.965584" y="265.373204" style="fill: #bf00bf; stroke: #bf00bf; stroke-width: 2"/>
     <use xlink:href="#m4c6ca6dabb" x="231.270779" y="268.69574" style="fill: #bf00bf; stroke: #bf00bf; stroke-width: 2"/>
     <use xlink:href="#m4c6ca6dabb" x="247.575974" y="271.420266" style="fill: #bf00bf; stroke: #bf00bf; stroke-width: 2"/>
     <use xlink:href="#m4c6ca6dabb" x="263.881169" y="273.541976" style="fill: #bf00bf; stroke: #bf00bf; stroke-width: 2"/>
     <use xlink:href="#m4c6ca6dabb" x="280.186364" y="275.295093" style="fill: #bf00bf; stroke: #bf00bf; stroke-width: 2"/>
    </g>
   </g>
   <g id="line2d_20">
    <g clip-path="url(#p71051a3f23)">
     <use xlink:href="#m4c6ca6dabb" x="51.913636" y="105.857963" style="fill: #bf00bf; stroke: #bf00bf; stroke-width: 2"/>
     <use xlink:href="#m4c6ca6dabb" x="68.218831" y="148.216235" style="fill: #bf00bf; stroke: #bf00bf; stroke-width: 2"/>
     <use xlink:href="#m4c6ca6dabb" x="84.524026" y="176.357535" style="fill: #bf00bf; stroke: #bf00bf; stroke-width: 2"/>
     <use xlink:href="#m4c6ca6dabb" x="100.829221" y="199.224046" style="fill: #bf00bf; stroke: #bf00bf; stroke-width: 2"/>
     <use xlink:href="#m4c6ca6dabb" x="117.134416" y="216.894266" style="fill: #bf00bf; stroke: #bf00bf; stroke-width: 2"/>
     <use xlink:href="#m4c6ca6dabb" x="133.43961" y="230.255589" style="fill: #bf00bf; stroke: #bf00bf; stroke-width: 2"/>
     <use xlink:href="#m4c6ca6dabb" x="149.744805" y="240.719816" style="fill: #bf00bf; stroke: #bf00bf; stroke-width: 2"/>
     <use xlink:href="#m4c6ca6dabb" x="166.05" y="248.924565" style="fill: #bf00bf; stroke: #bf00bf; stroke-width: 2"/>
     <use xlink:href="#m4c6ca6dabb" x="182.355195" y="255.828781" style="fill: #bf00bf; stroke: #bf00bf; stroke-width: 2"/>
     <use xlink:href="#m4c6ca6dabb" x="198.66039" y="261.030737" style="fill: #bf00bf; stroke: #bf00bf; stroke-width: 2"/>
     <use xlink:href="#m4c6ca6dabb" x="214.965584" y="265.160097" style="fill: #bf00bf; stroke: #bf00bf; stroke-width: 2"/>
     <use xlink:href="#m4c6ca6dabb" x="231.270779" y="268.552627" style="fill: #bf00bf; stroke: #bf00bf; stroke-width: 2"/>
     <use xlink:href="#m4c6ca6dabb" x="247.575974" y="271.281379" style="fill: #bf00bf; stroke: #bf00bf; stroke-width: 2"/>
     <use xlink:href="#m4c6ca6dabb" x="263.881169" y="273.47022" style="fill: #bf00bf; stroke: #bf00bf; stroke-width: 2"/>
     <use xlink:href="#m4c6ca6dabb" x="280.186364" y="275.217344" style="fill: #bf00bf; stroke: #bf00bf; stroke-width: 2"/>
    </g>
   </g>
   <g id="line2d_21">
    <path d="M 51.913636 47.979589 
L 68.218831 92.29844 
L 84.524026 123.985398 
L 100.829221 147.944579 
L 117.134416 166.741691 
L 133.43961 181.914848 
L 149.744805 194.136406 
L 166.05 204.129745 
L 182.355195 212.791539 
L 198.66039 219.993354 
L 214.965584 226.16878 
L 231.270779 231.41401 
L 247.575974 236.057374 
L 263.881169 240.052674 
L 280.186364 243.505029 
" clip-path="url(#p71051a3f23)" style="fill: none; stroke: #ff0000; stroke-width: 1.5; stroke-linecap: square"/>
   </g>
   <g id="line2d_22">
    <path d="M 51.913636 72.669262 
L 68.218831 115.230218 
L 84.524026 146.130358 
L 100.829221 171.225829 
L 117.134416 189.41193 
L 133.43961 203.141514 
L 149.744805 214.785247 
L 166.05 223.755849 
L 182.355195 231.132542 
L 198.66039 237.278827 
L 214.965584 242.659787 
L 231.270779 247.112528 
L 247.575974 250.948707 
L 263.881169 254.382665 
L 280.186364 257.09284 
" clip-path="url(#p71051a3f23)" style="fill: none; stroke: #000000; stroke-width: 1.5; stroke-linecap: square"/>
   </g>
   <g id="line2d_23">
    <path d="M 51.913636 93.200242 
L 68.218831 134.0412 
L 84.524026 165.539714 
L 100.829221 186.997153 
L 117.134416 204.248978 
L 133.43961 217.357059 
L 149.744805 228.537803 
L 166.05 236.894046 
L 182.355195 244.131255 
L 198.66039 250.014532 
L 214.965584 254.766016 
L 231.270779 258.851456 
L 247.575974 262.202471 
L 263.881169 264.972125 
L 280.186364 267.410766 
" clip-path="url(#p71051a3f23)" style="fill: none; stroke: #0000ff; stroke-width: 1.5; stroke-linecap: square"/>
   </g>
   <g id="line2d_24">
    <path d="M 51.913636 108.383377 
L 68.218831 149.322643 
L 84.524026 178.185448 
L 100.829221 200.171944 
L 117.134416 217.553013 
L 133.43961 230.635835 
L 149.744805 241.058582 
L 166.05 249.180346 
L 182.355195 255.963959 
L 198.66039 261.129471 
L 214.965584 265.26665 
L 231.270779 268.624184 
L 247.575974 271.350822 
L 263.881169 273.506098 
L 280.186364 275.256219 
" clip-path="url(#p71051a3f23)" style="fill: none; stroke: #bf00bf; stroke-width: 1.5; stroke-linecap: square"/>
   </g>
   <g id="patch_3">
    <path d="M 40.5 288.36 
L 40.5 38.88 
" style="fill: none; stroke: #000000; stroke-width: 1.6; stroke-linejoin: miter; stroke-linecap: square"/>
   </g>
   <g id="patch_4">
    <path d="M 291.6 288.36 
L 291.6 38.88 
" style="fill: none; stroke: #000000; stroke-width: 1.6; stroke-linejoin: miter; stroke-linecap: square"/>
   </g>
   <g id="patch_5">
    <path d="M 40.5 288.36 
L 291.6 288.36 
" style="fill: none; stroke: #000000; stroke-width: 1.6; stroke-linejoin: miter; stroke-linecap: square"/>
   </g>
   <g id="patch_6">
    <path d="M 40.5 38.88 
L 291.6 38.88 
" style="fill: none; stroke: #000000; stroke-width: 1.6; stroke-linejoin: miter; stroke-linecap: square"/>
   </g>
   <g id="legend_1">
    <g id="patch_7">
     <path d="M 209.120625 118.935 
L 283.2 118.935 
Q 285.6 118.935 285.6 116.535 
L 285.6 47.28 
Q 285.6 44.88 283.2 44.88 
L 209.120625 44.88 
Q 206.720625 44.88 206.720625 47.28 
L 206.720625 116.535 
Q 206.720625 118.935 209.120625 118.935 
z
" style="fill: #ffffff; opacity: 0.8"/>
    </g>
    <g id="LineCollection_5">
     <path d="M 223.520625 60.598125 
L 223.520625 48.598125 
" style="fill: none; stroke: #ff0000; stroke-width: 2"/>
    </g>
    <g id="line2d_25">
     <g>
      <use xlink:href="#m1e96f400c8" x="223.520625" y="60.598125" style="fill: #ff0000; stroke: #ff0000; stroke-width: 2"/>
     </g>
    </g>
    <g id="line2d_26">
     <g>
      <use xlink:href="#m1e96f400c8" x="223.520625" y="48.598125" style="fill: #ff0000; stroke: #ff0000; stroke-width: 2"/>
     </g>
    </g>
    <g id="line2d_27">
     <path d="M 211.520625 54.598125 
L 235.520625 54.598125 
" style="fill: none; stroke: #ff0000; stroke-width: 1.5; stroke-linecap: square"/>
    </g>
    <g id="line2d_28"/>
    <g id="text_9">
     <!-- M=4 -->
     <g transform="translate(245.120625 58.798125) scale(0.12 -0.12)">
      <defs>
       <path id="DejaVuSans-4d" d="M 628 4666 
L 1569 4666 
L 2759 1491 
L 3956 4666 
L 4897 4666 
L 4897 0 
L 4281 0 
L 4281 4097 
L 3078 897 
L 2444 897 
L 1241 4097 
L 1241 0 
L 628 0 
L 628 4666 
z
" transform="scale(0.015625)"/>
       <path id="DejaVuSans-3d" d="M 678 2906 
L 4684 2906 
L 4684 2381 
L 678 2381 
L 678 2906 
z
M 678 1631 
L 4684 1631 
L 4684 1100 
L 678 1100 
L 678 1631 
z
" transform="scale(0.015625)"/>
      </defs>
      <use xlink:href="#DejaVuSans-4d"/>
      <use xlink:href="#DejaVuSans-3d" x="86.279297"/>
      <use xlink:href="#DejaVuSans-34" x="170.068359"/>
     </g>
    </g>
    <g id="LineCollection_6">
     <path d="M 223.520625 78.211875 
L 223.520625 66.211875 
" style="fill: none; stroke: #000000; stroke-width: 2"/>
    </g>
    <g id="line2d_29">
     <g>
      <use xlink:href="#m73fff17d8e" x="223.520625" y="78.211875" style="stroke: #000000; stroke-width: 2"/>
     </g>
    </g>
    <g id="line2d_30">
     <g>
      <use xlink:href="#m73fff17d8e" x="223.520625" y="66.211875" style="stroke: #000000; stroke-width: 2"/>
     </g>
    </g>
    <g id="line2d_31">
     <path d="M 211.520625 72.211875 
L 235.520625 72.211875 
" style="fill: none; stroke: #000000; stroke-width: 1.5; stroke-linecap: square"/>
    </g>
    <g id="line2d_32"/>
    <g id="text_10">
     <!-- M=8 -->
     <g transform="translate(245.120625 76.411875) scale(0.12 -0.12)">
      <defs>
       <path id="DejaVuSans-38" d="M 2034 2216 
Q 1584 2216 1326 1975 
Q 1069 1734 1069 1313 
Q 1069 891 1326 650 
Q 1584 409 2034 409 
Q 2484 409 2743 651 
Q 3003 894 3003 1313 
Q 3003 1734 2745 1975 
Q 2488 2216 2034 2216 
z
M 1403 2484 
Q 997 2584 770 2862 
Q 544 3141 544 3541 
Q 544 4100 942 4425 
Q 1341 4750 2034 4750 
Q 2731 4750 3128 4425 
Q 3525 4100 3525 3541 
Q 3525 3141 3298 2862 
Q 3072 2584 2669 2484 
Q 3125 2378 3379 2068 
Q 3634 1759 3634 1313 
Q 3634 634 3220 271 
Q 2806 -91 2034 -91 
Q 1263 -91 848 271 
Q 434 634 434 1313 
Q 434 1759 690 2068 
Q 947 2378 1403 2484 
z
M 1172 3481 
Q 1172 3119 1398 2916 
Q 1625 2713 2034 2713 
Q 2441 2713 2670 2916 
Q 2900 3119 2900 3481 
Q 2900 3844 2670 4047 
Q 2441 4250 2034 4250 
Q 1625 4250 1398 4047 
Q 1172 3844 1172 3481 
z
" transform="scale(0.015625)"/>
      </defs>
      <use xlink:href="#DejaVuSans-4d"/>
      <use xlink:href="#DejaVuSans-3d" x="86.279297"/>
      <use xlink:href="#DejaVuSans-38" x="170.068359"/>
     </g>
    </g>
    <g id="LineCollection_7">
     <path d="M 223.520625 95.825625 
L 223.520625 83.825625 
" style="fill: none; stroke: #0000ff; stroke-width: 2"/>
    </g>
    <g id="line2d_33">
     <g>
      <use xlink:href="#mcd7c5e55de" x="223.520625" y="95.825625" style="fill: #0000ff; stroke: #0000ff; stroke-width: 2"/>
     </g>
    </g>
    <g id="line2d_34">
     <g>
      <use xlink:href="#mcd7c5e55de" x="223.520625" y="83.825625" style="fill: #0000ff; stroke: #0000ff; stroke-width: 2"/>
     </g>
    </g>
    <g id="line2d_35">
     <path d="M 211.520625 89.825625 
L 235.520625 89.825625 
" style="fill: none; stroke: #0000ff; stroke-width: 1.5; stroke-linecap: square"/>
    </g>
    <g id="line2d_36"/>
    <g id="text_11">
     <!-- M=16 -->
     <g transform="translate(245.120625 94.025625) scale(0.12 -0.12)">
      <defs>
       <path id="DejaVuSans-36" d="M 2113 2584 
Q 1688 2584 1439 2293 
Q 1191 2003 1191 1497 
Q 1191 994 1439 701 
Q 1688 409 2113 409 
Q 2538 409 2786 701 
Q 3034 994 3034 1497 
Q 3034 2003 2786 2293 
Q 2538 2584 2113 2584 
z
M 3366 4563 
L 3366 3988 
Q 3128 4100 2886 4159 
Q 2644 4219 2406 4219 
Q 1781 4219 1451 3797 
Q 1122 3375 1075 2522 
Q 1259 2794 1537 2939 
Q 1816 3084 2150 3084 
Q 2853 3084 3261 2657 
Q 3669 2231 3669 1497 
Q 3669 778 3244 343 
Q 2819 -91 2113 -91 
Q 1303 -91 875 529 
Q 447 1150 447 2328 
Q 447 3434 972 4092 
Q 1497 4750 2381 4750 
Q 2619 4750 2861 4703 
Q 3103 4656 3366 4563 
z
" transform="scale(0.015625)"/>
      </defs>
      <use xlink:href="#DejaVuSans-4d"/>
      <use xlink:href="#DejaVuSans-3d" x="86.279297"/>
      <use xlink:href="#DejaVuSans-31" x="170.068359"/>
      <use xlink:href="#DejaVuSans-36" x="233.691406"/>
     </g>
    </g>
    <g id="LineCollection_8">
     <path d="M 223.520625 113.439375 
L 223.520625 101.439375 
" style="fill: none; stroke: #bf00bf; stroke-width: 2"/>
    </g>
    <g id="line2d_37">
     <g>
      <use xlink:href="#m4c6ca6dabb" x="223.520625" y="113.439375" style="fill: #bf00bf; stroke: #bf00bf; stroke-width: 2"/>
     </g>
    </g>
    <g id="line2d_38">
     <g>
      <use xlink:href="#m4c6ca6dabb" x="223.520625" y="101.439375" style="fill: #bf00bf; stroke: #bf00bf; stroke-width: 2"/>
     </g>
    </g>
    <g id="line2d_39">
     <path d="M 211.520625 107.439375 
L 235.520625 107.439375 
" style="fill: none; stroke: #bf00bf; stroke-width: 1.5; stroke-linecap: square"/>
    </g>
    <g id="line2d_40"/>
    <g id="text_12">
     <!-- M=32 -->
     <g transform="translate(245.120625 111.639375) scale(0.12 -0.12)">
      <use xlink:href="#DejaVuSans-4d"/>
      <use xlink:href="#DejaVuSans-3d" x="86.279297"/>
      <use xlink:href="#DejaVuSans-33" x="170.068359"/>
      <use xlink:href="#DejaVuSans-32" x="233.691406"/>
     </g>
    </g>
   </g>
  </g>
 </g>
 <defs>
  <clipPath id="p71051a3f23">
   <rect x="40.5" y="38.88" width="251.1" height="249.48"/>
  </clipPath>
 </defs>
</svg>
