<?xml version="1.0" encoding="utf-8" standalone="no"?>
<!DOCTYPE svg PUBLIC "-//W3C//DTD SVG 1.1//EN"
  "http://www.w3.org/Graphics/SVG/1.1/DTD/svg11.dtd">
<svg xmlns:xlink="http://www.w3.org/1999/xlink" width="324pt" height="324pt" viewBox="0 0 324 324" xmlns="http://www.w3.org/2000/svg" version="1.1">
 <metadata>
  <rdf:RDF xmlns:dc="http://purl.org/dc/elements/1.1/" xmlns:cc="http://creativecommons.org/ns#" xmlns:rdf="http://www.w3.org/1999/02/22-rdf-syntax-ns#">
   <cc:Work>
    <dc:type rdf:resource="http://purl.org/dc/dcmitype/StillImage"/>
    <dc:date>2026-01-11T17:10:04.940382</dc:date>
    <dc:format>image/svg+xml</dc:format>
    <dc:creator>
     <cc:Agent>
      <dc:title>Matplotlib v3.8.0, https://matplotlib.org/</dc:title>
     </cc:Agent>
    </dc:creator>
   </cc:Work>
  </rdf:RDF>
 </metadata>
 <defs>
  <style type="text/css">*{stroke-linejoin: round; stroke-linecap: butt}</style>
 </defs>
 <g id="figure_1">
  <g id="patch_1">
   <path d="M 0 324 
L 324 324 
L 324 0 
L 0 0 
z
" style="fill: #ffffff"/>
  </g>
  <g id="axes_1">
   <g id="patch_2">
    <path d="M 40.5 288.36 
L 291.6 288.36 
L 291.6 38.88 
L 40.5 38.88 
z
" style="fill: #ffffff"/>
   </g>
   <g id="matplotlib.axis_1">
    <g id="xtick_1">
     <g id="line2d_1">
      <defs>
       <path id="mfa32ff352f" d="M 0 0 
L 0 8 
" style="stroke: #000000; stroke-width: 1.5"/>
      </defs>
      <g>
       <use xlink:href="#mfa32ff352f" x="100.829221" y="288.36" style="stroke: #000000; stroke-width: 1.5"/>
      </g>
     </g>
     <g id="text_1">
      <!-- 6 -->
      <g transform="translate(97.011721 308.978125) scale(0.12 -0.12)">
       <defs>
        <path id="DejaVuSans-36" d="M 2113 2584 
Q 1688 2584 1439 2293 
Q 1191 2003 1191 1497 
Q 1191 994 1439 701 
Q 1688 409 2113 409 
Q 2538 409 2786 701 
Q 3034 994 3034 1497 
Q 3034 2003 2786 2293 
Q 2538 2584 2113 2584 
z
M 3366 4563 
L 3366 3988 
Q 3128 4100 2886 4159 
Q 2644 4219 2406 4219 
Q 1781 4219 1451 3797 
Q 1122 3375 1075 2522 
Q 1259 2794 1537 2939 
Q 1816 3084 2150 3084 
Q 2853 3084 3261 2657 
Q 3669 2231 3669 1497 
Q 3669 778 3244 343 
Q 2819 -91 2113 -91 
Q 1303 -91 875 529 
Q 447 1150 447 2328 
Q 447 3434 972 4092 
Q 1497 4750 2381 4750 
Q 2619 4750 2861 4703 
Q 3103 4656 3366 4563 
z
" transform="scale(0.015625)"/>
       </defs>
       <use xlink:href="#DejaVuSans-36"/>
      </g>
     </g>
    </g>
    <g id="xtick_2">
     <g id="line2d_2">
      <g>
       <use xlink:href="#mfa32ff352f" x="182.355195" y="288.36" style="stroke: #000000; stroke-width: 1.5"/>
      </g>
     </g>
     <g id="text_2">
      <!-- 7 -->
      <g transform="translate(178.537695 308.978125) scale(0.12 -0.12)">
       <defs>
        <path id="DejaVuSans-37" d="M 525 4666 
L 3525 4666 
L 3525 4397 
L 1831 0 
L 1172 0 
L 2766 4134 
L 525 4134 
L 525 4666 
z
" transform="scale(0.015625)"/>
       </defs>
       <use xlink:href="#DejaVuSans-37"/>
      </g>
     </g>
    </g>
    <g id="xtick_3">
     <g id="line2d_3">
      <g>
       <use xlink:href="#mfa32ff352f" x="263.881169" y="288.36" style="stroke: #000000; stroke-width: 1.5"/>
      </g>
     </g>
     <g id="text_3">
      <!-- 8 -->
      <g transform="translate(260.063669 308.978125) scale(0.12 -0.12)">
       <defs>
        <path id="DejaVuSans-38" d="M 2034 2216 
Q 1584 2216 1326 1975 
Q 1069 1734 1069 1313 
Q 1069 891 1326 650 
Q 1584 409 2034 409 
Q 2484 409 2743 651 
Q 3003 894 3003 1313 
Q 3003 1734 2745 1975 
Q 2488 2216 2034 2216 
z
M 1403 2484 
Q 997 2584 770 2862 
Q 544 3141 544 3541 
Q 544 4100 942 4425 
Q 1341 4750 2034 4750 
Q 2731 4750 3128 4425 
Q 3525 4100 3525 3541 
Q 3525 3141 3298 2862 
Q 3072 2584 2669 2484 
Q 3125 2378 3379 2068 
Q 3634 1759 3634 1313 
Q 3634 634 3220 271 
Q 2806 -91 2034 -91 
Q 1263 -91 848 271 
Q 434 634 434 1313 
Q 434 1759 690 2068 
Q 947 2378 1403 2484 
z
M 1172 3481 
Q 1172 3119 1398 2916 
Q 1625 2713 2034 2713 
Q 2441 2713 2670 2916 
Q 2900 3119 2900 3481 
Q 2900 3844 2670 4047 
Q 2441 4250 2034 4250 
Q 1625 4250 1398 4047 
Q 1172 3844 1172 3481 
z
" transform="scale(0.015625)"/>
       </defs>
       <use xlink:href="#DejaVuSans-38"/>
      </g>
     </g>
    </g>
   </g>
   <g id="matplotlib.axis_2">
    <g id="ytick_1">
     <g id="line2d_4">
      <defs>
       <path id="mfba110af9f" d="M 0 0 
L -8 0 
" style="stroke: #000000; stroke-width: 1.5"/>
      </defs>
      <g>
       <use xlink:href="#mfba110af9f" x="40.5" y="283.467477" style="stroke: #000000; stroke-width: 1.5"/>
      </g>
     </g>
     <g id="text_4">
      <!-- 0 -->
      <g transform="translate(21.365 288.026539) scale(0.12 -0.12)">
       <defs>
        <path id="DejaVuSans-30" d="M 2034 4250 
Q 1547 4250 1301 3770 
Q 1056 3291 1056 2328 
Q 1056 1369 1301 889 
Q 1547 409 2034 409 
Q 2525 409 2770 889 
Q 3016 1369 3016 2328 
Q 3016 3291 2770 3770 
Q 2525 4250 2034 4250 
z
M 2034 4750 
Q 2819 4750 3233 4129 
Q 3647 3509 3647 2328 
Q 3647 1150 3233 529 
Q 2819 -91 2034 -91 
Q 1250 -91 836 529 
Q 422 1150 422 2328 
Q 422 3509 836 4129 
Q 1250 4750 2034 4750 
z
" transform="scale(0.015625)"/>
       </defs>
       <use xlink:href="#DejaVuSans-30"/>
      </g>
     </g>
    </g>
    <g id="ytick_2">
     <g id="line2d_5">
      <g>
       <use xlink:href="#mfba110af9f" x="40.5" y="228.653267" style="stroke: #000000; stroke-width: 1.5"/>
      </g>
     </g>
     <g id="text_5">
      <!-- 1 -->
      <g transform="translate(21.365 233.212329) scale(0.12 -0.12)">
       <defs>
        <path id="DejaVuSans-31" d="M 794 531 
L 1825 531 
L 1825 4091 
L 703 3866 
L 703 4441 
L 1819 4666 
L 2450 4666 
L 2450 531 
L 3481 531 
L 3481 0 
L 794 0 
L 794 531 
z
" transform="scale(0.015625)"/>
       </defs>
       <use xlink:href="#DejaVuSans-31"/>
      </g>
     </g>
    </g>
    <g id="ytick_3">
     <g id="line2d_6">
      <g>
       <use xlink:href="#mfba110af9f" x="40.5" y="173.839057" style="stroke: #000000; stroke-width: 1.5"/>
      </g>
     </g>
     <g id="text_6">
      <!-- 2 -->
      <g transform="translate(21.365 178.39812) scale(0.12 -0.12)">
       <defs>
        <path id="DejaVuSans-32" d="M 1228 531 
L 3431 531 
L 3431 0 
L 469 0 
L 469 531 
Q 828 903 1448 1529 
Q 2069 2156 2228 2338 
Q 2531 2678 2651 2914 
Q 2772 3150 2772 3378 
Q 2772 3750 2511 3984 
Q 2250 4219 1831 4219 
Q 1534 4219 1204 4116 
Q 875 4013 500 3803 
L 500 4441 
Q 881 4594 1212 4672 
Q 1544 4750 1819 4750 
Q 2544 4750 2975 4387 
Q 3406 4025 3406 3419 
Q 3406 3131 3298 2873 
Q 3191 2616 2906 2266 
Q 2828 2175 2409 1742 
Q 1991 1309 1228 531 
z
" transform="scale(0.015625)"/>
       </defs>
       <use xlink:href="#DejaVuSans-32"/>
      </g>
     </g>
    </g>
    <g id="ytick_4">
     <g id="line2d_7">
      <g>
       <use xlink:href="#mfba110af9f" x="40.5" y="119.024848" style="stroke: #000000; stroke-width: 1.5"/>
      </g>
     </g>
     <g id="text_7">
      <!-- 3 -->
      <g transform="translate(21.365 123.58391) scale(0.12 -0.12)">
       <defs>
        <path id="DejaVuSans-33" d="M 2597 2516 
Q 3050 2419 3304 2112 
Q 3559 1806 3559 1356 
Q 3559 666 3084 287 
Q 2609 -91 1734 -91 
Q 1441 -91 1130 -33 
Q 819 25 488 141 
L 488 750 
Q 750 597 1062 519 
Q 1375 441 1716 441 
Q 2309 441 2620 675 
Q 2931 909 2931 1356 
Q 2931 1769 2642 2001 
Q 2353 2234 1838 2234 
L 1294 2234 
L 1294 2753 
L 1863 2753 
Q 2328 2753 2575 2939 
Q 2822 3125 2822 3475 
Q 2822 3834 2567 4026 
Q 2313 4219 1838 4219 
Q 1578 4219 1281 4162 
Q 984 4106 628 3988 
L 628 4550 
Q 988 4650 1302 4700 
Q 1616 4750 1894 4750 
Q 2613 4750 3031 4423 
Q 3450 4097 3450 3541 
Q 3450 3153 3228 2886 
Q 3006 2619 2597 2516 
z
" transform="scale(0.015625)"/>
       </defs>
       <use xlink:href="#DejaVuSans-33"/>
      </g>
     </g>
    </g>
    <g id="ytick_5">
     <g id="line2d_8">
      <g>
       <use xlink:href="#mfba110af9f" x="40.5" y="64.210638" style="stroke: #000000; stroke-width: 1.5"/>
      </g>
     </g>
     <g id="text_8">
      <!-- 4 -->
      <g transform="translate(21.365 68.7697) scale(0.12 -0.12)">
       <defs>
        <path id="DejaVuSans-34" d="M 2419 4116 
L 825 1625 
L 2419 1625 
L 2419 4116 
z
M 2253 4666 
L 3047 4666 
L 3047 1625 
L 3713 1625 
L 3713 1100 
L 3047 1100 
L 3047 0 
L 2419 0 
L 2419 1100 
L 313 1100 
L 313 1709 
L 2253 4666 
z
" transform="scale(0.015625)"/>
       </defs>
       <use xlink:href="#DejaVuSans-34"/>
      </g>
     </g>
    </g>
   </g>
   <g id="line2d_9">
    <path d="M 51.913636 134.687241 
L 68.218831 138.816051 
L 84.524026 153.071477 
L 100.829221 168.943179 
L 117.134416 186.253076 
L 133.43961 204.306193 
L 149.744805 225.918865 
L 166.05 239.746723 
L 182.355195 244.70123 
L 198.66039 263.208646 
L 214.965584 270.683424 
L 231.270779 271.239332 
L 247.575974 271.295424 
L 263.881169 271.282156 
L 280.186364 271.289972 
" clip-path="url(#pec46f0970e)" style="fill: none; stroke: #ff0000; stroke-width: 1.5; stroke-linecap: square"/>
   </g>
   <g id="LineCollection_1">
    <path d="M 51.913636 134.993784 
L 51.913636 134.380698 
" clip-path="url(#pec46f0970e)" style="fill: none; stroke: #ff0000; stroke-width: 2"/>
    <path d="M 68.218831 139.594977 
L 68.218831 138.037125 
" clip-path="url(#pec46f0970e)" style="fill: none; stroke: #ff0000; stroke-width: 2"/>
    <path d="M 84.524026 153.50894 
L 84.524026 152.634014 
" clip-path="url(#pec46f0970e)" style="fill: none; stroke: #ff0000; stroke-width: 2"/>
    <path d="M 100.829221 169.369576 
L 100.829221 168.516782 
" clip-path="url(#pec46f0970e)" style="fill: none; stroke: #ff0000; stroke-width: 2"/>
    <path d="M 117.134416 186.651171 
L 117.134416 185.854981 
" clip-path="url(#pec46f0970e)" style="fill: none; stroke: #ff0000; stroke-width: 2"/>
    <path d="M 133.43961 204.720767 
L 133.43961 203.89162 
" clip-path="url(#pec46f0970e)" style="fill: none; stroke: #ff0000; stroke-width: 2"/>
    <path d="M 149.744805 226.234454 
L 149.744805 225.603277 
" clip-path="url(#pec46f0970e)" style="fill: none; stroke: #ff0000; stroke-width: 2"/>
    <path d="M 166.05 239.848573 
L 166.05 239.644873 
" clip-path="url(#pec46f0970e)" style="fill: none; stroke: #ff0000; stroke-width: 2"/>
    <path d="M 182.355195 244.836081 
L 182.355195 244.566379 
" clip-path="url(#pec46f0970e)" style="fill: none; stroke: #ff0000; stroke-width: 2"/>
    <path d="M 198.66039 263.302276 
L 198.66039 263.115016 
" clip-path="url(#pec46f0970e)" style="fill: none; stroke: #ff0000; stroke-width: 2"/>
    <path d="M 214.965584 270.713192 
L 214.965584 270.653656 
" clip-path="url(#pec46f0970e)" style="fill: none; stroke: #ff0000; stroke-width: 2"/>
    <path d="M 231.270779 271.276156 
L 231.270779 271.202508 
" clip-path="url(#pec46f0970e)" style="fill: none; stroke: #ff0000; stroke-width: 2"/>
    <path d="M 247.575974 271.337096 
L 247.575974 271.253753 
" clip-path="url(#pec46f0970e)" style="fill: none; stroke: #ff0000; stroke-width: 2"/>
    <path d="M 263.881169 271.300532 
L 263.881169 271.26378 
" clip-path="url(#pec46f0970e)" style="fill: none; stroke: #ff0000; stroke-width: 2"/>
    <path d="M 280.186364 271.33073 
L 280.186364 271.249214 
" clip-path="url(#pec46f0970e)" style="fill: none; stroke: #ff0000; stroke-width: 2"/>
   </g>
   <g id="line2d_10">
    <defs>
     <path id="made8f99cf8" d="M 3 0 
L -3 -0 
" style="stroke: #ff0000; stroke-width: 2"/>
    </defs>
    <g clip-path="url(#pec46f0970e)">
     <use xlink:href="#made8f99cf8" x="51.913636" y="134.993784" style="fill: #ff0000; stroke: #ff0000; stroke-width: 2"/>
     <use xlink:href="#made8f99cf8" x="68.218831" y="139.594977" style="fill: #ff0000; stroke: #ff0000; stroke-width: 2"/>
     <use xlink:href="#made8f99cf8" x="84.524026" y="153.50894" style="fill: #ff0000; stroke: #ff0000; stroke-width: 2"/>
     <use xlink:href="#made8f99cf8" x="100.829221" y="169.369576" style="fill: #ff0000; stroke: #ff0000; stroke-width: 2"/>
     <use xlink:href="#made8f99cf8" x="117.134416" y="186.651171" style="fill: #ff0000; stroke: #ff0000; stroke-width: 2"/>
     <use xlink:href="#made8f99cf8" x="133.43961" y="204.720767" style="fill: #ff0000; stroke: #ff0000; stroke-width: 2"/>
     <use xlink:href="#made8f99cf8" x="149.744805" y="226.234454" style="fill: #ff0000; stroke: #ff0000; stroke-width: 2"/>
     <use xlink:href="#made8f99cf8" x="166.05" y="239.848573" style="fill: #ff0000; stroke: #ff0000; stroke-width: 2"/>
     <use xlink:href="#made8f99cf8" x="182.355195" y="244.836081" style="fill: #ff0000; stroke: #ff0000; stroke-width: 2"/>
     <use xlink:href="#made8f99cf8" x="198.66039" y="263.302276" style="fill: #ff0000; stroke: #ff0000; stroke-width: 2"/>
     <use xlink:href="#made8f99cf8" x="214.965584" y="270.713192" style="fill: #ff0000; stroke: #ff0000; stroke-width: 2"/>
     <use xlink:href="#made8f99cf8" x="231.270779" y="271.276156" style="fill: #ff0000; stroke: #ff0000; stroke-width: 2"/>
     <use xlink:href="#made8f99cf8" x="247.575974" y="271.337096" style="fill: #ff0000; stroke: #ff0000; stroke-width: 2"/>
     <use xlink:href="#made8f99cf8" x="263.881169" y="271.300532" style="fill: #ff0000; stroke: #ff0000; stroke-width: 2"/>
     <use xlink:href="#made8f99cf8" x="280.186364" y="271.33073" style="fill: #ff0000; stroke: #ff0000; stroke-width: 2"/>
    </g>
   </g>
   <g id="line2d_11">
    <g clip-path="url(#pec46f0970e)">
     <use xlink:href="#made8f99cf8" x="51.913636" y="134.380698" style="fill: #ff0000; stroke: #ff0000; stroke-width: 2"/>
     <use xlink:href="#made8f99cf8" x="68.218831" y="138.037125" style="fill: #ff0000; stroke: #ff0000; stroke-width: 2"/>
     <use xlink:href="#made8f99cf8" x="84.524026" y="152.634014" style="fill: #ff0000; stroke: #ff0000; stroke-width: 2"/>
     <use xlink:href="#made8f99cf8" x="100.829221" y="168.516782" style="fill: #ff0000; stroke: #ff0000; stroke-width: 2"/>
     <use xlink:href="#made8f99cf8" x="117.134416" y="185.854981" style="fill: #ff0000; stroke: #ff0000; stroke-width: 2"/>
     <use xlink:href="#made8f99cf8" x="133.43961" y="203.89162" style="fill: #ff0000; stroke: #ff0000; stroke-width: 2"/>
     <use xlink:href="#made8f99cf8" x="149.744805" y="225.603277" style="fill: #ff0000; stroke: #ff0000; stroke-width: 2"/>
     <use xlink:href="#made8f99cf8" x="166.05" y="239.644873" style="fill: #ff0000; stroke: #ff0000; stroke-width: 2"/>
     <use xlink:href="#made8f99cf8" x="182.355195" y="244.566379" style="fill: #ff0000; stroke: #ff0000; stroke-width: 2"/>
     <use xlink:href="#made8f99cf8" x="198.66039" y="263.115016" style="fill: #ff0000; stroke: #ff0000; stroke-width: 2"/>
     <use xlink:href="#made8f99cf8" x="214.965584" y="270.653656" style="fill: #ff0000; stroke: #ff0000; stroke-width: 2"/>
     <use xlink:href="#made8f99cf8" x="231.270779" y="271.202508" style="fill: #ff0000; stroke: #ff0000; stroke-width: 2"/>
     <use xlink:href="#made8f99cf8" x="247.575974" y="271.253753" style="fill: #ff0000; stroke: #ff0000; stroke-width: 2"/>
     <use xlink:href="#made8f99cf8" x="263.881169" y="271.26378" style="fill: #ff0000; stroke: #ff0000; stroke-width: 2"/>
     <use xlink:href="#made8f99cf8" x="280.186364" y="271.249214" style="fill: #ff0000; stroke: #ff0000; stroke-width: 2"/>
    </g>
   </g>
   <g id="line2d_12">
    <path d="M 51.913636 111.697886 
L 68.218831 124.733733 
L 84.524026 136.446858 
L 100.829221 149.301516 
L 117.134416 164.539959 
L 133.43961 188.99238 
L 149.744805 213.635031 
L 166.05 237.263186 
L 182.355195 253.247455 
L 198.66039 265.808347 
L 214.965584 273.168012 
L 231.270779 273.881358 
L 247.575974 273.835941 
L 263.881169 273.855068 
L 280.186364 273.801925 
" clip-path="url(#pec46f0970e)" style="fill: none; stroke: #000000; stroke-width: 1.5; stroke-linecap: square"/>
   </g>
   <g id="LineCollection_2">
    <path d="M 51.913636 112.06915 
L 51.913636 111.326623 
" clip-path="url(#pec46f0970e)" style="fill: none; stroke: #000000; stroke-width: 2"/>
    <path d="M 68.218831 125.344106 
L 68.218831 124.123359 
" clip-path="url(#pec46f0970e)" style="fill: none; stroke: #000000; stroke-width: 2"/>
    <path d="M 84.524026 137.226569 
L 84.524026 135.667148 
" clip-path="url(#pec46f0970e)" style="fill: none; stroke: #000000; stroke-width: 2"/>
    <path d="M 100.829221 149.849892 
L 100.829221 148.753141 
" clip-path="url(#pec46f0970e)" style="fill: none; stroke: #000000; stroke-width: 2"/>
    <path d="M 117.134416 164.93331 
L 117.134416 164.146607 
" clip-path="url(#pec46f0970e)" style="fill: none; stroke: #000000; stroke-width: 2"/>
    <path d="M 133.43961 189.210168 
L 133.43961 188.774593 
" clip-path="url(#pec46f0970e)" style="fill: none; stroke: #000000; stroke-width: 2"/>
    <path d="M 149.744805 213.876574 
L 149.744805 213.393489 
" clip-path="url(#pec46f0970e)" style="fill: none; stroke: #000000; stroke-width: 2"/>
    <path d="M 166.05 237.410804 
L 166.05 237.115568 
" clip-path="url(#pec46f0970e)" style="fill: none; stroke: #000000; stroke-width: 2"/>
    <path d="M 182.355195 253.327806 
L 182.355195 253.167104 
" clip-path="url(#pec46f0970e)" style="fill: none; stroke: #000000; stroke-width: 2"/>
    <path d="M 198.66039 265.852583 
L 198.66039 265.764111 
" clip-path="url(#pec46f0970e)" style="fill: none; stroke: #000000; stroke-width: 2"/>
    <path d="M 214.965584 273.195321 
L 214.965584 273.140703 
" clip-path="url(#pec46f0970e)" style="fill: none; stroke: #000000; stroke-width: 2"/>
    <path d="M 231.270779 273.893342 
L 231.270779 273.869375 
" clip-path="url(#pec46f0970e)" style="fill: none; stroke: #000000; stroke-width: 2"/>
    <path d="M 247.575974 273.858873 
L 247.575974 273.813009 
" clip-path="url(#pec46f0970e)" style="fill: none; stroke: #000000; stroke-width: 2"/>
    <path d="M 263.881169 273.889449 
L 263.881169 273.820686 
" clip-path="url(#pec46f0970e)" style="fill: none; stroke: #000000; stroke-width: 2"/>
    <path d="M 280.186364 273.831425 
L 280.186364 273.772425 
" clip-path="url(#pec46f0970e)" style="fill: none; stroke: #000000; stroke-width: 2"/>
   </g>
   <g id="line2d_13">
    <defs>
     <path id="m6717cee5dc" d="M 3 0 
L -3 -0 
" style="stroke: #000000; stroke-width: 2"/>
    </defs>
    <g clip-path="url(#pec46f0970e)">
     <use xlink:href="#m6717cee5dc" x="51.913636" y="112.06915" style="stroke: #000000; stroke-width: 2"/>
     <use xlink:href="#m6717cee5dc" x="68.218831" y="125.344106" style="stroke: #000000; stroke-width: 2"/>
     <use xlink:href="#m6717cee5dc" x="84.524026" y="137.226569" style="stroke: #000000; stroke-width: 2"/>
     <use xlink:href="#m6717cee5dc" x="100.829221" y="149.849892" style="stroke: #000000; stroke-width: 2"/>
     <use xlink:href="#m6717cee5dc" x="117.134416" y="164.93331" style="stroke: #000000; stroke-width: 2"/>
     <use xlink:href="#m6717cee5dc" x="133.43961" y="189.210168" style="stroke: #000000; stroke-width: 2"/>
     <use xlink:href="#m6717cee5dc" x="149.744805" y="213.876574" style="stroke: #000000; stroke-width: 2"/>
     <use xlink:href="#m6717cee5dc" x="166.05" y="237.410804" style="stroke: #000000; stroke-width: 2"/>
     <use xlink:href="#m6717cee5dc" x="182.355195" y="253.327806" style="stroke: #000000; stroke-width: 2"/>
     <use xlink:href="#m6717cee5dc" x="198.66039" y="265.852583" style="stroke: #000000; stroke-width: 2"/>
     <use xlink:href="#m6717cee5dc" x="214.965584" y="273.195321" style="stroke: #000000; stroke-width: 2"/>
     <use xlink:href="#m6717cee5dc" x="231.270779" y="273.893342" style="stroke: #000000; stroke-width: 2"/>
     <use xlink:href="#m6717cee5dc" x="247.575974" y="273.858873" style="stroke: #000000; stroke-width: 2"/>
     <use xlink:href="#m6717cee5dc" x="263.881169" y="273.889449" style="stroke: #000000; stroke-width: 2"/>
     <use xlink:href="#m6717cee5dc" x="280.186364" y="273.831425" style="stroke: #000000; stroke-width: 2"/>
    </g>
   </g>
   <g id="line2d_14">
    <g clip-path="url(#pec46f0970e)">
     <use xlink:href="#m6717cee5dc" x="51.913636" y="111.326623" style="stroke: #000000; stroke-width: 2"/>
     <use xlink:href="#m6717cee5dc" x="68.218831" y="124.123359" style="stroke: #000000; stroke-width: 2"/>
     <use xlink:href="#m6717cee5dc" x="84.524026" y="135.667148" style="stroke: #000000; stroke-width: 2"/>
     <use xlink:href="#m6717cee5dc" x="100.829221" y="148.753141" style="stroke: #000000; stroke-width: 2"/>
     <use xlink:href="#m6717cee5dc" x="117.134416" y="164.146607" style="stroke: #000000; stroke-width: 2"/>
     <use xlink:href="#m6717cee5dc" x="133.43961" y="188.774593" style="stroke: #000000; stroke-width: 2"/>
     <use xlink:href="#m6717cee5dc" x="149.744805" y="213.393489" style="stroke: #000000; stroke-width: 2"/>
     <use xlink:href="#m6717cee5dc" x="166.05" y="237.115568" style="stroke: #000000; stroke-width: 2"/>
     <use xlink:href="#m6717cee5dc" x="182.355195" y="253.167104" style="stroke: #000000; stroke-width: 2"/>
     <use xlink:href="#m6717cee5dc" x="198.66039" y="265.764111" style="stroke: #000000; stroke-width: 2"/>
     <use xlink:href="#m6717cee5dc" x="214.965584" y="273.140703" style="stroke: #000000; stroke-width: 2"/>
     <use xlink:href="#m6717cee5dc" x="231.270779" y="273.869375" style="stroke: #000000; stroke-width: 2"/>
     <use xlink:href="#m6717cee5dc" x="247.575974" y="273.813009" style="stroke: #000000; stroke-width: 2"/>
     <use xlink:href="#m6717cee5dc" x="263.881169" y="273.820686" style="stroke: #000000; stroke-width: 2"/>
     <use xlink:href="#m6717cee5dc" x="280.186364" y="273.772425" style="stroke: #000000; stroke-width: 2"/>
    </g>
   </g>
   <g id="line2d_15">
    <path d="M 51.913636 81.434247 
L 68.218831 94.556057 
L 84.524026 114.042856 
L 100.829221 136.134115 
L 117.134416 155.746719 
L 133.43961 176.319243 
L 149.744805 203.187012 
L 166.05 231.84943 
L 182.355195 255.056712 
L 198.66039 267.890761 
L 214.965584 274.934039 
L 231.270779 275.658187 
L 247.575974 275.661001 
L 263.881169 275.660414 
L 280.186364 275.673853 
" clip-path="url(#pec46f0970e)" style="fill: none; stroke: #0000ff; stroke-width: 1.5; stroke-linecap: square"/>
   </g>
   <g id="LineCollection_3">
    <path d="M 51.913636 82.683778 
L 51.913636 80.184716 
" clip-path="url(#pec46f0970e)" style="fill: none; stroke: #0000ff; stroke-width: 2"/>
    <path d="M 68.218831 95.305183 
L 68.218831 93.806932 
" clip-path="url(#pec46f0970e)" style="fill: none; stroke: #0000ff; stroke-width: 2"/>
    <path d="M 84.524026 115.007679 
L 84.524026 113.078034 
" clip-path="url(#pec46f0970e)" style="fill: none; stroke: #0000ff; stroke-width: 2"/>
    <path d="M 100.829221 136.956625 
L 100.829221 135.311605 
" clip-path="url(#pec46f0970e)" style="fill: none; stroke: #0000ff; stroke-width: 2"/>
    <path d="M 117.134416 156.472109 
L 117.134416 155.02133 
" clip-path="url(#pec46f0970e)" style="fill: none; stroke: #0000ff; stroke-width: 2"/>
    <path d="M 133.43961 176.59083 
L 133.43961 176.047656 
" clip-path="url(#pec46f0970e)" style="fill: none; stroke: #0000ff; stroke-width: 2"/>
    <path d="M 149.744805 203.500197 
L 149.744805 202.873827 
" clip-path="url(#pec46f0970e)" style="fill: none; stroke: #0000ff; stroke-width: 2"/>
    <path d="M 166.05 231.996255 
L 166.05 231.702605 
" clip-path="url(#pec46f0970e)" style="fill: none; stroke: #0000ff; stroke-width: 2"/>
    <path d="M 182.355195 255.161474 
L 182.355195 254.95195 
" clip-path="url(#pec46f0970e)" style="fill: none; stroke: #0000ff; stroke-width: 2"/>
    <path d="M 198.66039 267.940299 
L 198.66039 267.841224 
" clip-path="url(#pec46f0970e)" style="fill: none; stroke: #0000ff; stroke-width: 2"/>
    <path d="M 214.965584 274.949717 
L 214.965584 274.918362 
" clip-path="url(#pec46f0970e)" style="fill: none; stroke: #0000ff; stroke-width: 2"/>
    <path d="M 231.270779 275.664283 
L 231.270779 275.652091 
" clip-path="url(#pec46f0970e)" style="fill: none; stroke: #0000ff; stroke-width: 2"/>
    <path d="M 247.575974 275.675417 
L 247.575974 275.646585 
" clip-path="url(#pec46f0970e)" style="fill: none; stroke: #0000ff; stroke-width: 2"/>
    <path d="M 263.881169 275.679126 
L 263.881169 275.641702 
" clip-path="url(#pec46f0970e)" style="fill: none; stroke: #0000ff; stroke-width: 2"/>
    <path d="M 280.186364 275.683054 
L 280.186364 275.664651 
" clip-path="url(#pec46f0970e)" style="fill: none; stroke: #0000ff; stroke-width: 2"/>
   </g>
   <g id="line2d_16">
    <defs>
     <path id="m44d8ceaaae" d="M 3 0 
L -3 -0 
" style="stroke: #0000ff; stroke-width: 2"/>
    </defs>
    <g clip-path="url(#pec46f0970e)">
     <use xlink:href="#m44d8ceaaae" x="51.913636" y="82.683778" style="fill: #0000ff; stroke: #0000ff; stroke-width: 2"/>
     <use xlink:href="#m44d8ceaaae" x="68.218831" y="95.305183" style="fill: #0000ff; stroke: #0000ff; stroke-width: 2"/>
     <use xlink:href="#m44d8ceaaae" x="84.524026" y="115.007679" style="fill: #0000ff; stroke: #0000ff; stroke-width: 2"/>
     <use xlink:href="#m44d8ceaaae" x="100.829221" y="136.956625" style="fill: #0000ff; stroke: #0000ff; stroke-width: 2"/>
     <use xlink:href="#m44d8ceaaae" x="117.134416" y="156.472109" style="fill: #0000ff; stroke: #0000ff; stroke-width: 2"/>
     <use xlink:href="#m44d8ceaaae" x="133.43961" y="176.59083" style="fill: #0000ff; stroke: #0000ff; stroke-width: 2"/>
     <use xlink:href="#m44d8ceaaae" x="149.744805" y="203.500197" style="fill: #0000ff; stroke: #0000ff; stroke-width: 2"/>
     <use xlink:href="#m44d8ceaaae" x="166.05" y="231.996255" style="fill: #0000ff; stroke: #0000ff; stroke-width: 2"/>
     <use xlink:href="#m44d8ceaaae" x="182.355195" y="255.161474" style="fill: #0000ff; stroke: #0000ff; stroke-width: 2"/>
     <use xlink:href="#m44d8ceaaae" x="198.66039" y="267.940299" style="fill: #0000ff; stroke: #0000ff; stroke-width: 2"/>
     <use xlink:href="#m44d8ceaaae" x="214.965584" y="274.949717" style="fill: #0000ff; stroke: #0000ff; stroke-width: 2"/>
     <use xlink:href="#m44d8ceaaae" x="231.270779" y="275.664283" style="fill: #0000ff; stroke: #0000ff; stroke-width: 2"/>
     <use xlink:href="#m44d8ceaaae" x="247.575974" y="275.675417" style="fill: #0000ff; stroke: #0000ff; stroke-width: 2"/>
     <use xlink:href="#m44d8ceaaae" x="263.881169" y="275.679126" style="fill: #0000ff; stroke: #0000ff; stroke-width: 2"/>
     <use xlink:href="#m44d8ceaaae" x="280.186364" y="275.683054" style="fill: #0000ff; stroke: #0000ff; stroke-width: 2"/>
    </g>
   </g>
   <g id="line2d_17">
    <g clip-path="url(#pec46f0970e)">
     <use xlink:href="#m44d8ceaaae" x="51.913636" y="80.184716" style="fill: #0000ff; stroke: #0000ff; stroke-width: 2"/>
     <use xlink:href="#m44d8ceaaae" x="68.218831" y="93.806932" style="fill: #0000ff; stroke: #0000ff; stroke-width: 2"/>
     <use xlink:href="#m44d8ceaaae" x="84.524026" y="113.078034" style="fill: #0000ff; stroke: #0000ff; stroke-width: 2"/>
     <use xlink:href="#m44d8ceaaae" x="100.829221" y="135.311605" style="fill: #0000ff; stroke: #0000ff; stroke-width: 2"/>
     <use xlink:href="#m44d8ceaaae" x="117.134416" y="155.02133" style="fill: #0000ff; stroke: #0000ff; stroke-width: 2"/>
     <use xlink:href="#m44d8ceaaae" x="133.43961" y="176.047656" style="fill: #0000ff; stroke: #0000ff; stroke-width: 2"/>
     <use xlink:href="#m44d8ceaaae" x="149.744805" y="202.873827" style="fill: #0000ff; stroke: #0000ff; stroke-width: 2"/>
     <use xlink:href="#m44d8ceaaae" x="166.05" y="231.702605" style="fill: #0000ff; stroke: #0000ff; stroke-width: 2"/>
     <use xlink:href="#m44d8ceaaae" x="182.355195" y="254.95195" style="fill: #0000ff; stroke: #0000ff; stroke-width: 2"/>
     <use xlink:href="#m44d8ceaaae" x="198.66039" y="267.841224" style="fill: #0000ff; stroke: #0000ff; stroke-width: 2"/>
     <use xlink:href="#m44d8ceaaae" x="214.965584" y="274.918362" style="fill: #0000ff; stroke: #0000ff; stroke-width: 2"/>
     <use xlink:href="#m44d8ceaaae" x="231.270779" y="275.652091" style="fill: #0000ff; stroke: #0000ff; stroke-width: 2"/>
     <use xlink:href="#m44d8ceaaae" x="247.575974" y="275.646585" style="fill: #0000ff; stroke: #0000ff; stroke-width: 2"/>
     <use xlink:href="#m44d8ceaaae" x="263.881169" y="275.641702" style="fill: #0000ff; stroke: #0000ff; stroke-width: 2"/>
     <use xlink:href="#m44d8ceaaae" x="280.186364" y="275.664651" style="fill: #0000ff; stroke: #0000ff; stroke-width: 2"/>
    </g>
   </g>
   <g id="line2d_18">
    <path d="M 51.913636 50.643928 
L 68.218831 70.382734 
L 84.524026 88.942465 
L 100.829221 109.654044 
L 117.134416 138.720029 
L 133.43961 169.31668 
L 149.744805 195.687816 
L 166.05 226.889673 
L 182.355195 254.221487 
L 198.66039 269.489282 
L 214.965584 276.226248 
L 231.270779 277.000295 
L 247.575974 276.979264 
L 263.881169 276.987455 
L 280.186364 277.013488 
" clip-path="url(#pec46f0970e)" style="fill: none; stroke: #bf00bf; stroke-width: 1.5; stroke-linecap: square"/>
   </g>
   <g id="LineCollection_4">
    <path d="M 51.913636 51.067857 
L 51.913636 50.22 
" clip-path="url(#pec46f0970e)" style="fill: none; stroke: #bf00bf; stroke-width: 2"/>
    <path d="M 68.218831 71.782268 
L 68.218831 68.9832 
" clip-path="url(#pec46f0970e)" style="fill: none; stroke: #bf00bf; stroke-width: 2"/>
    <path d="M 84.524026 90.111442 
L 84.524026 87.773487 
" clip-path="url(#pec46f0970e)" style="fill: none; stroke: #bf00bf; stroke-width: 2"/>
    <path d="M 100.829221 110.202046 
L 100.829221 109.106042 
" clip-path="url(#pec46f0970e)" style="fill: none; stroke: #bf00bf; stroke-width: 2"/>
    <path d="M 117.134416 139.266243 
L 117.134416 138.173816 
" clip-path="url(#pec46f0970e)" style="fill: none; stroke: #bf00bf; stroke-width: 2"/>
    <path d="M 133.43961 169.653586 
L 133.43961 168.979774 
" clip-path="url(#pec46f0970e)" style="fill: none; stroke: #bf00bf; stroke-width: 2"/>
    <path d="M 149.744805 196.32757 
L 149.744805 195.048062 
" clip-path="url(#pec46f0970e)" style="fill: none; stroke: #bf00bf; stroke-width: 2"/>
    <path d="M 166.05 227.131229 
L 166.05 226.648117 
" clip-path="url(#pec46f0970e)" style="fill: none; stroke: #bf00bf; stroke-width: 2"/>
    <path d="M 182.355195 254.34054 
L 182.355195 254.102435 
" clip-path="url(#pec46f0970e)" style="fill: none; stroke: #bf00bf; stroke-width: 2"/>
    <path d="M 198.66039 269.521782 
L 198.66039 269.456781 
" clip-path="url(#pec46f0970e)" style="fill: none; stroke: #bf00bf; stroke-width: 2"/>
    <path d="M 214.965584 276.235704 
L 214.965584 276.216792 
" clip-path="url(#pec46f0970e)" style="fill: none; stroke: #bf00bf; stroke-width: 2"/>
    <path d="M 231.270779 277.015653 
L 231.270779 276.984937 
" clip-path="url(#pec46f0970e)" style="fill: none; stroke: #bf00bf; stroke-width: 2"/>
    <path d="M 247.575974 276.997754 
L 247.575974 276.960774 
" clip-path="url(#pec46f0970e)" style="fill: none; stroke: #bf00bf; stroke-width: 2"/>
    <path d="M 263.881169 277.001198 
L 263.881169 276.973712 
" clip-path="url(#pec46f0970e)" style="fill: none; stroke: #bf00bf; stroke-width: 2"/>
    <path d="M 280.186364 277.02 
L 280.186364 277.006976 
" clip-path="url(#pec46f0970e)" style="fill: none; stroke: #bf00bf; stroke-width: 2"/>
   </g>
   <g id="line2d_19">
    <defs>
     <path id="mcd203398d4" d="M 3 0 
L -3 -0 
" style="stroke: #bf00bf; stroke-width: 2"/>
    </defs>
    <g clip-path="url(#pec46f0970e)">
     <use xlink:href="#mcd203398d4" x="51.913636" y="51.067857" style="fill: #bf00bf; stroke: #bf00bf; stroke-width: 2"/>
     <use xlink:href="#mcd203398d4" x="68.218831" y="71.782268" style="fill: #bf00bf; stroke: #bf00bf; stroke-width: 2"/>
     <use xlink:href="#mcd203398d4" x="84.524026" y="90.111442" style="fill: #bf00bf; stroke: #bf00bf; stroke-width: 2"/>
     <use xlink:href="#mcd203398d4" x="100.829221" y="110.202046" style="fill: #bf00bf; stroke: #bf00bf; stroke-width: 2"/>
     <use xlink:href="#mcd203398d4" x="117.134416" y="139.266243" style="fill: #bf00bf; stroke: #bf00bf; stroke-width: 2"/>
     <use xlink:href="#mcd203398d4" x="133.43961" y="169.653586" style="fill: #bf00bf; stroke: #bf00bf; stroke-width: 2"/>
     <use xlink:href="#mcd203398d4" x="149.744805" y="196.32757" style="fill: #bf00bf; stroke: #bf00bf; stroke-width: 2"/>
     <use xlink:href="#mcd203398d4" x="166.05" y="227.131229" style="fill: #bf00bf; stroke: #bf00bf; stroke-width: 2"/>
     <use xlink:href="#mcd203398d4" x="182.355195" y="254.34054" style="fill: #bf00bf; stroke: #bf00bf; stroke-width: 2"/>
     <use xlink:href="#mcd203398d4" x="198.66039" y="269.521782" style="fill: #bf00bf; stroke: #bf00bf; stroke-width: 2"/>
     <use xlink:href="#mcd203398d4" x="214.965584" y="276.235704" style="fill: #bf00bf; stroke: #bf00bf; stroke-width: 2"/>
     <use xlink:href="#mcd203398d4" x="231.270779" y="277.015653" style="fill: #bf00bf; stroke: #bf00bf; stroke-width: 2"/>
     <use xlink:href="#mcd203398d4" x="247.575974" y="276.997754" style="fill: #bf00bf; stroke: #bf00bf; stroke-width: 2"/>
     <use xlink:href="#mcd203398d4" x="263.881169" y="277.001198" style="fill: #bf00bf; stroke: #bf00bf; stroke-width: 2"/>
     <use xlink:href="#mcd203398d4" x="280.186364" y="277.02" style="fill: #bf00bf; stroke: #bf00bf; stroke-width: 2"/>
    </g>
   </g>
   <g id="line2d_20">
    <g clip-path="url(#pec46f0970e)">
     <use xlink:href="#mcd203398d4" x="51.913636" y="50.22" style="fill: #bf00bf; stroke: #bf00bf; stroke-width: 2"/>
     <use xlink:href="#mcd203398d4" x="68.218831" y="68.9832" style="fill: #bf00bf; stroke: #bf00bf; stroke-width: 2"/>
     <use xlink:href="#mcd203398d4" x="84.524026" y="87.773487" style="fill: #bf00bf; stroke: #bf00bf; stroke-width: 2"/>
     <use xlink:href="#mcd203398d4" x="100.829221" y="109.106042" style="fill: #bf00bf; stroke: #bf00bf; stroke-width: 2"/>
     <use xlink:href="#mcd203398d4" x="117.134416" y="138.173816" style="fill: #bf00bf; stroke: #bf00bf; stroke-width: 2"/>
     <use xlink:href="#mcd203398d4" x="133.43961" y="168.979774" style="fill: #bf00bf; stroke: #bf00bf; stroke-width: 2"/>
     <use xlink:href="#mcd203398d4" x="149.744805" y="195.048062" style="fill: #bf00bf; stroke: #bf00bf; stroke-width: 2"/>
     <use xlink:href="#mcd203398d4" x="166.05" y="226.648117" style="fill: #bf00bf; stroke: #bf00bf; stroke-width: 2"/>
     <use xlink:href="#mcd203398d4" x="182.355195" y="254.102435" style="fill: #bf00bf; stroke: #bf00bf; stroke-width: 2"/>
     <use xlink:href="#mcd203398d4" x="198.66039" y="269.456781" style="fill: #bf00bf; stroke: #bf00bf; stroke-width: 2"/>
     <use xlink:href="#mcd203398d4" x="214.965584" y="276.216792" style="fill: #bf00bf; stroke: #bf00bf; stroke-width: 2"/>
     <use xlink:href="#mcd203398d4" x="231.270779" y="276.984937" style="fill: #bf00bf; stroke: #bf00bf; stroke-width: 2"/>
     <use xlink:href="#mcd203398d4" x="247.575974" y="276.960774" style="fill: #bf00bf; stroke: #bf00bf; stroke-width: 2"/>
     <use xlink:href="#mcd203398d4" x="263.881169" y="276.973712" style="fill: #bf00bf; stroke: #bf00bf; stroke-width: 2"/>
     <use xlink:href="#mcd203398d4" x="280.186364" y="277.006976" style="fill: #bf00bf; stroke: #bf00bf; stroke-width: 2"/>
    </g>
   </g>
   <g id="line2d_21">
    <path d="M 51.913636 134.687241 
L 68.218831 138.816051 
L 84.524026 153.071477 
L 100.829221 168.943179 
L 117.134416 186.253076 
L 133.43961 204.306193 
L 149.744805 225.918865 
L 166.05 239.746723 
L 182.355195 244.70123 
L 198.66039 263.208646 
L 214.965584 270.683424 
L 231.270779 271.239332 
L 247.575974 271.295424 
L 263.881169 271.282156 
L 280.186364 271.289972 
" clip-path="url(#pec46f0970e)" style="fill: none; stroke: #ff0000; stroke-width: 1.5; stroke-linecap: square"/>
   </g>
   <g id="line2d_22">
    <path d="M 51.913636 111.697886 
L 68.218831 124.733733 
L 84.524026 136.446858 
L 100.829221 149.301516 
L 117.134416 164.539959 
L 133.43961 188.99238 
L 149.744805 213.635031 
L 166.05 237.263186 
L 182.355195 253.247455 
L 198.66039 265.808347 
L 214.965584 273.168012 
L 231.270779 273.881358 
L 247.575974 273.835941 
L 263.881169 273.855068 
L 280.186364 273.801925 
" clip-path="url(#pec46f0970e)" style="fill: none; stroke: #000000; stroke-width: 1.5; stroke-linecap: square"/>
   </g>
   <g id="line2d_23">
    <path d="M 51.913636 81.434247 
L 68.218831 94.556057 
L 84.524026 114.042856 
L 100.829221 136.134115 
L 117.134416 155.746719 
L 133.43961 176.319243 
L 149.744805 203.187012 
L 166.05 231.84943 
L 182.355195 255.056712 
L 198.66039 267.890761 
L 214.965584 274.934039 
L 231.270779 275.658187 
L 247.575974 275.661001 
L 263.881169 275.660414 
L 280.186364 275.673853 
" clip-path="url(#pec46f0970e)" style="fill: none; stroke: #0000ff; stroke-width: 1.5; stroke-linecap: square"/>
   </g>
   <g id="line2d_24">
    <path d="M 51.913636 50.643928 
L 68.218831 70.382734 
L 84.524026 88.942465 
L 100.829221 109.654044 
L 117.134416 138.720029 
L 133.43961 169.31668 
L 149.744805 195.687816 
L 166.05 226.889673 
L 182.355195 254.221487 
L 198.66039 269.489282 
L 214.965584 276.226248 
L 231.270779 277.000295 
L 247.575974 276.979264 
L 263.881169 276.987455 
L 280.186364 277.013488 
" clip-path="url(#pec46f0970e)" style="fill: none; stroke: #bf00bf; stroke-width: 1.5; stroke-linecap: square"/>
   </g>
   <g id="patch_3">
    <path d="M 40.5 288.36 
L 40.5 38.88 
" style="fill: none; stroke: #000000; stroke-width: 1.6; stroke-linejoin: miter; stroke-linecap: square"/>
   </g>
   <g id="patch_4">
    <path d="M 291.6 288.36 
L 291.6 38.88 
" style="fill: none; stroke: #000000; stroke-width: 1.6; stroke-linejoin: miter; stroke-linecap: square"/>
   </g>
   <g id="patch_5">
    <path d="M 40.5 288.36 
L 291.6 288.36 
" style="fill: none; stroke: #000000; stroke-width: 1.6; stroke-linejoin: miter; stroke-linecap: square"/>
   </g>
   <g id="patch_6">
    <path d="M 40.5 38.88 
L 291.6 38.88 
" style="fill: none; stroke: #000000; stroke-width: 1.6; stroke-linejoin: miter; stroke-linecap: square"/>
   </g>
   <g id="legend_1">
    <g id="patch_7">
     <path d="M 209.120625 118.935 
L 283.2 118.935 
Q 285.6 118.935 285.6 116.535 
L 285.6 47.28 
Q 285.6 44.88 283.2 44.88 
L 209.120625 44.88 
Q 206.720625 44.88 206.720625 47.28 
L 206.720625 116.535 
Q 206.720625 118.935 209.120625 118.935 
z
" style="fill: #ffffff; opacity: 0.8"/>
    </g>
    <g id="LineCollection_5">
     <path d="M 223.520625 60.598125 
L 223.520625 48.598125 
" style="fill: none; stroke: #ff0000; stroke-width: 2"/>
    </g>
    <g id="line2d_25">
     <g>
      <use xlink:href="#made8f99cf8" x="223.520625" y="60.598125" style="fill: #ff0000; stroke: #ff0000; stroke-width: 2"/>
     </g>
    </g>
    <g id="line2d_26">
     <g>
      <use xlink:href="#made8f99cf8" x="223.520625" y="48.598125" style="fill: #ff0000; stroke: #ff0000; stroke-width: 2"/>
     </g>
    </g>
    <g id="line2d_27">
     <path d="M 211.520625 54.598125 
L 235.520625 54.598125 
" style="fill: none; stroke: #ff0000; stroke-width: 1.5; stroke-linecap: square"/>
    </g>
    <g id="line2d_28"/>
    <g id="text_9">
     <!-- M=8 -->
     <g transform="translate(245.120625 58.798125) scale(0.12 -0.12)">
      <defs>
       <path id="DejaVuSans-4d" d="M 628 4666 
L 1569 4666 
L 2759 1491 
L 3956 4666 
L 4897 4666 
L 4897 0 
L 4281 0 
L 4281 4097 
L 3078 897 
L 2444 897 
L 1241 4097 
L 1241 0 
L 628 0 
L 628 4666 
z
" transform="scale(0.015625)"/>
       <path id="DejaVuSans-3d" d="M 678 2906 
L 4684 2906 
L 4684 2381 
L 678 2381 
L 678 2906 
z
M 678 1631 
L 4684 1631 
L 4684 1100 
L 678 1100 
L 678 1631 
z
" transform="scale(0.015625)"/>
      </defs>
      <use xlink:href="#DejaVuSans-4d"/>
      <use xlink:href="#DejaVuSans-3d" x="86.279297"/>
      <use xlink:href="#DejaVuSans-38" x="170.068359"/>
     </g>
    </g>
    <g id="LineCollection_6">
     <path d="M 223.520625 78.211875 
L 223.520625 66.211875 
" style="fill: none; stroke: #000000; stroke-width: 2"/>
    </g>
    <g id="line2d_29">
     <g>
      <use xlink:href="#m6717cee5dc" x="223.520625" y="78.211875" style="stroke: #000000; stroke-width: 2"/>
     </g>
    </g>
    <g id="line2d_30">
     <g>
      <use xlink:href="#m6717cee5dc" x="223.520625" y="66.211875" style="stroke: #000000; stroke-width: 2"/>
     </g>
    </g>
    <g id="line2d_31">
     <path d="M 211.520625 72.211875 
L 235.520625 72.211875 
" style="fill: none; stroke: #000000; stroke-width: 1.5; stroke-linecap: square"/>
    </g>
    <g id="line2d_32"/>
    <g id="text_10">
     <!-- M=10 -->
     <g transform="translate(245.120625 76.411875) scale(0.12 -0.12)">
      <use xlink:href="#DejaVuSans-4d"/>
      <use xlink:href="#DejaVuSans-3d" x="86.279297"/>
      <use xlink:href="#DejaVuSans-31" x="170.068359"/>
      <use xlink:href="#DejaVuSans-30" x="233.691406"/>
     </g>
    </g>
    <g id="LineCollection_7">
     <path d="M 223.520625 95.825625 
L 223.520625 83.825625 
" style="fill: none; stroke: #0000ff; stroke-width: 2"/>
    </g>
    <g id="line2d_33">
     <g>
      <use xlink:href="#m44d8ceaaae" x="223.520625" y="95.825625" style="fill: #0000ff; stroke: #0000ff; stroke-width: 2"/>
     </g>
    </g>
    <g id="line2d_34">
     <g>
      <use xlink:href="#m44d8ceaaae" x="223.520625" y="83.825625" style="fill: #0000ff; stroke: #0000ff; stroke-width: 2"/>
     </g>
    </g>
    <g id="line2d_35">
     <path d="M 211.520625 89.825625 
L 235.520625 89.825625 
" style="fill: none; stroke: #0000ff; stroke-width: 1.5; stroke-linecap: square"/>
    </g>
    <g id="line2d_36"/>
    <g id="text_11">
     <!-- M=12 -->
     <g transform="translate(245.120625 94.025625) scale(0.12 -0.12)">
      <use xlink:href="#DejaVuSans-4d"/>
      <use xlink:href="#DejaVuSans-3d" x="86.279297"/>
      <use xlink:href="#DejaVuSans-31" x="170.068359"/>
      <use xlink:href="#DejaVuSans-32" x="233.691406"/>
     </g>
    </g>
    <g id="LineCollection_8">
     <path d="M 223.520625 113.439375 
L 223.520625 101.439375 
" style="fill: none; stroke: #bf00bf; stroke-width: 2"/>
    </g>
    <g id="line2d_37">
     <g>
      <use xlink:href="#mcd203398d4" x="223.520625" y="113.439375" style="fill: #bf00bf; stroke: #bf00bf; stroke-width: 2"/>
     </g>
    </g>
    <g id="line2d_38">
     <g>
      <use xlink:href="#mcd203398d4" x="223.520625" y="101.439375" style="fill: #bf00bf; stroke: #bf00bf; stroke-width: 2"/>
     </g>
    </g>
    <g id="line2d_39">
     <path d="M 211.520625 107.439375 
L 235.520625 107.439375 
" style="fill: none; stroke: #bf00bf; stroke-width: 1.5; stroke-linecap: square"/>
    </g>
    <g id="line2d_40"/>
    <g id="text_12">
     <!-- M=14 -->
     <g transform="translate(245.120625 111.639375) scale(0.12 -0.12)">
      <use xlink:href="#DejaVuSans-4d"/>
      <use xlink:href="#DejaVuSans-3d" x="86.279297"/>
      <use xlink:href="#DejaVuSans-31" x="170.068359"/>
      <use xlink:href="#DejaVuSans-34" x="233.691406"/>
     </g>
    </g>
   </g>
  </g>
 </g>
 <defs>
  <clipPath id="pec46f0970e">
   <rect x="40.5" y="38.88" width="251.1" height="249.48"/>
  </clipPath>
 </defs>
</svg>
