<?xml version="1.0" encoding="utf-8" standalone="no"?>
<!DOCTYPE svg PUBLIC "-//W3C//DTD SVG 1.1//EN"
  "http://www.w3.org/Graphics/SVG/1.1/DTD/svg11.dtd">
<svg xmlns:xlink="http://www.w3.org/1999/xlink" width="324pt" height="324pt" viewBox="0 0 324 324" xmlns="http://www.w3.org/2000/svg" version="1.1">
 <metadata>
  <rdf:RDF xmlns:dc="http://purl.org/dc/elements/1.1/" xmlns:cc="http://creativecommons.org/ns#" xmlns:rdf="http://www.w3.org/1999/02/22-rdf-syntax-ns#">
   <cc:Work>
    <dc:type rdf:resource="http://purl.org/dc/dcmitype/StillImage"/>
    <dc:date>2026-01-11T21:17:57.885389</dc:date>
    <dc:format>image/svg+xml</dc:format>
    <dc:creator>
     <cc:Agent>
      <dc:title>Matplotlib v3.8.0, https://matplotlib.org/</dc:title>
     </cc:Agent>
    </dc:creator>
   </cc:Work>
  </rdf:RDF>
 </metadata>
 <defs>
  <style type="text/css">*{stroke-linejoin: round; stroke-linecap: butt}</style>
 </defs>
 <g id="figure_1">
  <g id="patch_1">
   <path d="M 0 324 
L 324 324 
L 324 0 
L 0 0 
z
" style="fill: #ffffff"/>
  </g>
  <g id="axes_1">
   <g id="patch_2">
    <path d="M 40.5 288.36 
L 291.6 288.36 
L 291.6 38.88 
L 40.5 38.88 
z
" style="fill: #ffffff"/>
   </g>
   <g id="matplotlib.axis_1">
    <g id="xtick_1">
     <g id="line2d_1">
      <defs>
       <path id="mbe9e905240" d="M 0 0 
L 0 8 
" style="stroke: #000000; stroke-width: 1.5"/>
      </defs>
      <g>
       <use xlink:href="#mbe9e905240" x="70.936364" y="288.36" style="stroke: #000000; stroke-width: 1.5"/>
      </g>
     </g>
     <g id="text_1">
      <!-- 7.0 -->
      <g transform="translate(61.394489 308.978125) scale(0.12 -0.12)">
       <defs>
        <path id="DejaVuSans-37" d="M 525 4666 
L 3525 4666 
L 3525 4397 
L 1831 0 
L 1172 0 
L 2766 4134 
L 525 4134 
L 525 4666 
z
" transform="scale(0.015625)"/>
        <path id="DejaVuSans-2e" d="M 684 794 
L 1344 794 
L 1344 0 
L 684 0 
L 684 794 
z
" transform="scale(0.015625)"/>
        <path id="DejaVuSans-30" d="M 2034 4250 
Q 1547 4250 1301 3770 
Q 1056 3291 1056 2328 
Q 1056 1369 1301 889 
Q 1547 409 2034 409 
Q 2525 409 2770 889 
Q 3016 1369 3016 2328 
Q 3016 3291 2770 3770 
Q 2525 4250 2034 4250 
z
M 2034 4750 
Q 2819 4750 3233 4129 
Q 3647 3509 3647 2328 
Q 3647 1150 3233 529 
Q 2819 -91 2034 -91 
Q 1250 -91 836 529 
Q 422 1150 422 2328 
Q 422 3509 836 4129 
Q 1250 4750 2034 4750 
z
" transform="scale(0.015625)"/>
       </defs>
       <use xlink:href="#DejaVuSans-37"/>
       <use xlink:href="#DejaVuSans-2e" x="63.623047"/>
       <use xlink:href="#DejaVuSans-30" x="95.410156"/>
      </g>
     </g>
    </g>
    <g id="xtick_2">
     <g id="line2d_2">
      <g>
       <use xlink:href="#mbe9e905240" x="118.493182" y="288.36" style="stroke: #000000; stroke-width: 1.5"/>
      </g>
     </g>
     <g id="text_2">
      <!-- 7.5 -->
      <g transform="translate(108.951307 308.978125) scale(0.12 -0.12)">
       <defs>
        <path id="DejaVuSans-35" d="M 691 4666 
L 3169 4666 
L 3169 4134 
L 1269 4134 
L 1269 2991 
Q 1406 3038 1543 3061 
Q 1681 3084 1819 3084 
Q 2600 3084 3056 2656 
Q 3513 2228 3513 1497 
Q 3513 744 3044 326 
Q 2575 -91 1722 -91 
Q 1428 -91 1123 -41 
Q 819 9 494 109 
L 494 744 
Q 775 591 1075 516 
Q 1375 441 1709 441 
Q 2250 441 2565 725 
Q 2881 1009 2881 1497 
Q 2881 1984 2565 2268 
Q 2250 2553 1709 2553 
Q 1456 2553 1204 2497 
Q 953 2441 691 2322 
L 691 4666 
z
" transform="scale(0.015625)"/>
       </defs>
       <use xlink:href="#DejaVuSans-37"/>
       <use xlink:href="#DejaVuSans-2e" x="63.623047"/>
       <use xlink:href="#DejaVuSans-35" x="95.410156"/>
      </g>
     </g>
    </g>
    <g id="xtick_3">
     <g id="line2d_3">
      <g>
       <use xlink:href="#mbe9e905240" x="166.05" y="288.36" style="stroke: #000000; stroke-width: 1.5"/>
      </g>
     </g>
     <g id="text_3">
      <!-- 8.0 -->
      <g transform="translate(156.508125 308.978125) scale(0.12 -0.12)">
       <defs>
        <path id="DejaVuSans-38" d="M 2034 2216 
Q 1584 2216 1326 1975 
Q 1069 1734 1069 1313 
Q 1069 891 1326 650 
Q 1584 409 2034 409 
Q 2484 409 2743 651 
Q 3003 894 3003 1313 
Q 3003 1734 2745 1975 
Q 2488 2216 2034 2216 
z
M 1403 2484 
Q 997 2584 770 2862 
Q 544 3141 544 3541 
Q 544 4100 942 4425 
Q 1341 4750 2034 4750 
Q 2731 4750 3128 4425 
Q 3525 4100 3525 3541 
Q 3525 3141 3298 2862 
Q 3072 2584 2669 2484 
Q 3125 2378 3379 2068 
Q 3634 1759 3634 1313 
Q 3634 634 3220 271 
Q 2806 -91 2034 -91 
Q 1263 -91 848 271 
Q 434 634 434 1313 
Q 434 1759 690 2068 
Q 947 2378 1403 2484 
z
M 1172 3481 
Q 1172 3119 1398 2916 
Q 1625 2713 2034 2713 
Q 2441 2713 2670 2916 
Q 2900 3119 2900 3481 
Q 2900 3844 2670 4047 
Q 2441 4250 2034 4250 
Q 1625 4250 1398 4047 
Q 1172 3844 1172 3481 
z
" transform="scale(0.015625)"/>
       </defs>
       <use xlink:href="#DejaVuSans-38"/>
       <use xlink:href="#DejaVuSans-2e" x="63.623047"/>
       <use xlink:href="#DejaVuSans-30" x="95.410156"/>
      </g>
     </g>
    </g>
    <g id="xtick_4">
     <g id="line2d_4">
      <g>
       <use xlink:href="#mbe9e905240" x="213.606818" y="288.36" style="stroke: #000000; stroke-width: 1.5"/>
      </g>
     </g>
     <g id="text_4">
      <!-- 8.5 -->
      <g transform="translate(204.064943 308.978125) scale(0.12 -0.12)">
       <use xlink:href="#DejaVuSans-38"/>
       <use xlink:href="#DejaVuSans-2e" x="63.623047"/>
       <use xlink:href="#DejaVuSans-35" x="95.410156"/>
      </g>
     </g>
    </g>
    <g id="xtick_5">
     <g id="line2d_5">
      <g>
       <use xlink:href="#mbe9e905240" x="261.163636" y="288.36" style="stroke: #000000; stroke-width: 1.5"/>
      </g>
     </g>
     <g id="text_5">
      <!-- 9.0 -->
      <g transform="translate(251.621761 308.978125) scale(0.12 -0.12)">
       <defs>
        <path id="DejaVuSans-39" d="M 703 97 
L 703 672 
Q 941 559 1184 500 
Q 1428 441 1663 441 
Q 2288 441 2617 861 
Q 2947 1281 2994 2138 
Q 2813 1869 2534 1725 
Q 2256 1581 1919 1581 
Q 1219 1581 811 2004 
Q 403 2428 403 3163 
Q 403 3881 828 4315 
Q 1253 4750 1959 4750 
Q 2769 4750 3195 4129 
Q 3622 3509 3622 2328 
Q 3622 1225 3098 567 
Q 2575 -91 1691 -91 
Q 1453 -91 1209 -44 
Q 966 3 703 97 
z
M 1959 2075 
Q 2384 2075 2632 2365 
Q 2881 2656 2881 3163 
Q 2881 3666 2632 3958 
Q 2384 4250 1959 4250 
Q 1534 4250 1286 3958 
Q 1038 3666 1038 3163 
Q 1038 2656 1286 2365 
Q 1534 2075 1959 2075 
z
" transform="scale(0.015625)"/>
       </defs>
       <use xlink:href="#DejaVuSans-39"/>
       <use xlink:href="#DejaVuSans-2e" x="63.623047"/>
       <use xlink:href="#DejaVuSans-30" x="95.410156"/>
      </g>
     </g>
    </g>
   </g>
   <g id="matplotlib.axis_2">
    <g id="ytick_1">
     <g id="line2d_6">
      <defs>
       <path id="m3170ff1bbc" d="M 0 0 
L -8 0 
" style="stroke: #000000; stroke-width: 1.5"/>
      </defs>
      <g>
       <use xlink:href="#m3170ff1bbc" x="40.5" y="288.36" style="stroke: #000000; stroke-width: 1.5"/>
      </g>
     </g>
     <g id="text_6">
      <!-- 0.3 -->
      <g transform="translate(9.91625 292.919063) scale(0.12 -0.12)">
       <defs>
        <path id="DejaVuSans-33" d="M 2597 2516 
Q 3050 2419 3304 2112 
Q 3559 1806 3559 1356 
Q 3559 666 3084 287 
Q 2609 -91 1734 -91 
Q 1441 -91 1130 -33 
Q 819 25 488 141 
L 488 750 
Q 750 597 1062 519 
Q 1375 441 1716 441 
Q 2309 441 2620 675 
Q 2931 909 2931 1356 
Q 2931 1769 2642 2001 
Q 2353 2234 1838 2234 
L 1294 2234 
L 1294 2753 
L 1863 2753 
Q 2328 2753 2575 2939 
Q 2822 3125 2822 3475 
Q 2822 3834 2567 4026 
Q 2313 4219 1838 4219 
Q 1578 4219 1281 4162 
Q 984 4106 628 3988 
L 628 4550 
Q 988 4650 1302 4700 
Q 1616 4750 1894 4750 
Q 2613 4750 3031 4423 
Q 3450 4097 3450 3541 
Q 3450 3153 3228 2886 
Q 3006 2619 2597 2516 
z
" transform="scale(0.015625)"/>
       </defs>
       <use xlink:href="#DejaVuSans-30"/>
       <use xlink:href="#DejaVuSans-2e" x="63.623047"/>
       <use xlink:href="#DejaVuSans-33" x="95.410156"/>
      </g>
     </g>
    </g>
    <g id="ytick_2">
     <g id="line2d_7">
      <g>
       <use xlink:href="#m3170ff1bbc" x="40.5" y="212.018385" style="stroke: #000000; stroke-width: 1.5"/>
      </g>
     </g>
     <g id="text_7">
      <!-- 0.5 -->
      <g transform="translate(9.91625 216.577447) scale(0.12 -0.12)">
       <use xlink:href="#DejaVuSans-30"/>
       <use xlink:href="#DejaVuSans-2e" x="63.623047"/>
       <use xlink:href="#DejaVuSans-35" x="95.410156"/>
      </g>
     </g>
    </g>
    <g id="ytick_3">
     <g id="line2d_8">
      <g>
       <use xlink:href="#m3170ff1bbc" x="40.5" y="135.676769" style="stroke: #000000; stroke-width: 1.5"/>
      </g>
     </g>
     <g id="text_8">
      <!-- 0.7 -->
      <g transform="translate(9.91625 140.235832) scale(0.12 -0.12)">
       <use xlink:href="#DejaVuSans-30"/>
       <use xlink:href="#DejaVuSans-2e" x="63.623047"/>
       <use xlink:href="#DejaVuSans-37" x="95.410156"/>
      </g>
     </g>
    </g>
    <g id="ytick_4">
     <g id="line2d_9">
      <g>
       <use xlink:href="#m3170ff1bbc" x="40.5" y="59.335154" style="stroke: #000000; stroke-width: 1.5"/>
      </g>
     </g>
     <g id="text_9">
      <!-- 0.9 -->
      <g transform="translate(9.91625 63.894216) scale(0.12 -0.12)">
       <use xlink:href="#DejaVuSans-30"/>
       <use xlink:href="#DejaVuSans-2e" x="63.623047"/>
       <use xlink:href="#DejaVuSans-39" x="95.410156"/>
      </g>
     </g>
    </g>
   </g>
   <g id="line2d_10">
    <path d="M 51.913636 137.247154 
L 70.936364 144.193389 
L 89.959091 157.331204 
L 108.981818 163.022803 
L 128.004545 173.165387 
L 147.027273 179.608853 
L 166.05 187.668423 
L 185.072727 194.506315 
L 204.095455 200.432284 
L 223.118182 207.67244 
L 242.140909 215.228979 
L 261.163636 219.201321 
L 280.186364 228.014771 
" clip-path="url(#pc13379fa41)" style="fill: none; stroke: #ff0000; stroke-width: 1.5; stroke-linecap: square"/>
   </g>
   <g id="LineCollection_1">
    <path d="M 51.913636 138.512958 
L 51.913636 135.981349 
" clip-path="url(#pc13379fa41)" style="fill: none; stroke: #ff0000; stroke-width: 2"/>
    <path d="M 70.936364 145.053547 
L 70.936364 143.333231 
" clip-path="url(#pc13379fa41)" style="fill: none; stroke: #ff0000; stroke-width: 2"/>
    <path d="M 89.959091 158.22799 
L 89.959091 156.434417 
" clip-path="url(#pc13379fa41)" style="fill: none; stroke: #ff0000; stroke-width: 2"/>
    <path d="M 108.981818 163.483152 
L 108.981818 162.562455 
" clip-path="url(#pc13379fa41)" style="fill: none; stroke: #ff0000; stroke-width: 2"/>
    <path d="M 128.004545 174.065553 
L 128.004545 172.26522 
" clip-path="url(#pc13379fa41)" style="fill: none; stroke: #ff0000; stroke-width: 2"/>
    <path d="M 147.027273 180.949069 
L 147.027273 178.268637 
" clip-path="url(#pc13379fa41)" style="fill: none; stroke: #ff0000; stroke-width: 2"/>
    <path d="M 166.05 188.479646 
L 166.05 186.857199 
" clip-path="url(#pc13379fa41)" style="fill: none; stroke: #ff0000; stroke-width: 2"/>
    <path d="M 185.072727 195.671563 
L 185.072727 193.341067 
" clip-path="url(#pc13379fa41)" style="fill: none; stroke: #ff0000; stroke-width: 2"/>
    <path d="M 204.095455 201.213163 
L 204.095455 199.651405 
" clip-path="url(#pc13379fa41)" style="fill: none; stroke: #ff0000; stroke-width: 2"/>
    <path d="M 223.118182 208.127656 
L 223.118182 207.217224 
" clip-path="url(#pc13379fa41)" style="fill: none; stroke: #ff0000; stroke-width: 2"/>
    <path d="M 242.140909 216.258288 
L 242.140909 214.199671 
" clip-path="url(#pc13379fa41)" style="fill: none; stroke: #ff0000; stroke-width: 2"/>
    <path d="M 261.163636 219.93088 
L 261.163636 218.471763 
" clip-path="url(#pc13379fa41)" style="fill: none; stroke: #ff0000; stroke-width: 2"/>
    <path d="M 280.186364 228.638364 
L 280.186364 227.391178 
" clip-path="url(#pc13379fa41)" style="fill: none; stroke: #ff0000; stroke-width: 2"/>
   </g>
   <g id="line2d_11">
    <defs>
     <path id="ma2ecda62cc" d="M 3 0 
L -3 -0 
" style="stroke: #ff0000; stroke-width: 2"/>
    </defs>
    <g clip-path="url(#pc13379fa41)">
     <use xlink:href="#ma2ecda62cc" x="51.913636" y="138.512958" style="fill: #ff0000; stroke: #ff0000; stroke-width: 2"/>
     <use xlink:href="#ma2ecda62cc" x="70.936364" y="145.053547" style="fill: #ff0000; stroke: #ff0000; stroke-width: 2"/>
     <use xlink:href="#ma2ecda62cc" x="89.959091" y="158.22799" style="fill: #ff0000; stroke: #ff0000; stroke-width: 2"/>
     <use xlink:href="#ma2ecda62cc" x="108.981818" y="163.483152" style="fill: #ff0000; stroke: #ff0000; stroke-width: 2"/>
     <use xlink:href="#ma2ecda62cc" x="128.004545" y="174.065553" style="fill: #ff0000; stroke: #ff0000; stroke-width: 2"/>
     <use xlink:href="#ma2ecda62cc" x="147.027273" y="180.949069" style="fill: #ff0000; stroke: #ff0000; stroke-width: 2"/>
     <use xlink:href="#ma2ecda62cc" x="166.05" y="188.479646" style="fill: #ff0000; stroke: #ff0000; stroke-width: 2"/>
     <use xlink:href="#ma2ecda62cc" x="185.072727" y="195.671563" style="fill: #ff0000; stroke: #ff0000; stroke-width: 2"/>
     <use xlink:href="#ma2ecda62cc" x="204.095455" y="201.213163" style="fill: #ff0000; stroke: #ff0000; stroke-width: 2"/>
     <use xlink:href="#ma2ecda62cc" x="223.118182" y="208.127656" style="fill: #ff0000; stroke: #ff0000; stroke-width: 2"/>
     <use xlink:href="#ma2ecda62cc" x="242.140909" y="216.258288" style="fill: #ff0000; stroke: #ff0000; stroke-width: 2"/>
     <use xlink:href="#ma2ecda62cc" x="261.163636" y="219.93088" style="fill: #ff0000; stroke: #ff0000; stroke-width: 2"/>
     <use xlink:href="#ma2ecda62cc" x="280.186364" y="228.638364" style="fill: #ff0000; stroke: #ff0000; stroke-width: 2"/>
    </g>
   </g>
   <g id="line2d_12">
    <g clip-path="url(#pc13379fa41)">
     <use xlink:href="#ma2ecda62cc" x="51.913636" y="135.981349" style="fill: #ff0000; stroke: #ff0000; stroke-width: 2"/>
     <use xlink:href="#ma2ecda62cc" x="70.936364" y="143.333231" style="fill: #ff0000; stroke: #ff0000; stroke-width: 2"/>
     <use xlink:href="#ma2ecda62cc" x="89.959091" y="156.434417" style="fill: #ff0000; stroke: #ff0000; stroke-width: 2"/>
     <use xlink:href="#ma2ecda62cc" x="108.981818" y="162.562455" style="fill: #ff0000; stroke: #ff0000; stroke-width: 2"/>
     <use xlink:href="#ma2ecda62cc" x="128.004545" y="172.26522" style="fill: #ff0000; stroke: #ff0000; stroke-width: 2"/>
     <use xlink:href="#ma2ecda62cc" x="147.027273" y="178.268637" style="fill: #ff0000; stroke: #ff0000; stroke-width: 2"/>
     <use xlink:href="#ma2ecda62cc" x="166.05" y="186.857199" style="fill: #ff0000; stroke: #ff0000; stroke-width: 2"/>
     <use xlink:href="#ma2ecda62cc" x="185.072727" y="193.341067" style="fill: #ff0000; stroke: #ff0000; stroke-width: 2"/>
     <use xlink:href="#ma2ecda62cc" x="204.095455" y="199.651405" style="fill: #ff0000; stroke: #ff0000; stroke-width: 2"/>
     <use xlink:href="#ma2ecda62cc" x="223.118182" y="207.217224" style="fill: #ff0000; stroke: #ff0000; stroke-width: 2"/>
     <use xlink:href="#ma2ecda62cc" x="242.140909" y="214.199671" style="fill: #ff0000; stroke: #ff0000; stroke-width: 2"/>
     <use xlink:href="#ma2ecda62cc" x="261.163636" y="218.471763" style="fill: #ff0000; stroke: #ff0000; stroke-width: 2"/>
     <use xlink:href="#ma2ecda62cc" x="280.186364" y="227.391178" style="fill: #ff0000; stroke: #ff0000; stroke-width: 2"/>
    </g>
   </g>
   <g id="line2d_13">
    <path d="M 51.913636 104.538926 
L 70.936364 123.676734 
L 89.959091 136.924087 
L 108.981818 149.987519 
L 128.004545 163.358285 
L 147.027273 173.640959 
L 166.05 186.576998 
L 185.072727 198.227844 
L 204.095455 208.367036 
L 223.118182 218.290366 
L 242.140909 226.849716 
L 261.163636 233.311844 
L 280.186364 243.601215 
" clip-path="url(#pc13379fa41)" style="fill: none; stroke: #000000; stroke-width: 1.5; stroke-linecap: square"/>
   </g>
   <g id="LineCollection_2">
    <path d="M 51.913636 105.887024 
L 51.913636 103.190828 
" clip-path="url(#pc13379fa41)" style="fill: none; stroke: #000000; stroke-width: 2"/>
    <path d="M 70.936364 125.2933 
L 70.936364 122.060168 
" clip-path="url(#pc13379fa41)" style="fill: none; stroke: #000000; stroke-width: 2"/>
    <path d="M 89.959091 137.256163 
L 89.959091 136.592011 
" clip-path="url(#pc13379fa41)" style="fill: none; stroke: #000000; stroke-width: 2"/>
    <path d="M 108.981818 150.887784 
L 108.981818 149.087254 
" clip-path="url(#pc13379fa41)" style="fill: none; stroke: #000000; stroke-width: 2"/>
    <path d="M 128.004545 164.071529 
L 128.004545 162.645041 
" clip-path="url(#pc13379fa41)" style="fill: none; stroke: #000000; stroke-width: 2"/>
    <path d="M 147.027273 174.638296 
L 147.027273 172.643621 
" clip-path="url(#pc13379fa41)" style="fill: none; stroke: #000000; stroke-width: 2"/>
    <path d="M 166.05 187.473587 
L 166.05 185.680409 
" clip-path="url(#pc13379fa41)" style="fill: none; stroke: #000000; stroke-width: 2"/>
    <path d="M 185.072727 199.04664 
L 185.072727 197.409048 
" clip-path="url(#pc13379fa41)" style="fill: none; stroke: #000000; stroke-width: 2"/>
    <path d="M 204.095455 209.096075 
L 204.095455 207.637997 
" clip-path="url(#pc13379fa41)" style="fill: none; stroke: #000000; stroke-width: 2"/>
    <path d="M 223.118182 218.557892 
L 223.118182 218.02284 
" clip-path="url(#pc13379fa41)" style="fill: none; stroke: #000000; stroke-width: 2"/>
    <path d="M 242.140909 227.609928 
L 242.140909 226.089504 
" clip-path="url(#pc13379fa41)" style="fill: none; stroke: #000000; stroke-width: 2"/>
    <path d="M 261.163636 233.311844 
L 261.163636 233.311844 
" clip-path="url(#pc13379fa41)" style="fill: none; stroke: #000000; stroke-width: 2"/>
    <path d="M 280.186364 244.324714 
L 280.186364 242.877716 
" clip-path="url(#pc13379fa41)" style="fill: none; stroke: #000000; stroke-width: 2"/>
   </g>
   <g id="line2d_14">
    <defs>
     <path id="m91245d1306" d="M 3 0 
L -3 -0 
" style="stroke: #000000; stroke-width: 2"/>
    </defs>
    <g clip-path="url(#pc13379fa41)">
     <use xlink:href="#m91245d1306" x="51.913636" y="105.887024" style="stroke: #000000; stroke-width: 2"/>
     <use xlink:href="#m91245d1306" x="70.936364" y="125.2933" style="stroke: #000000; stroke-width: 2"/>
     <use xlink:href="#m91245d1306" x="89.959091" y="137.256163" style="stroke: #000000; stroke-width: 2"/>
     <use xlink:href="#m91245d1306" x="108.981818" y="150.887784" style="stroke: #000000; stroke-width: 2"/>
     <use xlink:href="#m91245d1306" x="128.004545" y="164.071529" style="stroke: #000000; stroke-width: 2"/>
     <use xlink:href="#m91245d1306" x="147.027273" y="174.638296" style="stroke: #000000; stroke-width: 2"/>
     <use xlink:href="#m91245d1306" x="166.05" y="187.473587" style="stroke: #000000; stroke-width: 2"/>
     <use xlink:href="#m91245d1306" x="185.072727" y="199.04664" style="stroke: #000000; stroke-width: 2"/>
     <use xlink:href="#m91245d1306" x="204.095455" y="209.096075" style="stroke: #000000; stroke-width: 2"/>
     <use xlink:href="#m91245d1306" x="223.118182" y="218.557892" style="stroke: #000000; stroke-width: 2"/>
     <use xlink:href="#m91245d1306" x="242.140909" y="227.609928" style="stroke: #000000; stroke-width: 2"/>
     <use xlink:href="#m91245d1306" x="261.163636" y="233.311844" style="stroke: #000000; stroke-width: 2"/>
     <use xlink:href="#m91245d1306" x="280.186364" y="244.324714" style="stroke: #000000; stroke-width: 2"/>
    </g>
   </g>
   <g id="line2d_15">
    <g clip-path="url(#pc13379fa41)">
     <use xlink:href="#m91245d1306" x="51.913636" y="103.190828" style="stroke: #000000; stroke-width: 2"/>
     <use xlink:href="#m91245d1306" x="70.936364" y="122.060168" style="stroke: #000000; stroke-width: 2"/>
     <use xlink:href="#m91245d1306" x="89.959091" y="136.592011" style="stroke: #000000; stroke-width: 2"/>
     <use xlink:href="#m91245d1306" x="108.981818" y="149.087254" style="stroke: #000000; stroke-width: 2"/>
     <use xlink:href="#m91245d1306" x="128.004545" y="162.645041" style="stroke: #000000; stroke-width: 2"/>
     <use xlink:href="#m91245d1306" x="147.027273" y="172.643621" style="stroke: #000000; stroke-width: 2"/>
     <use xlink:href="#m91245d1306" x="166.05" y="185.680409" style="stroke: #000000; stroke-width: 2"/>
     <use xlink:href="#m91245d1306" x="185.072727" y="197.409048" style="stroke: #000000; stroke-width: 2"/>
     <use xlink:href="#m91245d1306" x="204.095455" y="207.637997" style="stroke: #000000; stroke-width: 2"/>
     <use xlink:href="#m91245d1306" x="223.118182" y="218.02284" style="stroke: #000000; stroke-width: 2"/>
     <use xlink:href="#m91245d1306" x="242.140909" y="226.089504" style="stroke: #000000; stroke-width: 2"/>
     <use xlink:href="#m91245d1306" x="261.163636" y="233.311844" style="stroke: #000000; stroke-width: 2"/>
     <use xlink:href="#m91245d1306" x="280.186364" y="242.877716" style="stroke: #000000; stroke-width: 2"/>
    </g>
   </g>
   <g id="line2d_16">
    <path d="M 51.913636 75.35754 
L 70.936364 98.237643 
L 89.959091 118.018706 
L 108.981818 135.491149 
L 128.004545 154.624617 
L 147.027273 169.405377 
L 166.05 184.548058 
L 185.072727 200.33827 
L 204.095455 211.283802 
L 223.118182 225.893201 
L 242.140909 236.19726 
L 261.163636 245.046887 
L 280.186364 255.321467 
" clip-path="url(#pc13379fa41)" style="fill: none; stroke: #0000ff; stroke-width: 1.5; stroke-linecap: square"/>
   </g>
   <g id="LineCollection_3">
    <path d="M 51.913636 75.723155 
L 51.913636 74.991924 
" clip-path="url(#pc13379fa41)" style="fill: none; stroke: #0000ff; stroke-width: 2"/>
    <path d="M 70.936364 99.058205 
L 70.936364 97.41708 
" clip-path="url(#pc13379fa41)" style="fill: none; stroke: #0000ff; stroke-width: 2"/>
    <path d="M 89.959091 118.969937 
L 89.959091 117.067475 
" clip-path="url(#pc13379fa41)" style="fill: none; stroke: #0000ff; stroke-width: 2"/>
    <path d="M 108.981818 136.481165 
L 108.981818 134.501132 
" clip-path="url(#pc13379fa41)" style="fill: none; stroke: #0000ff; stroke-width: 2"/>
    <path d="M 128.004545 155.717798 
L 128.004545 153.531437 
" clip-path="url(#pc13379fa41)" style="fill: none; stroke: #0000ff; stroke-width: 2"/>
    <path d="M 147.027273 170.015654 
L 147.027273 168.795101 
" clip-path="url(#pc13379fa41)" style="fill: none; stroke: #0000ff; stroke-width: 2"/>
    <path d="M 166.05 186.013364 
L 166.05 183.082753 
" clip-path="url(#pc13379fa41)" style="fill: none; stroke: #0000ff; stroke-width: 2"/>
    <path d="M 185.072727 201.68563 
L 185.072727 198.990911 
" clip-path="url(#pc13379fa41)" style="fill: none; stroke: #0000ff; stroke-width: 2"/>
    <path d="M 204.095455 211.37088 
L 204.095455 211.196723 
" clip-path="url(#pc13379fa41)" style="fill: none; stroke: #0000ff; stroke-width: 2"/>
    <path d="M 223.118182 226.286712 
L 223.118182 225.49969 
" clip-path="url(#pc13379fa41)" style="fill: none; stroke: #0000ff; stroke-width: 2"/>
    <path d="M 242.140909 236.527033 
L 242.140909 235.867486 
" clip-path="url(#pc13379fa41)" style="fill: none; stroke: #0000ff; stroke-width: 2"/>
    <path d="M 261.163636 245.597961 
L 261.163636 244.495812 
" clip-path="url(#pc13379fa41)" style="fill: none; stroke: #0000ff; stroke-width: 2"/>
    <path d="M 280.186364 255.472494 
L 280.186364 255.170439 
" clip-path="url(#pc13379fa41)" style="fill: none; stroke: #0000ff; stroke-width: 2"/>
   </g>
   <g id="line2d_17">
    <defs>
     <path id="m75a4231030" d="M 3 0 
L -3 -0 
" style="stroke: #0000ff; stroke-width: 2"/>
    </defs>
    <g clip-path="url(#pc13379fa41)">
     <use xlink:href="#m75a4231030" x="51.913636" y="75.723155" style="fill: #0000ff; stroke: #0000ff; stroke-width: 2"/>
     <use xlink:href="#m75a4231030" x="70.936364" y="99.058205" style="fill: #0000ff; stroke: #0000ff; stroke-width: 2"/>
     <use xlink:href="#m75a4231030" x="89.959091" y="118.969937" style="fill: #0000ff; stroke: #0000ff; stroke-width: 2"/>
     <use xlink:href="#m75a4231030" x="108.981818" y="136.481165" style="fill: #0000ff; stroke: #0000ff; stroke-width: 2"/>
     <use xlink:href="#m75a4231030" x="128.004545" y="155.717798" style="fill: #0000ff; stroke: #0000ff; stroke-width: 2"/>
     <use xlink:href="#m75a4231030" x="147.027273" y="170.015654" style="fill: #0000ff; stroke: #0000ff; stroke-width: 2"/>
     <use xlink:href="#m75a4231030" x="166.05" y="186.013364" style="fill: #0000ff; stroke: #0000ff; stroke-width: 2"/>
     <use xlink:href="#m75a4231030" x="185.072727" y="201.68563" style="fill: #0000ff; stroke: #0000ff; stroke-width: 2"/>
     <use xlink:href="#m75a4231030" x="204.095455" y="211.37088" style="fill: #0000ff; stroke: #0000ff; stroke-width: 2"/>
     <use xlink:href="#m75a4231030" x="223.118182" y="226.286712" style="fill: #0000ff; stroke: #0000ff; stroke-width: 2"/>
     <use xlink:href="#m75a4231030" x="242.140909" y="236.527033" style="fill: #0000ff; stroke: #0000ff; stroke-width: 2"/>
     <use xlink:href="#m75a4231030" x="261.163636" y="245.597961" style="fill: #0000ff; stroke: #0000ff; stroke-width: 2"/>
     <use xlink:href="#m75a4231030" x="280.186364" y="255.472494" style="fill: #0000ff; stroke: #0000ff; stroke-width: 2"/>
    </g>
   </g>
   <g id="line2d_18">
    <g clip-path="url(#pc13379fa41)">
     <use xlink:href="#m75a4231030" x="51.913636" y="74.991924" style="fill: #0000ff; stroke: #0000ff; stroke-width: 2"/>
     <use xlink:href="#m75a4231030" x="70.936364" y="97.41708" style="fill: #0000ff; stroke: #0000ff; stroke-width: 2"/>
     <use xlink:href="#m75a4231030" x="89.959091" y="117.067475" style="fill: #0000ff; stroke: #0000ff; stroke-width: 2"/>
     <use xlink:href="#m75a4231030" x="108.981818" y="134.501132" style="fill: #0000ff; stroke: #0000ff; stroke-width: 2"/>
     <use xlink:href="#m75a4231030" x="128.004545" y="153.531437" style="fill: #0000ff; stroke: #0000ff; stroke-width: 2"/>
     <use xlink:href="#m75a4231030" x="147.027273" y="168.795101" style="fill: #0000ff; stroke: #0000ff; stroke-width: 2"/>
     <use xlink:href="#m75a4231030" x="166.05" y="183.082753" style="fill: #0000ff; stroke: #0000ff; stroke-width: 2"/>
     <use xlink:href="#m75a4231030" x="185.072727" y="198.990911" style="fill: #0000ff; stroke: #0000ff; stroke-width: 2"/>
     <use xlink:href="#m75a4231030" x="204.095455" y="211.196723" style="fill: #0000ff; stroke: #0000ff; stroke-width: 2"/>
     <use xlink:href="#m75a4231030" x="223.118182" y="225.49969" style="fill: #0000ff; stroke: #0000ff; stroke-width: 2"/>
     <use xlink:href="#m75a4231030" x="242.140909" y="235.867486" style="fill: #0000ff; stroke: #0000ff; stroke-width: 2"/>
     <use xlink:href="#m75a4231030" x="261.163636" y="244.495812" style="fill: #0000ff; stroke: #0000ff; stroke-width: 2"/>
     <use xlink:href="#m75a4231030" x="280.186364" y="255.170439" style="fill: #0000ff; stroke: #0000ff; stroke-width: 2"/>
    </g>
   </g>
   <g id="line2d_19">
    <path d="M 51.913636 50.797349 
L 70.936364 79.683885 
L 89.959091 101.794999 
L 108.981818 127.047646 
L 128.004545 145.678954 
L 147.027273 167.42926 
L 166.05 185.697123 
L 185.072727 201.15212 
L 204.095455 216.85268 
L 223.118182 230.688058 
L 242.140909 243.36722 
L 261.163636 254.367573 
L 280.186364 265.422569 
" clip-path="url(#pc13379fa41)" style="fill: none; stroke: #bf00bf; stroke-width: 1.5; stroke-linecap: square"/>
   </g>
   <g id="LineCollection_4">
    <path d="M 51.913636 51.905781 
L 51.913636 49.688917 
" clip-path="url(#pc13379fa41)" style="fill: none; stroke: #bf00bf; stroke-width: 2"/>
    <path d="M 70.936364 81.190275 
L 70.936364 78.177494 
" clip-path="url(#pc13379fa41)" style="fill: none; stroke: #bf00bf; stroke-width: 2"/>
    <path d="M 89.959091 103.131836 
L 89.959091 100.458161 
" clip-path="url(#pc13379fa41)" style="fill: none; stroke: #bf00bf; stroke-width: 2"/>
    <path d="M 108.981818 127.436374 
L 108.981818 126.658918 
" clip-path="url(#pc13379fa41)" style="fill: none; stroke: #bf00bf; stroke-width: 2"/>
    <path d="M 128.004545 146.17279 
L 128.004545 145.185119 
" clip-path="url(#pc13379fa41)" style="fill: none; stroke: #bf00bf; stroke-width: 2"/>
    <path d="M 147.027273 167.98555 
L 147.027273 166.87297 
" clip-path="url(#pc13379fa41)" style="fill: none; stroke: #bf00bf; stroke-width: 2"/>
    <path d="M 166.05 187.056841 
L 166.05 184.337404 
" clip-path="url(#pc13379fa41)" style="fill: none; stroke: #bf00bf; stroke-width: 2"/>
    <path d="M 185.072727 201.840482 
L 185.072727 200.463758 
" clip-path="url(#pc13379fa41)" style="fill: none; stroke: #bf00bf; stroke-width: 2"/>
    <path d="M 204.095455 217.308707 
L 204.095455 216.396654 
" clip-path="url(#pc13379fa41)" style="fill: none; stroke: #bf00bf; stroke-width: 2"/>
    <path d="M 223.118182 231.228921 
L 223.118182 230.147196 
" clip-path="url(#pc13379fa41)" style="fill: none; stroke: #bf00bf; stroke-width: 2"/>
    <path d="M 242.140909 243.80545 
L 242.140909 242.92899 
" clip-path="url(#pc13379fa41)" style="fill: none; stroke: #bf00bf; stroke-width: 2"/>
    <path d="M 261.163636 254.808375 
L 261.163636 253.926772 
" clip-path="url(#pc13379fa41)" style="fill: none; stroke: #bf00bf; stroke-width: 2"/>
    <path d="M 280.186364 265.867256 
L 280.186364 264.977882 
" clip-path="url(#pc13379fa41)" style="fill: none; stroke: #bf00bf; stroke-width: 2"/>
   </g>
   <g id="line2d_20">
    <defs>
     <path id="m9ec1124291" d="M 3 0 
L -3 -0 
" style="stroke: #bf00bf; stroke-width: 2"/>
    </defs>
    <g clip-path="url(#pc13379fa41)">
     <use xlink:href="#m9ec1124291" x="51.913636" y="51.905781" style="fill: #bf00bf; stroke: #bf00bf; stroke-width: 2"/>
     <use xlink:href="#m9ec1124291" x="70.936364" y="81.190275" style="fill: #bf00bf; stroke: #bf00bf; stroke-width: 2"/>
     <use xlink:href="#m9ec1124291" x="89.959091" y="103.131836" style="fill: #bf00bf; stroke: #bf00bf; stroke-width: 2"/>
     <use xlink:href="#m9ec1124291" x="108.981818" y="127.436374" style="fill: #bf00bf; stroke: #bf00bf; stroke-width: 2"/>
     <use xlink:href="#m9ec1124291" x="128.004545" y="146.17279" style="fill: #bf00bf; stroke: #bf00bf; stroke-width: 2"/>
     <use xlink:href="#m9ec1124291" x="147.027273" y="167.98555" style="fill: #bf00bf; stroke: #bf00bf; stroke-width: 2"/>
     <use xlink:href="#m9ec1124291" x="166.05" y="187.056841" style="fill: #bf00bf; stroke: #bf00bf; stroke-width: 2"/>
     <use xlink:href="#m9ec1124291" x="185.072727" y="201.840482" style="fill: #bf00bf; stroke: #bf00bf; stroke-width: 2"/>
     <use xlink:href="#m9ec1124291" x="204.095455" y="217.308707" style="fill: #bf00bf; stroke: #bf00bf; stroke-width: 2"/>
     <use xlink:href="#m9ec1124291" x="223.118182" y="231.228921" style="fill: #bf00bf; stroke: #bf00bf; stroke-width: 2"/>
     <use xlink:href="#m9ec1124291" x="242.140909" y="243.80545" style="fill: #bf00bf; stroke: #bf00bf; stroke-width: 2"/>
     <use xlink:href="#m9ec1124291" x="261.163636" y="254.808375" style="fill: #bf00bf; stroke: #bf00bf; stroke-width: 2"/>
     <use xlink:href="#m9ec1124291" x="280.186364" y="265.867256" style="fill: #bf00bf; stroke: #bf00bf; stroke-width: 2"/>
    </g>
   </g>
   <g id="line2d_21">
    <g clip-path="url(#pc13379fa41)">
     <use xlink:href="#m9ec1124291" x="51.913636" y="49.688917" style="fill: #bf00bf; stroke: #bf00bf; stroke-width: 2"/>
     <use xlink:href="#m9ec1124291" x="70.936364" y="78.177494" style="fill: #bf00bf; stroke: #bf00bf; stroke-width: 2"/>
     <use xlink:href="#m9ec1124291" x="89.959091" y="100.458161" style="fill: #bf00bf; stroke: #bf00bf; stroke-width: 2"/>
     <use xlink:href="#m9ec1124291" x="108.981818" y="126.658918" style="fill: #bf00bf; stroke: #bf00bf; stroke-width: 2"/>
     <use xlink:href="#m9ec1124291" x="128.004545" y="145.185119" style="fill: #bf00bf; stroke: #bf00bf; stroke-width: 2"/>
     <use xlink:href="#m9ec1124291" x="147.027273" y="166.87297" style="fill: #bf00bf; stroke: #bf00bf; stroke-width: 2"/>
     <use xlink:href="#m9ec1124291" x="166.05" y="184.337404" style="fill: #bf00bf; stroke: #bf00bf; stroke-width: 2"/>
     <use xlink:href="#m9ec1124291" x="185.072727" y="200.463758" style="fill: #bf00bf; stroke: #bf00bf; stroke-width: 2"/>
     <use xlink:href="#m9ec1124291" x="204.095455" y="216.396654" style="fill: #bf00bf; stroke: #bf00bf; stroke-width: 2"/>
     <use xlink:href="#m9ec1124291" x="223.118182" y="230.147196" style="fill: #bf00bf; stroke: #bf00bf; stroke-width: 2"/>
     <use xlink:href="#m9ec1124291" x="242.140909" y="242.92899" style="fill: #bf00bf; stroke: #bf00bf; stroke-width: 2"/>
     <use xlink:href="#m9ec1124291" x="261.163636" y="253.926772" style="fill: #bf00bf; stroke: #bf00bf; stroke-width: 2"/>
     <use xlink:href="#m9ec1124291" x="280.186364" y="264.977882" style="fill: #bf00bf; stroke: #bf00bf; stroke-width: 2"/>
    </g>
   </g>
   <g id="line2d_22">
    <path d="M 51.913636 137.247154 
L 70.936364 144.193389 
L 89.959091 157.331204 
L 108.981818 163.022803 
L 128.004545 173.165387 
L 147.027273 179.608853 
L 166.05 187.668423 
L 185.072727 194.506315 
L 204.095455 200.432284 
L 223.118182 207.67244 
L 242.140909 215.228979 
L 261.163636 219.201321 
L 280.186364 228.014771 
" clip-path="url(#pc13379fa41)" style="fill: none; stroke: #ff0000; stroke-width: 1.5; stroke-linecap: square"/>
   </g>
   <g id="line2d_23">
    <path d="M 51.913636 104.538926 
L 70.936364 123.676734 
L 89.959091 136.924087 
L 108.981818 149.987519 
L 128.004545 163.358285 
L 147.027273 173.640959 
L 166.05 186.576998 
L 185.072727 198.227844 
L 204.095455 208.367036 
L 223.118182 218.290366 
L 242.140909 226.849716 
L 261.163636 233.311844 
L 280.186364 243.601215 
" clip-path="url(#pc13379fa41)" style="fill: none; stroke: #000000; stroke-width: 1.5; stroke-linecap: square"/>
   </g>
   <g id="line2d_24">
    <path d="M 51.913636 75.35754 
L 70.936364 98.237643 
L 89.959091 118.018706 
L 108.981818 135.491149 
L 128.004545 154.624617 
L 147.027273 169.405377 
L 166.05 184.548058 
L 185.072727 200.33827 
L 204.095455 211.283802 
L 223.118182 225.893201 
L 242.140909 236.19726 
L 261.163636 245.046887 
L 280.186364 255.321467 
" clip-path="url(#pc13379fa41)" style="fill: none; stroke: #0000ff; stroke-width: 1.5; stroke-linecap: square"/>
   </g>
   <g id="line2d_25">
    <path d="M 51.913636 50.797349 
L 70.936364 79.683885 
L 89.959091 101.794999 
L 108.981818 127.047646 
L 128.004545 145.678954 
L 147.027273 167.42926 
L 166.05 185.697123 
L 185.072727 201.15212 
L 204.095455 216.85268 
L 223.118182 230.688058 
L 242.140909 243.36722 
L 261.163636 254.367573 
L 280.186364 265.422569 
" clip-path="url(#pc13379fa41)" style="fill: none; stroke: #bf00bf; stroke-width: 1.5; stroke-linecap: square"/>
   </g>
   <g id="patch_3">
    <path d="M 40.5 288.36 
L 40.5 38.88 
" style="fill: none; stroke: #000000; stroke-width: 1.6; stroke-linejoin: miter; stroke-linecap: square"/>
   </g>
   <g id="patch_4">
    <path d="M 291.6 288.36 
L 291.6 38.88 
" style="fill: none; stroke: #000000; stroke-width: 1.6; stroke-linejoin: miter; stroke-linecap: square"/>
   </g>
   <g id="patch_5">
    <path d="M 40.5 288.36 
L 291.6 288.36 
" style="fill: none; stroke: #000000; stroke-width: 1.6; stroke-linejoin: miter; stroke-linecap: square"/>
   </g>
   <g id="patch_6">
    <path d="M 40.5 38.88 
L 291.6 38.88 
" style="fill: none; stroke: #000000; stroke-width: 1.6; stroke-linejoin: miter; stroke-linecap: square"/>
   </g>
   <g id="legend_1">
    <g id="patch_7">
     <path d="M 209.120625 118.935 
L 283.2 118.935 
Q 285.6 118.935 285.6 116.535 
L 285.6 47.28 
Q 285.6 44.88 283.2 44.88 
L 209.120625 44.88 
Q 206.720625 44.88 206.720625 47.28 
L 206.720625 116.535 
Q 206.720625 118.935 209.120625 118.935 
z
" style="fill: #ffffff; opacity: 0.8"/>
    </g>
    <g id="LineCollection_5">
     <path d="M 223.520625 60.598125 
L 223.520625 48.598125 
" style="fill: none; stroke: #ff0000; stroke-width: 2"/>
    </g>
    <g id="line2d_26">
     <g>
      <use xlink:href="#ma2ecda62cc" x="223.520625" y="60.598125" style="fill: #ff0000; stroke: #ff0000; stroke-width: 2"/>
     </g>
    </g>
    <g id="line2d_27">
     <g>
      <use xlink:href="#ma2ecda62cc" x="223.520625" y="48.598125" style="fill: #ff0000; stroke: #ff0000; stroke-width: 2"/>
     </g>
    </g>
    <g id="line2d_28">
     <path d="M 211.520625 54.598125 
L 235.520625 54.598125 
" style="fill: none; stroke: #ff0000; stroke-width: 1.5; stroke-linecap: square"/>
    </g>
    <g id="line2d_29"/>
    <g id="text_10">
     <!-- M=4 -->
     <g transform="translate(245.120625 58.798125) scale(0.12 -0.12)">
      <defs>
       <path id="DejaVuSans-4d" d="M 628 4666 
L 1569 4666 
L 2759 1491 
L 3956 4666 
L 4897 4666 
L 4897 0 
L 4281 0 
L 4281 4097 
L 3078 897 
L 2444 897 
L 1241 4097 
L 1241 0 
L 628 0 
L 628 4666 
z
" transform="scale(0.015625)"/>
       <path id="DejaVuSans-3d" d="M 678 2906 
L 4684 2906 
L 4684 2381 
L 678 2381 
L 678 2906 
z
M 678 1631 
L 4684 1631 
L 4684 1100 
L 678 1100 
L 678 1631 
z
" transform="scale(0.015625)"/>
       <path id="DejaVuSans-34" d="M 2419 4116 
L 825 1625 
L 2419 1625 
L 2419 4116 
z
M 2253 4666 
L 3047 4666 
L 3047 1625 
L 3713 1625 
L 3713 1100 
L 3047 1100 
L 3047 0 
L 2419 0 
L 2419 1100 
L 313 1100 
L 313 1709 
L 2253 4666 
z
" transform="scale(0.015625)"/>
      </defs>
      <use xlink:href="#DejaVuSans-4d"/>
      <use xlink:href="#DejaVuSans-3d" x="86.279297"/>
      <use xlink:href="#DejaVuSans-34" x="170.068359"/>
     </g>
    </g>
    <g id="LineCollection_6">
     <path d="M 223.520625 78.211875 
L 223.520625 66.211875 
" style="fill: none; stroke: #000000; stroke-width: 2"/>
    </g>
    <g id="line2d_30">
     <g>
      <use xlink:href="#m91245d1306" x="223.520625" y="78.211875" style="stroke: #000000; stroke-width: 2"/>
     </g>
    </g>
    <g id="line2d_31">
     <g>
      <use xlink:href="#m91245d1306" x="223.520625" y="66.211875" style="stroke: #000000; stroke-width: 2"/>
     </g>
    </g>
    <g id="line2d_32">
     <path d="M 211.520625 72.211875 
L 235.520625 72.211875 
" style="fill: none; stroke: #000000; stroke-width: 1.5; stroke-linecap: square"/>
    </g>
    <g id="line2d_33"/>
    <g id="text_11">
     <!-- M=8 -->
     <g transform="translate(245.120625 76.411875) scale(0.12 -0.12)">
      <use xlink:href="#DejaVuSans-4d"/>
      <use xlink:href="#DejaVuSans-3d" x="86.279297"/>
      <use xlink:href="#DejaVuSans-38" x="170.068359"/>
     </g>
    </g>
    <g id="LineCollection_7">
     <path d="M 223.520625 95.825625 
L 223.520625 83.825625 
" style="fill: none; stroke: #0000ff; stroke-width: 2"/>
    </g>
    <g id="line2d_34">
     <g>
      <use xlink:href="#m75a4231030" x="223.520625" y="95.825625" style="fill: #0000ff; stroke: #0000ff; stroke-width: 2"/>
     </g>
    </g>
    <g id="line2d_35">
     <g>
      <use xlink:href="#m75a4231030" x="223.520625" y="83.825625" style="fill: #0000ff; stroke: #0000ff; stroke-width: 2"/>
     </g>
    </g>
    <g id="line2d_36">
     <path d="M 211.520625 89.825625 
L 235.520625 89.825625 
" style="fill: none; stroke: #0000ff; stroke-width: 1.5; stroke-linecap: square"/>
    </g>
    <g id="line2d_37"/>
    <g id="text_12">
     <!-- M=12 -->
     <g transform="translate(245.120625 94.025625) scale(0.12 -0.12)">
      <defs>
       <path id="DejaVuSans-31" d="M 794 531 
L 1825 531 
L 1825 4091 
L 703 3866 
L 703 4441 
L 1819 4666 
L 2450 4666 
L 2450 531 
L 3481 531 
L 3481 0 
L 794 0 
L 794 531 
z
" transform="scale(0.015625)"/>
       <path id="DejaVuSans-32" d="M 1228 531 
L 3431 531 
L 3431 0 
L 469 0 
L 469 531 
Q 828 903 1448 1529 
Q 2069 2156 2228 2338 
Q 2531 2678 2651 2914 
Q 2772 3150 2772 3378 
Q 2772 3750 2511 3984 
Q 2250 4219 1831 4219 
Q 1534 4219 1204 4116 
Q 875 4013 500 3803 
L 500 4441 
Q 881 4594 1212 4672 
Q 1544 4750 1819 4750 
Q 2544 4750 2975 4387 
Q 3406 4025 3406 3419 
Q 3406 3131 3298 2873 
Q 3191 2616 2906 2266 
Q 2828 2175 2409 1742 
Q 1991 1309 1228 531 
z
" transform="scale(0.015625)"/>
      </defs>
      <use xlink:href="#DejaVuSans-4d"/>
      <use xlink:href="#DejaVuSans-3d" x="86.279297"/>
      <use xlink:href="#DejaVuSans-31" x="170.068359"/>
      <use xlink:href="#DejaVuSans-32" x="233.691406"/>
     </g>
    </g>
    <g id="LineCollection_8">
     <path d="M 223.520625 113.439375 
L 223.520625 101.439375 
" style="fill: none; stroke: #bf00bf; stroke-width: 2"/>
    </g>
    <g id="line2d_38">
     <g>
      <use xlink:href="#m9ec1124291" x="223.520625" y="113.439375" style="fill: #bf00bf; stroke: #bf00bf; stroke-width: 2"/>
     </g>
    </g>
    <g id="line2d_39">
     <g>
      <use xlink:href="#m9ec1124291" x="223.520625" y="101.439375" style="fill: #bf00bf; stroke: #bf00bf; stroke-width: 2"/>
     </g>
    </g>
    <g id="line2d_40">
     <path d="M 211.520625 107.439375 
L 235.520625 107.439375 
" style="fill: none; stroke: #bf00bf; stroke-width: 1.5; stroke-linecap: square"/>
    </g>
    <g id="line2d_41"/>
    <g id="text_13">
     <!-- M=16 -->
     <g transform="translate(245.120625 111.639375) scale(0.12 -0.12)">
      <defs>
       <path id="DejaVuSans-36" d="M 2113 2584 
Q 1688 2584 1439 2293 
Q 1191 2003 1191 1497 
Q 1191 994 1439 701 
Q 1688 409 2113 409 
Q 2538 409 2786 701 
Q 3034 994 3034 1497 
Q 3034 2003 2786 2293 
Q 2538 2584 2113 2584 
z
M 3366 4563 
L 3366 3988 
Q 3128 4100 2886 4159 
Q 2644 4219 2406 4219 
Q 1781 4219 1451 3797 
Q 1122 3375 1075 2522 
Q 1259 2794 1537 2939 
Q 1816 3084 2150 3084 
Q 2853 3084 3261 2657 
Q 3669 2231 3669 1497 
Q 3669 778 3244 343 
Q 2819 -91 2113 -91 
Q 1303 -91 875 529 
Q 447 1150 447 2328 
Q 447 3434 972 4092 
Q 1497 4750 2381 4750 
Q 2619 4750 2861 4703 
Q 3103 4656 3366 4563 
z
" transform="scale(0.015625)"/>
      </defs>
      <use xlink:href="#DejaVuSans-4d"/>
      <use xlink:href="#DejaVuSans-3d" x="86.279297"/>
      <use xlink:href="#DejaVuSans-31" x="170.068359"/>
      <use xlink:href="#DejaVuSans-36" x="233.691406"/>
     </g>
    </g>
   </g>
  </g>
 </g>
 <defs>
  <clipPath id="pc13379fa41">
   <rect x="40.5" y="38.88" width="251.1" height="249.48"/>
  </clipPath>
 </defs>
</svg>
