<?xml version="1.0" encoding="utf-8" standalone="no"?>
<!DOCTYPE svg PUBLIC "-//W3C//DTD SVG 1.1//EN"
  "http://www.w3.org/Graphics/SVG/1.1/DTD/svg11.dtd">
<svg xmlns:xlink="http://www.w3.org/1999/xlink" width="324pt" height="324pt" viewBox="0 0 324 324" xmlns="http://www.w3.org/2000/svg" version="1.1">
 <metadata>
  <rdf:RDF xmlns:dc="http://purl.org/dc/elements/1.1/" xmlns:cc="http://creativecommons.org/ns#" xmlns:rdf="http://www.w3.org/1999/02/22-rdf-syntax-ns#">
   <cc:Work>
    <dc:type rdf:resource="http://purl.org/dc/dcmitype/StillImage"/>
    <dc:date>2025-12-31T14:06:42.861281</dc:date>
    <dc:format>image/svg+xml</dc:format>
    <dc:creator>
     <cc:Agent>
      <dc:title>Matplotlib v3.8.0, https://matplotlib.org/</dc:title>
     </cc:Agent>
    </dc:creator>
   </cc:Work>
  </rdf:RDF>
 </metadata>
 <defs>
  <style type="text/css">*{stroke-linejoin: round; stroke-linecap: butt}</style>
 </defs>
 <g id="figure_1">
  <g id="patch_1">
   <path d="M 0 324 
L 324 324 
L 324 0 
L 0 0 
z
" style="fill: #ffffff"/>
  </g>
  <g id="axes_1">
   <g id="patch_2">
    <path d="M 40.5 288.36 
L 291.6 288.36 
L 291.6 38.88 
L 40.5 38.88 
z
" style="fill: #ffffff"/>
   </g>
   <g id="matplotlib.axis_1">
    <g id="xtick_1">
     <g id="line2d_1">
      <defs>
       <path id="m6293d63ce7" d="M 0 0 
L 0 8 
" style="stroke: #000000; stroke-width: 1.5"/>
      </defs>
      <g>
       <use xlink:href="#m6293d63ce7" x="70.936364" y="288.36" style="stroke: #000000; stroke-width: 1.5"/>
      </g>
     </g>
     <g id="text_1">
      <!-- 7.0 -->
      <g transform="translate(61.394489 308.978125) scale(0.12 -0.12)">
       <defs>
        <path id="DejaVuSans-37" d="M 525 4666 
L 3525 4666 
L 3525 4397 
L 1831 0 
L 1172 0 
L 2766 4134 
L 525 4134 
L 525 4666 
z
" transform="scale(0.015625)"/>
        <path id="DejaVuSans-2e" d="M 684 794 
L 1344 794 
L 1344 0 
L 684 0 
L 684 794 
z
" transform="scale(0.015625)"/>
        <path id="DejaVuSans-30" d="M 2034 4250 
Q 1547 4250 1301 3770 
Q 1056 3291 1056 2328 
Q 1056 1369 1301 889 
Q 1547 409 2034 409 
Q 2525 409 2770 889 
Q 3016 1369 3016 2328 
Q 3016 3291 2770 3770 
Q 2525 4250 2034 4250 
z
M 2034 4750 
Q 2819 4750 3233 4129 
Q 3647 3509 3647 2328 
Q 3647 1150 3233 529 
Q 2819 -91 2034 -91 
Q 1250 -91 836 529 
Q 422 1150 422 2328 
Q 422 3509 836 4129 
Q 1250 4750 2034 4750 
z
" transform="scale(0.015625)"/>
       </defs>
       <use xlink:href="#DejaVuSans-37"/>
       <use xlink:href="#DejaVuSans-2e" x="63.623047"/>
       <use xlink:href="#DejaVuSans-30" x="95.410156"/>
      </g>
     </g>
    </g>
    <g id="xtick_2">
     <g id="line2d_2">
      <g>
       <use xlink:href="#m6293d63ce7" x="118.493182" y="288.36" style="stroke: #000000; stroke-width: 1.5"/>
      </g>
     </g>
     <g id="text_2">
      <!-- 7.5 -->
      <g transform="translate(108.951307 308.978125) scale(0.12 -0.12)">
       <defs>
        <path id="DejaVuSans-35" d="M 691 4666 
L 3169 4666 
L 3169 4134 
L 1269 4134 
L 1269 2991 
Q 1406 3038 1543 3061 
Q 1681 3084 1819 3084 
Q 2600 3084 3056 2656 
Q 3513 2228 3513 1497 
Q 3513 744 3044 326 
Q 2575 -91 1722 -91 
Q 1428 -91 1123 -41 
Q 819 9 494 109 
L 494 744 
Q 775 591 1075 516 
Q 1375 441 1709 441 
Q 2250 441 2565 725 
Q 2881 1009 2881 1497 
Q 2881 1984 2565 2268 
Q 2250 2553 1709 2553 
Q 1456 2553 1204 2497 
Q 953 2441 691 2322 
L 691 4666 
z
" transform="scale(0.015625)"/>
       </defs>
       <use xlink:href="#DejaVuSans-37"/>
       <use xlink:href="#DejaVuSans-2e" x="63.623047"/>
       <use xlink:href="#DejaVuSans-35" x="95.410156"/>
      </g>
     </g>
    </g>
    <g id="xtick_3">
     <g id="line2d_3">
      <g>
       <use xlink:href="#m6293d63ce7" x="166.05" y="288.36" style="stroke: #000000; stroke-width: 1.5"/>
      </g>
     </g>
     <g id="text_3">
      <!-- 8.0 -->
      <g transform="translate(156.508125 308.978125) scale(0.12 -0.12)">
       <defs>
        <path id="DejaVuSans-38" d="M 2034 2216 
Q 1584 2216 1326 1975 
Q 1069 1734 1069 1313 
Q 1069 891 1326 650 
Q 1584 409 2034 409 
Q 2484 409 2743 651 
Q 3003 894 3003 1313 
Q 3003 1734 2745 1975 
Q 2488 2216 2034 2216 
z
M 1403 2484 
Q 997 2584 770 2862 
Q 544 3141 544 3541 
Q 544 4100 942 4425 
Q 1341 4750 2034 4750 
Q 2731 4750 3128 4425 
Q 3525 4100 3525 3541 
Q 3525 3141 3298 2862 
Q 3072 2584 2669 2484 
Q 3125 2378 3379 2068 
Q 3634 1759 3634 1313 
Q 3634 634 3220 271 
Q 2806 -91 2034 -91 
Q 1263 -91 848 271 
Q 434 634 434 1313 
Q 434 1759 690 2068 
Q 947 2378 1403 2484 
z
M 1172 3481 
Q 1172 3119 1398 2916 
Q 1625 2713 2034 2713 
Q 2441 2713 2670 2916 
Q 2900 3119 2900 3481 
Q 2900 3844 2670 4047 
Q 2441 4250 2034 4250 
Q 1625 4250 1398 4047 
Q 1172 3844 1172 3481 
z
" transform="scale(0.015625)"/>
       </defs>
       <use xlink:href="#DejaVuSans-38"/>
       <use xlink:href="#DejaVuSans-2e" x="63.623047"/>
       <use xlink:href="#DejaVuSans-30" x="95.410156"/>
      </g>
     </g>
    </g>
    <g id="xtick_4">
     <g id="line2d_4">
      <g>
       <use xlink:href="#m6293d63ce7" x="213.606818" y="288.36" style="stroke: #000000; stroke-width: 1.5"/>
      </g>
     </g>
     <g id="text_4">
      <!-- 8.5 -->
      <g transform="translate(204.064943 308.978125) scale(0.12 -0.12)">
       <use xlink:href="#DejaVuSans-38"/>
       <use xlink:href="#DejaVuSans-2e" x="63.623047"/>
       <use xlink:href="#DejaVuSans-35" x="95.410156"/>
      </g>
     </g>
    </g>
    <g id="xtick_5">
     <g id="line2d_5">
      <g>
       <use xlink:href="#m6293d63ce7" x="261.163636" y="288.36" style="stroke: #000000; stroke-width: 1.5"/>
      </g>
     </g>
     <g id="text_5">
      <!-- 9.0 -->
      <g transform="translate(251.621761 308.978125) scale(0.12 -0.12)">
       <defs>
        <path id="DejaVuSans-39" d="M 703 97 
L 703 672 
Q 941 559 1184 500 
Q 1428 441 1663 441 
Q 2288 441 2617 861 
Q 2947 1281 2994 2138 
Q 2813 1869 2534 1725 
Q 2256 1581 1919 1581 
Q 1219 1581 811 2004 
Q 403 2428 403 3163 
Q 403 3881 828 4315 
Q 1253 4750 1959 4750 
Q 2769 4750 3195 4129 
Q 3622 3509 3622 2328 
Q 3622 1225 3098 567 
Q 2575 -91 1691 -91 
Q 1453 -91 1209 -44 
Q 966 3 703 97 
z
M 1959 2075 
Q 2384 2075 2632 2365 
Q 2881 2656 2881 3163 
Q 2881 3666 2632 3958 
Q 2384 4250 1959 4250 
Q 1534 4250 1286 3958 
Q 1038 3666 1038 3163 
Q 1038 2656 1286 2365 
Q 1534 2075 1959 2075 
z
" transform="scale(0.015625)"/>
       </defs>
       <use xlink:href="#DejaVuSans-39"/>
       <use xlink:href="#DejaVuSans-2e" x="63.623047"/>
       <use xlink:href="#DejaVuSans-30" x="95.410156"/>
      </g>
     </g>
    </g>
   </g>
   <g id="matplotlib.axis_2">
    <g id="ytick_1">
     <g id="line2d_6">
      <defs>
       <path id="m3415ffad56" d="M 0 0 
L -8 0 
" style="stroke: #000000; stroke-width: 1.5"/>
      </defs>
      <g>
       <use xlink:href="#m3415ffad56" x="40.5" y="288.36" style="stroke: #000000; stroke-width: 1.5"/>
      </g>
     </g>
     <g id="text_6">
      <!-- 0.3 -->
      <g transform="translate(9.91625 292.919062) scale(0.12 -0.12)">
       <defs>
        <path id="DejaVuSans-33" d="M 2597 2516 
Q 3050 2419 3304 2112 
Q 3559 1806 3559 1356 
Q 3559 666 3084 287 
Q 2609 -91 1734 -91 
Q 1441 -91 1130 -33 
Q 819 25 488 141 
L 488 750 
Q 750 597 1062 519 
Q 1375 441 1716 441 
Q 2309 441 2620 675 
Q 2931 909 2931 1356 
Q 2931 1769 2642 2001 
Q 2353 2234 1838 2234 
L 1294 2234 
L 1294 2753 
L 1863 2753 
Q 2328 2753 2575 2939 
Q 2822 3125 2822 3475 
Q 2822 3834 2567 4026 
Q 2313 4219 1838 4219 
Q 1578 4219 1281 4162 
Q 984 4106 628 3988 
L 628 4550 
Q 988 4650 1302 4700 
Q 1616 4750 1894 4750 
Q 2613 4750 3031 4423 
Q 3450 4097 3450 3541 
Q 3450 3153 3228 2886 
Q 3006 2619 2597 2516 
z
" transform="scale(0.015625)"/>
       </defs>
       <use xlink:href="#DejaVuSans-30"/>
       <use xlink:href="#DejaVuSans-2e" x="63.623047"/>
       <use xlink:href="#DejaVuSans-33" x="95.410156"/>
      </g>
     </g>
    </g>
    <g id="ytick_2">
     <g id="line2d_7">
      <g>
       <use xlink:href="#m3415ffad56" x="40.5" y="205.2" style="stroke: #000000; stroke-width: 1.5"/>
      </g>
     </g>
     <g id="text_7">
      <!-- 0.6 -->
      <g transform="translate(9.91625 209.759062) scale(0.12 -0.12)">
       <defs>
        <path id="DejaVuSans-36" d="M 2113 2584 
Q 1688 2584 1439 2293 
Q 1191 2003 1191 1497 
Q 1191 994 1439 701 
Q 1688 409 2113 409 
Q 2538 409 2786 701 
Q 3034 994 3034 1497 
Q 3034 2003 2786 2293 
Q 2538 2584 2113 2584 
z
M 3366 4563 
L 3366 3988 
Q 3128 4100 2886 4159 
Q 2644 4219 2406 4219 
Q 1781 4219 1451 3797 
Q 1122 3375 1075 2522 
Q 1259 2794 1537 2939 
Q 1816 3084 2150 3084 
Q 2853 3084 3261 2657 
Q 3669 2231 3669 1497 
Q 3669 778 3244 343 
Q 2819 -91 2113 -91 
Q 1303 -91 875 529 
Q 447 1150 447 2328 
Q 447 3434 972 4092 
Q 1497 4750 2381 4750 
Q 2619 4750 2861 4703 
Q 3103 4656 3366 4563 
z
" transform="scale(0.015625)"/>
       </defs>
       <use xlink:href="#DejaVuSans-30"/>
       <use xlink:href="#DejaVuSans-2e" x="63.623047"/>
       <use xlink:href="#DejaVuSans-36" x="95.410156"/>
      </g>
     </g>
    </g>
    <g id="ytick_3">
     <g id="line2d_8">
      <g>
       <use xlink:href="#m3415ffad56" x="40.5" y="122.04" style="stroke: #000000; stroke-width: 1.5"/>
      </g>
     </g>
     <g id="text_8">
      <!-- 0.9 -->
      <g transform="translate(9.91625 126.599062) scale(0.12 -0.12)">
       <use xlink:href="#DejaVuSans-30"/>
       <use xlink:href="#DejaVuSans-2e" x="63.623047"/>
       <use xlink:href="#DejaVuSans-39" x="95.410156"/>
      </g>
     </g>
    </g>
    <g id="ytick_4">
     <g id="line2d_9">
      <g>
       <use xlink:href="#m3415ffad56" x="40.5" y="38.88" style="stroke: #000000; stroke-width: 1.5"/>
      </g>
     </g>
     <g id="text_9">
      <!-- 1.2 -->
      <g transform="translate(9.91625 43.439062) scale(0.12 -0.12)">
       <defs>
        <path id="DejaVuSans-31" d="M 794 531 
L 1825 531 
L 1825 4091 
L 703 3866 
L 703 4441 
L 1819 4666 
L 2450 4666 
L 2450 531 
L 3481 531 
L 3481 0 
L 794 0 
L 794 531 
z
" transform="scale(0.015625)"/>
        <path id="DejaVuSans-32" d="M 1228 531 
L 3431 531 
L 3431 0 
L 469 0 
L 469 531 
Q 828 903 1448 1529 
Q 2069 2156 2228 2338 
Q 2531 2678 2651 2914 
Q 2772 3150 2772 3378 
Q 2772 3750 2511 3984 
Q 2250 4219 1831 4219 
Q 1534 4219 1204 4116 
Q 875 4013 500 3803 
L 500 4441 
Q 881 4594 1212 4672 
Q 1544 4750 1819 4750 
Q 2544 4750 2975 4387 
Q 3406 4025 3406 3419 
Q 3406 3131 3298 2873 
Q 3191 2616 2906 2266 
Q 2828 2175 2409 1742 
Q 1991 1309 1228 531 
z
" transform="scale(0.015625)"/>
       </defs>
       <use xlink:href="#DejaVuSans-31"/>
       <use xlink:href="#DejaVuSans-2e" x="63.623047"/>
       <use xlink:href="#DejaVuSans-32" x="95.410156"/>
      </g>
     </g>
    </g>
   </g>
   <g id="line2d_10">
    <path d="M 51.913636 178.620428 
L 70.936364 183.66485 
L 89.959091 193.205654 
L 108.981818 197.338948 
L 128.004545 204.704587 
L 147.027273 209.383893 
L 166.05 215.236828 
L 185.072727 220.20257 
L 204.095455 224.506065 
L 223.118182 229.763934 
L 242.140909 235.251564 
L 261.163636 238.136316 
L 280.186364 244.536726 
" clip-path="url(#pbb2503814d)" style="fill: none; stroke: #ff0000; stroke-width: 1.5; stroke-linecap: square"/>
   </g>
   <g id="LineCollection_1">
    <path d="M 51.913636 179.539667 
L 51.913636 177.701189 
" clip-path="url(#pbb2503814d)" style="fill: none; stroke: #ff0000; stroke-width: 2"/>
    <path d="M 70.936364 184.289505 
L 70.936364 183.040195 
" clip-path="url(#pbb2503814d)" style="fill: none; stroke: #ff0000; stroke-width: 2"/>
    <path d="M 89.959091 193.856909 
L 89.959091 192.5544 
" clip-path="url(#pbb2503814d)" style="fill: none; stroke: #ff0000; stroke-width: 2"/>
    <path d="M 108.981818 197.673257 
L 108.981818 197.004638 
" clip-path="url(#pbb2503814d)" style="fill: none; stroke: #ff0000; stroke-width: 2"/>
    <path d="M 128.004545 205.358296 
L 128.004545 204.050878 
" clip-path="url(#pbb2503814d)" style="fill: none; stroke: #ff0000; stroke-width: 2"/>
    <path d="M 147.027273 210.35717 
L 147.027273 208.410615 
" clip-path="url(#pbb2503814d)" style="fill: none; stroke: #ff0000; stroke-width: 2"/>
    <path d="M 166.05 215.825946 
L 166.05 214.64771 
" clip-path="url(#pbb2503814d)" style="fill: none; stroke: #ff0000; stroke-width: 2"/>
    <path d="M 185.072727 221.048784 
L 185.072727 219.356356 
" clip-path="url(#pbb2503814d)" style="fill: none; stroke: #ff0000; stroke-width: 2"/>
    <path d="M 204.095455 225.073147 
L 204.095455 223.938983 
" clip-path="url(#pbb2503814d)" style="fill: none; stroke: #ff0000; stroke-width: 2"/>
    <path d="M 223.118182 230.094516 
L 223.118182 229.433352 
" clip-path="url(#pbb2503814d)" style="fill: none; stroke: #ff0000; stroke-width: 2"/>
    <path d="M 242.140909 235.999058 
L 242.140909 234.50407 
" clip-path="url(#pbb2503814d)" style="fill: none; stroke: #ff0000; stroke-width: 2"/>
    <path d="M 261.163636 238.666129 
L 261.163636 237.606504 
" clip-path="url(#pbb2503814d)" style="fill: none; stroke: #ff0000; stroke-width: 2"/>
    <path d="M 280.186364 244.989585 
L 280.186364 244.083867 
" clip-path="url(#pbb2503814d)" style="fill: none; stroke: #ff0000; stroke-width: 2"/>
   </g>
   <g id="line2d_11">
    <defs>
     <path id="me63e1cac12" d="M 3 0 
L -3 -0 
" style="stroke: #ff0000; stroke-width: 2"/>
    </defs>
    <g clip-path="url(#pbb2503814d)">
     <use xlink:href="#me63e1cac12" x="51.913636" y="179.539667" style="fill: #ff0000; stroke: #ff0000; stroke-width: 2"/>
     <use xlink:href="#me63e1cac12" x="70.936364" y="184.289505" style="fill: #ff0000; stroke: #ff0000; stroke-width: 2"/>
     <use xlink:href="#me63e1cac12" x="89.959091" y="193.856909" style="fill: #ff0000; stroke: #ff0000; stroke-width: 2"/>
     <use xlink:href="#me63e1cac12" x="108.981818" y="197.673257" style="fill: #ff0000; stroke: #ff0000; stroke-width: 2"/>
     <use xlink:href="#me63e1cac12" x="128.004545" y="205.358296" style="fill: #ff0000; stroke: #ff0000; stroke-width: 2"/>
     <use xlink:href="#me63e1cac12" x="147.027273" y="210.35717" style="fill: #ff0000; stroke: #ff0000; stroke-width: 2"/>
     <use xlink:href="#me63e1cac12" x="166.05" y="215.825946" style="fill: #ff0000; stroke: #ff0000; stroke-width: 2"/>
     <use xlink:href="#me63e1cac12" x="185.072727" y="221.048784" style="fill: #ff0000; stroke: #ff0000; stroke-width: 2"/>
     <use xlink:href="#me63e1cac12" x="204.095455" y="225.073147" style="fill: #ff0000; stroke: #ff0000; stroke-width: 2"/>
     <use xlink:href="#me63e1cac12" x="223.118182" y="230.094516" style="fill: #ff0000; stroke: #ff0000; stroke-width: 2"/>
     <use xlink:href="#me63e1cac12" x="242.140909" y="235.999058" style="fill: #ff0000; stroke: #ff0000; stroke-width: 2"/>
     <use xlink:href="#me63e1cac12" x="261.163636" y="238.666129" style="fill: #ff0000; stroke: #ff0000; stroke-width: 2"/>
     <use xlink:href="#me63e1cac12" x="280.186364" y="244.989585" style="fill: #ff0000; stroke: #ff0000; stroke-width: 2"/>
    </g>
   </g>
   <g id="line2d_12">
    <g clip-path="url(#pbb2503814d)">
     <use xlink:href="#me63e1cac12" x="51.913636" y="177.701189" style="fill: #ff0000; stroke: #ff0000; stroke-width: 2"/>
     <use xlink:href="#me63e1cac12" x="70.936364" y="183.040195" style="fill: #ff0000; stroke: #ff0000; stroke-width: 2"/>
     <use xlink:href="#me63e1cac12" x="89.959091" y="192.5544" style="fill: #ff0000; stroke: #ff0000; stroke-width: 2"/>
     <use xlink:href="#me63e1cac12" x="108.981818" y="197.004638" style="fill: #ff0000; stroke: #ff0000; stroke-width: 2"/>
     <use xlink:href="#me63e1cac12" x="128.004545" y="204.050878" style="fill: #ff0000; stroke: #ff0000; stroke-width: 2"/>
     <use xlink:href="#me63e1cac12" x="147.027273" y="208.410615" style="fill: #ff0000; stroke: #ff0000; stroke-width: 2"/>
     <use xlink:href="#me63e1cac12" x="166.05" y="214.64771" style="fill: #ff0000; stroke: #ff0000; stroke-width: 2"/>
     <use xlink:href="#me63e1cac12" x="185.072727" y="219.356356" style="fill: #ff0000; stroke: #ff0000; stroke-width: 2"/>
     <use xlink:href="#me63e1cac12" x="204.095455" y="223.938983" style="fill: #ff0000; stroke: #ff0000; stroke-width: 2"/>
     <use xlink:href="#me63e1cac12" x="223.118182" y="229.433352" style="fill: #ff0000; stroke: #ff0000; stroke-width: 2"/>
     <use xlink:href="#me63e1cac12" x="242.140909" y="234.50407" style="fill: #ff0000; stroke: #ff0000; stroke-width: 2"/>
     <use xlink:href="#me63e1cac12" x="261.163636" y="237.606504" style="fill: #ff0000; stroke: #ff0000; stroke-width: 2"/>
     <use xlink:href="#me63e1cac12" x="280.186364" y="244.083867" style="fill: #ff0000; stroke: #ff0000; stroke-width: 2"/>
    </g>
   </g>
   <g id="line2d_13">
    <path d="M 51.913636 154.867405 
L 70.936364 168.765462 
L 89.959091 178.385814 
L 108.981818 187.872602 
L 128.004545 197.582577 
L 147.027273 205.049952 
L 166.05 214.444225 
L 185.072727 222.90518 
L 204.095455 230.268356 
L 223.118182 237.474772 
L 242.140909 243.690653 
L 261.163636 248.383511 
L 280.186364 255.855749 
" clip-path="url(#pbb2503814d)" style="fill: none; stroke: #000000; stroke-width: 1.5; stroke-linecap: square"/>
   </g>
   <g id="LineCollection_2">
    <path d="M 51.913636 155.846407 
L 51.913636 153.888404 
" clip-path="url(#pbb2503814d)" style="fill: none; stroke: #000000; stroke-width: 2"/>
    <path d="M 70.936364 169.939427 
L 70.936364 167.591496 
" clip-path="url(#pbb2503814d)" style="fill: none; stroke: #000000; stroke-width: 2"/>
    <path d="M 89.959091 178.626971 
L 89.959091 178.144658 
" clip-path="url(#pbb2503814d)" style="fill: none; stroke: #000000; stroke-width: 2"/>
    <path d="M 108.981818 188.526383 
L 108.981818 187.218821 
" clip-path="url(#pbb2503814d)" style="fill: none; stroke: #000000; stroke-width: 2"/>
    <path d="M 128.004545 198.100542 
L 128.004545 197.064613 
" clip-path="url(#pbb2503814d)" style="fill: none; stroke: #000000; stroke-width: 2"/>
    <path d="M 147.027273 205.774228 
L 147.027273 204.325676 
" clip-path="url(#pbb2503814d)" style="fill: none; stroke: #000000; stroke-width: 2"/>
    <path d="M 166.05 215.095337 
L 166.05 213.793114 
" clip-path="url(#pbb2503814d)" style="fill: none; stroke: #000000; stroke-width: 2"/>
    <path d="M 185.072727 223.499797 
L 185.072727 222.310562 
" clip-path="url(#pbb2503814d)" style="fill: none; stroke: #000000; stroke-width: 2"/>
    <path d="M 204.095455 230.797791 
L 204.095455 229.738921 
" clip-path="url(#pbb2503814d)" style="fill: none; stroke: #000000; stroke-width: 2"/>
    <path d="M 223.118182 237.669052 
L 223.118182 237.280492 
" clip-path="url(#pbb2503814d)" style="fill: none; stroke: #000000; stroke-width: 2"/>
    <path d="M 242.140909 244.242726 
L 242.140909 243.13858 
" clip-path="url(#pbb2503814d)" style="fill: none; stroke: #000000; stroke-width: 2"/>
    <path d="M 261.163636 248.383511 
L 261.163636 248.383511 
" clip-path="url(#pbb2503814d)" style="fill: none; stroke: #000000; stroke-width: 2"/>
    <path d="M 280.186364 256.38116 
L 280.186364 255.330337 
" clip-path="url(#pbb2503814d)" style="fill: none; stroke: #000000; stroke-width: 2"/>
   </g>
   <g id="line2d_14">
    <defs>
     <path id="m54ef416157" d="M 3 0 
L -3 -0 
" style="stroke: #000000; stroke-width: 2"/>
    </defs>
    <g clip-path="url(#pbb2503814d)">
     <use xlink:href="#m54ef416157" x="51.913636" y="155.846407" style="stroke: #000000; stroke-width: 2"/>
     <use xlink:href="#m54ef416157" x="70.936364" y="169.939427" style="stroke: #000000; stroke-width: 2"/>
     <use xlink:href="#m54ef416157" x="89.959091" y="178.626971" style="stroke: #000000; stroke-width: 2"/>
     <use xlink:href="#m54ef416157" x="108.981818" y="188.526383" style="stroke: #000000; stroke-width: 2"/>
     <use xlink:href="#m54ef416157" x="128.004545" y="198.100542" style="stroke: #000000; stroke-width: 2"/>
     <use xlink:href="#m54ef416157" x="147.027273" y="205.774228" style="stroke: #000000; stroke-width: 2"/>
     <use xlink:href="#m54ef416157" x="166.05" y="215.095337" style="stroke: #000000; stroke-width: 2"/>
     <use xlink:href="#m54ef416157" x="185.072727" y="223.499797" style="stroke: #000000; stroke-width: 2"/>
     <use xlink:href="#m54ef416157" x="204.095455" y="230.797791" style="stroke: #000000; stroke-width: 2"/>
     <use xlink:href="#m54ef416157" x="223.118182" y="237.669052" style="stroke: #000000; stroke-width: 2"/>
     <use xlink:href="#m54ef416157" x="242.140909" y="244.242726" style="stroke: #000000; stroke-width: 2"/>
     <use xlink:href="#m54ef416157" x="261.163636" y="248.383511" style="stroke: #000000; stroke-width: 2"/>
     <use xlink:href="#m54ef416157" x="280.186364" y="256.38116" style="stroke: #000000; stroke-width: 2"/>
    </g>
   </g>
   <g id="line2d_15">
    <g clip-path="url(#pbb2503814d)">
     <use xlink:href="#m54ef416157" x="51.913636" y="153.888404" style="stroke: #000000; stroke-width: 2"/>
     <use xlink:href="#m54ef416157" x="70.936364" y="167.591496" style="stroke: #000000; stroke-width: 2"/>
     <use xlink:href="#m54ef416157" x="89.959091" y="178.144658" style="stroke: #000000; stroke-width: 2"/>
     <use xlink:href="#m54ef416157" x="108.981818" y="187.218821" style="stroke: #000000; stroke-width: 2"/>
     <use xlink:href="#m54ef416157" x="128.004545" y="197.064613" style="stroke: #000000; stroke-width: 2"/>
     <use xlink:href="#m54ef416157" x="147.027273" y="204.325676" style="stroke: #000000; stroke-width: 2"/>
     <use xlink:href="#m54ef416157" x="166.05" y="213.793114" style="stroke: #000000; stroke-width: 2"/>
     <use xlink:href="#m54ef416157" x="185.072727" y="222.310562" style="stroke: #000000; stroke-width: 2"/>
     <use xlink:href="#m54ef416157" x="204.095455" y="229.738921" style="stroke: #000000; stroke-width: 2"/>
     <use xlink:href="#m54ef416157" x="223.118182" y="237.280492" style="stroke: #000000; stroke-width: 2"/>
     <use xlink:href="#m54ef416157" x="242.140909" y="243.13858" style="stroke: #000000; stroke-width: 2"/>
     <use xlink:href="#m54ef416157" x="261.163636" y="248.383511" style="stroke: #000000; stroke-width: 2"/>
     <use xlink:href="#m54ef416157" x="280.186364" y="255.330337" style="stroke: #000000; stroke-width: 2"/>
    </g>
   </g>
   <g id="line2d_16">
    <path d="M 51.913636 133.675608 
L 70.936364 150.291354 
L 89.959091 164.656548 
L 108.981818 177.345201 
L 128.004545 191.240106 
L 147.027273 201.974033 
L 166.05 212.97079 
L 185.072727 224.437791 
L 204.095455 232.386539 
L 223.118182 242.996023 
L 242.140909 250.478927 
L 261.163636 256.905609 
L 280.186364 264.367106 
" clip-path="url(#pbb2503814d)" style="fill: none; stroke: #0000ff; stroke-width: 1.5; stroke-linecap: square"/>
   </g>
   <g id="LineCollection_3">
    <path d="M 51.913636 133.941121 
L 51.913636 133.410094 
" clip-path="url(#pbb2503814d)" style="fill: none; stroke: #0000ff; stroke-width: 2"/>
    <path d="M 70.936364 150.887254 
L 70.936364 149.695453 
" clip-path="url(#pbb2503814d)" style="fill: none; stroke: #0000ff; stroke-width: 2"/>
    <path d="M 89.959091 165.347341 
L 89.959091 163.965756 
" clip-path="url(#pbb2503814d)" style="fill: none; stroke: #0000ff; stroke-width: 2"/>
    <path d="M 108.981818 178.06416 
L 108.981818 176.626242 
" clip-path="url(#pbb2503814d)" style="fill: none; stroke: #0000ff; stroke-width: 2"/>
    <path d="M 128.004545 192.033984 
L 128.004545 190.446228 
" clip-path="url(#pbb2503814d)" style="fill: none; stroke: #0000ff; stroke-width: 2"/>
    <path d="M 147.027273 202.417222 
L 147.027273 201.530844 
" clip-path="url(#pbb2503814d)" style="fill: none; stroke: #0000ff; stroke-width: 2"/>
    <path d="M 166.05 214.034909 
L 166.05 211.906672 
" clip-path="url(#pbb2503814d)" style="fill: none; stroke: #0000ff; stroke-width: 2"/>
    <path d="M 185.072727 225.416257 
L 185.072727 223.459326 
" clip-path="url(#pbb2503814d)" style="fill: none; stroke: #0000ff; stroke-width: 2"/>
    <path d="M 204.095455 232.449776 
L 204.095455 232.323301 
" clip-path="url(#pbb2503814d)" style="fill: none; stroke: #0000ff; stroke-width: 2"/>
    <path d="M 223.118182 243.281794 
L 223.118182 242.710251 
" clip-path="url(#pbb2503814d)" style="fill: none; stroke: #0000ff; stroke-width: 2"/>
    <path d="M 242.140909 250.718411 
L 242.140909 250.239442 
" clip-path="url(#pbb2503814d)" style="fill: none; stroke: #0000ff; stroke-width: 2"/>
    <path d="M 261.163636 257.305805 
L 261.163636 256.505414 
" clip-path="url(#pbb2503814d)" style="fill: none; stroke: #0000ff; stroke-width: 2"/>
    <path d="M 280.186364 264.476783 
L 280.186364 264.257428 
" clip-path="url(#pbb2503814d)" style="fill: none; stroke: #0000ff; stroke-width: 2"/>
   </g>
   <g id="line2d_17">
    <defs>
     <path id="mf7622f4266" d="M 3 0 
L -3 -0 
" style="stroke: #0000ff; stroke-width: 2"/>
    </defs>
    <g clip-path="url(#pbb2503814d)">
     <use xlink:href="#mf7622f4266" x="51.913636" y="133.941121" style="fill: #0000ff; stroke: #0000ff; stroke-width: 2"/>
     <use xlink:href="#mf7622f4266" x="70.936364" y="150.887254" style="fill: #0000ff; stroke: #0000ff; stroke-width: 2"/>
     <use xlink:href="#mf7622f4266" x="89.959091" y="165.347341" style="fill: #0000ff; stroke: #0000ff; stroke-width: 2"/>
     <use xlink:href="#mf7622f4266" x="108.981818" y="178.06416" style="fill: #0000ff; stroke: #0000ff; stroke-width: 2"/>
     <use xlink:href="#mf7622f4266" x="128.004545" y="192.033984" style="fill: #0000ff; stroke: #0000ff; stroke-width: 2"/>
     <use xlink:href="#mf7622f4266" x="147.027273" y="202.417222" style="fill: #0000ff; stroke: #0000ff; stroke-width: 2"/>
     <use xlink:href="#mf7622f4266" x="166.05" y="214.034909" style="fill: #0000ff; stroke: #0000ff; stroke-width: 2"/>
     <use xlink:href="#mf7622f4266" x="185.072727" y="225.416257" style="fill: #0000ff; stroke: #0000ff; stroke-width: 2"/>
     <use xlink:href="#mf7622f4266" x="204.095455" y="232.449776" style="fill: #0000ff; stroke: #0000ff; stroke-width: 2"/>
     <use xlink:href="#mf7622f4266" x="223.118182" y="243.281794" style="fill: #0000ff; stroke: #0000ff; stroke-width: 2"/>
     <use xlink:href="#mf7622f4266" x="242.140909" y="250.718411" style="fill: #0000ff; stroke: #0000ff; stroke-width: 2"/>
     <use xlink:href="#mf7622f4266" x="261.163636" y="257.305805" style="fill: #0000ff; stroke: #0000ff; stroke-width: 2"/>
     <use xlink:href="#mf7622f4266" x="280.186364" y="264.476783" style="fill: #0000ff; stroke: #0000ff; stroke-width: 2"/>
    </g>
   </g>
   <g id="line2d_18">
    <g clip-path="url(#pbb2503814d)">
     <use xlink:href="#mf7622f4266" x="51.913636" y="133.410094" style="fill: #0000ff; stroke: #0000ff; stroke-width: 2"/>
     <use xlink:href="#mf7622f4266" x="70.936364" y="149.695453" style="fill: #0000ff; stroke: #0000ff; stroke-width: 2"/>
     <use xlink:href="#mf7622f4266" x="89.959091" y="163.965756" style="fill: #0000ff; stroke: #0000ff; stroke-width: 2"/>
     <use xlink:href="#mf7622f4266" x="108.981818" y="176.626242" style="fill: #0000ff; stroke: #0000ff; stroke-width: 2"/>
     <use xlink:href="#mf7622f4266" x="128.004545" y="190.446228" style="fill: #0000ff; stroke: #0000ff; stroke-width: 2"/>
     <use xlink:href="#mf7622f4266" x="147.027273" y="201.530844" style="fill: #0000ff; stroke: #0000ff; stroke-width: 2"/>
     <use xlink:href="#mf7622f4266" x="166.05" y="211.906672" style="fill: #0000ff; stroke: #0000ff; stroke-width: 2"/>
     <use xlink:href="#mf7622f4266" x="185.072727" y="223.459326" style="fill: #0000ff; stroke: #0000ff; stroke-width: 2"/>
     <use xlink:href="#mf7622f4266" x="204.095455" y="232.323301" style="fill: #0000ff; stroke: #0000ff; stroke-width: 2"/>
     <use xlink:href="#mf7622f4266" x="223.118182" y="242.710251" style="fill: #0000ff; stroke: #0000ff; stroke-width: 2"/>
     <use xlink:href="#mf7622f4266" x="242.140909" y="250.239442" style="fill: #0000ff; stroke: #0000ff; stroke-width: 2"/>
     <use xlink:href="#mf7622f4266" x="261.163636" y="256.505414" style="fill: #0000ff; stroke: #0000ff; stroke-width: 2"/>
     <use xlink:href="#mf7622f4266" x="280.186364" y="264.257428" style="fill: #0000ff; stroke: #0000ff; stroke-width: 2"/>
    </g>
   </g>
   <g id="line2d_19">
    <path d="M 51.913636 115.839766 
L 70.936364 136.81744 
L 89.959091 152.874739 
L 108.981818 171.21345 
L 128.004545 184.743681 
L 147.027273 200.538958 
L 166.05 213.805252 
L 185.072727 225.028816 
L 204.095455 236.430711 
L 223.118182 246.478093 
L 242.140909 255.68582 
L 261.163636 263.67438 
L 280.186364 271.702622 
" clip-path="url(#pbb2503814d)" style="fill: none; stroke: #bf00bf; stroke-width: 1.5; stroke-linecap: square"/>
   </g>
   <g id="LineCollection_4">
    <path d="M 51.913636 116.64472 
L 51.913636 115.034812 
" clip-path="url(#pbb2503814d)" style="fill: none; stroke: #bf00bf; stroke-width: 2"/>
    <path d="M 70.936364 137.911395 
L 70.936364 135.723485 
" clip-path="url(#pbb2503814d)" style="fill: none; stroke: #bf00bf; stroke-width: 2"/>
    <path d="M 89.959091 153.845563 
L 89.959091 151.903916 
" clip-path="url(#pbb2503814d)" style="fill: none; stroke: #bf00bf; stroke-width: 2"/>
    <path d="M 108.981818 171.495748 
L 108.981818 170.931152 
" clip-path="url(#pbb2503814d)" style="fill: none; stroke: #bf00bf; stroke-width: 2"/>
    <path d="M 128.004545 185.102309 
L 128.004545 184.385053 
" clip-path="url(#pbb2503814d)" style="fill: none; stroke: #bf00bf; stroke-width: 2"/>
    <path d="M 147.027273 200.942941 
L 147.027273 200.134975 
" clip-path="url(#pbb2503814d)" style="fill: none; stroke: #bf00bf; stroke-width: 2"/>
    <path d="M 166.05 214.792692 
L 166.05 212.817812 
" clip-path="url(#pbb2503814d)" style="fill: none; stroke: #bf00bf; stroke-width: 2"/>
    <path d="M 185.072727 225.528711 
L 185.072727 224.528921 
" clip-path="url(#pbb2503814d)" style="fill: none; stroke: #bf00bf; stroke-width: 2"/>
    <path d="M 204.095455 236.761882 
L 204.095455 236.09954 
" clip-path="url(#pbb2503814d)" style="fill: none; stroke: #bf00bf; stroke-width: 2"/>
    <path d="M 223.118182 246.870872 
L 223.118182 246.085313 
" clip-path="url(#pbb2503814d)" style="fill: none; stroke: #bf00bf; stroke-width: 2"/>
    <path d="M 242.140909 256.004066 
L 242.140909 255.367573 
" clip-path="url(#pbb2503814d)" style="fill: none; stroke: #bf00bf; stroke-width: 2"/>
    <path d="M 261.163636 263.994494 
L 261.163636 263.354265 
" clip-path="url(#pbb2503814d)" style="fill: none; stroke: #bf00bf; stroke-width: 2"/>
    <path d="M 280.186364 272.025557 
L 280.186364 271.379686 
" clip-path="url(#pbb2503814d)" style="fill: none; stroke: #bf00bf; stroke-width: 2"/>
   </g>
   <g id="line2d_20">
    <defs>
     <path id="ma0dd127518" d="M 3 0 
L -3 -0 
" style="stroke: #bf00bf; stroke-width: 2"/>
    </defs>
    <g clip-path="url(#pbb2503814d)">
     <use xlink:href="#ma0dd127518" x="51.913636" y="116.64472" style="fill: #bf00bf; stroke: #bf00bf; stroke-width: 2"/>
     <use xlink:href="#ma0dd127518" x="70.936364" y="137.911395" style="fill: #bf00bf; stroke: #bf00bf; stroke-width: 2"/>
     <use xlink:href="#ma0dd127518" x="89.959091" y="153.845563" style="fill: #bf00bf; stroke: #bf00bf; stroke-width: 2"/>
     <use xlink:href="#ma0dd127518" x="108.981818" y="171.495748" style="fill: #bf00bf; stroke: #bf00bf; stroke-width: 2"/>
     <use xlink:href="#ma0dd127518" x="128.004545" y="185.102309" style="fill: #bf00bf; stroke: #bf00bf; stroke-width: 2"/>
     <use xlink:href="#ma0dd127518" x="147.027273" y="200.942941" style="fill: #bf00bf; stroke: #bf00bf; stroke-width: 2"/>
     <use xlink:href="#ma0dd127518" x="166.05" y="214.792692" style="fill: #bf00bf; stroke: #bf00bf; stroke-width: 2"/>
     <use xlink:href="#ma0dd127518" x="185.072727" y="225.528711" style="fill: #bf00bf; stroke: #bf00bf; stroke-width: 2"/>
     <use xlink:href="#ma0dd127518" x="204.095455" y="236.761882" style="fill: #bf00bf; stroke: #bf00bf; stroke-width: 2"/>
     <use xlink:href="#ma0dd127518" x="223.118182" y="246.870872" style="fill: #bf00bf; stroke: #bf00bf; stroke-width: 2"/>
     <use xlink:href="#ma0dd127518" x="242.140909" y="256.004066" style="fill: #bf00bf; stroke: #bf00bf; stroke-width: 2"/>
     <use xlink:href="#ma0dd127518" x="261.163636" y="263.994494" style="fill: #bf00bf; stroke: #bf00bf; stroke-width: 2"/>
     <use xlink:href="#ma0dd127518" x="280.186364" y="272.025557" style="fill: #bf00bf; stroke: #bf00bf; stroke-width: 2"/>
    </g>
   </g>
   <g id="line2d_21">
    <g clip-path="url(#pbb2503814d)">
     <use xlink:href="#ma0dd127518" x="51.913636" y="115.034812" style="fill: #bf00bf; stroke: #bf00bf; stroke-width: 2"/>
     <use xlink:href="#ma0dd127518" x="70.936364" y="135.723485" style="fill: #bf00bf; stroke: #bf00bf; stroke-width: 2"/>
     <use xlink:href="#ma0dd127518" x="89.959091" y="151.903916" style="fill: #bf00bf; stroke: #bf00bf; stroke-width: 2"/>
     <use xlink:href="#ma0dd127518" x="108.981818" y="170.931152" style="fill: #bf00bf; stroke: #bf00bf; stroke-width: 2"/>
     <use xlink:href="#ma0dd127518" x="128.004545" y="184.385053" style="fill: #bf00bf; stroke: #bf00bf; stroke-width: 2"/>
     <use xlink:href="#ma0dd127518" x="147.027273" y="200.134975" style="fill: #bf00bf; stroke: #bf00bf; stroke-width: 2"/>
     <use xlink:href="#ma0dd127518" x="166.05" y="212.817812" style="fill: #bf00bf; stroke: #bf00bf; stroke-width: 2"/>
     <use xlink:href="#ma0dd127518" x="185.072727" y="224.528921" style="fill: #bf00bf; stroke: #bf00bf; stroke-width: 2"/>
     <use xlink:href="#ma0dd127518" x="204.095455" y="236.09954" style="fill: #bf00bf; stroke: #bf00bf; stroke-width: 2"/>
     <use xlink:href="#ma0dd127518" x="223.118182" y="246.085313" style="fill: #bf00bf; stroke: #bf00bf; stroke-width: 2"/>
     <use xlink:href="#ma0dd127518" x="242.140909" y="255.367573" style="fill: #bf00bf; stroke: #bf00bf; stroke-width: 2"/>
     <use xlink:href="#ma0dd127518" x="261.163636" y="263.354265" style="fill: #bf00bf; stroke: #bf00bf; stroke-width: 2"/>
     <use xlink:href="#ma0dd127518" x="280.186364" y="271.379686" style="fill: #bf00bf; stroke: #bf00bf; stroke-width: 2"/>
    </g>
   </g>
   <g id="line2d_22">
    <path d="M 51.913636 178.620428 
L 70.936364 183.66485 
L 89.959091 193.205654 
L 108.981818 197.338948 
L 128.004545 204.704587 
L 147.027273 209.383893 
L 166.05 215.236828 
L 185.072727 220.20257 
L 204.095455 224.506065 
L 223.118182 229.763934 
L 242.140909 235.251564 
L 261.163636 238.136316 
L 280.186364 244.536726 
" clip-path="url(#pbb2503814d)" style="fill: none; stroke: #ff0000; stroke-width: 1.5; stroke-linecap: square"/>
   </g>
   <g id="line2d_23">
    <path d="M 51.913636 154.867405 
L 70.936364 168.765462 
L 89.959091 178.385814 
L 108.981818 187.872602 
L 128.004545 197.582577 
L 147.027273 205.049952 
L 166.05 214.444225 
L 185.072727 222.90518 
L 204.095455 230.268356 
L 223.118182 237.474772 
L 242.140909 243.690653 
L 261.163636 248.383511 
L 280.186364 255.855749 
" clip-path="url(#pbb2503814d)" style="fill: none; stroke: #000000; stroke-width: 1.5; stroke-linecap: square"/>
   </g>
   <g id="line2d_24">
    <path d="M 51.913636 133.675608 
L 70.936364 150.291354 
L 89.959091 164.656548 
L 108.981818 177.345201 
L 128.004545 191.240106 
L 147.027273 201.974033 
L 166.05 212.97079 
L 185.072727 224.437791 
L 204.095455 232.386539 
L 223.118182 242.996023 
L 242.140909 250.478927 
L 261.163636 256.905609 
L 280.186364 264.367106 
" clip-path="url(#pbb2503814d)" style="fill: none; stroke: #0000ff; stroke-width: 1.5; stroke-linecap: square"/>
   </g>
   <g id="line2d_25">
    <path d="M 51.913636 115.839766 
L 70.936364 136.81744 
L 89.959091 152.874739 
L 108.981818 171.21345 
L 128.004545 184.743681 
L 147.027273 200.538958 
L 166.05 213.805252 
L 185.072727 225.028816 
L 204.095455 236.430711 
L 223.118182 246.478093 
L 242.140909 255.68582 
L 261.163636 263.67438 
L 280.186364 271.702622 
" clip-path="url(#pbb2503814d)" style="fill: none; stroke: #bf00bf; stroke-width: 1.5; stroke-linecap: square"/>
   </g>
   <g id="patch_3">
    <path d="M 40.5 288.36 
L 40.5 38.88 
" style="fill: none; stroke: #000000; stroke-width: 1.6; stroke-linejoin: miter; stroke-linecap: square"/>
   </g>
   <g id="patch_4">
    <path d="M 291.6 288.36 
L 291.6 38.88 
" style="fill: none; stroke: #000000; stroke-width: 1.6; stroke-linejoin: miter; stroke-linecap: square"/>
   </g>
   <g id="patch_5">
    <path d="M 40.5 288.36 
L 291.6 288.36 
" style="fill: none; stroke: #000000; stroke-width: 1.6; stroke-linejoin: miter; stroke-linecap: square"/>
   </g>
   <g id="patch_6">
    <path d="M 40.5 38.88 
L 291.6 38.88 
" style="fill: none; stroke: #000000; stroke-width: 1.6; stroke-linejoin: miter; stroke-linecap: square"/>
   </g>
   <g id="legend_1">
    <g id="patch_7">
     <path d="M 209.120625 118.935 
L 283.2 118.935 
Q 285.6 118.935 285.6 116.535 
L 285.6 47.28 
Q 285.6 44.88 283.2 44.88 
L 209.120625 44.88 
Q 206.720625 44.88 206.720625 47.28 
L 206.720625 116.535 
Q 206.720625 118.935 209.120625 118.935 
z
" style="fill: #ffffff; opacity: 0.8"/>
    </g>
    <g id="line2d_26">
     <path d="M 211.520625 54.598125 
L 223.520625 54.598125 
L 235.520625 54.598125 
" style="fill: none; stroke: #ff0000; stroke-width: 1.5; stroke-linecap: square"/>
    </g>
    <g id="text_10">
     <!-- M=4 -->
     <g transform="translate(245.120625 58.798125) scale(0.12 -0.12)">
      <defs>
       <path id="DejaVuSans-4d" d="M 628 4666 
L 1569 4666 
L 2759 1491 
L 3956 4666 
L 4897 4666 
L 4897 0 
L 4281 0 
L 4281 4097 
L 3078 897 
L 2444 897 
L 1241 4097 
L 1241 0 
L 628 0 
L 628 4666 
z
" transform="scale(0.015625)"/>
       <path id="DejaVuSans-3d" d="M 678 2906 
L 4684 2906 
L 4684 2381 
L 678 2381 
L 678 2906 
z
M 678 1631 
L 4684 1631 
L 4684 1100 
L 678 1100 
L 678 1631 
z
" transform="scale(0.015625)"/>
       <path id="DejaVuSans-34" d="M 2419 4116 
L 825 1625 
L 2419 1625 
L 2419 4116 
z
M 2253 4666 
L 3047 4666 
L 3047 1625 
L 3713 1625 
L 3713 1100 
L 3047 1100 
L 3047 0 
L 2419 0 
L 2419 1100 
L 313 1100 
L 313 1709 
L 2253 4666 
z
" transform="scale(0.015625)"/>
      </defs>
      <use xlink:href="#DejaVuSans-4d"/>
      <use xlink:href="#DejaVuSans-3d" x="86.279297"/>
      <use xlink:href="#DejaVuSans-34" x="170.068359"/>
     </g>
    </g>
    <g id="line2d_27">
     <path d="M 211.520625 72.211875 
L 223.520625 72.211875 
L 235.520625 72.211875 
" style="fill: none; stroke: #000000; stroke-width: 1.5; stroke-linecap: square"/>
    </g>
    <g id="text_11">
     <!-- M=8 -->
     <g transform="translate(245.120625 76.411875) scale(0.12 -0.12)">
      <use xlink:href="#DejaVuSans-4d"/>
      <use xlink:href="#DejaVuSans-3d" x="86.279297"/>
      <use xlink:href="#DejaVuSans-38" x="170.068359"/>
     </g>
    </g>
    <g id="line2d_28">
     <path d="M 211.520625 89.825625 
L 223.520625 89.825625 
L 235.520625 89.825625 
" style="fill: none; stroke: #0000ff; stroke-width: 1.5; stroke-linecap: square"/>
    </g>
    <g id="text_12">
     <!-- M=12 -->
     <g transform="translate(245.120625 94.025625) scale(0.12 -0.12)">
      <use xlink:href="#DejaVuSans-4d"/>
      <use xlink:href="#DejaVuSans-3d" x="86.279297"/>
      <use xlink:href="#DejaVuSans-31" x="170.068359"/>
      <use xlink:href="#DejaVuSans-32" x="233.691406"/>
     </g>
    </g>
    <g id="line2d_29">
     <path d="M 211.520625 107.439375 
L 223.520625 107.439375 
L 235.520625 107.439375 
" style="fill: none; stroke: #bf00bf; stroke-width: 1.5; stroke-linecap: square"/>
    </g>
    <g id="text_13">
     <!-- M=16 -->
     <g transform="translate(245.120625 111.639375) scale(0.12 -0.12)">
      <use xlink:href="#DejaVuSans-4d"/>
      <use xlink:href="#DejaVuSans-3d" x="86.279297"/>
      <use xlink:href="#DejaVuSans-31" x="170.068359"/>
      <use xlink:href="#DejaVuSans-36" x="233.691406"/>
     </g>
    </g>
   </g>
  </g>
 </g>
 <defs>
  <clipPath id="pbb2503814d">
   <rect x="40.5" y="38.88" width="251.1" height="249.48"/>
  </clipPath>
 </defs>
</svg>
