<?xml version="1.0" encoding="utf-8" standalone="no"?>
<!DOCTYPE svg PUBLIC "-//W3C//DTD SVG 1.1//EN"
  "http://www.w3.org/Graphics/SVG/1.1/DTD/svg11.dtd">
<svg xmlns:xlink="http://www.w3.org/1999/xlink" width="324pt" height="324pt" viewBox="0 0 324 324" xmlns="http://www.w3.org/2000/svg" version="1.1">
 <metadata>
  <rdf:RDF xmlns:dc="http://purl.org/dc/elements/1.1/" xmlns:cc="http://creativecommons.org/ns#" xmlns:rdf="http://www.w3.org/1999/02/22-rdf-syntax-ns#">
   <cc:Work>
    <dc:type rdf:resource="http://purl.org/dc/dcmitype/StillImage"/>
    <dc:date>2026-01-11T17:03:38.319544</dc:date>
    <dc:format>image/svg+xml</dc:format>
    <dc:creator>
     <cc:Agent>
      <dc:title>Matplotlib v3.8.0, https://matplotlib.org/</dc:title>
     </cc:Agent>
    </dc:creator>
   </cc:Work>
  </rdf:RDF>
 </metadata>
 <defs>
  <style type="text/css">*{stroke-linejoin: round; stroke-linecap: butt}</style>
 </defs>
 <g id="figure_1">
  <g id="patch_1">
   <path d="M 0 324 
L 324 324 
L 324 0 
L 0 0 
z
" style="fill: #ffffff"/>
  </g>
  <g id="axes_1">
   <g id="patch_2">
    <path d="M 40.5 288.36 
L 291.6 288.36 
L 291.6 38.88 
L 40.5 38.88 
z
" style="fill: #ffffff"/>
   </g>
   <g id="matplotlib.axis_1">
    <g id="xtick_1">
     <g id="line2d_1">
      <defs>
       <path id="mcc653538a6" d="M 0 0 
L 0 8 
" style="stroke: #000000; stroke-width: 1.5"/>
      </defs>
      <g>
       <use xlink:href="#mcc653538a6" x="100.829221" y="288.36" style="stroke: #000000; stroke-width: 1.5"/>
      </g>
     </g>
     <g id="text_1">
      <!-- 6 -->
      <g transform="translate(97.011721 308.978125) scale(0.12 -0.12)">
       <defs>
        <path id="DejaVuSans-36" d="M 2113 2584 
Q 1688 2584 1439 2293 
Q 1191 2003 1191 1497 
Q 1191 994 1439 701 
Q 1688 409 2113 409 
Q 2538 409 2786 701 
Q 3034 994 3034 1497 
Q 3034 2003 2786 2293 
Q 2538 2584 2113 2584 
z
M 3366 4563 
L 3366 3988 
Q 3128 4100 2886 4159 
Q 2644 4219 2406 4219 
Q 1781 4219 1451 3797 
Q 1122 3375 1075 2522 
Q 1259 2794 1537 2939 
Q 1816 3084 2150 3084 
Q 2853 3084 3261 2657 
Q 3669 2231 3669 1497 
Q 3669 778 3244 343 
Q 2819 -91 2113 -91 
Q 1303 -91 875 529 
Q 447 1150 447 2328 
Q 447 3434 972 4092 
Q 1497 4750 2381 4750 
Q 2619 4750 2861 4703 
Q 3103 4656 3366 4563 
z
" transform="scale(0.015625)"/>
       </defs>
       <use xlink:href="#DejaVuSans-36"/>
      </g>
     </g>
    </g>
    <g id="xtick_2">
     <g id="line2d_2">
      <g>
       <use xlink:href="#mcc653538a6" x="182.355195" y="288.36" style="stroke: #000000; stroke-width: 1.5"/>
      </g>
     </g>
     <g id="text_2">
      <!-- 7 -->
      <g transform="translate(178.537695 308.978125) scale(0.12 -0.12)">
       <defs>
        <path id="DejaVuSans-37" d="M 525 4666 
L 3525 4666 
L 3525 4397 
L 1831 0 
L 1172 0 
L 2766 4134 
L 525 4134 
L 525 4666 
z
" transform="scale(0.015625)"/>
       </defs>
       <use xlink:href="#DejaVuSans-37"/>
      </g>
     </g>
    </g>
    <g id="xtick_3">
     <g id="line2d_3">
      <g>
       <use xlink:href="#mcc653538a6" x="263.881169" y="288.36" style="stroke: #000000; stroke-width: 1.5"/>
      </g>
     </g>
     <g id="text_3">
      <!-- 8 -->
      <g transform="translate(260.063669 308.978125) scale(0.12 -0.12)">
       <defs>
        <path id="DejaVuSans-38" d="M 2034 2216 
Q 1584 2216 1326 1975 
Q 1069 1734 1069 1313 
Q 1069 891 1326 650 
Q 1584 409 2034 409 
Q 2484 409 2743 651 
Q 3003 894 3003 1313 
Q 3003 1734 2745 1975 
Q 2488 2216 2034 2216 
z
M 1403 2484 
Q 997 2584 770 2862 
Q 544 3141 544 3541 
Q 544 4100 942 4425 
Q 1341 4750 2034 4750 
Q 2731 4750 3128 4425 
Q 3525 4100 3525 3541 
Q 3525 3141 3298 2862 
Q 3072 2584 2669 2484 
Q 3125 2378 3379 2068 
Q 3634 1759 3634 1313 
Q 3634 634 3220 271 
Q 2806 -91 2034 -91 
Q 1263 -91 848 271 
Q 434 634 434 1313 
Q 434 1759 690 2068 
Q 947 2378 1403 2484 
z
M 1172 3481 
Q 1172 3119 1398 2916 
Q 1625 2713 2034 2713 
Q 2441 2713 2670 2916 
Q 2900 3119 2900 3481 
Q 2900 3844 2670 4047 
Q 2441 4250 2034 4250 
Q 1625 4250 1398 4047 
Q 1172 3844 1172 3481 
z
" transform="scale(0.015625)"/>
       </defs>
       <use xlink:href="#DejaVuSans-38"/>
      </g>
     </g>
    </g>
   </g>
   <g id="matplotlib.axis_2">
    <g id="ytick_1">
     <g id="line2d_4">
      <defs>
       <path id="mdff8a79325" d="M 0 0 
L -8 0 
" style="stroke: #000000; stroke-width: 1.5"/>
      </defs>
      <g>
       <use xlink:href="#mdff8a79325" x="40.5" y="280.547745" style="stroke: #000000; stroke-width: 1.5"/>
      </g>
     </g>
     <g id="text_4">
      <!-- 0 -->
      <g transform="translate(21.365 285.106807) scale(0.12 -0.12)">
       <defs>
        <path id="DejaVuSans-30" d="M 2034 4250 
Q 1547 4250 1301 3770 
Q 1056 3291 1056 2328 
Q 1056 1369 1301 889 
Q 1547 409 2034 409 
Q 2525 409 2770 889 
Q 3016 1369 3016 2328 
Q 3016 3291 2770 3770 
Q 2525 4250 2034 4250 
z
M 2034 4750 
Q 2819 4750 3233 4129 
Q 3647 3509 3647 2328 
Q 3647 1150 3233 529 
Q 2819 -91 2034 -91 
Q 1250 -91 836 529 
Q 422 1150 422 2328 
Q 422 3509 836 4129 
Q 1250 4750 2034 4750 
z
" transform="scale(0.015625)"/>
       </defs>
       <use xlink:href="#DejaVuSans-30"/>
      </g>
     </g>
    </g>
    <g id="ytick_2">
     <g id="line2d_5">
      <g>
       <use xlink:href="#mdff8a79325" x="40.5" y="225.366712" style="stroke: #000000; stroke-width: 1.5"/>
      </g>
     </g>
     <g id="text_5">
      <!-- 1 -->
      <g transform="translate(21.365 229.925775) scale(0.12 -0.12)">
       <defs>
        <path id="DejaVuSans-31" d="M 794 531 
L 1825 531 
L 1825 4091 
L 703 3866 
L 703 4441 
L 1819 4666 
L 2450 4666 
L 2450 531 
L 3481 531 
L 3481 0 
L 794 0 
L 794 531 
z
" transform="scale(0.015625)"/>
       </defs>
       <use xlink:href="#DejaVuSans-31"/>
      </g>
     </g>
    </g>
    <g id="ytick_3">
     <g id="line2d_6">
      <g>
       <use xlink:href="#mdff8a79325" x="40.5" y="170.18568" style="stroke: #000000; stroke-width: 1.5"/>
      </g>
     </g>
     <g id="text_6">
      <!-- 2 -->
      <g transform="translate(21.365 174.744742) scale(0.12 -0.12)">
       <defs>
        <path id="DejaVuSans-32" d="M 1228 531 
L 3431 531 
L 3431 0 
L 469 0 
L 469 531 
Q 828 903 1448 1529 
Q 2069 2156 2228 2338 
Q 2531 2678 2651 2914 
Q 2772 3150 2772 3378 
Q 2772 3750 2511 3984 
Q 2250 4219 1831 4219 
Q 1534 4219 1204 4116 
Q 875 4013 500 3803 
L 500 4441 
Q 881 4594 1212 4672 
Q 1544 4750 1819 4750 
Q 2544 4750 2975 4387 
Q 3406 4025 3406 3419 
Q 3406 3131 3298 2873 
Q 3191 2616 2906 2266 
Q 2828 2175 2409 1742 
Q 1991 1309 1228 531 
z
" transform="scale(0.015625)"/>
       </defs>
       <use xlink:href="#DejaVuSans-32"/>
      </g>
     </g>
    </g>
    <g id="ytick_4">
     <g id="line2d_7">
      <g>
       <use xlink:href="#mdff8a79325" x="40.5" y="115.004647" style="stroke: #000000; stroke-width: 1.5"/>
      </g>
     </g>
     <g id="text_7">
      <!-- 3 -->
      <g transform="translate(21.365 119.56371) scale(0.12 -0.12)">
       <defs>
        <path id="DejaVuSans-33" d="M 2597 2516 
Q 3050 2419 3304 2112 
Q 3559 1806 3559 1356 
Q 3559 666 3084 287 
Q 2609 -91 1734 -91 
Q 1441 -91 1130 -33 
Q 819 25 488 141 
L 488 750 
Q 750 597 1062 519 
Q 1375 441 1716 441 
Q 2309 441 2620 675 
Q 2931 909 2931 1356 
Q 2931 1769 2642 2001 
Q 2353 2234 1838 2234 
L 1294 2234 
L 1294 2753 
L 1863 2753 
Q 2328 2753 2575 2939 
Q 2822 3125 2822 3475 
Q 2822 3834 2567 4026 
Q 2313 4219 1838 4219 
Q 1578 4219 1281 4162 
Q 984 4106 628 3988 
L 628 4550 
Q 988 4650 1302 4700 
Q 1616 4750 1894 4750 
Q 2613 4750 3031 4423 
Q 3450 4097 3450 3541 
Q 3450 3153 3228 2886 
Q 3006 2619 2597 2516 
z
" transform="scale(0.015625)"/>
       </defs>
       <use xlink:href="#DejaVuSans-33"/>
      </g>
     </g>
    </g>
    <g id="ytick_5">
     <g id="line2d_8">
      <g>
       <use xlink:href="#mdff8a79325" x="40.5" y="59.823615" style="stroke: #000000; stroke-width: 1.5"/>
      </g>
     </g>
     <g id="text_8">
      <!-- 4 -->
      <g transform="translate(21.365 64.382678) scale(0.12 -0.12)">
       <defs>
        <path id="DejaVuSans-34" d="M 2419 4116 
L 825 1625 
L 2419 1625 
L 2419 4116 
z
M 2253 4666 
L 3047 4666 
L 3047 1625 
L 3713 1625 
L 3713 1100 
L 3047 1100 
L 3047 0 
L 2419 0 
L 2419 1100 
L 313 1100 
L 313 1709 
L 2253 4666 
z
" transform="scale(0.015625)"/>
       </defs>
       <use xlink:href="#DejaVuSans-34"/>
      </g>
     </g>
    </g>
   </g>
   <g id="line2d_9">
    <path d="M 51.913636 127.995056 
L 68.218831 133.360162 
L 84.524026 146.39233 
L 100.829221 163.720532 
L 117.134416 180.695971 
L 133.43961 198.939337 
L 149.744805 220.324031 
L 166.05 234.087612 
L 182.355195 237.893834 
L 198.66039 258.960953 
L 214.965584 269.097477 
L 231.270779 271.822081 
L 247.575974 273.075854 
L 263.881169 273.853168 
L 280.186364 274.399073 
" clip-path="url(#p2eba0b8e67)" style="fill: none; stroke: #ff0000; stroke-width: 1.5; stroke-linecap: square"/>
   </g>
   <g id="LineCollection_1">
    <path d="M 51.913636 128.481036 
L 51.913636 127.509076 
" clip-path="url(#p2eba0b8e67)" style="fill: none; stroke: #ff0000; stroke-width: 2"/>
    <path d="M 68.218831 135.060053 
L 68.218831 131.660271 
" clip-path="url(#p2eba0b8e67)" style="fill: none; stroke: #ff0000; stroke-width: 2"/>
    <path d="M 84.524026 146.913209 
L 84.524026 145.87145 
" clip-path="url(#p2eba0b8e67)" style="fill: none; stroke: #ff0000; stroke-width: 2"/>
    <path d="M 100.829221 163.911392 
L 100.829221 163.529673 
" clip-path="url(#p2eba0b8e67)" style="fill: none; stroke: #ff0000; stroke-width: 2"/>
    <path d="M 117.134416 181.111684 
L 117.134416 180.280259 
" clip-path="url(#p2eba0b8e67)" style="fill: none; stroke: #ff0000; stroke-width: 2"/>
    <path d="M 133.43961 199.137031 
L 133.43961 198.741643 
" clip-path="url(#p2eba0b8e67)" style="fill: none; stroke: #ff0000; stroke-width: 2"/>
    <path d="M 149.744805 220.418823 
L 149.744805 220.229239 
" clip-path="url(#p2eba0b8e67)" style="fill: none; stroke: #ff0000; stroke-width: 2"/>
    <path d="M 166.05 234.211107 
L 166.05 233.964117 
" clip-path="url(#p2eba0b8e67)" style="fill: none; stroke: #ff0000; stroke-width: 2"/>
    <path d="M 182.355195 237.940674 
L 182.355195 237.846994 
" clip-path="url(#p2eba0b8e67)" style="fill: none; stroke: #ff0000; stroke-width: 2"/>
    <path d="M 198.66039 259.012693 
L 198.66039 258.909213 
" clip-path="url(#p2eba0b8e67)" style="fill: none; stroke: #ff0000; stroke-width: 2"/>
    <path d="M 214.965584 269.104277 
L 214.965584 269.090676 
" clip-path="url(#p2eba0b8e67)" style="fill: none; stroke: #ff0000; stroke-width: 2"/>
    <path d="M 231.270779 271.823767 
L 231.270779 271.820395 
" clip-path="url(#p2eba0b8e67)" style="fill: none; stroke: #ff0000; stroke-width: 2"/>
    <path d="M 247.575974 273.077881 
L 247.575974 273.073827 
" clip-path="url(#p2eba0b8e67)" style="fill: none; stroke: #ff0000; stroke-width: 2"/>
    <path d="M 263.881169 273.854384 
L 263.881169 273.851951 
" clip-path="url(#p2eba0b8e67)" style="fill: none; stroke: #ff0000; stroke-width: 2"/>
    <path d="M 280.186364 274.399444 
L 280.186364 274.398703 
" clip-path="url(#p2eba0b8e67)" style="fill: none; stroke: #ff0000; stroke-width: 2"/>
   </g>
   <g id="line2d_10">
    <defs>
     <path id="me8209e8aa7" d="M 3 0 
L -3 -0 
" style="stroke: #ff0000; stroke-width: 2"/>
    </defs>
    <g clip-path="url(#p2eba0b8e67)">
     <use xlink:href="#me8209e8aa7" x="51.913636" y="128.481036" style="fill: #ff0000; stroke: #ff0000; stroke-width: 2"/>
     <use xlink:href="#me8209e8aa7" x="68.218831" y="135.060053" style="fill: #ff0000; stroke: #ff0000; stroke-width: 2"/>
     <use xlink:href="#me8209e8aa7" x="84.524026" y="146.913209" style="fill: #ff0000; stroke: #ff0000; stroke-width: 2"/>
     <use xlink:href="#me8209e8aa7" x="100.829221" y="163.911392" style="fill: #ff0000; stroke: #ff0000; stroke-width: 2"/>
     <use xlink:href="#me8209e8aa7" x="117.134416" y="181.111684" style="fill: #ff0000; stroke: #ff0000; stroke-width: 2"/>
     <use xlink:href="#me8209e8aa7" x="133.43961" y="199.137031" style="fill: #ff0000; stroke: #ff0000; stroke-width: 2"/>
     <use xlink:href="#me8209e8aa7" x="149.744805" y="220.418823" style="fill: #ff0000; stroke: #ff0000; stroke-width: 2"/>
     <use xlink:href="#me8209e8aa7" x="166.05" y="234.211107" style="fill: #ff0000; stroke: #ff0000; stroke-width: 2"/>
     <use xlink:href="#me8209e8aa7" x="182.355195" y="237.940674" style="fill: #ff0000; stroke: #ff0000; stroke-width: 2"/>
     <use xlink:href="#me8209e8aa7" x="198.66039" y="259.012693" style="fill: #ff0000; stroke: #ff0000; stroke-width: 2"/>
     <use xlink:href="#me8209e8aa7" x="214.965584" y="269.104277" style="fill: #ff0000; stroke: #ff0000; stroke-width: 2"/>
     <use xlink:href="#me8209e8aa7" x="231.270779" y="271.823767" style="fill: #ff0000; stroke: #ff0000; stroke-width: 2"/>
     <use xlink:href="#me8209e8aa7" x="247.575974" y="273.077881" style="fill: #ff0000; stroke: #ff0000; stroke-width: 2"/>
     <use xlink:href="#me8209e8aa7" x="263.881169" y="273.854384" style="fill: #ff0000; stroke: #ff0000; stroke-width: 2"/>
     <use xlink:href="#me8209e8aa7" x="280.186364" y="274.399444" style="fill: #ff0000; stroke: #ff0000; stroke-width: 2"/>
    </g>
   </g>
   <g id="line2d_11">
    <g clip-path="url(#p2eba0b8e67)">
     <use xlink:href="#me8209e8aa7" x="51.913636" y="127.509076" style="fill: #ff0000; stroke: #ff0000; stroke-width: 2"/>
     <use xlink:href="#me8209e8aa7" x="68.218831" y="131.660271" style="fill: #ff0000; stroke: #ff0000; stroke-width: 2"/>
     <use xlink:href="#me8209e8aa7" x="84.524026" y="145.87145" style="fill: #ff0000; stroke: #ff0000; stroke-width: 2"/>
     <use xlink:href="#me8209e8aa7" x="100.829221" y="163.529673" style="fill: #ff0000; stroke: #ff0000; stroke-width: 2"/>
     <use xlink:href="#me8209e8aa7" x="117.134416" y="180.280259" style="fill: #ff0000; stroke: #ff0000; stroke-width: 2"/>
     <use xlink:href="#me8209e8aa7" x="133.43961" y="198.741643" style="fill: #ff0000; stroke: #ff0000; stroke-width: 2"/>
     <use xlink:href="#me8209e8aa7" x="149.744805" y="220.229239" style="fill: #ff0000; stroke: #ff0000; stroke-width: 2"/>
     <use xlink:href="#me8209e8aa7" x="166.05" y="233.964117" style="fill: #ff0000; stroke: #ff0000; stroke-width: 2"/>
     <use xlink:href="#me8209e8aa7" x="182.355195" y="237.846994" style="fill: #ff0000; stroke: #ff0000; stroke-width: 2"/>
     <use xlink:href="#me8209e8aa7" x="198.66039" y="258.909213" style="fill: #ff0000; stroke: #ff0000; stroke-width: 2"/>
     <use xlink:href="#me8209e8aa7" x="214.965584" y="269.090676" style="fill: #ff0000; stroke: #ff0000; stroke-width: 2"/>
     <use xlink:href="#me8209e8aa7" x="231.270779" y="271.820395" style="fill: #ff0000; stroke: #ff0000; stroke-width: 2"/>
     <use xlink:href="#me8209e8aa7" x="247.575974" y="273.073827" style="fill: #ff0000; stroke: #ff0000; stroke-width: 2"/>
     <use xlink:href="#me8209e8aa7" x="263.881169" y="273.851951" style="fill: #ff0000; stroke: #ff0000; stroke-width: 2"/>
     <use xlink:href="#me8209e8aa7" x="280.186364" y="274.398703" style="fill: #ff0000; stroke: #ff0000; stroke-width: 2"/>
    </g>
   </g>
   <g id="line2d_12">
    <path d="M 51.913636 104.636154 
L 68.218831 118.963229 
L 84.524026 131.934672 
L 100.829221 142.471494 
L 117.134416 158.089301 
L 133.43961 182.524406 
L 149.744805 207.468554 
L 166.05 232.492402 
L 182.355195 248.028867 
L 198.66039 261.912645 
L 214.965584 271.164683 
L 231.270779 273.50571 
L 247.575974 274.54059 
L 263.881169 275.175085 
L 280.186364 275.618187 
" clip-path="url(#p2eba0b8e67)" style="fill: none; stroke: #000000; stroke-width: 1.5; stroke-linecap: square"/>
   </g>
   <g id="LineCollection_2">
    <path d="M 51.913636 105.697616 
L 51.913636 103.574692 
" clip-path="url(#p2eba0b8e67)" style="fill: none; stroke: #000000; stroke-width: 2"/>
    <path d="M 68.218831 119.51824 
L 68.218831 118.408218 
" clip-path="url(#p2eba0b8e67)" style="fill: none; stroke: #000000; stroke-width: 2"/>
    <path d="M 84.524026 132.79411 
L 84.524026 131.075235 
" clip-path="url(#p2eba0b8e67)" style="fill: none; stroke: #000000; stroke-width: 2"/>
    <path d="M 100.829221 143.206253 
L 100.829221 141.736735 
" clip-path="url(#p2eba0b8e67)" style="fill: none; stroke: #000000; stroke-width: 2"/>
    <path d="M 117.134416 158.899938 
L 117.134416 157.278664 
" clip-path="url(#p2eba0b8e67)" style="fill: none; stroke: #000000; stroke-width: 2"/>
    <path d="M 133.43961 182.976479 
L 133.43961 182.072333 
" clip-path="url(#p2eba0b8e67)" style="fill: none; stroke: #000000; stroke-width: 2"/>
    <path d="M 149.744805 207.804713 
L 149.744805 207.132396 
" clip-path="url(#p2eba0b8e67)" style="fill: none; stroke: #000000; stroke-width: 2"/>
    <path d="M 166.05 232.667426 
L 166.05 232.317379 
" clip-path="url(#p2eba0b8e67)" style="fill: none; stroke: #000000; stroke-width: 2"/>
    <path d="M 182.355195 248.114265 
L 182.355195 247.94347 
" clip-path="url(#p2eba0b8e67)" style="fill: none; stroke: #000000; stroke-width: 2"/>
    <path d="M 198.66039 261.947236 
L 198.66039 261.878054 
" clip-path="url(#p2eba0b8e67)" style="fill: none; stroke: #000000; stroke-width: 2"/>
    <path d="M 214.965584 271.169204 
L 214.965584 271.160163 
" clip-path="url(#p2eba0b8e67)" style="fill: none; stroke: #000000; stroke-width: 2"/>
    <path d="M 231.270779 273.507209 
L 231.270779 273.504211 
" clip-path="url(#p2eba0b8e67)" style="fill: none; stroke: #000000; stroke-width: 2"/>
    <path d="M 247.575974 274.541273 
L 247.575974 274.539908 
" clip-path="url(#p2eba0b8e67)" style="fill: none; stroke: #000000; stroke-width: 2"/>
    <path d="M 263.881169 275.175724 
L 263.881169 275.174447 
" clip-path="url(#p2eba0b8e67)" style="fill: none; stroke: #000000; stroke-width: 2"/>
    <path d="M 280.186364 275.618355 
L 280.186364 275.618018 
" clip-path="url(#p2eba0b8e67)" style="fill: none; stroke: #000000; stroke-width: 2"/>
   </g>
   <g id="line2d_13">
    <defs>
     <path id="m65365bd77c" d="M 3 0 
L -3 -0 
" style="stroke: #000000; stroke-width: 2"/>
    </defs>
    <g clip-path="url(#p2eba0b8e67)">
     <use xlink:href="#m65365bd77c" x="51.913636" y="105.697616" style="stroke: #000000; stroke-width: 2"/>
     <use xlink:href="#m65365bd77c" x="68.218831" y="119.51824" style="stroke: #000000; stroke-width: 2"/>
     <use xlink:href="#m65365bd77c" x="84.524026" y="132.79411" style="stroke: #000000; stroke-width: 2"/>
     <use xlink:href="#m65365bd77c" x="100.829221" y="143.206253" style="stroke: #000000; stroke-width: 2"/>
     <use xlink:href="#m65365bd77c" x="117.134416" y="158.899938" style="stroke: #000000; stroke-width: 2"/>
     <use xlink:href="#m65365bd77c" x="133.43961" y="182.976479" style="stroke: #000000; stroke-width: 2"/>
     <use xlink:href="#m65365bd77c" x="149.744805" y="207.804713" style="stroke: #000000; stroke-width: 2"/>
     <use xlink:href="#m65365bd77c" x="166.05" y="232.667426" style="stroke: #000000; stroke-width: 2"/>
     <use xlink:href="#m65365bd77c" x="182.355195" y="248.114265" style="stroke: #000000; stroke-width: 2"/>
     <use xlink:href="#m65365bd77c" x="198.66039" y="261.947236" style="stroke: #000000; stroke-width: 2"/>
     <use xlink:href="#m65365bd77c" x="214.965584" y="271.169204" style="stroke: #000000; stroke-width: 2"/>
     <use xlink:href="#m65365bd77c" x="231.270779" y="273.507209" style="stroke: #000000; stroke-width: 2"/>
     <use xlink:href="#m65365bd77c" x="247.575974" y="274.541273" style="stroke: #000000; stroke-width: 2"/>
     <use xlink:href="#m65365bd77c" x="263.881169" y="275.175724" style="stroke: #000000; stroke-width: 2"/>
     <use xlink:href="#m65365bd77c" x="280.186364" y="275.618355" style="stroke: #000000; stroke-width: 2"/>
    </g>
   </g>
   <g id="line2d_14">
    <g clip-path="url(#p2eba0b8e67)">
     <use xlink:href="#m65365bd77c" x="51.913636" y="103.574692" style="stroke: #000000; stroke-width: 2"/>
     <use xlink:href="#m65365bd77c" x="68.218831" y="118.408218" style="stroke: #000000; stroke-width: 2"/>
     <use xlink:href="#m65365bd77c" x="84.524026" y="131.075235" style="stroke: #000000; stroke-width: 2"/>
     <use xlink:href="#m65365bd77c" x="100.829221" y="141.736735" style="stroke: #000000; stroke-width: 2"/>
     <use xlink:href="#m65365bd77c" x="117.134416" y="157.278664" style="stroke: #000000; stroke-width: 2"/>
     <use xlink:href="#m65365bd77c" x="133.43961" y="182.072333" style="stroke: #000000; stroke-width: 2"/>
     <use xlink:href="#m65365bd77c" x="149.744805" y="207.132396" style="stroke: #000000; stroke-width: 2"/>
     <use xlink:href="#m65365bd77c" x="166.05" y="232.317379" style="stroke: #000000; stroke-width: 2"/>
     <use xlink:href="#m65365bd77c" x="182.355195" y="247.94347" style="stroke: #000000; stroke-width: 2"/>
     <use xlink:href="#m65365bd77c" x="198.66039" y="261.878054" style="stroke: #000000; stroke-width: 2"/>
     <use xlink:href="#m65365bd77c" x="214.965584" y="271.160163" style="stroke: #000000; stroke-width: 2"/>
     <use xlink:href="#m65365bd77c" x="231.270779" y="273.504211" style="stroke: #000000; stroke-width: 2"/>
     <use xlink:href="#m65365bd77c" x="247.575974" y="274.539908" style="stroke: #000000; stroke-width: 2"/>
     <use xlink:href="#m65365bd77c" x="263.881169" y="275.174447" style="stroke: #000000; stroke-width: 2"/>
     <use xlink:href="#m65365bd77c" x="280.186364" y="275.618018" style="stroke: #000000; stroke-width: 2"/>
    </g>
   </g>
   <g id="line2d_15">
    <path d="M 51.913636 72.899866 
L 68.218831 85.734775 
L 84.524026 107.378243 
L 100.829221 131.912824 
L 117.134416 150.129055 
L 133.43961 170.737752 
L 149.744805 197.610593 
L 166.05 226.333584 
L 182.355195 250.290564 
L 198.66039 264.511931 
L 214.965584 272.59117 
L 231.270779 274.647467 
L 247.575974 275.528535 
L 263.881169 276.062728 
L 280.186364 276.434789 
" clip-path="url(#p2eba0b8e67)" style="fill: none; stroke: #0000ff; stroke-width: 1.5; stroke-linecap: square"/>
   </g>
   <g id="LineCollection_3">
    <path d="M 51.913636 73.76787 
L 51.913636 72.031862 
" clip-path="url(#p2eba0b8e67)" style="fill: none; stroke: #0000ff; stroke-width: 2"/>
    <path d="M 68.218831 87.752861 
L 68.218831 83.716689 
" clip-path="url(#p2eba0b8e67)" style="fill: none; stroke: #0000ff; stroke-width: 2"/>
    <path d="M 84.524026 108.479863 
L 84.524026 106.276622 
" clip-path="url(#p2eba0b8e67)" style="fill: none; stroke: #0000ff; stroke-width: 2"/>
    <path d="M 100.829221 133.017821 
L 100.829221 130.807828 
" clip-path="url(#p2eba0b8e67)" style="fill: none; stroke: #0000ff; stroke-width: 2"/>
    <path d="M 117.134416 151.299218 
L 117.134416 148.958892 
" clip-path="url(#p2eba0b8e67)" style="fill: none; stroke: #0000ff; stroke-width: 2"/>
    <path d="M 133.43961 171.124965 
L 133.43961 170.35054 
" clip-path="url(#p2eba0b8e67)" style="fill: none; stroke: #0000ff; stroke-width: 2"/>
    <path d="M 149.744805 198.025098 
L 149.744805 197.196088 
" clip-path="url(#p2eba0b8e67)" style="fill: none; stroke: #0000ff; stroke-width: 2"/>
    <path d="M 166.05 226.56025 
L 166.05 226.106917 
" clip-path="url(#p2eba0b8e67)" style="fill: none; stroke: #0000ff; stroke-width: 2"/>
    <path d="M 182.355195 250.358788 
L 182.355195 250.222341 
" clip-path="url(#p2eba0b8e67)" style="fill: none; stroke: #0000ff; stroke-width: 2"/>
    <path d="M 198.66039 264.543146 
L 198.66039 264.480716 
" clip-path="url(#p2eba0b8e67)" style="fill: none; stroke: #0000ff; stroke-width: 2"/>
    <path d="M 214.965584 272.597429 
L 214.965584 272.58491 
" clip-path="url(#p2eba0b8e67)" style="fill: none; stroke: #0000ff; stroke-width: 2"/>
    <path d="M 231.270779 274.648788 
L 231.270779 274.646146 
" clip-path="url(#p2eba0b8e67)" style="fill: none; stroke: #0000ff; stroke-width: 2"/>
    <path d="M 247.575974 275.52975 
L 247.575974 275.527321 
" clip-path="url(#p2eba0b8e67)" style="fill: none; stroke: #0000ff; stroke-width: 2"/>
    <path d="M 263.881169 276.063024 
L 263.881169 276.062433 
" clip-path="url(#p2eba0b8e67)" style="fill: none; stroke: #0000ff; stroke-width: 2"/>
    <path d="M 280.186364 276.4351 
L 280.186364 276.434478 
" clip-path="url(#p2eba0b8e67)" style="fill: none; stroke: #0000ff; stroke-width: 2"/>
   </g>
   <g id="line2d_16">
    <defs>
     <path id="m11665a0eda" d="M 3 0 
L -3 -0 
" style="stroke: #0000ff; stroke-width: 2"/>
    </defs>
    <g clip-path="url(#p2eba0b8e67)">
     <use xlink:href="#m11665a0eda" x="51.913636" y="73.76787" style="fill: #0000ff; stroke: #0000ff; stroke-width: 2"/>
     <use xlink:href="#m11665a0eda" x="68.218831" y="87.752861" style="fill: #0000ff; stroke: #0000ff; stroke-width: 2"/>
     <use xlink:href="#m11665a0eda" x="84.524026" y="108.479863" style="fill: #0000ff; stroke: #0000ff; stroke-width: 2"/>
     <use xlink:href="#m11665a0eda" x="100.829221" y="133.017821" style="fill: #0000ff; stroke: #0000ff; stroke-width: 2"/>
     <use xlink:href="#m11665a0eda" x="117.134416" y="151.299218" style="fill: #0000ff; stroke: #0000ff; stroke-width: 2"/>
     <use xlink:href="#m11665a0eda" x="133.43961" y="171.124965" style="fill: #0000ff; stroke: #0000ff; stroke-width: 2"/>
     <use xlink:href="#m11665a0eda" x="149.744805" y="198.025098" style="fill: #0000ff; stroke: #0000ff; stroke-width: 2"/>
     <use xlink:href="#m11665a0eda" x="166.05" y="226.56025" style="fill: #0000ff; stroke: #0000ff; stroke-width: 2"/>
     <use xlink:href="#m11665a0eda" x="182.355195" y="250.358788" style="fill: #0000ff; stroke: #0000ff; stroke-width: 2"/>
     <use xlink:href="#m11665a0eda" x="198.66039" y="264.543146" style="fill: #0000ff; stroke: #0000ff; stroke-width: 2"/>
     <use xlink:href="#m11665a0eda" x="214.965584" y="272.597429" style="fill: #0000ff; stroke: #0000ff; stroke-width: 2"/>
     <use xlink:href="#m11665a0eda" x="231.270779" y="274.648788" style="fill: #0000ff; stroke: #0000ff; stroke-width: 2"/>
     <use xlink:href="#m11665a0eda" x="247.575974" y="275.52975" style="fill: #0000ff; stroke: #0000ff; stroke-width: 2"/>
     <use xlink:href="#m11665a0eda" x="263.881169" y="276.063024" style="fill: #0000ff; stroke: #0000ff; stroke-width: 2"/>
     <use xlink:href="#m11665a0eda" x="280.186364" y="276.4351" style="fill: #0000ff; stroke: #0000ff; stroke-width: 2"/>
    </g>
   </g>
   <g id="line2d_17">
    <g clip-path="url(#p2eba0b8e67)">
     <use xlink:href="#m11665a0eda" x="51.913636" y="72.031862" style="fill: #0000ff; stroke: #0000ff; stroke-width: 2"/>
     <use xlink:href="#m11665a0eda" x="68.218831" y="83.716689" style="fill: #0000ff; stroke: #0000ff; stroke-width: 2"/>
     <use xlink:href="#m11665a0eda" x="84.524026" y="106.276622" style="fill: #0000ff; stroke: #0000ff; stroke-width: 2"/>
     <use xlink:href="#m11665a0eda" x="100.829221" y="130.807828" style="fill: #0000ff; stroke: #0000ff; stroke-width: 2"/>
     <use xlink:href="#m11665a0eda" x="117.134416" y="148.958892" style="fill: #0000ff; stroke: #0000ff; stroke-width: 2"/>
     <use xlink:href="#m11665a0eda" x="133.43961" y="170.35054" style="fill: #0000ff; stroke: #0000ff; stroke-width: 2"/>
     <use xlink:href="#m11665a0eda" x="149.744805" y="197.196088" style="fill: #0000ff; stroke: #0000ff; stroke-width: 2"/>
     <use xlink:href="#m11665a0eda" x="166.05" y="226.106917" style="fill: #0000ff; stroke: #0000ff; stroke-width: 2"/>
     <use xlink:href="#m11665a0eda" x="182.355195" y="250.222341" style="fill: #0000ff; stroke: #0000ff; stroke-width: 2"/>
     <use xlink:href="#m11665a0eda" x="198.66039" y="264.480716" style="fill: #0000ff; stroke: #0000ff; stroke-width: 2"/>
     <use xlink:href="#m11665a0eda" x="214.965584" y="272.58491" style="fill: #0000ff; stroke: #0000ff; stroke-width: 2"/>
     <use xlink:href="#m11665a0eda" x="231.270779" y="274.646146" style="fill: #0000ff; stroke: #0000ff; stroke-width: 2"/>
     <use xlink:href="#m11665a0eda" x="247.575974" y="275.527321" style="fill: #0000ff; stroke: #0000ff; stroke-width: 2"/>
     <use xlink:href="#m11665a0eda" x="263.881169" y="276.062433" style="fill: #0000ff; stroke: #0000ff; stroke-width: 2"/>
     <use xlink:href="#m11665a0eda" x="280.186364" y="276.434478" style="fill: #0000ff; stroke: #0000ff; stroke-width: 2"/>
    </g>
   </g>
   <g id="line2d_18">
    <path d="M 51.913636 51.776319 
L 68.218831 65.955616 
L 84.524026 81.779339 
L 100.829221 106.023979 
L 117.134416 132.872257 
L 133.43961 163.324894 
L 149.744805 190.528141 
L 166.05 221.944245 
L 182.355195 250.010191 
L 198.66039 266.472688 
L 214.965584 273.644874 
L 231.270779 275.468282 
L 247.575974 276.237235 
L 263.881169 276.698942 
L 280.186364 277.019875 
" clip-path="url(#p2eba0b8e67)" style="fill: none; stroke: #bf00bf; stroke-width: 1.5; stroke-linecap: square"/>
   </g>
   <g id="LineCollection_4">
    <path d="M 51.913636 53.332638 
L 51.913636 50.22 
" clip-path="url(#p2eba0b8e67)" style="fill: none; stroke: #bf00bf; stroke-width: 2"/>
    <path d="M 68.218831 67.496313 
L 68.218831 64.414919 
" clip-path="url(#p2eba0b8e67)" style="fill: none; stroke: #bf00bf; stroke-width: 2"/>
    <path d="M 84.524026 83.969576 
L 84.524026 79.589103 
" clip-path="url(#p2eba0b8e67)" style="fill: none; stroke: #bf00bf; stroke-width: 2"/>
    <path d="M 100.829221 107.456762 
L 100.829221 104.591196 
" clip-path="url(#p2eba0b8e67)" style="fill: none; stroke: #bf00bf; stroke-width: 2"/>
    <path d="M 117.134416 134.091668 
L 117.134416 131.652846 
" clip-path="url(#p2eba0b8e67)" style="fill: none; stroke: #bf00bf; stroke-width: 2"/>
    <path d="M 133.43961 164.004964 
L 133.43961 162.644825 
" clip-path="url(#p2eba0b8e67)" style="fill: none; stroke: #bf00bf; stroke-width: 2"/>
    <path d="M 149.744805 190.874849 
L 149.744805 190.181433 
" clip-path="url(#p2eba0b8e67)" style="fill: none; stroke: #bf00bf; stroke-width: 2"/>
    <path d="M 166.05 222.173823 
L 166.05 221.714667 
" clip-path="url(#p2eba0b8e67)" style="fill: none; stroke: #bf00bf; stroke-width: 2"/>
    <path d="M 182.355195 250.102705 
L 182.355195 249.917677 
" clip-path="url(#p2eba0b8e67)" style="fill: none; stroke: #bf00bf; stroke-width: 2"/>
    <path d="M 198.66039 266.498715 
L 198.66039 266.446661 
" clip-path="url(#p2eba0b8e67)" style="fill: none; stroke: #bf00bf; stroke-width: 2"/>
    <path d="M 214.965584 273.650963 
L 214.965584 273.638785 
" clip-path="url(#p2eba0b8e67)" style="fill: none; stroke: #bf00bf; stroke-width: 2"/>
    <path d="M 231.270779 275.469248 
L 231.270779 275.467315 
" clip-path="url(#p2eba0b8e67)" style="fill: none; stroke: #bf00bf; stroke-width: 2"/>
    <path d="M 247.575974 276.237689 
L 247.575974 276.236781 
" clip-path="url(#p2eba0b8e67)" style="fill: none; stroke: #bf00bf; stroke-width: 2"/>
    <path d="M 263.881169 276.699483 
L 263.881169 276.698401 
" clip-path="url(#p2eba0b8e67)" style="fill: none; stroke: #bf00bf; stroke-width: 2"/>
    <path d="M 280.186364 277.02 
L 280.186364 277.019749 
" clip-path="url(#p2eba0b8e67)" style="fill: none; stroke: #bf00bf; stroke-width: 2"/>
   </g>
   <g id="line2d_19">
    <defs>
     <path id="m5c32c915ce" d="M 3 0 
L -3 -0 
" style="stroke: #bf00bf; stroke-width: 2"/>
    </defs>
    <g clip-path="url(#p2eba0b8e67)">
     <use xlink:href="#m5c32c915ce" x="51.913636" y="53.332638" style="fill: #bf00bf; stroke: #bf00bf; stroke-width: 2"/>
     <use xlink:href="#m5c32c915ce" x="68.218831" y="67.496313" style="fill: #bf00bf; stroke: #bf00bf; stroke-width: 2"/>
     <use xlink:href="#m5c32c915ce" x="84.524026" y="83.969576" style="fill: #bf00bf; stroke: #bf00bf; stroke-width: 2"/>
     <use xlink:href="#m5c32c915ce" x="100.829221" y="107.456762" style="fill: #bf00bf; stroke: #bf00bf; stroke-width: 2"/>
     <use xlink:href="#m5c32c915ce" x="117.134416" y="134.091668" style="fill: #bf00bf; stroke: #bf00bf; stroke-width: 2"/>
     <use xlink:href="#m5c32c915ce" x="133.43961" y="164.004964" style="fill: #bf00bf; stroke: #bf00bf; stroke-width: 2"/>
     <use xlink:href="#m5c32c915ce" x="149.744805" y="190.874849" style="fill: #bf00bf; stroke: #bf00bf; stroke-width: 2"/>
     <use xlink:href="#m5c32c915ce" x="166.05" y="222.173823" style="fill: #bf00bf; stroke: #bf00bf; stroke-width: 2"/>
     <use xlink:href="#m5c32c915ce" x="182.355195" y="250.102705" style="fill: #bf00bf; stroke: #bf00bf; stroke-width: 2"/>
     <use xlink:href="#m5c32c915ce" x="198.66039" y="266.498715" style="fill: #bf00bf; stroke: #bf00bf; stroke-width: 2"/>
     <use xlink:href="#m5c32c915ce" x="214.965584" y="273.650963" style="fill: #bf00bf; stroke: #bf00bf; stroke-width: 2"/>
     <use xlink:href="#m5c32c915ce" x="231.270779" y="275.469248" style="fill: #bf00bf; stroke: #bf00bf; stroke-width: 2"/>
     <use xlink:href="#m5c32c915ce" x="247.575974" y="276.237689" style="fill: #bf00bf; stroke: #bf00bf; stroke-width: 2"/>
     <use xlink:href="#m5c32c915ce" x="263.881169" y="276.699483" style="fill: #bf00bf; stroke: #bf00bf; stroke-width: 2"/>
     <use xlink:href="#m5c32c915ce" x="280.186364" y="277.02" style="fill: #bf00bf; stroke: #bf00bf; stroke-width: 2"/>
    </g>
   </g>
   <g id="line2d_20">
    <g clip-path="url(#p2eba0b8e67)">
     <use xlink:href="#m5c32c915ce" x="51.913636" y="50.22" style="fill: #bf00bf; stroke: #bf00bf; stroke-width: 2"/>
     <use xlink:href="#m5c32c915ce" x="68.218831" y="64.414919" style="fill: #bf00bf; stroke: #bf00bf; stroke-width: 2"/>
     <use xlink:href="#m5c32c915ce" x="84.524026" y="79.589103" style="fill: #bf00bf; stroke: #bf00bf; stroke-width: 2"/>
     <use xlink:href="#m5c32c915ce" x="100.829221" y="104.591196" style="fill: #bf00bf; stroke: #bf00bf; stroke-width: 2"/>
     <use xlink:href="#m5c32c915ce" x="117.134416" y="131.652846" style="fill: #bf00bf; stroke: #bf00bf; stroke-width: 2"/>
     <use xlink:href="#m5c32c915ce" x="133.43961" y="162.644825" style="fill: #bf00bf; stroke: #bf00bf; stroke-width: 2"/>
     <use xlink:href="#m5c32c915ce" x="149.744805" y="190.181433" style="fill: #bf00bf; stroke: #bf00bf; stroke-width: 2"/>
     <use xlink:href="#m5c32c915ce" x="166.05" y="221.714667" style="fill: #bf00bf; stroke: #bf00bf; stroke-width: 2"/>
     <use xlink:href="#m5c32c915ce" x="182.355195" y="249.917677" style="fill: #bf00bf; stroke: #bf00bf; stroke-width: 2"/>
     <use xlink:href="#m5c32c915ce" x="198.66039" y="266.446661" style="fill: #bf00bf; stroke: #bf00bf; stroke-width: 2"/>
     <use xlink:href="#m5c32c915ce" x="214.965584" y="273.638785" style="fill: #bf00bf; stroke: #bf00bf; stroke-width: 2"/>
     <use xlink:href="#m5c32c915ce" x="231.270779" y="275.467315" style="fill: #bf00bf; stroke: #bf00bf; stroke-width: 2"/>
     <use xlink:href="#m5c32c915ce" x="247.575974" y="276.236781" style="fill: #bf00bf; stroke: #bf00bf; stroke-width: 2"/>
     <use xlink:href="#m5c32c915ce" x="263.881169" y="276.698401" style="fill: #bf00bf; stroke: #bf00bf; stroke-width: 2"/>
     <use xlink:href="#m5c32c915ce" x="280.186364" y="277.019749" style="fill: #bf00bf; stroke: #bf00bf; stroke-width: 2"/>
    </g>
   </g>
   <g id="line2d_21">
    <path d="M 51.913636 127.995056 
L 68.218831 133.360162 
L 84.524026 146.39233 
L 100.829221 163.720532 
L 117.134416 180.695971 
L 133.43961 198.939337 
L 149.744805 220.324031 
L 166.05 234.087612 
L 182.355195 237.893834 
L 198.66039 258.960953 
L 214.965584 269.097477 
L 231.270779 271.822081 
L 247.575974 273.075854 
L 263.881169 273.853168 
L 280.186364 274.399073 
" clip-path="url(#p2eba0b8e67)" style="fill: none; stroke: #ff0000; stroke-width: 1.5; stroke-linecap: square"/>
   </g>
   <g id="line2d_22">
    <path d="M 51.913636 104.636154 
L 68.218831 118.963229 
L 84.524026 131.934672 
L 100.829221 142.471494 
L 117.134416 158.089301 
L 133.43961 182.524406 
L 149.744805 207.468554 
L 166.05 232.492402 
L 182.355195 248.028867 
L 198.66039 261.912645 
L 214.965584 271.164683 
L 231.270779 273.50571 
L 247.575974 274.54059 
L 263.881169 275.175085 
L 280.186364 275.618187 
" clip-path="url(#p2eba0b8e67)" style="fill: none; stroke: #000000; stroke-width: 1.5; stroke-linecap: square"/>
   </g>
   <g id="line2d_23">
    <path d="M 51.913636 72.899866 
L 68.218831 85.734775 
L 84.524026 107.378243 
L 100.829221 131.912824 
L 117.134416 150.129055 
L 133.43961 170.737752 
L 149.744805 197.610593 
L 166.05 226.333584 
L 182.355195 250.290564 
L 198.66039 264.511931 
L 214.965584 272.59117 
L 231.270779 274.647467 
L 247.575974 275.528535 
L 263.881169 276.062728 
L 280.186364 276.434789 
" clip-path="url(#p2eba0b8e67)" style="fill: none; stroke: #0000ff; stroke-width: 1.5; stroke-linecap: square"/>
   </g>
   <g id="line2d_24">
    <path d="M 51.913636 51.776319 
L 68.218831 65.955616 
L 84.524026 81.779339 
L 100.829221 106.023979 
L 117.134416 132.872257 
L 133.43961 163.324894 
L 149.744805 190.528141 
L 166.05 221.944245 
L 182.355195 250.010191 
L 198.66039 266.472688 
L 214.965584 273.644874 
L 231.270779 275.468282 
L 247.575974 276.237235 
L 263.881169 276.698942 
L 280.186364 277.019875 
" clip-path="url(#p2eba0b8e67)" style="fill: none; stroke: #bf00bf; stroke-width: 1.5; stroke-linecap: square"/>
   </g>
   <g id="patch_3">
    <path d="M 40.5 288.36 
L 40.5 38.88 
" style="fill: none; stroke: #000000; stroke-width: 1.6; stroke-linejoin: miter; stroke-linecap: square"/>
   </g>
   <g id="patch_4">
    <path d="M 291.6 288.36 
L 291.6 38.88 
" style="fill: none; stroke: #000000; stroke-width: 1.6; stroke-linejoin: miter; stroke-linecap: square"/>
   </g>
   <g id="patch_5">
    <path d="M 40.5 288.36 
L 291.6 288.36 
" style="fill: none; stroke: #000000; stroke-width: 1.6; stroke-linejoin: miter; stroke-linecap: square"/>
   </g>
   <g id="patch_6">
    <path d="M 40.5 38.88 
L 291.6 38.88 
" style="fill: none; stroke: #000000; stroke-width: 1.6; stroke-linejoin: miter; stroke-linecap: square"/>
   </g>
   <g id="legend_1">
    <g id="patch_7">
     <path d="M 209.120625 118.935 
L 283.2 118.935 
Q 285.6 118.935 285.6 116.535 
L 285.6 47.28 
Q 285.6 44.88 283.2 44.88 
L 209.120625 44.88 
Q 206.720625 44.88 206.720625 47.28 
L 206.720625 116.535 
Q 206.720625 118.935 209.120625 118.935 
z
" style="fill: #ffffff; opacity: 0.8"/>
    </g>
    <g id="LineCollection_5">
     <path d="M 223.520625 60.598125 
L 223.520625 48.598125 
" style="fill: none; stroke: #ff0000; stroke-width: 2"/>
    </g>
    <g id="line2d_25">
     <g>
      <use xlink:href="#me8209e8aa7" x="223.520625" y="60.598125" style="fill: #ff0000; stroke: #ff0000; stroke-width: 2"/>
     </g>
    </g>
    <g id="line2d_26">
     <g>
      <use xlink:href="#me8209e8aa7" x="223.520625" y="48.598125" style="fill: #ff0000; stroke: #ff0000; stroke-width: 2"/>
     </g>
    </g>
    <g id="line2d_27">
     <path d="M 211.520625 54.598125 
L 235.520625 54.598125 
" style="fill: none; stroke: #ff0000; stroke-width: 1.5; stroke-linecap: square"/>
    </g>
    <g id="line2d_28"/>
    <g id="text_9">
     <!-- M=8 -->
     <g transform="translate(245.120625 58.798125) scale(0.12 -0.12)">
      <defs>
       <path id="DejaVuSans-4d" d="M 628 4666 
L 1569 4666 
L 2759 1491 
L 3956 4666 
L 4897 4666 
L 4897 0 
L 4281 0 
L 4281 4097 
L 3078 897 
L 2444 897 
L 1241 4097 
L 1241 0 
L 628 0 
L 628 4666 
z
" transform="scale(0.015625)"/>
       <path id="DejaVuSans-3d" d="M 678 2906 
L 4684 2906 
L 4684 2381 
L 678 2381 
L 678 2906 
z
M 678 1631 
L 4684 1631 
L 4684 1100 
L 678 1100 
L 678 1631 
z
" transform="scale(0.015625)"/>
      </defs>
      <use xlink:href="#DejaVuSans-4d"/>
      <use xlink:href="#DejaVuSans-3d" x="86.279297"/>
      <use xlink:href="#DejaVuSans-38" x="170.068359"/>
     </g>
    </g>
    <g id="LineCollection_6">
     <path d="M 223.520625 78.211875 
L 223.520625 66.211875 
" style="fill: none; stroke: #000000; stroke-width: 2"/>
    </g>
    <g id="line2d_29">
     <g>
      <use xlink:href="#m65365bd77c" x="223.520625" y="78.211875" style="stroke: #000000; stroke-width: 2"/>
     </g>
    </g>
    <g id="line2d_30">
     <g>
      <use xlink:href="#m65365bd77c" x="223.520625" y="66.211875" style="stroke: #000000; stroke-width: 2"/>
     </g>
    </g>
    <g id="line2d_31">
     <path d="M 211.520625 72.211875 
L 235.520625 72.211875 
" style="fill: none; stroke: #000000; stroke-width: 1.5; stroke-linecap: square"/>
    </g>
    <g id="line2d_32"/>
    <g id="text_10">
     <!-- M=10 -->
     <g transform="translate(245.120625 76.411875) scale(0.12 -0.12)">
      <use xlink:href="#DejaVuSans-4d"/>
      <use xlink:href="#DejaVuSans-3d" x="86.279297"/>
      <use xlink:href="#DejaVuSans-31" x="170.068359"/>
      <use xlink:href="#DejaVuSans-30" x="233.691406"/>
     </g>
    </g>
    <g id="LineCollection_7">
     <path d="M 223.520625 95.825625 
L 223.520625 83.825625 
" style="fill: none; stroke: #0000ff; stroke-width: 2"/>
    </g>
    <g id="line2d_33">
     <g>
      <use xlink:href="#m11665a0eda" x="223.520625" y="95.825625" style="fill: #0000ff; stroke: #0000ff; stroke-width: 2"/>
     </g>
    </g>
    <g id="line2d_34">
     <g>
      <use xlink:href="#m11665a0eda" x="223.520625" y="83.825625" style="fill: #0000ff; stroke: #0000ff; stroke-width: 2"/>
     </g>
    </g>
    <g id="line2d_35">
     <path d="M 211.520625 89.825625 
L 235.520625 89.825625 
" style="fill: none; stroke: #0000ff; stroke-width: 1.5; stroke-linecap: square"/>
    </g>
    <g id="line2d_36"/>
    <g id="text_11">
     <!-- M=12 -->
     <g transform="translate(245.120625 94.025625) scale(0.12 -0.12)">
      <use xlink:href="#DejaVuSans-4d"/>
      <use xlink:href="#DejaVuSans-3d" x="86.279297"/>
      <use xlink:href="#DejaVuSans-31" x="170.068359"/>
      <use xlink:href="#DejaVuSans-32" x="233.691406"/>
     </g>
    </g>
    <g id="LineCollection_8">
     <path d="M 223.520625 113.439375 
L 223.520625 101.439375 
" style="fill: none; stroke: #bf00bf; stroke-width: 2"/>
    </g>
    <g id="line2d_37">
     <g>
      <use xlink:href="#m5c32c915ce" x="223.520625" y="113.439375" style="fill: #bf00bf; stroke: #bf00bf; stroke-width: 2"/>
     </g>
    </g>
    <g id="line2d_38">
     <g>
      <use xlink:href="#m5c32c915ce" x="223.520625" y="101.439375" style="fill: #bf00bf; stroke: #bf00bf; stroke-width: 2"/>
     </g>
    </g>
    <g id="line2d_39">
     <path d="M 211.520625 107.439375 
L 235.520625 107.439375 
" style="fill: none; stroke: #bf00bf; stroke-width: 1.5; stroke-linecap: square"/>
    </g>
    <g id="line2d_40"/>
    <g id="text_12">
     <!-- M=14 -->
     <g transform="translate(245.120625 111.639375) scale(0.12 -0.12)">
      <use xlink:href="#DejaVuSans-4d"/>
      <use xlink:href="#DejaVuSans-3d" x="86.279297"/>
      <use xlink:href="#DejaVuSans-31" x="170.068359"/>
      <use xlink:href="#DejaVuSans-34" x="233.691406"/>
     </g>
    </g>
   </g>
  </g>
 </g>
 <defs>
  <clipPath id="p2eba0b8e67">
   <rect x="40.5" y="38.88" width="251.1" height="249.48"/>
  </clipPath>
 </defs>
</svg>
