<?xml version="1.0" encoding="utf-8" standalone="no"?>
<!DOCTYPE svg PUBLIC "-//W3C//DTD SVG 1.1//EN"
  "http://www.w3.org/Graphics/SVG/1.1/DTD/svg11.dtd">
<svg xmlns:xlink="http://www.w3.org/1999/xlink" width="324pt" height="324pt" viewBox="0 0 324 324" xmlns="http://www.w3.org/2000/svg" version="1.1">
 <metadata>
  <rdf:RDF xmlns:dc="http://purl.org/dc/elements/1.1/" xmlns:cc="http://creativecommons.org/ns#" xmlns:rdf="http://www.w3.org/1999/02/22-rdf-syntax-ns#">
   <cc:Work>
    <dc:type rdf:resource="http://purl.org/dc/dcmitype/StillImage"/>
    <dc:date>2026-01-11T17:23:49.115189</dc:date>
    <dc:format>image/svg+xml</dc:format>
    <dc:creator>
     <cc:Agent>
      <dc:title>Matplotlib v3.8.0, https://matplotlib.org/</dc:title>
     </cc:Agent>
    </dc:creator>
   </cc:Work>
  </rdf:RDF>
 </metadata>
 <defs>
  <style type="text/css">*{stroke-linejoin: round; stroke-linecap: butt}</style>
 </defs>
 <g id="figure_1">
  <g id="patch_1">
   <path d="M 0 324 
L 324 324 
L 324 0 
L 0 0 
z
" style="fill: #ffffff"/>
  </g>
  <g id="axes_1">
   <g id="patch_2">
    <path d="M 40.5 288.36 
L 291.6 288.36 
L 291.6 38.88 
L 40.5 38.88 
z
" style="fill: #ffffff"/>
   </g>
   <g id="matplotlib.axis_1">
    <g id="xtick_1">
     <g id="line2d_1">
      <defs>
       <path id="m6f3bb72ea8" d="M 0 0 
L 0 8 
" style="stroke: #000000; stroke-width: 1.5"/>
      </defs>
      <g>
       <use xlink:href="#m6f3bb72ea8" x="117.134416" y="288.36" style="stroke: #000000; stroke-width: 1.5"/>
      </g>
     </g>
     <g id="text_1">
      <!-- 7 -->
      <g transform="translate(113.316916 308.978125) scale(0.12 -0.12)">
       <defs>
        <path id="DejaVuSans-37" d="M 525 4666 
L 3525 4666 
L 3525 4397 
L 1831 0 
L 1172 0 
L 2766 4134 
L 525 4134 
L 525 4666 
z
" transform="scale(0.015625)"/>
       </defs>
       <use xlink:href="#DejaVuSans-37"/>
      </g>
     </g>
    </g>
    <g id="xtick_2">
     <g id="line2d_2">
      <g>
       <use xlink:href="#m6f3bb72ea8" x="198.66039" y="288.36" style="stroke: #000000; stroke-width: 1.5"/>
      </g>
     </g>
     <g id="text_2">
      <!-- 8 -->
      <g transform="translate(194.84289 308.978125) scale(0.12 -0.12)">
       <defs>
        <path id="DejaVuSans-38" d="M 2034 2216 
Q 1584 2216 1326 1975 
Q 1069 1734 1069 1313 
Q 1069 891 1326 650 
Q 1584 409 2034 409 
Q 2484 409 2743 651 
Q 3003 894 3003 1313 
Q 3003 1734 2745 1975 
Q 2488 2216 2034 2216 
z
M 1403 2484 
Q 997 2584 770 2862 
Q 544 3141 544 3541 
Q 544 4100 942 4425 
Q 1341 4750 2034 4750 
Q 2731 4750 3128 4425 
Q 3525 4100 3525 3541 
Q 3525 3141 3298 2862 
Q 3072 2584 2669 2484 
Q 3125 2378 3379 2068 
Q 3634 1759 3634 1313 
Q 3634 634 3220 271 
Q 2806 -91 2034 -91 
Q 1263 -91 848 271 
Q 434 634 434 1313 
Q 434 1759 690 2068 
Q 947 2378 1403 2484 
z
M 1172 3481 
Q 1172 3119 1398 2916 
Q 1625 2713 2034 2713 
Q 2441 2713 2670 2916 
Q 2900 3119 2900 3481 
Q 2900 3844 2670 4047 
Q 2441 4250 2034 4250 
Q 1625 4250 1398 4047 
Q 1172 3844 1172 3481 
z
" transform="scale(0.015625)"/>
       </defs>
       <use xlink:href="#DejaVuSans-38"/>
      </g>
     </g>
    </g>
    <g id="xtick_3">
     <g id="line2d_3">
      <g>
       <use xlink:href="#m6f3bb72ea8" x="280.186364" y="288.36" style="stroke: #000000; stroke-width: 1.5"/>
      </g>
     </g>
     <g id="text_3">
      <!-- 9 -->
      <g transform="translate(276.368864 308.978125) scale(0.12 -0.12)">
       <defs>
        <path id="DejaVuSans-39" d="M 703 97 
L 703 672 
Q 941 559 1184 500 
Q 1428 441 1663 441 
Q 2288 441 2617 861 
Q 2947 1281 2994 2138 
Q 2813 1869 2534 1725 
Q 2256 1581 1919 1581 
Q 1219 1581 811 2004 
Q 403 2428 403 3163 
Q 403 3881 828 4315 
Q 1253 4750 1959 4750 
Q 2769 4750 3195 4129 
Q 3622 3509 3622 2328 
Q 3622 1225 3098 567 
Q 2575 -91 1691 -91 
Q 1453 -91 1209 -44 
Q 966 3 703 97 
z
M 1959 2075 
Q 2384 2075 2632 2365 
Q 2881 2656 2881 3163 
Q 2881 3666 2632 3958 
Q 2384 4250 1959 4250 
Q 1534 4250 1286 3958 
Q 1038 3666 1038 3163 
Q 1038 2656 1286 2365 
Q 1534 2075 1959 2075 
z
" transform="scale(0.015625)"/>
       </defs>
       <use xlink:href="#DejaVuSans-39"/>
      </g>
     </g>
    </g>
   </g>
   <g id="matplotlib.axis_2">
    <g id="ytick_1">
     <g id="line2d_4">
      <defs>
       <path id="m1ed5014b2f" d="M 0 0 
L -8 0 
" style="stroke: #000000; stroke-width: 1.5"/>
      </defs>
      <g>
       <use xlink:href="#m1ed5014b2f" x="40.5" y="288.36" style="stroke: #000000; stroke-width: 1.5"/>
      </g>
     </g>
     <g id="text_4">
      <!-- 0.3 -->
      <g transform="translate(9.91625 292.919062) scale(0.12 -0.12)">
       <defs>
        <path id="DejaVuSans-30" d="M 2034 4250 
Q 1547 4250 1301 3770 
Q 1056 3291 1056 2328 
Q 1056 1369 1301 889 
Q 1547 409 2034 409 
Q 2525 409 2770 889 
Q 3016 1369 3016 2328 
Q 3016 3291 2770 3770 
Q 2525 4250 2034 4250 
z
M 2034 4750 
Q 2819 4750 3233 4129 
Q 3647 3509 3647 2328 
Q 3647 1150 3233 529 
Q 2819 -91 2034 -91 
Q 1250 -91 836 529 
Q 422 1150 422 2328 
Q 422 3509 836 4129 
Q 1250 4750 2034 4750 
z
" transform="scale(0.015625)"/>
        <path id="DejaVuSans-2e" d="M 684 794 
L 1344 794 
L 1344 0 
L 684 0 
L 684 794 
z
" transform="scale(0.015625)"/>
        <path id="DejaVuSans-33" d="M 2597 2516 
Q 3050 2419 3304 2112 
Q 3559 1806 3559 1356 
Q 3559 666 3084 287 
Q 2609 -91 1734 -91 
Q 1441 -91 1130 -33 
Q 819 25 488 141 
L 488 750 
Q 750 597 1062 519 
Q 1375 441 1716 441 
Q 2309 441 2620 675 
Q 2931 909 2931 1356 
Q 2931 1769 2642 2001 
Q 2353 2234 1838 2234 
L 1294 2234 
L 1294 2753 
L 1863 2753 
Q 2328 2753 2575 2939 
Q 2822 3125 2822 3475 
Q 2822 3834 2567 4026 
Q 2313 4219 1838 4219 
Q 1578 4219 1281 4162 
Q 984 4106 628 3988 
L 628 4550 
Q 988 4650 1302 4700 
Q 1616 4750 1894 4750 
Q 2613 4750 3031 4423 
Q 3450 4097 3450 3541 
Q 3450 3153 3228 2886 
Q 3006 2619 2597 2516 
z
" transform="scale(0.015625)"/>
       </defs>
       <use xlink:href="#DejaVuSans-30"/>
       <use xlink:href="#DejaVuSans-2e" x="63.623047"/>
       <use xlink:href="#DejaVuSans-33" x="95.410156"/>
      </g>
     </g>
    </g>
    <g id="ytick_2">
     <g id="line2d_5">
      <g>
       <use xlink:href="#m1ed5014b2f" x="40.5" y="227.911885" style="stroke: #000000; stroke-width: 1.5"/>
      </g>
     </g>
     <g id="text_5">
      <!-- 0.5 -->
      <g transform="translate(9.91625 232.470948) scale(0.12 -0.12)">
       <defs>
        <path id="DejaVuSans-35" d="M 691 4666 
L 3169 4666 
L 3169 4134 
L 1269 4134 
L 1269 2991 
Q 1406 3038 1543 3061 
Q 1681 3084 1819 3084 
Q 2600 3084 3056 2656 
Q 3513 2228 3513 1497 
Q 3513 744 3044 326 
Q 2575 -91 1722 -91 
Q 1428 -91 1123 -41 
Q 819 9 494 109 
L 494 744 
Q 775 591 1075 516 
Q 1375 441 1709 441 
Q 2250 441 2565 725 
Q 2881 1009 2881 1497 
Q 2881 1984 2565 2268 
Q 2250 2553 1709 2553 
Q 1456 2553 1204 2497 
Q 953 2441 691 2322 
L 691 4666 
z
" transform="scale(0.015625)"/>
       </defs>
       <use xlink:href="#DejaVuSans-30"/>
       <use xlink:href="#DejaVuSans-2e" x="63.623047"/>
       <use xlink:href="#DejaVuSans-35" x="95.410156"/>
      </g>
     </g>
    </g>
    <g id="ytick_3">
     <g id="line2d_6">
      <g>
       <use xlink:href="#m1ed5014b2f" x="40.5" y="167.463771" style="stroke: #000000; stroke-width: 1.5"/>
      </g>
     </g>
     <g id="text_6">
      <!-- 0.7 -->
      <g transform="translate(9.91625 172.022833) scale(0.12 -0.12)">
       <use xlink:href="#DejaVuSans-30"/>
       <use xlink:href="#DejaVuSans-2e" x="63.623047"/>
       <use xlink:href="#DejaVuSans-37" x="95.410156"/>
      </g>
     </g>
    </g>
    <g id="ytick_4">
     <g id="line2d_7">
      <g>
       <use xlink:href="#m1ed5014b2f" x="40.5" y="107.015656" style="stroke: #000000; stroke-width: 1.5"/>
      </g>
     </g>
     <g id="text_7">
      <!-- 0.9 -->
      <g transform="translate(9.91625 111.574719) scale(0.12 -0.12)">
       <use xlink:href="#DejaVuSans-30"/>
       <use xlink:href="#DejaVuSans-2e" x="63.623047"/>
       <use xlink:href="#DejaVuSans-39" x="95.410156"/>
      </g>
     </g>
    </g>
    <g id="ytick_5">
     <g id="line2d_8">
      <g>
       <use xlink:href="#m1ed5014b2f" x="40.5" y="46.567542" style="stroke: #000000; stroke-width: 1.5"/>
      </g>
     </g>
     <g id="text_8">
      <!-- 1.1 -->
      <g transform="translate(9.91625 51.126604) scale(0.12 -0.12)">
       <defs>
        <path id="DejaVuSans-31" d="M 794 531 
L 1825 531 
L 1825 4091 
L 703 3866 
L 703 4441 
L 1819 4666 
L 2450 4666 
L 2450 531 
L 3481 531 
L 3481 0 
L 794 0 
L 794 531 
z
" transform="scale(0.015625)"/>
       </defs>
       <use xlink:href="#DejaVuSans-31"/>
       <use xlink:href="#DejaVuSans-2e" x="63.623047"/>
       <use xlink:href="#DejaVuSans-31" x="95.410156"/>
      </g>
     </g>
    </g>
   </g>
   <g id="line2d_9">
    <path d="M 51.913636 157.365639 
L 68.218831 167.125617 
L 84.524026 176.896746 
L 100.829221 184.991321 
L 117.134416 193.229593 
L 133.43961 200.357533 
L 149.744805 204.976151 
L 166.05 209.906475 
L 182.355195 214.429821 
L 198.66039 218.332614 
L 214.965584 222.415294 
L 231.270779 226.956949 
L 247.575974 230.34858 
L 263.881169 234.257881 
L 280.186364 237.551145 
" clip-path="url(#p824a2ec27f)" style="fill: none; stroke: #ff0000; stroke-width: 1.5; stroke-linecap: square"/>
   </g>
   <g id="LineCollection_1">
    <path d="M 51.913636 157.544089 
L 51.913636 157.187189 
" clip-path="url(#p824a2ec27f)" style="fill: none; stroke: #ff0000; stroke-width: 2"/>
    <path d="M 68.218831 167.394937 
L 68.218831 166.856298 
" clip-path="url(#p824a2ec27f)" style="fill: none; stroke: #ff0000; stroke-width: 2"/>
    <path d="M 84.524026 177.133763 
L 84.524026 176.659729 
" clip-path="url(#p824a2ec27f)" style="fill: none; stroke: #ff0000; stroke-width: 2"/>
    <path d="M 100.829221 185.360873 
L 100.829221 184.621769 
" clip-path="url(#p824a2ec27f)" style="fill: none; stroke: #ff0000; stroke-width: 2"/>
    <path d="M 117.134416 193.556629 
L 117.134416 192.902558 
" clip-path="url(#p824a2ec27f)" style="fill: none; stroke: #ff0000; stroke-width: 2"/>
    <path d="M 133.43961 200.633502 
L 133.43961 200.081564 
" clip-path="url(#p824a2ec27f)" style="fill: none; stroke: #ff0000; stroke-width: 2"/>
    <path d="M 149.744805 205.340927 
L 149.744805 204.611376 
" clip-path="url(#p824a2ec27f)" style="fill: none; stroke: #ff0000; stroke-width: 2"/>
    <path d="M 166.05 210.092627 
L 166.05 209.720324 
" clip-path="url(#p824a2ec27f)" style="fill: none; stroke: #ff0000; stroke-width: 2"/>
    <path d="M 182.355195 214.562653 
L 182.355195 214.296988 
" clip-path="url(#p824a2ec27f)" style="fill: none; stroke: #ff0000; stroke-width: 2"/>
    <path d="M 198.66039 218.558864 
L 198.66039 218.106365 
" clip-path="url(#p824a2ec27f)" style="fill: none; stroke: #ff0000; stroke-width: 2"/>
    <path d="M 214.965584 222.654016 
L 214.965584 222.176572 
" clip-path="url(#p824a2ec27f)" style="fill: none; stroke: #ff0000; stroke-width: 2"/>
    <path d="M 231.270779 227.198147 
L 231.270779 226.715751 
" clip-path="url(#p824a2ec27f)" style="fill: none; stroke: #ff0000; stroke-width: 2"/>
    <path d="M 247.575974 230.653838 
L 247.575974 230.043322 
" clip-path="url(#p824a2ec27f)" style="fill: none; stroke: #ff0000; stroke-width: 2"/>
    <path d="M 263.881169 234.438824 
L 263.881169 234.076938 
" clip-path="url(#p824a2ec27f)" style="fill: none; stroke: #ff0000; stroke-width: 2"/>
    <path d="M 280.186364 237.707385 
L 280.186364 237.394905 
" clip-path="url(#p824a2ec27f)" style="fill: none; stroke: #ff0000; stroke-width: 2"/>
   </g>
   <g id="line2d_10">
    <defs>
     <path id="m56a5ae81b3" d="M 3 0 
L -3 -0 
" style="stroke: #ff0000; stroke-width: 2"/>
    </defs>
    <g clip-path="url(#p824a2ec27f)">
     <use xlink:href="#m56a5ae81b3" x="51.913636" y="157.544089" style="fill: #ff0000; stroke: #ff0000; stroke-width: 2"/>
     <use xlink:href="#m56a5ae81b3" x="68.218831" y="167.394937" style="fill: #ff0000; stroke: #ff0000; stroke-width: 2"/>
     <use xlink:href="#m56a5ae81b3" x="84.524026" y="177.133763" style="fill: #ff0000; stroke: #ff0000; stroke-width: 2"/>
     <use xlink:href="#m56a5ae81b3" x="100.829221" y="185.360873" style="fill: #ff0000; stroke: #ff0000; stroke-width: 2"/>
     <use xlink:href="#m56a5ae81b3" x="117.134416" y="193.556629" style="fill: #ff0000; stroke: #ff0000; stroke-width: 2"/>
     <use xlink:href="#m56a5ae81b3" x="133.43961" y="200.633502" style="fill: #ff0000; stroke: #ff0000; stroke-width: 2"/>
     <use xlink:href="#m56a5ae81b3" x="149.744805" y="205.340927" style="fill: #ff0000; stroke: #ff0000; stroke-width: 2"/>
     <use xlink:href="#m56a5ae81b3" x="166.05" y="210.092627" style="fill: #ff0000; stroke: #ff0000; stroke-width: 2"/>
     <use xlink:href="#m56a5ae81b3" x="182.355195" y="214.562653" style="fill: #ff0000; stroke: #ff0000; stroke-width: 2"/>
     <use xlink:href="#m56a5ae81b3" x="198.66039" y="218.558864" style="fill: #ff0000; stroke: #ff0000; stroke-width: 2"/>
     <use xlink:href="#m56a5ae81b3" x="214.965584" y="222.654016" style="fill: #ff0000; stroke: #ff0000; stroke-width: 2"/>
     <use xlink:href="#m56a5ae81b3" x="231.270779" y="227.198147" style="fill: #ff0000; stroke: #ff0000; stroke-width: 2"/>
     <use xlink:href="#m56a5ae81b3" x="247.575974" y="230.653838" style="fill: #ff0000; stroke: #ff0000; stroke-width: 2"/>
     <use xlink:href="#m56a5ae81b3" x="263.881169" y="234.438824" style="fill: #ff0000; stroke: #ff0000; stroke-width: 2"/>
     <use xlink:href="#m56a5ae81b3" x="280.186364" y="237.707385" style="fill: #ff0000; stroke: #ff0000; stroke-width: 2"/>
    </g>
   </g>
   <g id="line2d_11">
    <g clip-path="url(#p824a2ec27f)">
     <use xlink:href="#m56a5ae81b3" x="51.913636" y="157.187189" style="fill: #ff0000; stroke: #ff0000; stroke-width: 2"/>
     <use xlink:href="#m56a5ae81b3" x="68.218831" y="166.856298" style="fill: #ff0000; stroke: #ff0000; stroke-width: 2"/>
     <use xlink:href="#m56a5ae81b3" x="84.524026" y="176.659729" style="fill: #ff0000; stroke: #ff0000; stroke-width: 2"/>
     <use xlink:href="#m56a5ae81b3" x="100.829221" y="184.621769" style="fill: #ff0000; stroke: #ff0000; stroke-width: 2"/>
     <use xlink:href="#m56a5ae81b3" x="117.134416" y="192.902558" style="fill: #ff0000; stroke: #ff0000; stroke-width: 2"/>
     <use xlink:href="#m56a5ae81b3" x="133.43961" y="200.081564" style="fill: #ff0000; stroke: #ff0000; stroke-width: 2"/>
     <use xlink:href="#m56a5ae81b3" x="149.744805" y="204.611376" style="fill: #ff0000; stroke: #ff0000; stroke-width: 2"/>
     <use xlink:href="#m56a5ae81b3" x="166.05" y="209.720324" style="fill: #ff0000; stroke: #ff0000; stroke-width: 2"/>
     <use xlink:href="#m56a5ae81b3" x="182.355195" y="214.296988" style="fill: #ff0000; stroke: #ff0000; stroke-width: 2"/>
     <use xlink:href="#m56a5ae81b3" x="198.66039" y="218.106365" style="fill: #ff0000; stroke: #ff0000; stroke-width: 2"/>
     <use xlink:href="#m56a5ae81b3" x="214.965584" y="222.176572" style="fill: #ff0000; stroke: #ff0000; stroke-width: 2"/>
     <use xlink:href="#m56a5ae81b3" x="231.270779" y="226.715751" style="fill: #ff0000; stroke: #ff0000; stroke-width: 2"/>
     <use xlink:href="#m56a5ae81b3" x="247.575974" y="230.043322" style="fill: #ff0000; stroke: #ff0000; stroke-width: 2"/>
     <use xlink:href="#m56a5ae81b3" x="263.881169" y="234.076938" style="fill: #ff0000; stroke: #ff0000; stroke-width: 2"/>
     <use xlink:href="#m56a5ae81b3" x="280.186364" y="237.394905" style="fill: #ff0000; stroke: #ff0000; stroke-width: 2"/>
    </g>
   </g>
   <g id="line2d_12">
    <path d="M 51.913636 113.118789 
L 68.218831 130.639497 
L 84.524026 149.30384 
L 100.829221 169.135717 
L 117.134416 185.003346 
L 133.43961 195.423547 
L 149.744805 204.204435 
L 166.05 211.219476 
L 182.355195 217.78128 
L 198.66039 224.630368 
L 214.965584 230.420763 
L 231.270779 236.253268 
L 247.575974 241.422352 
L 263.881169 247.353338 
L 280.186364 251.960425 
" clip-path="url(#p824a2ec27f)" style="fill: none; stroke: #000000; stroke-width: 1.5; stroke-linecap: square"/>
   </g>
   <g id="LineCollection_2">
    <path d="M 51.913636 113.467499 
L 51.913636 112.77008 
" clip-path="url(#p824a2ec27f)" style="fill: none; stroke: #000000; stroke-width: 2"/>
    <path d="M 68.218831 131.613422 
L 68.218831 129.665572 
" clip-path="url(#p824a2ec27f)" style="fill: none; stroke: #000000; stroke-width: 2"/>
    <path d="M 84.524026 150.242035 
L 84.524026 148.365644 
" clip-path="url(#p824a2ec27f)" style="fill: none; stroke: #000000; stroke-width: 2"/>
    <path d="M 100.829221 169.455588 
L 100.829221 168.815846 
" clip-path="url(#p824a2ec27f)" style="fill: none; stroke: #000000; stroke-width: 2"/>
    <path d="M 117.134416 185.125574 
L 117.134416 184.881118 
" clip-path="url(#p824a2ec27f)" style="fill: none; stroke: #000000; stroke-width: 2"/>
    <path d="M 133.43961 195.730583 
L 133.43961 195.11651 
" clip-path="url(#p824a2ec27f)" style="fill: none; stroke: #000000; stroke-width: 2"/>
    <path d="M 149.744805 204.705817 
L 149.744805 203.703053 
" clip-path="url(#p824a2ec27f)" style="fill: none; stroke: #000000; stroke-width: 2"/>
    <path d="M 166.05 211.536881 
L 166.05 210.902071 
" clip-path="url(#p824a2ec27f)" style="fill: none; stroke: #000000; stroke-width: 2"/>
    <path d="M 182.355195 218.049967 
L 182.355195 217.512592 
" clip-path="url(#p824a2ec27f)" style="fill: none; stroke: #000000; stroke-width: 2"/>
    <path d="M 198.66039 224.963409 
L 198.66039 224.297327 
" clip-path="url(#p824a2ec27f)" style="fill: none; stroke: #000000; stroke-width: 2"/>
    <path d="M 214.965584 230.692969 
L 214.965584 230.148557 
" clip-path="url(#p824a2ec27f)" style="fill: none; stroke: #000000; stroke-width: 2"/>
    <path d="M 231.270779 236.605064 
L 231.270779 235.901472 
" clip-path="url(#p824a2ec27f)" style="fill: none; stroke: #000000; stroke-width: 2"/>
    <path d="M 247.575974 241.742733 
L 247.575974 241.101971 
" clip-path="url(#p824a2ec27f)" style="fill: none; stroke: #000000; stroke-width: 2"/>
    <path d="M 263.881169 247.673053 
L 263.881169 247.033624 
" clip-path="url(#p824a2ec27f)" style="fill: none; stroke: #000000; stroke-width: 2"/>
    <path d="M 280.186364 252.093287 
L 280.186364 251.827563 
" clip-path="url(#p824a2ec27f)" style="fill: none; stroke: #000000; stroke-width: 2"/>
   </g>
   <g id="line2d_13">
    <defs>
     <path id="me29a9d25b5" d="M 3 0 
L -3 -0 
" style="stroke: #000000; stroke-width: 2"/>
    </defs>
    <g clip-path="url(#p824a2ec27f)">
     <use xlink:href="#me29a9d25b5" x="51.913636" y="113.467499" style="stroke: #000000; stroke-width: 2"/>
     <use xlink:href="#me29a9d25b5" x="68.218831" y="131.613422" style="stroke: #000000; stroke-width: 2"/>
     <use xlink:href="#me29a9d25b5" x="84.524026" y="150.242035" style="stroke: #000000; stroke-width: 2"/>
     <use xlink:href="#me29a9d25b5" x="100.829221" y="169.455588" style="stroke: #000000; stroke-width: 2"/>
     <use xlink:href="#me29a9d25b5" x="117.134416" y="185.125574" style="stroke: #000000; stroke-width: 2"/>
     <use xlink:href="#me29a9d25b5" x="133.43961" y="195.730583" style="stroke: #000000; stroke-width: 2"/>
     <use xlink:href="#me29a9d25b5" x="149.744805" y="204.705817" style="stroke: #000000; stroke-width: 2"/>
     <use xlink:href="#me29a9d25b5" x="166.05" y="211.536881" style="stroke: #000000; stroke-width: 2"/>
     <use xlink:href="#me29a9d25b5" x="182.355195" y="218.049967" style="stroke: #000000; stroke-width: 2"/>
     <use xlink:href="#me29a9d25b5" x="198.66039" y="224.963409" style="stroke: #000000; stroke-width: 2"/>
     <use xlink:href="#me29a9d25b5" x="214.965584" y="230.692969" style="stroke: #000000; stroke-width: 2"/>
     <use xlink:href="#me29a9d25b5" x="231.270779" y="236.605064" style="stroke: #000000; stroke-width: 2"/>
     <use xlink:href="#me29a9d25b5" x="247.575974" y="241.742733" style="stroke: #000000; stroke-width: 2"/>
     <use xlink:href="#me29a9d25b5" x="263.881169" y="247.673053" style="stroke: #000000; stroke-width: 2"/>
     <use xlink:href="#me29a9d25b5" x="280.186364" y="252.093287" style="stroke: #000000; stroke-width: 2"/>
    </g>
   </g>
   <g id="line2d_14">
    <g clip-path="url(#p824a2ec27f)">
     <use xlink:href="#me29a9d25b5" x="51.913636" y="112.77008" style="stroke: #000000; stroke-width: 2"/>
     <use xlink:href="#me29a9d25b5" x="68.218831" y="129.665572" style="stroke: #000000; stroke-width: 2"/>
     <use xlink:href="#me29a9d25b5" x="84.524026" y="148.365644" style="stroke: #000000; stroke-width: 2"/>
     <use xlink:href="#me29a9d25b5" x="100.829221" y="168.815846" style="stroke: #000000; stroke-width: 2"/>
     <use xlink:href="#me29a9d25b5" x="117.134416" y="184.881118" style="stroke: #000000; stroke-width: 2"/>
     <use xlink:href="#me29a9d25b5" x="133.43961" y="195.11651" style="stroke: #000000; stroke-width: 2"/>
     <use xlink:href="#me29a9d25b5" x="149.744805" y="203.703053" style="stroke: #000000; stroke-width: 2"/>
     <use xlink:href="#me29a9d25b5" x="166.05" y="210.902071" style="stroke: #000000; stroke-width: 2"/>
     <use xlink:href="#me29a9d25b5" x="182.355195" y="217.512592" style="stroke: #000000; stroke-width: 2"/>
     <use xlink:href="#me29a9d25b5" x="198.66039" y="224.297327" style="stroke: #000000; stroke-width: 2"/>
     <use xlink:href="#me29a9d25b5" x="214.965584" y="230.148557" style="stroke: #000000; stroke-width: 2"/>
     <use xlink:href="#me29a9d25b5" x="231.270779" y="235.901472" style="stroke: #000000; stroke-width: 2"/>
     <use xlink:href="#me29a9d25b5" x="247.575974" y="241.101971" style="stroke: #000000; stroke-width: 2"/>
     <use xlink:href="#me29a9d25b5" x="263.881169" y="247.033624" style="stroke: #000000; stroke-width: 2"/>
     <use xlink:href="#me29a9d25b5" x="280.186364" y="251.827563" style="stroke: #000000; stroke-width: 2"/>
    </g>
   </g>
   <g id="line2d_15">
    <path d="M 51.913636 82.110598 
L 68.218831 106.527992 
L 84.524026 133.807977 
L 100.829221 157.924106 
L 117.134416 178.216918 
L 133.43961 193.178637 
L 149.744805 204.133998 
L 166.05 212.421162 
L 182.355195 220.978614 
L 198.66039 228.912017 
L 214.965584 237.030533 
L 231.270779 243.018747 
L 247.575974 250.227712 
L 263.881169 256.493692 
L 280.186364 262.957967 
" clip-path="url(#p824a2ec27f)" style="fill: none; stroke: #0000ff; stroke-width: 1.5; stroke-linecap: square"/>
   </g>
   <g id="LineCollection_3">
    <path d="M 51.913636 83.181306 
L 51.913636 81.03989 
" clip-path="url(#p824a2ec27f)" style="fill: none; stroke: #0000ff; stroke-width: 2"/>
    <path d="M 68.218831 107.45749 
L 68.218831 105.598494 
" clip-path="url(#p824a2ec27f)" style="fill: none; stroke: #0000ff; stroke-width: 2"/>
    <path d="M 84.524026 134.732136 
L 84.524026 132.883817 
" clip-path="url(#p824a2ec27f)" style="fill: none; stroke: #0000ff; stroke-width: 2"/>
    <path d="M 100.829221 158.360484 
L 100.829221 157.487729 
" clip-path="url(#p824a2ec27f)" style="fill: none; stroke: #0000ff; stroke-width: 2"/>
    <path d="M 117.134416 178.774044 
L 117.134416 177.659792 
" clip-path="url(#p824a2ec27f)" style="fill: none; stroke: #0000ff; stroke-width: 2"/>
    <path d="M 133.43961 193.392675 
L 133.43961 192.964599 
" clip-path="url(#p824a2ec27f)" style="fill: none; stroke: #0000ff; stroke-width: 2"/>
    <path d="M 149.744805 204.507325 
L 149.744805 203.760671 
" clip-path="url(#p824a2ec27f)" style="fill: none; stroke: #0000ff; stroke-width: 2"/>
    <path d="M 166.05 212.70857 
L 166.05 212.133754 
" clip-path="url(#p824a2ec27f)" style="fill: none; stroke: #0000ff; stroke-width: 2"/>
    <path d="M 182.355195 221.313045 
L 182.355195 220.644184 
" clip-path="url(#p824a2ec27f)" style="fill: none; stroke: #0000ff; stroke-width: 2"/>
    <path d="M 198.66039 229.239782 
L 198.66039 228.584252 
" clip-path="url(#p824a2ec27f)" style="fill: none; stroke: #0000ff; stroke-width: 2"/>
    <path d="M 214.965584 237.524884 
L 214.965584 236.536182 
" clip-path="url(#p824a2ec27f)" style="fill: none; stroke: #0000ff; stroke-width: 2"/>
    <path d="M 231.270779 243.408476 
L 231.270779 242.629018 
" clip-path="url(#p824a2ec27f)" style="fill: none; stroke: #0000ff; stroke-width: 2"/>
    <path d="M 247.575974 250.423666 
L 247.575974 250.031758 
" clip-path="url(#p824a2ec27f)" style="fill: none; stroke: #0000ff; stroke-width: 2"/>
    <path d="M 263.881169 256.842583 
L 263.881169 256.144801 
" clip-path="url(#p824a2ec27f)" style="fill: none; stroke: #0000ff; stroke-width: 2"/>
    <path d="M 280.186364 263.116983 
L 280.186364 262.798951 
" clip-path="url(#p824a2ec27f)" style="fill: none; stroke: #0000ff; stroke-width: 2"/>
   </g>
   <g id="line2d_16">
    <defs>
     <path id="m622fbe828c" d="M 3 0 
L -3 -0 
" style="stroke: #0000ff; stroke-width: 2"/>
    </defs>
    <g clip-path="url(#p824a2ec27f)">
     <use xlink:href="#m622fbe828c" x="51.913636" y="83.181306" style="fill: #0000ff; stroke: #0000ff; stroke-width: 2"/>
     <use xlink:href="#m622fbe828c" x="68.218831" y="107.45749" style="fill: #0000ff; stroke: #0000ff; stroke-width: 2"/>
     <use xlink:href="#m622fbe828c" x="84.524026" y="134.732136" style="fill: #0000ff; stroke: #0000ff; stroke-width: 2"/>
     <use xlink:href="#m622fbe828c" x="100.829221" y="158.360484" style="fill: #0000ff; stroke: #0000ff; stroke-width: 2"/>
     <use xlink:href="#m622fbe828c" x="117.134416" y="178.774044" style="fill: #0000ff; stroke: #0000ff; stroke-width: 2"/>
     <use xlink:href="#m622fbe828c" x="133.43961" y="193.392675" style="fill: #0000ff; stroke: #0000ff; stroke-width: 2"/>
     <use xlink:href="#m622fbe828c" x="149.744805" y="204.507325" style="fill: #0000ff; stroke: #0000ff; stroke-width: 2"/>
     <use xlink:href="#m622fbe828c" x="166.05" y="212.70857" style="fill: #0000ff; stroke: #0000ff; stroke-width: 2"/>
     <use xlink:href="#m622fbe828c" x="182.355195" y="221.313045" style="fill: #0000ff; stroke: #0000ff; stroke-width: 2"/>
     <use xlink:href="#m622fbe828c" x="198.66039" y="229.239782" style="fill: #0000ff; stroke: #0000ff; stroke-width: 2"/>
     <use xlink:href="#m622fbe828c" x="214.965584" y="237.524884" style="fill: #0000ff; stroke: #0000ff; stroke-width: 2"/>
     <use xlink:href="#m622fbe828c" x="231.270779" y="243.408476" style="fill: #0000ff; stroke: #0000ff; stroke-width: 2"/>
     <use xlink:href="#m622fbe828c" x="247.575974" y="250.423666" style="fill: #0000ff; stroke: #0000ff; stroke-width: 2"/>
     <use xlink:href="#m622fbe828c" x="263.881169" y="256.842583" style="fill: #0000ff; stroke: #0000ff; stroke-width: 2"/>
     <use xlink:href="#m622fbe828c" x="280.186364" y="263.116983" style="fill: #0000ff; stroke: #0000ff; stroke-width: 2"/>
    </g>
   </g>
   <g id="line2d_17">
    <g clip-path="url(#p824a2ec27f)">
     <use xlink:href="#m622fbe828c" x="51.913636" y="81.03989" style="fill: #0000ff; stroke: #0000ff; stroke-width: 2"/>
     <use xlink:href="#m622fbe828c" x="68.218831" y="105.598494" style="fill: #0000ff; stroke: #0000ff; stroke-width: 2"/>
     <use xlink:href="#m622fbe828c" x="84.524026" y="132.883817" style="fill: #0000ff; stroke: #0000ff; stroke-width: 2"/>
     <use xlink:href="#m622fbe828c" x="100.829221" y="157.487729" style="fill: #0000ff; stroke: #0000ff; stroke-width: 2"/>
     <use xlink:href="#m622fbe828c" x="117.134416" y="177.659792" style="fill: #0000ff; stroke: #0000ff; stroke-width: 2"/>
     <use xlink:href="#m622fbe828c" x="133.43961" y="192.964599" style="fill: #0000ff; stroke: #0000ff; stroke-width: 2"/>
     <use xlink:href="#m622fbe828c" x="149.744805" y="203.760671" style="fill: #0000ff; stroke: #0000ff; stroke-width: 2"/>
     <use xlink:href="#m622fbe828c" x="166.05" y="212.133754" style="fill: #0000ff; stroke: #0000ff; stroke-width: 2"/>
     <use xlink:href="#m622fbe828c" x="182.355195" y="220.644184" style="fill: #0000ff; stroke: #0000ff; stroke-width: 2"/>
     <use xlink:href="#m622fbe828c" x="198.66039" y="228.584252" style="fill: #0000ff; stroke: #0000ff; stroke-width: 2"/>
     <use xlink:href="#m622fbe828c" x="214.965584" y="236.536182" style="fill: #0000ff; stroke: #0000ff; stroke-width: 2"/>
     <use xlink:href="#m622fbe828c" x="231.270779" y="242.629018" style="fill: #0000ff; stroke: #0000ff; stroke-width: 2"/>
     <use xlink:href="#m622fbe828c" x="247.575974" y="250.031758" style="fill: #0000ff; stroke: #0000ff; stroke-width: 2"/>
     <use xlink:href="#m622fbe828c" x="263.881169" y="256.144801" style="fill: #0000ff; stroke: #0000ff; stroke-width: 2"/>
     <use xlink:href="#m622fbe828c" x="280.186364" y="262.798951" style="fill: #0000ff; stroke: #0000ff; stroke-width: 2"/>
    </g>
   </g>
   <g id="line2d_18">
    <path d="M 51.913636 51.748622 
L 68.218831 81.72114 
L 84.524026 116.796068 
L 100.829221 148.182273 
L 117.134416 172.962196 
L 133.43961 189.848114 
L 149.744805 203.730084 
L 166.05 214.6975 
L 182.355195 225.030853 
L 198.66039 233.610144 
L 214.965584 242.270353 
L 231.270779 250.119989 
L 247.575974 256.856004 
L 263.881169 265.116693 
L 280.186364 271.640387 
" clip-path="url(#p824a2ec27f)" style="fill: none; stroke: #bf00bf; stroke-width: 1.5; stroke-linecap: square"/>
   </g>
   <g id="LineCollection_4">
    <path d="M 51.913636 53.521246 
L 51.913636 49.975999 
" clip-path="url(#p824a2ec27f)" style="fill: none; stroke: #bf00bf; stroke-width: 2"/>
    <path d="M 68.218831 83.157316 
L 68.218831 80.284964 
" clip-path="url(#p824a2ec27f)" style="fill: none; stroke: #bf00bf; stroke-width: 2"/>
    <path d="M 84.524026 117.652796 
L 84.524026 115.93934 
" clip-path="url(#p824a2ec27f)" style="fill: none; stroke: #bf00bf; stroke-width: 2"/>
    <path d="M 100.829221 149.389329 
L 100.829221 146.975216 
" clip-path="url(#p824a2ec27f)" style="fill: none; stroke: #bf00bf; stroke-width: 2"/>
    <path d="M 117.134416 173.421471 
L 117.134416 172.502921 
" clip-path="url(#p824a2ec27f)" style="fill: none; stroke: #bf00bf; stroke-width: 2"/>
    <path d="M 133.43961 190.560752 
L 133.43961 189.135476 
" clip-path="url(#p824a2ec27f)" style="fill: none; stroke: #bf00bf; stroke-width: 2"/>
    <path d="M 149.744805 204.383949 
L 149.744805 203.076219 
" clip-path="url(#p824a2ec27f)" style="fill: none; stroke: #bf00bf; stroke-width: 2"/>
    <path d="M 166.05 215.129862 
L 166.05 214.265137 
" clip-path="url(#p824a2ec27f)" style="fill: none; stroke: #bf00bf; stroke-width: 2"/>
    <path d="M 182.355195 225.629557 
L 182.355195 224.432148 
" clip-path="url(#p824a2ec27f)" style="fill: none; stroke: #bf00bf; stroke-width: 2"/>
    <path d="M 198.66039 233.962637 
L 198.66039 233.257652 
" clip-path="url(#p824a2ec27f)" style="fill: none; stroke: #bf00bf; stroke-width: 2"/>
    <path d="M 214.965584 242.34389 
L 214.965584 242.196816 
" clip-path="url(#p824a2ec27f)" style="fill: none; stroke: #bf00bf; stroke-width: 2"/>
    <path d="M 231.270779 250.651791 
L 231.270779 249.588186 
" clip-path="url(#p824a2ec27f)" style="fill: none; stroke: #bf00bf; stroke-width: 2"/>
    <path d="M 247.575974 257.264429 
L 247.575974 256.44758 
" clip-path="url(#p824a2ec27f)" style="fill: none; stroke: #bf00bf; stroke-width: 2"/>
    <path d="M 263.881169 265.437285 
L 263.881169 264.796102 
" clip-path="url(#p824a2ec27f)" style="fill: none; stroke: #bf00bf; stroke-width: 2"/>
    <path d="M 280.186364 271.895978 
L 280.186364 271.384796 
" clip-path="url(#p824a2ec27f)" style="fill: none; stroke: #bf00bf; stroke-width: 2"/>
   </g>
   <g id="line2d_19">
    <defs>
     <path id="me1770217d4" d="M 3 0 
L -3 -0 
" style="stroke: #bf00bf; stroke-width: 2"/>
    </defs>
    <g clip-path="url(#p824a2ec27f)">
     <use xlink:href="#me1770217d4" x="51.913636" y="53.521246" style="fill: #bf00bf; stroke: #bf00bf; stroke-width: 2"/>
     <use xlink:href="#me1770217d4" x="68.218831" y="83.157316" style="fill: #bf00bf; stroke: #bf00bf; stroke-width: 2"/>
     <use xlink:href="#me1770217d4" x="84.524026" y="117.652796" style="fill: #bf00bf; stroke: #bf00bf; stroke-width: 2"/>
     <use xlink:href="#me1770217d4" x="100.829221" y="149.389329" style="fill: #bf00bf; stroke: #bf00bf; stroke-width: 2"/>
     <use xlink:href="#me1770217d4" x="117.134416" y="173.421471" style="fill: #bf00bf; stroke: #bf00bf; stroke-width: 2"/>
     <use xlink:href="#me1770217d4" x="133.43961" y="190.560752" style="fill: #bf00bf; stroke: #bf00bf; stroke-width: 2"/>
     <use xlink:href="#me1770217d4" x="149.744805" y="204.383949" style="fill: #bf00bf; stroke: #bf00bf; stroke-width: 2"/>
     <use xlink:href="#me1770217d4" x="166.05" y="215.129862" style="fill: #bf00bf; stroke: #bf00bf; stroke-width: 2"/>
     <use xlink:href="#me1770217d4" x="182.355195" y="225.629557" style="fill: #bf00bf; stroke: #bf00bf; stroke-width: 2"/>
     <use xlink:href="#me1770217d4" x="198.66039" y="233.962637" style="fill: #bf00bf; stroke: #bf00bf; stroke-width: 2"/>
     <use xlink:href="#me1770217d4" x="214.965584" y="242.34389" style="fill: #bf00bf; stroke: #bf00bf; stroke-width: 2"/>
     <use xlink:href="#me1770217d4" x="231.270779" y="250.651791" style="fill: #bf00bf; stroke: #bf00bf; stroke-width: 2"/>
     <use xlink:href="#me1770217d4" x="247.575974" y="257.264429" style="fill: #bf00bf; stroke: #bf00bf; stroke-width: 2"/>
     <use xlink:href="#me1770217d4" x="263.881169" y="265.437285" style="fill: #bf00bf; stroke: #bf00bf; stroke-width: 2"/>
     <use xlink:href="#me1770217d4" x="280.186364" y="271.895978" style="fill: #bf00bf; stroke: #bf00bf; stroke-width: 2"/>
    </g>
   </g>
   <g id="line2d_20">
    <g clip-path="url(#p824a2ec27f)">
     <use xlink:href="#me1770217d4" x="51.913636" y="49.975999" style="fill: #bf00bf; stroke: #bf00bf; stroke-width: 2"/>
     <use xlink:href="#me1770217d4" x="68.218831" y="80.284964" style="fill: #bf00bf; stroke: #bf00bf; stroke-width: 2"/>
     <use xlink:href="#me1770217d4" x="84.524026" y="115.93934" style="fill: #bf00bf; stroke: #bf00bf; stroke-width: 2"/>
     <use xlink:href="#me1770217d4" x="100.829221" y="146.975216" style="fill: #bf00bf; stroke: #bf00bf; stroke-width: 2"/>
     <use xlink:href="#me1770217d4" x="117.134416" y="172.502921" style="fill: #bf00bf; stroke: #bf00bf; stroke-width: 2"/>
     <use xlink:href="#me1770217d4" x="133.43961" y="189.135476" style="fill: #bf00bf; stroke: #bf00bf; stroke-width: 2"/>
     <use xlink:href="#me1770217d4" x="149.744805" y="203.076219" style="fill: #bf00bf; stroke: #bf00bf; stroke-width: 2"/>
     <use xlink:href="#me1770217d4" x="166.05" y="214.265137" style="fill: #bf00bf; stroke: #bf00bf; stroke-width: 2"/>
     <use xlink:href="#me1770217d4" x="182.355195" y="224.432148" style="fill: #bf00bf; stroke: #bf00bf; stroke-width: 2"/>
     <use xlink:href="#me1770217d4" x="198.66039" y="233.257652" style="fill: #bf00bf; stroke: #bf00bf; stroke-width: 2"/>
     <use xlink:href="#me1770217d4" x="214.965584" y="242.196816" style="fill: #bf00bf; stroke: #bf00bf; stroke-width: 2"/>
     <use xlink:href="#me1770217d4" x="231.270779" y="249.588186" style="fill: #bf00bf; stroke: #bf00bf; stroke-width: 2"/>
     <use xlink:href="#me1770217d4" x="247.575974" y="256.44758" style="fill: #bf00bf; stroke: #bf00bf; stroke-width: 2"/>
     <use xlink:href="#me1770217d4" x="263.881169" y="264.796102" style="fill: #bf00bf; stroke: #bf00bf; stroke-width: 2"/>
     <use xlink:href="#me1770217d4" x="280.186364" y="271.384796" style="fill: #bf00bf; stroke: #bf00bf; stroke-width: 2"/>
    </g>
   </g>
   <g id="line2d_21">
    <path d="M 51.913636 157.365639 
L 68.218831 167.125617 
L 84.524026 176.896746 
L 100.829221 184.991321 
L 117.134416 193.229593 
L 133.43961 200.357533 
L 149.744805 204.976151 
L 166.05 209.906475 
L 182.355195 214.429821 
L 198.66039 218.332614 
L 214.965584 222.415294 
L 231.270779 226.956949 
L 247.575974 230.34858 
L 263.881169 234.257881 
L 280.186364 237.551145 
" clip-path="url(#p824a2ec27f)" style="fill: none; stroke: #ff0000; stroke-width: 1.5; stroke-linecap: square"/>
   </g>
   <g id="line2d_22">
    <path d="M 51.913636 113.118789 
L 68.218831 130.639497 
L 84.524026 149.30384 
L 100.829221 169.135717 
L 117.134416 185.003346 
L 133.43961 195.423547 
L 149.744805 204.204435 
L 166.05 211.219476 
L 182.355195 217.78128 
L 198.66039 224.630368 
L 214.965584 230.420763 
L 231.270779 236.253268 
L 247.575974 241.422352 
L 263.881169 247.353338 
L 280.186364 251.960425 
" clip-path="url(#p824a2ec27f)" style="fill: none; stroke: #000000; stroke-width: 1.5; stroke-linecap: square"/>
   </g>
   <g id="line2d_23">
    <path d="M 51.913636 82.110598 
L 68.218831 106.527992 
L 84.524026 133.807977 
L 100.829221 157.924106 
L 117.134416 178.216918 
L 133.43961 193.178637 
L 149.744805 204.133998 
L 166.05 212.421162 
L 182.355195 220.978614 
L 198.66039 228.912017 
L 214.965584 237.030533 
L 231.270779 243.018747 
L 247.575974 250.227712 
L 263.881169 256.493692 
L 280.186364 262.957967 
" clip-path="url(#p824a2ec27f)" style="fill: none; stroke: #0000ff; stroke-width: 1.5; stroke-linecap: square"/>
   </g>
   <g id="line2d_24">
    <path d="M 51.913636 51.748622 
L 68.218831 81.72114 
L 84.524026 116.796068 
L 100.829221 148.182273 
L 117.134416 172.962196 
L 133.43961 189.848114 
L 149.744805 203.730084 
L 166.05 214.6975 
L 182.355195 225.030853 
L 198.66039 233.610144 
L 214.965584 242.270353 
L 231.270779 250.119989 
L 247.575974 256.856004 
L 263.881169 265.116693 
L 280.186364 271.640387 
" clip-path="url(#p824a2ec27f)" style="fill: none; stroke: #bf00bf; stroke-width: 1.5; stroke-linecap: square"/>
   </g>
   <g id="patch_3">
    <path d="M 40.5 288.36 
L 40.5 38.88 
" style="fill: none; stroke: #000000; stroke-width: 1.6; stroke-linejoin: miter; stroke-linecap: square"/>
   </g>
   <g id="patch_4">
    <path d="M 291.6 288.36 
L 291.6 38.88 
" style="fill: none; stroke: #000000; stroke-width: 1.6; stroke-linejoin: miter; stroke-linecap: square"/>
   </g>
   <g id="patch_5">
    <path d="M 40.5 288.36 
L 291.6 288.36 
" style="fill: none; stroke: #000000; stroke-width: 1.6; stroke-linejoin: miter; stroke-linecap: square"/>
   </g>
   <g id="patch_6">
    <path d="M 40.5 38.88 
L 291.6 38.88 
" style="fill: none; stroke: #000000; stroke-width: 1.6; stroke-linejoin: miter; stroke-linecap: square"/>
   </g>
   <g id="legend_1">
    <g id="patch_7">
     <path d="M 209.120625 118.935 
L 283.2 118.935 
Q 285.6 118.935 285.6 116.535 
L 285.6 47.28 
Q 285.6 44.88 283.2 44.88 
L 209.120625 44.88 
Q 206.720625 44.88 206.720625 47.28 
L 206.720625 116.535 
Q 206.720625 118.935 209.120625 118.935 
z
" style="fill: #ffffff; opacity: 0.8"/>
    </g>
    <g id="LineCollection_5">
     <path d="M 223.520625 60.598125 
L 223.520625 48.598125 
" style="fill: none; stroke: #ff0000; stroke-width: 2"/>
    </g>
    <g id="line2d_25">
     <g>
      <use xlink:href="#m56a5ae81b3" x="223.520625" y="60.598125" style="fill: #ff0000; stroke: #ff0000; stroke-width: 2"/>
     </g>
    </g>
    <g id="line2d_26">
     <g>
      <use xlink:href="#m56a5ae81b3" x="223.520625" y="48.598125" style="fill: #ff0000; stroke: #ff0000; stroke-width: 2"/>
     </g>
    </g>
    <g id="line2d_27">
     <path d="M 211.520625 54.598125 
L 235.520625 54.598125 
" style="fill: none; stroke: #ff0000; stroke-width: 1.5; stroke-linecap: square"/>
    </g>
    <g id="line2d_28"/>
    <g id="text_9">
     <!-- M=4 -->
     <g transform="translate(245.120625 58.798125) scale(0.12 -0.12)">
      <defs>
       <path id="DejaVuSans-4d" d="M 628 4666 
L 1569 4666 
L 2759 1491 
L 3956 4666 
L 4897 4666 
L 4897 0 
L 4281 0 
L 4281 4097 
L 3078 897 
L 2444 897 
L 1241 4097 
L 1241 0 
L 628 0 
L 628 4666 
z
" transform="scale(0.015625)"/>
       <path id="DejaVuSans-3d" d="M 678 2906 
L 4684 2906 
L 4684 2381 
L 678 2381 
L 678 2906 
z
M 678 1631 
L 4684 1631 
L 4684 1100 
L 678 1100 
L 678 1631 
z
" transform="scale(0.015625)"/>
       <path id="DejaVuSans-34" d="M 2419 4116 
L 825 1625 
L 2419 1625 
L 2419 4116 
z
M 2253 4666 
L 3047 4666 
L 3047 1625 
L 3713 1625 
L 3713 1100 
L 3047 1100 
L 3047 0 
L 2419 0 
L 2419 1100 
L 313 1100 
L 313 1709 
L 2253 4666 
z
" transform="scale(0.015625)"/>
      </defs>
      <use xlink:href="#DejaVuSans-4d"/>
      <use xlink:href="#DejaVuSans-3d" x="86.279297"/>
      <use xlink:href="#DejaVuSans-34" x="170.068359"/>
     </g>
    </g>
    <g id="LineCollection_6">
     <path d="M 223.520625 78.211875 
L 223.520625 66.211875 
" style="fill: none; stroke: #000000; stroke-width: 2"/>
    </g>
    <g id="line2d_29">
     <g>
      <use xlink:href="#me29a9d25b5" x="223.520625" y="78.211875" style="stroke: #000000; stroke-width: 2"/>
     </g>
    </g>
    <g id="line2d_30">
     <g>
      <use xlink:href="#me29a9d25b5" x="223.520625" y="66.211875" style="stroke: #000000; stroke-width: 2"/>
     </g>
    </g>
    <g id="line2d_31">
     <path d="M 211.520625 72.211875 
L 235.520625 72.211875 
" style="fill: none; stroke: #000000; stroke-width: 1.5; stroke-linecap: square"/>
    </g>
    <g id="line2d_32"/>
    <g id="text_10">
     <!-- M=8 -->
     <g transform="translate(245.120625 76.411875) scale(0.12 -0.12)">
      <use xlink:href="#DejaVuSans-4d"/>
      <use xlink:href="#DejaVuSans-3d" x="86.279297"/>
      <use xlink:href="#DejaVuSans-38" x="170.068359"/>
     </g>
    </g>
    <g id="LineCollection_7">
     <path d="M 223.520625 95.825625 
L 223.520625 83.825625 
" style="fill: none; stroke: #0000ff; stroke-width: 2"/>
    </g>
    <g id="line2d_33">
     <g>
      <use xlink:href="#m622fbe828c" x="223.520625" y="95.825625" style="fill: #0000ff; stroke: #0000ff; stroke-width: 2"/>
     </g>
    </g>
    <g id="line2d_34">
     <g>
      <use xlink:href="#m622fbe828c" x="223.520625" y="83.825625" style="fill: #0000ff; stroke: #0000ff; stroke-width: 2"/>
     </g>
    </g>
    <g id="line2d_35">
     <path d="M 211.520625 89.825625 
L 235.520625 89.825625 
" style="fill: none; stroke: #0000ff; stroke-width: 1.5; stroke-linecap: square"/>
    </g>
    <g id="line2d_36"/>
    <g id="text_11">
     <!-- M=12 -->
     <g transform="translate(245.120625 94.025625) scale(0.12 -0.12)">
      <defs>
       <path id="DejaVuSans-32" d="M 1228 531 
L 3431 531 
L 3431 0 
L 469 0 
L 469 531 
Q 828 903 1448 1529 
Q 2069 2156 2228 2338 
Q 2531 2678 2651 2914 
Q 2772 3150 2772 3378 
Q 2772 3750 2511 3984 
Q 2250 4219 1831 4219 
Q 1534 4219 1204 4116 
Q 875 4013 500 3803 
L 500 4441 
Q 881 4594 1212 4672 
Q 1544 4750 1819 4750 
Q 2544 4750 2975 4387 
Q 3406 4025 3406 3419 
Q 3406 3131 3298 2873 
Q 3191 2616 2906 2266 
Q 2828 2175 2409 1742 
Q 1991 1309 1228 531 
z
" transform="scale(0.015625)"/>
      </defs>
      <use xlink:href="#DejaVuSans-4d"/>
      <use xlink:href="#DejaVuSans-3d" x="86.279297"/>
      <use xlink:href="#DejaVuSans-31" x="170.068359"/>
      <use xlink:href="#DejaVuSans-32" x="233.691406"/>
     </g>
    </g>
    <g id="LineCollection_8">
     <path d="M 223.520625 113.439375 
L 223.520625 101.439375 
" style="fill: none; stroke: #bf00bf; stroke-width: 2"/>
    </g>
    <g id="line2d_37">
     <g>
      <use xlink:href="#me1770217d4" x="223.520625" y="113.439375" style="fill: #bf00bf; stroke: #bf00bf; stroke-width: 2"/>
     </g>
    </g>
    <g id="line2d_38">
     <g>
      <use xlink:href="#me1770217d4" x="223.520625" y="101.439375" style="fill: #bf00bf; stroke: #bf00bf; stroke-width: 2"/>
     </g>
    </g>
    <g id="line2d_39">
     <path d="M 211.520625 107.439375 
L 235.520625 107.439375 
" style="fill: none; stroke: #bf00bf; stroke-width: 1.5; stroke-linecap: square"/>
    </g>
    <g id="line2d_40"/>
    <g id="text_12">
     <!-- M=16 -->
     <g transform="translate(245.120625 111.639375) scale(0.12 -0.12)">
      <defs>
       <path id="DejaVuSans-36" d="M 2113 2584 
Q 1688 2584 1439 2293 
Q 1191 2003 1191 1497 
Q 1191 994 1439 701 
Q 1688 409 2113 409 
Q 2538 409 2786 701 
Q 3034 994 3034 1497 
Q 3034 2003 2786 2293 
Q 2538 2584 2113 2584 
z
M 3366 4563 
L 3366 3988 
Q 3128 4100 2886 4159 
Q 2644 4219 2406 4219 
Q 1781 4219 1451 3797 
Q 1122 3375 1075 2522 
Q 1259 2794 1537 2939 
Q 1816 3084 2150 3084 
Q 2853 3084 3261 2657 
Q 3669 2231 3669 1497 
Q 3669 778 3244 343 
Q 2819 -91 2113 -91 
Q 1303 -91 875 529 
Q 447 1150 447 2328 
Q 447 3434 972 4092 
Q 1497 4750 2381 4750 
Q 2619 4750 2861 4703 
Q 3103 4656 3366 4563 
z
" transform="scale(0.015625)"/>
      </defs>
      <use xlink:href="#DejaVuSans-4d"/>
      <use xlink:href="#DejaVuSans-3d" x="86.279297"/>
      <use xlink:href="#DejaVuSans-31" x="170.068359"/>
      <use xlink:href="#DejaVuSans-36" x="233.691406"/>
     </g>
    </g>
   </g>
  </g>
 </g>
 <defs>
  <clipPath id="p824a2ec27f">
   <rect x="40.5" y="38.88" width="251.1" height="249.48"/>
  </clipPath>
 </defs>
</svg>
