<?xml version="1.0" encoding="utf-8" standalone="no"?>
<!DOCTYPE svg PUBLIC "-//W3C//DTD SVG 1.1//EN"
  "http://www.w3.org/Graphics/SVG/1.1/DTD/svg11.dtd">
<svg xmlns:xlink="http://www.w3.org/1999/xlink" width="324pt" height="324pt" viewBox="0 0 324 324" xmlns="http://www.w3.org/2000/svg" version="1.1">
 <metadata>
  <rdf:RDF xmlns:dc="http://purl.org/dc/elements/1.1/" xmlns:cc="http://creativecommons.org/ns#" xmlns:rdf="http://www.w3.org/1999/02/22-rdf-syntax-ns#">
   <cc:Work>
    <dc:type rdf:resource="http://purl.org/dc/dcmitype/StillImage"/>
    <dc:date>2026-01-11T09:54:34.759982</dc:date>
    <dc:format>image/svg+xml</dc:format>
    <dc:creator>
     <cc:Agent>
      <dc:title>Matplotlib v3.8.0, https://matplotlib.org/</dc:title>
     </cc:Agent>
    </dc:creator>
   </cc:Work>
  </rdf:RDF>
 </metadata>
 <defs>
  <style type="text/css">*{stroke-linejoin: round; stroke-linecap: butt}</style>
 </defs>
 <g id="figure_1">
  <g id="patch_1">
   <path d="M 0 324 
L 324 324 
L 324 0 
L 0 0 
z
" style="fill: #ffffff"/>
  </g>
  <g id="axes_1">
   <g id="patch_2">
    <path d="M 40.5 288.36 
L 291.6 288.36 
L 291.6 38.88 
L 40.5 38.88 
z
" style="fill: #ffffff"/>
   </g>
   <g id="matplotlib.axis_1">
    <g id="xtick_1">
     <g id="line2d_1">
      <defs>
       <path id="m907dd741af" d="M 0 0 
L 0 8 
" style="stroke: #000000; stroke-width: 1.5"/>
      </defs>
      <g>
       <use xlink:href="#m907dd741af" x="117.134416" y="288.36" style="stroke: #000000; stroke-width: 1.5"/>
      </g>
     </g>
     <g id="text_1">
      <!-- 7 -->
      <g transform="translate(113.316916 308.978125) scale(0.12 -0.12)">
       <defs>
        <path id="DejaVuSans-37" d="M 525 4666 
L 3525 4666 
L 3525 4397 
L 1831 0 
L 1172 0 
L 2766 4134 
L 525 4134 
L 525 4666 
z
" transform="scale(0.015625)"/>
       </defs>
       <use xlink:href="#DejaVuSans-37"/>
      </g>
     </g>
    </g>
    <g id="xtick_2">
     <g id="line2d_2">
      <g>
       <use xlink:href="#m907dd741af" x="198.66039" y="288.36" style="stroke: #000000; stroke-width: 1.5"/>
      </g>
     </g>
     <g id="text_2">
      <!-- 8 -->
      <g transform="translate(194.84289 308.978125) scale(0.12 -0.12)">
       <defs>
        <path id="DejaVuSans-38" d="M 2034 2216 
Q 1584 2216 1326 1975 
Q 1069 1734 1069 1313 
Q 1069 891 1326 650 
Q 1584 409 2034 409 
Q 2484 409 2743 651 
Q 3003 894 3003 1313 
Q 3003 1734 2745 1975 
Q 2488 2216 2034 2216 
z
M 1403 2484 
Q 997 2584 770 2862 
Q 544 3141 544 3541 
Q 544 4100 942 4425 
Q 1341 4750 2034 4750 
Q 2731 4750 3128 4425 
Q 3525 4100 3525 3541 
Q 3525 3141 3298 2862 
Q 3072 2584 2669 2484 
Q 3125 2378 3379 2068 
Q 3634 1759 3634 1313 
Q 3634 634 3220 271 
Q 2806 -91 2034 -91 
Q 1263 -91 848 271 
Q 434 634 434 1313 
Q 434 1759 690 2068 
Q 947 2378 1403 2484 
z
M 1172 3481 
Q 1172 3119 1398 2916 
Q 1625 2713 2034 2713 
Q 2441 2713 2670 2916 
Q 2900 3119 2900 3481 
Q 2900 3844 2670 4047 
Q 2441 4250 2034 4250 
Q 1625 4250 1398 4047 
Q 1172 3844 1172 3481 
z
" transform="scale(0.015625)"/>
       </defs>
       <use xlink:href="#DejaVuSans-38"/>
      </g>
     </g>
    </g>
    <g id="xtick_3">
     <g id="line2d_3">
      <g>
       <use xlink:href="#m907dd741af" x="280.186364" y="288.36" style="stroke: #000000; stroke-width: 1.5"/>
      </g>
     </g>
     <g id="text_3">
      <!-- 9 -->
      <g transform="translate(276.368864 308.978125) scale(0.12 -0.12)">
       <defs>
        <path id="DejaVuSans-39" d="M 703 97 
L 703 672 
Q 941 559 1184 500 
Q 1428 441 1663 441 
Q 2288 441 2617 861 
Q 2947 1281 2994 2138 
Q 2813 1869 2534 1725 
Q 2256 1581 1919 1581 
Q 1219 1581 811 2004 
Q 403 2428 403 3163 
Q 403 3881 828 4315 
Q 1253 4750 1959 4750 
Q 2769 4750 3195 4129 
Q 3622 3509 3622 2328 
Q 3622 1225 3098 567 
Q 2575 -91 1691 -91 
Q 1453 -91 1209 -44 
Q 966 3 703 97 
z
M 1959 2075 
Q 2384 2075 2632 2365 
Q 2881 2656 2881 3163 
Q 2881 3666 2632 3958 
Q 2384 4250 1959 4250 
Q 1534 4250 1286 3958 
Q 1038 3666 1038 3163 
Q 1038 2656 1286 2365 
Q 1534 2075 1959 2075 
z
" transform="scale(0.015625)"/>
       </defs>
       <use xlink:href="#DejaVuSans-39"/>
      </g>
     </g>
    </g>
   </g>
   <g id="matplotlib.axis_2">
    <g id="ytick_1">
     <g id="line2d_4">
      <defs>
       <path id="mb4c39c771d" d="M 0 0 
L -8 0 
" style="stroke: #000000; stroke-width: 1.5"/>
      </defs>
      <g>
       <use xlink:href="#mb4c39c771d" x="40.5" y="262.957382" style="stroke: #000000; stroke-width: 1.5"/>
      </g>
     </g>
     <g id="text_4">
      <!-- 0.4 -->
      <g transform="translate(9.91625 267.516444) scale(0.12 -0.12)">
       <defs>
        <path id="DejaVuSans-30" d="M 2034 4250 
Q 1547 4250 1301 3770 
Q 1056 3291 1056 2328 
Q 1056 1369 1301 889 
Q 1547 409 2034 409 
Q 2525 409 2770 889 
Q 3016 1369 3016 2328 
Q 3016 3291 2770 3770 
Q 2525 4250 2034 4250 
z
M 2034 4750 
Q 2819 4750 3233 4129 
Q 3647 3509 3647 2328 
Q 3647 1150 3233 529 
Q 2819 -91 2034 -91 
Q 1250 -91 836 529 
Q 422 1150 422 2328 
Q 422 3509 836 4129 
Q 1250 4750 2034 4750 
z
" transform="scale(0.015625)"/>
        <path id="DejaVuSans-2e" d="M 684 794 
L 1344 794 
L 1344 0 
L 684 0 
L 684 794 
z
" transform="scale(0.015625)"/>
        <path id="DejaVuSans-34" d="M 2419 4116 
L 825 1625 
L 2419 1625 
L 2419 4116 
z
M 2253 4666 
L 3047 4666 
L 3047 1625 
L 3713 1625 
L 3713 1100 
L 3047 1100 
L 3047 0 
L 2419 0 
L 2419 1100 
L 313 1100 
L 313 1709 
L 2253 4666 
z
" transform="scale(0.015625)"/>
       </defs>
       <use xlink:href="#DejaVuSans-30"/>
       <use xlink:href="#DejaVuSans-2e" x="63.623047"/>
       <use xlink:href="#DejaVuSans-34" x="95.410156"/>
      </g>
     </g>
    </g>
    <g id="ytick_2">
     <g id="line2d_5">
      <g>
       <use xlink:href="#mb4c39c771d" x="40.5" y="232.068697" style="stroke: #000000; stroke-width: 1.5"/>
      </g>
     </g>
     <g id="text_5">
      <!-- 0.5 -->
      <g transform="translate(9.91625 236.62776) scale(0.12 -0.12)">
       <defs>
        <path id="DejaVuSans-35" d="M 691 4666 
L 3169 4666 
L 3169 4134 
L 1269 4134 
L 1269 2991 
Q 1406 3038 1543 3061 
Q 1681 3084 1819 3084 
Q 2600 3084 3056 2656 
Q 3513 2228 3513 1497 
Q 3513 744 3044 326 
Q 2575 -91 1722 -91 
Q 1428 -91 1123 -41 
Q 819 9 494 109 
L 494 744 
Q 775 591 1075 516 
Q 1375 441 1709 441 
Q 2250 441 2565 725 
Q 2881 1009 2881 1497 
Q 2881 1984 2565 2268 
Q 2250 2553 1709 2553 
Q 1456 2553 1204 2497 
Q 953 2441 691 2322 
L 691 4666 
z
" transform="scale(0.015625)"/>
       </defs>
       <use xlink:href="#DejaVuSans-30"/>
       <use xlink:href="#DejaVuSans-2e" x="63.623047"/>
       <use xlink:href="#DejaVuSans-35" x="95.410156"/>
      </g>
     </g>
    </g>
    <g id="ytick_3">
     <g id="line2d_6">
      <g>
       <use xlink:href="#mb4c39c771d" x="40.5" y="201.180013" style="stroke: #000000; stroke-width: 1.5"/>
      </g>
     </g>
     <g id="text_6">
      <!-- 0.6 -->
      <g transform="translate(9.91625 205.739075) scale(0.12 -0.12)">
       <defs>
        <path id="DejaVuSans-36" d="M 2113 2584 
Q 1688 2584 1439 2293 
Q 1191 2003 1191 1497 
Q 1191 994 1439 701 
Q 1688 409 2113 409 
Q 2538 409 2786 701 
Q 3034 994 3034 1497 
Q 3034 2003 2786 2293 
Q 2538 2584 2113 2584 
z
M 3366 4563 
L 3366 3988 
Q 3128 4100 2886 4159 
Q 2644 4219 2406 4219 
Q 1781 4219 1451 3797 
Q 1122 3375 1075 2522 
Q 1259 2794 1537 2939 
Q 1816 3084 2150 3084 
Q 2853 3084 3261 2657 
Q 3669 2231 3669 1497 
Q 3669 778 3244 343 
Q 2819 -91 2113 -91 
Q 1303 -91 875 529 
Q 447 1150 447 2328 
Q 447 3434 972 4092 
Q 1497 4750 2381 4750 
Q 2619 4750 2861 4703 
Q 3103 4656 3366 4563 
z
" transform="scale(0.015625)"/>
       </defs>
       <use xlink:href="#DejaVuSans-30"/>
       <use xlink:href="#DejaVuSans-2e" x="63.623047"/>
       <use xlink:href="#DejaVuSans-36" x="95.410156"/>
      </g>
     </g>
    </g>
    <g id="ytick_4">
     <g id="line2d_7">
      <g>
       <use xlink:href="#mb4c39c771d" x="40.5" y="170.291328" style="stroke: #000000; stroke-width: 1.5"/>
      </g>
     </g>
     <g id="text_7">
      <!-- 0.7 -->
      <g transform="translate(9.91625 174.850391) scale(0.12 -0.12)">
       <use xlink:href="#DejaVuSans-30"/>
       <use xlink:href="#DejaVuSans-2e" x="63.623047"/>
       <use xlink:href="#DejaVuSans-37" x="95.410156"/>
      </g>
     </g>
    </g>
    <g id="ytick_5">
     <g id="line2d_8">
      <g>
       <use xlink:href="#mb4c39c771d" x="40.5" y="139.402644" style="stroke: #000000; stroke-width: 1.5"/>
      </g>
     </g>
     <g id="text_8">
      <!-- 0.8 -->
      <g transform="translate(9.91625 143.961707) scale(0.12 -0.12)">
       <use xlink:href="#DejaVuSans-30"/>
       <use xlink:href="#DejaVuSans-2e" x="63.623047"/>
       <use xlink:href="#DejaVuSans-38" x="95.410156"/>
      </g>
     </g>
    </g>
    <g id="ytick_6">
     <g id="line2d_9">
      <g>
       <use xlink:href="#mb4c39c771d" x="40.5" y="108.51396" style="stroke: #000000; stroke-width: 1.5"/>
      </g>
     </g>
     <g id="text_9">
      <!-- 0.9 -->
      <g transform="translate(9.91625 113.073022) scale(0.12 -0.12)">
       <use xlink:href="#DejaVuSans-30"/>
       <use xlink:href="#DejaVuSans-2e" x="63.623047"/>
       <use xlink:href="#DejaVuSans-39" x="95.410156"/>
      </g>
     </g>
    </g>
    <g id="ytick_7">
     <g id="line2d_10">
      <g>
       <use xlink:href="#mb4c39c771d" x="40.5" y="77.625275" style="stroke: #000000; stroke-width: 1.5"/>
      </g>
     </g>
     <g id="text_10">
      <!-- 1.0 -->
      <g transform="translate(9.91625 82.184338) scale(0.12 -0.12)">
       <defs>
        <path id="DejaVuSans-31" d="M 794 531 
L 1825 531 
L 1825 4091 
L 703 3866 
L 703 4441 
L 1819 4666 
L 2450 4666 
L 2450 531 
L 3481 531 
L 3481 0 
L 794 0 
L 794 531 
z
" transform="scale(0.015625)"/>
       </defs>
       <use xlink:href="#DejaVuSans-31"/>
       <use xlink:href="#DejaVuSans-2e" x="63.623047"/>
       <use xlink:href="#DejaVuSans-30" x="95.410156"/>
      </g>
     </g>
    </g>
    <g id="ytick_8">
     <g id="line2d_11">
      <g>
       <use xlink:href="#mb4c39c771d" x="40.5" y="46.736591" style="stroke: #000000; stroke-width: 1.5"/>
      </g>
     </g>
     <g id="text_11">
      <!-- 1.1 -->
      <g transform="translate(9.91625 51.295653) scale(0.12 -0.12)">
       <use xlink:href="#DejaVuSans-31"/>
       <use xlink:href="#DejaVuSans-2e" x="63.623047"/>
       <use xlink:href="#DejaVuSans-31" x="95.410156"/>
      </g>
     </g>
    </g>
   </g>
   <g id="line2d_12">
    <path d="M 51.913636 159.971139 
L 68.218831 169.945739 
L 84.524026 179.931735 
L 100.829221 188.204309 
L 117.134416 196.623742 
L 133.43961 203.908425 
L 149.744805 208.628606 
L 166.05 213.667348 
L 182.355195 218.290162 
L 198.66039 222.278778 
L 214.965584 226.451236 
L 231.270779 231.092762 
L 247.575974 234.558975 
L 263.881169 238.554241 
L 280.186364 241.919924 
" clip-path="url(#p29bdae4ad6)" style="fill: none; stroke: #ff0000; stroke-width: 1.5; stroke-linecap: square"/>
   </g>
   <g id="LineCollection_1">
    <path d="M 51.913636 160.153512 
L 51.913636 159.788765 
" clip-path="url(#p29bdae4ad6)" style="fill: none; stroke: #ff0000; stroke-width: 2"/>
    <path d="M 68.218831 170.220981 
L 68.218831 169.670497 
" clip-path="url(#p29bdae4ad6)" style="fill: none; stroke: #ff0000; stroke-width: 2"/>
    <path d="M 84.524026 180.173964 
L 84.524026 179.689506 
" clip-path="url(#p29bdae4ad6)" style="fill: none; stroke: #ff0000; stroke-width: 2"/>
    <path d="M 100.829221 188.581988 
L 100.829221 187.826631 
" clip-path="url(#p29bdae4ad6)" style="fill: none; stroke: #ff0000; stroke-width: 2"/>
    <path d="M 117.134416 196.957969 
L 117.134416 196.289514 
" clip-path="url(#p29bdae4ad6)" style="fill: none; stroke: #ff0000; stroke-width: 2"/>
    <path d="M 133.43961 204.190463 
L 133.43961 203.626387 
" clip-path="url(#p29bdae4ad6)" style="fill: none; stroke: #ff0000; stroke-width: 2"/>
    <path d="M 149.744805 209.001403 
L 149.744805 208.25581 
" clip-path="url(#p29bdae4ad6)" style="fill: none; stroke: #ff0000; stroke-width: 2"/>
    <path d="M 166.05 213.857593 
L 166.05 213.477103 
" clip-path="url(#p29bdae4ad6)" style="fill: none; stroke: #ff0000; stroke-width: 2"/>
    <path d="M 182.355195 218.425916 
L 182.355195 218.154408 
" clip-path="url(#p29bdae4ad6)" style="fill: none; stroke: #ff0000; stroke-width: 2"/>
    <path d="M 198.66039 222.510003 
L 198.66039 222.047554 
" clip-path="url(#p29bdae4ad6)" style="fill: none; stroke: #ff0000; stroke-width: 2"/>
    <path d="M 214.965584 226.695208 
L 214.965584 226.207264 
" clip-path="url(#p29bdae4ad6)" style="fill: none; stroke: #ff0000; stroke-width: 2"/>
    <path d="M 231.270779 231.339264 
L 231.270779 230.84626 
" clip-path="url(#p29bdae4ad6)" style="fill: none; stroke: #ff0000; stroke-width: 2"/>
    <path d="M 247.575974 234.870946 
L 247.575974 234.247004 
" clip-path="url(#p29bdae4ad6)" style="fill: none; stroke: #ff0000; stroke-width: 2"/>
    <path d="M 263.881169 238.739163 
L 263.881169 238.36932 
" clip-path="url(#p29bdae4ad6)" style="fill: none; stroke: #ff0000; stroke-width: 2"/>
    <path d="M 280.186364 242.0796 
L 280.186364 241.760249 
" clip-path="url(#p29bdae4ad6)" style="fill: none; stroke: #ff0000; stroke-width: 2"/>
   </g>
   <g id="line2d_13">
    <defs>
     <path id="mbeb567eefc" d="M 3 0 
L -3 -0 
" style="stroke: #ff0000; stroke-width: 2"/>
    </defs>
    <g clip-path="url(#p29bdae4ad6)">
     <use xlink:href="#mbeb567eefc" x="51.913636" y="160.153512" style="fill: #ff0000; stroke: #ff0000; stroke-width: 2"/>
     <use xlink:href="#mbeb567eefc" x="68.218831" y="170.220981" style="fill: #ff0000; stroke: #ff0000; stroke-width: 2"/>
     <use xlink:href="#mbeb567eefc" x="84.524026" y="180.173964" style="fill: #ff0000; stroke: #ff0000; stroke-width: 2"/>
     <use xlink:href="#mbeb567eefc" x="100.829221" y="188.581988" style="fill: #ff0000; stroke: #ff0000; stroke-width: 2"/>
     <use xlink:href="#mbeb567eefc" x="117.134416" y="196.957969" style="fill: #ff0000; stroke: #ff0000; stroke-width: 2"/>
     <use xlink:href="#mbeb567eefc" x="133.43961" y="204.190463" style="fill: #ff0000; stroke: #ff0000; stroke-width: 2"/>
     <use xlink:href="#mbeb567eefc" x="149.744805" y="209.001403" style="fill: #ff0000; stroke: #ff0000; stroke-width: 2"/>
     <use xlink:href="#mbeb567eefc" x="166.05" y="213.857593" style="fill: #ff0000; stroke: #ff0000; stroke-width: 2"/>
     <use xlink:href="#mbeb567eefc" x="182.355195" y="218.425916" style="fill: #ff0000; stroke: #ff0000; stroke-width: 2"/>
     <use xlink:href="#mbeb567eefc" x="198.66039" y="222.510003" style="fill: #ff0000; stroke: #ff0000; stroke-width: 2"/>
     <use xlink:href="#mbeb567eefc" x="214.965584" y="226.695208" style="fill: #ff0000; stroke: #ff0000; stroke-width: 2"/>
     <use xlink:href="#mbeb567eefc" x="231.270779" y="231.339264" style="fill: #ff0000; stroke: #ff0000; stroke-width: 2"/>
     <use xlink:href="#mbeb567eefc" x="247.575974" y="234.870946" style="fill: #ff0000; stroke: #ff0000; stroke-width: 2"/>
     <use xlink:href="#mbeb567eefc" x="263.881169" y="238.739163" style="fill: #ff0000; stroke: #ff0000; stroke-width: 2"/>
     <use xlink:href="#mbeb567eefc" x="280.186364" y="242.0796" style="fill: #ff0000; stroke: #ff0000; stroke-width: 2"/>
    </g>
   </g>
   <g id="line2d_14">
    <g clip-path="url(#p29bdae4ad6)">
     <use xlink:href="#mbeb567eefc" x="51.913636" y="159.788765" style="fill: #ff0000; stroke: #ff0000; stroke-width: 2"/>
     <use xlink:href="#mbeb567eefc" x="68.218831" y="169.670497" style="fill: #ff0000; stroke: #ff0000; stroke-width: 2"/>
     <use xlink:href="#mbeb567eefc" x="84.524026" y="179.689506" style="fill: #ff0000; stroke: #ff0000; stroke-width: 2"/>
     <use xlink:href="#mbeb567eefc" x="100.829221" y="187.826631" style="fill: #ff0000; stroke: #ff0000; stroke-width: 2"/>
     <use xlink:href="#mbeb567eefc" x="117.134416" y="196.289514" style="fill: #ff0000; stroke: #ff0000; stroke-width: 2"/>
     <use xlink:href="#mbeb567eefc" x="133.43961" y="203.626387" style="fill: #ff0000; stroke: #ff0000; stroke-width: 2"/>
     <use xlink:href="#mbeb567eefc" x="149.744805" y="208.25581" style="fill: #ff0000; stroke: #ff0000; stroke-width: 2"/>
     <use xlink:href="#mbeb567eefc" x="166.05" y="213.477103" style="fill: #ff0000; stroke: #ff0000; stroke-width: 2"/>
     <use xlink:href="#mbeb567eefc" x="182.355195" y="218.154408" style="fill: #ff0000; stroke: #ff0000; stroke-width: 2"/>
     <use xlink:href="#mbeb567eefc" x="198.66039" y="222.047554" style="fill: #ff0000; stroke: #ff0000; stroke-width: 2"/>
     <use xlink:href="#mbeb567eefc" x="214.965584" y="226.207264" style="fill: #ff0000; stroke: #ff0000; stroke-width: 2"/>
     <use xlink:href="#mbeb567eefc" x="231.270779" y="230.84626" style="fill: #ff0000; stroke: #ff0000; stroke-width: 2"/>
     <use xlink:href="#mbeb567eefc" x="247.575974" y="234.247004" style="fill: #ff0000; stroke: #ff0000; stroke-width: 2"/>
     <use xlink:href="#mbeb567eefc" x="263.881169" y="238.36932" style="fill: #ff0000; stroke: #ff0000; stroke-width: 2"/>
     <use xlink:href="#mbeb567eefc" x="280.186364" y="241.760249" style="fill: #ff0000; stroke: #ff0000; stroke-width: 2"/>
    </g>
   </g>
   <g id="line2d_15">
    <path d="M 51.913636 114.751301 
L 68.218831 132.657289 
L 84.524026 151.73206 
L 100.829221 172.000041 
L 117.134416 188.216599 
L 133.43961 198.86594 
L 149.744805 207.83992 
L 166.05 215.009222 
L 182.355195 221.71532 
L 198.66039 228.71502 
L 214.965584 234.632745 
L 231.270779 240.593507 
L 247.575974 245.876259 
L 263.881169 251.937668 
L 280.186364 256.646064 
" clip-path="url(#p29bdae4ad6)" style="fill: none; stroke: #000000; stroke-width: 1.5; stroke-linecap: square"/>
   </g>
   <g id="LineCollection_2">
    <path d="M 51.913636 115.107678 
L 51.913636 114.394923 
" clip-path="url(#p29bdae4ad6)" style="fill: none; stroke: #000000; stroke-width: 2"/>
    <path d="M 68.218831 133.65263 
L 68.218831 131.661947 
" clip-path="url(#p29bdae4ad6)" style="fill: none; stroke: #000000; stroke-width: 2"/>
    <path d="M 84.524026 152.690887 
L 84.524026 150.773234 
" clip-path="url(#p29bdae4ad6)" style="fill: none; stroke: #000000; stroke-width: 2"/>
    <path d="M 100.829221 172.326946 
L 100.829221 171.673136 
" clip-path="url(#p29bdae4ad6)" style="fill: none; stroke: #000000; stroke-width: 2"/>
    <path d="M 117.134416 188.341515 
L 117.134416 188.091683 
" clip-path="url(#p29bdae4ad6)" style="fill: none; stroke: #000000; stroke-width: 2"/>
    <path d="M 133.43961 199.179728 
L 133.43961 198.552152 
" clip-path="url(#p29bdae4ad6)" style="fill: none; stroke: #000000; stroke-width: 2"/>
    <path d="M 149.744805 208.352328 
L 149.744805 207.327513 
" clip-path="url(#p29bdae4ad6)" style="fill: none; stroke: #000000; stroke-width: 2"/>
    <path d="M 166.05 215.333606 
L 166.05 214.684837 
" clip-path="url(#p29bdae4ad6)" style="fill: none; stroke: #000000; stroke-width: 2"/>
    <path d="M 182.355195 221.989916 
L 182.355195 221.440724 
" clip-path="url(#p29bdae4ad6)" style="fill: none; stroke: #000000; stroke-width: 2"/>
    <path d="M 198.66039 229.055384 
L 198.66039 228.374655 
" clip-path="url(#p29bdae4ad6)" style="fill: none; stroke: #000000; stroke-width: 2"/>
    <path d="M 214.965584 234.910937 
L 214.965584 234.354553 
" clip-path="url(#p29bdae4ad6)" style="fill: none; stroke: #000000; stroke-width: 2"/>
    <path d="M 231.270779 240.95304 
L 231.270779 240.233975 
" clip-path="url(#p29bdae4ad6)" style="fill: none; stroke: #000000; stroke-width: 2"/>
    <path d="M 247.575974 246.203685 
L 247.575974 245.548833 
" clip-path="url(#p29bdae4ad6)" style="fill: none; stroke: #000000; stroke-width: 2"/>
    <path d="M 263.881169 252.264413 
L 263.881169 251.610923 
" clip-path="url(#p29bdae4ad6)" style="fill: none; stroke: #000000; stroke-width: 2"/>
    <path d="M 280.186364 256.781848 
L 280.186364 256.510281 
" clip-path="url(#p29bdae4ad6)" style="fill: none; stroke: #000000; stroke-width: 2"/>
   </g>
   <g id="line2d_16">
    <defs>
     <path id="m65e788e315" d="M 3 0 
L -3 -0 
" style="stroke: #000000; stroke-width: 2"/>
    </defs>
    <g clip-path="url(#p29bdae4ad6)">
     <use xlink:href="#m65e788e315" x="51.913636" y="115.107678" style="stroke: #000000; stroke-width: 2"/>
     <use xlink:href="#m65e788e315" x="68.218831" y="133.65263" style="stroke: #000000; stroke-width: 2"/>
     <use xlink:href="#m65e788e315" x="84.524026" y="152.690887" style="stroke: #000000; stroke-width: 2"/>
     <use xlink:href="#m65e788e315" x="100.829221" y="172.326946" style="stroke: #000000; stroke-width: 2"/>
     <use xlink:href="#m65e788e315" x="117.134416" y="188.341515" style="stroke: #000000; stroke-width: 2"/>
     <use xlink:href="#m65e788e315" x="133.43961" y="199.179728" style="stroke: #000000; stroke-width: 2"/>
     <use xlink:href="#m65e788e315" x="149.744805" y="208.352328" style="stroke: #000000; stroke-width: 2"/>
     <use xlink:href="#m65e788e315" x="166.05" y="215.333606" style="stroke: #000000; stroke-width: 2"/>
     <use xlink:href="#m65e788e315" x="182.355195" y="221.989916" style="stroke: #000000; stroke-width: 2"/>
     <use xlink:href="#m65e788e315" x="198.66039" y="229.055384" style="stroke: #000000; stroke-width: 2"/>
     <use xlink:href="#m65e788e315" x="214.965584" y="234.910937" style="stroke: #000000; stroke-width: 2"/>
     <use xlink:href="#m65e788e315" x="231.270779" y="240.95304" style="stroke: #000000; stroke-width: 2"/>
     <use xlink:href="#m65e788e315" x="247.575974" y="246.203685" style="stroke: #000000; stroke-width: 2"/>
     <use xlink:href="#m65e788e315" x="263.881169" y="252.264413" style="stroke: #000000; stroke-width: 2"/>
     <use xlink:href="#m65e788e315" x="280.186364" y="256.781848" style="stroke: #000000; stroke-width: 2"/>
    </g>
   </g>
   <g id="line2d_17">
    <g clip-path="url(#p29bdae4ad6)">
     <use xlink:href="#m65e788e315" x="51.913636" y="114.394923" style="stroke: #000000; stroke-width: 2"/>
     <use xlink:href="#m65e788e315" x="68.218831" y="131.661947" style="stroke: #000000; stroke-width: 2"/>
     <use xlink:href="#m65e788e315" x="84.524026" y="150.773234" style="stroke: #000000; stroke-width: 2"/>
     <use xlink:href="#m65e788e315" x="100.829221" y="171.673136" style="stroke: #000000; stroke-width: 2"/>
     <use xlink:href="#m65e788e315" x="117.134416" y="188.091683" style="stroke: #000000; stroke-width: 2"/>
     <use xlink:href="#m65e788e315" x="133.43961" y="198.552152" style="stroke: #000000; stroke-width: 2"/>
     <use xlink:href="#m65e788e315" x="149.744805" y="207.327513" style="stroke: #000000; stroke-width: 2"/>
     <use xlink:href="#m65e788e315" x="166.05" y="214.684837" style="stroke: #000000; stroke-width: 2"/>
     <use xlink:href="#m65e788e315" x="182.355195" y="221.440724" style="stroke: #000000; stroke-width: 2"/>
     <use xlink:href="#m65e788e315" x="198.66039" y="228.374655" style="stroke: #000000; stroke-width: 2"/>
     <use xlink:href="#m65e788e315" x="214.965584" y="234.354553" style="stroke: #000000; stroke-width: 2"/>
     <use xlink:href="#m65e788e315" x="231.270779" y="240.233975" style="stroke: #000000; stroke-width: 2"/>
     <use xlink:href="#m65e788e315" x="247.575974" y="245.548833" style="stroke: #000000; stroke-width: 2"/>
     <use xlink:href="#m65e788e315" x="263.881169" y="251.610923" style="stroke: #000000; stroke-width: 2"/>
     <use xlink:href="#m65e788e315" x="280.186364" y="256.510281" style="stroke: #000000; stroke-width: 2"/>
    </g>
   </g>
   <g id="line2d_18">
    <path d="M 51.913636 83.061239 
L 68.218831 108.015572 
L 84.524026 135.895443 
L 100.829221 160.541887 
L 117.134416 181.280938 
L 133.43961 196.571665 
L 149.744805 207.767934 
L 166.05 216.237333 
L 182.355195 224.982964 
L 198.66039 233.090822 
L 214.965584 241.387864 
L 231.270779 247.507759 
L 247.575974 254.875249 
L 263.881169 261.279018 
L 280.186364 267.885443 
" clip-path="url(#p29bdae4ad6)" style="fill: none; stroke: #0000ff; stroke-width: 1.5; stroke-linecap: square"/>
   </g>
   <g id="LineCollection_3">
    <path d="M 51.913636 84.155492 
L 51.913636 81.966987 
" clip-path="url(#p29bdae4ad6)" style="fill: none; stroke: #0000ff; stroke-width: 2"/>
    <path d="M 68.218831 108.965509 
L 68.218831 107.065634 
" clip-path="url(#p29bdae4ad6)" style="fill: none; stroke: #0000ff; stroke-width: 2"/>
    <path d="M 84.524026 136.839925 
L 84.524026 134.950961 
" clip-path="url(#p29bdae4ad6)" style="fill: none; stroke: #0000ff; stroke-width: 2"/>
    <path d="M 100.829221 160.987861 
L 100.829221 160.095913 
" clip-path="url(#p29bdae4ad6)" style="fill: none; stroke: #0000ff; stroke-width: 2"/>
    <path d="M 117.134416 181.850315 
L 117.134416 180.711561 
" clip-path="url(#p29bdae4ad6)" style="fill: none; stroke: #0000ff; stroke-width: 2"/>
    <path d="M 133.43961 196.790409 
L 133.43961 196.35292 
" clip-path="url(#p29bdae4ad6)" style="fill: none; stroke: #0000ff; stroke-width: 2"/>
    <path d="M 149.744805 208.149471 
L 149.744805 207.386398 
" clip-path="url(#p29bdae4ad6)" style="fill: none; stroke: #0000ff; stroke-width: 2"/>
    <path d="M 166.05 216.531061 
L 166.05 215.943604 
" clip-path="url(#p29bdae4ad6)" style="fill: none; stroke: #0000ff; stroke-width: 2"/>
    <path d="M 182.355195 225.324749 
L 182.355195 224.641179 
" clip-path="url(#p29bdae4ad6)" style="fill: none; stroke: #0000ff; stroke-width: 2"/>
    <path d="M 198.66039 233.425795 
L 198.66039 232.755849 
" clip-path="url(#p29bdae4ad6)" style="fill: none; stroke: #0000ff; stroke-width: 2"/>
    <path d="M 214.965584 241.893086 
L 214.965584 240.882642 
" clip-path="url(#p29bdae4ad6)" style="fill: none; stroke: #0000ff; stroke-width: 2"/>
    <path d="M 231.270779 247.906058 
L 231.270779 247.10946 
" clip-path="url(#p29bdae4ad6)" style="fill: none; stroke: #0000ff; stroke-width: 2"/>
    <path d="M 247.575974 255.075512 
L 247.575974 254.674986 
" clip-path="url(#p29bdae4ad6)" style="fill: none; stroke: #0000ff; stroke-width: 2"/>
    <path d="M 263.881169 261.635581 
L 263.881169 260.922455 
" clip-path="url(#p29bdae4ad6)" style="fill: none; stroke: #0000ff; stroke-width: 2"/>
    <path d="M 280.186364 268.047956 
L 280.186364 267.72293 
" clip-path="url(#p29bdae4ad6)" style="fill: none; stroke: #0000ff; stroke-width: 2"/>
   </g>
   <g id="line2d_19">
    <defs>
     <path id="maec920db7b" d="M 3 0 
L -3 -0 
" style="stroke: #0000ff; stroke-width: 2"/>
    </defs>
    <g clip-path="url(#p29bdae4ad6)">
     <use xlink:href="#maec920db7b" x="51.913636" y="84.155492" style="fill: #0000ff; stroke: #0000ff; stroke-width: 2"/>
     <use xlink:href="#maec920db7b" x="68.218831" y="108.965509" style="fill: #0000ff; stroke: #0000ff; stroke-width: 2"/>
     <use xlink:href="#maec920db7b" x="84.524026" y="136.839925" style="fill: #0000ff; stroke: #0000ff; stroke-width: 2"/>
     <use xlink:href="#maec920db7b" x="100.829221" y="160.987861" style="fill: #0000ff; stroke: #0000ff; stroke-width: 2"/>
     <use xlink:href="#maec920db7b" x="117.134416" y="181.850315" style="fill: #0000ff; stroke: #0000ff; stroke-width: 2"/>
     <use xlink:href="#maec920db7b" x="133.43961" y="196.790409" style="fill: #0000ff; stroke: #0000ff; stroke-width: 2"/>
     <use xlink:href="#maec920db7b" x="149.744805" y="208.149471" style="fill: #0000ff; stroke: #0000ff; stroke-width: 2"/>
     <use xlink:href="#maec920db7b" x="166.05" y="216.531061" style="fill: #0000ff; stroke: #0000ff; stroke-width: 2"/>
     <use xlink:href="#maec920db7b" x="182.355195" y="225.324749" style="fill: #0000ff; stroke: #0000ff; stroke-width: 2"/>
     <use xlink:href="#maec920db7b" x="198.66039" y="233.425795" style="fill: #0000ff; stroke: #0000ff; stroke-width: 2"/>
     <use xlink:href="#maec920db7b" x="214.965584" y="241.893086" style="fill: #0000ff; stroke: #0000ff; stroke-width: 2"/>
     <use xlink:href="#maec920db7b" x="231.270779" y="247.906058" style="fill: #0000ff; stroke: #0000ff; stroke-width: 2"/>
     <use xlink:href="#maec920db7b" x="247.575974" y="255.075512" style="fill: #0000ff; stroke: #0000ff; stroke-width: 2"/>
     <use xlink:href="#maec920db7b" x="263.881169" y="261.635581" style="fill: #0000ff; stroke: #0000ff; stroke-width: 2"/>
     <use xlink:href="#maec920db7b" x="280.186364" y="268.047956" style="fill: #0000ff; stroke: #0000ff; stroke-width: 2"/>
    </g>
   </g>
   <g id="line2d_20">
    <g clip-path="url(#p29bdae4ad6)">
     <use xlink:href="#maec920db7b" x="51.913636" y="81.966987" style="fill: #0000ff; stroke: #0000ff; stroke-width: 2"/>
     <use xlink:href="#maec920db7b" x="68.218831" y="107.065634" style="fill: #0000ff; stroke: #0000ff; stroke-width: 2"/>
     <use xlink:href="#maec920db7b" x="84.524026" y="134.950961" style="fill: #0000ff; stroke: #0000ff; stroke-width: 2"/>
     <use xlink:href="#maec920db7b" x="100.829221" y="160.095913" style="fill: #0000ff; stroke: #0000ff; stroke-width: 2"/>
     <use xlink:href="#maec920db7b" x="117.134416" y="180.711561" style="fill: #0000ff; stroke: #0000ff; stroke-width: 2"/>
     <use xlink:href="#maec920db7b" x="133.43961" y="196.35292" style="fill: #0000ff; stroke: #0000ff; stroke-width: 2"/>
     <use xlink:href="#maec920db7b" x="149.744805" y="207.386398" style="fill: #0000ff; stroke: #0000ff; stroke-width: 2"/>
     <use xlink:href="#maec920db7b" x="166.05" y="215.943604" style="fill: #0000ff; stroke: #0000ff; stroke-width: 2"/>
     <use xlink:href="#maec920db7b" x="182.355195" y="224.641179" style="fill: #0000ff; stroke: #0000ff; stroke-width: 2"/>
     <use xlink:href="#maec920db7b" x="198.66039" y="232.755849" style="fill: #0000ff; stroke: #0000ff; stroke-width: 2"/>
     <use xlink:href="#maec920db7b" x="214.965584" y="240.882642" style="fill: #0000ff; stroke: #0000ff; stroke-width: 2"/>
     <use xlink:href="#maec920db7b" x="231.270779" y="247.10946" style="fill: #0000ff; stroke: #0000ff; stroke-width: 2"/>
     <use xlink:href="#maec920db7b" x="247.575974" y="254.674986" style="fill: #0000ff; stroke: #0000ff; stroke-width: 2"/>
     <use xlink:href="#maec920db7b" x="263.881169" y="260.922455" style="fill: #0000ff; stroke: #0000ff; stroke-width: 2"/>
     <use xlink:href="#maec920db7b" x="280.186364" y="267.72293" style="fill: #0000ff; stroke: #0000ff; stroke-width: 2"/>
    </g>
   </g>
   <g id="line2d_21">
    <path d="M 51.913636 52.031603 
L 68.218831 82.663217 
L 84.524026 118.509443 
L 100.829221 150.58583 
L 117.134416 175.910664 
L 133.43961 193.167904 
L 149.744805 207.355138 
L 166.05 218.563727 
L 182.355195 229.124311 
L 198.66039 237.892261 
L 214.965584 246.742908 
L 231.270779 254.765157 
L 247.575974 261.649298 
L 263.881169 270.091639 
L 280.186364 276.758789 
" clip-path="url(#p29bdae4ad6)" style="fill: none; stroke: #bf00bf; stroke-width: 1.5; stroke-linecap: square"/>
   </g>
   <g id="LineCollection_4">
    <path d="M 51.913636 53.843207 
L 51.913636 50.22 
" clip-path="url(#p29bdae4ad6)" style="fill: none; stroke: #bf00bf; stroke-width: 2"/>
    <path d="M 68.218831 84.130974 
L 68.218831 81.19546 
" clip-path="url(#p29bdae4ad6)" style="fill: none; stroke: #bf00bf; stroke-width: 2"/>
    <path d="M 84.524026 119.385011 
L 84.524026 117.633876 
" clip-path="url(#p29bdae4ad6)" style="fill: none; stroke: #bf00bf; stroke-width: 2"/>
    <path d="M 100.829221 151.81943 
L 100.829221 149.352231 
" clip-path="url(#p29bdae4ad6)" style="fill: none; stroke: #bf00bf; stroke-width: 2"/>
    <path d="M 117.134416 176.380039 
L 117.134416 175.44129 
" clip-path="url(#p29bdae4ad6)" style="fill: none; stroke: #bf00bf; stroke-width: 2"/>
    <path d="M 133.43961 193.896213 
L 133.43961 192.439594 
" clip-path="url(#p29bdae4ad6)" style="fill: none; stroke: #bf00bf; stroke-width: 2"/>
    <path d="M 149.744805 208.023382 
L 149.744805 206.686894 
" clip-path="url(#p29bdae4ad6)" style="fill: none; stroke: #bf00bf; stroke-width: 2"/>
    <path d="M 166.05 219.005597 
L 166.05 218.121857 
" clip-path="url(#p29bdae4ad6)" style="fill: none; stroke: #bf00bf; stroke-width: 2"/>
    <path d="M 182.355195 229.736181 
L 182.355195 228.512441 
" clip-path="url(#p29bdae4ad6)" style="fill: none; stroke: #bf00bf; stroke-width: 2"/>
    <path d="M 198.66039 238.252505 
L 198.66039 237.532017 
" clip-path="url(#p29bdae4ad6)" style="fill: none; stroke: #bf00bf; stroke-width: 2"/>
    <path d="M 214.965584 246.818061 
L 214.965584 246.667754 
" clip-path="url(#p29bdae4ad6)" style="fill: none; stroke: #bf00bf; stroke-width: 2"/>
    <path d="M 231.270779 255.308654 
L 231.270779 254.22166 
" clip-path="url(#p29bdae4ad6)" style="fill: none; stroke: #bf00bf; stroke-width: 2"/>
    <path d="M 247.575974 262.066704 
L 247.575974 261.231892 
" clip-path="url(#p29bdae4ad6)" style="fill: none; stroke: #bf00bf; stroke-width: 2"/>
    <path d="M 263.881169 270.419281 
L 263.881169 269.763998 
" clip-path="url(#p29bdae4ad6)" style="fill: none; stroke: #bf00bf; stroke-width: 2"/>
    <path d="M 280.186364 277.02 
L 280.186364 276.497577 
" clip-path="url(#p29bdae4ad6)" style="fill: none; stroke: #bf00bf; stroke-width: 2"/>
   </g>
   <g id="line2d_22">
    <defs>
     <path id="mebb52a46c2" d="M 3 0 
L -3 -0 
" style="stroke: #bf00bf; stroke-width: 2"/>
    </defs>
    <g clip-path="url(#p29bdae4ad6)">
     <use xlink:href="#mebb52a46c2" x="51.913636" y="53.843207" style="fill: #bf00bf; stroke: #bf00bf; stroke-width: 2"/>
     <use xlink:href="#mebb52a46c2" x="68.218831" y="84.130974" style="fill: #bf00bf; stroke: #bf00bf; stroke-width: 2"/>
     <use xlink:href="#mebb52a46c2" x="84.524026" y="119.385011" style="fill: #bf00bf; stroke: #bf00bf; stroke-width: 2"/>
     <use xlink:href="#mebb52a46c2" x="100.829221" y="151.81943" style="fill: #bf00bf; stroke: #bf00bf; stroke-width: 2"/>
     <use xlink:href="#mebb52a46c2" x="117.134416" y="176.380039" style="fill: #bf00bf; stroke: #bf00bf; stroke-width: 2"/>
     <use xlink:href="#mebb52a46c2" x="133.43961" y="193.896213" style="fill: #bf00bf; stroke: #bf00bf; stroke-width: 2"/>
     <use xlink:href="#mebb52a46c2" x="149.744805" y="208.023382" style="fill: #bf00bf; stroke: #bf00bf; stroke-width: 2"/>
     <use xlink:href="#mebb52a46c2" x="166.05" y="219.005597" style="fill: #bf00bf; stroke: #bf00bf; stroke-width: 2"/>
     <use xlink:href="#mebb52a46c2" x="182.355195" y="229.736181" style="fill: #bf00bf; stroke: #bf00bf; stroke-width: 2"/>
     <use xlink:href="#mebb52a46c2" x="198.66039" y="238.252505" style="fill: #bf00bf; stroke: #bf00bf; stroke-width: 2"/>
     <use xlink:href="#mebb52a46c2" x="214.965584" y="246.818061" style="fill: #bf00bf; stroke: #bf00bf; stroke-width: 2"/>
     <use xlink:href="#mebb52a46c2" x="231.270779" y="255.308654" style="fill: #bf00bf; stroke: #bf00bf; stroke-width: 2"/>
     <use xlink:href="#mebb52a46c2" x="247.575974" y="262.066704" style="fill: #bf00bf; stroke: #bf00bf; stroke-width: 2"/>
     <use xlink:href="#mebb52a46c2" x="263.881169" y="270.419281" style="fill: #bf00bf; stroke: #bf00bf; stroke-width: 2"/>
     <use xlink:href="#mebb52a46c2" x="280.186364" y="277.02" style="fill: #bf00bf; stroke: #bf00bf; stroke-width: 2"/>
    </g>
   </g>
   <g id="line2d_23">
    <g clip-path="url(#p29bdae4ad6)">
     <use xlink:href="#mebb52a46c2" x="51.913636" y="50.22" style="fill: #bf00bf; stroke: #bf00bf; stroke-width: 2"/>
     <use xlink:href="#mebb52a46c2" x="68.218831" y="81.19546" style="fill: #bf00bf; stroke: #bf00bf; stroke-width: 2"/>
     <use xlink:href="#mebb52a46c2" x="84.524026" y="117.633876" style="fill: #bf00bf; stroke: #bf00bf; stroke-width: 2"/>
     <use xlink:href="#mebb52a46c2" x="100.829221" y="149.352231" style="fill: #bf00bf; stroke: #bf00bf; stroke-width: 2"/>
     <use xlink:href="#mebb52a46c2" x="117.134416" y="175.44129" style="fill: #bf00bf; stroke: #bf00bf; stroke-width: 2"/>
     <use xlink:href="#mebb52a46c2" x="133.43961" y="192.439594" style="fill: #bf00bf; stroke: #bf00bf; stroke-width: 2"/>
     <use xlink:href="#mebb52a46c2" x="149.744805" y="206.686894" style="fill: #bf00bf; stroke: #bf00bf; stroke-width: 2"/>
     <use xlink:href="#mebb52a46c2" x="166.05" y="218.121857" style="fill: #bf00bf; stroke: #bf00bf; stroke-width: 2"/>
     <use xlink:href="#mebb52a46c2" x="182.355195" y="228.512441" style="fill: #bf00bf; stroke: #bf00bf; stroke-width: 2"/>
     <use xlink:href="#mebb52a46c2" x="198.66039" y="237.532017" style="fill: #bf00bf; stroke: #bf00bf; stroke-width: 2"/>
     <use xlink:href="#mebb52a46c2" x="214.965584" y="246.667754" style="fill: #bf00bf; stroke: #bf00bf; stroke-width: 2"/>
     <use xlink:href="#mebb52a46c2" x="231.270779" y="254.22166" style="fill: #bf00bf; stroke: #bf00bf; stroke-width: 2"/>
     <use xlink:href="#mebb52a46c2" x="247.575974" y="261.231892" style="fill: #bf00bf; stroke: #bf00bf; stroke-width: 2"/>
     <use xlink:href="#mebb52a46c2" x="263.881169" y="269.763998" style="fill: #bf00bf; stroke: #bf00bf; stroke-width: 2"/>
     <use xlink:href="#mebb52a46c2" x="280.186364" y="276.497577" style="fill: #bf00bf; stroke: #bf00bf; stroke-width: 2"/>
    </g>
   </g>
   <g id="line2d_24">
    <path d="M 51.913636 159.971139 
L 68.218831 169.945739 
L 84.524026 179.931735 
L 100.829221 188.204309 
L 117.134416 196.623742 
L 133.43961 203.908425 
L 149.744805 208.628606 
L 166.05 213.667348 
L 182.355195 218.290162 
L 198.66039 222.278778 
L 214.965584 226.451236 
L 231.270779 231.092762 
L 247.575974 234.558975 
L 263.881169 238.554241 
L 280.186364 241.919924 
" clip-path="url(#p29bdae4ad6)" style="fill: none; stroke: #ff0000; stroke-width: 1.5; stroke-linecap: square"/>
   </g>
   <g id="line2d_25">
    <path d="M 51.913636 114.751301 
L 68.218831 132.657289 
L 84.524026 151.73206 
L 100.829221 172.000041 
L 117.134416 188.216599 
L 133.43961 198.86594 
L 149.744805 207.83992 
L 166.05 215.009222 
L 182.355195 221.71532 
L 198.66039 228.71502 
L 214.965584 234.632745 
L 231.270779 240.593507 
L 247.575974 245.876259 
L 263.881169 251.937668 
L 280.186364 256.646064 
" clip-path="url(#p29bdae4ad6)" style="fill: none; stroke: #000000; stroke-width: 1.5; stroke-linecap: square"/>
   </g>
   <g id="line2d_26">
    <path d="M 51.913636 83.061239 
L 68.218831 108.015572 
L 84.524026 135.895443 
L 100.829221 160.541887 
L 117.134416 181.280938 
L 133.43961 196.571665 
L 149.744805 207.767934 
L 166.05 216.237333 
L 182.355195 224.982964 
L 198.66039 233.090822 
L 214.965584 241.387864 
L 231.270779 247.507759 
L 247.575974 254.875249 
L 263.881169 261.279018 
L 280.186364 267.885443 
" clip-path="url(#p29bdae4ad6)" style="fill: none; stroke: #0000ff; stroke-width: 1.5; stroke-linecap: square"/>
   </g>
   <g id="line2d_27">
    <path d="M 51.913636 52.031603 
L 68.218831 82.663217 
L 84.524026 118.509443 
L 100.829221 150.58583 
L 117.134416 175.910664 
L 133.43961 193.167904 
L 149.744805 207.355138 
L 166.05 218.563727 
L 182.355195 229.124311 
L 198.66039 237.892261 
L 214.965584 246.742908 
L 231.270779 254.765157 
L 247.575974 261.649298 
L 263.881169 270.091639 
L 280.186364 276.758789 
" clip-path="url(#p29bdae4ad6)" style="fill: none; stroke: #bf00bf; stroke-width: 1.5; stroke-linecap: square"/>
   </g>
   <g id="patch_3">
    <path d="M 40.5 288.36 
L 40.5 38.88 
" style="fill: none; stroke: #000000; stroke-width: 1.6; stroke-linejoin: miter; stroke-linecap: square"/>
   </g>
   <g id="patch_4">
    <path d="M 291.6 288.36 
L 291.6 38.88 
" style="fill: none; stroke: #000000; stroke-width: 1.6; stroke-linejoin: miter; stroke-linecap: square"/>
   </g>
   <g id="patch_5">
    <path d="M 40.5 288.36 
L 291.6 288.36 
" style="fill: none; stroke: #000000; stroke-width: 1.6; stroke-linejoin: miter; stroke-linecap: square"/>
   </g>
   <g id="patch_6">
    <path d="M 40.5 38.88 
L 291.6 38.88 
" style="fill: none; stroke: #000000; stroke-width: 1.6; stroke-linejoin: miter; stroke-linecap: square"/>
   </g>
   <g id="legend_1">
    <g id="patch_7">
     <path d="M 209.120625 118.935 
L 283.2 118.935 
Q 285.6 118.935 285.6 116.535 
L 285.6 47.28 
Q 285.6 44.88 283.2 44.88 
L 209.120625 44.88 
Q 206.720625 44.88 206.720625 47.28 
L 206.720625 116.535 
Q 206.720625 118.935 209.120625 118.935 
z
" style="fill: #ffffff; opacity: 0.8"/>
    </g>
    <g id="LineCollection_5">
     <path d="M 223.520625 60.598125 
L 223.520625 48.598125 
" style="fill: none; stroke: #ff0000; stroke-width: 2"/>
    </g>
    <g id="line2d_28">
     <g>
      <use xlink:href="#mbeb567eefc" x="223.520625" y="60.598125" style="fill: #ff0000; stroke: #ff0000; stroke-width: 2"/>
     </g>
    </g>
    <g id="line2d_29">
     <g>
      <use xlink:href="#mbeb567eefc" x="223.520625" y="48.598125" style="fill: #ff0000; stroke: #ff0000; stroke-width: 2"/>
     </g>
    </g>
    <g id="line2d_30">
     <path d="M 211.520625 54.598125 
L 235.520625 54.598125 
" style="fill: none; stroke: #ff0000; stroke-width: 1.5; stroke-linecap: square"/>
    </g>
    <g id="line2d_31"/>
    <g id="text_12">
     <!-- M=4 -->
     <g transform="translate(245.120625 58.798125) scale(0.12 -0.12)">
      <defs>
       <path id="DejaVuSans-4d" d="M 628 4666 
L 1569 4666 
L 2759 1491 
L 3956 4666 
L 4897 4666 
L 4897 0 
L 4281 0 
L 4281 4097 
L 3078 897 
L 2444 897 
L 1241 4097 
L 1241 0 
L 628 0 
L 628 4666 
z
" transform="scale(0.015625)"/>
       <path id="DejaVuSans-3d" d="M 678 2906 
L 4684 2906 
L 4684 2381 
L 678 2381 
L 678 2906 
z
M 678 1631 
L 4684 1631 
L 4684 1100 
L 678 1100 
L 678 1631 
z
" transform="scale(0.015625)"/>
      </defs>
      <use xlink:href="#DejaVuSans-4d"/>
      <use xlink:href="#DejaVuSans-3d" x="86.279297"/>
      <use xlink:href="#DejaVuSans-34" x="170.068359"/>
     </g>
    </g>
    <g id="LineCollection_6">
     <path d="M 223.520625 78.211875 
L 223.520625 66.211875 
" style="fill: none; stroke: #000000; stroke-width: 2"/>
    </g>
    <g id="line2d_32">
     <g>
      <use xlink:href="#m65e788e315" x="223.520625" y="78.211875" style="stroke: #000000; stroke-width: 2"/>
     </g>
    </g>
    <g id="line2d_33">
     <g>
      <use xlink:href="#m65e788e315" x="223.520625" y="66.211875" style="stroke: #000000; stroke-width: 2"/>
     </g>
    </g>
    <g id="line2d_34">
     <path d="M 211.520625 72.211875 
L 235.520625 72.211875 
" style="fill: none; stroke: #000000; stroke-width: 1.5; stroke-linecap: square"/>
    </g>
    <g id="line2d_35"/>
    <g id="text_13">
     <!-- M=8 -->
     <g transform="translate(245.120625 76.411875) scale(0.12 -0.12)">
      <use xlink:href="#DejaVuSans-4d"/>
      <use xlink:href="#DejaVuSans-3d" x="86.279297"/>
      <use xlink:href="#DejaVuSans-38" x="170.068359"/>
     </g>
    </g>
    <g id="LineCollection_7">
     <path d="M 223.520625 95.825625 
L 223.520625 83.825625 
" style="fill: none; stroke: #0000ff; stroke-width: 2"/>
    </g>
    <g id="line2d_36">
     <g>
      <use xlink:href="#maec920db7b" x="223.520625" y="95.825625" style="fill: #0000ff; stroke: #0000ff; stroke-width: 2"/>
     </g>
    </g>
    <g id="line2d_37">
     <g>
      <use xlink:href="#maec920db7b" x="223.520625" y="83.825625" style="fill: #0000ff; stroke: #0000ff; stroke-width: 2"/>
     </g>
    </g>
    <g id="line2d_38">
     <path d="M 211.520625 89.825625 
L 235.520625 89.825625 
" style="fill: none; stroke: #0000ff; stroke-width: 1.5; stroke-linecap: square"/>
    </g>
    <g id="line2d_39"/>
    <g id="text_14">
     <!-- M=12 -->
     <g transform="translate(245.120625 94.025625) scale(0.12 -0.12)">
      <defs>
       <path id="DejaVuSans-32" d="M 1228 531 
L 3431 531 
L 3431 0 
L 469 0 
L 469 531 
Q 828 903 1448 1529 
Q 2069 2156 2228 2338 
Q 2531 2678 2651 2914 
Q 2772 3150 2772 3378 
Q 2772 3750 2511 3984 
Q 2250 4219 1831 4219 
Q 1534 4219 1204 4116 
Q 875 4013 500 3803 
L 500 4441 
Q 881 4594 1212 4672 
Q 1544 4750 1819 4750 
Q 2544 4750 2975 4387 
Q 3406 4025 3406 3419 
Q 3406 3131 3298 2873 
Q 3191 2616 2906 2266 
Q 2828 2175 2409 1742 
Q 1991 1309 1228 531 
z
" transform="scale(0.015625)"/>
      </defs>
      <use xlink:href="#DejaVuSans-4d"/>
      <use xlink:href="#DejaVuSans-3d" x="86.279297"/>
      <use xlink:href="#DejaVuSans-31" x="170.068359"/>
      <use xlink:href="#DejaVuSans-32" x="233.691406"/>
     </g>
    </g>
    <g id="LineCollection_8">
     <path d="M 223.520625 113.439375 
L 223.520625 101.439375 
" style="fill: none; stroke: #bf00bf; stroke-width: 2"/>
    </g>
    <g id="line2d_40">
     <g>
      <use xlink:href="#mebb52a46c2" x="223.520625" y="113.439375" style="fill: #bf00bf; stroke: #bf00bf; stroke-width: 2"/>
     </g>
    </g>
    <g id="line2d_41">
     <g>
      <use xlink:href="#mebb52a46c2" x="223.520625" y="101.439375" style="fill: #bf00bf; stroke: #bf00bf; stroke-width: 2"/>
     </g>
    </g>
    <g id="line2d_42">
     <path d="M 211.520625 107.439375 
L 235.520625 107.439375 
" style="fill: none; stroke: #bf00bf; stroke-width: 1.5; stroke-linecap: square"/>
    </g>
    <g id="line2d_43"/>
    <g id="text_15">
     <!-- M=16 -->
     <g transform="translate(245.120625 111.639375) scale(0.12 -0.12)">
      <use xlink:href="#DejaVuSans-4d"/>
      <use xlink:href="#DejaVuSans-3d" x="86.279297"/>
      <use xlink:href="#DejaVuSans-31" x="170.068359"/>
      <use xlink:href="#DejaVuSans-36" x="233.691406"/>
     </g>
    </g>
   </g>
  </g>
 </g>
 <defs>
  <clipPath id="p29bdae4ad6">
   <rect x="40.5" y="38.88" width="251.1" height="249.48"/>
  </clipPath>
 </defs>
</svg>
