<?xml version="1.0" encoding="utf-8" standalone="no"?>
<!DOCTYPE svg PUBLIC "-//W3C//DTD SVG 1.1//EN"
  "http://www.w3.org/Graphics/SVG/1.1/DTD/svg11.dtd">
<svg xmlns:xlink="http://www.w3.org/1999/xlink" width="324pt" height="324pt" viewBox="0 0 324 324" xmlns="http://www.w3.org/2000/svg" version="1.1">
 <metadata>
  <rdf:RDF xmlns:dc="http://purl.org/dc/elements/1.1/" xmlns:cc="http://creativecommons.org/ns#" xmlns:rdf="http://www.w3.org/1999/02/22-rdf-syntax-ns#">
   <cc:Work>
    <dc:type rdf:resource="http://purl.org/dc/dcmitype/StillImage"/>
    <dc:date>2026-01-11T16:26:31.373408</dc:date>
    <dc:format>image/svg+xml</dc:format>
    <dc:creator>
     <cc:Agent>
      <dc:title>Matplotlib v3.8.0, https://matplotlib.org/</dc:title>
     </cc:Agent>
    </dc:creator>
   </cc:Work>
  </rdf:RDF>
 </metadata>
 <defs>
  <style type="text/css">*{stroke-linejoin: round; stroke-linecap: butt}</style>
 </defs>
 <g id="figure_1">
  <g id="patch_1">
   <path d="M 0 324 
L 324 324 
L 324 0 
L 0 0 
z
" style="fill: #ffffff"/>
  </g>
  <g id="axes_1">
   <g id="patch_2">
    <path d="M 40.5 288.36 
L 291.6 288.36 
L 291.6 38.88 
L 40.5 38.88 
z
" style="fill: #ffffff"/>
   </g>
   <g id="matplotlib.axis_1">
    <g id="xtick_1">
     <g id="line2d_1">
      <defs>
       <path id="md0df06690e" d="M 0 0 
L 0 8 
" style="stroke: #000000; stroke-width: 1.5"/>
      </defs>
      <g>
       <use xlink:href="#md0df06690e" x="100.829221" y="288.36" style="stroke: #000000; stroke-width: 1.5"/>
      </g>
     </g>
     <g id="text_1">
      <!-- 2 -->
      <g transform="translate(97.011721 308.978125) scale(0.12 -0.12)">
       <defs>
        <path id="DejaVuSans-32" d="M 1228 531 
L 3431 531 
L 3431 0 
L 469 0 
L 469 531 
Q 828 903 1448 1529 
Q 2069 2156 2228 2338 
Q 2531 2678 2651 2914 
Q 2772 3150 2772 3378 
Q 2772 3750 2511 3984 
Q 2250 4219 1831 4219 
Q 1534 4219 1204 4116 
Q 875 4013 500 3803 
L 500 4441 
Q 881 4594 1212 4672 
Q 1544 4750 1819 4750 
Q 2544 4750 2975 4387 
Q 3406 4025 3406 3419 
Q 3406 3131 3298 2873 
Q 3191 2616 2906 2266 
Q 2828 2175 2409 1742 
Q 1991 1309 1228 531 
z
" transform="scale(0.015625)"/>
       </defs>
       <use xlink:href="#DejaVuSans-32"/>
      </g>
     </g>
    </g>
    <g id="xtick_2">
     <g id="line2d_2">
      <g>
       <use xlink:href="#md0df06690e" x="182.355195" y="288.36" style="stroke: #000000; stroke-width: 1.5"/>
      </g>
     </g>
     <g id="text_2">
      <!-- 3 -->
      <g transform="translate(178.537695 308.978125) scale(0.12 -0.12)">
       <defs>
        <path id="DejaVuSans-33" d="M 2597 2516 
Q 3050 2419 3304 2112 
Q 3559 1806 3559 1356 
Q 3559 666 3084 287 
Q 2609 -91 1734 -91 
Q 1441 -91 1130 -33 
Q 819 25 488 141 
L 488 750 
Q 750 597 1062 519 
Q 1375 441 1716 441 
Q 2309 441 2620 675 
Q 2931 909 2931 1356 
Q 2931 1769 2642 2001 
Q 2353 2234 1838 2234 
L 1294 2234 
L 1294 2753 
L 1863 2753 
Q 2328 2753 2575 2939 
Q 2822 3125 2822 3475 
Q 2822 3834 2567 4026 
Q 2313 4219 1838 4219 
Q 1578 4219 1281 4162 
Q 984 4106 628 3988 
L 628 4550 
Q 988 4650 1302 4700 
Q 1616 4750 1894 4750 
Q 2613 4750 3031 4423 
Q 3450 4097 3450 3541 
Q 3450 3153 3228 2886 
Q 3006 2619 2597 2516 
z
" transform="scale(0.015625)"/>
       </defs>
       <use xlink:href="#DejaVuSans-33"/>
      </g>
     </g>
    </g>
    <g id="xtick_3">
     <g id="line2d_3">
      <g>
       <use xlink:href="#md0df06690e" x="263.881169" y="288.36" style="stroke: #000000; stroke-width: 1.5"/>
      </g>
     </g>
     <g id="text_3">
      <!-- 4 -->
      <g transform="translate(260.063669 308.978125) scale(0.12 -0.12)">
       <defs>
        <path id="DejaVuSans-34" d="M 2419 4116 
L 825 1625 
L 2419 1625 
L 2419 4116 
z
M 2253 4666 
L 3047 4666 
L 3047 1625 
L 3713 1625 
L 3713 1100 
L 3047 1100 
L 3047 0 
L 2419 0 
L 2419 1100 
L 313 1100 
L 313 1709 
L 2253 4666 
z
" transform="scale(0.015625)"/>
       </defs>
       <use xlink:href="#DejaVuSans-34"/>
      </g>
     </g>
    </g>
   </g>
   <g id="matplotlib.axis_2">
    <g id="ytick_1">
     <g id="line2d_4">
      <defs>
       <path id="mf02c0ec979" d="M 0 0 
L -8 0 
" style="stroke: #000000; stroke-width: 1.5"/>
      </defs>
      <g>
       <use xlink:href="#mf02c0ec979" x="40.5" y="288.36" style="stroke: #000000; stroke-width: 1.5"/>
      </g>
     </g>
     <g id="text_4">
      <!-- 0 -->
      <g transform="translate(21.365 292.919062) scale(0.12 -0.12)">
       <defs>
        <path id="DejaVuSans-30" d="M 2034 4250 
Q 1547 4250 1301 3770 
Q 1056 3291 1056 2328 
Q 1056 1369 1301 889 
Q 1547 409 2034 409 
Q 2525 409 2770 889 
Q 3016 1369 3016 2328 
Q 3016 3291 2770 3770 
Q 2525 4250 2034 4250 
z
M 2034 4750 
Q 2819 4750 3233 4129 
Q 3647 3509 3647 2328 
Q 3647 1150 3233 529 
Q 2819 -91 2034 -91 
Q 1250 -91 836 529 
Q 422 1150 422 2328 
Q 422 3509 836 4129 
Q 1250 4750 2034 4750 
z
" transform="scale(0.015625)"/>
       </defs>
       <use xlink:href="#DejaVuSans-30"/>
      </g>
     </g>
    </g>
    <g id="ytick_2">
     <g id="line2d_5">
      <g>
       <use xlink:href="#mf02c0ec979" x="40.5" y="228.96" style="stroke: #000000; stroke-width: 1.5"/>
      </g>
     </g>
     <g id="text_5">
      <!-- 1 -->
      <g transform="translate(21.365 233.519063) scale(0.12 -0.12)">
       <defs>
        <path id="DejaVuSans-31" d="M 794 531 
L 1825 531 
L 1825 4091 
L 703 3866 
L 703 4441 
L 1819 4666 
L 2450 4666 
L 2450 531 
L 3481 531 
L 3481 0 
L 794 0 
L 794 531 
z
" transform="scale(0.015625)"/>
       </defs>
       <use xlink:href="#DejaVuSans-31"/>
      </g>
     </g>
    </g>
    <g id="ytick_3">
     <g id="line2d_6">
      <g>
       <use xlink:href="#mf02c0ec979" x="40.5" y="169.56" style="stroke: #000000; stroke-width: 1.5"/>
      </g>
     </g>
     <g id="text_6">
      <!-- 2 -->
      <g transform="translate(21.365 174.119063) scale(0.12 -0.12)">
       <use xlink:href="#DejaVuSans-32"/>
      </g>
     </g>
    </g>
    <g id="ytick_4">
     <g id="line2d_7">
      <g>
       <use xlink:href="#mf02c0ec979" x="40.5" y="110.16" style="stroke: #000000; stroke-width: 1.5"/>
      </g>
     </g>
     <g id="text_7">
      <!-- 3 -->
      <g transform="translate(21.365 114.719063) scale(0.12 -0.12)">
       <use xlink:href="#DejaVuSans-33"/>
      </g>
     </g>
    </g>
    <g id="ytick_5">
     <g id="line2d_8">
      <g>
       <use xlink:href="#mf02c0ec979" x="40.5" y="50.76" style="stroke: #000000; stroke-width: 1.5"/>
      </g>
     </g>
     <g id="text_8">
      <!-- 4 -->
      <g transform="translate(21.365 55.319062) scale(0.12 -0.12)">
       <use xlink:href="#DejaVuSans-34"/>
      </g>
     </g>
    </g>
   </g>
   <g id="line2d_9">
    <path d="M 51.913636 55.734296 
L 68.218831 96.522148 
L 84.524026 126.616739 
L 100.829221 148.864665 
L 117.134416 167.594024 
L 133.43961 181.744235 
L 149.744805 194.380735 
L 166.05 204.611767 
L 182.355195 213.09792 
L 198.66039 219.926523 
L 214.965584 226.583308 
L 231.270779 232.212181 
L 247.575974 236.764457 
L 263.881169 240.517918 
L 280.186364 244.153853 
" clip-path="url(#pf9db3c9a33)" style="fill: none; stroke: #ff0000; stroke-width: 1.5; stroke-linecap: square"/>
   </g>
   <g id="LineCollection_1">
    <path d="M 51.913636 56.764964 
L 51.913636 54.703628 
" clip-path="url(#pf9db3c9a33)" style="fill: none; stroke: #ff0000; stroke-width: 2"/>
    <path d="M 68.218831 97.406484 
L 68.218831 95.637812 
" clip-path="url(#pf9db3c9a33)" style="fill: none; stroke: #ff0000; stroke-width: 2"/>
    <path d="M 84.524026 127.313404 
L 84.524026 125.920073 
" clip-path="url(#pf9db3c9a33)" style="fill: none; stroke: #ff0000; stroke-width: 2"/>
    <path d="M 100.829221 149.229436 
L 100.829221 148.499893 
" clip-path="url(#pf9db3c9a33)" style="fill: none; stroke: #ff0000; stroke-width: 2"/>
    <path d="M 117.134416 168.076778 
L 117.134416 167.11127 
" clip-path="url(#pf9db3c9a33)" style="fill: none; stroke: #ff0000; stroke-width: 2"/>
    <path d="M 133.43961 182.077397 
L 133.43961 181.411073 
" clip-path="url(#pf9db3c9a33)" style="fill: none; stroke: #ff0000; stroke-width: 2"/>
    <path d="M 149.744805 194.657395 
L 149.744805 194.104074 
" clip-path="url(#pf9db3c9a33)" style="fill: none; stroke: #ff0000; stroke-width: 2"/>
    <path d="M 166.05 204.967621 
L 166.05 204.255913 
" clip-path="url(#pf9db3c9a33)" style="fill: none; stroke: #ff0000; stroke-width: 2"/>
    <path d="M 182.355195 213.278114 
L 182.355195 212.917726 
" clip-path="url(#pf9db3c9a33)" style="fill: none; stroke: #ff0000; stroke-width: 2"/>
    <path d="M 198.66039 220.178072 
L 198.66039 219.674974 
" clip-path="url(#pf9db3c9a33)" style="fill: none; stroke: #ff0000; stroke-width: 2"/>
    <path d="M 214.965584 226.978133 
L 214.965584 226.188483 
" clip-path="url(#pf9db3c9a33)" style="fill: none; stroke: #ff0000; stroke-width: 2"/>
    <path d="M 231.270779 232.40897 
L 231.270779 232.015393 
" clip-path="url(#pf9db3c9a33)" style="fill: none; stroke: #ff0000; stroke-width: 2"/>
    <path d="M 247.575974 236.887764 
L 247.575974 236.64115 
" clip-path="url(#pf9db3c9a33)" style="fill: none; stroke: #ff0000; stroke-width: 2"/>
    <path d="M 263.881169 240.68582 
L 263.881169 240.350016 
" clip-path="url(#pf9db3c9a33)" style="fill: none; stroke: #ff0000; stroke-width: 2"/>
    <path d="M 280.186364 244.349465 
L 280.186364 243.958241 
" clip-path="url(#pf9db3c9a33)" style="fill: none; stroke: #ff0000; stroke-width: 2"/>
   </g>
   <g id="line2d_10">
    <defs>
     <path id="m00d0e3b270" d="M 3 0 
L -3 -0 
" style="stroke: #ff0000; stroke-width: 2"/>
    </defs>
    <g clip-path="url(#pf9db3c9a33)">
     <use xlink:href="#m00d0e3b270" x="51.913636" y="56.764964" style="fill: #ff0000; stroke: #ff0000; stroke-width: 2"/>
     <use xlink:href="#m00d0e3b270" x="68.218831" y="97.406484" style="fill: #ff0000; stroke: #ff0000; stroke-width: 2"/>
     <use xlink:href="#m00d0e3b270" x="84.524026" y="127.313404" style="fill: #ff0000; stroke: #ff0000; stroke-width: 2"/>
     <use xlink:href="#m00d0e3b270" x="100.829221" y="149.229436" style="fill: #ff0000; stroke: #ff0000; stroke-width: 2"/>
     <use xlink:href="#m00d0e3b270" x="117.134416" y="168.076778" style="fill: #ff0000; stroke: #ff0000; stroke-width: 2"/>
     <use xlink:href="#m00d0e3b270" x="133.43961" y="182.077397" style="fill: #ff0000; stroke: #ff0000; stroke-width: 2"/>
     <use xlink:href="#m00d0e3b270" x="149.744805" y="194.657395" style="fill: #ff0000; stroke: #ff0000; stroke-width: 2"/>
     <use xlink:href="#m00d0e3b270" x="166.05" y="204.967621" style="fill: #ff0000; stroke: #ff0000; stroke-width: 2"/>
     <use xlink:href="#m00d0e3b270" x="182.355195" y="213.278114" style="fill: #ff0000; stroke: #ff0000; stroke-width: 2"/>
     <use xlink:href="#m00d0e3b270" x="198.66039" y="220.178072" style="fill: #ff0000; stroke: #ff0000; stroke-width: 2"/>
     <use xlink:href="#m00d0e3b270" x="214.965584" y="226.978133" style="fill: #ff0000; stroke: #ff0000; stroke-width: 2"/>
     <use xlink:href="#m00d0e3b270" x="231.270779" y="232.40897" style="fill: #ff0000; stroke: #ff0000; stroke-width: 2"/>
     <use xlink:href="#m00d0e3b270" x="247.575974" y="236.887764" style="fill: #ff0000; stroke: #ff0000; stroke-width: 2"/>
     <use xlink:href="#m00d0e3b270" x="263.881169" y="240.68582" style="fill: #ff0000; stroke: #ff0000; stroke-width: 2"/>
     <use xlink:href="#m00d0e3b270" x="280.186364" y="244.349465" style="fill: #ff0000; stroke: #ff0000; stroke-width: 2"/>
    </g>
   </g>
   <g id="line2d_11">
    <g clip-path="url(#pf9db3c9a33)">
     <use xlink:href="#m00d0e3b270" x="51.913636" y="54.703628" style="fill: #ff0000; stroke: #ff0000; stroke-width: 2"/>
     <use xlink:href="#m00d0e3b270" x="68.218831" y="95.637812" style="fill: #ff0000; stroke: #ff0000; stroke-width: 2"/>
     <use xlink:href="#m00d0e3b270" x="84.524026" y="125.920073" style="fill: #ff0000; stroke: #ff0000; stroke-width: 2"/>
     <use xlink:href="#m00d0e3b270" x="100.829221" y="148.499893" style="fill: #ff0000; stroke: #ff0000; stroke-width: 2"/>
     <use xlink:href="#m00d0e3b270" x="117.134416" y="167.11127" style="fill: #ff0000; stroke: #ff0000; stroke-width: 2"/>
     <use xlink:href="#m00d0e3b270" x="133.43961" y="181.411073" style="fill: #ff0000; stroke: #ff0000; stroke-width: 2"/>
     <use xlink:href="#m00d0e3b270" x="149.744805" y="194.104074" style="fill: #ff0000; stroke: #ff0000; stroke-width: 2"/>
     <use xlink:href="#m00d0e3b270" x="166.05" y="204.255913" style="fill: #ff0000; stroke: #ff0000; stroke-width: 2"/>
     <use xlink:href="#m00d0e3b270" x="182.355195" y="212.917726" style="fill: #ff0000; stroke: #ff0000; stroke-width: 2"/>
     <use xlink:href="#m00d0e3b270" x="198.66039" y="219.674974" style="fill: #ff0000; stroke: #ff0000; stroke-width: 2"/>
     <use xlink:href="#m00d0e3b270" x="214.965584" y="226.188483" style="fill: #ff0000; stroke: #ff0000; stroke-width: 2"/>
     <use xlink:href="#m00d0e3b270" x="231.270779" y="232.015393" style="fill: #ff0000; stroke: #ff0000; stroke-width: 2"/>
     <use xlink:href="#m00d0e3b270" x="247.575974" y="236.64115" style="fill: #ff0000; stroke: #ff0000; stroke-width: 2"/>
     <use xlink:href="#m00d0e3b270" x="263.881169" y="240.350016" style="fill: #ff0000; stroke: #ff0000; stroke-width: 2"/>
     <use xlink:href="#m00d0e3b270" x="280.186364" y="243.958241" style="fill: #ff0000; stroke: #ff0000; stroke-width: 2"/>
    </g>
   </g>
   <g id="line2d_12">
    <path d="M 51.913636 74.290485 
L 68.218831 120.067272 
L 84.524026 149.467523 
L 100.829221 172.907988 
L 117.134416 190.628435 
L 133.43961 204.386469 
L 149.744805 215.096246 
L 166.05 224.127796 
L 182.355195 231.613378 
L 198.66039 237.665264 
L 214.965584 242.680508 
L 231.270779 247.659651 
L 247.575974 251.305696 
L 263.881169 254.663742 
L 280.186364 257.480013 
" clip-path="url(#pf9db3c9a33)" style="fill: none; stroke: #000000; stroke-width: 1.5; stroke-linecap: square"/>
   </g>
   <g id="LineCollection_2">
    <path d="M 51.913636 74.873697 
L 51.913636 73.707272 
" clip-path="url(#pf9db3c9a33)" style="fill: none; stroke: #000000; stroke-width: 2"/>
    <path d="M 68.218831 120.451022 
L 68.218831 119.683523 
" clip-path="url(#pf9db3c9a33)" style="fill: none; stroke: #000000; stroke-width: 2"/>
    <path d="M 84.524026 149.938093 
L 84.524026 148.996953 
" clip-path="url(#pf9db3c9a33)" style="fill: none; stroke: #000000; stroke-width: 2"/>
    <path d="M 100.829221 173.144159 
L 100.829221 172.671817 
" clip-path="url(#pf9db3c9a33)" style="fill: none; stroke: #000000; stroke-width: 2"/>
    <path d="M 117.134416 190.912168 
L 117.134416 190.344701 
" clip-path="url(#pf9db3c9a33)" style="fill: none; stroke: #000000; stroke-width: 2"/>
    <path d="M 133.43961 204.649596 
L 133.43961 204.123342 
" clip-path="url(#pf9db3c9a33)" style="fill: none; stroke: #000000; stroke-width: 2"/>
    <path d="M 149.744805 215.243873 
L 149.744805 214.94862 
" clip-path="url(#pf9db3c9a33)" style="fill: none; stroke: #000000; stroke-width: 2"/>
    <path d="M 166.05 224.329924 
L 166.05 223.925669 
" clip-path="url(#pf9db3c9a33)" style="fill: none; stroke: #000000; stroke-width: 2"/>
    <path d="M 182.355195 231.787549 
L 182.355195 231.439206 
" clip-path="url(#pf9db3c9a33)" style="fill: none; stroke: #000000; stroke-width: 2"/>
    <path d="M 198.66039 237.771644 
L 198.66039 237.558884 
" clip-path="url(#pf9db3c9a33)" style="fill: none; stroke: #000000; stroke-width: 2"/>
    <path d="M 214.965584 242.95062 
L 214.965584 242.410395 
" clip-path="url(#pf9db3c9a33)" style="fill: none; stroke: #000000; stroke-width: 2"/>
    <path d="M 231.270779 247.860054 
L 231.270779 247.459248 
" clip-path="url(#pf9db3c9a33)" style="fill: none; stroke: #000000; stroke-width: 2"/>
    <path d="M 247.575974 251.401508 
L 247.575974 251.209884 
" clip-path="url(#pf9db3c9a33)" style="fill: none; stroke: #000000; stroke-width: 2"/>
    <path d="M 263.881169 254.762003 
L 263.881169 254.56548 
" clip-path="url(#pf9db3c9a33)" style="fill: none; stroke: #000000; stroke-width: 2"/>
    <path d="M 280.186364 257.595378 
L 280.186364 257.364649 
" clip-path="url(#pf9db3c9a33)" style="fill: none; stroke: #000000; stroke-width: 2"/>
   </g>
   <g id="line2d_13">
    <defs>
     <path id="m88bbc92169" d="M 3 0 
L -3 -0 
" style="stroke: #000000; stroke-width: 2"/>
    </defs>
    <g clip-path="url(#pf9db3c9a33)">
     <use xlink:href="#m88bbc92169" x="51.913636" y="74.873697" style="stroke: #000000; stroke-width: 2"/>
     <use xlink:href="#m88bbc92169" x="68.218831" y="120.451022" style="stroke: #000000; stroke-width: 2"/>
     <use xlink:href="#m88bbc92169" x="84.524026" y="149.938093" style="stroke: #000000; stroke-width: 2"/>
     <use xlink:href="#m88bbc92169" x="100.829221" y="173.144159" style="stroke: #000000; stroke-width: 2"/>
     <use xlink:href="#m88bbc92169" x="117.134416" y="190.912168" style="stroke: #000000; stroke-width: 2"/>
     <use xlink:href="#m88bbc92169" x="133.43961" y="204.649596" style="stroke: #000000; stroke-width: 2"/>
     <use xlink:href="#m88bbc92169" x="149.744805" y="215.243873" style="stroke: #000000; stroke-width: 2"/>
     <use xlink:href="#m88bbc92169" x="166.05" y="224.329924" style="stroke: #000000; stroke-width: 2"/>
     <use xlink:href="#m88bbc92169" x="182.355195" y="231.787549" style="stroke: #000000; stroke-width: 2"/>
     <use xlink:href="#m88bbc92169" x="198.66039" y="237.771644" style="stroke: #000000; stroke-width: 2"/>
     <use xlink:href="#m88bbc92169" x="214.965584" y="242.95062" style="stroke: #000000; stroke-width: 2"/>
     <use xlink:href="#m88bbc92169" x="231.270779" y="247.860054" style="stroke: #000000; stroke-width: 2"/>
     <use xlink:href="#m88bbc92169" x="247.575974" y="251.401508" style="stroke: #000000; stroke-width: 2"/>
     <use xlink:href="#m88bbc92169" x="263.881169" y="254.762003" style="stroke: #000000; stroke-width: 2"/>
     <use xlink:href="#m88bbc92169" x="280.186364" y="257.595378" style="stroke: #000000; stroke-width: 2"/>
    </g>
   </g>
   <g id="line2d_14">
    <g clip-path="url(#pf9db3c9a33)">
     <use xlink:href="#m88bbc92169" x="51.913636" y="73.707272" style="stroke: #000000; stroke-width: 2"/>
     <use xlink:href="#m88bbc92169" x="68.218831" y="119.683523" style="stroke: #000000; stroke-width: 2"/>
     <use xlink:href="#m88bbc92169" x="84.524026" y="148.996953" style="stroke: #000000; stroke-width: 2"/>
     <use xlink:href="#m88bbc92169" x="100.829221" y="172.671817" style="stroke: #000000; stroke-width: 2"/>
     <use xlink:href="#m88bbc92169" x="117.134416" y="190.344701" style="stroke: #000000; stroke-width: 2"/>
     <use xlink:href="#m88bbc92169" x="133.43961" y="204.123342" style="stroke: #000000; stroke-width: 2"/>
     <use xlink:href="#m88bbc92169" x="149.744805" y="214.94862" style="stroke: #000000; stroke-width: 2"/>
     <use xlink:href="#m88bbc92169" x="166.05" y="223.925669" style="stroke: #000000; stroke-width: 2"/>
     <use xlink:href="#m88bbc92169" x="182.355195" y="231.439206" style="stroke: #000000; stroke-width: 2"/>
     <use xlink:href="#m88bbc92169" x="198.66039" y="237.558884" style="stroke: #000000; stroke-width: 2"/>
     <use xlink:href="#m88bbc92169" x="214.965584" y="242.410395" style="stroke: #000000; stroke-width: 2"/>
     <use xlink:href="#m88bbc92169" x="231.270779" y="247.459248" style="stroke: #000000; stroke-width: 2"/>
     <use xlink:href="#m88bbc92169" x="247.575974" y="251.209884" style="stroke: #000000; stroke-width: 2"/>
     <use xlink:href="#m88bbc92169" x="263.881169" y="254.56548" style="stroke: #000000; stroke-width: 2"/>
     <use xlink:href="#m88bbc92169" x="280.186364" y="257.364649" style="stroke: #000000; stroke-width: 2"/>
    </g>
   </g>
   <g id="line2d_15">
    <path d="M 51.913636 96.565729 
L 68.218831 137.96507 
L 84.524026 165.588377 
L 100.829221 188.223 
L 117.134416 205.019772 
L 133.43961 218.30892 
L 149.744805 229.083443 
L 166.05 237.225206 
L 182.355195 244.528575 
L 198.66039 250.093979 
L 214.965584 254.919642 
L 231.270779 259.063308 
L 247.575974 262.482902 
L 263.881169 265.174644 
L 280.186364 267.523651 
" clip-path="url(#pf9db3c9a33)" style="fill: none; stroke: #0000ff; stroke-width: 1.5; stroke-linecap: square"/>
   </g>
   <g id="LineCollection_3">
    <path d="M 51.913636 97.018766 
L 51.913636 96.112693 
" clip-path="url(#pf9db3c9a33)" style="fill: none; stroke: #0000ff; stroke-width: 2"/>
    <path d="M 68.218831 138.324653 
L 68.218831 137.605487 
" clip-path="url(#pf9db3c9a33)" style="fill: none; stroke: #0000ff; stroke-width: 2"/>
    <path d="M 84.524026 165.975405 
L 84.524026 165.201349 
" clip-path="url(#pf9db3c9a33)" style="fill: none; stroke: #0000ff; stroke-width: 2"/>
    <path d="M 100.829221 188.596216 
L 100.829221 187.849784 
" clip-path="url(#pf9db3c9a33)" style="fill: none; stroke: #0000ff; stroke-width: 2"/>
    <path d="M 117.134416 205.250416 
L 117.134416 204.789129 
" clip-path="url(#pf9db3c9a33)" style="fill: none; stroke: #0000ff; stroke-width: 2"/>
    <path d="M 133.43961 218.669352 
L 133.43961 217.948489 
" clip-path="url(#pf9db3c9a33)" style="fill: none; stroke: #0000ff; stroke-width: 2"/>
    <path d="M 149.744805 229.267839 
L 149.744805 228.899046 
" clip-path="url(#pf9db3c9a33)" style="fill: none; stroke: #0000ff; stroke-width: 2"/>
    <path d="M 166.05 237.480577 
L 166.05 236.969835 
" clip-path="url(#pf9db3c9a33)" style="fill: none; stroke: #0000ff; stroke-width: 2"/>
    <path d="M 182.355195 244.641324 
L 182.355195 244.415827 
" clip-path="url(#pf9db3c9a33)" style="fill: none; stroke: #0000ff; stroke-width: 2"/>
    <path d="M 198.66039 250.24877 
L 198.66039 249.939188 
" clip-path="url(#pf9db3c9a33)" style="fill: none; stroke: #0000ff; stroke-width: 2"/>
    <path d="M 214.965584 255.02346 
L 214.965584 254.815823 
" clip-path="url(#pf9db3c9a33)" style="fill: none; stroke: #0000ff; stroke-width: 2"/>
    <path d="M 231.270779 259.190177 
L 231.270779 258.936439 
" clip-path="url(#pf9db3c9a33)" style="fill: none; stroke: #0000ff; stroke-width: 2"/>
    <path d="M 247.575974 262.532854 
L 247.575974 262.432951 
" clip-path="url(#pf9db3c9a33)" style="fill: none; stroke: #0000ff; stroke-width: 2"/>
    <path d="M 263.881169 265.214523 
L 263.881169 265.134764 
" clip-path="url(#pf9db3c9a33)" style="fill: none; stroke: #0000ff; stroke-width: 2"/>
    <path d="M 280.186364 267.547308 
L 280.186364 267.499994 
" clip-path="url(#pf9db3c9a33)" style="fill: none; stroke: #0000ff; stroke-width: 2"/>
   </g>
   <g id="line2d_16">
    <defs>
     <path id="mc4530e702b" d="M 3 0 
L -3 -0 
" style="stroke: #0000ff; stroke-width: 2"/>
    </defs>
    <g clip-path="url(#pf9db3c9a33)">
     <use xlink:href="#mc4530e702b" x="51.913636" y="97.018766" style="fill: #0000ff; stroke: #0000ff; stroke-width: 2"/>
     <use xlink:href="#mc4530e702b" x="68.218831" y="138.324653" style="fill: #0000ff; stroke: #0000ff; stroke-width: 2"/>
     <use xlink:href="#mc4530e702b" x="84.524026" y="165.975405" style="fill: #0000ff; stroke: #0000ff; stroke-width: 2"/>
     <use xlink:href="#mc4530e702b" x="100.829221" y="188.596216" style="fill: #0000ff; stroke: #0000ff; stroke-width: 2"/>
     <use xlink:href="#mc4530e702b" x="117.134416" y="205.250416" style="fill: #0000ff; stroke: #0000ff; stroke-width: 2"/>
     <use xlink:href="#mc4530e702b" x="133.43961" y="218.669352" style="fill: #0000ff; stroke: #0000ff; stroke-width: 2"/>
     <use xlink:href="#mc4530e702b" x="149.744805" y="229.267839" style="fill: #0000ff; stroke: #0000ff; stroke-width: 2"/>
     <use xlink:href="#mc4530e702b" x="166.05" y="237.480577" style="fill: #0000ff; stroke: #0000ff; stroke-width: 2"/>
     <use xlink:href="#mc4530e702b" x="182.355195" y="244.641324" style="fill: #0000ff; stroke: #0000ff; stroke-width: 2"/>
     <use xlink:href="#mc4530e702b" x="198.66039" y="250.24877" style="fill: #0000ff; stroke: #0000ff; stroke-width: 2"/>
     <use xlink:href="#mc4530e702b" x="214.965584" y="255.02346" style="fill: #0000ff; stroke: #0000ff; stroke-width: 2"/>
     <use xlink:href="#mc4530e702b" x="231.270779" y="259.190177" style="fill: #0000ff; stroke: #0000ff; stroke-width: 2"/>
     <use xlink:href="#mc4530e702b" x="247.575974" y="262.532854" style="fill: #0000ff; stroke: #0000ff; stroke-width: 2"/>
     <use xlink:href="#mc4530e702b" x="263.881169" y="265.214523" style="fill: #0000ff; stroke: #0000ff; stroke-width: 2"/>
     <use xlink:href="#mc4530e702b" x="280.186364" y="267.547308" style="fill: #0000ff; stroke: #0000ff; stroke-width: 2"/>
    </g>
   </g>
   <g id="line2d_17">
    <g clip-path="url(#pf9db3c9a33)">
     <use xlink:href="#mc4530e702b" x="51.913636" y="96.112693" style="fill: #0000ff; stroke: #0000ff; stroke-width: 2"/>
     <use xlink:href="#mc4530e702b" x="68.218831" y="137.605487" style="fill: #0000ff; stroke: #0000ff; stroke-width: 2"/>
     <use xlink:href="#mc4530e702b" x="84.524026" y="165.201349" style="fill: #0000ff; stroke: #0000ff; stroke-width: 2"/>
     <use xlink:href="#mc4530e702b" x="100.829221" y="187.849784" style="fill: #0000ff; stroke: #0000ff; stroke-width: 2"/>
     <use xlink:href="#mc4530e702b" x="117.134416" y="204.789129" style="fill: #0000ff; stroke: #0000ff; stroke-width: 2"/>
     <use xlink:href="#mc4530e702b" x="133.43961" y="217.948489" style="fill: #0000ff; stroke: #0000ff; stroke-width: 2"/>
     <use xlink:href="#mc4530e702b" x="149.744805" y="228.899046" style="fill: #0000ff; stroke: #0000ff; stroke-width: 2"/>
     <use xlink:href="#mc4530e702b" x="166.05" y="236.969835" style="fill: #0000ff; stroke: #0000ff; stroke-width: 2"/>
     <use xlink:href="#mc4530e702b" x="182.355195" y="244.415827" style="fill: #0000ff; stroke: #0000ff; stroke-width: 2"/>
     <use xlink:href="#mc4530e702b" x="198.66039" y="249.939188" style="fill: #0000ff; stroke: #0000ff; stroke-width: 2"/>
     <use xlink:href="#mc4530e702b" x="214.965584" y="254.815823" style="fill: #0000ff; stroke: #0000ff; stroke-width: 2"/>
     <use xlink:href="#mc4530e702b" x="231.270779" y="258.936439" style="fill: #0000ff; stroke: #0000ff; stroke-width: 2"/>
     <use xlink:href="#mc4530e702b" x="247.575974" y="262.432951" style="fill: #0000ff; stroke: #0000ff; stroke-width: 2"/>
     <use xlink:href="#mc4530e702b" x="263.881169" y="265.134764" style="fill: #0000ff; stroke: #0000ff; stroke-width: 2"/>
     <use xlink:href="#mc4530e702b" x="280.186364" y="267.499994" style="fill: #0000ff; stroke: #0000ff; stroke-width: 2"/>
    </g>
   </g>
   <g id="line2d_18">
    <path d="M 51.913636 110.206176 
L 68.218831 150.747204 
L 84.524026 180.205203 
L 100.829221 200.559053 
L 117.134416 217.67726 
L 133.43961 231.303757 
L 149.744805 240.872281 
L 166.05 249.291504 
L 182.355195 255.985571 
L 198.66039 261.271186 
L 214.965584 265.323247 
L 231.270779 268.501323 
L 247.575974 271.319109 
L 263.881169 273.551379 
L 280.186364 275.289628 
" clip-path="url(#pf9db3c9a33)" style="fill: none; stroke: #bf00bf; stroke-width: 1.5; stroke-linecap: square"/>
   </g>
   <g id="LineCollection_4">
    <path d="M 51.913636 110.738023 
L 51.913636 109.674329 
" clip-path="url(#pf9db3c9a33)" style="fill: none; stroke: #bf00bf; stroke-width: 2"/>
    <path d="M 68.218831 151.540436 
L 68.218831 149.953972 
" clip-path="url(#pf9db3c9a33)" style="fill: none; stroke: #bf00bf; stroke-width: 2"/>
    <path d="M 84.524026 180.605878 
L 84.524026 179.804527 
" clip-path="url(#pf9db3c9a33)" style="fill: none; stroke: #bf00bf; stroke-width: 2"/>
    <path d="M 100.829221 200.897054 
L 100.829221 200.221052 
" clip-path="url(#pf9db3c9a33)" style="fill: none; stroke: #bf00bf; stroke-width: 2"/>
    <path d="M 117.134416 217.996047 
L 117.134416 217.358473 
" clip-path="url(#pf9db3c9a33)" style="fill: none; stroke: #bf00bf; stroke-width: 2"/>
    <path d="M 133.43961 231.472025 
L 133.43961 231.13549 
" clip-path="url(#pf9db3c9a33)" style="fill: none; stroke: #bf00bf; stroke-width: 2"/>
    <path d="M 149.744805 241.044341 
L 149.744805 240.70022 
" clip-path="url(#pf9db3c9a33)" style="fill: none; stroke: #bf00bf; stroke-width: 2"/>
    <path d="M 166.05 249.339827 
L 166.05 249.243182 
" clip-path="url(#pf9db3c9a33)" style="fill: none; stroke: #bf00bf; stroke-width: 2"/>
    <path d="M 182.355195 256.19148 
L 182.355195 255.779662 
" clip-path="url(#pf9db3c9a33)" style="fill: none; stroke: #bf00bf; stroke-width: 2"/>
    <path d="M 198.66039 261.370883 
L 198.66039 261.171488 
" clip-path="url(#pf9db3c9a33)" style="fill: none; stroke: #bf00bf; stroke-width: 2"/>
    <path d="M 214.965584 265.393042 
L 214.965584 265.253451 
" clip-path="url(#pf9db3c9a33)" style="fill: none; stroke: #bf00bf; stroke-width: 2"/>
    <path d="M 231.270779 268.576843 
L 231.270779 268.425804 
" clip-path="url(#pf9db3c9a33)" style="fill: none; stroke: #bf00bf; stroke-width: 2"/>
    <path d="M 247.575974 271.393776 
L 247.575974 271.244442 
" clip-path="url(#pf9db3c9a33)" style="fill: none; stroke: #bf00bf; stroke-width: 2"/>
    <path d="M 263.881169 273.587555 
L 263.881169 273.515204 
" clip-path="url(#pf9db3c9a33)" style="fill: none; stroke: #bf00bf; stroke-width: 2"/>
    <path d="M 280.186364 275.320864 
L 280.186364 275.258392 
" clip-path="url(#pf9db3c9a33)" style="fill: none; stroke: #bf00bf; stroke-width: 2"/>
   </g>
   <g id="line2d_19">
    <defs>
     <path id="m80ef41a1c5" d="M 3 0 
L -3 -0 
" style="stroke: #bf00bf; stroke-width: 2"/>
    </defs>
    <g clip-path="url(#pf9db3c9a33)">
     <use xlink:href="#m80ef41a1c5" x="51.913636" y="110.738023" style="fill: #bf00bf; stroke: #bf00bf; stroke-width: 2"/>
     <use xlink:href="#m80ef41a1c5" x="68.218831" y="151.540436" style="fill: #bf00bf; stroke: #bf00bf; stroke-width: 2"/>
     <use xlink:href="#m80ef41a1c5" x="84.524026" y="180.605878" style="fill: #bf00bf; stroke: #bf00bf; stroke-width: 2"/>
     <use xlink:href="#m80ef41a1c5" x="100.829221" y="200.897054" style="fill: #bf00bf; stroke: #bf00bf; stroke-width: 2"/>
     <use xlink:href="#m80ef41a1c5" x="117.134416" y="217.996047" style="fill: #bf00bf; stroke: #bf00bf; stroke-width: 2"/>
     <use xlink:href="#m80ef41a1c5" x="133.43961" y="231.472025" style="fill: #bf00bf; stroke: #bf00bf; stroke-width: 2"/>
     <use xlink:href="#m80ef41a1c5" x="149.744805" y="241.044341" style="fill: #bf00bf; stroke: #bf00bf; stroke-width: 2"/>
     <use xlink:href="#m80ef41a1c5" x="166.05" y="249.339827" style="fill: #bf00bf; stroke: #bf00bf; stroke-width: 2"/>
     <use xlink:href="#m80ef41a1c5" x="182.355195" y="256.19148" style="fill: #bf00bf; stroke: #bf00bf; stroke-width: 2"/>
     <use xlink:href="#m80ef41a1c5" x="198.66039" y="261.370883" style="fill: #bf00bf; stroke: #bf00bf; stroke-width: 2"/>
     <use xlink:href="#m80ef41a1c5" x="214.965584" y="265.393042" style="fill: #bf00bf; stroke: #bf00bf; stroke-width: 2"/>
     <use xlink:href="#m80ef41a1c5" x="231.270779" y="268.576843" style="fill: #bf00bf; stroke: #bf00bf; stroke-width: 2"/>
     <use xlink:href="#m80ef41a1c5" x="247.575974" y="271.393776" style="fill: #bf00bf; stroke: #bf00bf; stroke-width: 2"/>
     <use xlink:href="#m80ef41a1c5" x="263.881169" y="273.587555" style="fill: #bf00bf; stroke: #bf00bf; stroke-width: 2"/>
     <use xlink:href="#m80ef41a1c5" x="280.186364" y="275.320864" style="fill: #bf00bf; stroke: #bf00bf; stroke-width: 2"/>
    </g>
   </g>
   <g id="line2d_20">
    <g clip-path="url(#pf9db3c9a33)">
     <use xlink:href="#m80ef41a1c5" x="51.913636" y="109.674329" style="fill: #bf00bf; stroke: #bf00bf; stroke-width: 2"/>
     <use xlink:href="#m80ef41a1c5" x="68.218831" y="149.953972" style="fill: #bf00bf; stroke: #bf00bf; stroke-width: 2"/>
     <use xlink:href="#m80ef41a1c5" x="84.524026" y="179.804527" style="fill: #bf00bf; stroke: #bf00bf; stroke-width: 2"/>
     <use xlink:href="#m80ef41a1c5" x="100.829221" y="200.221052" style="fill: #bf00bf; stroke: #bf00bf; stroke-width: 2"/>
     <use xlink:href="#m80ef41a1c5" x="117.134416" y="217.358473" style="fill: #bf00bf; stroke: #bf00bf; stroke-width: 2"/>
     <use xlink:href="#m80ef41a1c5" x="133.43961" y="231.13549" style="fill: #bf00bf; stroke: #bf00bf; stroke-width: 2"/>
     <use xlink:href="#m80ef41a1c5" x="149.744805" y="240.70022" style="fill: #bf00bf; stroke: #bf00bf; stroke-width: 2"/>
     <use xlink:href="#m80ef41a1c5" x="166.05" y="249.243182" style="fill: #bf00bf; stroke: #bf00bf; stroke-width: 2"/>
     <use xlink:href="#m80ef41a1c5" x="182.355195" y="255.779662" style="fill: #bf00bf; stroke: #bf00bf; stroke-width: 2"/>
     <use xlink:href="#m80ef41a1c5" x="198.66039" y="261.171488" style="fill: #bf00bf; stroke: #bf00bf; stroke-width: 2"/>
     <use xlink:href="#m80ef41a1c5" x="214.965584" y="265.253451" style="fill: #bf00bf; stroke: #bf00bf; stroke-width: 2"/>
     <use xlink:href="#m80ef41a1c5" x="231.270779" y="268.425804" style="fill: #bf00bf; stroke: #bf00bf; stroke-width: 2"/>
     <use xlink:href="#m80ef41a1c5" x="247.575974" y="271.244442" style="fill: #bf00bf; stroke: #bf00bf; stroke-width: 2"/>
     <use xlink:href="#m80ef41a1c5" x="263.881169" y="273.515204" style="fill: #bf00bf; stroke: #bf00bf; stroke-width: 2"/>
     <use xlink:href="#m80ef41a1c5" x="280.186364" y="275.258392" style="fill: #bf00bf; stroke: #bf00bf; stroke-width: 2"/>
    </g>
   </g>
   <g id="line2d_21">
    <path d="M 51.913636 55.734296 
L 68.218831 96.522148 
L 84.524026 126.616739 
L 100.829221 148.864665 
L 117.134416 167.594024 
L 133.43961 181.744235 
L 149.744805 194.380735 
L 166.05 204.611767 
L 182.355195 213.09792 
L 198.66039 219.926523 
L 214.965584 226.583308 
L 231.270779 232.212181 
L 247.575974 236.764457 
L 263.881169 240.517918 
L 280.186364 244.153853 
" clip-path="url(#pf9db3c9a33)" style="fill: none; stroke: #ff0000; stroke-width: 1.5; stroke-linecap: square"/>
   </g>
   <g id="line2d_22">
    <path d="M 51.913636 74.290485 
L 68.218831 120.067272 
L 84.524026 149.467523 
L 100.829221 172.907988 
L 117.134416 190.628435 
L 133.43961 204.386469 
L 149.744805 215.096246 
L 166.05 224.127796 
L 182.355195 231.613378 
L 198.66039 237.665264 
L 214.965584 242.680508 
L 231.270779 247.659651 
L 247.575974 251.305696 
L 263.881169 254.663742 
L 280.186364 257.480013 
" clip-path="url(#pf9db3c9a33)" style="fill: none; stroke: #000000; stroke-width: 1.5; stroke-linecap: square"/>
   </g>
   <g id="line2d_23">
    <path d="M 51.913636 96.565729 
L 68.218831 137.96507 
L 84.524026 165.588377 
L 100.829221 188.223 
L 117.134416 205.019772 
L 133.43961 218.30892 
L 149.744805 229.083443 
L 166.05 237.225206 
L 182.355195 244.528575 
L 198.66039 250.093979 
L 214.965584 254.919642 
L 231.270779 259.063308 
L 247.575974 262.482902 
L 263.881169 265.174644 
L 280.186364 267.523651 
" clip-path="url(#pf9db3c9a33)" style="fill: none; stroke: #0000ff; stroke-width: 1.5; stroke-linecap: square"/>
   </g>
   <g id="line2d_24">
    <path d="M 51.913636 110.206176 
L 68.218831 150.747204 
L 84.524026 180.205203 
L 100.829221 200.559053 
L 117.134416 217.67726 
L 133.43961 231.303757 
L 149.744805 240.872281 
L 166.05 249.291504 
L 182.355195 255.985571 
L 198.66039 261.271186 
L 214.965584 265.323247 
L 231.270779 268.501323 
L 247.575974 271.319109 
L 263.881169 273.551379 
L 280.186364 275.289628 
" clip-path="url(#pf9db3c9a33)" style="fill: none; stroke: #bf00bf; stroke-width: 1.5; stroke-linecap: square"/>
   </g>
   <g id="patch_3">
    <path d="M 40.5 288.36 
L 40.5 38.88 
" style="fill: none; stroke: #000000; stroke-width: 1.6; stroke-linejoin: miter; stroke-linecap: square"/>
   </g>
   <g id="patch_4">
    <path d="M 291.6 288.36 
L 291.6 38.88 
" style="fill: none; stroke: #000000; stroke-width: 1.6; stroke-linejoin: miter; stroke-linecap: square"/>
   </g>
   <g id="patch_5">
    <path d="M 40.5 288.36 
L 291.6 288.36 
" style="fill: none; stroke: #000000; stroke-width: 1.6; stroke-linejoin: miter; stroke-linecap: square"/>
   </g>
   <g id="patch_6">
    <path d="M 40.5 38.88 
L 291.6 38.88 
" style="fill: none; stroke: #000000; stroke-width: 1.6; stroke-linejoin: miter; stroke-linecap: square"/>
   </g>
   <g id="legend_1">
    <g id="patch_7">
     <path d="M 209.120625 118.935 
L 283.2 118.935 
Q 285.6 118.935 285.6 116.535 
L 285.6 47.28 
Q 285.6 44.88 283.2 44.88 
L 209.120625 44.88 
Q 206.720625 44.88 206.720625 47.28 
L 206.720625 116.535 
Q 206.720625 118.935 209.120625 118.935 
z
" style="fill: #ffffff; opacity: 0.8"/>
    </g>
    <g id="LineCollection_5">
     <path d="M 223.520625 60.598125 
L 223.520625 48.598125 
" style="fill: none; stroke: #ff0000; stroke-width: 2"/>
    </g>
    <g id="line2d_25">
     <g>
      <use xlink:href="#m00d0e3b270" x="223.520625" y="60.598125" style="fill: #ff0000; stroke: #ff0000; stroke-width: 2"/>
     </g>
    </g>
    <g id="line2d_26">
     <g>
      <use xlink:href="#m00d0e3b270" x="223.520625" y="48.598125" style="fill: #ff0000; stroke: #ff0000; stroke-width: 2"/>
     </g>
    </g>
    <g id="line2d_27">
     <path d="M 211.520625 54.598125 
L 235.520625 54.598125 
" style="fill: none; stroke: #ff0000; stroke-width: 1.5; stroke-linecap: square"/>
    </g>
    <g id="line2d_28"/>
    <g id="text_9">
     <!-- M=4 -->
     <g transform="translate(245.120625 58.798125) scale(0.12 -0.12)">
      <defs>
       <path id="DejaVuSans-4d" d="M 628 4666 
L 1569 4666 
L 2759 1491 
L 3956 4666 
L 4897 4666 
L 4897 0 
L 4281 0 
L 4281 4097 
L 3078 897 
L 2444 897 
L 1241 4097 
L 1241 0 
L 628 0 
L 628 4666 
z
" transform="scale(0.015625)"/>
       <path id="DejaVuSans-3d" d="M 678 2906 
L 4684 2906 
L 4684 2381 
L 678 2381 
L 678 2906 
z
M 678 1631 
L 4684 1631 
L 4684 1100 
L 678 1100 
L 678 1631 
z
" transform="scale(0.015625)"/>
      </defs>
      <use xlink:href="#DejaVuSans-4d"/>
      <use xlink:href="#DejaVuSans-3d" x="86.279297"/>
      <use xlink:href="#DejaVuSans-34" x="170.068359"/>
     </g>
    </g>
    <g id="LineCollection_6">
     <path d="M 223.520625 78.211875 
L 223.520625 66.211875 
" style="fill: none; stroke: #000000; stroke-width: 2"/>
    </g>
    <g id="line2d_29">
     <g>
      <use xlink:href="#m88bbc92169" x="223.520625" y="78.211875" style="stroke: #000000; stroke-width: 2"/>
     </g>
    </g>
    <g id="line2d_30">
     <g>
      <use xlink:href="#m88bbc92169" x="223.520625" y="66.211875" style="stroke: #000000; stroke-width: 2"/>
     </g>
    </g>
    <g id="line2d_31">
     <path d="M 211.520625 72.211875 
L 235.520625 72.211875 
" style="fill: none; stroke: #000000; stroke-width: 1.5; stroke-linecap: square"/>
    </g>
    <g id="line2d_32"/>
    <g id="text_10">
     <!-- M=8 -->
     <g transform="translate(245.120625 76.411875) scale(0.12 -0.12)">
      <defs>
       <path id="DejaVuSans-38" d="M 2034 2216 
Q 1584 2216 1326 1975 
Q 1069 1734 1069 1313 
Q 1069 891 1326 650 
Q 1584 409 2034 409 
Q 2484 409 2743 651 
Q 3003 894 3003 1313 
Q 3003 1734 2745 1975 
Q 2488 2216 2034 2216 
z
M 1403 2484 
Q 997 2584 770 2862 
Q 544 3141 544 3541 
Q 544 4100 942 4425 
Q 1341 4750 2034 4750 
Q 2731 4750 3128 4425 
Q 3525 4100 3525 3541 
Q 3525 3141 3298 2862 
Q 3072 2584 2669 2484 
Q 3125 2378 3379 2068 
Q 3634 1759 3634 1313 
Q 3634 634 3220 271 
Q 2806 -91 2034 -91 
Q 1263 -91 848 271 
Q 434 634 434 1313 
Q 434 1759 690 2068 
Q 947 2378 1403 2484 
z
M 1172 3481 
Q 1172 3119 1398 2916 
Q 1625 2713 2034 2713 
Q 2441 2713 2670 2916 
Q 2900 3119 2900 3481 
Q 2900 3844 2670 4047 
Q 2441 4250 2034 4250 
Q 1625 4250 1398 4047 
Q 1172 3844 1172 3481 
z
" transform="scale(0.015625)"/>
      </defs>
      <use xlink:href="#DejaVuSans-4d"/>
      <use xlink:href="#DejaVuSans-3d" x="86.279297"/>
      <use xlink:href="#DejaVuSans-38" x="170.068359"/>
     </g>
    </g>
    <g id="LineCollection_7">
     <path d="M 223.520625 95.825625 
L 223.520625 83.825625 
" style="fill: none; stroke: #0000ff; stroke-width: 2"/>
    </g>
    <g id="line2d_33">
     <g>
      <use xlink:href="#mc4530e702b" x="223.520625" y="95.825625" style="fill: #0000ff; stroke: #0000ff; stroke-width: 2"/>
     </g>
    </g>
    <g id="line2d_34">
     <g>
      <use xlink:href="#mc4530e702b" x="223.520625" y="83.825625" style="fill: #0000ff; stroke: #0000ff; stroke-width: 2"/>
     </g>
    </g>
    <g id="line2d_35">
     <path d="M 211.520625 89.825625 
L 235.520625 89.825625 
" style="fill: none; stroke: #0000ff; stroke-width: 1.5; stroke-linecap: square"/>
    </g>
    <g id="line2d_36"/>
    <g id="text_11">
     <!-- M=16 -->
     <g transform="translate(245.120625 94.025625) scale(0.12 -0.12)">
      <defs>
       <path id="DejaVuSans-36" d="M 2113 2584 
Q 1688 2584 1439 2293 
Q 1191 2003 1191 1497 
Q 1191 994 1439 701 
Q 1688 409 2113 409 
Q 2538 409 2786 701 
Q 3034 994 3034 1497 
Q 3034 2003 2786 2293 
Q 2538 2584 2113 2584 
z
M 3366 4563 
L 3366 3988 
Q 3128 4100 2886 4159 
Q 2644 4219 2406 4219 
Q 1781 4219 1451 3797 
Q 1122 3375 1075 2522 
Q 1259 2794 1537 2939 
Q 1816 3084 2150 3084 
Q 2853 3084 3261 2657 
Q 3669 2231 3669 1497 
Q 3669 778 3244 343 
Q 2819 -91 2113 -91 
Q 1303 -91 875 529 
Q 447 1150 447 2328 
Q 447 3434 972 4092 
Q 1497 4750 2381 4750 
Q 2619 4750 2861 4703 
Q 3103 4656 3366 4563 
z
" transform="scale(0.015625)"/>
      </defs>
      <use xlink:href="#DejaVuSans-4d"/>
      <use xlink:href="#DejaVuSans-3d" x="86.279297"/>
      <use xlink:href="#DejaVuSans-31" x="170.068359"/>
      <use xlink:href="#DejaVuSans-36" x="233.691406"/>
     </g>
    </g>
    <g id="LineCollection_8">
     <path d="M 223.520625 113.439375 
L 223.520625 101.439375 
" style="fill: none; stroke: #bf00bf; stroke-width: 2"/>
    </g>
    <g id="line2d_37">
     <g>
      <use xlink:href="#m80ef41a1c5" x="223.520625" y="113.439375" style="fill: #bf00bf; stroke: #bf00bf; stroke-width: 2"/>
     </g>
    </g>
    <g id="line2d_38">
     <g>
      <use xlink:href="#m80ef41a1c5" x="223.520625" y="101.439375" style="fill: #bf00bf; stroke: #bf00bf; stroke-width: 2"/>
     </g>
    </g>
    <g id="line2d_39">
     <path d="M 211.520625 107.439375 
L 235.520625 107.439375 
" style="fill: none; stroke: #bf00bf; stroke-width: 1.5; stroke-linecap: square"/>
    </g>
    <g id="line2d_40"/>
    <g id="text_12">
     <!-- M=32 -->
     <g transform="translate(245.120625 111.639375) scale(0.12 -0.12)">
      <use xlink:href="#DejaVuSans-4d"/>
      <use xlink:href="#DejaVuSans-3d" x="86.279297"/>
      <use xlink:href="#DejaVuSans-33" x="170.068359"/>
      <use xlink:href="#DejaVuSans-32" x="233.691406"/>
     </g>
    </g>
   </g>
  </g>
 </g>
 <defs>
  <clipPath id="pf9db3c9a33">
   <rect x="40.5" y="38.88" width="251.1" height="249.48"/>
  </clipPath>
 </defs>
</svg>
