<?xml version="1.0" encoding="utf-8" standalone="no"?>
<!DOCTYPE svg PUBLIC "-//W3C//DTD SVG 1.1//EN"
  "http://www.w3.org/Graphics/SVG/1.1/DTD/svg11.dtd">
<svg xmlns:xlink="http://www.w3.org/1999/xlink" width="324pt" height="324pt" viewBox="0 0 324 324" xmlns="http://www.w3.org/2000/svg" version="1.1">
 <metadata>
  <rdf:RDF xmlns:dc="http://purl.org/dc/elements/1.1/" xmlns:cc="http://creativecommons.org/ns#" xmlns:rdf="http://www.w3.org/1999/02/22-rdf-syntax-ns#">
   <cc:Work>
    <dc:type rdf:resource="http://purl.org/dc/dcmitype/StillImage"/>
    <dc:date>2026-01-11T17:05:15.099288</dc:date>
    <dc:format>image/svg+xml</dc:format>
    <dc:creator>
     <cc:Agent>
      <dc:title>Matplotlib v3.8.0, https://matplotlib.org/</dc:title>
     </cc:Agent>
    </dc:creator>
   </cc:Work>
  </rdf:RDF>
 </metadata>
 <defs>
  <style type="text/css">*{stroke-linejoin: round; stroke-linecap: butt}</style>
 </defs>
 <g id="figure_1">
  <g id="patch_1">
   <path d="M 0 324 
L 324 324 
L 324 0 
L 0 0 
z
" style="fill: #ffffff"/>
  </g>
  <g id="axes_1">
   <g id="patch_2">
    <path d="M 40.5 288.36 
L 291.6 288.36 
L 291.6 38.88 
L 40.5 38.88 
z
" style="fill: #ffffff"/>
   </g>
   <g id="matplotlib.axis_1">
    <g id="xtick_1">
     <g id="line2d_1">
      <defs>
       <path id="m583782238d" d="M 0 0 
L 0 8 
" style="stroke: #000000; stroke-width: 1.5"/>
      </defs>
      <g>
       <use xlink:href="#m583782238d" x="68.218831" y="288.36" style="stroke: #000000; stroke-width: 1.5"/>
      </g>
     </g>
     <g id="text_1">
      <!-- 6 -->
      <g transform="translate(64.401331 308.978125) scale(0.12 -0.12)">
       <defs>
        <path id="DejaVuSans-36" d="M 2113 2584 
Q 1688 2584 1439 2293 
Q 1191 2003 1191 1497 
Q 1191 994 1439 701 
Q 1688 409 2113 409 
Q 2538 409 2786 701 
Q 3034 994 3034 1497 
Q 3034 2003 2786 2293 
Q 2538 2584 2113 2584 
z
M 3366 4563 
L 3366 3988 
Q 3128 4100 2886 4159 
Q 2644 4219 2406 4219 
Q 1781 4219 1451 3797 
Q 1122 3375 1075 2522 
Q 1259 2794 1537 2939 
Q 1816 3084 2150 3084 
Q 2853 3084 3261 2657 
Q 3669 2231 3669 1497 
Q 3669 778 3244 343 
Q 2819 -91 2113 -91 
Q 1303 -91 875 529 
Q 447 1150 447 2328 
Q 447 3434 972 4092 
Q 1497 4750 2381 4750 
Q 2619 4750 2861 4703 
Q 3103 4656 3366 4563 
z
" transform="scale(0.015625)"/>
       </defs>
       <use xlink:href="#DejaVuSans-36"/>
      </g>
     </g>
    </g>
    <g id="xtick_2">
     <g id="line2d_2">
      <g>
       <use xlink:href="#m583782238d" x="149.744805" y="288.36" style="stroke: #000000; stroke-width: 1.5"/>
      </g>
     </g>
     <g id="text_2">
      <!-- 7 -->
      <g transform="translate(145.927305 308.978125) scale(0.12 -0.12)">
       <defs>
        <path id="DejaVuSans-37" d="M 525 4666 
L 3525 4666 
L 3525 4397 
L 1831 0 
L 1172 0 
L 2766 4134 
L 525 4134 
L 525 4666 
z
" transform="scale(0.015625)"/>
       </defs>
       <use xlink:href="#DejaVuSans-37"/>
      </g>
     </g>
    </g>
    <g id="xtick_3">
     <g id="line2d_3">
      <g>
       <use xlink:href="#m583782238d" x="231.270779" y="288.36" style="stroke: #000000; stroke-width: 1.5"/>
      </g>
     </g>
     <g id="text_3">
      <!-- 8 -->
      <g transform="translate(227.453279 308.978125) scale(0.12 -0.12)">
       <defs>
        <path id="DejaVuSans-38" d="M 2034 2216 
Q 1584 2216 1326 1975 
Q 1069 1734 1069 1313 
Q 1069 891 1326 650 
Q 1584 409 2034 409 
Q 2484 409 2743 651 
Q 3003 894 3003 1313 
Q 3003 1734 2745 1975 
Q 2488 2216 2034 2216 
z
M 1403 2484 
Q 997 2584 770 2862 
Q 544 3141 544 3541 
Q 544 4100 942 4425 
Q 1341 4750 2034 4750 
Q 2731 4750 3128 4425 
Q 3525 4100 3525 3541 
Q 3525 3141 3298 2862 
Q 3072 2584 2669 2484 
Q 3125 2378 3379 2068 
Q 3634 1759 3634 1313 
Q 3634 634 3220 271 
Q 2806 -91 2034 -91 
Q 1263 -91 848 271 
Q 434 634 434 1313 
Q 434 1759 690 2068 
Q 947 2378 1403 2484 
z
M 1172 3481 
Q 1172 3119 1398 2916 
Q 1625 2713 2034 2713 
Q 2441 2713 2670 2916 
Q 2900 3119 2900 3481 
Q 2900 3844 2670 4047 
Q 2441 4250 2034 4250 
Q 1625 4250 1398 4047 
Q 1172 3844 1172 3481 
z
" transform="scale(0.015625)"/>
       </defs>
       <use xlink:href="#DejaVuSans-38"/>
      </g>
     </g>
    </g>
   </g>
   <g id="matplotlib.axis_2">
    <g id="ytick_1">
     <g id="line2d_4">
      <defs>
       <path id="m8342854c55" d="M 0 0 
L -8 0 
" style="stroke: #000000; stroke-width: 1.5"/>
      </defs>
      <g>
       <use xlink:href="#m8342854c55" x="40.5" y="283.676947" style="stroke: #000000; stroke-width: 1.5"/>
      </g>
     </g>
     <g id="text_4">
      <!-- 0.0 -->
      <g transform="translate(9.91625 288.23601) scale(0.12 -0.12)">
       <defs>
        <path id="DejaVuSans-30" d="M 2034 4250 
Q 1547 4250 1301 3770 
Q 1056 3291 1056 2328 
Q 1056 1369 1301 889 
Q 1547 409 2034 409 
Q 2525 409 2770 889 
Q 3016 1369 3016 2328 
Q 3016 3291 2770 3770 
Q 2525 4250 2034 4250 
z
M 2034 4750 
Q 2819 4750 3233 4129 
Q 3647 3509 3647 2328 
Q 3647 1150 3233 529 
Q 2819 -91 2034 -91 
Q 1250 -91 836 529 
Q 422 1150 422 2328 
Q 422 3509 836 4129 
Q 1250 4750 2034 4750 
z
" transform="scale(0.015625)"/>
        <path id="DejaVuSans-2e" d="M 684 794 
L 1344 794 
L 1344 0 
L 684 0 
L 684 794 
z
" transform="scale(0.015625)"/>
       </defs>
       <use xlink:href="#DejaVuSans-30"/>
       <use xlink:href="#DejaVuSans-2e" x="63.623047"/>
       <use xlink:href="#DejaVuSans-30" x="95.410156"/>
      </g>
     </g>
    </g>
    <g id="ytick_2">
     <g id="line2d_5">
      <g>
       <use xlink:href="#m8342854c55" x="40.5" y="234.717558" style="stroke: #000000; stroke-width: 1.5"/>
      </g>
     </g>
     <g id="text_5">
      <!-- 0.5 -->
      <g transform="translate(9.91625 239.27662) scale(0.12 -0.12)">
       <defs>
        <path id="DejaVuSans-35" d="M 691 4666 
L 3169 4666 
L 3169 4134 
L 1269 4134 
L 1269 2991 
Q 1406 3038 1543 3061 
Q 1681 3084 1819 3084 
Q 2600 3084 3056 2656 
Q 3513 2228 3513 1497 
Q 3513 744 3044 326 
Q 2575 -91 1722 -91 
Q 1428 -91 1123 -41 
Q 819 9 494 109 
L 494 744 
Q 775 591 1075 516 
Q 1375 441 1709 441 
Q 2250 441 2565 725 
Q 2881 1009 2881 1497 
Q 2881 1984 2565 2268 
Q 2250 2553 1709 2553 
Q 1456 2553 1204 2497 
Q 953 2441 691 2322 
L 691 4666 
z
" transform="scale(0.015625)"/>
       </defs>
       <use xlink:href="#DejaVuSans-30"/>
       <use xlink:href="#DejaVuSans-2e" x="63.623047"/>
       <use xlink:href="#DejaVuSans-35" x="95.410156"/>
      </g>
     </g>
    </g>
    <g id="ytick_3">
     <g id="line2d_6">
      <g>
       <use xlink:href="#m8342854c55" x="40.5" y="185.758168" style="stroke: #000000; stroke-width: 1.5"/>
      </g>
     </g>
     <g id="text_6">
      <!-- 1.0 -->
      <g transform="translate(9.91625 190.317231) scale(0.12 -0.12)">
       <defs>
        <path id="DejaVuSans-31" d="M 794 531 
L 1825 531 
L 1825 4091 
L 703 3866 
L 703 4441 
L 1819 4666 
L 2450 4666 
L 2450 531 
L 3481 531 
L 3481 0 
L 794 0 
L 794 531 
z
" transform="scale(0.015625)"/>
       </defs>
       <use xlink:href="#DejaVuSans-31"/>
       <use xlink:href="#DejaVuSans-2e" x="63.623047"/>
       <use xlink:href="#DejaVuSans-30" x="95.410156"/>
      </g>
     </g>
    </g>
    <g id="ytick_4">
     <g id="line2d_7">
      <g>
       <use xlink:href="#m8342854c55" x="40.5" y="136.798779" style="stroke: #000000; stroke-width: 1.5"/>
      </g>
     </g>
     <g id="text_7">
      <!-- 1.5 -->
      <g transform="translate(9.91625 141.357841) scale(0.12 -0.12)">
       <use xlink:href="#DejaVuSans-31"/>
       <use xlink:href="#DejaVuSans-2e" x="63.623047"/>
       <use xlink:href="#DejaVuSans-35" x="95.410156"/>
      </g>
     </g>
    </g>
    <g id="ytick_5">
     <g id="line2d_8">
      <g>
       <use xlink:href="#m8342854c55" x="40.5" y="87.839389" style="stroke: #000000; stroke-width: 1.5"/>
      </g>
     </g>
     <g id="text_8">
      <!-- 2.0 -->
      <g transform="translate(9.91625 92.398452) scale(0.12 -0.12)">
       <defs>
        <path id="DejaVuSans-32" d="M 1228 531 
L 3431 531 
L 3431 0 
L 469 0 
L 469 531 
Q 828 903 1448 1529 
Q 2069 2156 2228 2338 
Q 2531 2678 2651 2914 
Q 2772 3150 2772 3378 
Q 2772 3750 2511 3984 
Q 2250 4219 1831 4219 
Q 1534 4219 1204 4116 
Q 875 4013 500 3803 
L 500 4441 
Q 881 4594 1212 4672 
Q 1544 4750 1819 4750 
Q 2544 4750 2975 4387 
Q 3406 4025 3406 3419 
Q 3406 3131 3298 2873 
Q 3191 2616 2906 2266 
Q 2828 2175 2409 1742 
Q 1991 1309 1228 531 
z
" transform="scale(0.015625)"/>
       </defs>
       <use xlink:href="#DejaVuSans-32"/>
       <use xlink:href="#DejaVuSans-2e" x="63.623047"/>
       <use xlink:href="#DejaVuSans-30" x="95.410156"/>
      </g>
     </g>
    </g>
    <g id="ytick_6">
     <g id="line2d_9">
      <g>
       <use xlink:href="#m8342854c55" x="40.5" y="38.88" style="stroke: #000000; stroke-width: 1.5"/>
      </g>
     </g>
     <g id="text_9">
      <!-- 2.5 -->
      <g transform="translate(9.91625 43.439062) scale(0.12 -0.12)">
       <use xlink:href="#DejaVuSans-32"/>
       <use xlink:href="#DejaVuSans-2e" x="63.623047"/>
       <use xlink:href="#DejaVuSans-35" x="95.410156"/>
      </g>
     </g>
    </g>
   </g>
   <g id="line2d_10">
    <path d="M 51.913636 122.981348 
L 68.218831 126.988905 
L 84.524026 133.003354 
L 100.829221 143.83782 
L 117.134416 158.922193 
L 133.43961 176.596225 
L 149.744805 194.356823 
L 166.05 213.443096 
L 182.355195 228.958426 
L 198.66039 239.767746 
L 214.965584 254.971233 
L 231.270779 265.424369 
L 247.575974 269.489451 
L 263.881169 271.403182 
L 280.186364 272.591425 
" clip-path="url(#p125fa76214)" style="fill: none; stroke: #ff0000; stroke-width: 1.5; stroke-linecap: square"/>
   </g>
   <g id="LineCollection_1">
    <path d="M 51.913636 123.588704 
L 51.913636 122.373992 
" clip-path="url(#p125fa76214)" style="fill: none; stroke: #ff0000; stroke-width: 2"/>
    <path d="M 68.218831 127.308816 
L 68.218831 126.668994 
" clip-path="url(#p125fa76214)" style="fill: none; stroke: #ff0000; stroke-width: 2"/>
    <path d="M 84.524026 133.477657 
L 84.524026 132.52905 
" clip-path="url(#p125fa76214)" style="fill: none; stroke: #ff0000; stroke-width: 2"/>
    <path d="M 100.829221 144.157086 
L 100.829221 143.518554 
" clip-path="url(#p125fa76214)" style="fill: none; stroke: #ff0000; stroke-width: 2"/>
    <path d="M 117.134416 159.127326 
L 117.134416 158.71706 
" clip-path="url(#p125fa76214)" style="fill: none; stroke: #ff0000; stroke-width: 2"/>
    <path d="M 133.43961 176.891014 
L 133.43961 176.301435 
" clip-path="url(#p125fa76214)" style="fill: none; stroke: #ff0000; stroke-width: 2"/>
    <path d="M 149.744805 194.703352 
L 149.744805 194.010295 
" clip-path="url(#p125fa76214)" style="fill: none; stroke: #ff0000; stroke-width: 2"/>
    <path d="M 166.05 213.724875 
L 166.05 213.161317 
" clip-path="url(#p125fa76214)" style="fill: none; stroke: #ff0000; stroke-width: 2"/>
    <path d="M 182.355195 229.042045 
L 182.355195 228.874807 
" clip-path="url(#p125fa76214)" style="fill: none; stroke: #ff0000; stroke-width: 2"/>
    <path d="M 198.66039 239.833583 
L 198.66039 239.70191 
" clip-path="url(#p125fa76214)" style="fill: none; stroke: #ff0000; stroke-width: 2"/>
    <path d="M 214.965584 254.990926 
L 214.965584 254.951539 
" clip-path="url(#p125fa76214)" style="fill: none; stroke: #ff0000; stroke-width: 2"/>
    <path d="M 231.270779 265.433812 
L 231.270779 265.414926 
" clip-path="url(#p125fa76214)" style="fill: none; stroke: #ff0000; stroke-width: 2"/>
    <path d="M 247.575974 269.496366 
L 247.575974 269.482536 
" clip-path="url(#p125fa76214)" style="fill: none; stroke: #ff0000; stroke-width: 2"/>
    <path d="M 263.881169 271.405361 
L 263.881169 271.401004 
" clip-path="url(#p125fa76214)" style="fill: none; stroke: #ff0000; stroke-width: 2"/>
    <path d="M 280.186364 272.592616 
L 280.186364 272.590234 
" clip-path="url(#p125fa76214)" style="fill: none; stroke: #ff0000; stroke-width: 2"/>
   </g>
   <g id="line2d_11">
    <defs>
     <path id="mbf01b220fa" d="M 3 0 
L -3 -0 
" style="stroke: #ff0000; stroke-width: 2"/>
    </defs>
    <g clip-path="url(#p125fa76214)">
     <use xlink:href="#mbf01b220fa" x="51.913636" y="123.588704" style="fill: #ff0000; stroke: #ff0000; stroke-width: 2"/>
     <use xlink:href="#mbf01b220fa" x="68.218831" y="127.308816" style="fill: #ff0000; stroke: #ff0000; stroke-width: 2"/>
     <use xlink:href="#mbf01b220fa" x="84.524026" y="133.477657" style="fill: #ff0000; stroke: #ff0000; stroke-width: 2"/>
     <use xlink:href="#mbf01b220fa" x="100.829221" y="144.157086" style="fill: #ff0000; stroke: #ff0000; stroke-width: 2"/>
     <use xlink:href="#mbf01b220fa" x="117.134416" y="159.127326" style="fill: #ff0000; stroke: #ff0000; stroke-width: 2"/>
     <use xlink:href="#mbf01b220fa" x="133.43961" y="176.891014" style="fill: #ff0000; stroke: #ff0000; stroke-width: 2"/>
     <use xlink:href="#mbf01b220fa" x="149.744805" y="194.703352" style="fill: #ff0000; stroke: #ff0000; stroke-width: 2"/>
     <use xlink:href="#mbf01b220fa" x="166.05" y="213.724875" style="fill: #ff0000; stroke: #ff0000; stroke-width: 2"/>
     <use xlink:href="#mbf01b220fa" x="182.355195" y="229.042045" style="fill: #ff0000; stroke: #ff0000; stroke-width: 2"/>
     <use xlink:href="#mbf01b220fa" x="198.66039" y="239.833583" style="fill: #ff0000; stroke: #ff0000; stroke-width: 2"/>
     <use xlink:href="#mbf01b220fa" x="214.965584" y="254.990926" style="fill: #ff0000; stroke: #ff0000; stroke-width: 2"/>
     <use xlink:href="#mbf01b220fa" x="231.270779" y="265.433812" style="fill: #ff0000; stroke: #ff0000; stroke-width: 2"/>
     <use xlink:href="#mbf01b220fa" x="247.575974" y="269.496366" style="fill: #ff0000; stroke: #ff0000; stroke-width: 2"/>
     <use xlink:href="#mbf01b220fa" x="263.881169" y="271.405361" style="fill: #ff0000; stroke: #ff0000; stroke-width: 2"/>
     <use xlink:href="#mbf01b220fa" x="280.186364" y="272.592616" style="fill: #ff0000; stroke: #ff0000; stroke-width: 2"/>
    </g>
   </g>
   <g id="line2d_12">
    <g clip-path="url(#p125fa76214)">
     <use xlink:href="#mbf01b220fa" x="51.913636" y="122.373992" style="fill: #ff0000; stroke: #ff0000; stroke-width: 2"/>
     <use xlink:href="#mbf01b220fa" x="68.218831" y="126.668994" style="fill: #ff0000; stroke: #ff0000; stroke-width: 2"/>
     <use xlink:href="#mbf01b220fa" x="84.524026" y="132.52905" style="fill: #ff0000; stroke: #ff0000; stroke-width: 2"/>
     <use xlink:href="#mbf01b220fa" x="100.829221" y="143.518554" style="fill: #ff0000; stroke: #ff0000; stroke-width: 2"/>
     <use xlink:href="#mbf01b220fa" x="117.134416" y="158.71706" style="fill: #ff0000; stroke: #ff0000; stroke-width: 2"/>
     <use xlink:href="#mbf01b220fa" x="133.43961" y="176.301435" style="fill: #ff0000; stroke: #ff0000; stroke-width: 2"/>
     <use xlink:href="#mbf01b220fa" x="149.744805" y="194.010295" style="fill: #ff0000; stroke: #ff0000; stroke-width: 2"/>
     <use xlink:href="#mbf01b220fa" x="166.05" y="213.161317" style="fill: #ff0000; stroke: #ff0000; stroke-width: 2"/>
     <use xlink:href="#mbf01b220fa" x="182.355195" y="228.874807" style="fill: #ff0000; stroke: #ff0000; stroke-width: 2"/>
     <use xlink:href="#mbf01b220fa" x="198.66039" y="239.70191" style="fill: #ff0000; stroke: #ff0000; stroke-width: 2"/>
     <use xlink:href="#mbf01b220fa" x="214.965584" y="254.951539" style="fill: #ff0000; stroke: #ff0000; stroke-width: 2"/>
     <use xlink:href="#mbf01b220fa" x="231.270779" y="265.414926" style="fill: #ff0000; stroke: #ff0000; stroke-width: 2"/>
     <use xlink:href="#mbf01b220fa" x="247.575974" y="269.482536" style="fill: #ff0000; stroke: #ff0000; stroke-width: 2"/>
     <use xlink:href="#mbf01b220fa" x="263.881169" y="271.401004" style="fill: #ff0000; stroke: #ff0000; stroke-width: 2"/>
     <use xlink:href="#mbf01b220fa" x="280.186364" y="272.590234" style="fill: #ff0000; stroke: #ff0000; stroke-width: 2"/>
    </g>
   </g>
   <g id="line2d_13">
    <path d="M 51.913636 99.373096 
L 68.218831 105.830528 
L 84.524026 117.246219 
L 100.829221 131.19718 
L 117.134416 144.581458 
L 133.43961 163.087876 
L 149.744805 184.86022 
L 166.05 207.565543 
L 182.355195 229.938081 
L 198.66039 246.603384 
L 214.965584 259.716337 
L 231.270779 268.631157 
L 247.575974 272.179128 
L 263.881169 273.797646 
L 280.186364 274.770103 
" clip-path="url(#p125fa76214)" style="fill: none; stroke: #000000; stroke-width: 1.5; stroke-linecap: square"/>
   </g>
   <g id="LineCollection_2">
    <path d="M 51.913636 100.45392 
L 51.913636 98.292272 
" clip-path="url(#p125fa76214)" style="fill: none; stroke: #000000; stroke-width: 2"/>
    <path d="M 68.218831 107.237518 
L 68.218831 104.423539 
" clip-path="url(#p125fa76214)" style="fill: none; stroke: #000000; stroke-width: 2"/>
    <path d="M 84.524026 117.775937 
L 84.524026 116.716502 
" clip-path="url(#p125fa76214)" style="fill: none; stroke: #000000; stroke-width: 2"/>
    <path d="M 100.829221 131.845417 
L 100.829221 130.548943 
" clip-path="url(#p125fa76214)" style="fill: none; stroke: #000000; stroke-width: 2"/>
    <path d="M 117.134416 145.023133 
L 117.134416 144.139783 
" clip-path="url(#p125fa76214)" style="fill: none; stroke: #000000; stroke-width: 2"/>
    <path d="M 133.43961 163.768036 
L 133.43961 162.407716 
" clip-path="url(#p125fa76214)" style="fill: none; stroke: #000000; stroke-width: 2"/>
    <path d="M 149.744805 185.286043 
L 149.744805 184.434397 
" clip-path="url(#p125fa76214)" style="fill: none; stroke: #000000; stroke-width: 2"/>
    <path d="M 166.05 207.844851 
L 166.05 207.286236 
" clip-path="url(#p125fa76214)" style="fill: none; stroke: #000000; stroke-width: 2"/>
    <path d="M 182.355195 230.023125 
L 182.355195 229.853038 
" clip-path="url(#p125fa76214)" style="fill: none; stroke: #000000; stroke-width: 2"/>
    <path d="M 198.66039 246.666802 
L 198.66039 246.539966 
" clip-path="url(#p125fa76214)" style="fill: none; stroke: #000000; stroke-width: 2"/>
    <path d="M 214.965584 259.736888 
L 214.965584 259.695786 
" clip-path="url(#p125fa76214)" style="fill: none; stroke: #000000; stroke-width: 2"/>
    <path d="M 231.270779 268.63824 
L 231.270779 268.624073 
" clip-path="url(#p125fa76214)" style="fill: none; stroke: #000000; stroke-width: 2"/>
    <path d="M 247.575974 272.180448 
L 247.575974 272.177809 
" clip-path="url(#p125fa76214)" style="fill: none; stroke: #000000; stroke-width: 2"/>
    <path d="M 263.881169 273.799536 
L 263.881169 273.795755 
" clip-path="url(#p125fa76214)" style="fill: none; stroke: #000000; stroke-width: 2"/>
    <path d="M 280.186364 274.770511 
L 280.186364 274.769695 
" clip-path="url(#p125fa76214)" style="fill: none; stroke: #000000; stroke-width: 2"/>
   </g>
   <g id="line2d_14">
    <defs>
     <path id="mbf9404bb68" d="M 3 0 
L -3 -0 
" style="stroke: #000000; stroke-width: 2"/>
    </defs>
    <g clip-path="url(#p125fa76214)">
     <use xlink:href="#mbf9404bb68" x="51.913636" y="100.45392" style="stroke: #000000; stroke-width: 2"/>
     <use xlink:href="#mbf9404bb68" x="68.218831" y="107.237518" style="stroke: #000000; stroke-width: 2"/>
     <use xlink:href="#mbf9404bb68" x="84.524026" y="117.775937" style="stroke: #000000; stroke-width: 2"/>
     <use xlink:href="#mbf9404bb68" x="100.829221" y="131.845417" style="stroke: #000000; stroke-width: 2"/>
     <use xlink:href="#mbf9404bb68" x="117.134416" y="145.023133" style="stroke: #000000; stroke-width: 2"/>
     <use xlink:href="#mbf9404bb68" x="133.43961" y="163.768036" style="stroke: #000000; stroke-width: 2"/>
     <use xlink:href="#mbf9404bb68" x="149.744805" y="185.286043" style="stroke: #000000; stroke-width: 2"/>
     <use xlink:href="#mbf9404bb68" x="166.05" y="207.844851" style="stroke: #000000; stroke-width: 2"/>
     <use xlink:href="#mbf9404bb68" x="182.355195" y="230.023125" style="stroke: #000000; stroke-width: 2"/>
     <use xlink:href="#mbf9404bb68" x="198.66039" y="246.666802" style="stroke: #000000; stroke-width: 2"/>
     <use xlink:href="#mbf9404bb68" x="214.965584" y="259.736888" style="stroke: #000000; stroke-width: 2"/>
     <use xlink:href="#mbf9404bb68" x="231.270779" y="268.63824" style="stroke: #000000; stroke-width: 2"/>
     <use xlink:href="#mbf9404bb68" x="247.575974" y="272.180448" style="stroke: #000000; stroke-width: 2"/>
     <use xlink:href="#mbf9404bb68" x="263.881169" y="273.799536" style="stroke: #000000; stroke-width: 2"/>
     <use xlink:href="#mbf9404bb68" x="280.186364" y="274.770511" style="stroke: #000000; stroke-width: 2"/>
    </g>
   </g>
   <g id="line2d_15">
    <g clip-path="url(#p125fa76214)">
     <use xlink:href="#mbf9404bb68" x="51.913636" y="98.292272" style="stroke: #000000; stroke-width: 2"/>
     <use xlink:href="#mbf9404bb68" x="68.218831" y="104.423539" style="stroke: #000000; stroke-width: 2"/>
     <use xlink:href="#mbf9404bb68" x="84.524026" y="116.716502" style="stroke: #000000; stroke-width: 2"/>
     <use xlink:href="#mbf9404bb68" x="100.829221" y="130.548943" style="stroke: #000000; stroke-width: 2"/>
     <use xlink:href="#mbf9404bb68" x="117.134416" y="144.139783" style="stroke: #000000; stroke-width: 2"/>
     <use xlink:href="#mbf9404bb68" x="133.43961" y="162.407716" style="stroke: #000000; stroke-width: 2"/>
     <use xlink:href="#mbf9404bb68" x="149.744805" y="184.434397" style="stroke: #000000; stroke-width: 2"/>
     <use xlink:href="#mbf9404bb68" x="166.05" y="207.286236" style="stroke: #000000; stroke-width: 2"/>
     <use xlink:href="#mbf9404bb68" x="182.355195" y="229.853038" style="stroke: #000000; stroke-width: 2"/>
     <use xlink:href="#mbf9404bb68" x="198.66039" y="246.539966" style="stroke: #000000; stroke-width: 2"/>
     <use xlink:href="#mbf9404bb68" x="214.965584" y="259.695786" style="stroke: #000000; stroke-width: 2"/>
     <use xlink:href="#mbf9404bb68" x="231.270779" y="268.624073" style="stroke: #000000; stroke-width: 2"/>
     <use xlink:href="#mbf9404bb68" x="247.575974" y="272.177809" style="stroke: #000000; stroke-width: 2"/>
     <use xlink:href="#mbf9404bb68" x="263.881169" y="273.795755" style="stroke: #000000; stroke-width: 2"/>
     <use xlink:href="#mbf9404bb68" x="280.186364" y="274.769695" style="stroke: #000000; stroke-width: 2"/>
    </g>
   </g>
   <g id="line2d_16">
    <path d="M 51.913636 78.776793 
L 68.218831 84.330825 
L 84.524026 95.539347 
L 100.829221 112.694029 
L 117.134416 134.54381 
L 133.43961 155.964337 
L 149.744805 177.828533 
L 166.05 202.991568 
L 182.355195 228.35691 
L 198.66039 249.105879 
L 214.965584 263.036333 
L 231.270779 270.885981 
L 247.575974 274.02411 
L 263.881169 275.413692 
L 280.186364 276.238205 
" clip-path="url(#p125fa76214)" style="fill: none; stroke: #0000ff; stroke-width: 1.5; stroke-linecap: square"/>
   </g>
   <g id="LineCollection_3">
    <path d="M 51.913636 79.312156 
L 51.913636 78.24143 
" clip-path="url(#p125fa76214)" style="fill: none; stroke: #0000ff; stroke-width: 2"/>
    <path d="M 68.218831 85.49997 
L 68.218831 83.16168 
" clip-path="url(#p125fa76214)" style="fill: none; stroke: #0000ff; stroke-width: 2"/>
    <path d="M 84.524026 96.37779 
L 84.524026 94.700905 
" clip-path="url(#p125fa76214)" style="fill: none; stroke: #0000ff; stroke-width: 2"/>
    <path d="M 100.829221 113.617081 
L 100.829221 111.770977 
" clip-path="url(#p125fa76214)" style="fill: none; stroke: #0000ff; stroke-width: 2"/>
    <path d="M 117.134416 135.095703 
L 117.134416 133.991917 
" clip-path="url(#p125fa76214)" style="fill: none; stroke: #0000ff; stroke-width: 2"/>
    <path d="M 133.43961 156.388733 
L 133.43961 155.539941 
" clip-path="url(#p125fa76214)" style="fill: none; stroke: #0000ff; stroke-width: 2"/>
    <path d="M 149.744805 178.212617 
L 149.744805 177.444448 
" clip-path="url(#p125fa76214)" style="fill: none; stroke: #0000ff; stroke-width: 2"/>
    <path d="M 166.05 203.287195 
L 166.05 202.69594 
" clip-path="url(#p125fa76214)" style="fill: none; stroke: #0000ff; stroke-width: 2"/>
    <path d="M 182.355195 228.527615 
L 182.355195 228.186205 
" clip-path="url(#p125fa76214)" style="fill: none; stroke: #0000ff; stroke-width: 2"/>
    <path d="M 198.66039 249.206661 
L 198.66039 249.005097 
" clip-path="url(#p125fa76214)" style="fill: none; stroke: #0000ff; stroke-width: 2"/>
    <path d="M 214.965584 263.068141 
L 214.965584 263.004524 
" clip-path="url(#p125fa76214)" style="fill: none; stroke: #0000ff; stroke-width: 2"/>
    <path d="M 231.270779 270.897584 
L 231.270779 270.874378 
" clip-path="url(#p125fa76214)" style="fill: none; stroke: #0000ff; stroke-width: 2"/>
    <path d="M 247.575974 274.025446 
L 247.575974 274.022775 
" clip-path="url(#p125fa76214)" style="fill: none; stroke: #0000ff; stroke-width: 2"/>
    <path d="M 263.881169 275.414493 
L 263.881169 275.41289 
" clip-path="url(#p125fa76214)" style="fill: none; stroke: #0000ff; stroke-width: 2"/>
    <path d="M 280.186364 276.238723 
L 280.186364 276.237688 
" clip-path="url(#p125fa76214)" style="fill: none; stroke: #0000ff; stroke-width: 2"/>
   </g>
   <g id="line2d_17">
    <defs>
     <path id="m3f79781276" d="M 3 0 
L -3 -0 
" style="stroke: #0000ff; stroke-width: 2"/>
    </defs>
    <g clip-path="url(#p125fa76214)">
     <use xlink:href="#m3f79781276" x="51.913636" y="79.312156" style="fill: #0000ff; stroke: #0000ff; stroke-width: 2"/>
     <use xlink:href="#m3f79781276" x="68.218831" y="85.49997" style="fill: #0000ff; stroke: #0000ff; stroke-width: 2"/>
     <use xlink:href="#m3f79781276" x="84.524026" y="96.37779" style="fill: #0000ff; stroke: #0000ff; stroke-width: 2"/>
     <use xlink:href="#m3f79781276" x="100.829221" y="113.617081" style="fill: #0000ff; stroke: #0000ff; stroke-width: 2"/>
     <use xlink:href="#m3f79781276" x="117.134416" y="135.095703" style="fill: #0000ff; stroke: #0000ff; stroke-width: 2"/>
     <use xlink:href="#m3f79781276" x="133.43961" y="156.388733" style="fill: #0000ff; stroke: #0000ff; stroke-width: 2"/>
     <use xlink:href="#m3f79781276" x="149.744805" y="178.212617" style="fill: #0000ff; stroke: #0000ff; stroke-width: 2"/>
     <use xlink:href="#m3f79781276" x="166.05" y="203.287195" style="fill: #0000ff; stroke: #0000ff; stroke-width: 2"/>
     <use xlink:href="#m3f79781276" x="182.355195" y="228.527615" style="fill: #0000ff; stroke: #0000ff; stroke-width: 2"/>
     <use xlink:href="#m3f79781276" x="198.66039" y="249.206661" style="fill: #0000ff; stroke: #0000ff; stroke-width: 2"/>
     <use xlink:href="#m3f79781276" x="214.965584" y="263.068141" style="fill: #0000ff; stroke: #0000ff; stroke-width: 2"/>
     <use xlink:href="#m3f79781276" x="231.270779" y="270.897584" style="fill: #0000ff; stroke: #0000ff; stroke-width: 2"/>
     <use xlink:href="#m3f79781276" x="247.575974" y="274.025446" style="fill: #0000ff; stroke: #0000ff; stroke-width: 2"/>
     <use xlink:href="#m3f79781276" x="263.881169" y="275.414493" style="fill: #0000ff; stroke: #0000ff; stroke-width: 2"/>
     <use xlink:href="#m3f79781276" x="280.186364" y="276.238723" style="fill: #0000ff; stroke: #0000ff; stroke-width: 2"/>
    </g>
   </g>
   <g id="line2d_18">
    <g clip-path="url(#p125fa76214)">
     <use xlink:href="#m3f79781276" x="51.913636" y="78.24143" style="fill: #0000ff; stroke: #0000ff; stroke-width: 2"/>
     <use xlink:href="#m3f79781276" x="68.218831" y="83.16168" style="fill: #0000ff; stroke: #0000ff; stroke-width: 2"/>
     <use xlink:href="#m3f79781276" x="84.524026" y="94.700905" style="fill: #0000ff; stroke: #0000ff; stroke-width: 2"/>
     <use xlink:href="#m3f79781276" x="100.829221" y="111.770977" style="fill: #0000ff; stroke: #0000ff; stroke-width: 2"/>
     <use xlink:href="#m3f79781276" x="117.134416" y="133.991917" style="fill: #0000ff; stroke: #0000ff; stroke-width: 2"/>
     <use xlink:href="#m3f79781276" x="133.43961" y="155.539941" style="fill: #0000ff; stroke: #0000ff; stroke-width: 2"/>
     <use xlink:href="#m3f79781276" x="149.744805" y="177.444448" style="fill: #0000ff; stroke: #0000ff; stroke-width: 2"/>
     <use xlink:href="#m3f79781276" x="166.05" y="202.69594" style="fill: #0000ff; stroke: #0000ff; stroke-width: 2"/>
     <use xlink:href="#m3f79781276" x="182.355195" y="228.186205" style="fill: #0000ff; stroke: #0000ff; stroke-width: 2"/>
     <use xlink:href="#m3f79781276" x="198.66039" y="249.005097" style="fill: #0000ff; stroke: #0000ff; stroke-width: 2"/>
     <use xlink:href="#m3f79781276" x="214.965584" y="263.004524" style="fill: #0000ff; stroke: #0000ff; stroke-width: 2"/>
     <use xlink:href="#m3f79781276" x="231.270779" y="270.874378" style="fill: #0000ff; stroke: #0000ff; stroke-width: 2"/>
     <use xlink:href="#m3f79781276" x="247.575974" y="274.022775" style="fill: #0000ff; stroke: #0000ff; stroke-width: 2"/>
     <use xlink:href="#m3f79781276" x="263.881169" y="275.41289" style="fill: #0000ff; stroke: #0000ff; stroke-width: 2"/>
     <use xlink:href="#m3f79781276" x="280.186364" y="276.237688" style="fill: #0000ff; stroke: #0000ff; stroke-width: 2"/>
    </g>
   </g>
   <g id="line2d_19">
    <path d="M 51.913636 55.952606 
L 68.218831 61.079937 
L 84.524026 77.475097 
L 100.829221 94.766787 
L 117.134416 118.793576 
L 133.43961 145.18598 
L 149.744805 174.058387 
L 166.05 200.595956 
L 182.355195 227.600472 
L 198.66039 250.549644 
L 214.965584 265.239011 
L 231.270779 272.57214 
L 247.575974 275.356372 
L 263.881169 276.574812 
L 280.186364 277.289861 
" clip-path="url(#p125fa76214)" style="fill: none; stroke: #bf00bf; stroke-width: 1.5; stroke-linecap: square"/>
   </g>
   <g id="LineCollection_4">
    <path d="M 51.913636 56.00687 
L 51.913636 55.898342 
" clip-path="url(#p125fa76214)" style="fill: none; stroke: #bf00bf; stroke-width: 2"/>
    <path d="M 68.218831 63.078049 
L 68.218831 59.081824 
" clip-path="url(#p125fa76214)" style="fill: none; stroke: #bf00bf; stroke-width: 2"/>
    <path d="M 84.524026 78.098946 
L 84.524026 76.851248 
" clip-path="url(#p125fa76214)" style="fill: none; stroke: #bf00bf; stroke-width: 2"/>
    <path d="M 100.829221 95.573681 
L 100.829221 93.959894 
" clip-path="url(#p125fa76214)" style="fill: none; stroke: #bf00bf; stroke-width: 2"/>
    <path d="M 117.134416 119.32555 
L 117.134416 118.261603 
" clip-path="url(#p125fa76214)" style="fill: none; stroke: #bf00bf; stroke-width: 2"/>
    <path d="M 133.43961 146.031837 
L 133.43961 144.340123 
" clip-path="url(#p125fa76214)" style="fill: none; stroke: #bf00bf; stroke-width: 2"/>
    <path d="M 149.744805 174.761961 
L 149.744805 173.354812 
" clip-path="url(#p125fa76214)" style="fill: none; stroke: #bf00bf; stroke-width: 2"/>
    <path d="M 166.05 200.861726 
L 166.05 200.330186 
" clip-path="url(#p125fa76214)" style="fill: none; stroke: #bf00bf; stroke-width: 2"/>
    <path d="M 182.355195 227.821381 
L 182.355195 227.379564 
" clip-path="url(#p125fa76214)" style="fill: none; stroke: #bf00bf; stroke-width: 2"/>
    <path d="M 198.66039 250.596771 
L 198.66039 250.502516 
" clip-path="url(#p125fa76214)" style="fill: none; stroke: #bf00bf; stroke-width: 2"/>
    <path d="M 214.965584 265.261765 
L 214.965584 265.216256 
" clip-path="url(#p125fa76214)" style="fill: none; stroke: #bf00bf; stroke-width: 2"/>
    <path d="M 231.270779 272.582668 
L 231.270779 272.561612 
" clip-path="url(#p125fa76214)" style="fill: none; stroke: #bf00bf; stroke-width: 2"/>
    <path d="M 247.575974 275.35984 
L 247.575974 275.352904 
" clip-path="url(#p125fa76214)" style="fill: none; stroke: #bf00bf; stroke-width: 2"/>
    <path d="M 263.881169 276.576668 
L 263.881169 276.572957 
" clip-path="url(#p125fa76214)" style="fill: none; stroke: #bf00bf; stroke-width: 2"/>
    <path d="M 280.186364 277.290397 
L 280.186364 277.289324 
" clip-path="url(#p125fa76214)" style="fill: none; stroke: #bf00bf; stroke-width: 2"/>
   </g>
   <g id="line2d_20">
    <defs>
     <path id="m2e6cb64b9d" d="M 3 0 
L -3 -0 
" style="stroke: #bf00bf; stroke-width: 2"/>
    </defs>
    <g clip-path="url(#p125fa76214)">
     <use xlink:href="#m2e6cb64b9d" x="51.913636" y="56.00687" style="fill: #bf00bf; stroke: #bf00bf; stroke-width: 2"/>
     <use xlink:href="#m2e6cb64b9d" x="68.218831" y="63.078049" style="fill: #bf00bf; stroke: #bf00bf; stroke-width: 2"/>
     <use xlink:href="#m2e6cb64b9d" x="84.524026" y="78.098946" style="fill: #bf00bf; stroke: #bf00bf; stroke-width: 2"/>
     <use xlink:href="#m2e6cb64b9d" x="100.829221" y="95.573681" style="fill: #bf00bf; stroke: #bf00bf; stroke-width: 2"/>
     <use xlink:href="#m2e6cb64b9d" x="117.134416" y="119.32555" style="fill: #bf00bf; stroke: #bf00bf; stroke-width: 2"/>
     <use xlink:href="#m2e6cb64b9d" x="133.43961" y="146.031837" style="fill: #bf00bf; stroke: #bf00bf; stroke-width: 2"/>
     <use xlink:href="#m2e6cb64b9d" x="149.744805" y="174.761961" style="fill: #bf00bf; stroke: #bf00bf; stroke-width: 2"/>
     <use xlink:href="#m2e6cb64b9d" x="166.05" y="200.861726" style="fill: #bf00bf; stroke: #bf00bf; stroke-width: 2"/>
     <use xlink:href="#m2e6cb64b9d" x="182.355195" y="227.821381" style="fill: #bf00bf; stroke: #bf00bf; stroke-width: 2"/>
     <use xlink:href="#m2e6cb64b9d" x="198.66039" y="250.596771" style="fill: #bf00bf; stroke: #bf00bf; stroke-width: 2"/>
     <use xlink:href="#m2e6cb64b9d" x="214.965584" y="265.261765" style="fill: #bf00bf; stroke: #bf00bf; stroke-width: 2"/>
     <use xlink:href="#m2e6cb64b9d" x="231.270779" y="272.582668" style="fill: #bf00bf; stroke: #bf00bf; stroke-width: 2"/>
     <use xlink:href="#m2e6cb64b9d" x="247.575974" y="275.35984" style="fill: #bf00bf; stroke: #bf00bf; stroke-width: 2"/>
     <use xlink:href="#m2e6cb64b9d" x="263.881169" y="276.576668" style="fill: #bf00bf; stroke: #bf00bf; stroke-width: 2"/>
     <use xlink:href="#m2e6cb64b9d" x="280.186364" y="277.290397" style="fill: #bf00bf; stroke: #bf00bf; stroke-width: 2"/>
    </g>
   </g>
   <g id="line2d_21">
    <g clip-path="url(#p125fa76214)">
     <use xlink:href="#m2e6cb64b9d" x="51.913636" y="55.898342" style="fill: #bf00bf; stroke: #bf00bf; stroke-width: 2"/>
     <use xlink:href="#m2e6cb64b9d" x="68.218831" y="59.081824" style="fill: #bf00bf; stroke: #bf00bf; stroke-width: 2"/>
     <use xlink:href="#m2e6cb64b9d" x="84.524026" y="76.851248" style="fill: #bf00bf; stroke: #bf00bf; stroke-width: 2"/>
     <use xlink:href="#m2e6cb64b9d" x="100.829221" y="93.959894" style="fill: #bf00bf; stroke: #bf00bf; stroke-width: 2"/>
     <use xlink:href="#m2e6cb64b9d" x="117.134416" y="118.261603" style="fill: #bf00bf; stroke: #bf00bf; stroke-width: 2"/>
     <use xlink:href="#m2e6cb64b9d" x="133.43961" y="144.340123" style="fill: #bf00bf; stroke: #bf00bf; stroke-width: 2"/>
     <use xlink:href="#m2e6cb64b9d" x="149.744805" y="173.354812" style="fill: #bf00bf; stroke: #bf00bf; stroke-width: 2"/>
     <use xlink:href="#m2e6cb64b9d" x="166.05" y="200.330186" style="fill: #bf00bf; stroke: #bf00bf; stroke-width: 2"/>
     <use xlink:href="#m2e6cb64b9d" x="182.355195" y="227.379564" style="fill: #bf00bf; stroke: #bf00bf; stroke-width: 2"/>
     <use xlink:href="#m2e6cb64b9d" x="198.66039" y="250.502516" style="fill: #bf00bf; stroke: #bf00bf; stroke-width: 2"/>
     <use xlink:href="#m2e6cb64b9d" x="214.965584" y="265.216256" style="fill: #bf00bf; stroke: #bf00bf; stroke-width: 2"/>
     <use xlink:href="#m2e6cb64b9d" x="231.270779" y="272.561612" style="fill: #bf00bf; stroke: #bf00bf; stroke-width: 2"/>
     <use xlink:href="#m2e6cb64b9d" x="247.575974" y="275.352904" style="fill: #bf00bf; stroke: #bf00bf; stroke-width: 2"/>
     <use xlink:href="#m2e6cb64b9d" x="263.881169" y="276.572957" style="fill: #bf00bf; stroke: #bf00bf; stroke-width: 2"/>
     <use xlink:href="#m2e6cb64b9d" x="280.186364" y="277.289324" style="fill: #bf00bf; stroke: #bf00bf; stroke-width: 2"/>
    </g>
   </g>
   <g id="line2d_22">
    <path d="M 51.913636 122.981348 
L 68.218831 126.988905 
L 84.524026 133.003354 
L 100.829221 143.83782 
L 117.134416 158.922193 
L 133.43961 176.596225 
L 149.744805 194.356823 
L 166.05 213.443096 
L 182.355195 228.958426 
L 198.66039 239.767746 
L 214.965584 254.971233 
L 231.270779 265.424369 
L 247.575974 269.489451 
L 263.881169 271.403182 
L 280.186364 272.591425 
" clip-path="url(#p125fa76214)" style="fill: none; stroke: #ff0000; stroke-width: 1.5; stroke-linecap: square"/>
   </g>
   <g id="line2d_23">
    <path d="M 51.913636 99.373096 
L 68.218831 105.830528 
L 84.524026 117.246219 
L 100.829221 131.19718 
L 117.134416 144.581458 
L 133.43961 163.087876 
L 149.744805 184.86022 
L 166.05 207.565543 
L 182.355195 229.938081 
L 198.66039 246.603384 
L 214.965584 259.716337 
L 231.270779 268.631157 
L 247.575974 272.179128 
L 263.881169 273.797646 
L 280.186364 274.770103 
" clip-path="url(#p125fa76214)" style="fill: none; stroke: #000000; stroke-width: 1.5; stroke-linecap: square"/>
   </g>
   <g id="line2d_24">
    <path d="M 51.913636 78.776793 
L 68.218831 84.330825 
L 84.524026 95.539347 
L 100.829221 112.694029 
L 117.134416 134.54381 
L 133.43961 155.964337 
L 149.744805 177.828533 
L 166.05 202.991568 
L 182.355195 228.35691 
L 198.66039 249.105879 
L 214.965584 263.036333 
L 231.270779 270.885981 
L 247.575974 274.02411 
L 263.881169 275.413692 
L 280.186364 276.238205 
" clip-path="url(#p125fa76214)" style="fill: none; stroke: #0000ff; stroke-width: 1.5; stroke-linecap: square"/>
   </g>
   <g id="line2d_25">
    <path d="M 51.913636 55.952606 
L 68.218831 61.079937 
L 84.524026 77.475097 
L 100.829221 94.766787 
L 117.134416 118.793576 
L 133.43961 145.18598 
L 149.744805 174.058387 
L 166.05 200.595956 
L 182.355195 227.600472 
L 198.66039 250.549644 
L 214.965584 265.239011 
L 231.270779 272.57214 
L 247.575974 275.356372 
L 263.881169 276.574812 
L 280.186364 277.289861 
" clip-path="url(#p125fa76214)" style="fill: none; stroke: #bf00bf; stroke-width: 1.5; stroke-linecap: square"/>
   </g>
   <g id="patch_3">
    <path d="M 40.5 288.36 
L 40.5 38.88 
" style="fill: none; stroke: #000000; stroke-width: 1.6; stroke-linejoin: miter; stroke-linecap: square"/>
   </g>
   <g id="patch_4">
    <path d="M 291.6 288.36 
L 291.6 38.88 
" style="fill: none; stroke: #000000; stroke-width: 1.6; stroke-linejoin: miter; stroke-linecap: square"/>
   </g>
   <g id="patch_5">
    <path d="M 40.5 288.36 
L 291.6 288.36 
" style="fill: none; stroke: #000000; stroke-width: 1.6; stroke-linejoin: miter; stroke-linecap: square"/>
   </g>
   <g id="patch_6">
    <path d="M 40.5 38.88 
L 291.6 38.88 
" style="fill: none; stroke: #000000; stroke-width: 1.6; stroke-linejoin: miter; stroke-linecap: square"/>
   </g>
   <g id="legend_1">
    <g id="patch_7">
     <path d="M 209.120625 118.935 
L 283.2 118.935 
Q 285.6 118.935 285.6 116.535 
L 285.6 47.28 
Q 285.6 44.88 283.2 44.88 
L 209.120625 44.88 
Q 206.720625 44.88 206.720625 47.28 
L 206.720625 116.535 
Q 206.720625 118.935 209.120625 118.935 
z
" style="fill: #ffffff; opacity: 0.8"/>
    </g>
    <g id="LineCollection_5">
     <path d="M 223.520625 60.598125 
L 223.520625 48.598125 
" style="fill: none; stroke: #ff0000; stroke-width: 2"/>
    </g>
    <g id="line2d_26">
     <g>
      <use xlink:href="#mbf01b220fa" x="223.520625" y="60.598125" style="fill: #ff0000; stroke: #ff0000; stroke-width: 2"/>
     </g>
    </g>
    <g id="line2d_27">
     <g>
      <use xlink:href="#mbf01b220fa" x="223.520625" y="48.598125" style="fill: #ff0000; stroke: #ff0000; stroke-width: 2"/>
     </g>
    </g>
    <g id="line2d_28">
     <path d="M 211.520625 54.598125 
L 235.520625 54.598125 
" style="fill: none; stroke: #ff0000; stroke-width: 1.5; stroke-linecap: square"/>
    </g>
    <g id="line2d_29"/>
    <g id="text_10">
     <!-- M=8 -->
     <g transform="translate(245.120625 58.798125) scale(0.12 -0.12)">
      <defs>
       <path id="DejaVuSans-4d" d="M 628 4666 
L 1569 4666 
L 2759 1491 
L 3956 4666 
L 4897 4666 
L 4897 0 
L 4281 0 
L 4281 4097 
L 3078 897 
L 2444 897 
L 1241 4097 
L 1241 0 
L 628 0 
L 628 4666 
z
" transform="scale(0.015625)"/>
       <path id="DejaVuSans-3d" d="M 678 2906 
L 4684 2906 
L 4684 2381 
L 678 2381 
L 678 2906 
z
M 678 1631 
L 4684 1631 
L 4684 1100 
L 678 1100 
L 678 1631 
z
" transform="scale(0.015625)"/>
      </defs>
      <use xlink:href="#DejaVuSans-4d"/>
      <use xlink:href="#DejaVuSans-3d" x="86.279297"/>
      <use xlink:href="#DejaVuSans-38" x="170.068359"/>
     </g>
    </g>
    <g id="LineCollection_6">
     <path d="M 223.520625 78.211875 
L 223.520625 66.211875 
" style="fill: none; stroke: #000000; stroke-width: 2"/>
    </g>
    <g id="line2d_30">
     <g>
      <use xlink:href="#mbf9404bb68" x="223.520625" y="78.211875" style="stroke: #000000; stroke-width: 2"/>
     </g>
    </g>
    <g id="line2d_31">
     <g>
      <use xlink:href="#mbf9404bb68" x="223.520625" y="66.211875" style="stroke: #000000; stroke-width: 2"/>
     </g>
    </g>
    <g id="line2d_32">
     <path d="M 211.520625 72.211875 
L 235.520625 72.211875 
" style="fill: none; stroke: #000000; stroke-width: 1.5; stroke-linecap: square"/>
    </g>
    <g id="line2d_33"/>
    <g id="text_11">
     <!-- M=10 -->
     <g transform="translate(245.120625 76.411875) scale(0.12 -0.12)">
      <use xlink:href="#DejaVuSans-4d"/>
      <use xlink:href="#DejaVuSans-3d" x="86.279297"/>
      <use xlink:href="#DejaVuSans-31" x="170.068359"/>
      <use xlink:href="#DejaVuSans-30" x="233.691406"/>
     </g>
    </g>
    <g id="LineCollection_7">
     <path d="M 223.520625 95.825625 
L 223.520625 83.825625 
" style="fill: none; stroke: #0000ff; stroke-width: 2"/>
    </g>
    <g id="line2d_34">
     <g>
      <use xlink:href="#m3f79781276" x="223.520625" y="95.825625" style="fill: #0000ff; stroke: #0000ff; stroke-width: 2"/>
     </g>
    </g>
    <g id="line2d_35">
     <g>
      <use xlink:href="#m3f79781276" x="223.520625" y="83.825625" style="fill: #0000ff; stroke: #0000ff; stroke-width: 2"/>
     </g>
    </g>
    <g id="line2d_36">
     <path d="M 211.520625 89.825625 
L 235.520625 89.825625 
" style="fill: none; stroke: #0000ff; stroke-width: 1.5; stroke-linecap: square"/>
    </g>
    <g id="line2d_37"/>
    <g id="text_12">
     <!-- M=12 -->
     <g transform="translate(245.120625 94.025625) scale(0.12 -0.12)">
      <use xlink:href="#DejaVuSans-4d"/>
      <use xlink:href="#DejaVuSans-3d" x="86.279297"/>
      <use xlink:href="#DejaVuSans-31" x="170.068359"/>
      <use xlink:href="#DejaVuSans-32" x="233.691406"/>
     </g>
    </g>
    <g id="LineCollection_8">
     <path d="M 223.520625 113.439375 
L 223.520625 101.439375 
" style="fill: none; stroke: #bf00bf; stroke-width: 2"/>
    </g>
    <g id="line2d_38">
     <g>
      <use xlink:href="#m2e6cb64b9d" x="223.520625" y="113.439375" style="fill: #bf00bf; stroke: #bf00bf; stroke-width: 2"/>
     </g>
    </g>
    <g id="line2d_39">
     <g>
      <use xlink:href="#m2e6cb64b9d" x="223.520625" y="101.439375" style="fill: #bf00bf; stroke: #bf00bf; stroke-width: 2"/>
     </g>
    </g>
    <g id="line2d_40">
     <path d="M 211.520625 107.439375 
L 235.520625 107.439375 
" style="fill: none; stroke: #bf00bf; stroke-width: 1.5; stroke-linecap: square"/>
    </g>
    <g id="line2d_41"/>
    <g id="text_13">
     <!-- M=14 -->
     <g transform="translate(245.120625 111.639375) scale(0.12 -0.12)">
      <defs>
       <path id="DejaVuSans-34" d="M 2419 4116 
L 825 1625 
L 2419 1625 
L 2419 4116 
z
M 2253 4666 
L 3047 4666 
L 3047 1625 
L 3713 1625 
L 3713 1100 
L 3047 1100 
L 3047 0 
L 2419 0 
L 2419 1100 
L 313 1100 
L 313 1709 
L 2253 4666 
z
" transform="scale(0.015625)"/>
      </defs>
      <use xlink:href="#DejaVuSans-4d"/>
      <use xlink:href="#DejaVuSans-3d" x="86.279297"/>
      <use xlink:href="#DejaVuSans-31" x="170.068359"/>
      <use xlink:href="#DejaVuSans-34" x="233.691406"/>
     </g>
    </g>
   </g>
  </g>
 </g>
 <defs>
  <clipPath id="p125fa76214">
   <rect x="40.5" y="38.88" width="251.1" height="249.48"/>
  </clipPath>
 </defs>
</svg>
