<?xml version="1.0" encoding="utf-8" standalone="no"?>
<!DOCTYPE svg PUBLIC "-//W3C//DTD SVG 1.1//EN"
  "http://www.w3.org/Graphics/SVG/1.1/DTD/svg11.dtd">
<svg xmlns:xlink="http://www.w3.org/1999/xlink" width="324pt" height="324pt" viewBox="0 0 324 324" xmlns="http://www.w3.org/2000/svg" version="1.1">
 <metadata>
  <rdf:RDF xmlns:dc="http://purl.org/dc/elements/1.1/" xmlns:cc="http://creativecommons.org/ns#" xmlns:rdf="http://www.w3.org/1999/02/22-rdf-syntax-ns#">
   <cc:Work>
    <dc:type rdf:resource="http://purl.org/dc/dcmitype/StillImage"/>
    <dc:date>2026-01-07T16:33:50.562194</dc:date>
    <dc:format>image/svg+xml</dc:format>
    <dc:creator>
     <cc:Agent>
      <dc:title>Matplotlib v3.8.0, https://matplotlib.org/</dc:title>
     </cc:Agent>
    </dc:creator>
   </cc:Work>
  </rdf:RDF>
 </metadata>
 <defs>
  <style type="text/css">*{stroke-linejoin: round; stroke-linecap: butt}</style>
 </defs>
 <g id="figure_1">
  <g id="patch_1">
   <path d="M 0 324 
L 324 324 
L 324 0 
L 0 0 
z
" style="fill: #ffffff"/>
  </g>
  <g id="axes_1">
   <g id="patch_2">
    <path d="M 40.5 288.36 
L 291.6 288.36 
L 291.6 38.88 
L 40.5 38.88 
z
" style="fill: #ffffff"/>
   </g>
   <g id="matplotlib.axis_1">
    <g id="xtick_1">
     <g id="line2d_1">
      <defs>
       <path id="mebb364bcb1" d="M 0 0 
L 0 8 
" style="stroke: #000000; stroke-width: 1.5"/>
      </defs>
      <g>
       <use xlink:href="#mebb364bcb1" x="40.5" y="288.36" style="stroke: #000000; stroke-width: 1.5"/>
      </g>
     </g>
     <g id="text_1">
      <!-- −5 -->
      <g transform="translate(31.654688 308.978125) scale(0.12 -0.12)">
       <defs>
        <path id="DejaVuSans-2212" d="M 678 2272 
L 4684 2272 
L 4684 1741 
L 678 1741 
L 678 2272 
z
" transform="scale(0.015625)"/>
        <path id="DejaVuSans-35" d="M 691 4666 
L 3169 4666 
L 3169 4134 
L 1269 4134 
L 1269 2991 
Q 1406 3038 1543 3061 
Q 1681 3084 1819 3084 
Q 2600 3084 3056 2656 
Q 3513 2228 3513 1497 
Q 3513 744 3044 326 
Q 2575 -91 1722 -91 
Q 1428 -91 1123 -41 
Q 819 9 494 109 
L 494 744 
Q 775 591 1075 516 
Q 1375 441 1709 441 
Q 2250 441 2565 725 
Q 2881 1009 2881 1497 
Q 2881 1984 2565 2268 
Q 2250 2553 1709 2553 
Q 1456 2553 1204 2497 
Q 953 2441 691 2322 
L 691 4666 
z
" transform="scale(0.015625)"/>
       </defs>
       <use xlink:href="#DejaVuSans-2212"/>
       <use xlink:href="#DejaVuSans-35" x="83.789062"/>
      </g>
     </g>
    </g>
    <g id="xtick_2">
     <g id="line2d_2">
      <g>
       <use xlink:href="#mebb364bcb1" x="85.339286" y="288.36" style="stroke: #000000; stroke-width: 1.5"/>
      </g>
     </g>
     <g id="text_2">
      <!-- −4 -->
      <g transform="translate(76.493973 308.978125) scale(0.12 -0.12)">
       <defs>
        <path id="DejaVuSans-34" d="M 2419 4116 
L 825 1625 
L 2419 1625 
L 2419 4116 
z
M 2253 4666 
L 3047 4666 
L 3047 1625 
L 3713 1625 
L 3713 1100 
L 3047 1100 
L 3047 0 
L 2419 0 
L 2419 1100 
L 313 1100 
L 313 1709 
L 2253 4666 
z
" transform="scale(0.015625)"/>
       </defs>
       <use xlink:href="#DejaVuSans-2212"/>
       <use xlink:href="#DejaVuSans-34" x="83.789062"/>
      </g>
     </g>
    </g>
    <g id="xtick_3">
     <g id="line2d_3">
      <g>
       <use xlink:href="#mebb364bcb1" x="130.178571" y="288.36" style="stroke: #000000; stroke-width: 1.5"/>
      </g>
     </g>
     <g id="text_3">
      <!-- −3 -->
      <g transform="translate(121.333259 308.978125) scale(0.12 -0.12)">
       <defs>
        <path id="DejaVuSans-33" d="M 2597 2516 
Q 3050 2419 3304 2112 
Q 3559 1806 3559 1356 
Q 3559 666 3084 287 
Q 2609 -91 1734 -91 
Q 1441 -91 1130 -33 
Q 819 25 488 141 
L 488 750 
Q 750 597 1062 519 
Q 1375 441 1716 441 
Q 2309 441 2620 675 
Q 2931 909 2931 1356 
Q 2931 1769 2642 2001 
Q 2353 2234 1838 2234 
L 1294 2234 
L 1294 2753 
L 1863 2753 
Q 2328 2753 2575 2939 
Q 2822 3125 2822 3475 
Q 2822 3834 2567 4026 
Q 2313 4219 1838 4219 
Q 1578 4219 1281 4162 
Q 984 4106 628 3988 
L 628 4550 
Q 988 4650 1302 4700 
Q 1616 4750 1894 4750 
Q 2613 4750 3031 4423 
Q 3450 4097 3450 3541 
Q 3450 3153 3228 2886 
Q 3006 2619 2597 2516 
z
" transform="scale(0.015625)"/>
       </defs>
       <use xlink:href="#DejaVuSans-2212"/>
       <use xlink:href="#DejaVuSans-33" x="83.789062"/>
      </g>
     </g>
    </g>
    <g id="xtick_4">
     <g id="line2d_4">
      <g>
       <use xlink:href="#mebb364bcb1" x="175.017857" y="288.36" style="stroke: #000000; stroke-width: 1.5"/>
      </g>
     </g>
     <g id="text_4">
      <!-- −2 -->
      <g transform="translate(166.172545 308.978125) scale(0.12 -0.12)">
       <defs>
        <path id="DejaVuSans-32" d="M 1228 531 
L 3431 531 
L 3431 0 
L 469 0 
L 469 531 
Q 828 903 1448 1529 
Q 2069 2156 2228 2338 
Q 2531 2678 2651 2914 
Q 2772 3150 2772 3378 
Q 2772 3750 2511 3984 
Q 2250 4219 1831 4219 
Q 1534 4219 1204 4116 
Q 875 4013 500 3803 
L 500 4441 
Q 881 4594 1212 4672 
Q 1544 4750 1819 4750 
Q 2544 4750 2975 4387 
Q 3406 4025 3406 3419 
Q 3406 3131 3298 2873 
Q 3191 2616 2906 2266 
Q 2828 2175 2409 1742 
Q 1991 1309 1228 531 
z
" transform="scale(0.015625)"/>
       </defs>
       <use xlink:href="#DejaVuSans-2212"/>
       <use xlink:href="#DejaVuSans-32" x="83.789062"/>
      </g>
     </g>
    </g>
    <g id="xtick_5">
     <g id="line2d_5">
      <g>
       <use xlink:href="#mebb364bcb1" x="219.857143" y="288.36" style="stroke: #000000; stroke-width: 1.5"/>
      </g>
     </g>
     <g id="text_5">
      <!-- −1 -->
      <g transform="translate(211.01183 308.978125) scale(0.12 -0.12)">
       <defs>
        <path id="DejaVuSans-31" d="M 794 531 
L 1825 531 
L 1825 4091 
L 703 3866 
L 703 4441 
L 1819 4666 
L 2450 4666 
L 2450 531 
L 3481 531 
L 3481 0 
L 794 0 
L 794 531 
z
" transform="scale(0.015625)"/>
       </defs>
       <use xlink:href="#DejaVuSans-2212"/>
       <use xlink:href="#DejaVuSans-31" x="83.789062"/>
      </g>
     </g>
    </g>
    <g id="xtick_6">
     <g id="line2d_6">
      <g>
       <use xlink:href="#mebb364bcb1" x="264.696429" y="288.36" style="stroke: #000000; stroke-width: 1.5"/>
      </g>
     </g>
     <g id="text_6">
      <!-- 0 -->
      <g transform="translate(260.878929 308.978125) scale(0.12 -0.12)">
       <defs>
        <path id="DejaVuSans-30" d="M 2034 4250 
Q 1547 4250 1301 3770 
Q 1056 3291 1056 2328 
Q 1056 1369 1301 889 
Q 1547 409 2034 409 
Q 2525 409 2770 889 
Q 3016 1369 3016 2328 
Q 3016 3291 2770 3770 
Q 2525 4250 2034 4250 
z
M 2034 4750 
Q 2819 4750 3233 4129 
Q 3647 3509 3647 2328 
Q 3647 1150 3233 529 
Q 2819 -91 2034 -91 
Q 1250 -91 836 529 
Q 422 1150 422 2328 
Q 422 3509 836 4129 
Q 1250 4750 2034 4750 
z
" transform="scale(0.015625)"/>
       </defs>
       <use xlink:href="#DejaVuSans-30"/>
      </g>
     </g>
    </g>
   </g>
   <g id="matplotlib.axis_2">
    <g id="ytick_1">
     <g id="line2d_7">
      <defs>
       <path id="m6e737301be" d="M 0 0 
L -8 0 
" style="stroke: #000000; stroke-width: 1.5"/>
      </defs>
      <g>
       <use xlink:href="#m6e737301be" x="40.5" y="273.532007" style="stroke: #000000; stroke-width: 1.5"/>
      </g>
     </g>
     <g id="text_7">
      <!-- 0.52 -->
      <g transform="translate(2.28125 278.091069) scale(0.12 -0.12)">
       <defs>
        <path id="DejaVuSans-2e" d="M 684 794 
L 1344 794 
L 1344 0 
L 684 0 
L 684 794 
z
" transform="scale(0.015625)"/>
       </defs>
       <use xlink:href="#DejaVuSans-30"/>
       <use xlink:href="#DejaVuSans-2e" x="63.623047"/>
       <use xlink:href="#DejaVuSans-35" x="95.410156"/>
       <use xlink:href="#DejaVuSans-32" x="159.033203"/>
      </g>
     </g>
    </g>
    <g id="ytick_2">
     <g id="line2d_8">
      <g>
       <use xlink:href="#m6e737301be" x="40.5" y="241.164" style="stroke: #000000; stroke-width: 1.5"/>
      </g>
     </g>
     <g id="text_8">
      <!-- 0.54 -->
      <g transform="translate(2.28125 245.723063) scale(0.12 -0.12)">
       <use xlink:href="#DejaVuSans-30"/>
       <use xlink:href="#DejaVuSans-2e" x="63.623047"/>
       <use xlink:href="#DejaVuSans-35" x="95.410156"/>
       <use xlink:href="#DejaVuSans-34" x="159.033203"/>
      </g>
     </g>
    </g>
    <g id="ytick_3">
     <g id="line2d_9">
      <g>
       <use xlink:href="#m6e737301be" x="40.5" y="208.795994" style="stroke: #000000; stroke-width: 1.5"/>
      </g>
     </g>
     <g id="text_9">
      <!-- 0.56 -->
      <g transform="translate(2.28125 213.355057) scale(0.12 -0.12)">
       <defs>
        <path id="DejaVuSans-36" d="M 2113 2584 
Q 1688 2584 1439 2293 
Q 1191 2003 1191 1497 
Q 1191 994 1439 701 
Q 1688 409 2113 409 
Q 2538 409 2786 701 
Q 3034 994 3034 1497 
Q 3034 2003 2786 2293 
Q 2538 2584 2113 2584 
z
M 3366 4563 
L 3366 3988 
Q 3128 4100 2886 4159 
Q 2644 4219 2406 4219 
Q 1781 4219 1451 3797 
Q 1122 3375 1075 2522 
Q 1259 2794 1537 2939 
Q 1816 3084 2150 3084 
Q 2853 3084 3261 2657 
Q 3669 2231 3669 1497 
Q 3669 778 3244 343 
Q 2819 -91 2113 -91 
Q 1303 -91 875 529 
Q 447 1150 447 2328 
Q 447 3434 972 4092 
Q 1497 4750 2381 4750 
Q 2619 4750 2861 4703 
Q 3103 4656 3366 4563 
z
" transform="scale(0.015625)"/>
       </defs>
       <use xlink:href="#DejaVuSans-30"/>
       <use xlink:href="#DejaVuSans-2e" x="63.623047"/>
       <use xlink:href="#DejaVuSans-35" x="95.410156"/>
       <use xlink:href="#DejaVuSans-36" x="159.033203"/>
      </g>
     </g>
    </g>
    <g id="ytick_4">
     <g id="line2d_10">
      <g>
       <use xlink:href="#m6e737301be" x="40.5" y="176.427988" style="stroke: #000000; stroke-width: 1.5"/>
      </g>
     </g>
     <g id="text_10">
      <!-- 0.58 -->
      <g transform="translate(2.28125 180.98705) scale(0.12 -0.12)">
       <defs>
        <path id="DejaVuSans-38" d="M 2034 2216 
Q 1584 2216 1326 1975 
Q 1069 1734 1069 1313 
Q 1069 891 1326 650 
Q 1584 409 2034 409 
Q 2484 409 2743 651 
Q 3003 894 3003 1313 
Q 3003 1734 2745 1975 
Q 2488 2216 2034 2216 
z
M 1403 2484 
Q 997 2584 770 2862 
Q 544 3141 544 3541 
Q 544 4100 942 4425 
Q 1341 4750 2034 4750 
Q 2731 4750 3128 4425 
Q 3525 4100 3525 3541 
Q 3525 3141 3298 2862 
Q 3072 2584 2669 2484 
Q 3125 2378 3379 2068 
Q 3634 1759 3634 1313 
Q 3634 634 3220 271 
Q 2806 -91 2034 -91 
Q 1263 -91 848 271 
Q 434 634 434 1313 
Q 434 1759 690 2068 
Q 947 2378 1403 2484 
z
M 1172 3481 
Q 1172 3119 1398 2916 
Q 1625 2713 2034 2713 
Q 2441 2713 2670 2916 
Q 2900 3119 2900 3481 
Q 2900 3844 2670 4047 
Q 2441 4250 2034 4250 
Q 1625 4250 1398 4047 
Q 1172 3844 1172 3481 
z
" transform="scale(0.015625)"/>
       </defs>
       <use xlink:href="#DejaVuSans-30"/>
       <use xlink:href="#DejaVuSans-2e" x="63.623047"/>
       <use xlink:href="#DejaVuSans-35" x="95.410156"/>
       <use xlink:href="#DejaVuSans-38" x="159.033203"/>
      </g>
     </g>
    </g>
    <g id="ytick_5">
     <g id="line2d_11">
      <g>
       <use xlink:href="#m6e737301be" x="40.5" y="144.059981" style="stroke: #000000; stroke-width: 1.5"/>
      </g>
     </g>
     <g id="text_11">
      <!-- 0.60 -->
      <g transform="translate(2.28125 148.619044) scale(0.12 -0.12)">
       <use xlink:href="#DejaVuSans-30"/>
       <use xlink:href="#DejaVuSans-2e" x="63.623047"/>
       <use xlink:href="#DejaVuSans-36" x="95.410156"/>
       <use xlink:href="#DejaVuSans-30" x="159.033203"/>
      </g>
     </g>
    </g>
    <g id="ytick_6">
     <g id="line2d_12">
      <g>
       <use xlink:href="#m6e737301be" x="40.5" y="111.691975" style="stroke: #000000; stroke-width: 1.5"/>
      </g>
     </g>
     <g id="text_12">
      <!-- 0.62 -->
      <g transform="translate(2.28125 116.251038) scale(0.12 -0.12)">
       <use xlink:href="#DejaVuSans-30"/>
       <use xlink:href="#DejaVuSans-2e" x="63.623047"/>
       <use xlink:href="#DejaVuSans-36" x="95.410156"/>
       <use xlink:href="#DejaVuSans-32" x="159.033203"/>
      </g>
     </g>
    </g>
    <g id="ytick_7">
     <g id="line2d_13">
      <g>
       <use xlink:href="#m6e737301be" x="40.5" y="79.323969" style="stroke: #000000; stroke-width: 1.5"/>
      </g>
     </g>
     <g id="text_13">
      <!-- 0.64 -->
      <g transform="translate(2.28125 83.883031) scale(0.12 -0.12)">
       <use xlink:href="#DejaVuSans-30"/>
       <use xlink:href="#DejaVuSans-2e" x="63.623047"/>
       <use xlink:href="#DejaVuSans-36" x="95.410156"/>
       <use xlink:href="#DejaVuSans-34" x="159.033203"/>
      </g>
     </g>
    </g>
    <g id="ytick_8">
     <g id="line2d_14">
      <g>
       <use xlink:href="#m6e737301be" x="40.5" y="46.955963" style="stroke: #000000; stroke-width: 1.5"/>
      </g>
     </g>
     <g id="text_14">
      <!-- 0.66 -->
      <g transform="translate(2.28125 51.515025) scale(0.12 -0.12)">
       <use xlink:href="#DejaVuSans-30"/>
       <use xlink:href="#DejaVuSans-2e" x="63.623047"/>
       <use xlink:href="#DejaVuSans-36" x="95.410156"/>
       <use xlink:href="#DejaVuSans-36" x="159.033203"/>
      </g>
     </g>
    </g>
   </g>
   <g id="LineCollection_1">
    <path d="M 241.748806 128.83861 
L 241.748806 126.532435 
" clip-path="url(#p87116a0c73)" style="fill: none; stroke: #ff0000; stroke-width: 2"/>
    <path d="M 228.869714 137.259729 
L 228.869714 135.862224 
" clip-path="url(#p87116a0c73)" style="fill: none; stroke: #ff0000; stroke-width: 2"/>
    <path d="M 213.117343 147.802195 
L 213.117343 146.429792 
" clip-path="url(#p87116a0c73)" style="fill: none; stroke: #ff0000; stroke-width: 2"/>
    <path d="M 192.830221 159.438922 
L 192.830221 158.638718 
" clip-path="url(#p87116a0c73)" style="fill: none; stroke: #ff0000; stroke-width: 2"/>
    <path d="M 164.292283 172.222546 
L 164.292283 170.781539 
" clip-path="url(#p87116a0c73)" style="fill: none; stroke: #ff0000; stroke-width: 2"/>
    <path d="M 115.745579 180.825657 
L 115.745579 178.811742 
" clip-path="url(#p87116a0c73)" style="fill: none; stroke: #ff0000; stroke-width: 2"/>
    <path clip-path="url(#p87116a0c73)" style="fill: none; stroke: #ff0000; stroke-width: 2"/>
    <path d="M 113.478312 200.644801 
L 113.478312 198.936204 
" clip-path="url(#p87116a0c73)" style="fill: none; stroke: #ff0000; stroke-width: 2"/>
    <path d="M 163.158722 210.201724 
L 163.158722 208.805279 
" clip-path="url(#p87116a0c73)" style="fill: none; stroke: #ff0000; stroke-width: 2"/>
    <path d="M 192.074523 218.528248 
L 192.074523 217.046747 
" clip-path="url(#p87116a0c73)" style="fill: none; stroke: #ff0000; stroke-width: 2"/>
    <path d="M 212.550572 227.744073 
L 212.550572 225.823394 
" clip-path="url(#p87116a0c73)" style="fill: none; stroke: #ff0000; stroke-width: 2"/>
    <path d="M 228.416297 236.592042 
L 228.416297 235.131755 
" clip-path="url(#p87116a0c73)" style="fill: none; stroke: #ff0000; stroke-width: 2"/>
   </g>
   <g id="line2d_15">
    <defs>
     <path id="m768aaf2527" d="M 3 0 
L -3 -0 
" style="stroke: #ff0000; stroke-width: 2"/>
    </defs>
    <g clip-path="url(#p87116a0c73)">
     <use xlink:href="#m768aaf2527" x="241.748806" y="128.83861" style="fill: #ff0000; stroke: #ff0000; stroke-width: 2"/>
     <use xlink:href="#m768aaf2527" x="228.869714" y="137.259729" style="fill: #ff0000; stroke: #ff0000; stroke-width: 2"/>
     <use xlink:href="#m768aaf2527" x="213.117343" y="147.802195" style="fill: #ff0000; stroke: #ff0000; stroke-width: 2"/>
     <use xlink:href="#m768aaf2527" x="192.830221" y="159.438922" style="fill: #ff0000; stroke: #ff0000; stroke-width: 2"/>
     <use xlink:href="#m768aaf2527" x="164.292283" y="172.222546" style="fill: #ff0000; stroke: #ff0000; stroke-width: 2"/>
     <use xlink:href="#m768aaf2527" x="115.745579" y="180.825657" style="fill: #ff0000; stroke: #ff0000; stroke-width: 2"/>
     <use xlink:href="#m768aaf2527" x="-1" y="184.384335" style="fill: #ff0000; stroke: #ff0000; stroke-width: 2"/>
     <use xlink:href="#m768aaf2527" x="-1" y="196.386547" style="fill: #ff0000; stroke: #ff0000; stroke-width: 2"/>
     <use xlink:href="#m768aaf2527" x="113.478312" y="200.644801" style="fill: #ff0000; stroke: #ff0000; stroke-width: 2"/>
     <use xlink:href="#m768aaf2527" x="163.158722" y="210.201724" style="fill: #ff0000; stroke: #ff0000; stroke-width: 2"/>
     <use xlink:href="#m768aaf2527" x="192.074523" y="218.528248" style="fill: #ff0000; stroke: #ff0000; stroke-width: 2"/>
     <use xlink:href="#m768aaf2527" x="212.550572" y="227.744073" style="fill: #ff0000; stroke: #ff0000; stroke-width: 2"/>
     <use xlink:href="#m768aaf2527" x="228.416297" y="236.592042" style="fill: #ff0000; stroke: #ff0000; stroke-width: 2"/>
    </g>
   </g>
   <g id="line2d_16">
    <g clip-path="url(#p87116a0c73)">
     <use xlink:href="#m768aaf2527" x="241.748806" y="126.532435" style="fill: #ff0000; stroke: #ff0000; stroke-width: 2"/>
     <use xlink:href="#m768aaf2527" x="228.869714" y="135.862224" style="fill: #ff0000; stroke: #ff0000; stroke-width: 2"/>
     <use xlink:href="#m768aaf2527" x="213.117343" y="146.429792" style="fill: #ff0000; stroke: #ff0000; stroke-width: 2"/>
     <use xlink:href="#m768aaf2527" x="192.830221" y="158.638718" style="fill: #ff0000; stroke: #ff0000; stroke-width: 2"/>
     <use xlink:href="#m768aaf2527" x="164.292283" y="170.781539" style="fill: #ff0000; stroke: #ff0000; stroke-width: 2"/>
     <use xlink:href="#m768aaf2527" x="115.745579" y="178.811742" style="fill: #ff0000; stroke: #ff0000; stroke-width: 2"/>
     <use xlink:href="#m768aaf2527" x="-1" y="182.62135" style="fill: #ff0000; stroke: #ff0000; stroke-width: 2"/>
     <use xlink:href="#m768aaf2527" x="-1" y="194.806144" style="fill: #ff0000; stroke: #ff0000; stroke-width: 2"/>
     <use xlink:href="#m768aaf2527" x="113.478312" y="198.936204" style="fill: #ff0000; stroke: #ff0000; stroke-width: 2"/>
     <use xlink:href="#m768aaf2527" x="163.158722" y="208.805279" style="fill: #ff0000; stroke: #ff0000; stroke-width: 2"/>
     <use xlink:href="#m768aaf2527" x="192.074523" y="217.046747" style="fill: #ff0000; stroke: #ff0000; stroke-width: 2"/>
     <use xlink:href="#m768aaf2527" x="212.550572" y="225.823394" style="fill: #ff0000; stroke: #ff0000; stroke-width: 2"/>
     <use xlink:href="#m768aaf2527" x="228.416297" y="235.131755" style="fill: #ff0000; stroke: #ff0000; stroke-width: 2"/>
    </g>
   </g>
   <g id="LineCollection_2">
    <path d="M 259.929571 113.430154 
L 259.929571 111.365954 
" clip-path="url(#p87116a0c73)" style="fill: none; stroke: #ffa500; stroke-width: 2"/>
    <path d="M 247.050479 126.080078 
L 247.050479 123.81127 
" clip-path="url(#p87116a0c73)" style="fill: none; stroke: #ffa500; stroke-width: 2"/>
    <path d="M 231.298109 141.024311 
L 231.298109 139.368345 
" clip-path="url(#p87116a0c73)" style="fill: none; stroke: #ffa500; stroke-width: 2"/>
    <path d="M 211.010987 153.072838 
L 211.010987 151.120428 
" clip-path="url(#p87116a0c73)" style="fill: none; stroke: #ffa500; stroke-width: 2"/>
    <path d="M 182.473049 165.608 
L 182.473049 163.524337 
" clip-path="url(#p87116a0c73)" style="fill: none; stroke: #ffa500; stroke-width: 2"/>
    <path d="M 133.926345 179.429558 
L 133.926345 177.619039 
" clip-path="url(#p87116a0c73)" style="fill: none; stroke: #ffa500; stroke-width: 2"/>
    <path clip-path="url(#p87116a0c73)" style="fill: none; stroke: #ffa500; stroke-width: 2"/>
    <path d="M 131.659077 202.691821 
L 131.659077 200.847091 
" clip-path="url(#p87116a0c73)" style="fill: none; stroke: #ffa500; stroke-width: 2"/>
    <path d="M 181.339488 215.142789 
L 181.339488 213.715515 
" clip-path="url(#p87116a0c73)" style="fill: none; stroke: #ffa500; stroke-width: 2"/>
    <path d="M 210.255288 229.319345 
L 210.255288 227.568259 
" clip-path="url(#p87116a0c73)" style="fill: none; stroke: #ffa500; stroke-width: 2"/>
    <path d="M 230.731337 238.557246 
L 230.731337 237.566623 
" clip-path="url(#p87116a0c73)" style="fill: none; stroke: #ffa500; stroke-width: 2"/>
    <path d="M 246.597063 249.820515 
L 246.597063 248.555551 
" clip-path="url(#p87116a0c73)" style="fill: none; stroke: #ffa500; stroke-width: 2"/>
   </g>
   <g id="line2d_17">
    <defs>
     <path id="m05f0a36180" d="M 3 0 
L -3 -0 
" style="stroke: #ffa500; stroke-width: 2"/>
    </defs>
    <g clip-path="url(#p87116a0c73)">
     <use xlink:href="#m05f0a36180" x="259.929571" y="113.430154" style="fill: #ffa500; stroke: #ffa500; stroke-width: 2"/>
     <use xlink:href="#m05f0a36180" x="247.050479" y="126.080078" style="fill: #ffa500; stroke: #ffa500; stroke-width: 2"/>
     <use xlink:href="#m05f0a36180" x="231.298109" y="141.024311" style="fill: #ffa500; stroke: #ffa500; stroke-width: 2"/>
     <use xlink:href="#m05f0a36180" x="211.010987" y="153.072838" style="fill: #ffa500; stroke: #ffa500; stroke-width: 2"/>
     <use xlink:href="#m05f0a36180" x="182.473049" y="165.608" style="fill: #ffa500; stroke: #ffa500; stroke-width: 2"/>
     <use xlink:href="#m05f0a36180" x="133.926345" y="179.429558" style="fill: #ffa500; stroke: #ffa500; stroke-width: 2"/>
     <use xlink:href="#m05f0a36180" x="-1" y="185.025629" style="fill: #ffa500; stroke: #ffa500; stroke-width: 2"/>
     <use xlink:href="#m05f0a36180" x="-1" y="197.661676" style="fill: #ffa500; stroke: #ffa500; stroke-width: 2"/>
     <use xlink:href="#m05f0a36180" x="131.659077" y="202.691821" style="fill: #ffa500; stroke: #ffa500; stroke-width: 2"/>
     <use xlink:href="#m05f0a36180" x="181.339488" y="215.142789" style="fill: #ffa500; stroke: #ffa500; stroke-width: 2"/>
     <use xlink:href="#m05f0a36180" x="210.255288" y="229.319345" style="fill: #ffa500; stroke: #ffa500; stroke-width: 2"/>
     <use xlink:href="#m05f0a36180" x="230.731337" y="238.557246" style="fill: #ffa500; stroke: #ffa500; stroke-width: 2"/>
     <use xlink:href="#m05f0a36180" x="246.597063" y="249.820515" style="fill: #ffa500; stroke: #ffa500; stroke-width: 2"/>
    </g>
   </g>
   <g id="line2d_18">
    <g clip-path="url(#p87116a0c73)">
     <use xlink:href="#m05f0a36180" x="259.929571" y="111.365954" style="fill: #ffa500; stroke: #ffa500; stroke-width: 2"/>
     <use xlink:href="#m05f0a36180" x="247.050479" y="123.81127" style="fill: #ffa500; stroke: #ffa500; stroke-width: 2"/>
     <use xlink:href="#m05f0a36180" x="231.298109" y="139.368345" style="fill: #ffa500; stroke: #ffa500; stroke-width: 2"/>
     <use xlink:href="#m05f0a36180" x="211.010987" y="151.120428" style="fill: #ffa500; stroke: #ffa500; stroke-width: 2"/>
     <use xlink:href="#m05f0a36180" x="182.473049" y="163.524337" style="fill: #ffa500; stroke: #ffa500; stroke-width: 2"/>
     <use xlink:href="#m05f0a36180" x="133.926345" y="177.619039" style="fill: #ffa500; stroke: #ffa500; stroke-width: 2"/>
     <use xlink:href="#m05f0a36180" x="-1" y="183.454624" style="fill: #ffa500; stroke: #ffa500; stroke-width: 2"/>
     <use xlink:href="#m05f0a36180" x="-1" y="196.069818" style="fill: #ffa500; stroke: #ffa500; stroke-width: 2"/>
     <use xlink:href="#m05f0a36180" x="131.659077" y="200.847091" style="fill: #ffa500; stroke: #ffa500; stroke-width: 2"/>
     <use xlink:href="#m05f0a36180" x="181.339488" y="213.715515" style="fill: #ffa500; stroke: #ffa500; stroke-width: 2"/>
     <use xlink:href="#m05f0a36180" x="210.255288" y="227.568259" style="fill: #ffa500; stroke: #ffa500; stroke-width: 2"/>
     <use xlink:href="#m05f0a36180" x="230.731337" y="237.566623" style="fill: #ffa500; stroke: #ffa500; stroke-width: 2"/>
     <use xlink:href="#m05f0a36180" x="246.597063" y="248.555551" style="fill: #ffa500; stroke: #ffa500; stroke-width: 2"/>
    </g>
   </g>
   <g id="LineCollection_3">
    <path d="M 272.82903 94.189823 
L 272.82903 92.802255 
" clip-path="url(#p87116a0c73)" style="fill: none; stroke: #0000ff; stroke-width: 2"/>
    <path d="M 259.949938 111.441898 
L 259.949938 109.023697 
" clip-path="url(#p87116a0c73)" style="fill: none; stroke: #0000ff; stroke-width: 2"/>
    <path d="M 244.197568 127.041217 
L 244.197568 125.276615 
" clip-path="url(#p87116a0c73)" style="fill: none; stroke: #0000ff; stroke-width: 2"/>
    <path d="M 223.910446 142.608758 
L 223.910446 140.833456 
" clip-path="url(#p87116a0c73)" style="fill: none; stroke: #0000ff; stroke-width: 2"/>
    <path d="M 195.372508 156.503138 
L 195.372508 155.369426 
" clip-path="url(#p87116a0c73)" style="fill: none; stroke: #0000ff; stroke-width: 2"/>
    <path d="M 146.825804 174.171951 
L 146.825804 172.545337 
" clip-path="url(#p87116a0c73)" style="fill: none; stroke: #0000ff; stroke-width: 2"/>
    <path clip-path="url(#p87116a0c73)" style="fill: none; stroke: #0000ff; stroke-width: 2"/>
    <path d="M 144.558536 203.513941 
L 144.558536 202.020351 
" clip-path="url(#p87116a0c73)" style="fill: none; stroke: #0000ff; stroke-width: 2"/>
    <path d="M 194.238946 218.581774 
L 194.238946 216.877778 
" clip-path="url(#p87116a0c73)" style="fill: none; stroke: #0000ff; stroke-width: 2"/>
    <path d="M 223.154747 231.460068 
L 223.154747 229.980937 
" clip-path="url(#p87116a0c73)" style="fill: none; stroke: #0000ff; stroke-width: 2"/>
    <path d="M 243.630796 245.017303 
L 243.630796 243.207672 
" clip-path="url(#p87116a0c73)" style="fill: none; stroke: #0000ff; stroke-width: 2"/>
    <path d="M 259.496522 258.378308 
L 259.496522 257.260658 
" clip-path="url(#p87116a0c73)" style="fill: none; stroke: #0000ff; stroke-width: 2"/>
   </g>
   <g id="line2d_19">
    <defs>
     <path id="m8c01225992" d="M 3 0 
L -3 -0 
" style="stroke: #0000ff; stroke-width: 2"/>
    </defs>
    <g clip-path="url(#p87116a0c73)">
     <use xlink:href="#m8c01225992" x="272.82903" y="94.189823" style="fill: #0000ff; stroke: #0000ff; stroke-width: 2"/>
     <use xlink:href="#m8c01225992" x="259.949938" y="111.441898" style="fill: #0000ff; stroke: #0000ff; stroke-width: 2"/>
     <use xlink:href="#m8c01225992" x="244.197568" y="127.041217" style="fill: #0000ff; stroke: #0000ff; stroke-width: 2"/>
     <use xlink:href="#m8c01225992" x="223.910446" y="142.608758" style="fill: #0000ff; stroke: #0000ff; stroke-width: 2"/>
     <use xlink:href="#m8c01225992" x="195.372508" y="156.503138" style="fill: #0000ff; stroke: #0000ff; stroke-width: 2"/>
     <use xlink:href="#m8c01225992" x="146.825804" y="174.171951" style="fill: #0000ff; stroke: #0000ff; stroke-width: 2"/>
     <use xlink:href="#m8c01225992" x="-1" y="182.409228" style="fill: #0000ff; stroke: #0000ff; stroke-width: 2"/>
     <use xlink:href="#m8c01225992" x="-1" y="197.052121" style="fill: #0000ff; stroke: #0000ff; stroke-width: 2"/>
     <use xlink:href="#m8c01225992" x="144.558536" y="203.513941" style="fill: #0000ff; stroke: #0000ff; stroke-width: 2"/>
     <use xlink:href="#m8c01225992" x="194.238946" y="218.581774" style="fill: #0000ff; stroke: #0000ff; stroke-width: 2"/>
     <use xlink:href="#m8c01225992" x="223.154747" y="231.460068" style="fill: #0000ff; stroke: #0000ff; stroke-width: 2"/>
     <use xlink:href="#m8c01225992" x="243.630796" y="245.017303" style="fill: #0000ff; stroke: #0000ff; stroke-width: 2"/>
     <use xlink:href="#m8c01225992" x="259.496522" y="258.378308" style="fill: #0000ff; stroke: #0000ff; stroke-width: 2"/>
    </g>
   </g>
   <g id="line2d_20">
    <g clip-path="url(#p87116a0c73)">
     <use xlink:href="#m8c01225992" x="272.82903" y="92.802255" style="fill: #0000ff; stroke: #0000ff; stroke-width: 2"/>
     <use xlink:href="#m8c01225992" x="259.949938" y="109.023697" style="fill: #0000ff; stroke: #0000ff; stroke-width: 2"/>
     <use xlink:href="#m8c01225992" x="244.197568" y="125.276615" style="fill: #0000ff; stroke: #0000ff; stroke-width: 2"/>
     <use xlink:href="#m8c01225992" x="223.910446" y="140.833456" style="fill: #0000ff; stroke: #0000ff; stroke-width: 2"/>
     <use xlink:href="#m8c01225992" x="195.372508" y="155.369426" style="fill: #0000ff; stroke: #0000ff; stroke-width: 2"/>
     <use xlink:href="#m8c01225992" x="146.825804" y="172.545337" style="fill: #0000ff; stroke: #0000ff; stroke-width: 2"/>
     <use xlink:href="#m8c01225992" x="-1" y="180.294108" style="fill: #0000ff; stroke: #0000ff; stroke-width: 2"/>
     <use xlink:href="#m8c01225992" x="-1" y="195.007428" style="fill: #0000ff; stroke: #0000ff; stroke-width: 2"/>
     <use xlink:href="#m8c01225992" x="144.558536" y="202.020351" style="fill: #0000ff; stroke: #0000ff; stroke-width: 2"/>
     <use xlink:href="#m8c01225992" x="194.238946" y="216.877778" style="fill: #0000ff; stroke: #0000ff; stroke-width: 2"/>
     <use xlink:href="#m8c01225992" x="223.154747" y="229.980937" style="fill: #0000ff; stroke: #0000ff; stroke-width: 2"/>
     <use xlink:href="#m8c01225992" x="243.630796" y="243.207672" style="fill: #0000ff; stroke: #0000ff; stroke-width: 2"/>
     <use xlink:href="#m8c01225992" x="259.496522" y="257.260658" style="fill: #0000ff; stroke: #0000ff; stroke-width: 2"/>
    </g>
   </g>
   <g id="LineCollection_4">
    <path d="M 291.009796 60.837721 
L 291.009796 57.901845 
" clip-path="url(#p87116a0c73)" style="fill: none; stroke: #bf00bf; stroke-width: 2"/>
    <path d="M 278.130704 84.16253 
L 278.130704 81.98498 
" clip-path="url(#p87116a0c73)" style="fill: none; stroke: #bf00bf; stroke-width: 2"/>
    <path d="M 262.378334 106.403794 
L 262.378334 104.906574 
" clip-path="url(#p87116a0c73)" style="fill: none; stroke: #bf00bf; stroke-width: 2"/>
    <path d="M 242.091212 127.793928 
L 242.091212 124.930074 
" clip-path="url(#p87116a0c73)" style="fill: none; stroke: #bf00bf; stroke-width: 2"/>
    <path d="M 213.553273 148.930895 
L 213.553273 145.817801 
" clip-path="url(#p87116a0c73)" style="fill: none; stroke: #bf00bf; stroke-width: 2"/>
    <path d="M 165.00657 168.180646 
L 165.00657 165.593794 
" clip-path="url(#p87116a0c73)" style="fill: none; stroke: #bf00bf; stroke-width: 2"/>
    <path clip-path="url(#p87116a0c73)" style="fill: none; stroke: #bf00bf; stroke-width: 2"/>
    <path d="M 162.739302 206.029917 
L 162.739302 201.936927 
" clip-path="url(#p87116a0c73)" style="fill: none; stroke: #bf00bf; stroke-width: 2"/>
    <path d="M 212.419712 223.231251 
L 212.419712 220.949628 
" clip-path="url(#p87116a0c73)" style="fill: none; stroke: #bf00bf; stroke-width: 2"/>
    <path d="M 241.335513 242.402644 
L 241.335513 239.738681 
" clip-path="url(#p87116a0c73)" style="fill: none; stroke: #bf00bf; stroke-width: 2"/>
    <path d="M 261.811562 259.860855 
L 261.811562 257.047008 
" clip-path="url(#p87116a0c73)" style="fill: none; stroke: #bf00bf; stroke-width: 2"/>
    <path d="M 277.677288 277.02 
L 277.677288 276.309892 
" clip-path="url(#p87116a0c73)" style="fill: none; stroke: #bf00bf; stroke-width: 2"/>
   </g>
   <g id="line2d_21">
    <defs>
     <path id="ma150f7b6a3" d="M 3 0 
L -3 -0 
" style="stroke: #bf00bf; stroke-width: 2"/>
    </defs>
    <g clip-path="url(#p87116a0c73)">
     <use xlink:href="#ma150f7b6a3" x="291.009796" y="60.837721" style="fill: #bf00bf; stroke: #bf00bf; stroke-width: 2"/>
     <use xlink:href="#ma150f7b6a3" x="278.130704" y="84.16253" style="fill: #bf00bf; stroke: #bf00bf; stroke-width: 2"/>
     <use xlink:href="#ma150f7b6a3" x="262.378334" y="106.403794" style="fill: #bf00bf; stroke: #bf00bf; stroke-width: 2"/>
     <use xlink:href="#ma150f7b6a3" x="242.091212" y="127.793928" style="fill: #bf00bf; stroke: #bf00bf; stroke-width: 2"/>
     <use xlink:href="#ma150f7b6a3" x="213.553273" y="148.930895" style="fill: #bf00bf; stroke: #bf00bf; stroke-width: 2"/>
     <use xlink:href="#ma150f7b6a3" x="165.00657" y="168.180646" style="fill: #bf00bf; stroke: #bf00bf; stroke-width: 2"/>
     <use xlink:href="#ma150f7b6a3" x="-1" y="178.354888" style="fill: #bf00bf; stroke: #bf00bf; stroke-width: 2"/>
     <use xlink:href="#ma150f7b6a3" x="-1" y="194.905887" style="fill: #bf00bf; stroke: #bf00bf; stroke-width: 2"/>
     <use xlink:href="#ma150f7b6a3" x="162.739302" y="206.029917" style="fill: #bf00bf; stroke: #bf00bf; stroke-width: 2"/>
     <use xlink:href="#ma150f7b6a3" x="212.419712" y="223.231251" style="fill: #bf00bf; stroke: #bf00bf; stroke-width: 2"/>
     <use xlink:href="#ma150f7b6a3" x="241.335513" y="242.402644" style="fill: #bf00bf; stroke: #bf00bf; stroke-width: 2"/>
     <use xlink:href="#ma150f7b6a3" x="261.811562" y="259.860855" style="fill: #bf00bf; stroke: #bf00bf; stroke-width: 2"/>
     <use xlink:href="#ma150f7b6a3" x="277.677288" y="277.02" style="fill: #bf00bf; stroke: #bf00bf; stroke-width: 2"/>
    </g>
   </g>
   <g id="line2d_22">
    <g clip-path="url(#p87116a0c73)">
     <use xlink:href="#ma150f7b6a3" x="291.009796" y="57.901845" style="fill: #bf00bf; stroke: #bf00bf; stroke-width: 2"/>
     <use xlink:href="#ma150f7b6a3" x="278.130704" y="81.98498" style="fill: #bf00bf; stroke: #bf00bf; stroke-width: 2"/>
     <use xlink:href="#ma150f7b6a3" x="262.378334" y="104.906574" style="fill: #bf00bf; stroke: #bf00bf; stroke-width: 2"/>
     <use xlink:href="#ma150f7b6a3" x="242.091212" y="124.930074" style="fill: #bf00bf; stroke: #bf00bf; stroke-width: 2"/>
     <use xlink:href="#ma150f7b6a3" x="213.553273" y="145.817801" style="fill: #bf00bf; stroke: #bf00bf; stroke-width: 2"/>
     <use xlink:href="#ma150f7b6a3" x="165.00657" y="165.593794" style="fill: #bf00bf; stroke: #bf00bf; stroke-width: 2"/>
     <use xlink:href="#ma150f7b6a3" x="-1" y="175.808215" style="fill: #bf00bf; stroke: #bf00bf; stroke-width: 2"/>
     <use xlink:href="#ma150f7b6a3" x="-1" y="191.697932" style="fill: #bf00bf; stroke: #bf00bf; stroke-width: 2"/>
     <use xlink:href="#ma150f7b6a3" x="162.739302" y="201.936927" style="fill: #bf00bf; stroke: #bf00bf; stroke-width: 2"/>
     <use xlink:href="#ma150f7b6a3" x="212.419712" y="220.949628" style="fill: #bf00bf; stroke: #bf00bf; stroke-width: 2"/>
     <use xlink:href="#ma150f7b6a3" x="241.335513" y="239.738681" style="fill: #bf00bf; stroke: #bf00bf; stroke-width: 2"/>
     <use xlink:href="#ma150f7b6a3" x="261.811562" y="257.047008" style="fill: #bf00bf; stroke: #bf00bf; stroke-width: 2"/>
     <use xlink:href="#ma150f7b6a3" x="277.677288" y="276.309892" style="fill: #bf00bf; stroke: #bf00bf; stroke-width: 2"/>
    </g>
   </g>
   <g id="line2d_23">
    <path d="M 40.5 193.389055 
L 58.435714 194.298082 
L 74.129464 195.308818 
L 88.478036 196.453185 
L 101.481429 197.712502 
L 113.139643 199.056907 
L 123.901071 200.51078 
L 134.214107 202.127 
L 143.630357 203.821697 
L 152.598214 205.657056 
L 161.117679 207.62641 
L 169.18875 209.719506 
L 176.811429 211.922386 
L 183.985714 214.217373 
L 191.16 216.748746 
L 197.885893 219.356815 
L 204.611786 222.212865 
L 210.889286 225.121371 
L 217.166786 228.283628 
L 222.995893 231.464692 
L 228.825 234.898724 
L 234.654107 238.603526 
L 240.034821 242.279794 
L 245.415536 246.217969 
L 250.79625 250.433922 
L 256.176964 254.944055 
L 261.557679 259.765245 
L 266.49 264.472681 
L 271.422321 269.469569 
L 276.354643 274.769632 
L 277.699821 276.269537 
L 277.699821 276.269537 
" clip-path="url(#p87116a0c73)" style="fill: none; stroke: #000000; stroke-width: 1.5; stroke-linecap: square"/>
   </g>
   <g id="line2d_24">
    <path d="M 40.5 185.13002 
L 57.987321 184.199601 
L 73.681071 183.142971 
L 87.58125 181.987902 
L 100.13625 180.727967 
L 111.794464 179.336717 
L 122.555893 177.828317 
L 132.420536 176.224278 
L 141.836786 174.464198 
L 150.35625 172.650611 
L 158.427321 170.711853 
L 166.05 168.658185 
L 173.224286 166.503498 
L 179.950179 164.265417 
L 186.676071 161.792627 
L 192.953571 159.250042 
L 199.231071 156.456756 
L 205.060179 153.615518 
L 210.440893 150.760557 
L 215.821607 147.661647 
L 221.202321 144.296234 
L 226.134643 140.955908 
L 231.066964 137.349546 
L 235.999286 133.453851 
L 240.483214 129.639681 
L 244.967143 125.544008 
L 249.451071 121.143596 
L 253.935 116.41293 
L 257.970536 111.849821 
L 262.006071 106.974064 
L 266.041607 101.761116 
L 270.077143 96.184088 
L 274.112679 90.213463 
L 278.148214 83.816774 
L 282.18375 76.958228 
L 285.770893 70.442136 
L 289.358036 63.499359 
L 292.048393 57.992202 
L 292.048393 57.992202 
" clip-path="url(#p87116a0c73)" style="fill: none; stroke: #000000; stroke-width: 1.5; stroke-linecap: square"/>
   </g>
   <g id="line2d_25"/>
   <g id="line2d_26"/>
   <g id="line2d_27"/>
   <g id="line2d_28"/>
   <g id="patch_3">
    <path d="M 40.5 288.36 
L 40.5 38.88 
" style="fill: none; stroke: #000000; stroke-width: 1.6; stroke-linejoin: miter; stroke-linecap: square"/>
   </g>
   <g id="patch_4">
    <path d="M 291.6 288.36 
L 291.6 38.88 
" style="fill: none; stroke: #000000; stroke-width: 1.6; stroke-linejoin: miter; stroke-linecap: square"/>
   </g>
   <g id="patch_5">
    <path d="M 40.5 288.36 
L 291.6 288.36 
" style="fill: none; stroke: #000000; stroke-width: 1.6; stroke-linejoin: miter; stroke-linecap: square"/>
   </g>
   <g id="patch_6">
    <path d="M 40.5 38.88 
L 291.6 38.88 
" style="fill: none; stroke: #000000; stroke-width: 1.6; stroke-linejoin: miter; stroke-linecap: square"/>
   </g>
   <g id="legend_1">
    <g id="patch_7">
     <path d="M 48.9 118.935 
L 122.979375 118.935 
Q 125.379375 118.935 125.379375 116.535 
L 125.379375 47.28 
Q 125.379375 44.88 122.979375 44.88 
L 48.9 44.88 
Q 46.5 44.88 46.5 47.28 
L 46.5 116.535 
Q 46.5 118.935 48.9 118.935 
z
" style="fill: #ffffff; opacity: 0.8"/>
    </g>
    <g id="LineCollection_5">
     <path d="M 63.3 60.598125 
L 63.3 48.598125 
" style="fill: none; stroke: #ff0000; stroke-width: 2"/>
    </g>
    <g id="line2d_29">
     <g>
      <use xlink:href="#m768aaf2527" x="63.3" y="60.598125" style="fill: #ff0000; stroke: #ff0000; stroke-width: 2"/>
     </g>
    </g>
    <g id="line2d_30">
     <g>
      <use xlink:href="#m768aaf2527" x="63.3" y="48.598125" style="fill: #ff0000; stroke: #ff0000; stroke-width: 2"/>
     </g>
    </g>
    <g id="line2d_31"/>
    <g id="line2d_32"/>
    <g id="text_15">
     <!-- M=4 -->
     <g transform="translate(84.9 58.798125) scale(0.12 -0.12)">
      <defs>
       <path id="DejaVuSans-4d" d="M 628 4666 
L 1569 4666 
L 2759 1491 
L 3956 4666 
L 4897 4666 
L 4897 0 
L 4281 0 
L 4281 4097 
L 3078 897 
L 2444 897 
L 1241 4097 
L 1241 0 
L 628 0 
L 628 4666 
z
" transform="scale(0.015625)"/>
       <path id="DejaVuSans-3d" d="M 678 2906 
L 4684 2906 
L 4684 2381 
L 678 2381 
L 678 2906 
z
M 678 1631 
L 4684 1631 
L 4684 1100 
L 678 1100 
L 678 1631 
z
" transform="scale(0.015625)"/>
      </defs>
      <use xlink:href="#DejaVuSans-4d"/>
      <use xlink:href="#DejaVuSans-3d" x="86.279297"/>
      <use xlink:href="#DejaVuSans-34" x="170.068359"/>
     </g>
    </g>
    <g id="LineCollection_6">
     <path d="M 63.3 78.211875 
L 63.3 66.211875 
" style="fill: none; stroke: #ffa500; stroke-width: 2"/>
    </g>
    <g id="line2d_33">
     <g>
      <use xlink:href="#m05f0a36180" x="63.3" y="78.211875" style="fill: #ffa500; stroke: #ffa500; stroke-width: 2"/>
     </g>
    </g>
    <g id="line2d_34">
     <g>
      <use xlink:href="#m05f0a36180" x="63.3" y="66.211875" style="fill: #ffa500; stroke: #ffa500; stroke-width: 2"/>
     </g>
    </g>
    <g id="line2d_35"/>
    <g id="line2d_36"/>
    <g id="text_16">
     <!-- M=6 -->
     <g transform="translate(84.9 76.411875) scale(0.12 -0.12)">
      <use xlink:href="#DejaVuSans-4d"/>
      <use xlink:href="#DejaVuSans-3d" x="86.279297"/>
      <use xlink:href="#DejaVuSans-36" x="170.068359"/>
     </g>
    </g>
    <g id="LineCollection_7">
     <path d="M 63.3 95.825625 
L 63.3 83.825625 
" style="fill: none; stroke: #0000ff; stroke-width: 2"/>
    </g>
    <g id="line2d_37">
     <g>
      <use xlink:href="#m8c01225992" x="63.3" y="95.825625" style="fill: #0000ff; stroke: #0000ff; stroke-width: 2"/>
     </g>
    </g>
    <g id="line2d_38">
     <g>
      <use xlink:href="#m8c01225992" x="63.3" y="83.825625" style="fill: #0000ff; stroke: #0000ff; stroke-width: 2"/>
     </g>
    </g>
    <g id="line2d_39"/>
    <g id="line2d_40"/>
    <g id="text_17">
     <!-- M=8 -->
     <g transform="translate(84.9 94.025625) scale(0.12 -0.12)">
      <use xlink:href="#DejaVuSans-4d"/>
      <use xlink:href="#DejaVuSans-3d" x="86.279297"/>
      <use xlink:href="#DejaVuSans-38" x="170.068359"/>
     </g>
    </g>
    <g id="LineCollection_8">
     <path d="M 63.3 113.439375 
L 63.3 101.439375 
" style="fill: none; stroke: #bf00bf; stroke-width: 2"/>
    </g>
    <g id="line2d_41">
     <g>
      <use xlink:href="#ma150f7b6a3" x="63.3" y="113.439375" style="fill: #bf00bf; stroke: #bf00bf; stroke-width: 2"/>
     </g>
    </g>
    <g id="line2d_42">
     <g>
      <use xlink:href="#ma150f7b6a3" x="63.3" y="101.439375" style="fill: #bf00bf; stroke: #bf00bf; stroke-width: 2"/>
     </g>
    </g>
    <g id="line2d_43"/>
    <g id="line2d_44"/>
    <g id="text_18">
     <!-- M=12 -->
     <g transform="translate(84.9 111.639375) scale(0.12 -0.12)">
      <use xlink:href="#DejaVuSans-4d"/>
      <use xlink:href="#DejaVuSans-3d" x="86.279297"/>
      <use xlink:href="#DejaVuSans-31" x="170.068359"/>
      <use xlink:href="#DejaVuSans-32" x="233.691406"/>
     </g>
    </g>
   </g>
  </g>
 </g>
 <defs>
  <clipPath id="p87116a0c73">
   <rect x="40.5" y="38.88" width="251.1" height="249.48"/>
  </clipPath>
 </defs>
</svg>
