<?xml version="1.0" encoding="utf-8" standalone="no"?>
<!DOCTYPE svg PUBLIC "-//W3C//DTD SVG 1.1//EN"
  "http://www.w3.org/Graphics/SVG/1.1/DTD/svg11.dtd">
<svg xmlns:xlink="http://www.w3.org/1999/xlink" width="324pt" height="324pt" viewBox="0 0 324 324" xmlns="http://www.w3.org/2000/svg" version="1.1">
 <metadata>
  <rdf:RDF xmlns:dc="http://purl.org/dc/elements/1.1/" xmlns:cc="http://creativecommons.org/ns#" xmlns:rdf="http://www.w3.org/1999/02/22-rdf-syntax-ns#">
   <cc:Work>
    <dc:type rdf:resource="http://purl.org/dc/dcmitype/StillImage"/>
    <dc:date>2026-01-07T16:32:03.963852</dc:date>
    <dc:format>image/svg+xml</dc:format>
    <dc:creator>
     <cc:Agent>
      <dc:title>Matplotlib v3.8.0, https://matplotlib.org/</dc:title>
     </cc:Agent>
    </dc:creator>
   </cc:Work>
  </rdf:RDF>
 </metadata>
 <defs>
  <style type="text/css">*{stroke-linejoin: round; stroke-linecap: butt}</style>
 </defs>
 <g id="figure_1">
  <g id="patch_1">
   <path d="M 0 324 
L 324 324 
L 324 0 
L 0 0 
z
" style="fill: #ffffff"/>
  </g>
  <g id="axes_1">
   <g id="patch_2">
    <path d="M 40.5 288.36 
L 291.6 288.36 
L 291.6 38.88 
L 40.5 38.88 
z
" style="fill: #ffffff"/>
   </g>
   <g id="matplotlib.axis_1">
    <g id="xtick_1">
     <g id="line2d_1">
      <defs>
       <path id="md55b6049d0" d="M 0 0 
L 0 8 
" style="stroke: #000000; stroke-width: 1.5"/>
      </defs>
      <g>
       <use xlink:href="#md55b6049d0" x="72.665702" y="288.36" style="stroke: #000000; stroke-width: 1.5"/>
      </g>
     </g>
     <g id="text_1">
      <!-- 8.0 -->
      <g transform="translate(63.123827 308.978125) scale(0.12 -0.12)">
       <defs>
        <path id="DejaVuSans-38" d="M 2034 2216 
Q 1584 2216 1326 1975 
Q 1069 1734 1069 1313 
Q 1069 891 1326 650 
Q 1584 409 2034 409 
Q 2484 409 2743 651 
Q 3003 894 3003 1313 
Q 3003 1734 2745 1975 
Q 2488 2216 2034 2216 
z
M 1403 2484 
Q 997 2584 770 2862 
Q 544 3141 544 3541 
Q 544 4100 942 4425 
Q 1341 4750 2034 4750 
Q 2731 4750 3128 4425 
Q 3525 4100 3525 3541 
Q 3525 3141 3298 2862 
Q 3072 2584 2669 2484 
Q 3125 2378 3379 2068 
Q 3634 1759 3634 1313 
Q 3634 634 3220 271 
Q 2806 -91 2034 -91 
Q 1263 -91 848 271 
Q 434 634 434 1313 
Q 434 1759 690 2068 
Q 947 2378 1403 2484 
z
M 1172 3481 
Q 1172 3119 1398 2916 
Q 1625 2713 2034 2713 
Q 2441 2713 2670 2916 
Q 2900 3119 2900 3481 
Q 2900 3844 2670 4047 
Q 2441 4250 2034 4250 
Q 1625 4250 1398 4047 
Q 1172 3844 1172 3481 
z
" transform="scale(0.015625)"/>
        <path id="DejaVuSans-2e" d="M 684 794 
L 1344 794 
L 1344 0 
L 684 0 
L 684 794 
z
" transform="scale(0.015625)"/>
        <path id="DejaVuSans-30" d="M 2034 4250 
Q 1547 4250 1301 3770 
Q 1056 3291 1056 2328 
Q 1056 1369 1301 889 
Q 1547 409 2034 409 
Q 2525 409 2770 889 
Q 3016 1369 3016 2328 
Q 3016 3291 2770 3770 
Q 2525 4250 2034 4250 
z
M 2034 4750 
Q 2819 4750 3233 4129 
Q 3647 3509 3647 2328 
Q 3647 1150 3233 529 
Q 2819 -91 2034 -91 
Q 1250 -91 836 529 
Q 422 1150 422 2328 
Q 422 3509 836 4129 
Q 1250 4750 2034 4750 
z
" transform="scale(0.015625)"/>
       </defs>
       <use xlink:href="#DejaVuSans-38"/>
       <use xlink:href="#DejaVuSans-2e" x="63.623047"/>
       <use xlink:href="#DejaVuSans-30" x="95.410156"/>
      </g>
     </g>
    </g>
    <g id="xtick_2">
     <g id="line2d_2">
      <g>
       <use xlink:href="#md55b6049d0" x="155.673967" y="288.36" style="stroke: #000000; stroke-width: 1.5"/>
      </g>
     </g>
     <g id="text_2">
      <!-- 8.2 -->
      <g transform="translate(146.132092 308.978125) scale(0.12 -0.12)">
       <defs>
        <path id="DejaVuSans-32" d="M 1228 531 
L 3431 531 
L 3431 0 
L 469 0 
L 469 531 
Q 828 903 1448 1529 
Q 2069 2156 2228 2338 
Q 2531 2678 2651 2914 
Q 2772 3150 2772 3378 
Q 2772 3750 2511 3984 
Q 2250 4219 1831 4219 
Q 1534 4219 1204 4116 
Q 875 4013 500 3803 
L 500 4441 
Q 881 4594 1212 4672 
Q 1544 4750 1819 4750 
Q 2544 4750 2975 4387 
Q 3406 4025 3406 3419 
Q 3406 3131 3298 2873 
Q 3191 2616 2906 2266 
Q 2828 2175 2409 1742 
Q 1991 1309 1228 531 
z
" transform="scale(0.015625)"/>
       </defs>
       <use xlink:href="#DejaVuSans-38"/>
       <use xlink:href="#DejaVuSans-2e" x="63.623047"/>
       <use xlink:href="#DejaVuSans-32" x="95.410156"/>
      </g>
     </g>
    </g>
    <g id="xtick_3">
     <g id="line2d_3">
      <g>
       <use xlink:href="#md55b6049d0" x="238.682231" y="288.36" style="stroke: #000000; stroke-width: 1.5"/>
      </g>
     </g>
     <g id="text_3">
      <!-- 8.4 -->
      <g transform="translate(229.140356 308.978125) scale(0.12 -0.12)">
       <defs>
        <path id="DejaVuSans-34" d="M 2419 4116 
L 825 1625 
L 2419 1625 
L 2419 4116 
z
M 2253 4666 
L 3047 4666 
L 3047 1625 
L 3713 1625 
L 3713 1100 
L 3047 1100 
L 3047 0 
L 2419 0 
L 2419 1100 
L 313 1100 
L 313 1709 
L 2253 4666 
z
" transform="scale(0.015625)"/>
       </defs>
       <use xlink:href="#DejaVuSans-38"/>
       <use xlink:href="#DejaVuSans-2e" x="63.623047"/>
       <use xlink:href="#DejaVuSans-34" x="95.410156"/>
      </g>
     </g>
    </g>
   </g>
   <g id="matplotlib.axis_2">
    <g id="ytick_1">
     <g id="line2d_4">
      <defs>
       <path id="m1812bfe75d" d="M 0 0 
L -8 0 
" style="stroke: #000000; stroke-width: 1.5"/>
      </defs>
      <g>
       <use xlink:href="#m1812bfe75d" x="40.5" y="273.409725" style="stroke: #000000; stroke-width: 1.5"/>
      </g>
     </g>
     <g id="text_4">
      <!-- 0.52 -->
      <g transform="translate(2.28125 277.968787) scale(0.12 -0.12)">
       <defs>
        <path id="DejaVuSans-35" d="M 691 4666 
L 3169 4666 
L 3169 4134 
L 1269 4134 
L 1269 2991 
Q 1406 3038 1543 3061 
Q 1681 3084 1819 3084 
Q 2600 3084 3056 2656 
Q 3513 2228 3513 1497 
Q 3513 744 3044 326 
Q 2575 -91 1722 -91 
Q 1428 -91 1123 -41 
Q 819 9 494 109 
L 494 744 
Q 775 591 1075 516 
Q 1375 441 1709 441 
Q 2250 441 2565 725 
Q 2881 1009 2881 1497 
Q 2881 1984 2565 2268 
Q 2250 2553 1709 2553 
Q 1456 2553 1204 2497 
Q 953 2441 691 2322 
L 691 4666 
z
" transform="scale(0.015625)"/>
       </defs>
       <use xlink:href="#DejaVuSans-30"/>
       <use xlink:href="#DejaVuSans-2e" x="63.623047"/>
       <use xlink:href="#DejaVuSans-35" x="95.410156"/>
       <use xlink:href="#DejaVuSans-32" x="159.033203"/>
      </g>
     </g>
    </g>
    <g id="ytick_2">
     <g id="line2d_5">
      <g>
       <use xlink:href="#m1812bfe75d" x="40.5" y="239.906961" style="stroke: #000000; stroke-width: 1.5"/>
      </g>
     </g>
     <g id="text_5">
      <!-- 0.54 -->
      <g transform="translate(2.28125 244.466023) scale(0.12 -0.12)">
       <use xlink:href="#DejaVuSans-30"/>
       <use xlink:href="#DejaVuSans-2e" x="63.623047"/>
       <use xlink:href="#DejaVuSans-35" x="95.410156"/>
       <use xlink:href="#DejaVuSans-34" x="159.033203"/>
      </g>
     </g>
    </g>
    <g id="ytick_3">
     <g id="line2d_6">
      <g>
       <use xlink:href="#m1812bfe75d" x="40.5" y="206.404197" style="stroke: #000000; stroke-width: 1.5"/>
      </g>
     </g>
     <g id="text_6">
      <!-- 0.56 -->
      <g transform="translate(2.28125 210.963259) scale(0.12 -0.12)">
       <defs>
        <path id="DejaVuSans-36" d="M 2113 2584 
Q 1688 2584 1439 2293 
Q 1191 2003 1191 1497 
Q 1191 994 1439 701 
Q 1688 409 2113 409 
Q 2538 409 2786 701 
Q 3034 994 3034 1497 
Q 3034 2003 2786 2293 
Q 2538 2584 2113 2584 
z
M 3366 4563 
L 3366 3988 
Q 3128 4100 2886 4159 
Q 2644 4219 2406 4219 
Q 1781 4219 1451 3797 
Q 1122 3375 1075 2522 
Q 1259 2794 1537 2939 
Q 1816 3084 2150 3084 
Q 2853 3084 3261 2657 
Q 3669 2231 3669 1497 
Q 3669 778 3244 343 
Q 2819 -91 2113 -91 
Q 1303 -91 875 529 
Q 447 1150 447 2328 
Q 447 3434 972 4092 
Q 1497 4750 2381 4750 
Q 2619 4750 2861 4703 
Q 3103 4656 3366 4563 
z
" transform="scale(0.015625)"/>
       </defs>
       <use xlink:href="#DejaVuSans-30"/>
       <use xlink:href="#DejaVuSans-2e" x="63.623047"/>
       <use xlink:href="#DejaVuSans-35" x="95.410156"/>
       <use xlink:href="#DejaVuSans-36" x="159.033203"/>
      </g>
     </g>
    </g>
    <g id="ytick_4">
     <g id="line2d_7">
      <g>
       <use xlink:href="#m1812bfe75d" x="40.5" y="172.901433" style="stroke: #000000; stroke-width: 1.5"/>
      </g>
     </g>
     <g id="text_7">
      <!-- 0.58 -->
      <g transform="translate(2.28125 177.460495) scale(0.12 -0.12)">
       <use xlink:href="#DejaVuSans-30"/>
       <use xlink:href="#DejaVuSans-2e" x="63.623047"/>
       <use xlink:href="#DejaVuSans-35" x="95.410156"/>
       <use xlink:href="#DejaVuSans-38" x="159.033203"/>
      </g>
     </g>
    </g>
    <g id="ytick_5">
     <g id="line2d_8">
      <g>
       <use xlink:href="#m1812bfe75d" x="40.5" y="139.398669" style="stroke: #000000; stroke-width: 1.5"/>
      </g>
     </g>
     <g id="text_8">
      <!-- 0.60 -->
      <g transform="translate(2.28125 143.957731) scale(0.12 -0.12)">
       <use xlink:href="#DejaVuSans-30"/>
       <use xlink:href="#DejaVuSans-2e" x="63.623047"/>
       <use xlink:href="#DejaVuSans-36" x="95.410156"/>
       <use xlink:href="#DejaVuSans-30" x="159.033203"/>
      </g>
     </g>
    </g>
    <g id="ytick_6">
     <g id="line2d_9">
      <g>
       <use xlink:href="#m1812bfe75d" x="40.5" y="105.895905" style="stroke: #000000; stroke-width: 1.5"/>
      </g>
     </g>
     <g id="text_9">
      <!-- 0.62 -->
      <g transform="translate(2.28125 110.454967) scale(0.12 -0.12)">
       <use xlink:href="#DejaVuSans-30"/>
       <use xlink:href="#DejaVuSans-2e" x="63.623047"/>
       <use xlink:href="#DejaVuSans-36" x="95.410156"/>
       <use xlink:href="#DejaVuSans-32" x="159.033203"/>
      </g>
     </g>
    </g>
    <g id="ytick_7">
     <g id="line2d_10">
      <g>
       <use xlink:href="#m1812bfe75d" x="40.5" y="72.393141" style="stroke: #000000; stroke-width: 1.5"/>
      </g>
     </g>
     <g id="text_10">
      <!-- 0.64 -->
      <g transform="translate(2.28125 76.952203) scale(0.12 -0.12)">
       <use xlink:href="#DejaVuSans-30"/>
       <use xlink:href="#DejaVuSans-2e" x="63.623047"/>
       <use xlink:href="#DejaVuSans-36" x="95.410156"/>
       <use xlink:href="#DejaVuSans-34" x="159.033203"/>
      </g>
     </g>
    </g>
    <g id="ytick_8">
     <g id="line2d_11">
      <g>
       <use xlink:href="#m1812bfe75d" x="40.5" y="38.890377" style="stroke: #000000; stroke-width: 1.5"/>
      </g>
     </g>
     <g id="text_11">
      <!-- 0.66 -->
      <g transform="translate(2.28125 43.449439) scale(0.12 -0.12)">
       <use xlink:href="#DejaVuSans-30"/>
       <use xlink:href="#DejaVuSans-2e" x="63.623047"/>
       <use xlink:href="#DejaVuSans-36" x="95.410156"/>
       <use xlink:href="#DejaVuSans-36" x="159.033203"/>
      </g>
     </g>
    </g>
   </g>
   <g id="line2d_12">
    <path d="M 51.913636 122.450154 
L 72.665702 131.636763 
L 93.417769 142.561818 
L 114.169835 154.902635 
L 134.921901 167.802793 
L 155.673967 176.411016 
L 176.426033 186.016813 
L 197.178099 197.08299 
L 217.930165 207.136507 
L 238.682231 215.710924 
L 259.434298 225.02255 
L 280.186364 234.418978 
" clip-path="url(#p9f3b3a4198)" style="fill: none; stroke: #ff0000; stroke-width: 1.5; stroke-linecap: square"/>
   </g>
   <g id="LineCollection_1">
    <path d="M 51.913636 123.643666 
L 51.913636 121.256641 
" clip-path="url(#p9f3b3a4198)" style="fill: none; stroke: #ff0000; stroke-width: 2"/>
    <path d="M 72.665702 132.360013 
L 72.665702 130.913514 
" clip-path="url(#p9f3b3a4198)" style="fill: none; stroke: #ff0000; stroke-width: 2"/>
    <path d="M 93.417769 143.272077 
L 93.417769 141.85156 
" clip-path="url(#p9f3b3a4198)" style="fill: none; stroke: #ff0000; stroke-width: 2"/>
    <path d="M 114.169835 155.316764 
L 114.169835 154.488506 
" clip-path="url(#p9f3b3a4198)" style="fill: none; stroke: #ff0000; stroke-width: 2"/>
    <path d="M 134.921901 168.548556 
L 134.921901 167.05703 
" clip-path="url(#p9f3b3a4198)" style="fill: none; stroke: #ff0000; stroke-width: 2"/>
    <path d="M 155.673967 177.453276 
L 155.673967 175.368757 
" clip-path="url(#p9f3b3a4198)" style="fill: none; stroke: #ff0000; stroke-width: 2"/>
    <path d="M 176.426033 186.731942 
L 176.426033 185.301683 
" clip-path="url(#p9f3b3a4198)" style="fill: none; stroke: #ff0000; stroke-width: 2"/>
    <path d="M 197.178099 197.967239 
L 197.178099 196.198741 
" clip-path="url(#p9f3b3a4198)" style="fill: none; stroke: #ff0000; stroke-width: 2"/>
    <path d="M 217.930165 207.859208 
L 217.930165 206.413807 
" clip-path="url(#p9f3b3a4198)" style="fill: none; stroke: #ff0000; stroke-width: 2"/>
    <path d="M 238.682231 216.477644 
L 238.682231 214.944204 
" clip-path="url(#p9f3b3a4198)" style="fill: none; stroke: #ff0000; stroke-width: 2"/>
    <path d="M 259.434298 226.016557 
L 259.434298 224.028543 
" clip-path="url(#p9f3b3a4198)" style="fill: none; stroke: #ff0000; stroke-width: 2"/>
    <path d="M 280.186364 235.174719 
L 280.186364 233.663236 
" clip-path="url(#p9f3b3a4198)" style="fill: none; stroke: #ff0000; stroke-width: 2"/>
   </g>
   <g id="line2d_13">
    <defs>
     <path id="m5ba9dedd7d" d="M 3 0 
L -3 -0 
" style="stroke: #ff0000; stroke-width: 2"/>
    </defs>
    <g clip-path="url(#p9f3b3a4198)">
     <use xlink:href="#m5ba9dedd7d" x="51.913636" y="123.643666" style="fill: #ff0000; stroke: #ff0000; stroke-width: 2"/>
     <use xlink:href="#m5ba9dedd7d" x="72.665702" y="132.360013" style="fill: #ff0000; stroke: #ff0000; stroke-width: 2"/>
     <use xlink:href="#m5ba9dedd7d" x="93.417769" y="143.272077" style="fill: #ff0000; stroke: #ff0000; stroke-width: 2"/>
     <use xlink:href="#m5ba9dedd7d" x="114.169835" y="155.316764" style="fill: #ff0000; stroke: #ff0000; stroke-width: 2"/>
     <use xlink:href="#m5ba9dedd7d" x="134.921901" y="168.548556" style="fill: #ff0000; stroke: #ff0000; stroke-width: 2"/>
     <use xlink:href="#m5ba9dedd7d" x="155.673967" y="177.453276" style="fill: #ff0000; stroke: #ff0000; stroke-width: 2"/>
     <use xlink:href="#m5ba9dedd7d" x="176.426033" y="186.731942" style="fill: #ff0000; stroke: #ff0000; stroke-width: 2"/>
     <use xlink:href="#m5ba9dedd7d" x="197.178099" y="197.967239" style="fill: #ff0000; stroke: #ff0000; stroke-width: 2"/>
     <use xlink:href="#m5ba9dedd7d" x="217.930165" y="207.859208" style="fill: #ff0000; stroke: #ff0000; stroke-width: 2"/>
     <use xlink:href="#m5ba9dedd7d" x="238.682231" y="216.477644" style="fill: #ff0000; stroke: #ff0000; stroke-width: 2"/>
     <use xlink:href="#m5ba9dedd7d" x="259.434298" y="226.016557" style="fill: #ff0000; stroke: #ff0000; stroke-width: 2"/>
     <use xlink:href="#m5ba9dedd7d" x="280.186364" y="235.174719" style="fill: #ff0000; stroke: #ff0000; stroke-width: 2"/>
    </g>
   </g>
   <g id="line2d_14">
    <g clip-path="url(#p9f3b3a4198)">
     <use xlink:href="#m5ba9dedd7d" x="51.913636" y="121.256641" style="fill: #ff0000; stroke: #ff0000; stroke-width: 2"/>
     <use xlink:href="#m5ba9dedd7d" x="72.665702" y="130.913514" style="fill: #ff0000; stroke: #ff0000; stroke-width: 2"/>
     <use xlink:href="#m5ba9dedd7d" x="93.417769" y="141.85156" style="fill: #ff0000; stroke: #ff0000; stroke-width: 2"/>
     <use xlink:href="#m5ba9dedd7d" x="114.169835" y="154.488506" style="fill: #ff0000; stroke: #ff0000; stroke-width: 2"/>
     <use xlink:href="#m5ba9dedd7d" x="134.921901" y="167.05703" style="fill: #ff0000; stroke: #ff0000; stroke-width: 2"/>
     <use xlink:href="#m5ba9dedd7d" x="155.673967" y="175.368757" style="fill: #ff0000; stroke: #ff0000; stroke-width: 2"/>
     <use xlink:href="#m5ba9dedd7d" x="176.426033" y="185.301683" style="fill: #ff0000; stroke: #ff0000; stroke-width: 2"/>
     <use xlink:href="#m5ba9dedd7d" x="197.178099" y="196.198741" style="fill: #ff0000; stroke: #ff0000; stroke-width: 2"/>
     <use xlink:href="#m5ba9dedd7d" x="217.930165" y="206.413807" style="fill: #ff0000; stroke: #ff0000; stroke-width: 2"/>
     <use xlink:href="#m5ba9dedd7d" x="238.682231" y="214.944204" style="fill: #ff0000; stroke: #ff0000; stroke-width: 2"/>
     <use xlink:href="#m5ba9dedd7d" x="259.434298" y="224.028543" style="fill: #ff0000; stroke: #ff0000; stroke-width: 2"/>
     <use xlink:href="#m5ba9dedd7d" x="280.186364" y="233.663236" style="fill: #ff0000; stroke: #ff0000; stroke-width: 2"/>
    </g>
   </g>
   <g id="line2d_15">
    <path d="M 51.913636 106.626737 
L 72.665702 119.614252 
L 93.417769 135.399563 
L 114.169835 147.717069 
L 134.921901 160.623762 
L 155.673967 175.071236 
L 176.426033 187.966189 
L 197.178099 199.131322 
L 217.930165 212.234841 
L 238.682231 226.740817 
L 259.434298 236.696143 
L 280.186364 248.212299 
" clip-path="url(#p9f3b3a4198)" style="fill: none; stroke: #ffa500; stroke-width: 1.5; stroke-linecap: square"/>
   </g>
   <g id="LineCollection_2">
    <path d="M 51.913636 107.695021 
L 51.913636 105.558454 
" clip-path="url(#p9f3b3a4198)" style="fill: none; stroke: #ffa500; stroke-width: 2"/>
    <path d="M 72.665702 120.788426 
L 72.665702 118.440077 
" clip-path="url(#p9f3b3a4198)" style="fill: none; stroke: #ffa500; stroke-width: 2"/>
    <path d="M 93.417769 136.256574 
L 93.417769 134.542552 
" clip-path="url(#p9f3b3a4198)" style="fill: none; stroke: #ffa500; stroke-width: 2"/>
    <path d="M 114.169835 148.727498 
L 114.169835 146.70664 
" clip-path="url(#p9f3b3a4198)" style="fill: none; stroke: #ffa500; stroke-width: 2"/>
    <path d="M 134.921901 161.702118 
L 134.921901 159.545406 
" clip-path="url(#p9f3b3a4198)" style="fill: none; stroke: #ffa500; stroke-width: 2"/>
    <path d="M 155.673967 176.008232 
L 155.673967 174.134239 
" clip-path="url(#p9f3b3a4198)" style="fill: none; stroke: #ffa500; stroke-width: 2"/>
    <path d="M 176.426033 188.633011 
L 176.426033 187.299367 
" clip-path="url(#p9f3b3a4198)" style="fill: none; stroke: #ffa500; stroke-width: 2"/>
    <path d="M 197.178099 200.086023 
L 197.178099 198.176621 
" clip-path="url(#p9f3b3a4198)" style="fill: none; stroke: #ffa500; stroke-width: 2"/>
    <path d="M 217.930165 212.973497 
L 217.930165 211.496186 
" clip-path="url(#p9f3b3a4198)" style="fill: none; stroke: #ffa500; stroke-width: 2"/>
    <path d="M 238.682231 227.647056 
L 238.682231 225.834579 
" clip-path="url(#p9f3b3a4198)" style="fill: none; stroke: #ffa500; stroke-width: 2"/>
    <path d="M 259.434298 237.208819 
L 259.434298 236.183466 
" clip-path="url(#p9f3b3a4198)" style="fill: none; stroke: #ffa500; stroke-width: 2"/>
    <path d="M 280.186364 248.866955 
L 280.186364 247.557644 
" clip-path="url(#p9f3b3a4198)" style="fill: none; stroke: #ffa500; stroke-width: 2"/>
   </g>
   <g id="line2d_16">
    <defs>
     <path id="ma67eee4d9b" d="M 3 0 
L -3 -0 
" style="stroke: #ffa500; stroke-width: 2"/>
    </defs>
    <g clip-path="url(#p9f3b3a4198)">
     <use xlink:href="#ma67eee4d9b" x="51.913636" y="107.695021" style="fill: #ffa500; stroke: #ffa500; stroke-width: 2"/>
     <use xlink:href="#ma67eee4d9b" x="72.665702" y="120.788426" style="fill: #ffa500; stroke: #ffa500; stroke-width: 2"/>
     <use xlink:href="#ma67eee4d9b" x="93.417769" y="136.256574" style="fill: #ffa500; stroke: #ffa500; stroke-width: 2"/>
     <use xlink:href="#ma67eee4d9b" x="114.169835" y="148.727498" style="fill: #ffa500; stroke: #ffa500; stroke-width: 2"/>
     <use xlink:href="#ma67eee4d9b" x="134.921901" y="161.702118" style="fill: #ffa500; stroke: #ffa500; stroke-width: 2"/>
     <use xlink:href="#ma67eee4d9b" x="155.673967" y="176.008232" style="fill: #ffa500; stroke: #ffa500; stroke-width: 2"/>
     <use xlink:href="#ma67eee4d9b" x="176.426033" y="188.633011" style="fill: #ffa500; stroke: #ffa500; stroke-width: 2"/>
     <use xlink:href="#ma67eee4d9b" x="197.178099" y="200.086023" style="fill: #ffa500; stroke: #ffa500; stroke-width: 2"/>
     <use xlink:href="#ma67eee4d9b" x="217.930165" y="212.973497" style="fill: #ffa500; stroke: #ffa500; stroke-width: 2"/>
     <use xlink:href="#ma67eee4d9b" x="238.682231" y="227.647056" style="fill: #ffa500; stroke: #ffa500; stroke-width: 2"/>
     <use xlink:href="#ma67eee4d9b" x="259.434298" y="237.208819" style="fill: #ffa500; stroke: #ffa500; stroke-width: 2"/>
     <use xlink:href="#ma67eee4d9b" x="280.186364" y="248.866955" style="fill: #ffa500; stroke: #ffa500; stroke-width: 2"/>
    </g>
   </g>
   <g id="line2d_17">
    <g clip-path="url(#p9f3b3a4198)">
     <use xlink:href="#ma67eee4d9b" x="51.913636" y="105.558454" style="fill: #ffa500; stroke: #ffa500; stroke-width: 2"/>
     <use xlink:href="#ma67eee4d9b" x="72.665702" y="118.440077" style="fill: #ffa500; stroke: #ffa500; stroke-width: 2"/>
     <use xlink:href="#ma67eee4d9b" x="93.417769" y="134.542552" style="fill: #ffa500; stroke: #ffa500; stroke-width: 2"/>
     <use xlink:href="#ma67eee4d9b" x="114.169835" y="146.70664" style="fill: #ffa500; stroke: #ffa500; stroke-width: 2"/>
     <use xlink:href="#ma67eee4d9b" x="134.921901" y="159.545406" style="fill: #ffa500; stroke: #ffa500; stroke-width: 2"/>
     <use xlink:href="#ma67eee4d9b" x="155.673967" y="174.134239" style="fill: #ffa500; stroke: #ffa500; stroke-width: 2"/>
     <use xlink:href="#ma67eee4d9b" x="176.426033" y="187.299367" style="fill: #ffa500; stroke: #ffa500; stroke-width: 2"/>
     <use xlink:href="#ma67eee4d9b" x="197.178099" y="198.176621" style="fill: #ffa500; stroke: #ffa500; stroke-width: 2"/>
     <use xlink:href="#ma67eee4d9b" x="217.930165" y="211.496186" style="fill: #ffa500; stroke: #ffa500; stroke-width: 2"/>
     <use xlink:href="#ma67eee4d9b" x="238.682231" y="225.834579" style="fill: #ffa500; stroke: #ffa500; stroke-width: 2"/>
     <use xlink:href="#ma67eee4d9b" x="259.434298" y="236.183466" style="fill: #ffa500; stroke: #ffa500; stroke-width: 2"/>
     <use xlink:href="#ma67eee4d9b" x="280.186364" y="247.557644" style="fill: #ffa500; stroke: #ffa500; stroke-width: 2"/>
    </g>
   </g>
   <g id="line2d_18">
    <path d="M 51.913636 87.062055 
L 72.665702 104.385571 
L 93.417769 120.870028 
L 114.169835 136.977798 
L 134.921901 151.691328 
L 155.673967 169.724484 
L 176.426033 186.183286 
L 197.178099 200.16399 
L 217.930165 215.651179 
L 238.682231 229.097334 
L 259.434298 242.958816 
L 280.186364 257.146351 
" clip-path="url(#p9f3b3a4198)" style="fill: none; stroke: #0000ff; stroke-width: 1.5; stroke-linecap: square"/>
   </g>
   <g id="LineCollection_3">
    <path d="M 51.913636 87.780162 
L 51.913636 86.343949 
" clip-path="url(#p9f3b3a4198)" style="fill: none; stroke: #0000ff; stroke-width: 2"/>
    <path d="M 72.665702 105.63706 
L 72.665702 103.134082 
" clip-path="url(#p9f3b3a4198)" style="fill: none; stroke: #0000ff; stroke-width: 2"/>
    <path d="M 93.417769 121.783261 
L 93.417769 119.956795 
" clip-path="url(#p9f3b3a4198)" style="fill: none; stroke: #0000ff; stroke-width: 2"/>
    <path d="M 114.169835 137.896569 
L 114.169835 136.059028 
" clip-path="url(#p9f3b3a4198)" style="fill: none; stroke: #0000ff; stroke-width: 2"/>
    <path d="M 134.921901 152.278057 
L 134.921901 151.104599 
" clip-path="url(#p9f3b3a4198)" style="fill: none; stroke: #0000ff; stroke-width: 2"/>
    <path d="M 155.673967 170.566304 
L 155.673967 168.882663 
" clip-path="url(#p9f3b3a4198)" style="fill: none; stroke: #0000ff; stroke-width: 2"/>
    <path d="M 176.426033 187.528058 
L 176.426033 184.838514 
" clip-path="url(#p9f3b3a4198)" style="fill: none; stroke: #0000ff; stroke-width: 2"/>
    <path d="M 197.178099 200.936966 
L 197.178099 199.391013 
" clip-path="url(#p9f3b3a4198)" style="fill: none; stroke: #0000ff; stroke-width: 2"/>
    <path d="M 217.930165 216.533047 
L 217.930165 214.769311 
" clip-path="url(#p9f3b3a4198)" style="fill: none; stroke: #0000ff; stroke-width: 2"/>
    <path d="M 238.682231 229.862828 
L 238.682231 228.331841 
" clip-path="url(#p9f3b3a4198)" style="fill: none; stroke: #0000ff; stroke-width: 2"/>
    <path d="M 259.434298 243.895352 
L 259.434298 242.02228 
" clip-path="url(#p9f3b3a4198)" style="fill: none; stroke: #0000ff; stroke-width: 2"/>
    <path d="M 280.186364 257.724767 
L 280.186364 256.567935 
" clip-path="url(#p9f3b3a4198)" style="fill: none; stroke: #0000ff; stroke-width: 2"/>
   </g>
   <g id="line2d_19">
    <defs>
     <path id="md357e1b840" d="M 3 0 
L -3 -0 
" style="stroke: #0000ff; stroke-width: 2"/>
    </defs>
    <g clip-path="url(#p9f3b3a4198)">
     <use xlink:href="#md357e1b840" x="51.913636" y="87.780162" style="fill: #0000ff; stroke: #0000ff; stroke-width: 2"/>
     <use xlink:href="#md357e1b840" x="72.665702" y="105.63706" style="fill: #0000ff; stroke: #0000ff; stroke-width: 2"/>
     <use xlink:href="#md357e1b840" x="93.417769" y="121.783261" style="fill: #0000ff; stroke: #0000ff; stroke-width: 2"/>
     <use xlink:href="#md357e1b840" x="114.169835" y="137.896569" style="fill: #0000ff; stroke: #0000ff; stroke-width: 2"/>
     <use xlink:href="#md357e1b840" x="134.921901" y="152.278057" style="fill: #0000ff; stroke: #0000ff; stroke-width: 2"/>
     <use xlink:href="#md357e1b840" x="155.673967" y="170.566304" style="fill: #0000ff; stroke: #0000ff; stroke-width: 2"/>
     <use xlink:href="#md357e1b840" x="176.426033" y="187.528058" style="fill: #0000ff; stroke: #0000ff; stroke-width: 2"/>
     <use xlink:href="#md357e1b840" x="197.178099" y="200.936966" style="fill: #0000ff; stroke: #0000ff; stroke-width: 2"/>
     <use xlink:href="#md357e1b840" x="217.930165" y="216.533047" style="fill: #0000ff; stroke: #0000ff; stroke-width: 2"/>
     <use xlink:href="#md357e1b840" x="238.682231" y="229.862828" style="fill: #0000ff; stroke: #0000ff; stroke-width: 2"/>
     <use xlink:href="#md357e1b840" x="259.434298" y="243.895352" style="fill: #0000ff; stroke: #0000ff; stroke-width: 2"/>
     <use xlink:href="#md357e1b840" x="280.186364" y="257.724767" style="fill: #0000ff; stroke: #0000ff; stroke-width: 2"/>
    </g>
   </g>
   <g id="line2d_20">
    <g clip-path="url(#p9f3b3a4198)">
     <use xlink:href="#md357e1b840" x="51.913636" y="86.343949" style="fill: #0000ff; stroke: #0000ff; stroke-width: 2"/>
     <use xlink:href="#md357e1b840" x="72.665702" y="103.134082" style="fill: #0000ff; stroke: #0000ff; stroke-width: 2"/>
     <use xlink:href="#md357e1b840" x="93.417769" y="119.956795" style="fill: #0000ff; stroke: #0000ff; stroke-width: 2"/>
     <use xlink:href="#md357e1b840" x="114.169835" y="136.059028" style="fill: #0000ff; stroke: #0000ff; stroke-width: 2"/>
     <use xlink:href="#md357e1b840" x="134.921901" y="151.104599" style="fill: #0000ff; stroke: #0000ff; stroke-width: 2"/>
     <use xlink:href="#md357e1b840" x="155.673967" y="168.882663" style="fill: #0000ff; stroke: #0000ff; stroke-width: 2"/>
     <use xlink:href="#md357e1b840" x="176.426033" y="184.838514" style="fill: #0000ff; stroke: #0000ff; stroke-width: 2"/>
     <use xlink:href="#md357e1b840" x="197.178099" y="199.391013" style="fill: #0000ff; stroke: #0000ff; stroke-width: 2"/>
     <use xlink:href="#md357e1b840" x="217.930165" y="214.769311" style="fill: #0000ff; stroke: #0000ff; stroke-width: 2"/>
     <use xlink:href="#md357e1b840" x="238.682231" y="228.331841" style="fill: #0000ff; stroke: #0000ff; stroke-width: 2"/>
     <use xlink:href="#md357e1b840" x="259.434298" y="242.02228" style="fill: #0000ff; stroke: #0000ff; stroke-width: 2"/>
     <use xlink:href="#md357e1b840" x="280.186364" y="256.567935" style="fill: #0000ff; stroke: #0000ff; stroke-width: 2"/>
    </g>
   </g>
   <g id="line2d_21">
    <path d="M 51.913636 51.739401 
L 72.665702 76.274386 
L 93.417769 99.647475 
L 114.169835 121.080232 
L 134.921901 142.829231 
L 155.673967 163.026184 
L 176.426033 181.718833 
L 197.178099 201.422905 
L 217.930165 220.164718 
L 238.682231 239.810351 
L 259.434298 257.803042 
L 280.186364 276.652498 
" clip-path="url(#p9f3b3a4198)" style="fill: none; stroke: #bf00bf; stroke-width: 1.5; stroke-linecap: square"/>
   </g>
   <g id="LineCollection_4">
    <path d="M 51.913636 53.258802 
L 51.913636 50.22 
" clip-path="url(#p9f3b3a4198)" style="fill: none; stroke: #bf00bf; stroke-width: 2"/>
    <path d="M 72.665702 77.401332 
L 72.665702 75.147441 
" clip-path="url(#p9f3b3a4198)" style="fill: none; stroke: #bf00bf; stroke-width: 2"/>
    <path d="M 93.417769 100.42233 
L 93.417769 98.87262 
" clip-path="url(#p9f3b3a4198)" style="fill: none; stroke: #bf00bf; stroke-width: 2"/>
    <path d="M 114.169835 122.562359 
L 114.169835 119.598105 
" clip-path="url(#p9f3b3a4198)" style="fill: none; stroke: #bf00bf; stroke-width: 2"/>
    <path d="M 134.921901 144.440347 
L 134.921901 141.218114 
" clip-path="url(#p9f3b3a4198)" style="fill: none; stroke: #bf00bf; stroke-width: 2"/>
    <path d="M 155.673967 164.364955 
L 155.673967 161.687413 
" clip-path="url(#p9f3b3a4198)" style="fill: none; stroke: #bf00bf; stroke-width: 2"/>
    <path d="M 176.426033 183.020768 
L 176.426033 180.416899 
" clip-path="url(#p9f3b3a4198)" style="fill: none; stroke: #bf00bf; stroke-width: 2"/>
    <path d="M 197.178099 203.541146 
L 197.178099 199.304665 
" clip-path="url(#p9f3b3a4198)" style="fill: none; stroke: #bf00bf; stroke-width: 2"/>
    <path d="M 217.930165 221.345525 
L 217.930165 218.983912 
" clip-path="url(#p9f3b3a4198)" style="fill: none; stroke: #bf00bf; stroke-width: 2"/>
    <path d="M 238.682231 241.189029 
L 238.682231 238.431673 
" clip-path="url(#p9f3b3a4198)" style="fill: none; stroke: #bf00bf; stroke-width: 2"/>
    <path d="M 259.434298 259.259289 
L 259.434298 256.346795 
" clip-path="url(#p9f3b3a4198)" style="fill: none; stroke: #bf00bf; stroke-width: 2"/>
    <path d="M 280.186364 277.02 
L 280.186364 276.284997 
" clip-path="url(#p9f3b3a4198)" style="fill: none; stroke: #bf00bf; stroke-width: 2"/>
   </g>
   <g id="line2d_22">
    <defs>
     <path id="m31b97f5191" d="M 3 0 
L -3 -0 
" style="stroke: #bf00bf; stroke-width: 2"/>
    </defs>
    <g clip-path="url(#p9f3b3a4198)">
     <use xlink:href="#m31b97f5191" x="51.913636" y="53.258802" style="fill: #bf00bf; stroke: #bf00bf; stroke-width: 2"/>
     <use xlink:href="#m31b97f5191" x="72.665702" y="77.401332" style="fill: #bf00bf; stroke: #bf00bf; stroke-width: 2"/>
     <use xlink:href="#m31b97f5191" x="93.417769" y="100.42233" style="fill: #bf00bf; stroke: #bf00bf; stroke-width: 2"/>
     <use xlink:href="#m31b97f5191" x="114.169835" y="122.562359" style="fill: #bf00bf; stroke: #bf00bf; stroke-width: 2"/>
     <use xlink:href="#m31b97f5191" x="134.921901" y="144.440347" style="fill: #bf00bf; stroke: #bf00bf; stroke-width: 2"/>
     <use xlink:href="#m31b97f5191" x="155.673967" y="164.364955" style="fill: #bf00bf; stroke: #bf00bf; stroke-width: 2"/>
     <use xlink:href="#m31b97f5191" x="176.426033" y="183.020768" style="fill: #bf00bf; stroke: #bf00bf; stroke-width: 2"/>
     <use xlink:href="#m31b97f5191" x="197.178099" y="203.541146" style="fill: #bf00bf; stroke: #bf00bf; stroke-width: 2"/>
     <use xlink:href="#m31b97f5191" x="217.930165" y="221.345525" style="fill: #bf00bf; stroke: #bf00bf; stroke-width: 2"/>
     <use xlink:href="#m31b97f5191" x="238.682231" y="241.189029" style="fill: #bf00bf; stroke: #bf00bf; stroke-width: 2"/>
     <use xlink:href="#m31b97f5191" x="259.434298" y="259.259289" style="fill: #bf00bf; stroke: #bf00bf; stroke-width: 2"/>
     <use xlink:href="#m31b97f5191" x="280.186364" y="277.02" style="fill: #bf00bf; stroke: #bf00bf; stroke-width: 2"/>
    </g>
   </g>
   <g id="line2d_23">
    <g clip-path="url(#p9f3b3a4198)">
     <use xlink:href="#m31b97f5191" x="51.913636" y="50.22" style="fill: #bf00bf; stroke: #bf00bf; stroke-width: 2"/>
     <use xlink:href="#m31b97f5191" x="72.665702" y="75.147441" style="fill: #bf00bf; stroke: #bf00bf; stroke-width: 2"/>
     <use xlink:href="#m31b97f5191" x="93.417769" y="98.87262" style="fill: #bf00bf; stroke: #bf00bf; stroke-width: 2"/>
     <use xlink:href="#m31b97f5191" x="114.169835" y="119.598105" style="fill: #bf00bf; stroke: #bf00bf; stroke-width: 2"/>
     <use xlink:href="#m31b97f5191" x="134.921901" y="141.218114" style="fill: #bf00bf; stroke: #bf00bf; stroke-width: 2"/>
     <use xlink:href="#m31b97f5191" x="155.673967" y="161.687413" style="fill: #bf00bf; stroke: #bf00bf; stroke-width: 2"/>
     <use xlink:href="#m31b97f5191" x="176.426033" y="180.416899" style="fill: #bf00bf; stroke: #bf00bf; stroke-width: 2"/>
     <use xlink:href="#m31b97f5191" x="197.178099" y="199.304665" style="fill: #bf00bf; stroke: #bf00bf; stroke-width: 2"/>
     <use xlink:href="#m31b97f5191" x="217.930165" y="218.983912" style="fill: #bf00bf; stroke: #bf00bf; stroke-width: 2"/>
     <use xlink:href="#m31b97f5191" x="238.682231" y="238.431673" style="fill: #bf00bf; stroke: #bf00bf; stroke-width: 2"/>
     <use xlink:href="#m31b97f5191" x="259.434298" y="256.346795" style="fill: #bf00bf; stroke: #bf00bf; stroke-width: 2"/>
     <use xlink:href="#m31b97f5191" x="280.186364" y="276.284997" style="fill: #bf00bf; stroke: #bf00bf; stroke-width: 2"/>
    </g>
   </g>
   <g id="line2d_24">
    <path d="M 51.913636 122.450154 
L 72.665702 131.636763 
L 93.417769 142.561818 
L 114.169835 154.902635 
L 134.921901 167.802793 
L 155.673967 176.411016 
L 176.426033 186.016813 
L 197.178099 197.08299 
L 217.930165 207.136507 
L 238.682231 215.710924 
L 259.434298 225.02255 
L 280.186364 234.418978 
" clip-path="url(#p9f3b3a4198)" style="fill: none; stroke: #ff0000; stroke-width: 1.5; stroke-linecap: square"/>
   </g>
   <g id="line2d_25">
    <path d="M 51.913636 106.626737 
L 72.665702 119.614252 
L 93.417769 135.399563 
L 114.169835 147.717069 
L 134.921901 160.623762 
L 155.673967 175.071236 
L 176.426033 187.966189 
L 197.178099 199.131322 
L 217.930165 212.234841 
L 238.682231 226.740817 
L 259.434298 236.696143 
L 280.186364 248.212299 
" clip-path="url(#p9f3b3a4198)" style="fill: none; stroke: #ffa500; stroke-width: 1.5; stroke-linecap: square"/>
   </g>
   <g id="line2d_26">
    <path d="M 51.913636 87.062055 
L 72.665702 104.385571 
L 93.417769 120.870028 
L 114.169835 136.977798 
L 134.921901 151.691328 
L 155.673967 169.724484 
L 176.426033 186.183286 
L 197.178099 200.16399 
L 217.930165 215.651179 
L 238.682231 229.097334 
L 259.434298 242.958816 
L 280.186364 257.146351 
" clip-path="url(#p9f3b3a4198)" style="fill: none; stroke: #0000ff; stroke-width: 1.5; stroke-linecap: square"/>
   </g>
   <g id="line2d_27">
    <path d="M 51.913636 51.739401 
L 72.665702 76.274386 
L 93.417769 99.647475 
L 114.169835 121.080232 
L 134.921901 142.829231 
L 155.673967 163.026184 
L 176.426033 181.718833 
L 197.178099 201.422905 
L 217.930165 220.164718 
L 238.682231 239.810351 
L 259.434298 257.803042 
L 280.186364 276.652498 
" clip-path="url(#p9f3b3a4198)" style="fill: none; stroke: #bf00bf; stroke-width: 1.5; stroke-linecap: square"/>
   </g>
   <g id="patch_3">
    <path d="M 40.5 288.36 
L 40.5 38.88 
" style="fill: none; stroke: #000000; stroke-width: 1.6; stroke-linejoin: miter; stroke-linecap: square"/>
   </g>
   <g id="patch_4">
    <path d="M 291.6 288.36 
L 291.6 38.88 
" style="fill: none; stroke: #000000; stroke-width: 1.6; stroke-linejoin: miter; stroke-linecap: square"/>
   </g>
   <g id="patch_5">
    <path d="M 40.5 288.36 
L 291.6 288.36 
" style="fill: none; stroke: #000000; stroke-width: 1.6; stroke-linejoin: miter; stroke-linecap: square"/>
   </g>
   <g id="patch_6">
    <path d="M 40.5 38.88 
L 291.6 38.88 
" style="fill: none; stroke: #000000; stroke-width: 1.6; stroke-linejoin: miter; stroke-linecap: square"/>
   </g>
   <g id="legend_1">
    <g id="patch_7">
     <path d="M 209.120625 118.935 
L 283.2 118.935 
Q 285.6 118.935 285.6 116.535 
L 285.6 47.28 
Q 285.6 44.88 283.2 44.88 
L 209.120625 44.88 
Q 206.720625 44.88 206.720625 47.28 
L 206.720625 116.535 
Q 206.720625 118.935 209.120625 118.935 
z
" style="fill: #ffffff; opacity: 0.8"/>
    </g>
    <g id="LineCollection_5">
     <path d="M 223.520625 60.598125 
L 223.520625 48.598125 
" style="fill: none; stroke: #ff0000; stroke-width: 2"/>
    </g>
    <g id="line2d_28">
     <g>
      <use xlink:href="#m5ba9dedd7d" x="223.520625" y="60.598125" style="fill: #ff0000; stroke: #ff0000; stroke-width: 2"/>
     </g>
    </g>
    <g id="line2d_29">
     <g>
      <use xlink:href="#m5ba9dedd7d" x="223.520625" y="48.598125" style="fill: #ff0000; stroke: #ff0000; stroke-width: 2"/>
     </g>
    </g>
    <g id="line2d_30">
     <path d="M 211.520625 54.598125 
L 235.520625 54.598125 
" style="fill: none; stroke: #ff0000; stroke-width: 1.5; stroke-linecap: square"/>
    </g>
    <g id="line2d_31"/>
    <g id="text_12">
     <!-- M=4 -->
     <g transform="translate(245.120625 58.798125) scale(0.12 -0.12)">
      <defs>
       <path id="DejaVuSans-4d" d="M 628 4666 
L 1569 4666 
L 2759 1491 
L 3956 4666 
L 4897 4666 
L 4897 0 
L 4281 0 
L 4281 4097 
L 3078 897 
L 2444 897 
L 1241 4097 
L 1241 0 
L 628 0 
L 628 4666 
z
" transform="scale(0.015625)"/>
       <path id="DejaVuSans-3d" d="M 678 2906 
L 4684 2906 
L 4684 2381 
L 678 2381 
L 678 2906 
z
M 678 1631 
L 4684 1631 
L 4684 1100 
L 678 1100 
L 678 1631 
z
" transform="scale(0.015625)"/>
      </defs>
      <use xlink:href="#DejaVuSans-4d"/>
      <use xlink:href="#DejaVuSans-3d" x="86.279297"/>
      <use xlink:href="#DejaVuSans-34" x="170.068359"/>
     </g>
    </g>
    <g id="LineCollection_6">
     <path d="M 223.520625 78.211875 
L 223.520625 66.211875 
" style="fill: none; stroke: #ffa500; stroke-width: 2"/>
    </g>
    <g id="line2d_32">
     <g>
      <use xlink:href="#ma67eee4d9b" x="223.520625" y="78.211875" style="fill: #ffa500; stroke: #ffa500; stroke-width: 2"/>
     </g>
    </g>
    <g id="line2d_33">
     <g>
      <use xlink:href="#ma67eee4d9b" x="223.520625" y="66.211875" style="fill: #ffa500; stroke: #ffa500; stroke-width: 2"/>
     </g>
    </g>
    <g id="line2d_34">
     <path d="M 211.520625 72.211875 
L 235.520625 72.211875 
" style="fill: none; stroke: #ffa500; stroke-width: 1.5; stroke-linecap: square"/>
    </g>
    <g id="line2d_35"/>
    <g id="text_13">
     <!-- M=6 -->
     <g transform="translate(245.120625 76.411875) scale(0.12 -0.12)">
      <use xlink:href="#DejaVuSans-4d"/>
      <use xlink:href="#DejaVuSans-3d" x="86.279297"/>
      <use xlink:href="#DejaVuSans-36" x="170.068359"/>
     </g>
    </g>
    <g id="LineCollection_7">
     <path d="M 223.520625 95.825625 
L 223.520625 83.825625 
" style="fill: none; stroke: #0000ff; stroke-width: 2"/>
    </g>
    <g id="line2d_36">
     <g>
      <use xlink:href="#md357e1b840" x="223.520625" y="95.825625" style="fill: #0000ff; stroke: #0000ff; stroke-width: 2"/>
     </g>
    </g>
    <g id="line2d_37">
     <g>
      <use xlink:href="#md357e1b840" x="223.520625" y="83.825625" style="fill: #0000ff; stroke: #0000ff; stroke-width: 2"/>
     </g>
    </g>
    <g id="line2d_38">
     <path d="M 211.520625 89.825625 
L 235.520625 89.825625 
" style="fill: none; stroke: #0000ff; stroke-width: 1.5; stroke-linecap: square"/>
    </g>
    <g id="line2d_39"/>
    <g id="text_14">
     <!-- M=8 -->
     <g transform="translate(245.120625 94.025625) scale(0.12 -0.12)">
      <use xlink:href="#DejaVuSans-4d"/>
      <use xlink:href="#DejaVuSans-3d" x="86.279297"/>
      <use xlink:href="#DejaVuSans-38" x="170.068359"/>
     </g>
    </g>
    <g id="LineCollection_8">
     <path d="M 223.520625 113.439375 
L 223.520625 101.439375 
" style="fill: none; stroke: #bf00bf; stroke-width: 2"/>
    </g>
    <g id="line2d_40">
     <g>
      <use xlink:href="#m31b97f5191" x="223.520625" y="113.439375" style="fill: #bf00bf; stroke: #bf00bf; stroke-width: 2"/>
     </g>
    </g>
    <g id="line2d_41">
     <g>
      <use xlink:href="#m31b97f5191" x="223.520625" y="101.439375" style="fill: #bf00bf; stroke: #bf00bf; stroke-width: 2"/>
     </g>
    </g>
    <g id="line2d_42">
     <path d="M 211.520625 107.439375 
L 235.520625 107.439375 
" style="fill: none; stroke: #bf00bf; stroke-width: 1.5; stroke-linecap: square"/>
    </g>
    <g id="line2d_43"/>
    <g id="text_15">
     <!-- M=12 -->
     <g transform="translate(245.120625 111.639375) scale(0.12 -0.12)">
      <defs>
       <path id="DejaVuSans-31" d="M 794 531 
L 1825 531 
L 1825 4091 
L 703 3866 
L 703 4441 
L 1819 4666 
L 2450 4666 
L 2450 531 
L 3481 531 
L 3481 0 
L 794 0 
L 794 531 
z
" transform="scale(0.015625)"/>
      </defs>
      <use xlink:href="#DejaVuSans-4d"/>
      <use xlink:href="#DejaVuSans-3d" x="86.279297"/>
      <use xlink:href="#DejaVuSans-31" x="170.068359"/>
      <use xlink:href="#DejaVuSans-32" x="233.691406"/>
     </g>
    </g>
   </g>
  </g>
 </g>
 <defs>
  <clipPath id="p9f3b3a4198">
   <rect x="40.5" y="38.88" width="251.1" height="249.48"/>
  </clipPath>
 </defs>
</svg>
