<?xml version="1.0" encoding="utf-8" standalone="no"?>
<!DOCTYPE svg PUBLIC "-//W3C//DTD SVG 1.1//EN"
  "http://www.w3.org/Graphics/SVG/1.1/DTD/svg11.dtd">
<svg xmlns:xlink="http://www.w3.org/1999/xlink" width="324pt" height="324pt" viewBox="0 0 324 324" xmlns="http://www.w3.org/2000/svg" version="1.1">
 <metadata>
  <rdf:RDF xmlns:dc="http://purl.org/dc/elements/1.1/" xmlns:cc="http://creativecommons.org/ns#" xmlns:rdf="http://www.w3.org/1999/02/22-rdf-syntax-ns#">
   <cc:Work>
    <dc:type rdf:resource="http://purl.org/dc/dcmitype/StillImage"/>
    <dc:date>2026-01-11T17:06:25.299888</dc:date>
    <dc:format>image/svg+xml</dc:format>
    <dc:creator>
     <cc:Agent>
      <dc:title>Matplotlib v3.8.0, https://matplotlib.org/</dc:title>
     </cc:Agent>
    </dc:creator>
   </cc:Work>
  </rdf:RDF>
 </metadata>
 <defs>
  <style type="text/css">*{stroke-linejoin: round; stroke-linecap: butt}</style>
 </defs>
 <g id="figure_1">
  <g id="patch_1">
   <path d="M 0 324 
L 324 324 
L 324 0 
L 0 0 
z
" style="fill: #ffffff"/>
  </g>
  <g id="axes_1">
   <g id="patch_2">
    <path d="M 40.5 288.36 
L 291.6 288.36 
L 291.6 38.88 
L 40.5 38.88 
z
" style="fill: #ffffff"/>
   </g>
   <g id="matplotlib.axis_1">
    <g id="xtick_1">
     <g id="line2d_1">
      <defs>
       <path id="m07a81bafc5" d="M 0 0 
L 0 8 
" style="stroke: #000000; stroke-width: 1.5"/>
      </defs>
      <g>
       <use xlink:href="#m07a81bafc5" x="60.066234" y="288.36" style="stroke: #000000; stroke-width: 1.5"/>
      </g>
     </g>
     <g id="text_1">
      <!-- 6.5 -->
      <g transform="translate(50.524359 308.978125) scale(0.12 -0.12)">
       <defs>
        <path id="DejaVuSans-36" d="M 2113 2584 
Q 1688 2584 1439 2293 
Q 1191 2003 1191 1497 
Q 1191 994 1439 701 
Q 1688 409 2113 409 
Q 2538 409 2786 701 
Q 3034 994 3034 1497 
Q 3034 2003 2786 2293 
Q 2538 2584 2113 2584 
z
M 3366 4563 
L 3366 3988 
Q 3128 4100 2886 4159 
Q 2644 4219 2406 4219 
Q 1781 4219 1451 3797 
Q 1122 3375 1075 2522 
Q 1259 2794 1537 2939 
Q 1816 3084 2150 3084 
Q 2853 3084 3261 2657 
Q 3669 2231 3669 1497 
Q 3669 778 3244 343 
Q 2819 -91 2113 -91 
Q 1303 -91 875 529 
Q 447 1150 447 2328 
Q 447 3434 972 4092 
Q 1497 4750 2381 4750 
Q 2619 4750 2861 4703 
Q 3103 4656 3366 4563 
z
" transform="scale(0.015625)"/>
        <path id="DejaVuSans-2e" d="M 684 794 
L 1344 794 
L 1344 0 
L 684 0 
L 684 794 
z
" transform="scale(0.015625)"/>
        <path id="DejaVuSans-35" d="M 691 4666 
L 3169 4666 
L 3169 4134 
L 1269 4134 
L 1269 2991 
Q 1406 3038 1543 3061 
Q 1681 3084 1819 3084 
Q 2600 3084 3056 2656 
Q 3513 2228 3513 1497 
Q 3513 744 3044 326 
Q 2575 -91 1722 -91 
Q 1428 -91 1123 -41 
Q 819 9 494 109 
L 494 744 
Q 775 591 1075 516 
Q 1375 441 1709 441 
Q 2250 441 2565 725 
Q 2881 1009 2881 1497 
Q 2881 1984 2565 2268 
Q 2250 2553 1709 2553 
Q 1456 2553 1204 2497 
Q 953 2441 691 2322 
L 691 4666 
z
" transform="scale(0.015625)"/>
       </defs>
       <use xlink:href="#DejaVuSans-36"/>
       <use xlink:href="#DejaVuSans-2e" x="63.623047"/>
       <use xlink:href="#DejaVuSans-35" x="95.410156"/>
      </g>
     </g>
    </g>
    <g id="xtick_2">
     <g id="line2d_2">
      <g>
       <use xlink:href="#m07a81bafc5" x="100.829221" y="288.36" style="stroke: #000000; stroke-width: 1.5"/>
      </g>
     </g>
     <g id="text_2">
      <!-- 7.0 -->
      <g transform="translate(91.287346 308.978125) scale(0.12 -0.12)">
       <defs>
        <path id="DejaVuSans-37" d="M 525 4666 
L 3525 4666 
L 3525 4397 
L 1831 0 
L 1172 0 
L 2766 4134 
L 525 4134 
L 525 4666 
z
" transform="scale(0.015625)"/>
        <path id="DejaVuSans-30" d="M 2034 4250 
Q 1547 4250 1301 3770 
Q 1056 3291 1056 2328 
Q 1056 1369 1301 889 
Q 1547 409 2034 409 
Q 2525 409 2770 889 
Q 3016 1369 3016 2328 
Q 3016 3291 2770 3770 
Q 2525 4250 2034 4250 
z
M 2034 4750 
Q 2819 4750 3233 4129 
Q 3647 3509 3647 2328 
Q 3647 1150 3233 529 
Q 2819 -91 2034 -91 
Q 1250 -91 836 529 
Q 422 1150 422 2328 
Q 422 3509 836 4129 
Q 1250 4750 2034 4750 
z
" transform="scale(0.015625)"/>
       </defs>
       <use xlink:href="#DejaVuSans-37"/>
       <use xlink:href="#DejaVuSans-2e" x="63.623047"/>
       <use xlink:href="#DejaVuSans-30" x="95.410156"/>
      </g>
     </g>
    </g>
    <g id="xtick_3">
     <g id="line2d_3">
      <g>
       <use xlink:href="#m07a81bafc5" x="141.592208" y="288.36" style="stroke: #000000; stroke-width: 1.5"/>
      </g>
     </g>
     <g id="text_3">
      <!-- 7.5 -->
      <g transform="translate(132.050333 308.978125) scale(0.12 -0.12)">
       <use xlink:href="#DejaVuSans-37"/>
       <use xlink:href="#DejaVuSans-2e" x="63.623047"/>
       <use xlink:href="#DejaVuSans-35" x="95.410156"/>
      </g>
     </g>
    </g>
    <g id="xtick_4">
     <g id="line2d_4">
      <g>
       <use xlink:href="#m07a81bafc5" x="182.355195" y="288.36" style="stroke: #000000; stroke-width: 1.5"/>
      </g>
     </g>
     <g id="text_4">
      <!-- 8.0 -->
      <g transform="translate(172.81332 308.978125) scale(0.12 -0.12)">
       <defs>
        <path id="DejaVuSans-38" d="M 2034 2216 
Q 1584 2216 1326 1975 
Q 1069 1734 1069 1313 
Q 1069 891 1326 650 
Q 1584 409 2034 409 
Q 2484 409 2743 651 
Q 3003 894 3003 1313 
Q 3003 1734 2745 1975 
Q 2488 2216 2034 2216 
z
M 1403 2484 
Q 997 2584 770 2862 
Q 544 3141 544 3541 
Q 544 4100 942 4425 
Q 1341 4750 2034 4750 
Q 2731 4750 3128 4425 
Q 3525 4100 3525 3541 
Q 3525 3141 3298 2862 
Q 3072 2584 2669 2484 
Q 3125 2378 3379 2068 
Q 3634 1759 3634 1313 
Q 3634 634 3220 271 
Q 2806 -91 2034 -91 
Q 1263 -91 848 271 
Q 434 634 434 1313 
Q 434 1759 690 2068 
Q 947 2378 1403 2484 
z
M 1172 3481 
Q 1172 3119 1398 2916 
Q 1625 2713 2034 2713 
Q 2441 2713 2670 2916 
Q 2900 3119 2900 3481 
Q 2900 3844 2670 4047 
Q 2441 4250 2034 4250 
Q 1625 4250 1398 4047 
Q 1172 3844 1172 3481 
z
" transform="scale(0.015625)"/>
       </defs>
       <use xlink:href="#DejaVuSans-38"/>
       <use xlink:href="#DejaVuSans-2e" x="63.623047"/>
       <use xlink:href="#DejaVuSans-30" x="95.410156"/>
      </g>
     </g>
    </g>
    <g id="xtick_5">
     <g id="line2d_5">
      <g>
       <use xlink:href="#m07a81bafc5" x="223.118182" y="288.36" style="stroke: #000000; stroke-width: 1.5"/>
      </g>
     </g>
     <g id="text_5">
      <!-- 8.5 -->
      <g transform="translate(213.576307 308.978125) scale(0.12 -0.12)">
       <use xlink:href="#DejaVuSans-38"/>
       <use xlink:href="#DejaVuSans-2e" x="63.623047"/>
       <use xlink:href="#DejaVuSans-35" x="95.410156"/>
      </g>
     </g>
    </g>
    <g id="xtick_6">
     <g id="line2d_6">
      <g>
       <use xlink:href="#m07a81bafc5" x="263.881169" y="288.36" style="stroke: #000000; stroke-width: 1.5"/>
      </g>
     </g>
     <g id="text_6">
      <!-- 9.0 -->
      <g transform="translate(254.339294 308.978125) scale(0.12 -0.12)">
       <defs>
        <path id="DejaVuSans-39" d="M 703 97 
L 703 672 
Q 941 559 1184 500 
Q 1428 441 1663 441 
Q 2288 441 2617 861 
Q 2947 1281 2994 2138 
Q 2813 1869 2534 1725 
Q 2256 1581 1919 1581 
Q 1219 1581 811 2004 
Q 403 2428 403 3163 
Q 403 3881 828 4315 
Q 1253 4750 1959 4750 
Q 2769 4750 3195 4129 
Q 3622 3509 3622 2328 
Q 3622 1225 3098 567 
Q 2575 -91 1691 -91 
Q 1453 -91 1209 -44 
Q 966 3 703 97 
z
M 1959 2075 
Q 2384 2075 2632 2365 
Q 2881 2656 2881 3163 
Q 2881 3666 2632 3958 
Q 2384 4250 1959 4250 
Q 1534 4250 1286 3958 
Q 1038 3666 1038 3163 
Q 1038 2656 1286 2365 
Q 1534 2075 1959 2075 
z
" transform="scale(0.015625)"/>
       </defs>
       <use xlink:href="#DejaVuSans-39"/>
       <use xlink:href="#DejaVuSans-2e" x="63.623047"/>
       <use xlink:href="#DejaVuSans-30" x="95.410156"/>
      </g>
     </g>
    </g>
   </g>
   <g id="matplotlib.axis_2">
    <g id="ytick_1">
     <g id="line2d_7">
      <defs>
       <path id="mfcd7e369da" d="M 0 0 
L -8 0 
" style="stroke: #000000; stroke-width: 1.5"/>
      </defs>
      <g>
       <use xlink:href="#mfcd7e369da" x="40.5" y="288.36" style="stroke: #000000; stroke-width: 1.5"/>
      </g>
     </g>
     <g id="text_7">
      <!-- 0.0 -->
      <g transform="translate(9.91625 292.919062) scale(0.12 -0.12)">
       <use xlink:href="#DejaVuSans-30"/>
       <use xlink:href="#DejaVuSans-2e" x="63.623047"/>
       <use xlink:href="#DejaVuSans-30" x="95.410156"/>
      </g>
     </g>
    </g>
    <g id="ytick_2">
     <g id="line2d_8">
      <g>
       <use xlink:href="#mfcd7e369da" x="40.5" y="210.608768" style="stroke: #000000; stroke-width: 1.5"/>
      </g>
     </g>
     <g id="text_8">
      <!-- 0.4 -->
      <g transform="translate(9.91625 215.16783) scale(0.12 -0.12)">
       <defs>
        <path id="DejaVuSans-34" d="M 2419 4116 
L 825 1625 
L 2419 1625 
L 2419 4116 
z
M 2253 4666 
L 3047 4666 
L 3047 1625 
L 3713 1625 
L 3713 1100 
L 3047 1100 
L 3047 0 
L 2419 0 
L 2419 1100 
L 313 1100 
L 313 1709 
L 2253 4666 
z
" transform="scale(0.015625)"/>
       </defs>
       <use xlink:href="#DejaVuSans-30"/>
       <use xlink:href="#DejaVuSans-2e" x="63.623047"/>
       <use xlink:href="#DejaVuSans-34" x="95.410156"/>
      </g>
     </g>
    </g>
    <g id="ytick_3">
     <g id="line2d_9">
      <g>
       <use xlink:href="#mfcd7e369da" x="40.5" y="132.857535" style="stroke: #000000; stroke-width: 1.5"/>
      </g>
     </g>
     <g id="text_9">
      <!-- 0.8 -->
      <g transform="translate(9.91625 137.416598) scale(0.12 -0.12)">
       <use xlink:href="#DejaVuSans-30"/>
       <use xlink:href="#DejaVuSans-2e" x="63.623047"/>
       <use xlink:href="#DejaVuSans-38" x="95.410156"/>
      </g>
     </g>
    </g>
    <g id="ytick_4">
     <g id="line2d_10">
      <g>
       <use xlink:href="#mfcd7e369da" x="40.5" y="55.106303" style="stroke: #000000; stroke-width: 1.5"/>
      </g>
     </g>
     <g id="text_10">
      <!-- 1.2 -->
      <g transform="translate(9.91625 59.665365) scale(0.12 -0.12)">
       <defs>
        <path id="DejaVuSans-31" d="M 794 531 
L 1825 531 
L 1825 4091 
L 703 3866 
L 703 4441 
L 1819 4666 
L 2450 4666 
L 2450 531 
L 3481 531 
L 3481 0 
L 794 0 
L 794 531 
z
" transform="scale(0.015625)"/>
        <path id="DejaVuSans-32" d="M 1228 531 
L 3431 531 
L 3431 0 
L 469 0 
L 469 531 
Q 828 903 1448 1529 
Q 2069 2156 2228 2338 
Q 2531 2678 2651 2914 
Q 2772 3150 2772 3378 
Q 2772 3750 2511 3984 
Q 2250 4219 1831 4219 
Q 1534 4219 1204 4116 
Q 875 4013 500 3803 
L 500 4441 
Q 881 4594 1212 4672 
Q 1544 4750 1819 4750 
Q 2544 4750 2975 4387 
Q 3406 4025 3406 3419 
Q 3406 3131 3298 2873 
Q 3191 2616 2906 2266 
Q 2828 2175 2409 1742 
Q 1991 1309 1228 531 
z
" transform="scale(0.015625)"/>
       </defs>
       <use xlink:href="#DejaVuSans-31"/>
       <use xlink:href="#DejaVuSans-2e" x="63.623047"/>
       <use xlink:href="#DejaVuSans-32" x="95.410156"/>
      </g>
     </g>
    </g>
   </g>
   <g id="line2d_11">
    <path d="M 51.913636 95.106657 
L 68.218831 95.533532 
L 84.524026 99.064983 
L 100.829221 107.738044 
L 117.134416 122.450185 
L 133.43961 141.462616 
L 149.744805 161.759759 
L 166.05 183.32262 
L 182.355195 204.068047 
L 198.66039 220.967106 
L 214.965584 237.163308 
L 231.270779 251.936981 
L 247.575974 260.481744 
L 263.881169 264.715118 
L 280.186364 267.111102 
" clip-path="url(#p4fc083fc33)" style="fill: none; stroke: #ff0000; stroke-width: 1.5; stroke-linecap: square"/>
   </g>
   <g id="LineCollection_1">
    <path d="M 51.913636 95.694585 
L 51.913636 94.518729 
" clip-path="url(#p4fc083fc33)" style="fill: none; stroke: #ff0000; stroke-width: 2"/>
    <path d="M 68.218831 95.719633 
L 68.218831 95.347431 
" clip-path="url(#p4fc083fc33)" style="fill: none; stroke: #ff0000; stroke-width: 2"/>
    <path d="M 84.524026 99.639658 
L 84.524026 98.490308 
" clip-path="url(#p4fc083fc33)" style="fill: none; stroke: #ff0000; stroke-width: 2"/>
    <path d="M 100.829221 108.518428 
L 100.829221 106.957659 
" clip-path="url(#p4fc083fc33)" style="fill: none; stroke: #ff0000; stroke-width: 2"/>
    <path d="M 117.134416 122.854549 
L 117.134416 122.045821 
" clip-path="url(#p4fc083fc33)" style="fill: none; stroke: #ff0000; stroke-width: 2"/>
    <path d="M 133.43961 141.996901 
L 133.43961 140.928332 
" clip-path="url(#p4fc083fc33)" style="fill: none; stroke: #ff0000; stroke-width: 2"/>
    <path d="M 149.744805 161.951477 
L 149.744805 161.568041 
" clip-path="url(#p4fc083fc33)" style="fill: none; stroke: #ff0000; stroke-width: 2"/>
    <path d="M 166.05 183.495133 
L 166.05 183.150107 
" clip-path="url(#p4fc083fc33)" style="fill: none; stroke: #ff0000; stroke-width: 2"/>
    <path d="M 182.355195 204.266482 
L 182.355195 203.869612 
" clip-path="url(#p4fc083fc33)" style="fill: none; stroke: #ff0000; stroke-width: 2"/>
    <path d="M 198.66039 221.113569 
L 198.66039 220.820642 
" clip-path="url(#p4fc083fc33)" style="fill: none; stroke: #ff0000; stroke-width: 2"/>
    <path d="M 214.965584 237.209393 
L 214.965584 237.117224 
" clip-path="url(#p4fc083fc33)" style="fill: none; stroke: #ff0000; stroke-width: 2"/>
    <path d="M 231.270779 251.948491 
L 231.270779 251.925471 
" clip-path="url(#p4fc083fc33)" style="fill: none; stroke: #ff0000; stroke-width: 2"/>
    <path d="M 247.575974 260.490943 
L 247.575974 260.472545 
" clip-path="url(#p4fc083fc33)" style="fill: none; stroke: #ff0000; stroke-width: 2"/>
    <path d="M 263.881169 264.719492 
L 263.881169 264.710743 
" clip-path="url(#p4fc083fc33)" style="fill: none; stroke: #ff0000; stroke-width: 2"/>
    <path d="M 280.186364 267.114931 
L 280.186364 267.107272 
" clip-path="url(#p4fc083fc33)" style="fill: none; stroke: #ff0000; stroke-width: 2"/>
   </g>
   <g id="line2d_12">
    <defs>
     <path id="m39cc4d8ca4" d="M 3 0 
L -3 -0 
" style="stroke: #ff0000; stroke-width: 2"/>
    </defs>
    <g clip-path="url(#p4fc083fc33)">
     <use xlink:href="#m39cc4d8ca4" x="51.913636" y="95.694585" style="fill: #ff0000; stroke: #ff0000; stroke-width: 2"/>
     <use xlink:href="#m39cc4d8ca4" x="68.218831" y="95.719633" style="fill: #ff0000; stroke: #ff0000; stroke-width: 2"/>
     <use xlink:href="#m39cc4d8ca4" x="84.524026" y="99.639658" style="fill: #ff0000; stroke: #ff0000; stroke-width: 2"/>
     <use xlink:href="#m39cc4d8ca4" x="100.829221" y="108.518428" style="fill: #ff0000; stroke: #ff0000; stroke-width: 2"/>
     <use xlink:href="#m39cc4d8ca4" x="117.134416" y="122.854549" style="fill: #ff0000; stroke: #ff0000; stroke-width: 2"/>
     <use xlink:href="#m39cc4d8ca4" x="133.43961" y="141.996901" style="fill: #ff0000; stroke: #ff0000; stroke-width: 2"/>
     <use xlink:href="#m39cc4d8ca4" x="149.744805" y="161.951477" style="fill: #ff0000; stroke: #ff0000; stroke-width: 2"/>
     <use xlink:href="#m39cc4d8ca4" x="166.05" y="183.495133" style="fill: #ff0000; stroke: #ff0000; stroke-width: 2"/>
     <use xlink:href="#m39cc4d8ca4" x="182.355195" y="204.266482" style="fill: #ff0000; stroke: #ff0000; stroke-width: 2"/>
     <use xlink:href="#m39cc4d8ca4" x="198.66039" y="221.113569" style="fill: #ff0000; stroke: #ff0000; stroke-width: 2"/>
     <use xlink:href="#m39cc4d8ca4" x="214.965584" y="237.209393" style="fill: #ff0000; stroke: #ff0000; stroke-width: 2"/>
     <use xlink:href="#m39cc4d8ca4" x="231.270779" y="251.948491" style="fill: #ff0000; stroke: #ff0000; stroke-width: 2"/>
     <use xlink:href="#m39cc4d8ca4" x="247.575974" y="260.490943" style="fill: #ff0000; stroke: #ff0000; stroke-width: 2"/>
     <use xlink:href="#m39cc4d8ca4" x="263.881169" y="264.719492" style="fill: #ff0000; stroke: #ff0000; stroke-width: 2"/>
     <use xlink:href="#m39cc4d8ca4" x="280.186364" y="267.114931" style="fill: #ff0000; stroke: #ff0000; stroke-width: 2"/>
    </g>
   </g>
   <g id="line2d_13">
    <g clip-path="url(#p4fc083fc33)">
     <use xlink:href="#m39cc4d8ca4" x="51.913636" y="94.518729" style="fill: #ff0000; stroke: #ff0000; stroke-width: 2"/>
     <use xlink:href="#m39cc4d8ca4" x="68.218831" y="95.347431" style="fill: #ff0000; stroke: #ff0000; stroke-width: 2"/>
     <use xlink:href="#m39cc4d8ca4" x="84.524026" y="98.490308" style="fill: #ff0000; stroke: #ff0000; stroke-width: 2"/>
     <use xlink:href="#m39cc4d8ca4" x="100.829221" y="106.957659" style="fill: #ff0000; stroke: #ff0000; stroke-width: 2"/>
     <use xlink:href="#m39cc4d8ca4" x="117.134416" y="122.045821" style="fill: #ff0000; stroke: #ff0000; stroke-width: 2"/>
     <use xlink:href="#m39cc4d8ca4" x="133.43961" y="140.928332" style="fill: #ff0000; stroke: #ff0000; stroke-width: 2"/>
     <use xlink:href="#m39cc4d8ca4" x="149.744805" y="161.568041" style="fill: #ff0000; stroke: #ff0000; stroke-width: 2"/>
     <use xlink:href="#m39cc4d8ca4" x="166.05" y="183.150107" style="fill: #ff0000; stroke: #ff0000; stroke-width: 2"/>
     <use xlink:href="#m39cc4d8ca4" x="182.355195" y="203.869612" style="fill: #ff0000; stroke: #ff0000; stroke-width: 2"/>
     <use xlink:href="#m39cc4d8ca4" x="198.66039" y="220.820642" style="fill: #ff0000; stroke: #ff0000; stroke-width: 2"/>
     <use xlink:href="#m39cc4d8ca4" x="214.965584" y="237.117224" style="fill: #ff0000; stroke: #ff0000; stroke-width: 2"/>
     <use xlink:href="#m39cc4d8ca4" x="231.270779" y="251.925471" style="fill: #ff0000; stroke: #ff0000; stroke-width: 2"/>
     <use xlink:href="#m39cc4d8ca4" x="247.575974" y="260.472545" style="fill: #ff0000; stroke: #ff0000; stroke-width: 2"/>
     <use xlink:href="#m39cc4d8ca4" x="263.881169" y="264.710743" style="fill: #ff0000; stroke: #ff0000; stroke-width: 2"/>
     <use xlink:href="#m39cc4d8ca4" x="280.186364" y="267.107272" style="fill: #ff0000; stroke: #ff0000; stroke-width: 2"/>
    </g>
   </g>
   <g id="line2d_14">
    <path d="M 51.913636 80.573813 
L 68.218831 81.146054 
L 84.524026 86.59831 
L 100.829221 98.690869 
L 117.134416 114.333828 
L 133.43961 134.007025 
L 149.744805 157.232759 
L 166.05 181.949118 
L 182.355195 206.53772 
L 198.66039 228.123396 
L 214.965584 245.510698 
L 231.270779 258.29207 
L 247.575974 265.606672 
L 263.881169 269.232551 
L 280.186364 271.253873 
" clip-path="url(#p4fc083fc33)" style="fill: none; stroke: #000000; stroke-width: 1.5; stroke-linecap: square"/>
   </g>
   <g id="LineCollection_2">
    <path d="M 51.913636 81.041129 
L 51.913636 80.106498 
" clip-path="url(#p4fc083fc33)" style="fill: none; stroke: #000000; stroke-width: 2"/>
    <path d="M 68.218831 81.460293 
L 68.218831 80.831815 
" clip-path="url(#p4fc083fc33)" style="fill: none; stroke: #000000; stroke-width: 2"/>
    <path d="M 84.524026 87.336737 
L 84.524026 85.859882 
" clip-path="url(#p4fc083fc33)" style="fill: none; stroke: #000000; stroke-width: 2"/>
    <path d="M 100.829221 99.054658 
L 100.829221 98.327079 
" clip-path="url(#p4fc083fc33)" style="fill: none; stroke: #000000; stroke-width: 2"/>
    <path d="M 117.134416 115.343101 
L 117.134416 113.324554 
" clip-path="url(#p4fc083fc33)" style="fill: none; stroke: #000000; stroke-width: 2"/>
    <path d="M 133.43961 134.404061 
L 133.43961 133.60999 
" clip-path="url(#p4fc083fc33)" style="fill: none; stroke: #000000; stroke-width: 2"/>
    <path d="M 149.744805 157.615435 
L 149.744805 156.850083 
" clip-path="url(#p4fc083fc33)" style="fill: none; stroke: #000000; stroke-width: 2"/>
    <path d="M 166.05 182.220074 
L 166.05 181.678162 
" clip-path="url(#p4fc083fc33)" style="fill: none; stroke: #000000; stroke-width: 2"/>
    <path d="M 182.355195 206.609763 
L 182.355195 206.465677 
" clip-path="url(#p4fc083fc33)" style="fill: none; stroke: #000000; stroke-width: 2"/>
    <path d="M 198.66039 228.166828 
L 198.66039 228.079964 
" clip-path="url(#p4fc083fc33)" style="fill: none; stroke: #000000; stroke-width: 2"/>
    <path d="M 214.965584 245.557162 
L 214.965584 245.464233 
" clip-path="url(#p4fc083fc33)" style="fill: none; stroke: #000000; stroke-width: 2"/>
    <path d="M 231.270779 258.315354 
L 231.270779 258.268786 
" clip-path="url(#p4fc083fc33)" style="fill: none; stroke: #000000; stroke-width: 2"/>
    <path d="M 247.575974 265.61969 
L 247.575974 265.593654 
" clip-path="url(#p4fc083fc33)" style="fill: none; stroke: #000000; stroke-width: 2"/>
    <path d="M 263.881169 269.236557 
L 263.881169 269.228545 
" clip-path="url(#p4fc083fc33)" style="fill: none; stroke: #000000; stroke-width: 2"/>
    <path d="M 280.186364 271.257177 
L 280.186364 271.250568 
" clip-path="url(#p4fc083fc33)" style="fill: none; stroke: #000000; stroke-width: 2"/>
   </g>
   <g id="line2d_15">
    <defs>
     <path id="m4d6a7aafe1" d="M 3 0 
L -3 -0 
" style="stroke: #000000; stroke-width: 2"/>
    </defs>
    <g clip-path="url(#p4fc083fc33)">
     <use xlink:href="#m4d6a7aafe1" x="51.913636" y="81.041129" style="stroke: #000000; stroke-width: 2"/>
     <use xlink:href="#m4d6a7aafe1" x="68.218831" y="81.460293" style="stroke: #000000; stroke-width: 2"/>
     <use xlink:href="#m4d6a7aafe1" x="84.524026" y="87.336737" style="stroke: #000000; stroke-width: 2"/>
     <use xlink:href="#m4d6a7aafe1" x="100.829221" y="99.054658" style="stroke: #000000; stroke-width: 2"/>
     <use xlink:href="#m4d6a7aafe1" x="117.134416" y="115.343101" style="stroke: #000000; stroke-width: 2"/>
     <use xlink:href="#m4d6a7aafe1" x="133.43961" y="134.404061" style="stroke: #000000; stroke-width: 2"/>
     <use xlink:href="#m4d6a7aafe1" x="149.744805" y="157.615435" style="stroke: #000000; stroke-width: 2"/>
     <use xlink:href="#m4d6a7aafe1" x="166.05" y="182.220074" style="stroke: #000000; stroke-width: 2"/>
     <use xlink:href="#m4d6a7aafe1" x="182.355195" y="206.609763" style="stroke: #000000; stroke-width: 2"/>
     <use xlink:href="#m4d6a7aafe1" x="198.66039" y="228.166828" style="stroke: #000000; stroke-width: 2"/>
     <use xlink:href="#m4d6a7aafe1" x="214.965584" y="245.557162" style="stroke: #000000; stroke-width: 2"/>
     <use xlink:href="#m4d6a7aafe1" x="231.270779" y="258.315354" style="stroke: #000000; stroke-width: 2"/>
     <use xlink:href="#m4d6a7aafe1" x="247.575974" y="265.61969" style="stroke: #000000; stroke-width: 2"/>
     <use xlink:href="#m4d6a7aafe1" x="263.881169" y="269.236557" style="stroke: #000000; stroke-width: 2"/>
     <use xlink:href="#m4d6a7aafe1" x="280.186364" y="271.257177" style="stroke: #000000; stroke-width: 2"/>
    </g>
   </g>
   <g id="line2d_16">
    <g clip-path="url(#p4fc083fc33)">
     <use xlink:href="#m4d6a7aafe1" x="51.913636" y="80.106498" style="stroke: #000000; stroke-width: 2"/>
     <use xlink:href="#m4d6a7aafe1" x="68.218831" y="80.831815" style="stroke: #000000; stroke-width: 2"/>
     <use xlink:href="#m4d6a7aafe1" x="84.524026" y="85.859882" style="stroke: #000000; stroke-width: 2"/>
     <use xlink:href="#m4d6a7aafe1" x="100.829221" y="98.327079" style="stroke: #000000; stroke-width: 2"/>
     <use xlink:href="#m4d6a7aafe1" x="117.134416" y="113.324554" style="stroke: #000000; stroke-width: 2"/>
     <use xlink:href="#m4d6a7aafe1" x="133.43961" y="133.60999" style="stroke: #000000; stroke-width: 2"/>
     <use xlink:href="#m4d6a7aafe1" x="149.744805" y="156.850083" style="stroke: #000000; stroke-width: 2"/>
     <use xlink:href="#m4d6a7aafe1" x="166.05" y="181.678162" style="stroke: #000000; stroke-width: 2"/>
     <use xlink:href="#m4d6a7aafe1" x="182.355195" y="206.465677" style="stroke: #000000; stroke-width: 2"/>
     <use xlink:href="#m4d6a7aafe1" x="198.66039" y="228.079964" style="stroke: #000000; stroke-width: 2"/>
     <use xlink:href="#m4d6a7aafe1" x="214.965584" y="245.464233" style="stroke: #000000; stroke-width: 2"/>
     <use xlink:href="#m4d6a7aafe1" x="231.270779" y="258.268786" style="stroke: #000000; stroke-width: 2"/>
     <use xlink:href="#m4d6a7aafe1" x="247.575974" y="265.593654" style="stroke: #000000; stroke-width: 2"/>
     <use xlink:href="#m4d6a7aafe1" x="263.881169" y="269.228545" style="stroke: #000000; stroke-width: 2"/>
     <use xlink:href="#m4d6a7aafe1" x="280.186364" y="271.250568" style="stroke: #000000; stroke-width: 2"/>
    </g>
   </g>
   <g id="line2d_17">
    <path d="M 51.913636 64.099454 
L 68.218831 64.439382 
L 84.524026 72.404051 
L 100.829221 85.286072 
L 117.134416 106.421958 
L 133.43961 129.83981 
L 149.744805 154.703774 
L 166.05 181.18704 
L 182.355195 207.702732 
L 198.66039 232.021665 
L 214.965584 250.473223 
L 231.270779 262.651768 
L 247.575974 269.163669 
L 263.881169 272.322971 
L 280.186364 274.05824 
" clip-path="url(#p4fc083fc33)" style="fill: none; stroke: #0000ff; stroke-width: 1.5; stroke-linecap: square"/>
   </g>
   <g id="LineCollection_3">
    <path d="M 51.913636 64.561109 
L 51.913636 63.637798 
" clip-path="url(#p4fc083fc33)" style="fill: none; stroke: #0000ff; stroke-width: 2"/>
    <path d="M 68.218831 66.051552 
L 68.218831 62.827212 
" clip-path="url(#p4fc083fc33)" style="fill: none; stroke: #0000ff; stroke-width: 2"/>
    <path d="M 84.524026 73.156606 
L 84.524026 71.651497 
" clip-path="url(#p4fc083fc33)" style="fill: none; stroke: #0000ff; stroke-width: 2"/>
    <path d="M 100.829221 86.127961 
L 100.829221 84.444183 
" clip-path="url(#p4fc083fc33)" style="fill: none; stroke: #0000ff; stroke-width: 2"/>
    <path d="M 117.134416 107.113208 
L 117.134416 105.730708 
" clip-path="url(#p4fc083fc33)" style="fill: none; stroke: #0000ff; stroke-width: 2"/>
    <path d="M 133.43961 130.212341 
L 133.43961 129.467278 
" clip-path="url(#p4fc083fc33)" style="fill: none; stroke: #0000ff; stroke-width: 2"/>
    <path d="M 149.744805 155.041587 
L 149.744805 154.36596 
" clip-path="url(#p4fc083fc33)" style="fill: none; stroke: #0000ff; stroke-width: 2"/>
    <path d="M 166.05 181.351338 
L 166.05 181.022742 
" clip-path="url(#p4fc083fc33)" style="fill: none; stroke: #0000ff; stroke-width: 2"/>
    <path d="M 182.355195 207.999552 
L 182.355195 207.405912 
" clip-path="url(#p4fc083fc33)" style="fill: none; stroke: #0000ff; stroke-width: 2"/>
    <path d="M 198.66039 232.116217 
L 198.66039 231.927112 
" clip-path="url(#p4fc083fc33)" style="fill: none; stroke: #0000ff; stroke-width: 2"/>
    <path d="M 214.965584 250.548006 
L 214.965584 250.39844 
" clip-path="url(#p4fc083fc33)" style="fill: none; stroke: #0000ff; stroke-width: 2"/>
    <path d="M 231.270779 262.673608 
L 231.270779 262.629927 
" clip-path="url(#p4fc083fc33)" style="fill: none; stroke: #0000ff; stroke-width: 2"/>
    <path d="M 247.575974 269.171121 
L 247.575974 269.156217 
" clip-path="url(#p4fc083fc33)" style="fill: none; stroke: #0000ff; stroke-width: 2"/>
    <path d="M 263.881169 272.32781 
L 263.881169 272.318133 
" clip-path="url(#p4fc083fc33)" style="fill: none; stroke: #0000ff; stroke-width: 2"/>
    <path d="M 280.186364 274.061103 
L 280.186364 274.055377 
" clip-path="url(#p4fc083fc33)" style="fill: none; stroke: #0000ff; stroke-width: 2"/>
   </g>
   <g id="line2d_18">
    <defs>
     <path id="m39ce1f6542" d="M 3 0 
L -3 -0 
" style="stroke: #0000ff; stroke-width: 2"/>
    </defs>
    <g clip-path="url(#p4fc083fc33)">
     <use xlink:href="#m39ce1f6542" x="51.913636" y="64.561109" style="fill: #0000ff; stroke: #0000ff; stroke-width: 2"/>
     <use xlink:href="#m39ce1f6542" x="68.218831" y="66.051552" style="fill: #0000ff; stroke: #0000ff; stroke-width: 2"/>
     <use xlink:href="#m39ce1f6542" x="84.524026" y="73.156606" style="fill: #0000ff; stroke: #0000ff; stroke-width: 2"/>
     <use xlink:href="#m39ce1f6542" x="100.829221" y="86.127961" style="fill: #0000ff; stroke: #0000ff; stroke-width: 2"/>
     <use xlink:href="#m39ce1f6542" x="117.134416" y="107.113208" style="fill: #0000ff; stroke: #0000ff; stroke-width: 2"/>
     <use xlink:href="#m39ce1f6542" x="133.43961" y="130.212341" style="fill: #0000ff; stroke: #0000ff; stroke-width: 2"/>
     <use xlink:href="#m39ce1f6542" x="149.744805" y="155.041587" style="fill: #0000ff; stroke: #0000ff; stroke-width: 2"/>
     <use xlink:href="#m39ce1f6542" x="166.05" y="181.351338" style="fill: #0000ff; stroke: #0000ff; stroke-width: 2"/>
     <use xlink:href="#m39ce1f6542" x="182.355195" y="207.999552" style="fill: #0000ff; stroke: #0000ff; stroke-width: 2"/>
     <use xlink:href="#m39ce1f6542" x="198.66039" y="232.116217" style="fill: #0000ff; stroke: #0000ff; stroke-width: 2"/>
     <use xlink:href="#m39ce1f6542" x="214.965584" y="250.548006" style="fill: #0000ff; stroke: #0000ff; stroke-width: 2"/>
     <use xlink:href="#m39ce1f6542" x="231.270779" y="262.673608" style="fill: #0000ff; stroke: #0000ff; stroke-width: 2"/>
     <use xlink:href="#m39ce1f6542" x="247.575974" y="269.171121" style="fill: #0000ff; stroke: #0000ff; stroke-width: 2"/>
     <use xlink:href="#m39ce1f6542" x="263.881169" y="272.32781" style="fill: #0000ff; stroke: #0000ff; stroke-width: 2"/>
     <use xlink:href="#m39ce1f6542" x="280.186364" y="274.061103" style="fill: #0000ff; stroke: #0000ff; stroke-width: 2"/>
    </g>
   </g>
   <g id="line2d_19">
    <g clip-path="url(#p4fc083fc33)">
     <use xlink:href="#m39ce1f6542" x="51.913636" y="63.637798" style="fill: #0000ff; stroke: #0000ff; stroke-width: 2"/>
     <use xlink:href="#m39ce1f6542" x="68.218831" y="62.827212" style="fill: #0000ff; stroke: #0000ff; stroke-width: 2"/>
     <use xlink:href="#m39ce1f6542" x="84.524026" y="71.651497" style="fill: #0000ff; stroke: #0000ff; stroke-width: 2"/>
     <use xlink:href="#m39ce1f6542" x="100.829221" y="84.444183" style="fill: #0000ff; stroke: #0000ff; stroke-width: 2"/>
     <use xlink:href="#m39ce1f6542" x="117.134416" y="105.730708" style="fill: #0000ff; stroke: #0000ff; stroke-width: 2"/>
     <use xlink:href="#m39ce1f6542" x="133.43961" y="129.467278" style="fill: #0000ff; stroke: #0000ff; stroke-width: 2"/>
     <use xlink:href="#m39ce1f6542" x="149.744805" y="154.36596" style="fill: #0000ff; stroke: #0000ff; stroke-width: 2"/>
     <use xlink:href="#m39ce1f6542" x="166.05" y="181.022742" style="fill: #0000ff; stroke: #0000ff; stroke-width: 2"/>
     <use xlink:href="#m39ce1f6542" x="182.355195" y="207.405912" style="fill: #0000ff; stroke: #0000ff; stroke-width: 2"/>
     <use xlink:href="#m39ce1f6542" x="198.66039" y="231.927112" style="fill: #0000ff; stroke: #0000ff; stroke-width: 2"/>
     <use xlink:href="#m39ce1f6542" x="214.965584" y="250.39844" style="fill: #0000ff; stroke: #0000ff; stroke-width: 2"/>
     <use xlink:href="#m39ce1f6542" x="231.270779" y="262.629927" style="fill: #0000ff; stroke: #0000ff; stroke-width: 2"/>
     <use xlink:href="#m39ce1f6542" x="247.575974" y="269.156217" style="fill: #0000ff; stroke: #0000ff; stroke-width: 2"/>
     <use xlink:href="#m39ce1f6542" x="263.881169" y="272.318133" style="fill: #0000ff; stroke: #0000ff; stroke-width: 2"/>
     <use xlink:href="#m39ce1f6542" x="280.186364" y="274.055377" style="fill: #0000ff; stroke: #0000ff; stroke-width: 2"/>
    </g>
   </g>
   <g id="line2d_20">
    <path d="M 51.913636 51.499341 
L 68.218831 51.38597 
L 84.524026 55.653981 
L 100.829221 70.267638 
L 117.134416 97.087341 
L 133.43961 123.50048 
L 149.744805 153.185799 
L 166.05 182.093129 
L 182.355195 210.21291 
L 198.66039 234.938746 
L 214.965584 253.981637 
L 231.270779 265.866994 
L 247.575974 271.766886 
L 263.881169 274.554558 
L 280.186364 276.070069 
" clip-path="url(#p4fc083fc33)" style="fill: none; stroke: #bf00bf; stroke-width: 1.5; stroke-linecap: square"/>
   </g>
   <g id="LineCollection_4">
    <path d="M 51.913636 52.823832 
L 51.913636 50.17485 
" clip-path="url(#p4fc083fc33)" style="fill: none; stroke: #bf00bf; stroke-width: 2"/>
    <path d="M 68.218831 52.366653 
L 68.218831 50.405288 
" clip-path="url(#p4fc083fc33)" style="fill: none; stroke: #bf00bf; stroke-width: 2"/>
    <path d="M 84.524026 56.573022 
L 84.524026 54.73494 
" clip-path="url(#p4fc083fc33)" style="fill: none; stroke: #bf00bf; stroke-width: 2"/>
    <path d="M 100.829221 71.124737 
L 100.829221 69.41054 
" clip-path="url(#p4fc083fc33)" style="fill: none; stroke: #bf00bf; stroke-width: 2"/>
    <path d="M 117.134416 97.770141 
L 117.134416 96.40454 
" clip-path="url(#p4fc083fc33)" style="fill: none; stroke: #bf00bf; stroke-width: 2"/>
    <path d="M 133.43961 124.111248 
L 133.43961 122.889711 
" clip-path="url(#p4fc083fc33)" style="fill: none; stroke: #bf00bf; stroke-width: 2"/>
    <path d="M 149.744805 153.725047 
L 149.744805 152.646552 
" clip-path="url(#p4fc083fc33)" style="fill: none; stroke: #bf00bf; stroke-width: 2"/>
    <path d="M 166.05 182.206264 
L 166.05 181.979994 
" clip-path="url(#p4fc083fc33)" style="fill: none; stroke: #bf00bf; stroke-width: 2"/>
    <path d="M 182.355195 210.316628 
L 182.355195 210.109191 
" clip-path="url(#p4fc083fc33)" style="fill: none; stroke: #bf00bf; stroke-width: 2"/>
    <path d="M 198.66039 234.997804 
L 198.66039 234.879688 
" clip-path="url(#p4fc083fc33)" style="fill: none; stroke: #bf00bf; stroke-width: 2"/>
    <path d="M 214.965584 254.034582 
L 214.965584 253.928692 
" clip-path="url(#p4fc083fc33)" style="fill: none; stroke: #bf00bf; stroke-width: 2"/>
    <path d="M 231.270779 265.879898 
L 231.270779 265.85409 
" clip-path="url(#p4fc083fc33)" style="fill: none; stroke: #bf00bf; stroke-width: 2"/>
    <path d="M 247.575974 271.769371 
L 247.575974 271.764402 
" clip-path="url(#p4fc083fc33)" style="fill: none; stroke: #bf00bf; stroke-width: 2"/>
    <path d="M 263.881169 274.556508 
L 263.881169 274.552608 
" clip-path="url(#p4fc083fc33)" style="fill: none; stroke: #bf00bf; stroke-width: 2"/>
    <path d="M 280.186364 276.071855 
L 280.186364 276.068283 
" clip-path="url(#p4fc083fc33)" style="fill: none; stroke: #bf00bf; stroke-width: 2"/>
   </g>
   <g id="line2d_21">
    <defs>
     <path id="m1f899f2e17" d="M 3 0 
L -3 -0 
" style="stroke: #bf00bf; stroke-width: 2"/>
    </defs>
    <g clip-path="url(#p4fc083fc33)">
     <use xlink:href="#m1f899f2e17" x="51.913636" y="52.823832" style="fill: #bf00bf; stroke: #bf00bf; stroke-width: 2"/>
     <use xlink:href="#m1f899f2e17" x="68.218831" y="52.366653" style="fill: #bf00bf; stroke: #bf00bf; stroke-width: 2"/>
     <use xlink:href="#m1f899f2e17" x="84.524026" y="56.573022" style="fill: #bf00bf; stroke: #bf00bf; stroke-width: 2"/>
     <use xlink:href="#m1f899f2e17" x="100.829221" y="71.124737" style="fill: #bf00bf; stroke: #bf00bf; stroke-width: 2"/>
     <use xlink:href="#m1f899f2e17" x="117.134416" y="97.770141" style="fill: #bf00bf; stroke: #bf00bf; stroke-width: 2"/>
     <use xlink:href="#m1f899f2e17" x="133.43961" y="124.111248" style="fill: #bf00bf; stroke: #bf00bf; stroke-width: 2"/>
     <use xlink:href="#m1f899f2e17" x="149.744805" y="153.725047" style="fill: #bf00bf; stroke: #bf00bf; stroke-width: 2"/>
     <use xlink:href="#m1f899f2e17" x="166.05" y="182.206264" style="fill: #bf00bf; stroke: #bf00bf; stroke-width: 2"/>
     <use xlink:href="#m1f899f2e17" x="182.355195" y="210.316628" style="fill: #bf00bf; stroke: #bf00bf; stroke-width: 2"/>
     <use xlink:href="#m1f899f2e17" x="198.66039" y="234.997804" style="fill: #bf00bf; stroke: #bf00bf; stroke-width: 2"/>
     <use xlink:href="#m1f899f2e17" x="214.965584" y="254.034582" style="fill: #bf00bf; stroke: #bf00bf; stroke-width: 2"/>
     <use xlink:href="#m1f899f2e17" x="231.270779" y="265.879898" style="fill: #bf00bf; stroke: #bf00bf; stroke-width: 2"/>
     <use xlink:href="#m1f899f2e17" x="247.575974" y="271.769371" style="fill: #bf00bf; stroke: #bf00bf; stroke-width: 2"/>
     <use xlink:href="#m1f899f2e17" x="263.881169" y="274.556508" style="fill: #bf00bf; stroke: #bf00bf; stroke-width: 2"/>
     <use xlink:href="#m1f899f2e17" x="280.186364" y="276.071855" style="fill: #bf00bf; stroke: #bf00bf; stroke-width: 2"/>
    </g>
   </g>
   <g id="line2d_22">
    <g clip-path="url(#p4fc083fc33)">
     <use xlink:href="#m1f899f2e17" x="51.913636" y="50.17485" style="fill: #bf00bf; stroke: #bf00bf; stroke-width: 2"/>
     <use xlink:href="#m1f899f2e17" x="68.218831" y="50.405288" style="fill: #bf00bf; stroke: #bf00bf; stroke-width: 2"/>
     <use xlink:href="#m1f899f2e17" x="84.524026" y="54.73494" style="fill: #bf00bf; stroke: #bf00bf; stroke-width: 2"/>
     <use xlink:href="#m1f899f2e17" x="100.829221" y="69.41054" style="fill: #bf00bf; stroke: #bf00bf; stroke-width: 2"/>
     <use xlink:href="#m1f899f2e17" x="117.134416" y="96.40454" style="fill: #bf00bf; stroke: #bf00bf; stroke-width: 2"/>
     <use xlink:href="#m1f899f2e17" x="133.43961" y="122.889711" style="fill: #bf00bf; stroke: #bf00bf; stroke-width: 2"/>
     <use xlink:href="#m1f899f2e17" x="149.744805" y="152.646552" style="fill: #bf00bf; stroke: #bf00bf; stroke-width: 2"/>
     <use xlink:href="#m1f899f2e17" x="166.05" y="181.979994" style="fill: #bf00bf; stroke: #bf00bf; stroke-width: 2"/>
     <use xlink:href="#m1f899f2e17" x="182.355195" y="210.109191" style="fill: #bf00bf; stroke: #bf00bf; stroke-width: 2"/>
     <use xlink:href="#m1f899f2e17" x="198.66039" y="234.879688" style="fill: #bf00bf; stroke: #bf00bf; stroke-width: 2"/>
     <use xlink:href="#m1f899f2e17" x="214.965584" y="253.928692" style="fill: #bf00bf; stroke: #bf00bf; stroke-width: 2"/>
     <use xlink:href="#m1f899f2e17" x="231.270779" y="265.85409" style="fill: #bf00bf; stroke: #bf00bf; stroke-width: 2"/>
     <use xlink:href="#m1f899f2e17" x="247.575974" y="271.764402" style="fill: #bf00bf; stroke: #bf00bf; stroke-width: 2"/>
     <use xlink:href="#m1f899f2e17" x="263.881169" y="274.552608" style="fill: #bf00bf; stroke: #bf00bf; stroke-width: 2"/>
     <use xlink:href="#m1f899f2e17" x="280.186364" y="276.068283" style="fill: #bf00bf; stroke: #bf00bf; stroke-width: 2"/>
    </g>
   </g>
   <g id="line2d_23">
    <path d="M 51.913636 95.106657 
L 68.218831 95.533532 
L 84.524026 99.064983 
L 100.829221 107.738044 
L 117.134416 122.450185 
L 133.43961 141.462616 
L 149.744805 161.759759 
L 166.05 183.32262 
L 182.355195 204.068047 
L 198.66039 220.967106 
L 214.965584 237.163308 
L 231.270779 251.936981 
L 247.575974 260.481744 
L 263.881169 264.715118 
L 280.186364 267.111102 
" clip-path="url(#p4fc083fc33)" style="fill: none; stroke: #ff0000; stroke-width: 1.5; stroke-linecap: square"/>
   </g>
   <g id="line2d_24">
    <path d="M 51.913636 80.573813 
L 68.218831 81.146054 
L 84.524026 86.59831 
L 100.829221 98.690869 
L 117.134416 114.333828 
L 133.43961 134.007025 
L 149.744805 157.232759 
L 166.05 181.949118 
L 182.355195 206.53772 
L 198.66039 228.123396 
L 214.965584 245.510698 
L 231.270779 258.29207 
L 247.575974 265.606672 
L 263.881169 269.232551 
L 280.186364 271.253873 
" clip-path="url(#p4fc083fc33)" style="fill: none; stroke: #000000; stroke-width: 1.5; stroke-linecap: square"/>
   </g>
   <g id="line2d_25">
    <path d="M 51.913636 64.099454 
L 68.218831 64.439382 
L 84.524026 72.404051 
L 100.829221 85.286072 
L 117.134416 106.421958 
L 133.43961 129.83981 
L 149.744805 154.703774 
L 166.05 181.18704 
L 182.355195 207.702732 
L 198.66039 232.021665 
L 214.965584 250.473223 
L 231.270779 262.651768 
L 247.575974 269.163669 
L 263.881169 272.322971 
L 280.186364 274.05824 
" clip-path="url(#p4fc083fc33)" style="fill: none; stroke: #0000ff; stroke-width: 1.5; stroke-linecap: square"/>
   </g>
   <g id="line2d_26">
    <path d="M 51.913636 51.499341 
L 68.218831 51.38597 
L 84.524026 55.653981 
L 100.829221 70.267638 
L 117.134416 97.087341 
L 133.43961 123.50048 
L 149.744805 153.185799 
L 166.05 182.093129 
L 182.355195 210.21291 
L 198.66039 234.938746 
L 214.965584 253.981637 
L 231.270779 265.866994 
L 247.575974 271.766886 
L 263.881169 274.554558 
L 280.186364 276.070069 
" clip-path="url(#p4fc083fc33)" style="fill: none; stroke: #bf00bf; stroke-width: 1.5; stroke-linecap: square"/>
   </g>
   <g id="patch_3">
    <path d="M 40.5 288.36 
L 40.5 38.88 
" style="fill: none; stroke: #000000; stroke-width: 1.6; stroke-linejoin: miter; stroke-linecap: square"/>
   </g>
   <g id="patch_4">
    <path d="M 291.6 288.36 
L 291.6 38.88 
" style="fill: none; stroke: #000000; stroke-width: 1.6; stroke-linejoin: miter; stroke-linecap: square"/>
   </g>
   <g id="patch_5">
    <path d="M 40.5 288.36 
L 291.6 288.36 
" style="fill: none; stroke: #000000; stroke-width: 1.6; stroke-linejoin: miter; stroke-linecap: square"/>
   </g>
   <g id="patch_6">
    <path d="M 40.5 38.88 
L 291.6 38.88 
" style="fill: none; stroke: #000000; stroke-width: 1.6; stroke-linejoin: miter; stroke-linecap: square"/>
   </g>
   <g id="legend_1">
    <g id="patch_7">
     <path d="M 209.120625 118.935 
L 283.2 118.935 
Q 285.6 118.935 285.6 116.535 
L 285.6 47.28 
Q 285.6 44.88 283.2 44.88 
L 209.120625 44.88 
Q 206.720625 44.88 206.720625 47.28 
L 206.720625 116.535 
Q 206.720625 118.935 209.120625 118.935 
z
" style="fill: #ffffff; opacity: 0.8"/>
    </g>
    <g id="LineCollection_5">
     <path d="M 223.520625 60.598125 
L 223.520625 48.598125 
" style="fill: none; stroke: #ff0000; stroke-width: 2"/>
    </g>
    <g id="line2d_27">
     <g>
      <use xlink:href="#m39cc4d8ca4" x="223.520625" y="60.598125" style="fill: #ff0000; stroke: #ff0000; stroke-width: 2"/>
     </g>
    </g>
    <g id="line2d_28">
     <g>
      <use xlink:href="#m39cc4d8ca4" x="223.520625" y="48.598125" style="fill: #ff0000; stroke: #ff0000; stroke-width: 2"/>
     </g>
    </g>
    <g id="line2d_29">
     <path d="M 211.520625 54.598125 
L 235.520625 54.598125 
" style="fill: none; stroke: #ff0000; stroke-width: 1.5; stroke-linecap: square"/>
    </g>
    <g id="line2d_30"/>
    <g id="text_11">
     <!-- M=8 -->
     <g transform="translate(245.120625 58.798125) scale(0.12 -0.12)">
      <defs>
       <path id="DejaVuSans-4d" d="M 628 4666 
L 1569 4666 
L 2759 1491 
L 3956 4666 
L 4897 4666 
L 4897 0 
L 4281 0 
L 4281 4097 
L 3078 897 
L 2444 897 
L 1241 4097 
L 1241 0 
L 628 0 
L 628 4666 
z
" transform="scale(0.015625)"/>
       <path id="DejaVuSans-3d" d="M 678 2906 
L 4684 2906 
L 4684 2381 
L 678 2381 
L 678 2906 
z
M 678 1631 
L 4684 1631 
L 4684 1100 
L 678 1100 
L 678 1631 
z
" transform="scale(0.015625)"/>
      </defs>
      <use xlink:href="#DejaVuSans-4d"/>
      <use xlink:href="#DejaVuSans-3d" x="86.279297"/>
      <use xlink:href="#DejaVuSans-38" x="170.068359"/>
     </g>
    </g>
    <g id="LineCollection_6">
     <path d="M 223.520625 78.211875 
L 223.520625 66.211875 
" style="fill: none; stroke: #000000; stroke-width: 2"/>
    </g>
    <g id="line2d_31">
     <g>
      <use xlink:href="#m4d6a7aafe1" x="223.520625" y="78.211875" style="stroke: #000000; stroke-width: 2"/>
     </g>
    </g>
    <g id="line2d_32">
     <g>
      <use xlink:href="#m4d6a7aafe1" x="223.520625" y="66.211875" style="stroke: #000000; stroke-width: 2"/>
     </g>
    </g>
    <g id="line2d_33">
     <path d="M 211.520625 72.211875 
L 235.520625 72.211875 
" style="fill: none; stroke: #000000; stroke-width: 1.5; stroke-linecap: square"/>
    </g>
    <g id="line2d_34"/>
    <g id="text_12">
     <!-- M=10 -->
     <g transform="translate(245.120625 76.411875) scale(0.12 -0.12)">
      <use xlink:href="#DejaVuSans-4d"/>
      <use xlink:href="#DejaVuSans-3d" x="86.279297"/>
      <use xlink:href="#DejaVuSans-31" x="170.068359"/>
      <use xlink:href="#DejaVuSans-30" x="233.691406"/>
     </g>
    </g>
    <g id="LineCollection_7">
     <path d="M 223.520625 95.825625 
L 223.520625 83.825625 
" style="fill: none; stroke: #0000ff; stroke-width: 2"/>
    </g>
    <g id="line2d_35">
     <g>
      <use xlink:href="#m39ce1f6542" x="223.520625" y="95.825625" style="fill: #0000ff; stroke: #0000ff; stroke-width: 2"/>
     </g>
    </g>
    <g id="line2d_36">
     <g>
      <use xlink:href="#m39ce1f6542" x="223.520625" y="83.825625" style="fill: #0000ff; stroke: #0000ff; stroke-width: 2"/>
     </g>
    </g>
    <g id="line2d_37">
     <path d="M 211.520625 89.825625 
L 235.520625 89.825625 
" style="fill: none; stroke: #0000ff; stroke-width: 1.5; stroke-linecap: square"/>
    </g>
    <g id="line2d_38"/>
    <g id="text_13">
     <!-- M=12 -->
     <g transform="translate(245.120625 94.025625) scale(0.12 -0.12)">
      <use xlink:href="#DejaVuSans-4d"/>
      <use xlink:href="#DejaVuSans-3d" x="86.279297"/>
      <use xlink:href="#DejaVuSans-31" x="170.068359"/>
      <use xlink:href="#DejaVuSans-32" x="233.691406"/>
     </g>
    </g>
    <g id="LineCollection_8">
     <path d="M 223.520625 113.439375 
L 223.520625 101.439375 
" style="fill: none; stroke: #bf00bf; stroke-width: 2"/>
    </g>
    <g id="line2d_39">
     <g>
      <use xlink:href="#m1f899f2e17" x="223.520625" y="113.439375" style="fill: #bf00bf; stroke: #bf00bf; stroke-width: 2"/>
     </g>
    </g>
    <g id="line2d_40">
     <g>
      <use xlink:href="#m1f899f2e17" x="223.520625" y="101.439375" style="fill: #bf00bf; stroke: #bf00bf; stroke-width: 2"/>
     </g>
    </g>
    <g id="line2d_41">
     <path d="M 211.520625 107.439375 
L 235.520625 107.439375 
" style="fill: none; stroke: #bf00bf; stroke-width: 1.5; stroke-linecap: square"/>
    </g>
    <g id="line2d_42"/>
    <g id="text_14">
     <!-- M=14 -->
     <g transform="translate(245.120625 111.639375) scale(0.12 -0.12)">
      <use xlink:href="#DejaVuSans-4d"/>
      <use xlink:href="#DejaVuSans-3d" x="86.279297"/>
      <use xlink:href="#DejaVuSans-31" x="170.068359"/>
      <use xlink:href="#DejaVuSans-34" x="233.691406"/>
     </g>
    </g>
   </g>
  </g>
 </g>
 <defs>
  <clipPath id="p4fc083fc33">
   <rect x="40.5" y="38.88" width="251.1" height="249.48"/>
  </clipPath>
 </defs>
</svg>
