<?xml version="1.0" encoding="utf-8" standalone="no"?>
<!DOCTYPE svg PUBLIC "-//W3C//DTD SVG 1.1//EN"
  "http://www.w3.org/Graphics/SVG/1.1/DTD/svg11.dtd">
<svg xmlns:xlink="http://www.w3.org/1999/xlink" width="324pt" height="324pt" viewBox="0 0 324 324" xmlns="http://www.w3.org/2000/svg" version="1.1">
 <metadata>
  <rdf:RDF xmlns:dc="http://purl.org/dc/elements/1.1/" xmlns:cc="http://creativecommons.org/ns#" xmlns:rdf="http://www.w3.org/1999/02/22-rdf-syntax-ns#">
   <cc:Work>
    <dc:type rdf:resource="http://purl.org/dc/dcmitype/StillImage"/>
    <dc:date>2026-01-08T19:52:10.665132</dc:date>
    <dc:format>image/svg+xml</dc:format>
    <dc:creator>
     <cc:Agent>
      <dc:title>Matplotlib v3.8.0, https://matplotlib.org/</dc:title>
     </cc:Agent>
    </dc:creator>
   </cc:Work>
  </rdf:RDF>
 </metadata>
 <defs>
  <style type="text/css">*{stroke-linejoin: round; stroke-linecap: butt}</style>
 </defs>
 <g id="figure_1">
  <g id="patch_1">
   <path d="M 0 324 
L 324 324 
L 324 0 
L 0 0 
z
" style="fill: #ffffff"/>
  </g>
  <g id="axes_1">
   <g id="patch_2">
    <path d="M 40.5 288.36 
L 291.6 288.36 
L 291.6 38.88 
L 40.5 38.88 
z
" style="fill: #ffffff"/>
   </g>
   <g id="matplotlib.axis_1">
    <g id="xtick_1">
     <g id="line2d_1">
      <defs>
       <path id="m7e7d9b5e3b" d="M 0 0 
L 0 8 
" style="stroke: #000000; stroke-width: 1.5"/>
      </defs>
      <g>
       <use xlink:href="#m7e7d9b5e3b" x="51.913636" y="288.36" style="stroke: #000000; stroke-width: 1.5"/>
      </g>
     </g>
     <g id="text_1">
      <!-- 2.0 -->
      <g transform="translate(42.371761 308.978125) scale(0.12 -0.12)">
       <defs>
        <path id="DejaVuSans-32" d="M 1228 531 
L 3431 531 
L 3431 0 
L 469 0 
L 469 531 
Q 828 903 1448 1529 
Q 2069 2156 2228 2338 
Q 2531 2678 2651 2914 
Q 2772 3150 2772 3378 
Q 2772 3750 2511 3984 
Q 2250 4219 1831 4219 
Q 1534 4219 1204 4116 
Q 875 4013 500 3803 
L 500 4441 
Q 881 4594 1212 4672 
Q 1544 4750 1819 4750 
Q 2544 4750 2975 4387 
Q 3406 4025 3406 3419 
Q 3406 3131 3298 2873 
Q 3191 2616 2906 2266 
Q 2828 2175 2409 1742 
Q 1991 1309 1228 531 
z
" transform="scale(0.015625)"/>
        <path id="DejaVuSans-2e" d="M 684 794 
L 1344 794 
L 1344 0 
L 684 0 
L 684 794 
z
" transform="scale(0.015625)"/>
        <path id="DejaVuSans-30" d="M 2034 4250 
Q 1547 4250 1301 3770 
Q 1056 3291 1056 2328 
Q 1056 1369 1301 889 
Q 1547 409 2034 409 
Q 2525 409 2770 889 
Q 3016 1369 3016 2328 
Q 3016 3291 2770 3770 
Q 2525 4250 2034 4250 
z
M 2034 4750 
Q 2819 4750 3233 4129 
Q 3647 3509 3647 2328 
Q 3647 1150 3233 529 
Q 2819 -91 2034 -91 
Q 1250 -91 836 529 
Q 422 1150 422 2328 
Q 422 3509 836 4129 
Q 1250 4750 2034 4750 
z
" transform="scale(0.015625)"/>
       </defs>
       <use xlink:href="#DejaVuSans-32"/>
       <use xlink:href="#DejaVuSans-2e" x="63.623047"/>
       <use xlink:href="#DejaVuSans-30" x="95.410156"/>
      </g>
     </g>
    </g>
    <g id="xtick_2">
     <g id="line2d_2">
      <g>
       <use xlink:href="#m7e7d9b5e3b" x="103.793802" y="288.36" style="stroke: #000000; stroke-width: 1.5"/>
      </g>
     </g>
     <g id="text_2">
      <!-- 2.5 -->
      <g transform="translate(94.251927 308.978125) scale(0.12 -0.12)">
       <defs>
        <path id="DejaVuSans-35" d="M 691 4666 
L 3169 4666 
L 3169 4134 
L 1269 4134 
L 1269 2991 
Q 1406 3038 1543 3061 
Q 1681 3084 1819 3084 
Q 2600 3084 3056 2656 
Q 3513 2228 3513 1497 
Q 3513 744 3044 326 
Q 2575 -91 1722 -91 
Q 1428 -91 1123 -41 
Q 819 9 494 109 
L 494 744 
Q 775 591 1075 516 
Q 1375 441 1709 441 
Q 2250 441 2565 725 
Q 2881 1009 2881 1497 
Q 2881 1984 2565 2268 
Q 2250 2553 1709 2553 
Q 1456 2553 1204 2497 
Q 953 2441 691 2322 
L 691 4666 
z
" transform="scale(0.015625)"/>
       </defs>
       <use xlink:href="#DejaVuSans-32"/>
       <use xlink:href="#DejaVuSans-2e" x="63.623047"/>
       <use xlink:href="#DejaVuSans-35" x="95.410156"/>
      </g>
     </g>
    </g>
    <g id="xtick_3">
     <g id="line2d_3">
      <g>
       <use xlink:href="#m7e7d9b5e3b" x="155.673967" y="288.36" style="stroke: #000000; stroke-width: 1.5"/>
      </g>
     </g>
     <g id="text_3">
      <!-- 3.0 -->
      <g transform="translate(146.132092 308.978125) scale(0.12 -0.12)">
       <defs>
        <path id="DejaVuSans-33" d="M 2597 2516 
Q 3050 2419 3304 2112 
Q 3559 1806 3559 1356 
Q 3559 666 3084 287 
Q 2609 -91 1734 -91 
Q 1441 -91 1130 -33 
Q 819 25 488 141 
L 488 750 
Q 750 597 1062 519 
Q 1375 441 1716 441 
Q 2309 441 2620 675 
Q 2931 909 2931 1356 
Q 2931 1769 2642 2001 
Q 2353 2234 1838 2234 
L 1294 2234 
L 1294 2753 
L 1863 2753 
Q 2328 2753 2575 2939 
Q 2822 3125 2822 3475 
Q 2822 3834 2567 4026 
Q 2313 4219 1838 4219 
Q 1578 4219 1281 4162 
Q 984 4106 628 3988 
L 628 4550 
Q 988 4650 1302 4700 
Q 1616 4750 1894 4750 
Q 2613 4750 3031 4423 
Q 3450 4097 3450 3541 
Q 3450 3153 3228 2886 
Q 3006 2619 2597 2516 
z
" transform="scale(0.015625)"/>
       </defs>
       <use xlink:href="#DejaVuSans-33"/>
       <use xlink:href="#DejaVuSans-2e" x="63.623047"/>
       <use xlink:href="#DejaVuSans-30" x="95.410156"/>
      </g>
     </g>
    </g>
    <g id="xtick_4">
     <g id="line2d_4">
      <g>
       <use xlink:href="#m7e7d9b5e3b" x="207.554132" y="288.36" style="stroke: #000000; stroke-width: 1.5"/>
      </g>
     </g>
     <g id="text_4">
      <!-- 3.5 -->
      <g transform="translate(198.012257 308.978125) scale(0.12 -0.12)">
       <use xlink:href="#DejaVuSans-33"/>
       <use xlink:href="#DejaVuSans-2e" x="63.623047"/>
       <use xlink:href="#DejaVuSans-35" x="95.410156"/>
      </g>
     </g>
    </g>
    <g id="xtick_5">
     <g id="line2d_5">
      <g>
       <use xlink:href="#m7e7d9b5e3b" x="259.434298" y="288.36" style="stroke: #000000; stroke-width: 1.5"/>
      </g>
     </g>
     <g id="text_5">
      <!-- 4.0 -->
      <g transform="translate(249.892423 308.978125) scale(0.12 -0.12)">
       <defs>
        <path id="DejaVuSans-34" d="M 2419 4116 
L 825 1625 
L 2419 1625 
L 2419 4116 
z
M 2253 4666 
L 3047 4666 
L 3047 1625 
L 3713 1625 
L 3713 1100 
L 3047 1100 
L 3047 0 
L 2419 0 
L 2419 1100 
L 313 1100 
L 313 1709 
L 2253 4666 
z
" transform="scale(0.015625)"/>
       </defs>
       <use xlink:href="#DejaVuSans-34"/>
       <use xlink:href="#DejaVuSans-2e" x="63.623047"/>
       <use xlink:href="#DejaVuSans-30" x="95.410156"/>
      </g>
     </g>
    </g>
   </g>
   <g id="matplotlib.axis_2">
    <g id="ytick_1">
     <g id="line2d_6">
      <defs>
       <path id="m8078864e85" d="M 0 0 
L -8 0 
" style="stroke: #000000; stroke-width: 1.5"/>
      </defs>
      <g>
       <use xlink:href="#m8078864e85" x="40.5" y="258.678503" style="stroke: #000000; stroke-width: 1.5"/>
      </g>
     </g>
     <g id="text_6">
      <!-- 1 -->
      <g transform="translate(21.365 263.237566) scale(0.12 -0.12)">
       <defs>
        <path id="DejaVuSans-31" d="M 794 531 
L 1825 531 
L 1825 4091 
L 703 3866 
L 703 4441 
L 1819 4666 
L 2450 4666 
L 2450 531 
L 3481 531 
L 3481 0 
L 794 0 
L 794 531 
z
" transform="scale(0.015625)"/>
       </defs>
       <use xlink:href="#DejaVuSans-31"/>
      </g>
     </g>
    </g>
    <g id="ytick_2">
     <g id="line2d_7">
      <g>
       <use xlink:href="#m8078864e85" x="40.5" y="185.412335" style="stroke: #000000; stroke-width: 1.5"/>
      </g>
     </g>
     <g id="text_7">
      <!-- 2 -->
      <g transform="translate(21.365 189.971398) scale(0.12 -0.12)">
       <use xlink:href="#DejaVuSans-32"/>
      </g>
     </g>
    </g>
    <g id="ytick_3">
     <g id="line2d_8">
      <g>
       <use xlink:href="#m8078864e85" x="40.5" y="112.146168" style="stroke: #000000; stroke-width: 1.5"/>
      </g>
     </g>
     <g id="text_8">
      <!-- 3 -->
      <g transform="translate(21.365 116.70523) scale(0.12 -0.12)">
       <use xlink:href="#DejaVuSans-33"/>
      </g>
     </g>
    </g>
    <g id="ytick_4">
     <g id="line2d_9">
      <g>
       <use xlink:href="#m8078864e85" x="40.5" y="38.88" style="stroke: #000000; stroke-width: 1.5"/>
      </g>
     </g>
     <g id="text_9">
      <!-- 4 -->
      <g transform="translate(21.365 43.439062) scale(0.12 -0.12)">
       <use xlink:href="#DejaVuSans-34"/>
      </g>
     </g>
    </g>
   </g>
   <g id="line2d_10">
    <path d="M 51.913636 144.786849 
L 72.665702 164.637276 
L 93.417769 182.018274 
L 114.169835 197.078722 
L 134.921901 211.262481 
L 155.673967 222.583203 
L 176.426033 233.226536 
L 197.178099 241.429243 
L 217.930165 249.046047 
L 238.682231 255.816568 
L 259.434298 261.417203 
L 280.186364 266.693295 
" clip-path="url(#pdd85607558)" style="fill: none; stroke: #ff0000; stroke-width: 1.5; stroke-linecap: square"/>
   </g>
   <g id="LineCollection_1">
    <path d="M 51.913636 145.469007 
L 51.913636 144.104692 
" clip-path="url(#pdd85607558)" style="fill: none; stroke: #ff0000; stroke-width: 2"/>
    <path d="M 72.665702 165.377606 
L 72.665702 163.896946 
" clip-path="url(#pdd85607558)" style="fill: none; stroke: #ff0000; stroke-width: 2"/>
    <path d="M 93.417769 182.381703 
L 93.417769 181.654845 
" clip-path="url(#pdd85607558)" style="fill: none; stroke: #ff0000; stroke-width: 2"/>
    <path d="M 114.169835 197.535052 
L 114.169835 196.622391 
" clip-path="url(#pdd85607558)" style="fill: none; stroke: #ff0000; stroke-width: 2"/>
    <path d="M 134.921901 211.730523 
L 134.921901 210.794439 
" clip-path="url(#pdd85607558)" style="fill: none; stroke: #ff0000; stroke-width: 2"/>
    <path d="M 155.673967 222.86662 
L 155.673967 222.299787 
" clip-path="url(#pdd85607558)" style="fill: none; stroke: #ff0000; stroke-width: 2"/>
    <path d="M 176.426033 233.509935 
L 176.426033 232.943137 
" clip-path="url(#pdd85607558)" style="fill: none; stroke: #ff0000; stroke-width: 2"/>
    <path d="M 197.178099 241.777888 
L 197.178099 241.080599 
" clip-path="url(#pdd85607558)" style="fill: none; stroke: #ff0000; stroke-width: 2"/>
    <path d="M 217.930165 249.182218 
L 217.930165 248.909876 
" clip-path="url(#pdd85607558)" style="fill: none; stroke: #ff0000; stroke-width: 2"/>
    <path d="M 238.682231 255.913366 
L 238.682231 255.719771 
" clip-path="url(#pdd85607558)" style="fill: none; stroke: #ff0000; stroke-width: 2"/>
    <path d="M 259.434298 261.533375 
L 259.434298 261.30103 
" clip-path="url(#pdd85607558)" style="fill: none; stroke: #ff0000; stroke-width: 2"/>
    <path d="M 280.186364 266.835678 
L 280.186364 266.550912 
" clip-path="url(#pdd85607558)" style="fill: none; stroke: #ff0000; stroke-width: 2"/>
   </g>
   <g id="line2d_11">
    <defs>
     <path id="m51fa1d434f" d="M 3 0 
L -3 -0 
" style="stroke: #ff0000; stroke-width: 2"/>
    </defs>
    <g clip-path="url(#pdd85607558)">
     <use xlink:href="#m51fa1d434f" x="51.913636" y="145.469007" style="fill: #ff0000; stroke: #ff0000; stroke-width: 2"/>
     <use xlink:href="#m51fa1d434f" x="72.665702" y="165.377606" style="fill: #ff0000; stroke: #ff0000; stroke-width: 2"/>
     <use xlink:href="#m51fa1d434f" x="93.417769" y="182.381703" style="fill: #ff0000; stroke: #ff0000; stroke-width: 2"/>
     <use xlink:href="#m51fa1d434f" x="114.169835" y="197.535052" style="fill: #ff0000; stroke: #ff0000; stroke-width: 2"/>
     <use xlink:href="#m51fa1d434f" x="134.921901" y="211.730523" style="fill: #ff0000; stroke: #ff0000; stroke-width: 2"/>
     <use xlink:href="#m51fa1d434f" x="155.673967" y="222.86662" style="fill: #ff0000; stroke: #ff0000; stroke-width: 2"/>
     <use xlink:href="#m51fa1d434f" x="176.426033" y="233.509935" style="fill: #ff0000; stroke: #ff0000; stroke-width: 2"/>
     <use xlink:href="#m51fa1d434f" x="197.178099" y="241.777888" style="fill: #ff0000; stroke: #ff0000; stroke-width: 2"/>
     <use xlink:href="#m51fa1d434f" x="217.930165" y="249.182218" style="fill: #ff0000; stroke: #ff0000; stroke-width: 2"/>
     <use xlink:href="#m51fa1d434f" x="238.682231" y="255.913366" style="fill: #ff0000; stroke: #ff0000; stroke-width: 2"/>
     <use xlink:href="#m51fa1d434f" x="259.434298" y="261.533375" style="fill: #ff0000; stroke: #ff0000; stroke-width: 2"/>
     <use xlink:href="#m51fa1d434f" x="280.186364" y="266.835678" style="fill: #ff0000; stroke: #ff0000; stroke-width: 2"/>
    </g>
   </g>
   <g id="line2d_12">
    <g clip-path="url(#pdd85607558)">
     <use xlink:href="#m51fa1d434f" x="51.913636" y="144.104692" style="fill: #ff0000; stroke: #ff0000; stroke-width: 2"/>
     <use xlink:href="#m51fa1d434f" x="72.665702" y="163.896946" style="fill: #ff0000; stroke: #ff0000; stroke-width: 2"/>
     <use xlink:href="#m51fa1d434f" x="93.417769" y="181.654845" style="fill: #ff0000; stroke: #ff0000; stroke-width: 2"/>
     <use xlink:href="#m51fa1d434f" x="114.169835" y="196.622391" style="fill: #ff0000; stroke: #ff0000; stroke-width: 2"/>
     <use xlink:href="#m51fa1d434f" x="134.921901" y="210.794439" style="fill: #ff0000; stroke: #ff0000; stroke-width: 2"/>
     <use xlink:href="#m51fa1d434f" x="155.673967" y="222.299787" style="fill: #ff0000; stroke: #ff0000; stroke-width: 2"/>
     <use xlink:href="#m51fa1d434f" x="176.426033" y="232.943137" style="fill: #ff0000; stroke: #ff0000; stroke-width: 2"/>
     <use xlink:href="#m51fa1d434f" x="197.178099" y="241.080599" style="fill: #ff0000; stroke: #ff0000; stroke-width: 2"/>
     <use xlink:href="#m51fa1d434f" x="217.930165" y="248.909876" style="fill: #ff0000; stroke: #ff0000; stroke-width: 2"/>
     <use xlink:href="#m51fa1d434f" x="238.682231" y="255.719771" style="fill: #ff0000; stroke: #ff0000; stroke-width: 2"/>
     <use xlink:href="#m51fa1d434f" x="259.434298" y="261.30103" style="fill: #ff0000; stroke: #ff0000; stroke-width: 2"/>
     <use xlink:href="#m51fa1d434f" x="280.186364" y="266.550912" style="fill: #ff0000; stroke: #ff0000; stroke-width: 2"/>
    </g>
   </g>
   <g id="line2d_13">
    <path d="M 51.913636 127.925856 
L 72.665702 152.091904 
L 93.417769 177.974468 
L 114.169835 199.089241 
L 134.921901 216.59046 
L 155.673967 231.590883 
L 176.426033 242.756871 
L 197.178099 252.41669 
L 217.930165 261.109154 
L 238.682231 268.872289 
L 259.434298 275.169307 
L 280.186364 280.498037 
" clip-path="url(#pdd85607558)" style="fill: none; stroke: #000000; stroke-width: 1.5; stroke-linecap: square"/>
   </g>
   <g id="LineCollection_2">
    <path d="M 51.913636 128.871559 
L 51.913636 126.980153 
" clip-path="url(#pdd85607558)" style="fill: none; stroke: #000000; stroke-width: 2"/>
    <path d="M 72.665702 152.696768 
L 72.665702 151.487041 
" clip-path="url(#pdd85607558)" style="fill: none; stroke: #000000; stroke-width: 2"/>
    <path d="M 93.417769 178.619631 
L 93.417769 177.329305 
" clip-path="url(#pdd85607558)" style="fill: none; stroke: #000000; stroke-width: 2"/>
    <path d="M 114.169835 200.047721 
L 114.169835 198.13076 
" clip-path="url(#pdd85607558)" style="fill: none; stroke: #000000; stroke-width: 2"/>
    <path d="M 134.921901 217.083347 
L 134.921901 216.097573 
" clip-path="url(#pdd85607558)" style="fill: none; stroke: #000000; stroke-width: 2"/>
    <path d="M 155.673967 231.722402 
L 155.673967 231.459365 
" clip-path="url(#pdd85607558)" style="fill: none; stroke: #000000; stroke-width: 2"/>
    <path d="M 176.426033 242.889741 
L 176.426033 242.624002 
" clip-path="url(#pdd85607558)" style="fill: none; stroke: #000000; stroke-width: 2"/>
    <path d="M 197.178099 252.642375 
L 197.178099 252.191005 
" clip-path="url(#pdd85607558)" style="fill: none; stroke: #000000; stroke-width: 2"/>
    <path d="M 217.930165 261.326575 
L 217.930165 260.891732 
" clip-path="url(#pdd85607558)" style="fill: none; stroke: #000000; stroke-width: 2"/>
    <path d="M 238.682231 269.05873 
L 238.682231 268.685848 
" clip-path="url(#pdd85607558)" style="fill: none; stroke: #000000; stroke-width: 2"/>
    <path d="M 259.434298 275.252033 
L 259.434298 275.086581 
" clip-path="url(#pdd85607558)" style="fill: none; stroke: #000000; stroke-width: 2"/>
    <path d="M 280.186364 280.675245 
L 280.186364 280.32083 
" clip-path="url(#pdd85607558)" style="fill: none; stroke: #000000; stroke-width: 2"/>
   </g>
   <g id="line2d_14">
    <defs>
     <path id="m013ac041f2" d="M 3 0 
L -3 -0 
" style="stroke: #000000; stroke-width: 2"/>
    </defs>
    <g clip-path="url(#pdd85607558)">
     <use xlink:href="#m013ac041f2" x="51.913636" y="128.871559" style="stroke: #000000; stroke-width: 2"/>
     <use xlink:href="#m013ac041f2" x="72.665702" y="152.696768" style="stroke: #000000; stroke-width: 2"/>
     <use xlink:href="#m013ac041f2" x="93.417769" y="178.619631" style="stroke: #000000; stroke-width: 2"/>
     <use xlink:href="#m013ac041f2" x="114.169835" y="200.047721" style="stroke: #000000; stroke-width: 2"/>
     <use xlink:href="#m013ac041f2" x="134.921901" y="217.083347" style="stroke: #000000; stroke-width: 2"/>
     <use xlink:href="#m013ac041f2" x="155.673967" y="231.722402" style="stroke: #000000; stroke-width: 2"/>
     <use xlink:href="#m013ac041f2" x="176.426033" y="242.889741" style="stroke: #000000; stroke-width: 2"/>
     <use xlink:href="#m013ac041f2" x="197.178099" y="252.642375" style="stroke: #000000; stroke-width: 2"/>
     <use xlink:href="#m013ac041f2" x="217.930165" y="261.326575" style="stroke: #000000; stroke-width: 2"/>
     <use xlink:href="#m013ac041f2" x="238.682231" y="269.05873" style="stroke: #000000; stroke-width: 2"/>
     <use xlink:href="#m013ac041f2" x="259.434298" y="275.252033" style="stroke: #000000; stroke-width: 2"/>
     <use xlink:href="#m013ac041f2" x="280.186364" y="280.675245" style="stroke: #000000; stroke-width: 2"/>
    </g>
   </g>
   <g id="line2d_15">
    <g clip-path="url(#pdd85607558)">
     <use xlink:href="#m013ac041f2" x="51.913636" y="126.980153" style="stroke: #000000; stroke-width: 2"/>
     <use xlink:href="#m013ac041f2" x="72.665702" y="151.487041" style="stroke: #000000; stroke-width: 2"/>
     <use xlink:href="#m013ac041f2" x="93.417769" y="177.329305" style="stroke: #000000; stroke-width: 2"/>
     <use xlink:href="#m013ac041f2" x="114.169835" y="198.13076" style="stroke: #000000; stroke-width: 2"/>
     <use xlink:href="#m013ac041f2" x="134.921901" y="216.097573" style="stroke: #000000; stroke-width: 2"/>
     <use xlink:href="#m013ac041f2" x="155.673967" y="231.459365" style="stroke: #000000; stroke-width: 2"/>
     <use xlink:href="#m013ac041f2" x="176.426033" y="242.624002" style="stroke: #000000; stroke-width: 2"/>
     <use xlink:href="#m013ac041f2" x="197.178099" y="252.191005" style="stroke: #000000; stroke-width: 2"/>
     <use xlink:href="#m013ac041f2" x="217.930165" y="260.891732" style="stroke: #000000; stroke-width: 2"/>
     <use xlink:href="#m013ac041f2" x="238.682231" y="268.685848" style="stroke: #000000; stroke-width: 2"/>
     <use xlink:href="#m013ac041f2" x="259.434298" y="275.086581" style="stroke: #000000; stroke-width: 2"/>
     <use xlink:href="#m013ac041f2" x="280.186364" y="280.32083" style="stroke: #000000; stroke-width: 2"/>
    </g>
   </g>
   <g id="line2d_16">
    <path clip-path="url(#pdd85607558)" style="fill: none; stroke: #0000ff; stroke-width: 1.5; stroke-linecap: square"/>
   </g>
   <g id="LineCollection_3">
    <path clip-path="url(#pdd85607558)" style="fill: none; stroke: #0000ff; stroke-width: 2"/>
    <path clip-path="url(#pdd85607558)" style="fill: none; stroke: #0000ff; stroke-width: 2"/>
    <path clip-path="url(#pdd85607558)" style="fill: none; stroke: #0000ff; stroke-width: 2"/>
    <path clip-path="url(#pdd85607558)" style="fill: none; stroke: #0000ff; stroke-width: 2"/>
    <path clip-path="url(#pdd85607558)" style="fill: none; stroke: #0000ff; stroke-width: 2"/>
    <path clip-path="url(#pdd85607558)" style="fill: none; stroke: #0000ff; stroke-width: 2"/>
    <path clip-path="url(#pdd85607558)" style="fill: none; stroke: #0000ff; stroke-width: 2"/>
    <path clip-path="url(#pdd85607558)" style="fill: none; stroke: #0000ff; stroke-width: 2"/>
    <path clip-path="url(#pdd85607558)" style="fill: none; stroke: #0000ff; stroke-width: 2"/>
    <path clip-path="url(#pdd85607558)" style="fill: none; stroke: #0000ff; stroke-width: 2"/>
    <path clip-path="url(#pdd85607558)" style="fill: none; stroke: #0000ff; stroke-width: 2"/>
    <path clip-path="url(#pdd85607558)" style="fill: none; stroke: #0000ff; stroke-width: 2"/>
   </g>
   <g id="line2d_17">
    <defs>
     <path id="mb10f941025" d="M 3 0 
L -3 -0 
" style="stroke: #0000ff; stroke-width: 2"/>
    </defs>
    <g clip-path="url(#pdd85607558)"/>
   </g>
   <g id="line2d_18">
    <g clip-path="url(#pdd85607558)"/>
   </g>
   <g id="line2d_19">
    <path clip-path="url(#pdd85607558)" style="fill: none; stroke: #bf00bf; stroke-width: 1.5; stroke-linecap: square"/>
   </g>
   <g id="LineCollection_4">
    <path clip-path="url(#pdd85607558)" style="fill: none; stroke: #bf00bf; stroke-width: 2"/>
    <path clip-path="url(#pdd85607558)" style="fill: none; stroke: #bf00bf; stroke-width: 2"/>
    <path clip-path="url(#pdd85607558)" style="fill: none; stroke: #bf00bf; stroke-width: 2"/>
    <path clip-path="url(#pdd85607558)" style="fill: none; stroke: #bf00bf; stroke-width: 2"/>
    <path clip-path="url(#pdd85607558)" style="fill: none; stroke: #bf00bf; stroke-width: 2"/>
    <path clip-path="url(#pdd85607558)" style="fill: none; stroke: #bf00bf; stroke-width: 2"/>
    <path clip-path="url(#pdd85607558)" style="fill: none; stroke: #bf00bf; stroke-width: 2"/>
    <path clip-path="url(#pdd85607558)" style="fill: none; stroke: #bf00bf; stroke-width: 2"/>
    <path clip-path="url(#pdd85607558)" style="fill: none; stroke: #bf00bf; stroke-width: 2"/>
    <path clip-path="url(#pdd85607558)" style="fill: none; stroke: #bf00bf; stroke-width: 2"/>
    <path clip-path="url(#pdd85607558)" style="fill: none; stroke: #bf00bf; stroke-width: 2"/>
    <path clip-path="url(#pdd85607558)" style="fill: none; stroke: #bf00bf; stroke-width: 2"/>
   </g>
   <g id="line2d_20">
    <defs>
     <path id="m9d01371027" d="M 3 0 
L -3 -0 
" style="stroke: #bf00bf; stroke-width: 2"/>
    </defs>
    <g clip-path="url(#pdd85607558)"/>
   </g>
   <g id="line2d_21">
    <g clip-path="url(#pdd85607558)"/>
   </g>
   <g id="line2d_22">
    <path d="M 51.913636 144.786849 
L 72.665702 164.637276 
L 93.417769 182.018274 
L 114.169835 197.078722 
L 134.921901 211.262481 
L 155.673967 222.583203 
L 176.426033 233.226536 
L 197.178099 241.429243 
L 217.930165 249.046047 
L 238.682231 255.816568 
L 259.434298 261.417203 
L 280.186364 266.693295 
" clip-path="url(#pdd85607558)" style="fill: none; stroke: #ff0000; stroke-width: 1.5; stroke-linecap: square"/>
   </g>
   <g id="line2d_23">
    <path d="M 51.913636 127.925856 
L 72.665702 152.091904 
L 93.417769 177.974468 
L 114.169835 199.089241 
L 134.921901 216.59046 
L 155.673967 231.590883 
L 176.426033 242.756871 
L 197.178099 252.41669 
L 217.930165 261.109154 
L 238.682231 268.872289 
L 259.434298 275.169307 
L 280.186364 280.498037 
" clip-path="url(#pdd85607558)" style="fill: none; stroke: #000000; stroke-width: 1.5; stroke-linecap: square"/>
   </g>
   <g id="line2d_24">
    <path clip-path="url(#pdd85607558)" style="fill: none; stroke: #0000ff; stroke-width: 1.5; stroke-linecap: square"/>
   </g>
   <g id="line2d_25">
    <path clip-path="url(#pdd85607558)" style="fill: none; stroke: #bf00bf; stroke-width: 1.5; stroke-linecap: square"/>
   </g>
   <g id="patch_3">
    <path d="M 40.5 288.36 
L 40.5 38.88 
" style="fill: none; stroke: #000000; stroke-width: 1.6; stroke-linejoin: miter; stroke-linecap: square"/>
   </g>
   <g id="patch_4">
    <path d="M 291.6 288.36 
L 291.6 38.88 
" style="fill: none; stroke: #000000; stroke-width: 1.6; stroke-linejoin: miter; stroke-linecap: square"/>
   </g>
   <g id="patch_5">
    <path d="M 40.5 288.36 
L 291.6 288.36 
" style="fill: none; stroke: #000000; stroke-width: 1.6; stroke-linejoin: miter; stroke-linecap: square"/>
   </g>
   <g id="patch_6">
    <path d="M 40.5 38.88 
L 291.6 38.88 
" style="fill: none; stroke: #000000; stroke-width: 1.6; stroke-linejoin: miter; stroke-linecap: square"/>
   </g>
   <g id="legend_1">
    <g id="patch_7">
     <path d="M 209.120625 118.935 
L 283.2 118.935 
Q 285.6 118.935 285.6 116.535 
L 285.6 47.28 
Q 285.6 44.88 283.2 44.88 
L 209.120625 44.88 
Q 206.720625 44.88 206.720625 47.28 
L 206.720625 116.535 
Q 206.720625 118.935 209.120625 118.935 
z
" style="fill: #ffffff; opacity: 0.8"/>
    </g>
    <g id="line2d_26">
     <path d="M 211.520625 54.598125 
L 223.520625 54.598125 
L 235.520625 54.598125 
" style="fill: none; stroke: #ff0000; stroke-width: 1.5; stroke-linecap: square"/>
    </g>
    <g id="text_10">
     <!-- M=4 -->
     <g transform="translate(245.120625 58.798125) scale(0.12 -0.12)">
      <defs>
       <path id="DejaVuSans-4d" d="M 628 4666 
L 1569 4666 
L 2759 1491 
L 3956 4666 
L 4897 4666 
L 4897 0 
L 4281 0 
L 4281 4097 
L 3078 897 
L 2444 897 
L 1241 4097 
L 1241 0 
L 628 0 
L 628 4666 
z
" transform="scale(0.015625)"/>
       <path id="DejaVuSans-3d" d="M 678 2906 
L 4684 2906 
L 4684 2381 
L 678 2381 
L 678 2906 
z
M 678 1631 
L 4684 1631 
L 4684 1100 
L 678 1100 
L 678 1631 
z
" transform="scale(0.015625)"/>
      </defs>
      <use xlink:href="#DejaVuSans-4d"/>
      <use xlink:href="#DejaVuSans-3d" x="86.279297"/>
      <use xlink:href="#DejaVuSans-34" x="170.068359"/>
     </g>
    </g>
    <g id="line2d_27">
     <path d="M 211.520625 72.211875 
L 223.520625 72.211875 
L 235.520625 72.211875 
" style="fill: none; stroke: #000000; stroke-width: 1.5; stroke-linecap: square"/>
    </g>
    <g id="text_11">
     <!-- M=8 -->
     <g transform="translate(245.120625 76.411875) scale(0.12 -0.12)">
      <defs>
       <path id="DejaVuSans-38" d="M 2034 2216 
Q 1584 2216 1326 1975 
Q 1069 1734 1069 1313 
Q 1069 891 1326 650 
Q 1584 409 2034 409 
Q 2484 409 2743 651 
Q 3003 894 3003 1313 
Q 3003 1734 2745 1975 
Q 2488 2216 2034 2216 
z
M 1403 2484 
Q 997 2584 770 2862 
Q 544 3141 544 3541 
Q 544 4100 942 4425 
Q 1341 4750 2034 4750 
Q 2731 4750 3128 4425 
Q 3525 4100 3525 3541 
Q 3525 3141 3298 2862 
Q 3072 2584 2669 2484 
Q 3125 2378 3379 2068 
Q 3634 1759 3634 1313 
Q 3634 634 3220 271 
Q 2806 -91 2034 -91 
Q 1263 -91 848 271 
Q 434 634 434 1313 
Q 434 1759 690 2068 
Q 947 2378 1403 2484 
z
M 1172 3481 
Q 1172 3119 1398 2916 
Q 1625 2713 2034 2713 
Q 2441 2713 2670 2916 
Q 2900 3119 2900 3481 
Q 2900 3844 2670 4047 
Q 2441 4250 2034 4250 
Q 1625 4250 1398 4047 
Q 1172 3844 1172 3481 
z
" transform="scale(0.015625)"/>
      </defs>
      <use xlink:href="#DejaVuSans-4d"/>
      <use xlink:href="#DejaVuSans-3d" x="86.279297"/>
      <use xlink:href="#DejaVuSans-38" x="170.068359"/>
     </g>
    </g>
    <g id="line2d_28">
     <path d="M 211.520625 89.825625 
L 223.520625 89.825625 
L 235.520625 89.825625 
" style="fill: none; stroke: #0000ff; stroke-width: 1.5; stroke-linecap: square"/>
    </g>
    <g id="text_12">
     <!-- M=16 -->
     <g transform="translate(245.120625 94.025625) scale(0.12 -0.12)">
      <defs>
       <path id="DejaVuSans-36" d="M 2113 2584 
Q 1688 2584 1439 2293 
Q 1191 2003 1191 1497 
Q 1191 994 1439 701 
Q 1688 409 2113 409 
Q 2538 409 2786 701 
Q 3034 994 3034 1497 
Q 3034 2003 2786 2293 
Q 2538 2584 2113 2584 
z
M 3366 4563 
L 3366 3988 
Q 3128 4100 2886 4159 
Q 2644 4219 2406 4219 
Q 1781 4219 1451 3797 
Q 1122 3375 1075 2522 
Q 1259 2794 1537 2939 
Q 1816 3084 2150 3084 
Q 2853 3084 3261 2657 
Q 3669 2231 3669 1497 
Q 3669 778 3244 343 
Q 2819 -91 2113 -91 
Q 1303 -91 875 529 
Q 447 1150 447 2328 
Q 447 3434 972 4092 
Q 1497 4750 2381 4750 
Q 2619 4750 2861 4703 
Q 3103 4656 3366 4563 
z
" transform="scale(0.015625)"/>
      </defs>
      <use xlink:href="#DejaVuSans-4d"/>
      <use xlink:href="#DejaVuSans-3d" x="86.279297"/>
      <use xlink:href="#DejaVuSans-31" x="170.068359"/>
      <use xlink:href="#DejaVuSans-36" x="233.691406"/>
     </g>
    </g>
    <g id="line2d_29">
     <path d="M 211.520625 107.439375 
L 223.520625 107.439375 
L 235.520625 107.439375 
" style="fill: none; stroke: #bf00bf; stroke-width: 1.5; stroke-linecap: square"/>
    </g>
    <g id="text_13">
     <!-- M=32 -->
     <g transform="translate(245.120625 111.639375) scale(0.12 -0.12)">
      <use xlink:href="#DejaVuSans-4d"/>
      <use xlink:href="#DejaVuSans-3d" x="86.279297"/>
      <use xlink:href="#DejaVuSans-33" x="170.068359"/>
      <use xlink:href="#DejaVuSans-32" x="233.691406"/>
     </g>
    </g>
   </g>
  </g>
 </g>
 <defs>
  <clipPath id="pdd85607558">
   <rect x="40.5" y="38.88" width="251.1" height="249.48"/>
  </clipPath>
 </defs>
</svg>
