<?xml version="1.0" encoding="utf-8" standalone="no"?>
<!DOCTYPE svg PUBLIC "-//W3C//DTD SVG 1.1//EN"
  "http://www.w3.org/Graphics/SVG/1.1/DTD/svg11.dtd">
<svg xmlns:xlink="http://www.w3.org/1999/xlink" width="324pt" height="324pt" viewBox="0 0 324 324" xmlns="http://www.w3.org/2000/svg" version="1.1">
 <metadata>
  <rdf:RDF xmlns:dc="http://purl.org/dc/elements/1.1/" xmlns:cc="http://creativecommons.org/ns#" xmlns:rdf="http://www.w3.org/1999/02/22-rdf-syntax-ns#">
   <cc:Work>
    <dc:type rdf:resource="http://purl.org/dc/dcmitype/StillImage"/>
    <dc:date>2026-01-08T19:59:42.228563</dc:date>
    <dc:format>image/svg+xml</dc:format>
    <dc:creator>
     <cc:Agent>
      <dc:title>Matplotlib v3.8.0, https://matplotlib.org/</dc:title>
     </cc:Agent>
    </dc:creator>
   </cc:Work>
  </rdf:RDF>
 </metadata>
 <defs>
  <style type="text/css">*{stroke-linejoin: round; stroke-linecap: butt}</style>
 </defs>
 <g id="figure_1">
  <g id="patch_1">
   <path d="M 0 324 
L 324 324 
L 324 0 
L 0 0 
z
" style="fill: #ffffff"/>
  </g>
  <g id="axes_1">
   <g id="patch_2">
    <path d="M 40.5 288.36 
L 291.6 288.36 
L 291.6 38.88 
L 40.5 38.88 
z
" style="fill: #ffffff"/>
   </g>
   <g id="matplotlib.axis_1">
    <g id="xtick_1">
     <g id="line2d_1">
      <defs>
       <path id="maed7aebdfd" d="M 0 0 
L 0 8 
" style="stroke: #000000; stroke-width: 1.5"/>
      </defs>
      <g>
       <use xlink:href="#maed7aebdfd" x="51.913636" y="288.36" style="stroke: #000000; stroke-width: 1.5"/>
      </g>
     </g>
     <g id="text_1">
      <!-- 2.0 -->
      <g transform="translate(42.371761 308.978125) scale(0.12 -0.12)">
       <defs>
        <path id="DejaVuSans-32" d="M 1228 531 
L 3431 531 
L 3431 0 
L 469 0 
L 469 531 
Q 828 903 1448 1529 
Q 2069 2156 2228 2338 
Q 2531 2678 2651 2914 
Q 2772 3150 2772 3378 
Q 2772 3750 2511 3984 
Q 2250 4219 1831 4219 
Q 1534 4219 1204 4116 
Q 875 4013 500 3803 
L 500 4441 
Q 881 4594 1212 4672 
Q 1544 4750 1819 4750 
Q 2544 4750 2975 4387 
Q 3406 4025 3406 3419 
Q 3406 3131 3298 2873 
Q 3191 2616 2906 2266 
Q 2828 2175 2409 1742 
Q 1991 1309 1228 531 
z
" transform="scale(0.015625)"/>
        <path id="DejaVuSans-2e" d="M 684 794 
L 1344 794 
L 1344 0 
L 684 0 
L 684 794 
z
" transform="scale(0.015625)"/>
        <path id="DejaVuSans-30" d="M 2034 4250 
Q 1547 4250 1301 3770 
Q 1056 3291 1056 2328 
Q 1056 1369 1301 889 
Q 1547 409 2034 409 
Q 2525 409 2770 889 
Q 3016 1369 3016 2328 
Q 3016 3291 2770 3770 
Q 2525 4250 2034 4250 
z
M 2034 4750 
Q 2819 4750 3233 4129 
Q 3647 3509 3647 2328 
Q 3647 1150 3233 529 
Q 2819 -91 2034 -91 
Q 1250 -91 836 529 
Q 422 1150 422 2328 
Q 422 3509 836 4129 
Q 1250 4750 2034 4750 
z
" transform="scale(0.015625)"/>
       </defs>
       <use xlink:href="#DejaVuSans-32"/>
       <use xlink:href="#DejaVuSans-2e" x="63.623047"/>
       <use xlink:href="#DejaVuSans-30" x="95.410156"/>
      </g>
     </g>
    </g>
    <g id="xtick_2">
     <g id="line2d_2">
      <g>
       <use xlink:href="#maed7aebdfd" x="103.793802" y="288.36" style="stroke: #000000; stroke-width: 1.5"/>
      </g>
     </g>
     <g id="text_2">
      <!-- 2.5 -->
      <g transform="translate(94.251927 308.978125) scale(0.12 -0.12)">
       <defs>
        <path id="DejaVuSans-35" d="M 691 4666 
L 3169 4666 
L 3169 4134 
L 1269 4134 
L 1269 2991 
Q 1406 3038 1543 3061 
Q 1681 3084 1819 3084 
Q 2600 3084 3056 2656 
Q 3513 2228 3513 1497 
Q 3513 744 3044 326 
Q 2575 -91 1722 -91 
Q 1428 -91 1123 -41 
Q 819 9 494 109 
L 494 744 
Q 775 591 1075 516 
Q 1375 441 1709 441 
Q 2250 441 2565 725 
Q 2881 1009 2881 1497 
Q 2881 1984 2565 2268 
Q 2250 2553 1709 2553 
Q 1456 2553 1204 2497 
Q 953 2441 691 2322 
L 691 4666 
z
" transform="scale(0.015625)"/>
       </defs>
       <use xlink:href="#DejaVuSans-32"/>
       <use xlink:href="#DejaVuSans-2e" x="63.623047"/>
       <use xlink:href="#DejaVuSans-35" x="95.410156"/>
      </g>
     </g>
    </g>
    <g id="xtick_3">
     <g id="line2d_3">
      <g>
       <use xlink:href="#maed7aebdfd" x="155.673967" y="288.36" style="stroke: #000000; stroke-width: 1.5"/>
      </g>
     </g>
     <g id="text_3">
      <!-- 3.0 -->
      <g transform="translate(146.132092 308.978125) scale(0.12 -0.12)">
       <defs>
        <path id="DejaVuSans-33" d="M 2597 2516 
Q 3050 2419 3304 2112 
Q 3559 1806 3559 1356 
Q 3559 666 3084 287 
Q 2609 -91 1734 -91 
Q 1441 -91 1130 -33 
Q 819 25 488 141 
L 488 750 
Q 750 597 1062 519 
Q 1375 441 1716 441 
Q 2309 441 2620 675 
Q 2931 909 2931 1356 
Q 2931 1769 2642 2001 
Q 2353 2234 1838 2234 
L 1294 2234 
L 1294 2753 
L 1863 2753 
Q 2328 2753 2575 2939 
Q 2822 3125 2822 3475 
Q 2822 3834 2567 4026 
Q 2313 4219 1838 4219 
Q 1578 4219 1281 4162 
Q 984 4106 628 3988 
L 628 4550 
Q 988 4650 1302 4700 
Q 1616 4750 1894 4750 
Q 2613 4750 3031 4423 
Q 3450 4097 3450 3541 
Q 3450 3153 3228 2886 
Q 3006 2619 2597 2516 
z
" transform="scale(0.015625)"/>
       </defs>
       <use xlink:href="#DejaVuSans-33"/>
       <use xlink:href="#DejaVuSans-2e" x="63.623047"/>
       <use xlink:href="#DejaVuSans-30" x="95.410156"/>
      </g>
     </g>
    </g>
    <g id="xtick_4">
     <g id="line2d_4">
      <g>
       <use xlink:href="#maed7aebdfd" x="207.554132" y="288.36" style="stroke: #000000; stroke-width: 1.5"/>
      </g>
     </g>
     <g id="text_4">
      <!-- 3.5 -->
      <g transform="translate(198.012257 308.978125) scale(0.12 -0.12)">
       <use xlink:href="#DejaVuSans-33"/>
       <use xlink:href="#DejaVuSans-2e" x="63.623047"/>
       <use xlink:href="#DejaVuSans-35" x="95.410156"/>
      </g>
     </g>
    </g>
    <g id="xtick_5">
     <g id="line2d_5">
      <g>
       <use xlink:href="#maed7aebdfd" x="259.434298" y="288.36" style="stroke: #000000; stroke-width: 1.5"/>
      </g>
     </g>
     <g id="text_5">
      <!-- 4.0 -->
      <g transform="translate(249.892423 308.978125) scale(0.12 -0.12)">
       <defs>
        <path id="DejaVuSans-34" d="M 2419 4116 
L 825 1625 
L 2419 1625 
L 2419 4116 
z
M 2253 4666 
L 3047 4666 
L 3047 1625 
L 3713 1625 
L 3713 1100 
L 3047 1100 
L 3047 0 
L 2419 0 
L 2419 1100 
L 313 1100 
L 313 1709 
L 2253 4666 
z
" transform="scale(0.015625)"/>
       </defs>
       <use xlink:href="#DejaVuSans-34"/>
       <use xlink:href="#DejaVuSans-2e" x="63.623047"/>
       <use xlink:href="#DejaVuSans-30" x="95.410156"/>
      </g>
     </g>
    </g>
   </g>
   <g id="matplotlib.axis_2">
    <g id="ytick_1">
     <g id="line2d_6">
      <defs>
       <path id="mfae5bb4a13" d="M 0 0 
L -8 0 
" style="stroke: #000000; stroke-width: 1.5"/>
      </defs>
      <g>
       <use xlink:href="#mfae5bb4a13" x="40.5" y="247.44466" style="stroke: #000000; stroke-width: 1.5"/>
      </g>
     </g>
     <g id="text_6">
      <!-- 1 -->
      <g transform="translate(21.365 252.003723) scale(0.12 -0.12)">
       <defs>
        <path id="DejaVuSans-31" d="M 794 531 
L 1825 531 
L 1825 4091 
L 703 3866 
L 703 4441 
L 1819 4666 
L 2450 4666 
L 2450 531 
L 3481 531 
L 3481 0 
L 794 0 
L 794 531 
z
" transform="scale(0.015625)"/>
       </defs>
       <use xlink:href="#DejaVuSans-31"/>
      </g>
     </g>
    </g>
    <g id="ytick_2">
     <g id="line2d_7">
      <g>
       <use xlink:href="#mfae5bb4a13" x="40.5" y="190.053054" style="stroke: #000000; stroke-width: 1.5"/>
      </g>
     </g>
     <g id="text_7">
      <!-- 2 -->
      <g transform="translate(21.365 194.612116) scale(0.12 -0.12)">
       <use xlink:href="#DejaVuSans-32"/>
      </g>
     </g>
    </g>
    <g id="ytick_3">
     <g id="line2d_8">
      <g>
       <use xlink:href="#mfae5bb4a13" x="40.5" y="132.661447" style="stroke: #000000; stroke-width: 1.5"/>
      </g>
     </g>
     <g id="text_8">
      <!-- 3 -->
      <g transform="translate(21.365 137.220509) scale(0.12 -0.12)">
       <use xlink:href="#DejaVuSans-33"/>
      </g>
     </g>
    </g>
    <g id="ytick_4">
     <g id="line2d_9">
      <g>
       <use xlink:href="#mfae5bb4a13" x="40.5" y="75.26984" style="stroke: #000000; stroke-width: 1.5"/>
      </g>
     </g>
     <g id="text_9">
      <!-- 4 -->
      <g transform="translate(21.365 79.828902) scale(0.12 -0.12)">
       <use xlink:href="#DejaVuSans-34"/>
      </g>
     </g>
    </g>
   </g>
   <g id="line2d_10">
    <path d="M 51.913636 134.061317 
L 72.665702 142.104251 
L 93.417769 156.614771 
L 114.169835 168.43618 
L 134.921901 181.694573 
L 155.673967 194.393124 
L 176.426033 204.997223 
L 197.178099 215.941737 
L 217.930165 224.5145 
L 238.682231 232.54699 
L 259.434298 239.323915 
L 280.186364 245.186809 
" clip-path="url(#p165ae693fb)" style="fill: none; stroke: #ff0000; stroke-width: 1.5; stroke-linecap: square"/>
   </g>
   <g id="LineCollection_1">
    <path d="M 51.913636 134.548037 
L 51.913636 133.574596 
" clip-path="url(#p165ae693fb)" style="fill: none; stroke: #ff0000; stroke-width: 2"/>
    <path d="M 72.665702 142.539187 
L 72.665702 141.669315 
" clip-path="url(#p165ae693fb)" style="fill: none; stroke: #ff0000; stroke-width: 2"/>
    <path d="M 93.417769 157.091523 
L 93.417769 156.138018 
" clip-path="url(#p165ae693fb)" style="fill: none; stroke: #ff0000; stroke-width: 2"/>
    <path d="M 114.169835 168.895371 
L 114.169835 167.976989 
" clip-path="url(#p165ae693fb)" style="fill: none; stroke: #ff0000; stroke-width: 2"/>
    <path d="M 134.921901 181.980511 
L 134.921901 181.408634 
" clip-path="url(#p165ae693fb)" style="fill: none; stroke: #ff0000; stroke-width: 2"/>
    <path d="M 155.673967 194.724035 
L 155.673967 194.062213 
" clip-path="url(#p165ae693fb)" style="fill: none; stroke: #ff0000; stroke-width: 2"/>
    <path d="M 176.426033 205.323449 
L 176.426033 204.670998 
" clip-path="url(#p165ae693fb)" style="fill: none; stroke: #ff0000; stroke-width: 2"/>
    <path d="M 197.178099 216.140867 
L 197.178099 215.742607 
" clip-path="url(#p165ae693fb)" style="fill: none; stroke: #ff0000; stroke-width: 2"/>
    <path d="M 217.930165 224.698921 
L 217.930165 224.330078 
" clip-path="url(#p165ae693fb)" style="fill: none; stroke: #ff0000; stroke-width: 2"/>
    <path d="M 238.682231 232.703094 
L 238.682231 232.390886 
" clip-path="url(#p165ae693fb)" style="fill: none; stroke: #ff0000; stroke-width: 2"/>
    <path d="M 259.434298 239.454874 
L 259.434298 239.192956 
" clip-path="url(#p165ae693fb)" style="fill: none; stroke: #ff0000; stroke-width: 2"/>
    <path d="M 280.186364 245.385748 
L 280.186364 244.98787 
" clip-path="url(#p165ae693fb)" style="fill: none; stroke: #ff0000; stroke-width: 2"/>
   </g>
   <g id="line2d_11">
    <defs>
     <path id="m32585f9376" d="M 3 0 
L -3 -0 
" style="stroke: #ff0000; stroke-width: 2"/>
    </defs>
    <g clip-path="url(#p165ae693fb)">
     <use xlink:href="#m32585f9376" x="51.913636" y="134.548037" style="fill: #ff0000; stroke: #ff0000; stroke-width: 2"/>
     <use xlink:href="#m32585f9376" x="72.665702" y="142.539187" style="fill: #ff0000; stroke: #ff0000; stroke-width: 2"/>
     <use xlink:href="#m32585f9376" x="93.417769" y="157.091523" style="fill: #ff0000; stroke: #ff0000; stroke-width: 2"/>
     <use xlink:href="#m32585f9376" x="114.169835" y="168.895371" style="fill: #ff0000; stroke: #ff0000; stroke-width: 2"/>
     <use xlink:href="#m32585f9376" x="134.921901" y="181.980511" style="fill: #ff0000; stroke: #ff0000; stroke-width: 2"/>
     <use xlink:href="#m32585f9376" x="155.673967" y="194.724035" style="fill: #ff0000; stroke: #ff0000; stroke-width: 2"/>
     <use xlink:href="#m32585f9376" x="176.426033" y="205.323449" style="fill: #ff0000; stroke: #ff0000; stroke-width: 2"/>
     <use xlink:href="#m32585f9376" x="197.178099" y="216.140867" style="fill: #ff0000; stroke: #ff0000; stroke-width: 2"/>
     <use xlink:href="#m32585f9376" x="217.930165" y="224.698921" style="fill: #ff0000; stroke: #ff0000; stroke-width: 2"/>
     <use xlink:href="#m32585f9376" x="238.682231" y="232.703094" style="fill: #ff0000; stroke: #ff0000; stroke-width: 2"/>
     <use xlink:href="#m32585f9376" x="259.434298" y="239.454874" style="fill: #ff0000; stroke: #ff0000; stroke-width: 2"/>
     <use xlink:href="#m32585f9376" x="280.186364" y="245.385748" style="fill: #ff0000; stroke: #ff0000; stroke-width: 2"/>
    </g>
   </g>
   <g id="line2d_12">
    <g clip-path="url(#p165ae693fb)">
     <use xlink:href="#m32585f9376" x="51.913636" y="133.574596" style="fill: #ff0000; stroke: #ff0000; stroke-width: 2"/>
     <use xlink:href="#m32585f9376" x="72.665702" y="141.669315" style="fill: #ff0000; stroke: #ff0000; stroke-width: 2"/>
     <use xlink:href="#m32585f9376" x="93.417769" y="156.138018" style="fill: #ff0000; stroke: #ff0000; stroke-width: 2"/>
     <use xlink:href="#m32585f9376" x="114.169835" y="167.976989" style="fill: #ff0000; stroke: #ff0000; stroke-width: 2"/>
     <use xlink:href="#m32585f9376" x="134.921901" y="181.408634" style="fill: #ff0000; stroke: #ff0000; stroke-width: 2"/>
     <use xlink:href="#m32585f9376" x="155.673967" y="194.062213" style="fill: #ff0000; stroke: #ff0000; stroke-width: 2"/>
     <use xlink:href="#m32585f9376" x="176.426033" y="204.670998" style="fill: #ff0000; stroke: #ff0000; stroke-width: 2"/>
     <use xlink:href="#m32585f9376" x="197.178099" y="215.742607" style="fill: #ff0000; stroke: #ff0000; stroke-width: 2"/>
     <use xlink:href="#m32585f9376" x="217.930165" y="224.330078" style="fill: #ff0000; stroke: #ff0000; stroke-width: 2"/>
     <use xlink:href="#m32585f9376" x="238.682231" y="232.390886" style="fill: #ff0000; stroke: #ff0000; stroke-width: 2"/>
     <use xlink:href="#m32585f9376" x="259.434298" y="239.192956" style="fill: #ff0000; stroke: #ff0000; stroke-width: 2"/>
     <use xlink:href="#m32585f9376" x="280.186364" y="244.98787" style="fill: #ff0000; stroke: #ff0000; stroke-width: 2"/>
    </g>
   </g>
   <g id="line2d_13">
    <path d="M 51.913636 100.823072 
L 72.665702 117.088545 
L 93.417769 137.090625 
L 114.169835 156.286179 
L 134.921901 175.37594 
L 155.673967 191.44264 
L 176.426033 205.96676 
L 197.178099 220.665698 
L 217.930165 231.235952 
L 238.682231 240.956324 
L 259.434298 248.694725 
L 280.186364 255.882438 
" clip-path="url(#p165ae693fb)" style="fill: none; stroke: #000000; stroke-width: 1.5; stroke-linecap: square"/>
   </g>
   <g id="LineCollection_2">
    <path d="M 51.913636 102.410686 
L 51.913636 99.235458 
" clip-path="url(#p165ae693fb)" style="fill: none; stroke: #000000; stroke-width: 2"/>
    <path d="M 72.665702 118.617762 
L 72.665702 115.559327 
" clip-path="url(#p165ae693fb)" style="fill: none; stroke: #000000; stroke-width: 2"/>
    <path d="M 93.417769 138.137781 
L 93.417769 136.043469 
" clip-path="url(#p165ae693fb)" style="fill: none; stroke: #000000; stroke-width: 2"/>
    <path d="M 114.169835 157.170875 
L 114.169835 155.401484 
" clip-path="url(#p165ae693fb)" style="fill: none; stroke: #000000; stroke-width: 2"/>
    <path d="M 134.921901 175.949198 
L 134.921901 174.802682 
" clip-path="url(#p165ae693fb)" style="fill: none; stroke: #000000; stroke-width: 2"/>
    <path d="M 155.673967 192.031916 
L 155.673967 190.853363 
" clip-path="url(#p165ae693fb)" style="fill: none; stroke: #000000; stroke-width: 2"/>
    <path d="M 176.426033 206.259893 
L 176.426033 205.673626 
" clip-path="url(#p165ae693fb)" style="fill: none; stroke: #000000; stroke-width: 2"/>
    <path d="M 197.178099 220.904969 
L 197.178099 220.426426 
" clip-path="url(#p165ae693fb)" style="fill: none; stroke: #000000; stroke-width: 2"/>
    <path d="M 217.930165 231.46198 
L 217.930165 231.009925 
" clip-path="url(#p165ae693fb)" style="fill: none; stroke: #000000; stroke-width: 2"/>
    <path d="M 238.682231 241.255799 
L 238.682231 240.656848 
" clip-path="url(#p165ae693fb)" style="fill: none; stroke: #000000; stroke-width: 2"/>
    <path d="M 259.434298 248.879832 
L 259.434298 248.509618 
" clip-path="url(#p165ae693fb)" style="fill: none; stroke: #000000; stroke-width: 2"/>
    <path d="M 280.186364 256.022718 
L 280.186364 255.742158 
" clip-path="url(#p165ae693fb)" style="fill: none; stroke: #000000; stroke-width: 2"/>
   </g>
   <g id="line2d_14">
    <defs>
     <path id="mbe03a151d9" d="M 3 0 
L -3 -0 
" style="stroke: #000000; stroke-width: 2"/>
    </defs>
    <g clip-path="url(#p165ae693fb)">
     <use xlink:href="#mbe03a151d9" x="51.913636" y="102.410686" style="stroke: #000000; stroke-width: 2"/>
     <use xlink:href="#mbe03a151d9" x="72.665702" y="118.617762" style="stroke: #000000; stroke-width: 2"/>
     <use xlink:href="#mbe03a151d9" x="93.417769" y="138.137781" style="stroke: #000000; stroke-width: 2"/>
     <use xlink:href="#mbe03a151d9" x="114.169835" y="157.170875" style="stroke: #000000; stroke-width: 2"/>
     <use xlink:href="#mbe03a151d9" x="134.921901" y="175.949198" style="stroke: #000000; stroke-width: 2"/>
     <use xlink:href="#mbe03a151d9" x="155.673967" y="192.031916" style="stroke: #000000; stroke-width: 2"/>
     <use xlink:href="#mbe03a151d9" x="176.426033" y="206.259893" style="stroke: #000000; stroke-width: 2"/>
     <use xlink:href="#mbe03a151d9" x="197.178099" y="220.904969" style="stroke: #000000; stroke-width: 2"/>
     <use xlink:href="#mbe03a151d9" x="217.930165" y="231.46198" style="stroke: #000000; stroke-width: 2"/>
     <use xlink:href="#mbe03a151d9" x="238.682231" y="241.255799" style="stroke: #000000; stroke-width: 2"/>
     <use xlink:href="#mbe03a151d9" x="259.434298" y="248.879832" style="stroke: #000000; stroke-width: 2"/>
     <use xlink:href="#mbe03a151d9" x="280.186364" y="256.022718" style="stroke: #000000; stroke-width: 2"/>
    </g>
   </g>
   <g id="line2d_15">
    <g clip-path="url(#p165ae693fb)">
     <use xlink:href="#mbe03a151d9" x="51.913636" y="99.235458" style="stroke: #000000; stroke-width: 2"/>
     <use xlink:href="#mbe03a151d9" x="72.665702" y="115.559327" style="stroke: #000000; stroke-width: 2"/>
     <use xlink:href="#mbe03a151d9" x="93.417769" y="136.043469" style="stroke: #000000; stroke-width: 2"/>
     <use xlink:href="#mbe03a151d9" x="114.169835" y="155.401484" style="stroke: #000000; stroke-width: 2"/>
     <use xlink:href="#mbe03a151d9" x="134.921901" y="174.802682" style="stroke: #000000; stroke-width: 2"/>
     <use xlink:href="#mbe03a151d9" x="155.673967" y="190.853363" style="stroke: #000000; stroke-width: 2"/>
     <use xlink:href="#mbe03a151d9" x="176.426033" y="205.673626" style="stroke: #000000; stroke-width: 2"/>
     <use xlink:href="#mbe03a151d9" x="197.178099" y="220.426426" style="stroke: #000000; stroke-width: 2"/>
     <use xlink:href="#mbe03a151d9" x="217.930165" y="231.009925" style="stroke: #000000; stroke-width: 2"/>
     <use xlink:href="#mbe03a151d9" x="238.682231" y="240.656848" style="stroke: #000000; stroke-width: 2"/>
     <use xlink:href="#mbe03a151d9" x="259.434298" y="248.509618" style="stroke: #000000; stroke-width: 2"/>
     <use xlink:href="#mbe03a151d9" x="280.186364" y="255.742158" style="stroke: #000000; stroke-width: 2"/>
    </g>
   </g>
   <g id="line2d_16">
    <path d="M 51.913636 74.028764 
L 72.665702 97.361075 
L 93.417769 116.389572 
L 114.169835 143.092067 
L 134.921901 166.442846 
L 155.673967 188.809372 
L 176.426033 209.866622 
L 197.178099 225.577521 
L 217.930165 239.775455 
L 238.682231 250.687488 
L 259.434298 259.394045 
L 280.186364 266.38312 
" clip-path="url(#p165ae693fb)" style="fill: none; stroke: #0000ff; stroke-width: 1.5; stroke-linecap: square"/>
   </g>
   <g id="LineCollection_3">
    <path d="M 51.913636 76.23769 
L 51.913636 71.819839 
" clip-path="url(#p165ae693fb)" style="fill: none; stroke: #0000ff; stroke-width: 2"/>
    <path d="M 72.665702 98.389371 
L 72.665702 96.332779 
" clip-path="url(#p165ae693fb)" style="fill: none; stroke: #0000ff; stroke-width: 2"/>
    <path d="M 93.417769 118.540741 
L 93.417769 114.238402 
" clip-path="url(#p165ae693fb)" style="fill: none; stroke: #0000ff; stroke-width: 2"/>
    <path d="M 114.169835 144.140626 
L 114.169835 142.043507 
" clip-path="url(#p165ae693fb)" style="fill: none; stroke: #0000ff; stroke-width: 2"/>
    <path d="M 134.921901 167.039309 
L 134.921901 165.846384 
" clip-path="url(#p165ae693fb)" style="fill: none; stroke: #0000ff; stroke-width: 2"/>
    <path d="M 155.673967 189.067417 
L 155.673967 188.551327 
" clip-path="url(#p165ae693fb)" style="fill: none; stroke: #0000ff; stroke-width: 2"/>
    <path d="M 176.426033 210.112032 
L 176.426033 209.621211 
" clip-path="url(#p165ae693fb)" style="fill: none; stroke: #0000ff; stroke-width: 2"/>
    <path d="M 197.178099 225.8512 
L 197.178099 225.303842 
" clip-path="url(#p165ae693fb)" style="fill: none; stroke: #0000ff; stroke-width: 2"/>
    <path d="M 217.930165 240.167605 
L 217.930165 239.383304 
" clip-path="url(#p165ae693fb)" style="fill: none; stroke: #0000ff; stroke-width: 2"/>
    <path d="M 238.682231 250.773322 
L 238.682231 250.601655 
" clip-path="url(#p165ae693fb)" style="fill: none; stroke: #0000ff; stroke-width: 2"/>
    <path d="M 259.434298 259.556964 
L 259.434298 259.231126 
" clip-path="url(#p165ae693fb)" style="fill: none; stroke: #0000ff; stroke-width: 2"/>
    <path d="M 280.186364 266.527669 
L 280.186364 266.238571 
" clip-path="url(#p165ae693fb)" style="fill: none; stroke: #0000ff; stroke-width: 2"/>
   </g>
   <g id="line2d_17">
    <defs>
     <path id="m9fbf9315fa" d="M 3 0 
L -3 -0 
" style="stroke: #0000ff; stroke-width: 2"/>
    </defs>
    <g clip-path="url(#p165ae693fb)">
     <use xlink:href="#m9fbf9315fa" x="51.913636" y="76.23769" style="fill: #0000ff; stroke: #0000ff; stroke-width: 2"/>
     <use xlink:href="#m9fbf9315fa" x="72.665702" y="98.389371" style="fill: #0000ff; stroke: #0000ff; stroke-width: 2"/>
     <use xlink:href="#m9fbf9315fa" x="93.417769" y="118.540741" style="fill: #0000ff; stroke: #0000ff; stroke-width: 2"/>
     <use xlink:href="#m9fbf9315fa" x="114.169835" y="144.140626" style="fill: #0000ff; stroke: #0000ff; stroke-width: 2"/>
     <use xlink:href="#m9fbf9315fa" x="134.921901" y="167.039309" style="fill: #0000ff; stroke: #0000ff; stroke-width: 2"/>
     <use xlink:href="#m9fbf9315fa" x="155.673967" y="189.067417" style="fill: #0000ff; stroke: #0000ff; stroke-width: 2"/>
     <use xlink:href="#m9fbf9315fa" x="176.426033" y="210.112032" style="fill: #0000ff; stroke: #0000ff; stroke-width: 2"/>
     <use xlink:href="#m9fbf9315fa" x="197.178099" y="225.8512" style="fill: #0000ff; stroke: #0000ff; stroke-width: 2"/>
     <use xlink:href="#m9fbf9315fa" x="217.930165" y="240.167605" style="fill: #0000ff; stroke: #0000ff; stroke-width: 2"/>
     <use xlink:href="#m9fbf9315fa" x="238.682231" y="250.773322" style="fill: #0000ff; stroke: #0000ff; stroke-width: 2"/>
     <use xlink:href="#m9fbf9315fa" x="259.434298" y="259.556964" style="fill: #0000ff; stroke: #0000ff; stroke-width: 2"/>
     <use xlink:href="#m9fbf9315fa" x="280.186364" y="266.527669" style="fill: #0000ff; stroke: #0000ff; stroke-width: 2"/>
    </g>
   </g>
   <g id="line2d_18">
    <g clip-path="url(#p165ae693fb)">
     <use xlink:href="#m9fbf9315fa" x="51.913636" y="71.819839" style="fill: #0000ff; stroke: #0000ff; stroke-width: 2"/>
     <use xlink:href="#m9fbf9315fa" x="72.665702" y="96.332779" style="fill: #0000ff; stroke: #0000ff; stroke-width: 2"/>
     <use xlink:href="#m9fbf9315fa" x="93.417769" y="114.238402" style="fill: #0000ff; stroke: #0000ff; stroke-width: 2"/>
     <use xlink:href="#m9fbf9315fa" x="114.169835" y="142.043507" style="fill: #0000ff; stroke: #0000ff; stroke-width: 2"/>
     <use xlink:href="#m9fbf9315fa" x="134.921901" y="165.846384" style="fill: #0000ff; stroke: #0000ff; stroke-width: 2"/>
     <use xlink:href="#m9fbf9315fa" x="155.673967" y="188.551327" style="fill: #0000ff; stroke: #0000ff; stroke-width: 2"/>
     <use xlink:href="#m9fbf9315fa" x="176.426033" y="209.621211" style="fill: #0000ff; stroke: #0000ff; stroke-width: 2"/>
     <use xlink:href="#m9fbf9315fa" x="197.178099" y="225.303842" style="fill: #0000ff; stroke: #0000ff; stroke-width: 2"/>
     <use xlink:href="#m9fbf9315fa" x="217.930165" y="239.383304" style="fill: #0000ff; stroke: #0000ff; stroke-width: 2"/>
     <use xlink:href="#m9fbf9315fa" x="238.682231" y="250.601655" style="fill: #0000ff; stroke: #0000ff; stroke-width: 2"/>
     <use xlink:href="#m9fbf9315fa" x="259.434298" y="259.231126" style="fill: #0000ff; stroke: #0000ff; stroke-width: 2"/>
     <use xlink:href="#m9fbf9315fa" x="280.186364" y="266.238571" style="fill: #0000ff; stroke: #0000ff; stroke-width: 2"/>
    </g>
   </g>
   <g id="line2d_19">
    <path d="M 51.913636 53.610185 
L 72.665702 68.75046 
L 93.417769 96.501765 
L 114.169835 127.044997 
L 134.921901 155.994854 
L 155.673967 186.678944 
L 176.426033 212.591325 
L 197.178099 232.507317 
L 217.930165 247.994029 
L 238.682231 261.15657 
L 259.434298 269.764926 
L 280.186364 276.871253 
" clip-path="url(#p165ae693fb)" style="fill: none; stroke: #bf00bf; stroke-width: 1.5; stroke-linecap: square"/>
   </g>
   <g id="LineCollection_4">
    <path d="M 51.913636 57.00037 
L 51.913636 50.22 
" clip-path="url(#p165ae693fb)" style="fill: none; stroke: #bf00bf; stroke-width: 2"/>
    <path d="M 72.665702 71.542266 
L 72.665702 65.958655 
" clip-path="url(#p165ae693fb)" style="fill: none; stroke: #bf00bf; stroke-width: 2"/>
    <path d="M 93.417769 98.567627 
L 93.417769 94.435902 
" clip-path="url(#p165ae693fb)" style="fill: none; stroke: #bf00bf; stroke-width: 2"/>
    <path d="M 114.169835 127.697052 
L 114.169835 126.392941 
" clip-path="url(#p165ae693fb)" style="fill: none; stroke: #bf00bf; stroke-width: 2"/>
    <path d="M 134.921901 158.590174 
L 134.921901 153.399533 
" clip-path="url(#p165ae693fb)" style="fill: none; stroke: #bf00bf; stroke-width: 2"/>
    <path d="M 155.673967 188.050135 
L 155.673967 185.307754 
" clip-path="url(#p165ae693fb)" style="fill: none; stroke: #bf00bf; stroke-width: 2"/>
    <path d="M 176.426033 213.157106 
L 176.426033 212.025543 
" clip-path="url(#p165ae693fb)" style="fill: none; stroke: #bf00bf; stroke-width: 2"/>
    <path d="M 197.178099 233.203605 
L 197.178099 231.81103 
" clip-path="url(#p165ae693fb)" style="fill: none; stroke: #bf00bf; stroke-width: 2"/>
    <path d="M 217.930165 248.357011 
L 217.930165 247.631047 
" clip-path="url(#p165ae693fb)" style="fill: none; stroke: #bf00bf; stroke-width: 2"/>
    <path d="M 238.682231 261.304429 
L 238.682231 261.00871 
" clip-path="url(#p165ae693fb)" style="fill: none; stroke: #bf00bf; stroke-width: 2"/>
    <path d="M 259.434298 269.956821 
L 259.434298 269.573031 
" clip-path="url(#p165ae693fb)" style="fill: none; stroke: #bf00bf; stroke-width: 2"/>
    <path d="M 280.186364 277.02 
L 280.186364 276.722505 
" clip-path="url(#p165ae693fb)" style="fill: none; stroke: #bf00bf; stroke-width: 2"/>
   </g>
   <g id="line2d_20">
    <defs>
     <path id="m83e1615dff" d="M 3 0 
L -3 -0 
" style="stroke: #bf00bf; stroke-width: 2"/>
    </defs>
    <g clip-path="url(#p165ae693fb)">
     <use xlink:href="#m83e1615dff" x="51.913636" y="57.00037" style="fill: #bf00bf; stroke: #bf00bf; stroke-width: 2"/>
     <use xlink:href="#m83e1615dff" x="72.665702" y="71.542266" style="fill: #bf00bf; stroke: #bf00bf; stroke-width: 2"/>
     <use xlink:href="#m83e1615dff" x="93.417769" y="98.567627" style="fill: #bf00bf; stroke: #bf00bf; stroke-width: 2"/>
     <use xlink:href="#m83e1615dff" x="114.169835" y="127.697052" style="fill: #bf00bf; stroke: #bf00bf; stroke-width: 2"/>
     <use xlink:href="#m83e1615dff" x="134.921901" y="158.590174" style="fill: #bf00bf; stroke: #bf00bf; stroke-width: 2"/>
     <use xlink:href="#m83e1615dff" x="155.673967" y="188.050135" style="fill: #bf00bf; stroke: #bf00bf; stroke-width: 2"/>
     <use xlink:href="#m83e1615dff" x="176.426033" y="213.157106" style="fill: #bf00bf; stroke: #bf00bf; stroke-width: 2"/>
     <use xlink:href="#m83e1615dff" x="197.178099" y="233.203605" style="fill: #bf00bf; stroke: #bf00bf; stroke-width: 2"/>
     <use xlink:href="#m83e1615dff" x="217.930165" y="248.357011" style="fill: #bf00bf; stroke: #bf00bf; stroke-width: 2"/>
     <use xlink:href="#m83e1615dff" x="238.682231" y="261.304429" style="fill: #bf00bf; stroke: #bf00bf; stroke-width: 2"/>
     <use xlink:href="#m83e1615dff" x="259.434298" y="269.956821" style="fill: #bf00bf; stroke: #bf00bf; stroke-width: 2"/>
     <use xlink:href="#m83e1615dff" x="280.186364" y="277.02" style="fill: #bf00bf; stroke: #bf00bf; stroke-width: 2"/>
    </g>
   </g>
   <g id="line2d_21">
    <g clip-path="url(#p165ae693fb)">
     <use xlink:href="#m83e1615dff" x="51.913636" y="50.22" style="fill: #bf00bf; stroke: #bf00bf; stroke-width: 2"/>
     <use xlink:href="#m83e1615dff" x="72.665702" y="65.958655" style="fill: #bf00bf; stroke: #bf00bf; stroke-width: 2"/>
     <use xlink:href="#m83e1615dff" x="93.417769" y="94.435902" style="fill: #bf00bf; stroke: #bf00bf; stroke-width: 2"/>
     <use xlink:href="#m83e1615dff" x="114.169835" y="126.392941" style="fill: #bf00bf; stroke: #bf00bf; stroke-width: 2"/>
     <use xlink:href="#m83e1615dff" x="134.921901" y="153.399533" style="fill: #bf00bf; stroke: #bf00bf; stroke-width: 2"/>
     <use xlink:href="#m83e1615dff" x="155.673967" y="185.307754" style="fill: #bf00bf; stroke: #bf00bf; stroke-width: 2"/>
     <use xlink:href="#m83e1615dff" x="176.426033" y="212.025543" style="fill: #bf00bf; stroke: #bf00bf; stroke-width: 2"/>
     <use xlink:href="#m83e1615dff" x="197.178099" y="231.81103" style="fill: #bf00bf; stroke: #bf00bf; stroke-width: 2"/>
     <use xlink:href="#m83e1615dff" x="217.930165" y="247.631047" style="fill: #bf00bf; stroke: #bf00bf; stroke-width: 2"/>
     <use xlink:href="#m83e1615dff" x="238.682231" y="261.00871" style="fill: #bf00bf; stroke: #bf00bf; stroke-width: 2"/>
     <use xlink:href="#m83e1615dff" x="259.434298" y="269.573031" style="fill: #bf00bf; stroke: #bf00bf; stroke-width: 2"/>
     <use xlink:href="#m83e1615dff" x="280.186364" y="276.722505" style="fill: #bf00bf; stroke: #bf00bf; stroke-width: 2"/>
    </g>
   </g>
   <g id="line2d_22">
    <path d="M 51.913636 134.061317 
L 72.665702 142.104251 
L 93.417769 156.614771 
L 114.169835 168.43618 
L 134.921901 181.694573 
L 155.673967 194.393124 
L 176.426033 204.997223 
L 197.178099 215.941737 
L 217.930165 224.5145 
L 238.682231 232.54699 
L 259.434298 239.323915 
L 280.186364 245.186809 
" clip-path="url(#p165ae693fb)" style="fill: none; stroke: #ff0000; stroke-width: 1.5; stroke-linecap: square"/>
   </g>
   <g id="line2d_23">
    <path d="M 51.913636 100.823072 
L 72.665702 117.088545 
L 93.417769 137.090625 
L 114.169835 156.286179 
L 134.921901 175.37594 
L 155.673967 191.44264 
L 176.426033 205.96676 
L 197.178099 220.665698 
L 217.930165 231.235952 
L 238.682231 240.956324 
L 259.434298 248.694725 
L 280.186364 255.882438 
" clip-path="url(#p165ae693fb)" style="fill: none; stroke: #000000; stroke-width: 1.5; stroke-linecap: square"/>
   </g>
   <g id="line2d_24">
    <path d="M 51.913636 74.028764 
L 72.665702 97.361075 
L 93.417769 116.389572 
L 114.169835 143.092067 
L 134.921901 166.442846 
L 155.673967 188.809372 
L 176.426033 209.866622 
L 197.178099 225.577521 
L 217.930165 239.775455 
L 238.682231 250.687488 
L 259.434298 259.394045 
L 280.186364 266.38312 
" clip-path="url(#p165ae693fb)" style="fill: none; stroke: #0000ff; stroke-width: 1.5; stroke-linecap: square"/>
   </g>
   <g id="line2d_25">
    <path d="M 51.913636 53.610185 
L 72.665702 68.75046 
L 93.417769 96.501765 
L 114.169835 127.044997 
L 134.921901 155.994854 
L 155.673967 186.678944 
L 176.426033 212.591325 
L 197.178099 232.507317 
L 217.930165 247.994029 
L 238.682231 261.15657 
L 259.434298 269.764926 
L 280.186364 276.871253 
" clip-path="url(#p165ae693fb)" style="fill: none; stroke: #bf00bf; stroke-width: 1.5; stroke-linecap: square"/>
   </g>
   <g id="patch_3">
    <path d="M 40.5 288.36 
L 40.5 38.88 
" style="fill: none; stroke: #000000; stroke-width: 1.6; stroke-linejoin: miter; stroke-linecap: square"/>
   </g>
   <g id="patch_4">
    <path d="M 291.6 288.36 
L 291.6 38.88 
" style="fill: none; stroke: #000000; stroke-width: 1.6; stroke-linejoin: miter; stroke-linecap: square"/>
   </g>
   <g id="patch_5">
    <path d="M 40.5 288.36 
L 291.6 288.36 
" style="fill: none; stroke: #000000; stroke-width: 1.6; stroke-linejoin: miter; stroke-linecap: square"/>
   </g>
   <g id="patch_6">
    <path d="M 40.5 38.88 
L 291.6 38.88 
" style="fill: none; stroke: #000000; stroke-width: 1.6; stroke-linejoin: miter; stroke-linecap: square"/>
   </g>
   <g id="legend_1">
    <g id="patch_7">
     <path d="M 209.120625 118.935 
L 283.2 118.935 
Q 285.6 118.935 285.6 116.535 
L 285.6 47.28 
Q 285.6 44.88 283.2 44.88 
L 209.120625 44.88 
Q 206.720625 44.88 206.720625 47.28 
L 206.720625 116.535 
Q 206.720625 118.935 209.120625 118.935 
z
" style="fill: #ffffff; opacity: 0.8"/>
    </g>
    <g id="LineCollection_5">
     <path d="M 223.520625 60.598125 
L 223.520625 48.598125 
" style="fill: none; stroke: #ff0000; stroke-width: 2"/>
    </g>
    <g id="line2d_26">
     <g>
      <use xlink:href="#m32585f9376" x="223.520625" y="60.598125" style="fill: #ff0000; stroke: #ff0000; stroke-width: 2"/>
     </g>
    </g>
    <g id="line2d_27">
     <g>
      <use xlink:href="#m32585f9376" x="223.520625" y="48.598125" style="fill: #ff0000; stroke: #ff0000; stroke-width: 2"/>
     </g>
    </g>
    <g id="line2d_28">
     <path d="M 211.520625 54.598125 
L 235.520625 54.598125 
" style="fill: none; stroke: #ff0000; stroke-width: 1.5; stroke-linecap: square"/>
    </g>
    <g id="line2d_29"/>
    <g id="text_10">
     <!-- M=4 -->
     <g transform="translate(245.120625 58.798125) scale(0.12 -0.12)">
      <defs>
       <path id="DejaVuSans-4d" d="M 628 4666 
L 1569 4666 
L 2759 1491 
L 3956 4666 
L 4897 4666 
L 4897 0 
L 4281 0 
L 4281 4097 
L 3078 897 
L 2444 897 
L 1241 4097 
L 1241 0 
L 628 0 
L 628 4666 
z
" transform="scale(0.015625)"/>
       <path id="DejaVuSans-3d" d="M 678 2906 
L 4684 2906 
L 4684 2381 
L 678 2381 
L 678 2906 
z
M 678 1631 
L 4684 1631 
L 4684 1100 
L 678 1100 
L 678 1631 
z
" transform="scale(0.015625)"/>
      </defs>
      <use xlink:href="#DejaVuSans-4d"/>
      <use xlink:href="#DejaVuSans-3d" x="86.279297"/>
      <use xlink:href="#DejaVuSans-34" x="170.068359"/>
     </g>
    </g>
    <g id="LineCollection_6">
     <path d="M 223.520625 78.211875 
L 223.520625 66.211875 
" style="fill: none; stroke: #000000; stroke-width: 2"/>
    </g>
    <g id="line2d_30">
     <g>
      <use xlink:href="#mbe03a151d9" x="223.520625" y="78.211875" style="stroke: #000000; stroke-width: 2"/>
     </g>
    </g>
    <g id="line2d_31">
     <g>
      <use xlink:href="#mbe03a151d9" x="223.520625" y="66.211875" style="stroke: #000000; stroke-width: 2"/>
     </g>
    </g>
    <g id="line2d_32">
     <path d="M 211.520625 72.211875 
L 235.520625 72.211875 
" style="fill: none; stroke: #000000; stroke-width: 1.5; stroke-linecap: square"/>
    </g>
    <g id="line2d_33"/>
    <g id="text_11">
     <!-- M=8 -->
     <g transform="translate(245.120625 76.411875) scale(0.12 -0.12)">
      <defs>
       <path id="DejaVuSans-38" d="M 2034 2216 
Q 1584 2216 1326 1975 
Q 1069 1734 1069 1313 
Q 1069 891 1326 650 
Q 1584 409 2034 409 
Q 2484 409 2743 651 
Q 3003 894 3003 1313 
Q 3003 1734 2745 1975 
Q 2488 2216 2034 2216 
z
M 1403 2484 
Q 997 2584 770 2862 
Q 544 3141 544 3541 
Q 544 4100 942 4425 
Q 1341 4750 2034 4750 
Q 2731 4750 3128 4425 
Q 3525 4100 3525 3541 
Q 3525 3141 3298 2862 
Q 3072 2584 2669 2484 
Q 3125 2378 3379 2068 
Q 3634 1759 3634 1313 
Q 3634 634 3220 271 
Q 2806 -91 2034 -91 
Q 1263 -91 848 271 
Q 434 634 434 1313 
Q 434 1759 690 2068 
Q 947 2378 1403 2484 
z
M 1172 3481 
Q 1172 3119 1398 2916 
Q 1625 2713 2034 2713 
Q 2441 2713 2670 2916 
Q 2900 3119 2900 3481 
Q 2900 3844 2670 4047 
Q 2441 4250 2034 4250 
Q 1625 4250 1398 4047 
Q 1172 3844 1172 3481 
z
" transform="scale(0.015625)"/>
      </defs>
      <use xlink:href="#DejaVuSans-4d"/>
      <use xlink:href="#DejaVuSans-3d" x="86.279297"/>
      <use xlink:href="#DejaVuSans-38" x="170.068359"/>
     </g>
    </g>
    <g id="LineCollection_7">
     <path d="M 223.520625 95.825625 
L 223.520625 83.825625 
" style="fill: none; stroke: #0000ff; stroke-width: 2"/>
    </g>
    <g id="line2d_34">
     <g>
      <use xlink:href="#m9fbf9315fa" x="223.520625" y="95.825625" style="fill: #0000ff; stroke: #0000ff; stroke-width: 2"/>
     </g>
    </g>
    <g id="line2d_35">
     <g>
      <use xlink:href="#m9fbf9315fa" x="223.520625" y="83.825625" style="fill: #0000ff; stroke: #0000ff; stroke-width: 2"/>
     </g>
    </g>
    <g id="line2d_36">
     <path d="M 211.520625 89.825625 
L 235.520625 89.825625 
" style="fill: none; stroke: #0000ff; stroke-width: 1.5; stroke-linecap: square"/>
    </g>
    <g id="line2d_37"/>
    <g id="text_12">
     <!-- M=16 -->
     <g transform="translate(245.120625 94.025625) scale(0.12 -0.12)">
      <defs>
       <path id="DejaVuSans-36" d="M 2113 2584 
Q 1688 2584 1439 2293 
Q 1191 2003 1191 1497 
Q 1191 994 1439 701 
Q 1688 409 2113 409 
Q 2538 409 2786 701 
Q 3034 994 3034 1497 
Q 3034 2003 2786 2293 
Q 2538 2584 2113 2584 
z
M 3366 4563 
L 3366 3988 
Q 3128 4100 2886 4159 
Q 2644 4219 2406 4219 
Q 1781 4219 1451 3797 
Q 1122 3375 1075 2522 
Q 1259 2794 1537 2939 
Q 1816 3084 2150 3084 
Q 2853 3084 3261 2657 
Q 3669 2231 3669 1497 
Q 3669 778 3244 343 
Q 2819 -91 2113 -91 
Q 1303 -91 875 529 
Q 447 1150 447 2328 
Q 447 3434 972 4092 
Q 1497 4750 2381 4750 
Q 2619 4750 2861 4703 
Q 3103 4656 3366 4563 
z
" transform="scale(0.015625)"/>
      </defs>
      <use xlink:href="#DejaVuSans-4d"/>
      <use xlink:href="#DejaVuSans-3d" x="86.279297"/>
      <use xlink:href="#DejaVuSans-31" x="170.068359"/>
      <use xlink:href="#DejaVuSans-36" x="233.691406"/>
     </g>
    </g>
    <g id="LineCollection_8">
     <path d="M 223.520625 113.439375 
L 223.520625 101.439375 
" style="fill: none; stroke: #bf00bf; stroke-width: 2"/>
    </g>
    <g id="line2d_38">
     <g>
      <use xlink:href="#m83e1615dff" x="223.520625" y="113.439375" style="fill: #bf00bf; stroke: #bf00bf; stroke-width: 2"/>
     </g>
    </g>
    <g id="line2d_39">
     <g>
      <use xlink:href="#m83e1615dff" x="223.520625" y="101.439375" style="fill: #bf00bf; stroke: #bf00bf; stroke-width: 2"/>
     </g>
    </g>
    <g id="line2d_40">
     <path d="M 211.520625 107.439375 
L 235.520625 107.439375 
" style="fill: none; stroke: #bf00bf; stroke-width: 1.5; stroke-linecap: square"/>
    </g>
    <g id="line2d_41"/>
    <g id="text_13">
     <!-- M=32 -->
     <g transform="translate(245.120625 111.639375) scale(0.12 -0.12)">
      <use xlink:href="#DejaVuSans-4d"/>
      <use xlink:href="#DejaVuSans-3d" x="86.279297"/>
      <use xlink:href="#DejaVuSans-33" x="170.068359"/>
      <use xlink:href="#DejaVuSans-32" x="233.691406"/>
     </g>
    </g>
   </g>
  </g>
 </g>
 <defs>
  <clipPath id="p165ae693fb">
   <rect x="40.5" y="38.88" width="251.1" height="249.48"/>
  </clipPath>
 </defs>
</svg>
