<?xml version="1.0" encoding="utf-8" standalone="no"?>
<!DOCTYPE svg PUBLIC "-//W3C//DTD SVG 1.1//EN"
  "http://www.w3.org/Graphics/SVG/1.1/DTD/svg11.dtd">
<svg xmlns:xlink="http://www.w3.org/1999/xlink" width="324pt" height="324pt" viewBox="0 0 324 324" xmlns="http://www.w3.org/2000/svg" version="1.1">
 <metadata>
  <rdf:RDF xmlns:dc="http://purl.org/dc/elements/1.1/" xmlns:cc="http://creativecommons.org/ns#" xmlns:rdf="http://www.w3.org/1999/02/22-rdf-syntax-ns#">
   <cc:Work>
    <dc:type rdf:resource="http://purl.org/dc/dcmitype/StillImage"/>
    <dc:date>2026-01-05T15:22:39.394520</dc:date>
    <dc:format>image/svg+xml</dc:format>
    <dc:creator>
     <cc:Agent>
      <dc:title>Matplotlib v3.8.0, https://matplotlib.org/</dc:title>
     </cc:Agent>
    </dc:creator>
   </cc:Work>
  </rdf:RDF>
 </metadata>
 <defs>
  <style type="text/css">*{stroke-linejoin: round; stroke-linecap: butt}</style>
 </defs>
 <g id="figure_1">
  <g id="patch_1">
   <path d="M 0 324 
L 324 324 
L 324 0 
L 0 0 
z
" style="fill: #ffffff"/>
  </g>
  <g id="axes_1">
   <g id="patch_2">
    <path d="M 40.5 288.36 
L 291.6 288.36 
L 291.6 38.88 
L 40.5 38.88 
z
" style="fill: #ffffff"/>
   </g>
   <g id="matplotlib.axis_1">
    <g id="xtick_1">
     <g id="line2d_1">
      <defs>
       <path id="m6db73a6cd2" d="M 0 0 
L 0 8 
" style="stroke: #000000; stroke-width: 1.5"/>
      </defs>
      <g>
       <use xlink:href="#m6db73a6cd2" x="84.524026" y="288.36" style="stroke: #000000; stroke-width: 1.5"/>
      </g>
     </g>
     <g id="text_1">
      <!-- 7 -->
      <g transform="translate(80.706526 308.978125) scale(0.12 -0.12)">
       <defs>
        <path id="DejaVuSans-37" d="M 525 4666 
L 3525 4666 
L 3525 4397 
L 1831 0 
L 1172 0 
L 2766 4134 
L 525 4134 
L 525 4666 
z
" transform="scale(0.015625)"/>
       </defs>
       <use xlink:href="#DejaVuSans-37"/>
      </g>
     </g>
    </g>
    <g id="xtick_2">
     <g id="line2d_2">
      <g>
       <use xlink:href="#m6db73a6cd2" x="166.05" y="288.36" style="stroke: #000000; stroke-width: 1.5"/>
      </g>
     </g>
     <g id="text_2">
      <!-- 8 -->
      <g transform="translate(162.2325 308.978125) scale(0.12 -0.12)">
       <defs>
        <path id="DejaVuSans-38" d="M 2034 2216 
Q 1584 2216 1326 1975 
Q 1069 1734 1069 1313 
Q 1069 891 1326 650 
Q 1584 409 2034 409 
Q 2484 409 2743 651 
Q 3003 894 3003 1313 
Q 3003 1734 2745 1975 
Q 2488 2216 2034 2216 
z
M 1403 2484 
Q 997 2584 770 2862 
Q 544 3141 544 3541 
Q 544 4100 942 4425 
Q 1341 4750 2034 4750 
Q 2731 4750 3128 4425 
Q 3525 4100 3525 3541 
Q 3525 3141 3298 2862 
Q 3072 2584 2669 2484 
Q 3125 2378 3379 2068 
Q 3634 1759 3634 1313 
Q 3634 634 3220 271 
Q 2806 -91 2034 -91 
Q 1263 -91 848 271 
Q 434 634 434 1313 
Q 434 1759 690 2068 
Q 947 2378 1403 2484 
z
M 1172 3481 
Q 1172 3119 1398 2916 
Q 1625 2713 2034 2713 
Q 2441 2713 2670 2916 
Q 2900 3119 2900 3481 
Q 2900 3844 2670 4047 
Q 2441 4250 2034 4250 
Q 1625 4250 1398 4047 
Q 1172 3844 1172 3481 
z
" transform="scale(0.015625)"/>
       </defs>
       <use xlink:href="#DejaVuSans-38"/>
      </g>
     </g>
    </g>
    <g id="xtick_3">
     <g id="line2d_3">
      <g>
       <use xlink:href="#m6db73a6cd2" x="247.575974" y="288.36" style="stroke: #000000; stroke-width: 1.5"/>
      </g>
     </g>
     <g id="text_3">
      <!-- 9 -->
      <g transform="translate(243.758474 308.978125) scale(0.12 -0.12)">
       <defs>
        <path id="DejaVuSans-39" d="M 703 97 
L 703 672 
Q 941 559 1184 500 
Q 1428 441 1663 441 
Q 2288 441 2617 861 
Q 2947 1281 2994 2138 
Q 2813 1869 2534 1725 
Q 2256 1581 1919 1581 
Q 1219 1581 811 2004 
Q 403 2428 403 3163 
Q 403 3881 828 4315 
Q 1253 4750 1959 4750 
Q 2769 4750 3195 4129 
Q 3622 3509 3622 2328 
Q 3622 1225 3098 567 
Q 2575 -91 1691 -91 
Q 1453 -91 1209 -44 
Q 966 3 703 97 
z
M 1959 2075 
Q 2384 2075 2632 2365 
Q 2881 2656 2881 3163 
Q 2881 3666 2632 3958 
Q 2384 4250 1959 4250 
Q 1534 4250 1286 3958 
Q 1038 3666 1038 3163 
Q 1038 2656 1286 2365 
Q 1534 2075 1959 2075 
z
" transform="scale(0.015625)"/>
       </defs>
       <use xlink:href="#DejaVuSans-39"/>
      </g>
     </g>
    </g>
   </g>
   <g id="matplotlib.axis_2">
    <g id="ytick_1">
     <g id="line2d_4">
      <defs>
       <path id="mee6adfe34b" d="M 0 0 
L -8 0 
" style="stroke: #000000; stroke-width: 1.5"/>
      </defs>
      <g>
       <use xlink:href="#mee6adfe34b" x="40.5" y="270.894026" style="stroke: #000000; stroke-width: 1.5"/>
      </g>
     </g>
     <g id="text_4">
      <!-- 0.1 -->
      <g transform="translate(9.91625 275.453089) scale(0.12 -0.12)">
       <defs>
        <path id="DejaVuSans-30" d="M 2034 4250 
Q 1547 4250 1301 3770 
Q 1056 3291 1056 2328 
Q 1056 1369 1301 889 
Q 1547 409 2034 409 
Q 2525 409 2770 889 
Q 3016 1369 3016 2328 
Q 3016 3291 2770 3770 
Q 2525 4250 2034 4250 
z
M 2034 4750 
Q 2819 4750 3233 4129 
Q 3647 3509 3647 2328 
Q 3647 1150 3233 529 
Q 2819 -91 2034 -91 
Q 1250 -91 836 529 
Q 422 1150 422 2328 
Q 422 3509 836 4129 
Q 1250 4750 2034 4750 
z
" transform="scale(0.015625)"/>
        <path id="DejaVuSans-2e" d="M 684 794 
L 1344 794 
L 1344 0 
L 684 0 
L 684 794 
z
" transform="scale(0.015625)"/>
        <path id="DejaVuSans-31" d="M 794 531 
L 1825 531 
L 1825 4091 
L 703 3866 
L 703 4441 
L 1819 4666 
L 2450 4666 
L 2450 531 
L 3481 531 
L 3481 0 
L 794 0 
L 794 531 
z
" transform="scale(0.015625)"/>
       </defs>
       <use xlink:href="#DejaVuSans-30"/>
       <use xlink:href="#DejaVuSans-2e" x="63.623047"/>
       <use xlink:href="#DejaVuSans-31" x="95.410156"/>
      </g>
     </g>
    </g>
    <g id="ytick_2">
     <g id="line2d_5">
      <g>
       <use xlink:href="#mee6adfe34b" x="40.5" y="235.158257" style="stroke: #000000; stroke-width: 1.5"/>
      </g>
     </g>
     <g id="text_5">
      <!-- 0.2 -->
      <g transform="translate(9.91625 239.717319) scale(0.12 -0.12)">
       <defs>
        <path id="DejaVuSans-32" d="M 1228 531 
L 3431 531 
L 3431 0 
L 469 0 
L 469 531 
Q 828 903 1448 1529 
Q 2069 2156 2228 2338 
Q 2531 2678 2651 2914 
Q 2772 3150 2772 3378 
Q 2772 3750 2511 3984 
Q 2250 4219 1831 4219 
Q 1534 4219 1204 4116 
Q 875 4013 500 3803 
L 500 4441 
Q 881 4594 1212 4672 
Q 1544 4750 1819 4750 
Q 2544 4750 2975 4387 
Q 3406 4025 3406 3419 
Q 3406 3131 3298 2873 
Q 3191 2616 2906 2266 
Q 2828 2175 2409 1742 
Q 1991 1309 1228 531 
z
" transform="scale(0.015625)"/>
       </defs>
       <use xlink:href="#DejaVuSans-30"/>
       <use xlink:href="#DejaVuSans-2e" x="63.623047"/>
       <use xlink:href="#DejaVuSans-32" x="95.410156"/>
      </g>
     </g>
    </g>
    <g id="ytick_3">
     <g id="line2d_6">
      <g>
       <use xlink:href="#mee6adfe34b" x="40.5" y="199.422487" style="stroke: #000000; stroke-width: 1.5"/>
      </g>
     </g>
     <g id="text_6">
      <!-- 0.3 -->
      <g transform="translate(9.91625 203.98155) scale(0.12 -0.12)">
       <defs>
        <path id="DejaVuSans-33" d="M 2597 2516 
Q 3050 2419 3304 2112 
Q 3559 1806 3559 1356 
Q 3559 666 3084 287 
Q 2609 -91 1734 -91 
Q 1441 -91 1130 -33 
Q 819 25 488 141 
L 488 750 
Q 750 597 1062 519 
Q 1375 441 1716 441 
Q 2309 441 2620 675 
Q 2931 909 2931 1356 
Q 2931 1769 2642 2001 
Q 2353 2234 1838 2234 
L 1294 2234 
L 1294 2753 
L 1863 2753 
Q 2328 2753 2575 2939 
Q 2822 3125 2822 3475 
Q 2822 3834 2567 4026 
Q 2313 4219 1838 4219 
Q 1578 4219 1281 4162 
Q 984 4106 628 3988 
L 628 4550 
Q 988 4650 1302 4700 
Q 1616 4750 1894 4750 
Q 2613 4750 3031 4423 
Q 3450 4097 3450 3541 
Q 3450 3153 3228 2886 
Q 3006 2619 2597 2516 
z
" transform="scale(0.015625)"/>
       </defs>
       <use xlink:href="#DejaVuSans-30"/>
       <use xlink:href="#DejaVuSans-2e" x="63.623047"/>
       <use xlink:href="#DejaVuSans-33" x="95.410156"/>
      </g>
     </g>
    </g>
    <g id="ytick_4">
     <g id="line2d_7">
      <g>
       <use xlink:href="#mee6adfe34b" x="40.5" y="163.686718" style="stroke: #000000; stroke-width: 1.5"/>
      </g>
     </g>
     <g id="text_7">
      <!-- 0.4 -->
      <g transform="translate(9.91625 168.24578) scale(0.12 -0.12)">
       <defs>
        <path id="DejaVuSans-34" d="M 2419 4116 
L 825 1625 
L 2419 1625 
L 2419 4116 
z
M 2253 4666 
L 3047 4666 
L 3047 1625 
L 3713 1625 
L 3713 1100 
L 3047 1100 
L 3047 0 
L 2419 0 
L 2419 1100 
L 313 1100 
L 313 1709 
L 2253 4666 
z
" transform="scale(0.015625)"/>
       </defs>
       <use xlink:href="#DejaVuSans-30"/>
       <use xlink:href="#DejaVuSans-2e" x="63.623047"/>
       <use xlink:href="#DejaVuSans-34" x="95.410156"/>
      </g>
     </g>
    </g>
    <g id="ytick_5">
     <g id="line2d_8">
      <g>
       <use xlink:href="#mee6adfe34b" x="40.5" y="127.950948" style="stroke: #000000; stroke-width: 1.5"/>
      </g>
     </g>
     <g id="text_8">
      <!-- 0.5 -->
      <g transform="translate(9.91625 132.510011) scale(0.12 -0.12)">
       <defs>
        <path id="DejaVuSans-35" d="M 691 4666 
L 3169 4666 
L 3169 4134 
L 1269 4134 
L 1269 2991 
Q 1406 3038 1543 3061 
Q 1681 3084 1819 3084 
Q 2600 3084 3056 2656 
Q 3513 2228 3513 1497 
Q 3513 744 3044 326 
Q 2575 -91 1722 -91 
Q 1428 -91 1123 -41 
Q 819 9 494 109 
L 494 744 
Q 775 591 1075 516 
Q 1375 441 1709 441 
Q 2250 441 2565 725 
Q 2881 1009 2881 1497 
Q 2881 1984 2565 2268 
Q 2250 2553 1709 2553 
Q 1456 2553 1204 2497 
Q 953 2441 691 2322 
L 691 4666 
z
" transform="scale(0.015625)"/>
       </defs>
       <use xlink:href="#DejaVuSans-30"/>
       <use xlink:href="#DejaVuSans-2e" x="63.623047"/>
       <use xlink:href="#DejaVuSans-35" x="95.410156"/>
      </g>
     </g>
    </g>
    <g id="ytick_6">
     <g id="line2d_9">
      <g>
       <use xlink:href="#mee6adfe34b" x="40.5" y="92.215178" style="stroke: #000000; stroke-width: 1.5"/>
      </g>
     </g>
     <g id="text_9">
      <!-- 0.6 -->
      <g transform="translate(9.91625 96.774241) scale(0.12 -0.12)">
       <defs>
        <path id="DejaVuSans-36" d="M 2113 2584 
Q 1688 2584 1439 2293 
Q 1191 2003 1191 1497 
Q 1191 994 1439 701 
Q 1688 409 2113 409 
Q 2538 409 2786 701 
Q 3034 994 3034 1497 
Q 3034 2003 2786 2293 
Q 2538 2584 2113 2584 
z
M 3366 4563 
L 3366 3988 
Q 3128 4100 2886 4159 
Q 2644 4219 2406 4219 
Q 1781 4219 1451 3797 
Q 1122 3375 1075 2522 
Q 1259 2794 1537 2939 
Q 1816 3084 2150 3084 
Q 2853 3084 3261 2657 
Q 3669 2231 3669 1497 
Q 3669 778 3244 343 
Q 2819 -91 2113 -91 
Q 1303 -91 875 529 
Q 447 1150 447 2328 
Q 447 3434 972 4092 
Q 1497 4750 2381 4750 
Q 2619 4750 2861 4703 
Q 3103 4656 3366 4563 
z
" transform="scale(0.015625)"/>
       </defs>
       <use xlink:href="#DejaVuSans-30"/>
       <use xlink:href="#DejaVuSans-2e" x="63.623047"/>
       <use xlink:href="#DejaVuSans-36" x="95.410156"/>
      </g>
     </g>
    </g>
    <g id="ytick_7">
     <g id="line2d_10">
      <g>
       <use xlink:href="#mee6adfe34b" x="40.5" y="56.479409" style="stroke: #000000; stroke-width: 1.5"/>
      </g>
     </g>
     <g id="text_10">
      <!-- 0.7 -->
      <g transform="translate(9.91625 61.038471) scale(0.12 -0.12)">
       <use xlink:href="#DejaVuSans-30"/>
       <use xlink:href="#DejaVuSans-2e" x="63.623047"/>
       <use xlink:href="#DejaVuSans-37" x="95.410156"/>
      </g>
     </g>
    </g>
   </g>
   <g id="line2d_11">
    <path d="M 51.913636 68.50612 
L 68.218831 74.784139 
L 84.524026 78.956294 
L 100.829221 80.253082 
L 117.134416 80.659298 
L 133.43961 81.667118 
L 149.744805 89.068284 
L 166.05 106.623661 
L 182.355195 129.189491 
L 198.66039 155.003837 
L 214.965584 179.630298 
L 231.270779 202.527989 
L 247.575974 223.623595 
L 263.881169 242.253365 
L 280.186364 256.927476 
" clip-path="url(#pec22908919)" style="fill: none; stroke: #ff0000; stroke-width: 1.5; stroke-linecap: square"/>
   </g>
   <g id="LineCollection_1">
    <path d="M 51.913636 69.571711 
L 51.913636 67.440528 
" clip-path="url(#pec22908919)" style="fill: none; stroke: #ff0000; stroke-width: 2"/>
    <path d="M 68.218831 75.325768 
L 68.218831 74.242511 
" clip-path="url(#pec22908919)" style="fill: none; stroke: #ff0000; stroke-width: 2"/>
    <path d="M 84.524026 79.884987 
L 84.524026 78.027601 
" clip-path="url(#pec22908919)" style="fill: none; stroke: #ff0000; stroke-width: 2"/>
    <path d="M 100.829221 80.896194 
L 100.829221 79.60997 
" clip-path="url(#pec22908919)" style="fill: none; stroke: #ff0000; stroke-width: 2"/>
    <path d="M 117.134416 81.368051 
L 117.134416 79.950546 
" clip-path="url(#pec22908919)" style="fill: none; stroke: #ff0000; stroke-width: 2"/>
    <path d="M 133.43961 82.093915 
L 133.43961 81.240322 
" clip-path="url(#pec22908919)" style="fill: none; stroke: #ff0000; stroke-width: 2"/>
    <path d="M 149.744805 90.184774 
L 149.744805 87.951795 
" clip-path="url(#pec22908919)" style="fill: none; stroke: #ff0000; stroke-width: 2"/>
    <path d="M 166.05 107.656177 
L 166.05 105.591145 
" clip-path="url(#pec22908919)" style="fill: none; stroke: #ff0000; stroke-width: 2"/>
    <path d="M 182.355195 129.876255 
L 182.355195 128.502728 
" clip-path="url(#pec22908919)" style="fill: none; stroke: #ff0000; stroke-width: 2"/>
    <path d="M 198.66039 155.340821 
L 198.66039 154.666854 
" clip-path="url(#pec22908919)" style="fill: none; stroke: #ff0000; stroke-width: 2"/>
    <path d="M 214.965584 180.242815 
L 214.965584 179.017781 
" clip-path="url(#pec22908919)" style="fill: none; stroke: #ff0000; stroke-width: 2"/>
    <path d="M 231.270779 203.052004 
L 231.270779 202.003975 
" clip-path="url(#pec22908919)" style="fill: none; stroke: #ff0000; stroke-width: 2"/>
    <path d="M 247.575974 223.912965 
L 247.575974 223.334226 
" clip-path="url(#pec22908919)" style="fill: none; stroke: #ff0000; stroke-width: 2"/>
    <path d="M 263.881169 242.38313 
L 263.881169 242.123601 
" clip-path="url(#pec22908919)" style="fill: none; stroke: #ff0000; stroke-width: 2"/>
    <path d="M 280.186364 257.108102 
L 280.186364 256.746851 
" clip-path="url(#pec22908919)" style="fill: none; stroke: #ff0000; stroke-width: 2"/>
   </g>
   <g id="line2d_12">
    <defs>
     <path id="m4eba2e2b20" d="M 3 0 
L -3 -0 
" style="stroke: #ff0000; stroke-width: 2"/>
    </defs>
    <g clip-path="url(#pec22908919)">
     <use xlink:href="#m4eba2e2b20" x="51.913636" y="69.571711" style="fill: #ff0000; stroke: #ff0000; stroke-width: 2"/>
     <use xlink:href="#m4eba2e2b20" x="68.218831" y="75.325768" style="fill: #ff0000; stroke: #ff0000; stroke-width: 2"/>
     <use xlink:href="#m4eba2e2b20" x="84.524026" y="79.884987" style="fill: #ff0000; stroke: #ff0000; stroke-width: 2"/>
     <use xlink:href="#m4eba2e2b20" x="100.829221" y="80.896194" style="fill: #ff0000; stroke: #ff0000; stroke-width: 2"/>
     <use xlink:href="#m4eba2e2b20" x="117.134416" y="81.368051" style="fill: #ff0000; stroke: #ff0000; stroke-width: 2"/>
     <use xlink:href="#m4eba2e2b20" x="133.43961" y="82.093915" style="fill: #ff0000; stroke: #ff0000; stroke-width: 2"/>
     <use xlink:href="#m4eba2e2b20" x="149.744805" y="90.184774" style="fill: #ff0000; stroke: #ff0000; stroke-width: 2"/>
     <use xlink:href="#m4eba2e2b20" x="166.05" y="107.656177" style="fill: #ff0000; stroke: #ff0000; stroke-width: 2"/>
     <use xlink:href="#m4eba2e2b20" x="182.355195" y="129.876255" style="fill: #ff0000; stroke: #ff0000; stroke-width: 2"/>
     <use xlink:href="#m4eba2e2b20" x="198.66039" y="155.340821" style="fill: #ff0000; stroke: #ff0000; stroke-width: 2"/>
     <use xlink:href="#m4eba2e2b20" x="214.965584" y="180.242815" style="fill: #ff0000; stroke: #ff0000; stroke-width: 2"/>
     <use xlink:href="#m4eba2e2b20" x="231.270779" y="203.052004" style="fill: #ff0000; stroke: #ff0000; stroke-width: 2"/>
     <use xlink:href="#m4eba2e2b20" x="247.575974" y="223.912965" style="fill: #ff0000; stroke: #ff0000; stroke-width: 2"/>
     <use xlink:href="#m4eba2e2b20" x="263.881169" y="242.38313" style="fill: #ff0000; stroke: #ff0000; stroke-width: 2"/>
     <use xlink:href="#m4eba2e2b20" x="280.186364" y="257.108102" style="fill: #ff0000; stroke: #ff0000; stroke-width: 2"/>
    </g>
   </g>
   <g id="line2d_13">
    <g clip-path="url(#pec22908919)">
     <use xlink:href="#m4eba2e2b20" x="51.913636" y="67.440528" style="fill: #ff0000; stroke: #ff0000; stroke-width: 2"/>
     <use xlink:href="#m4eba2e2b20" x="68.218831" y="74.242511" style="fill: #ff0000; stroke: #ff0000; stroke-width: 2"/>
     <use xlink:href="#m4eba2e2b20" x="84.524026" y="78.027601" style="fill: #ff0000; stroke: #ff0000; stroke-width: 2"/>
     <use xlink:href="#m4eba2e2b20" x="100.829221" y="79.60997" style="fill: #ff0000; stroke: #ff0000; stroke-width: 2"/>
     <use xlink:href="#m4eba2e2b20" x="117.134416" y="79.950546" style="fill: #ff0000; stroke: #ff0000; stroke-width: 2"/>
     <use xlink:href="#m4eba2e2b20" x="133.43961" y="81.240322" style="fill: #ff0000; stroke: #ff0000; stroke-width: 2"/>
     <use xlink:href="#m4eba2e2b20" x="149.744805" y="87.951795" style="fill: #ff0000; stroke: #ff0000; stroke-width: 2"/>
     <use xlink:href="#m4eba2e2b20" x="166.05" y="105.591145" style="fill: #ff0000; stroke: #ff0000; stroke-width: 2"/>
     <use xlink:href="#m4eba2e2b20" x="182.355195" y="128.502728" style="fill: #ff0000; stroke: #ff0000; stroke-width: 2"/>
     <use xlink:href="#m4eba2e2b20" x="198.66039" y="154.666854" style="fill: #ff0000; stroke: #ff0000; stroke-width: 2"/>
     <use xlink:href="#m4eba2e2b20" x="214.965584" y="179.017781" style="fill: #ff0000; stroke: #ff0000; stroke-width: 2"/>
     <use xlink:href="#m4eba2e2b20" x="231.270779" y="202.003975" style="fill: #ff0000; stroke: #ff0000; stroke-width: 2"/>
     <use xlink:href="#m4eba2e2b20" x="247.575974" y="223.334226" style="fill: #ff0000; stroke: #ff0000; stroke-width: 2"/>
     <use xlink:href="#m4eba2e2b20" x="263.881169" y="242.123601" style="fill: #ff0000; stroke: #ff0000; stroke-width: 2"/>
     <use xlink:href="#m4eba2e2b20" x="280.186364" y="256.746851" style="fill: #ff0000; stroke: #ff0000; stroke-width: 2"/>
    </g>
   </g>
   <g id="line2d_14">
    <path d="M 51.913636 61.2229 
L 68.218831 69.009448 
L 84.524026 75.265294 
L 100.829221 77.936235 
L 117.134416 78.368779 
L 133.43961 80.907577 
L 149.744805 89.186823 
L 166.05 107.453301 
L 182.355195 129.553459 
L 198.66039 156.538973 
L 214.965584 183.942055 
L 231.270779 210.960601 
L 247.575974 233.866792 
L 263.881169 252.003167 
L 280.186364 265.812871 
" clip-path="url(#pec22908919)" style="fill: none; stroke: #000000; stroke-width: 1.5; stroke-linecap: square"/>
   </g>
   <g id="LineCollection_2">
    <path d="M 51.913636 62.346599 
L 51.913636 60.099202 
" clip-path="url(#pec22908919)" style="fill: none; stroke: #000000; stroke-width: 2"/>
    <path d="M 68.218831 69.763769 
L 68.218831 68.255127 
" clip-path="url(#pec22908919)" style="fill: none; stroke: #000000; stroke-width: 2"/>
    <path d="M 84.524026 76.397713 
L 84.524026 74.132874 
" clip-path="url(#pec22908919)" style="fill: none; stroke: #000000; stroke-width: 2"/>
    <path d="M 100.829221 78.378705 
L 100.829221 77.493766 
" clip-path="url(#pec22908919)" style="fill: none; stroke: #000000; stroke-width: 2"/>
    <path d="M 117.134416 78.816769 
L 117.134416 77.920788 
" clip-path="url(#pec22908919)" style="fill: none; stroke: #000000; stroke-width: 2"/>
    <path d="M 133.43961 81.097659 
L 133.43961 80.717495 
" clip-path="url(#pec22908919)" style="fill: none; stroke: #000000; stroke-width: 2"/>
    <path d="M 149.744805 90.176508 
L 149.744805 88.197137 
" clip-path="url(#pec22908919)" style="fill: none; stroke: #000000; stroke-width: 2"/>
    <path d="M 166.05 107.706107 
L 166.05 107.200495 
" clip-path="url(#pec22908919)" style="fill: none; stroke: #000000; stroke-width: 2"/>
    <path d="M 182.355195 130.200935 
L 182.355195 128.905982 
" clip-path="url(#pec22908919)" style="fill: none; stroke: #000000; stroke-width: 2"/>
    <path d="M 198.66039 157.139869 
L 198.66039 155.938076 
" clip-path="url(#pec22908919)" style="fill: none; stroke: #000000; stroke-width: 2"/>
    <path d="M 214.965584 184.457585 
L 214.965584 183.426525 
" clip-path="url(#pec22908919)" style="fill: none; stroke: #000000; stroke-width: 2"/>
    <path d="M 231.270779 211.284659 
L 231.270779 210.636544 
" clip-path="url(#pec22908919)" style="fill: none; stroke: #000000; stroke-width: 2"/>
    <path d="M 247.575974 234.10722 
L 247.575974 233.626363 
" clip-path="url(#pec22908919)" style="fill: none; stroke: #000000; stroke-width: 2"/>
    <path d="M 263.881169 252.154511 
L 263.881169 251.851823 
" clip-path="url(#pec22908919)" style="fill: none; stroke: #000000; stroke-width: 2"/>
    <path d="M 280.186364 265.917028 
L 280.186364 265.708713 
" clip-path="url(#pec22908919)" style="fill: none; stroke: #000000; stroke-width: 2"/>
   </g>
   <g id="line2d_15">
    <defs>
     <path id="mce0e236567" d="M 3 0 
L -3 -0 
" style="stroke: #000000; stroke-width: 2"/>
    </defs>
    <g clip-path="url(#pec22908919)">
     <use xlink:href="#mce0e236567" x="51.913636" y="62.346599" style="stroke: #000000; stroke-width: 2"/>
     <use xlink:href="#mce0e236567" x="68.218831" y="69.763769" style="stroke: #000000; stroke-width: 2"/>
     <use xlink:href="#mce0e236567" x="84.524026" y="76.397713" style="stroke: #000000; stroke-width: 2"/>
     <use xlink:href="#mce0e236567" x="100.829221" y="78.378705" style="stroke: #000000; stroke-width: 2"/>
     <use xlink:href="#mce0e236567" x="117.134416" y="78.816769" style="stroke: #000000; stroke-width: 2"/>
     <use xlink:href="#mce0e236567" x="133.43961" y="81.097659" style="stroke: #000000; stroke-width: 2"/>
     <use xlink:href="#mce0e236567" x="149.744805" y="90.176508" style="stroke: #000000; stroke-width: 2"/>
     <use xlink:href="#mce0e236567" x="166.05" y="107.706107" style="stroke: #000000; stroke-width: 2"/>
     <use xlink:href="#mce0e236567" x="182.355195" y="130.200935" style="stroke: #000000; stroke-width: 2"/>
     <use xlink:href="#mce0e236567" x="198.66039" y="157.139869" style="stroke: #000000; stroke-width: 2"/>
     <use xlink:href="#mce0e236567" x="214.965584" y="184.457585" style="stroke: #000000; stroke-width: 2"/>
     <use xlink:href="#mce0e236567" x="231.270779" y="211.284659" style="stroke: #000000; stroke-width: 2"/>
     <use xlink:href="#mce0e236567" x="247.575974" y="234.10722" style="stroke: #000000; stroke-width: 2"/>
     <use xlink:href="#mce0e236567" x="263.881169" y="252.154511" style="stroke: #000000; stroke-width: 2"/>
     <use xlink:href="#mce0e236567" x="280.186364" y="265.917028" style="stroke: #000000; stroke-width: 2"/>
    </g>
   </g>
   <g id="line2d_16">
    <g clip-path="url(#pec22908919)">
     <use xlink:href="#mce0e236567" x="51.913636" y="60.099202" style="stroke: #000000; stroke-width: 2"/>
     <use xlink:href="#mce0e236567" x="68.218831" y="68.255127" style="stroke: #000000; stroke-width: 2"/>
     <use xlink:href="#mce0e236567" x="84.524026" y="74.132874" style="stroke: #000000; stroke-width: 2"/>
     <use xlink:href="#mce0e236567" x="100.829221" y="77.493766" style="stroke: #000000; stroke-width: 2"/>
     <use xlink:href="#mce0e236567" x="117.134416" y="77.920788" style="stroke: #000000; stroke-width: 2"/>
     <use xlink:href="#mce0e236567" x="133.43961" y="80.717495" style="stroke: #000000; stroke-width: 2"/>
     <use xlink:href="#mce0e236567" x="149.744805" y="88.197137" style="stroke: #000000; stroke-width: 2"/>
     <use xlink:href="#mce0e236567" x="166.05" y="107.200495" style="stroke: #000000; stroke-width: 2"/>
     <use xlink:href="#mce0e236567" x="182.355195" y="128.905982" style="stroke: #000000; stroke-width: 2"/>
     <use xlink:href="#mce0e236567" x="198.66039" y="155.938076" style="stroke: #000000; stroke-width: 2"/>
     <use xlink:href="#mce0e236567" x="214.965584" y="183.426525" style="stroke: #000000; stroke-width: 2"/>
     <use xlink:href="#mce0e236567" x="231.270779" y="210.636544" style="stroke: #000000; stroke-width: 2"/>
     <use xlink:href="#mce0e236567" x="247.575974" y="233.626363" style="stroke: #000000; stroke-width: 2"/>
     <use xlink:href="#mce0e236567" x="263.881169" y="251.851823" style="stroke: #000000; stroke-width: 2"/>
     <use xlink:href="#mce0e236567" x="280.186364" y="265.708713" style="stroke: #000000; stroke-width: 2"/>
    </g>
   </g>
   <g id="line2d_17">
    <path d="M 51.913636 54.595627 
L 68.218831 64.589464 
L 84.524026 70.424766 
L 100.829221 74.430872 
L 117.134416 74.727983 
L 133.43961 79.110058 
L 149.744805 87.276473 
L 166.05 108.190184 
L 182.355195 133.407828 
L 198.66039 161.469164 
L 214.965584 189.652174 
L 231.270779 216.004695 
L 247.575974 240.667436 
L 263.881169 259.244136 
L 280.186364 272.386815 
" clip-path="url(#pec22908919)" style="fill: none; stroke: #0000ff; stroke-width: 1.5; stroke-linecap: square"/>
   </g>
   <g id="LineCollection_3">
    <path d="M 51.913636 55.244818 
L 51.913636 53.946437 
" clip-path="url(#pec22908919)" style="fill: none; stroke: #0000ff; stroke-width: 2"/>
    <path d="M 68.218831 65.349191 
L 68.218831 63.829737 
" clip-path="url(#pec22908919)" style="fill: none; stroke: #0000ff; stroke-width: 2"/>
    <path d="M 84.524026 71.221398 
L 84.524026 69.628134 
" clip-path="url(#pec22908919)" style="fill: none; stroke: #0000ff; stroke-width: 2"/>
    <path d="M 100.829221 75.138511 
L 100.829221 73.723232 
" clip-path="url(#pec22908919)" style="fill: none; stroke: #0000ff; stroke-width: 2"/>
    <path d="M 117.134416 75.615307 
L 117.134416 73.840659 
" clip-path="url(#pec22908919)" style="fill: none; stroke: #0000ff; stroke-width: 2"/>
    <path d="M 133.43961 79.460943 
L 133.43961 78.759173 
" clip-path="url(#pec22908919)" style="fill: none; stroke: #0000ff; stroke-width: 2"/>
    <path d="M 149.744805 88.0275 
L 149.744805 86.525446 
" clip-path="url(#pec22908919)" style="fill: none; stroke: #0000ff; stroke-width: 2"/>
    <path d="M 166.05 109.111015 
L 166.05 107.269352 
" clip-path="url(#pec22908919)" style="fill: none; stroke: #0000ff; stroke-width: 2"/>
    <path d="M 182.355195 134.091269 
L 182.355195 132.724387 
" clip-path="url(#pec22908919)" style="fill: none; stroke: #0000ff; stroke-width: 2"/>
    <path d="M 198.66039 161.906164 
L 198.66039 161.032165 
" clip-path="url(#pec22908919)" style="fill: none; stroke: #0000ff; stroke-width: 2"/>
    <path d="M 214.965584 189.924698 
L 214.965584 189.37965 
" clip-path="url(#pec22908919)" style="fill: none; stroke: #0000ff; stroke-width: 2"/>
    <path d="M 231.270779 216.461914 
L 231.270779 215.547476 
" clip-path="url(#pec22908919)" style="fill: none; stroke: #0000ff; stroke-width: 2"/>
    <path d="M 247.575974 240.870313 
L 247.575974 240.46456 
" clip-path="url(#pec22908919)" style="fill: none; stroke: #0000ff; stroke-width: 2"/>
    <path d="M 263.881169 259.384791 
L 263.881169 259.10348 
" clip-path="url(#pec22908919)" style="fill: none; stroke: #0000ff; stroke-width: 2"/>
    <path d="M 280.186364 272.456882 
L 280.186364 272.316748 
" clip-path="url(#pec22908919)" style="fill: none; stroke: #0000ff; stroke-width: 2"/>
   </g>
   <g id="line2d_18">
    <defs>
     <path id="m02028aa338" d="M 3 0 
L -3 -0 
" style="stroke: #0000ff; stroke-width: 2"/>
    </defs>
    <g clip-path="url(#pec22908919)">
     <use xlink:href="#m02028aa338" x="51.913636" y="55.244818" style="fill: #0000ff; stroke: #0000ff; stroke-width: 2"/>
     <use xlink:href="#m02028aa338" x="68.218831" y="65.349191" style="fill: #0000ff; stroke: #0000ff; stroke-width: 2"/>
     <use xlink:href="#m02028aa338" x="84.524026" y="71.221398" style="fill: #0000ff; stroke: #0000ff; stroke-width: 2"/>
     <use xlink:href="#m02028aa338" x="100.829221" y="75.138511" style="fill: #0000ff; stroke: #0000ff; stroke-width: 2"/>
     <use xlink:href="#m02028aa338" x="117.134416" y="75.615307" style="fill: #0000ff; stroke: #0000ff; stroke-width: 2"/>
     <use xlink:href="#m02028aa338" x="133.43961" y="79.460943" style="fill: #0000ff; stroke: #0000ff; stroke-width: 2"/>
     <use xlink:href="#m02028aa338" x="149.744805" y="88.0275" style="fill: #0000ff; stroke: #0000ff; stroke-width: 2"/>
     <use xlink:href="#m02028aa338" x="166.05" y="109.111015" style="fill: #0000ff; stroke: #0000ff; stroke-width: 2"/>
     <use xlink:href="#m02028aa338" x="182.355195" y="134.091269" style="fill: #0000ff; stroke: #0000ff; stroke-width: 2"/>
     <use xlink:href="#m02028aa338" x="198.66039" y="161.906164" style="fill: #0000ff; stroke: #0000ff; stroke-width: 2"/>
     <use xlink:href="#m02028aa338" x="214.965584" y="189.924698" style="fill: #0000ff; stroke: #0000ff; stroke-width: 2"/>
     <use xlink:href="#m02028aa338" x="231.270779" y="216.461914" style="fill: #0000ff; stroke: #0000ff; stroke-width: 2"/>
     <use xlink:href="#m02028aa338" x="247.575974" y="240.870313" style="fill: #0000ff; stroke: #0000ff; stroke-width: 2"/>
     <use xlink:href="#m02028aa338" x="263.881169" y="259.384791" style="fill: #0000ff; stroke: #0000ff; stroke-width: 2"/>
     <use xlink:href="#m02028aa338" x="280.186364" y="272.456882" style="fill: #0000ff; stroke: #0000ff; stroke-width: 2"/>
    </g>
   </g>
   <g id="line2d_19">
    <g clip-path="url(#pec22908919)">
     <use xlink:href="#m02028aa338" x="51.913636" y="53.946437" style="fill: #0000ff; stroke: #0000ff; stroke-width: 2"/>
     <use xlink:href="#m02028aa338" x="68.218831" y="63.829737" style="fill: #0000ff; stroke: #0000ff; stroke-width: 2"/>
     <use xlink:href="#m02028aa338" x="84.524026" y="69.628134" style="fill: #0000ff; stroke: #0000ff; stroke-width: 2"/>
     <use xlink:href="#m02028aa338" x="100.829221" y="73.723232" style="fill: #0000ff; stroke: #0000ff; stroke-width: 2"/>
     <use xlink:href="#m02028aa338" x="117.134416" y="73.840659" style="fill: #0000ff; stroke: #0000ff; stroke-width: 2"/>
     <use xlink:href="#m02028aa338" x="133.43961" y="78.759173" style="fill: #0000ff; stroke: #0000ff; stroke-width: 2"/>
     <use xlink:href="#m02028aa338" x="149.744805" y="86.525446" style="fill: #0000ff; stroke: #0000ff; stroke-width: 2"/>
     <use xlink:href="#m02028aa338" x="166.05" y="107.269352" style="fill: #0000ff; stroke: #0000ff; stroke-width: 2"/>
     <use xlink:href="#m02028aa338" x="182.355195" y="132.724387" style="fill: #0000ff; stroke: #0000ff; stroke-width: 2"/>
     <use xlink:href="#m02028aa338" x="198.66039" y="161.032165" style="fill: #0000ff; stroke: #0000ff; stroke-width: 2"/>
     <use xlink:href="#m02028aa338" x="214.965584" y="189.37965" style="fill: #0000ff; stroke: #0000ff; stroke-width: 2"/>
     <use xlink:href="#m02028aa338" x="231.270779" y="215.547476" style="fill: #0000ff; stroke: #0000ff; stroke-width: 2"/>
     <use xlink:href="#m02028aa338" x="247.575974" y="240.46456" style="fill: #0000ff; stroke: #0000ff; stroke-width: 2"/>
     <use xlink:href="#m02028aa338" x="263.881169" y="259.10348" style="fill: #0000ff; stroke: #0000ff; stroke-width: 2"/>
     <use xlink:href="#m02028aa338" x="280.186364" y="272.316748" style="fill: #0000ff; stroke: #0000ff; stroke-width: 2"/>
    </g>
   </g>
   <g id="line2d_20">
    <path d="M 51.913636 51.173496 
L 68.218831 60.747306 
L 84.524026 67.160809 
L 100.829221 70.123485 
L 117.134416 72.145477 
L 133.43961 75.387638 
L 149.744805 86.893642 
L 166.05 106.813336 
L 182.355195 135.257397 
L 198.66039 165.032296 
L 214.965584 194.260741 
L 231.270779 222.052717 
L 247.575974 246.406256 
L 263.881169 265.103149 
L 280.186364 276.920732 
" clip-path="url(#pec22908919)" style="fill: none; stroke: #bf00bf; stroke-width: 1.5; stroke-linecap: square"/>
   </g>
   <g id="LineCollection_4">
    <path d="M 51.913636 52.126991 
L 51.913636 50.22 
" clip-path="url(#pec22908919)" style="fill: none; stroke: #bf00bf; stroke-width: 2"/>
    <path d="M 68.218831 61.81374 
L 68.218831 59.680872 
" clip-path="url(#pec22908919)" style="fill: none; stroke: #bf00bf; stroke-width: 2"/>
    <path d="M 84.524026 67.678268 
L 84.524026 66.64335 
" clip-path="url(#pec22908919)" style="fill: none; stroke: #bf00bf; stroke-width: 2"/>
    <path d="M 100.829221 70.980034 
L 100.829221 69.266937 
" clip-path="url(#pec22908919)" style="fill: none; stroke: #bf00bf; stroke-width: 2"/>
    <path d="M 117.134416 72.843771 
L 117.134416 71.447182 
" clip-path="url(#pec22908919)" style="fill: none; stroke: #bf00bf; stroke-width: 2"/>
    <path d="M 133.43961 76.673094 
L 133.43961 74.102183 
" clip-path="url(#pec22908919)" style="fill: none; stroke: #bf00bf; stroke-width: 2"/>
    <path d="M 149.744805 88.024905 
L 149.744805 85.762378 
" clip-path="url(#pec22908919)" style="fill: none; stroke: #bf00bf; stroke-width: 2"/>
    <path d="M 166.05 107.510161 
L 166.05 106.116511 
" clip-path="url(#pec22908919)" style="fill: none; stroke: #bf00bf; stroke-width: 2"/>
    <path d="M 182.355195 135.704058 
L 182.355195 134.810737 
" clip-path="url(#pec22908919)" style="fill: none; stroke: #bf00bf; stroke-width: 2"/>
    <path d="M 198.66039 165.577397 
L 198.66039 164.487195 
" clip-path="url(#pec22908919)" style="fill: none; stroke: #bf00bf; stroke-width: 2"/>
    <path d="M 214.965584 194.935041 
L 214.965584 193.586441 
" clip-path="url(#pec22908919)" style="fill: none; stroke: #bf00bf; stroke-width: 2"/>
    <path d="M 231.270779 222.29182 
L 231.270779 221.813615 
" clip-path="url(#pec22908919)" style="fill: none; stroke: #bf00bf; stroke-width: 2"/>
    <path d="M 247.575974 246.595541 
L 247.575974 246.216971 
" clip-path="url(#pec22908919)" style="fill: none; stroke: #bf00bf; stroke-width: 2"/>
    <path d="M 263.881169 265.2475 
L 263.881169 264.958797 
" clip-path="url(#pec22908919)" style="fill: none; stroke: #bf00bf; stroke-width: 2"/>
    <path d="M 280.186364 277.02 
L 280.186364 276.821464 
" clip-path="url(#pec22908919)" style="fill: none; stroke: #bf00bf; stroke-width: 2"/>
   </g>
   <g id="line2d_21">
    <defs>
     <path id="m59d154471c" d="M 3 0 
L -3 -0 
" style="stroke: #bf00bf; stroke-width: 2"/>
    </defs>
    <g clip-path="url(#pec22908919)">
     <use xlink:href="#m59d154471c" x="51.913636" y="52.126991" style="fill: #bf00bf; stroke: #bf00bf; stroke-width: 2"/>
     <use xlink:href="#m59d154471c" x="68.218831" y="61.81374" style="fill: #bf00bf; stroke: #bf00bf; stroke-width: 2"/>
     <use xlink:href="#m59d154471c" x="84.524026" y="67.678268" style="fill: #bf00bf; stroke: #bf00bf; stroke-width: 2"/>
     <use xlink:href="#m59d154471c" x="100.829221" y="70.980034" style="fill: #bf00bf; stroke: #bf00bf; stroke-width: 2"/>
     <use xlink:href="#m59d154471c" x="117.134416" y="72.843771" style="fill: #bf00bf; stroke: #bf00bf; stroke-width: 2"/>
     <use xlink:href="#m59d154471c" x="133.43961" y="76.673094" style="fill: #bf00bf; stroke: #bf00bf; stroke-width: 2"/>
     <use xlink:href="#m59d154471c" x="149.744805" y="88.024905" style="fill: #bf00bf; stroke: #bf00bf; stroke-width: 2"/>
     <use xlink:href="#m59d154471c" x="166.05" y="107.510161" style="fill: #bf00bf; stroke: #bf00bf; stroke-width: 2"/>
     <use xlink:href="#m59d154471c" x="182.355195" y="135.704058" style="fill: #bf00bf; stroke: #bf00bf; stroke-width: 2"/>
     <use xlink:href="#m59d154471c" x="198.66039" y="165.577397" style="fill: #bf00bf; stroke: #bf00bf; stroke-width: 2"/>
     <use xlink:href="#m59d154471c" x="214.965584" y="194.935041" style="fill: #bf00bf; stroke: #bf00bf; stroke-width: 2"/>
     <use xlink:href="#m59d154471c" x="231.270779" y="222.29182" style="fill: #bf00bf; stroke: #bf00bf; stroke-width: 2"/>
     <use xlink:href="#m59d154471c" x="247.575974" y="246.595541" style="fill: #bf00bf; stroke: #bf00bf; stroke-width: 2"/>
     <use xlink:href="#m59d154471c" x="263.881169" y="265.2475" style="fill: #bf00bf; stroke: #bf00bf; stroke-width: 2"/>
     <use xlink:href="#m59d154471c" x="280.186364" y="277.02" style="fill: #bf00bf; stroke: #bf00bf; stroke-width: 2"/>
    </g>
   </g>
   <g id="line2d_22">
    <g clip-path="url(#pec22908919)">
     <use xlink:href="#m59d154471c" x="51.913636" y="50.22" style="fill: #bf00bf; stroke: #bf00bf; stroke-width: 2"/>
     <use xlink:href="#m59d154471c" x="68.218831" y="59.680872" style="fill: #bf00bf; stroke: #bf00bf; stroke-width: 2"/>
     <use xlink:href="#m59d154471c" x="84.524026" y="66.64335" style="fill: #bf00bf; stroke: #bf00bf; stroke-width: 2"/>
     <use xlink:href="#m59d154471c" x="100.829221" y="69.266937" style="fill: #bf00bf; stroke: #bf00bf; stroke-width: 2"/>
     <use xlink:href="#m59d154471c" x="117.134416" y="71.447182" style="fill: #bf00bf; stroke: #bf00bf; stroke-width: 2"/>
     <use xlink:href="#m59d154471c" x="133.43961" y="74.102183" style="fill: #bf00bf; stroke: #bf00bf; stroke-width: 2"/>
     <use xlink:href="#m59d154471c" x="149.744805" y="85.762378" style="fill: #bf00bf; stroke: #bf00bf; stroke-width: 2"/>
     <use xlink:href="#m59d154471c" x="166.05" y="106.116511" style="fill: #bf00bf; stroke: #bf00bf; stroke-width: 2"/>
     <use xlink:href="#m59d154471c" x="182.355195" y="134.810737" style="fill: #bf00bf; stroke: #bf00bf; stroke-width: 2"/>
     <use xlink:href="#m59d154471c" x="198.66039" y="164.487195" style="fill: #bf00bf; stroke: #bf00bf; stroke-width: 2"/>
     <use xlink:href="#m59d154471c" x="214.965584" y="193.586441" style="fill: #bf00bf; stroke: #bf00bf; stroke-width: 2"/>
     <use xlink:href="#m59d154471c" x="231.270779" y="221.813615" style="fill: #bf00bf; stroke: #bf00bf; stroke-width: 2"/>
     <use xlink:href="#m59d154471c" x="247.575974" y="246.216971" style="fill: #bf00bf; stroke: #bf00bf; stroke-width: 2"/>
     <use xlink:href="#m59d154471c" x="263.881169" y="264.958797" style="fill: #bf00bf; stroke: #bf00bf; stroke-width: 2"/>
     <use xlink:href="#m59d154471c" x="280.186364" y="276.821464" style="fill: #bf00bf; stroke: #bf00bf; stroke-width: 2"/>
    </g>
   </g>
   <g id="line2d_23">
    <path d="M 51.913636 68.50612 
L 68.218831 74.784139 
L 84.524026 78.956294 
L 100.829221 80.253082 
L 117.134416 80.659298 
L 133.43961 81.667118 
L 149.744805 89.068284 
L 166.05 106.623661 
L 182.355195 129.189491 
L 198.66039 155.003837 
L 214.965584 179.630298 
L 231.270779 202.527989 
L 247.575974 223.623595 
L 263.881169 242.253365 
L 280.186364 256.927476 
" clip-path="url(#pec22908919)" style="fill: none; stroke: #ff0000; stroke-width: 1.5; stroke-linecap: square"/>
   </g>
   <g id="line2d_24">
    <path d="M 51.913636 61.2229 
L 68.218831 69.009448 
L 84.524026 75.265294 
L 100.829221 77.936235 
L 117.134416 78.368779 
L 133.43961 80.907577 
L 149.744805 89.186823 
L 166.05 107.453301 
L 182.355195 129.553459 
L 198.66039 156.538973 
L 214.965584 183.942055 
L 231.270779 210.960601 
L 247.575974 233.866792 
L 263.881169 252.003167 
L 280.186364 265.812871 
" clip-path="url(#pec22908919)" style="fill: none; stroke: #000000; stroke-width: 1.5; stroke-linecap: square"/>
   </g>
   <g id="line2d_25">
    <path d="M 51.913636 54.595627 
L 68.218831 64.589464 
L 84.524026 70.424766 
L 100.829221 74.430872 
L 117.134416 74.727983 
L 133.43961 79.110058 
L 149.744805 87.276473 
L 166.05 108.190184 
L 182.355195 133.407828 
L 198.66039 161.469164 
L 214.965584 189.652174 
L 231.270779 216.004695 
L 247.575974 240.667436 
L 263.881169 259.244136 
L 280.186364 272.386815 
" clip-path="url(#pec22908919)" style="fill: none; stroke: #0000ff; stroke-width: 1.5; stroke-linecap: square"/>
   </g>
   <g id="line2d_26">
    <path d="M 51.913636 51.173496 
L 68.218831 60.747306 
L 84.524026 67.160809 
L 100.829221 70.123485 
L 117.134416 72.145477 
L 133.43961 75.387638 
L 149.744805 86.893642 
L 166.05 106.813336 
L 182.355195 135.257397 
L 198.66039 165.032296 
L 214.965584 194.260741 
L 231.270779 222.052717 
L 247.575974 246.406256 
L 263.881169 265.103149 
L 280.186364 276.920732 
" clip-path="url(#pec22908919)" style="fill: none; stroke: #bf00bf; stroke-width: 1.5; stroke-linecap: square"/>
   </g>
   <g id="patch_3">
    <path d="M 40.5 288.36 
L 40.5 38.88 
" style="fill: none; stroke: #000000; stroke-width: 1.6; stroke-linejoin: miter; stroke-linecap: square"/>
   </g>
   <g id="patch_4">
    <path d="M 291.6 288.36 
L 291.6 38.88 
" style="fill: none; stroke: #000000; stroke-width: 1.6; stroke-linejoin: miter; stroke-linecap: square"/>
   </g>
   <g id="patch_5">
    <path d="M 40.5 288.36 
L 291.6 288.36 
" style="fill: none; stroke: #000000; stroke-width: 1.6; stroke-linejoin: miter; stroke-linecap: square"/>
   </g>
   <g id="patch_6">
    <path d="M 40.5 38.88 
L 291.6 38.88 
" style="fill: none; stroke: #000000; stroke-width: 1.6; stroke-linejoin: miter; stroke-linecap: square"/>
   </g>
   <g id="legend_1">
    <g id="patch_7">
     <path d="M 209.120625 118.935 
L 283.2 118.935 
Q 285.6 118.935 285.6 116.535 
L 285.6 47.28 
Q 285.6 44.88 283.2 44.88 
L 209.120625 44.88 
Q 206.720625 44.88 206.720625 47.28 
L 206.720625 116.535 
Q 206.720625 118.935 209.120625 118.935 
z
" style="fill: #ffffff; opacity: 0.8"/>
    </g>
    <g id="line2d_27">
     <path d="M 211.520625 54.598125 
L 223.520625 54.598125 
L 235.520625 54.598125 
" style="fill: none; stroke: #ff0000; stroke-width: 1.5; stroke-linecap: square"/>
    </g>
    <g id="text_11">
     <!-- M=8 -->
     <g transform="translate(245.120625 58.798125) scale(0.12 -0.12)">
      <defs>
       <path id="DejaVuSans-4d" d="M 628 4666 
L 1569 4666 
L 2759 1491 
L 3956 4666 
L 4897 4666 
L 4897 0 
L 4281 0 
L 4281 4097 
L 3078 897 
L 2444 897 
L 1241 4097 
L 1241 0 
L 628 0 
L 628 4666 
z
" transform="scale(0.015625)"/>
       <path id="DejaVuSans-3d" d="M 678 2906 
L 4684 2906 
L 4684 2381 
L 678 2381 
L 678 2906 
z
M 678 1631 
L 4684 1631 
L 4684 1100 
L 678 1100 
L 678 1631 
z
" transform="scale(0.015625)"/>
      </defs>
      <use xlink:href="#DejaVuSans-4d"/>
      <use xlink:href="#DejaVuSans-3d" x="86.279297"/>
      <use xlink:href="#DejaVuSans-38" x="170.068359"/>
     </g>
    </g>
    <g id="line2d_28">
     <path d="M 211.520625 72.211875 
L 223.520625 72.211875 
L 235.520625 72.211875 
" style="fill: none; stroke: #000000; stroke-width: 1.5; stroke-linecap: square"/>
    </g>
    <g id="text_12">
     <!-- M=10 -->
     <g transform="translate(245.120625 76.411875) scale(0.12 -0.12)">
      <use xlink:href="#DejaVuSans-4d"/>
      <use xlink:href="#DejaVuSans-3d" x="86.279297"/>
      <use xlink:href="#DejaVuSans-31" x="170.068359"/>
      <use xlink:href="#DejaVuSans-30" x="233.691406"/>
     </g>
    </g>
    <g id="line2d_29">
     <path d="M 211.520625 89.825625 
L 223.520625 89.825625 
L 235.520625 89.825625 
" style="fill: none; stroke: #0000ff; stroke-width: 1.5; stroke-linecap: square"/>
    </g>
    <g id="text_13">
     <!-- M=12 -->
     <g transform="translate(245.120625 94.025625) scale(0.12 -0.12)">
      <use xlink:href="#DejaVuSans-4d"/>
      <use xlink:href="#DejaVuSans-3d" x="86.279297"/>
      <use xlink:href="#DejaVuSans-31" x="170.068359"/>
      <use xlink:href="#DejaVuSans-32" x="233.691406"/>
     </g>
    </g>
    <g id="line2d_30">
     <path d="M 211.520625 107.439375 
L 223.520625 107.439375 
L 235.520625 107.439375 
" style="fill: none; stroke: #bf00bf; stroke-width: 1.5; stroke-linecap: square"/>
    </g>
    <g id="text_14">
     <!-- M=14 -->
     <g transform="translate(245.120625 111.639375) scale(0.12 -0.12)">
      <use xlink:href="#DejaVuSans-4d"/>
      <use xlink:href="#DejaVuSans-3d" x="86.279297"/>
      <use xlink:href="#DejaVuSans-31" x="170.068359"/>
      <use xlink:href="#DejaVuSans-34" x="233.691406"/>
     </g>
    </g>
   </g>
  </g>
 </g>
 <defs>
  <clipPath id="pec22908919">
   <rect x="40.5" y="38.88" width="251.1" height="249.48"/>
  </clipPath>
 </defs>
</svg>
