<?xml version="1.0" encoding="utf-8" standalone="no"?>
<!DOCTYPE svg PUBLIC "-//W3C//DTD SVG 1.1//EN"
  "http://www.w3.org/Graphics/SVG/1.1/DTD/svg11.dtd">
<svg xmlns:xlink="http://www.w3.org/1999/xlink" width="324pt" height="324pt" viewBox="0 0 324 324" xmlns="http://www.w3.org/2000/svg" version="1.1">
 <metadata>
  <rdf:RDF xmlns:dc="http://purl.org/dc/elements/1.1/" xmlns:cc="http://creativecommons.org/ns#" xmlns:rdf="http://www.w3.org/1999/02/22-rdf-syntax-ns#">
   <cc:Work>
    <dc:type rdf:resource="http://purl.org/dc/dcmitype/StillImage"/>
    <dc:date>2026-01-11T13:23:36.494740</dc:date>
    <dc:format>image/svg+xml</dc:format>
    <dc:creator>
     <cc:Agent>
      <dc:title>Matplotlib v3.8.0, https://matplotlib.org/</dc:title>
     </cc:Agent>
    </dc:creator>
   </cc:Work>
  </rdf:RDF>
 </metadata>
 <defs>
  <style type="text/css">*{stroke-linejoin: round; stroke-linecap: butt}</style>
 </defs>
 <g id="figure_1">
  <g id="patch_1">
   <path d="M 0 324 
L 324 324 
L 324 0 
L 0 0 
z
" style="fill: #ffffff"/>
  </g>
  <g id="axes_1">
   <g id="patch_2">
    <path d="M 40.5 288.36 
L 291.6 288.36 
L 291.6 38.88 
L 40.5 38.88 
z
" style="fill: #ffffff"/>
   </g>
   <g id="matplotlib.axis_1">
    <g id="xtick_1">
     <g id="line2d_1">
      <defs>
       <path id="mb219c2443d" d="M 0 0 
L 0 8 
" style="stroke: #000000; stroke-width: 1.5"/>
      </defs>
      <g>
       <use xlink:href="#mb219c2443d" x="51.913636" y="288.36" style="stroke: #000000; stroke-width: 1.5"/>
      </g>
     </g>
     <g id="text_1">
      <!-- 1.0 -->
      <g transform="translate(42.371761 308.978125) scale(0.12 -0.12)">
       <defs>
        <path id="DejaVuSans-31" d="M 794 531 
L 1825 531 
L 1825 4091 
L 703 3866 
L 703 4441 
L 1819 4666 
L 2450 4666 
L 2450 531 
L 3481 531 
L 3481 0 
L 794 0 
L 794 531 
z
" transform="scale(0.015625)"/>
        <path id="DejaVuSans-2e" d="M 684 794 
L 1344 794 
L 1344 0 
L 684 0 
L 684 794 
z
" transform="scale(0.015625)"/>
        <path id="DejaVuSans-30" d="M 2034 4250 
Q 1547 4250 1301 3770 
Q 1056 3291 1056 2328 
Q 1056 1369 1301 889 
Q 1547 409 2034 409 
Q 2525 409 2770 889 
Q 3016 1369 3016 2328 
Q 3016 3291 2770 3770 
Q 2525 4250 2034 4250 
z
M 2034 4750 
Q 2819 4750 3233 4129 
Q 3647 3509 3647 2328 
Q 3647 1150 3233 529 
Q 2819 -91 2034 -91 
Q 1250 -91 836 529 
Q 422 1150 422 2328 
Q 422 3509 836 4129 
Q 1250 4750 2034 4750 
z
" transform="scale(0.015625)"/>
       </defs>
       <use xlink:href="#DejaVuSans-31"/>
       <use xlink:href="#DejaVuSans-2e" x="63.623047"/>
       <use xlink:href="#DejaVuSans-30" x="95.410156"/>
      </g>
     </g>
    </g>
    <g id="xtick_2">
     <g id="line2d_2">
      <g>
       <use xlink:href="#mb219c2443d" x="103.793802" y="288.36" style="stroke: #000000; stroke-width: 1.5"/>
      </g>
     </g>
     <g id="text_2">
      <!-- 1.5 -->
      <g transform="translate(94.251927 308.978125) scale(0.12 -0.12)">
       <defs>
        <path id="DejaVuSans-35" d="M 691 4666 
L 3169 4666 
L 3169 4134 
L 1269 4134 
L 1269 2991 
Q 1406 3038 1543 3061 
Q 1681 3084 1819 3084 
Q 2600 3084 3056 2656 
Q 3513 2228 3513 1497 
Q 3513 744 3044 326 
Q 2575 -91 1722 -91 
Q 1428 -91 1123 -41 
Q 819 9 494 109 
L 494 744 
Q 775 591 1075 516 
Q 1375 441 1709 441 
Q 2250 441 2565 725 
Q 2881 1009 2881 1497 
Q 2881 1984 2565 2268 
Q 2250 2553 1709 2553 
Q 1456 2553 1204 2497 
Q 953 2441 691 2322 
L 691 4666 
z
" transform="scale(0.015625)"/>
       </defs>
       <use xlink:href="#DejaVuSans-31"/>
       <use xlink:href="#DejaVuSans-2e" x="63.623047"/>
       <use xlink:href="#DejaVuSans-35" x="95.410156"/>
      </g>
     </g>
    </g>
    <g id="xtick_3">
     <g id="line2d_3">
      <g>
       <use xlink:href="#mb219c2443d" x="155.673967" y="288.36" style="stroke: #000000; stroke-width: 1.5"/>
      </g>
     </g>
     <g id="text_3">
      <!-- 2.0 -->
      <g transform="translate(146.132092 308.978125) scale(0.12 -0.12)">
       <defs>
        <path id="DejaVuSans-32" d="M 1228 531 
L 3431 531 
L 3431 0 
L 469 0 
L 469 531 
Q 828 903 1448 1529 
Q 2069 2156 2228 2338 
Q 2531 2678 2651 2914 
Q 2772 3150 2772 3378 
Q 2772 3750 2511 3984 
Q 2250 4219 1831 4219 
Q 1534 4219 1204 4116 
Q 875 4013 500 3803 
L 500 4441 
Q 881 4594 1212 4672 
Q 1544 4750 1819 4750 
Q 2544 4750 2975 4387 
Q 3406 4025 3406 3419 
Q 3406 3131 3298 2873 
Q 3191 2616 2906 2266 
Q 2828 2175 2409 1742 
Q 1991 1309 1228 531 
z
" transform="scale(0.015625)"/>
       </defs>
       <use xlink:href="#DejaVuSans-32"/>
       <use xlink:href="#DejaVuSans-2e" x="63.623047"/>
       <use xlink:href="#DejaVuSans-30" x="95.410156"/>
      </g>
     </g>
    </g>
    <g id="xtick_4">
     <g id="line2d_4">
      <g>
       <use xlink:href="#mb219c2443d" x="207.554132" y="288.36" style="stroke: #000000; stroke-width: 1.5"/>
      </g>
     </g>
     <g id="text_4">
      <!-- 2.5 -->
      <g transform="translate(198.012257 308.978125) scale(0.12 -0.12)">
       <use xlink:href="#DejaVuSans-32"/>
       <use xlink:href="#DejaVuSans-2e" x="63.623047"/>
       <use xlink:href="#DejaVuSans-35" x="95.410156"/>
      </g>
     </g>
    </g>
    <g id="xtick_5">
     <g id="line2d_5">
      <g>
       <use xlink:href="#mb219c2443d" x="259.434298" y="288.36" style="stroke: #000000; stroke-width: 1.5"/>
      </g>
     </g>
     <g id="text_5">
      <!-- 3.0 -->
      <g transform="translate(249.892423 308.978125) scale(0.12 -0.12)">
       <defs>
        <path id="DejaVuSans-33" d="M 2597 2516 
Q 3050 2419 3304 2112 
Q 3559 1806 3559 1356 
Q 3559 666 3084 287 
Q 2609 -91 1734 -91 
Q 1441 -91 1130 -33 
Q 819 25 488 141 
L 488 750 
Q 750 597 1062 519 
Q 1375 441 1716 441 
Q 2309 441 2620 675 
Q 2931 909 2931 1356 
Q 2931 1769 2642 2001 
Q 2353 2234 1838 2234 
L 1294 2234 
L 1294 2753 
L 1863 2753 
Q 2328 2753 2575 2939 
Q 2822 3125 2822 3475 
Q 2822 3834 2567 4026 
Q 2313 4219 1838 4219 
Q 1578 4219 1281 4162 
Q 984 4106 628 3988 
L 628 4550 
Q 988 4650 1302 4700 
Q 1616 4750 1894 4750 
Q 2613 4750 3031 4423 
Q 3450 4097 3450 3541 
Q 3450 3153 3228 2886 
Q 3006 2619 2597 2516 
z
" transform="scale(0.015625)"/>
       </defs>
       <use xlink:href="#DejaVuSans-33"/>
       <use xlink:href="#DejaVuSans-2e" x="63.623047"/>
       <use xlink:href="#DejaVuSans-30" x="95.410156"/>
      </g>
     </g>
    </g>
   </g>
   <g id="matplotlib.axis_2">
    <g id="ytick_1">
     <g id="line2d_6">
      <defs>
       <path id="md732f8281d" d="M 0 0 
L -8 0 
" style="stroke: #000000; stroke-width: 1.5"/>
      </defs>
      <g>
       <use xlink:href="#md732f8281d" x="40.5" y="240.19136" style="stroke: #000000; stroke-width: 1.5"/>
      </g>
     </g>
     <g id="text_6">
      <!-- 1 -->
      <g transform="translate(21.365 244.750423) scale(0.12 -0.12)">
       <use xlink:href="#DejaVuSans-31"/>
      </g>
     </g>
    </g>
    <g id="ytick_2">
     <g id="line2d_7">
      <g>
       <use xlink:href="#md732f8281d" x="40.5" y="173.087573" style="stroke: #000000; stroke-width: 1.5"/>
      </g>
     </g>
     <g id="text_7">
      <!-- 2 -->
      <g transform="translate(21.365 177.646636) scale(0.12 -0.12)">
       <use xlink:href="#DejaVuSans-32"/>
      </g>
     </g>
    </g>
    <g id="ytick_3">
     <g id="line2d_8">
      <g>
       <use xlink:href="#md732f8281d" x="40.5" y="105.983787" style="stroke: #000000; stroke-width: 1.5"/>
      </g>
     </g>
     <g id="text_8">
      <!-- 3 -->
      <g transform="translate(21.365 110.542849) scale(0.12 -0.12)">
       <use xlink:href="#DejaVuSans-33"/>
      </g>
     </g>
    </g>
    <g id="ytick_4">
     <g id="line2d_9">
      <g>
       <use xlink:href="#md732f8281d" x="40.5" y="38.88" style="stroke: #000000; stroke-width: 1.5"/>
      </g>
     </g>
     <g id="text_9">
      <!-- 4 -->
      <g transform="translate(21.365 43.439062) scale(0.12 -0.12)">
       <defs>
        <path id="DejaVuSans-34" d="M 2419 4116 
L 825 1625 
L 2419 1625 
L 2419 4116 
z
M 2253 4666 
L 3047 4666 
L 3047 1625 
L 3713 1625 
L 3713 1100 
L 3047 1100 
L 3047 0 
L 2419 0 
L 2419 1100 
L 313 1100 
L 313 1709 
L 2253 4666 
z
" transform="scale(0.015625)"/>
       </defs>
       <use xlink:href="#DejaVuSans-34"/>
      </g>
     </g>
    </g>
   </g>
   <g id="line2d_10">
    <path d="M 51.913636 140.015414 
L 72.665702 155.328408 
L 93.417769 168.501014 
L 114.169835 180.702012 
L 134.921901 191.422864 
L 155.673967 201.015719 
L 176.426033 210.127966 
L 197.178099 217.912884 
L 217.930165 225.762627 
L 238.682231 231.973415 
L 259.434298 237.581203 
L 280.186364 242.156504 
" clip-path="url(#pc1cd195dc2)" style="fill: none; stroke: #ff0000; stroke-width: 1.5; stroke-linecap: square"/>
   </g>
   <g id="LineCollection_1">
    <path d="M 51.913636 140.522498 
L 51.913636 139.508329 
" clip-path="url(#pc1cd195dc2)" style="fill: none; stroke: #ff0000; stroke-width: 2"/>
    <path d="M 72.665702 155.949996 
L 72.665702 154.706821 
" clip-path="url(#pc1cd195dc2)" style="fill: none; stroke: #ff0000; stroke-width: 2"/>
    <path d="M 93.417769 168.831666 
L 93.417769 168.170362 
" clip-path="url(#pc1cd195dc2)" style="fill: none; stroke: #ff0000; stroke-width: 2"/>
    <path d="M 114.169835 181.085558 
L 114.169835 180.318467 
" clip-path="url(#pc1cd195dc2)" style="fill: none; stroke: #ff0000; stroke-width: 2"/>
    <path d="M 134.921901 191.790927 
L 134.921901 191.054801 
" clip-path="url(#pc1cd195dc2)" style="fill: none; stroke: #ff0000; stroke-width: 2"/>
    <path d="M 155.673967 201.394878 
L 155.673967 200.636561 
" clip-path="url(#pc1cd195dc2)" style="fill: none; stroke: #ff0000; stroke-width: 2"/>
    <path d="M 176.426033 210.36358 
L 176.426033 209.892352 
" clip-path="url(#pc1cd195dc2)" style="fill: none; stroke: #ff0000; stroke-width: 2"/>
    <path d="M 197.178099 218.212601 
L 197.178099 217.613166 
" clip-path="url(#pc1cd195dc2)" style="fill: none; stroke: #ff0000; stroke-width: 2"/>
    <path d="M 217.930165 225.911212 
L 217.930165 225.614042 
" clip-path="url(#pc1cd195dc2)" style="fill: none; stroke: #ff0000; stroke-width: 2"/>
    <path d="M 238.682231 232.068651 
L 238.682231 231.87818 
" clip-path="url(#pc1cd195dc2)" style="fill: none; stroke: #ff0000; stroke-width: 2"/>
    <path d="M 259.434298 237.803787 
L 259.434298 237.358619 
" clip-path="url(#pc1cd195dc2)" style="fill: none; stroke: #ff0000; stroke-width: 2"/>
    <path d="M 280.186364 242.281721 
L 280.186364 242.031287 
" clip-path="url(#pc1cd195dc2)" style="fill: none; stroke: #ff0000; stroke-width: 2"/>
   </g>
   <g id="line2d_11">
    <defs>
     <path id="mfc236f4911" d="M 3 0 
L -3 -0 
" style="stroke: #ff0000; stroke-width: 2"/>
    </defs>
    <g clip-path="url(#pc1cd195dc2)">
     <use xlink:href="#mfc236f4911" x="51.913636" y="140.522498" style="fill: #ff0000; stroke: #ff0000; stroke-width: 2"/>
     <use xlink:href="#mfc236f4911" x="72.665702" y="155.949996" style="fill: #ff0000; stroke: #ff0000; stroke-width: 2"/>
     <use xlink:href="#mfc236f4911" x="93.417769" y="168.831666" style="fill: #ff0000; stroke: #ff0000; stroke-width: 2"/>
     <use xlink:href="#mfc236f4911" x="114.169835" y="181.085558" style="fill: #ff0000; stroke: #ff0000; stroke-width: 2"/>
     <use xlink:href="#mfc236f4911" x="134.921901" y="191.790927" style="fill: #ff0000; stroke: #ff0000; stroke-width: 2"/>
     <use xlink:href="#mfc236f4911" x="155.673967" y="201.394878" style="fill: #ff0000; stroke: #ff0000; stroke-width: 2"/>
     <use xlink:href="#mfc236f4911" x="176.426033" y="210.36358" style="fill: #ff0000; stroke: #ff0000; stroke-width: 2"/>
     <use xlink:href="#mfc236f4911" x="197.178099" y="218.212601" style="fill: #ff0000; stroke: #ff0000; stroke-width: 2"/>
     <use xlink:href="#mfc236f4911" x="217.930165" y="225.911212" style="fill: #ff0000; stroke: #ff0000; stroke-width: 2"/>
     <use xlink:href="#mfc236f4911" x="238.682231" y="232.068651" style="fill: #ff0000; stroke: #ff0000; stroke-width: 2"/>
     <use xlink:href="#mfc236f4911" x="259.434298" y="237.803787" style="fill: #ff0000; stroke: #ff0000; stroke-width: 2"/>
     <use xlink:href="#mfc236f4911" x="280.186364" y="242.281721" style="fill: #ff0000; stroke: #ff0000; stroke-width: 2"/>
    </g>
   </g>
   <g id="line2d_12">
    <g clip-path="url(#pc1cd195dc2)">
     <use xlink:href="#mfc236f4911" x="51.913636" y="139.508329" style="fill: #ff0000; stroke: #ff0000; stroke-width: 2"/>
     <use xlink:href="#mfc236f4911" x="72.665702" y="154.706821" style="fill: #ff0000; stroke: #ff0000; stroke-width: 2"/>
     <use xlink:href="#mfc236f4911" x="93.417769" y="168.170362" style="fill: #ff0000; stroke: #ff0000; stroke-width: 2"/>
     <use xlink:href="#mfc236f4911" x="114.169835" y="180.318467" style="fill: #ff0000; stroke: #ff0000; stroke-width: 2"/>
     <use xlink:href="#mfc236f4911" x="134.921901" y="191.054801" style="fill: #ff0000; stroke: #ff0000; stroke-width: 2"/>
     <use xlink:href="#mfc236f4911" x="155.673967" y="200.636561" style="fill: #ff0000; stroke: #ff0000; stroke-width: 2"/>
     <use xlink:href="#mfc236f4911" x="176.426033" y="209.892352" style="fill: #ff0000; stroke: #ff0000; stroke-width: 2"/>
     <use xlink:href="#mfc236f4911" x="197.178099" y="217.613166" style="fill: #ff0000; stroke: #ff0000; stroke-width: 2"/>
     <use xlink:href="#mfc236f4911" x="217.930165" y="225.614042" style="fill: #ff0000; stroke: #ff0000; stroke-width: 2"/>
     <use xlink:href="#mfc236f4911" x="238.682231" y="231.87818" style="fill: #ff0000; stroke: #ff0000; stroke-width: 2"/>
     <use xlink:href="#mfc236f4911" x="259.434298" y="237.358619" style="fill: #ff0000; stroke: #ff0000; stroke-width: 2"/>
     <use xlink:href="#mfc236f4911" x="280.186364" y="242.031287" style="fill: #ff0000; stroke: #ff0000; stroke-width: 2"/>
    </g>
   </g>
   <g id="line2d_13">
    <path d="M 51.913636 123.197332 
L 72.665702 144.852101 
L 93.417769 160.365903 
L 114.169835 176.895125 
L 134.921901 191.02762 
L 155.673967 203.981887 
L 176.426033 216.778427 
L 197.178099 226.409266 
L 217.930165 235.386544 
L 238.682231 243.025212 
L 259.434298 249.094028 
L 280.186364 254.642023 
" clip-path="url(#pc1cd195dc2)" style="fill: none; stroke: #000000; stroke-width: 1.5; stroke-linecap: square"/>
   </g>
   <g id="LineCollection_2">
    <path d="M 51.913636 124.138618 
L 51.913636 122.256045 
" clip-path="url(#pc1cd195dc2)" style="fill: none; stroke: #000000; stroke-width: 2"/>
    <path d="M 72.665702 145.621109 
L 72.665702 144.083093 
" clip-path="url(#pc1cd195dc2)" style="fill: none; stroke: #000000; stroke-width: 2"/>
    <path d="M 93.417769 160.639431 
L 93.417769 160.092375 
" clip-path="url(#pc1cd195dc2)" style="fill: none; stroke: #000000; stroke-width: 2"/>
    <path d="M 114.169835 177.484249 
L 114.169835 176.306001 
" clip-path="url(#pc1cd195dc2)" style="fill: none; stroke: #000000; stroke-width: 2"/>
    <path d="M 134.921901 191.469174 
L 134.921901 190.586066 
" clip-path="url(#pc1cd195dc2)" style="fill: none; stroke: #000000; stroke-width: 2"/>
    <path d="M 155.673967 204.349864 
L 155.673967 203.613911 
" clip-path="url(#pc1cd195dc2)" style="fill: none; stroke: #000000; stroke-width: 2"/>
    <path d="M 176.426033 217.395714 
L 176.426033 216.16114 
" clip-path="url(#pc1cd195dc2)" style="fill: none; stroke: #000000; stroke-width: 2"/>
    <path d="M 197.178099 226.558347 
L 197.178099 226.260185 
" clip-path="url(#pc1cd195dc2)" style="fill: none; stroke: #000000; stroke-width: 2"/>
    <path d="M 217.930165 235.579745 
L 217.930165 235.193342 
" clip-path="url(#pc1cd195dc2)" style="fill: none; stroke: #000000; stroke-width: 2"/>
    <path d="M 238.682231 243.182979 
L 238.682231 242.867444 
" clip-path="url(#pc1cd195dc2)" style="fill: none; stroke: #000000; stroke-width: 2"/>
    <path d="M 259.434298 249.220728 
L 259.434298 248.967327 
" clip-path="url(#pc1cd195dc2)" style="fill: none; stroke: #000000; stroke-width: 2"/>
    <path d="M 280.186364 254.749604 
L 280.186364 254.534441 
" clip-path="url(#pc1cd195dc2)" style="fill: none; stroke: #000000; stroke-width: 2"/>
   </g>
   <g id="line2d_14">
    <defs>
     <path id="mf7083a8e2c" d="M 3 0 
L -3 -0 
" style="stroke: #000000; stroke-width: 2"/>
    </defs>
    <g clip-path="url(#pc1cd195dc2)">
     <use xlink:href="#mf7083a8e2c" x="51.913636" y="124.138618" style="stroke: #000000; stroke-width: 2"/>
     <use xlink:href="#mf7083a8e2c" x="72.665702" y="145.621109" style="stroke: #000000; stroke-width: 2"/>
     <use xlink:href="#mf7083a8e2c" x="93.417769" y="160.639431" style="stroke: #000000; stroke-width: 2"/>
     <use xlink:href="#mf7083a8e2c" x="114.169835" y="177.484249" style="stroke: #000000; stroke-width: 2"/>
     <use xlink:href="#mf7083a8e2c" x="134.921901" y="191.469174" style="stroke: #000000; stroke-width: 2"/>
     <use xlink:href="#mf7083a8e2c" x="155.673967" y="204.349864" style="stroke: #000000; stroke-width: 2"/>
     <use xlink:href="#mf7083a8e2c" x="176.426033" y="217.395714" style="stroke: #000000; stroke-width: 2"/>
     <use xlink:href="#mf7083a8e2c" x="197.178099" y="226.558347" style="stroke: #000000; stroke-width: 2"/>
     <use xlink:href="#mf7083a8e2c" x="217.930165" y="235.579745" style="stroke: #000000; stroke-width: 2"/>
     <use xlink:href="#mf7083a8e2c" x="238.682231" y="243.182979" style="stroke: #000000; stroke-width: 2"/>
     <use xlink:href="#mf7083a8e2c" x="259.434298" y="249.220728" style="stroke: #000000; stroke-width: 2"/>
     <use xlink:href="#mf7083a8e2c" x="280.186364" y="254.749604" style="stroke: #000000; stroke-width: 2"/>
    </g>
   </g>
   <g id="line2d_15">
    <g clip-path="url(#pc1cd195dc2)">
     <use xlink:href="#mf7083a8e2c" x="51.913636" y="122.256045" style="stroke: #000000; stroke-width: 2"/>
     <use xlink:href="#mf7083a8e2c" x="72.665702" y="144.083093" style="stroke: #000000; stroke-width: 2"/>
     <use xlink:href="#mf7083a8e2c" x="93.417769" y="160.092375" style="stroke: #000000; stroke-width: 2"/>
     <use xlink:href="#mf7083a8e2c" x="114.169835" y="176.306001" style="stroke: #000000; stroke-width: 2"/>
     <use xlink:href="#mf7083a8e2c" x="134.921901" y="190.586066" style="stroke: #000000; stroke-width: 2"/>
     <use xlink:href="#mf7083a8e2c" x="155.673967" y="203.613911" style="stroke: #000000; stroke-width: 2"/>
     <use xlink:href="#mf7083a8e2c" x="176.426033" y="216.16114" style="stroke: #000000; stroke-width: 2"/>
     <use xlink:href="#mf7083a8e2c" x="197.178099" y="226.260185" style="stroke: #000000; stroke-width: 2"/>
     <use xlink:href="#mf7083a8e2c" x="217.930165" y="235.193342" style="stroke: #000000; stroke-width: 2"/>
     <use xlink:href="#mf7083a8e2c" x="238.682231" y="242.867444" style="stroke: #000000; stroke-width: 2"/>
     <use xlink:href="#mf7083a8e2c" x="259.434298" y="248.967327" style="stroke: #000000; stroke-width: 2"/>
     <use xlink:href="#mf7083a8e2c" x="280.186364" y="254.534441" style="stroke: #000000; stroke-width: 2"/>
    </g>
   </g>
   <g id="line2d_16">
    <path d="M 51.913636 103.281146 
L 72.665702 127.733506 
L 93.417769 153.352809 
L 114.169835 174.171045 
L 134.921901 193.13506 
L 155.673967 209.769391 
L 176.426033 224.82388 
L 197.178099 236.960527 
L 217.930165 247.226825 
L 238.682231 255.371147 
L 259.434298 261.661588 
L 280.186364 266.888383 
" clip-path="url(#pc1cd195dc2)" style="fill: none; stroke: #0000ff; stroke-width: 1.5; stroke-linecap: square"/>
   </g>
   <g id="LineCollection_3">
    <path d="M 51.913636 104.772468 
L 51.913636 101.789823 
" clip-path="url(#pc1cd195dc2)" style="fill: none; stroke: #0000ff; stroke-width: 2"/>
    <path d="M 72.665702 129.065472 
L 72.665702 126.40154 
" clip-path="url(#pc1cd195dc2)" style="fill: none; stroke: #0000ff; stroke-width: 2"/>
    <path d="M 93.417769 154.020641 
L 93.417769 152.684977 
" clip-path="url(#pc1cd195dc2)" style="fill: none; stroke: #0000ff; stroke-width: 2"/>
    <path d="M 114.169835 175.230237 
L 114.169835 173.111854 
" clip-path="url(#pc1cd195dc2)" style="fill: none; stroke: #0000ff; stroke-width: 2"/>
    <path d="M 134.921901 193.688642 
L 134.921901 192.581478 
" clip-path="url(#pc1cd195dc2)" style="fill: none; stroke: #0000ff; stroke-width: 2"/>
    <path d="M 155.673967 210.535697 
L 155.673967 209.003084 
" clip-path="url(#pc1cd195dc2)" style="fill: none; stroke: #0000ff; stroke-width: 2"/>
    <path d="M 176.426033 225.136646 
L 176.426033 224.511113 
" clip-path="url(#pc1cd195dc2)" style="fill: none; stroke: #0000ff; stroke-width: 2"/>
    <path d="M 197.178099 237.157565 
L 197.178099 236.763489 
" clip-path="url(#pc1cd195dc2)" style="fill: none; stroke: #0000ff; stroke-width: 2"/>
    <path d="M 217.930165 247.537027 
L 217.930165 246.916623 
" clip-path="url(#pc1cd195dc2)" style="fill: none; stroke: #0000ff; stroke-width: 2"/>
    <path d="M 238.682231 255.643412 
L 238.682231 255.098882 
" clip-path="url(#pc1cd195dc2)" style="fill: none; stroke: #0000ff; stroke-width: 2"/>
    <path d="M 259.434298 261.817995 
L 259.434298 261.505181 
" clip-path="url(#pc1cd195dc2)" style="fill: none; stroke: #0000ff; stroke-width: 2"/>
    <path d="M 280.186364 267.052134 
L 280.186364 266.724633 
" clip-path="url(#pc1cd195dc2)" style="fill: none; stroke: #0000ff; stroke-width: 2"/>
   </g>
   <g id="line2d_17">
    <defs>
     <path id="m65b1ef1f10" d="M 3 0 
L -3 -0 
" style="stroke: #0000ff; stroke-width: 2"/>
    </defs>
    <g clip-path="url(#pc1cd195dc2)">
     <use xlink:href="#m65b1ef1f10" x="51.913636" y="104.772468" style="fill: #0000ff; stroke: #0000ff; stroke-width: 2"/>
     <use xlink:href="#m65b1ef1f10" x="72.665702" y="129.065472" style="fill: #0000ff; stroke: #0000ff; stroke-width: 2"/>
     <use xlink:href="#m65b1ef1f10" x="93.417769" y="154.020641" style="fill: #0000ff; stroke: #0000ff; stroke-width: 2"/>
     <use xlink:href="#m65b1ef1f10" x="114.169835" y="175.230237" style="fill: #0000ff; stroke: #0000ff; stroke-width: 2"/>
     <use xlink:href="#m65b1ef1f10" x="134.921901" y="193.688642" style="fill: #0000ff; stroke: #0000ff; stroke-width: 2"/>
     <use xlink:href="#m65b1ef1f10" x="155.673967" y="210.535697" style="fill: #0000ff; stroke: #0000ff; stroke-width: 2"/>
     <use xlink:href="#m65b1ef1f10" x="176.426033" y="225.136646" style="fill: #0000ff; stroke: #0000ff; stroke-width: 2"/>
     <use xlink:href="#m65b1ef1f10" x="197.178099" y="237.157565" style="fill: #0000ff; stroke: #0000ff; stroke-width: 2"/>
     <use xlink:href="#m65b1ef1f10" x="217.930165" y="247.537027" style="fill: #0000ff; stroke: #0000ff; stroke-width: 2"/>
     <use xlink:href="#m65b1ef1f10" x="238.682231" y="255.643412" style="fill: #0000ff; stroke: #0000ff; stroke-width: 2"/>
     <use xlink:href="#m65b1ef1f10" x="259.434298" y="261.817995" style="fill: #0000ff; stroke: #0000ff; stroke-width: 2"/>
     <use xlink:href="#m65b1ef1f10" x="280.186364" y="267.052134" style="fill: #0000ff; stroke: #0000ff; stroke-width: 2"/>
    </g>
   </g>
   <g id="line2d_18">
    <g clip-path="url(#pc1cd195dc2)">
     <use xlink:href="#m65b1ef1f10" x="51.913636" y="101.789823" style="fill: #0000ff; stroke: #0000ff; stroke-width: 2"/>
     <use xlink:href="#m65b1ef1f10" x="72.665702" y="126.40154" style="fill: #0000ff; stroke: #0000ff; stroke-width: 2"/>
     <use xlink:href="#m65b1ef1f10" x="93.417769" y="152.684977" style="fill: #0000ff; stroke: #0000ff; stroke-width: 2"/>
     <use xlink:href="#m65b1ef1f10" x="114.169835" y="173.111854" style="fill: #0000ff; stroke: #0000ff; stroke-width: 2"/>
     <use xlink:href="#m65b1ef1f10" x="134.921901" y="192.581478" style="fill: #0000ff; stroke: #0000ff; stroke-width: 2"/>
     <use xlink:href="#m65b1ef1f10" x="155.673967" y="209.003084" style="fill: #0000ff; stroke: #0000ff; stroke-width: 2"/>
     <use xlink:href="#m65b1ef1f10" x="176.426033" y="224.511113" style="fill: #0000ff; stroke: #0000ff; stroke-width: 2"/>
     <use xlink:href="#m65b1ef1f10" x="197.178099" y="236.763489" style="fill: #0000ff; stroke: #0000ff; stroke-width: 2"/>
     <use xlink:href="#m65b1ef1f10" x="217.930165" y="246.916623" style="fill: #0000ff; stroke: #0000ff; stroke-width: 2"/>
     <use xlink:href="#m65b1ef1f10" x="238.682231" y="255.098882" style="fill: #0000ff; stroke: #0000ff; stroke-width: 2"/>
     <use xlink:href="#m65b1ef1f10" x="259.434298" y="261.505181" style="fill: #0000ff; stroke: #0000ff; stroke-width: 2"/>
     <use xlink:href="#m65b1ef1f10" x="280.186364" y="266.724633" style="fill: #0000ff; stroke: #0000ff; stroke-width: 2"/>
    </g>
   </g>
   <g id="line2d_19">
    <path d="M 51.913636 80.429712 
L 72.665702 115.437175 
L 93.417769 140.980237 
L 114.169835 171.938276 
L 134.921901 197.108028 
L 155.673967 215.788504 
L 176.426033 234.88456 
L 197.178099 248.40387 
L 217.930165 259.830687 
L 238.682231 267.949348 
L 259.434298 274.077181 
L 280.186364 278.26734 
" clip-path="url(#pc1cd195dc2)" style="fill: none; stroke: #bf00bf; stroke-width: 1.5; stroke-linecap: square"/>
   </g>
   <g id="LineCollection_4">
    <path d="M 51.913636 82.42621 
L 51.913636 78.433214 
" clip-path="url(#pc1cd195dc2)" style="fill: none; stroke: #bf00bf; stroke-width: 2"/>
    <path d="M 72.665702 117.247306 
L 72.665702 113.627045 
" clip-path="url(#pc1cd195dc2)" style="fill: none; stroke: #bf00bf; stroke-width: 2"/>
    <path d="M 93.417769 141.750198 
L 93.417769 140.210276 
" clip-path="url(#pc1cd195dc2)" style="fill: none; stroke: #bf00bf; stroke-width: 2"/>
    <path d="M 114.169835 173.478076 
L 114.169835 170.398477 
" clip-path="url(#pc1cd195dc2)" style="fill: none; stroke: #bf00bf; stroke-width: 2"/>
    <path d="M 134.921901 198.164911 
L 134.921901 196.051146 
" clip-path="url(#pc1cd195dc2)" style="fill: none; stroke: #bf00bf; stroke-width: 2"/>
    <path d="M 155.673967 216.402661 
L 155.673967 215.174346 
" clip-path="url(#pc1cd195dc2)" style="fill: none; stroke: #bf00bf; stroke-width: 2"/>
    <path d="M 176.426033 235.405582 
L 176.426033 234.363538 
" clip-path="url(#pc1cd195dc2)" style="fill: none; stroke: #bf00bf; stroke-width: 2"/>
    <path d="M 197.178099 248.835713 
L 197.178099 247.972027 
" clip-path="url(#pc1cd195dc2)" style="fill: none; stroke: #bf00bf; stroke-width: 2"/>
    <path d="M 217.930165 260.103851 
L 217.930165 259.557524 
" clip-path="url(#pc1cd195dc2)" style="fill: none; stroke: #bf00bf; stroke-width: 2"/>
    <path d="M 238.682231 268.162863 
L 238.682231 267.735834 
" clip-path="url(#pc1cd195dc2)" style="fill: none; stroke: #bf00bf; stroke-width: 2"/>
    <path d="M 259.434298 274.149201 
L 259.434298 274.005162 
" clip-path="url(#pc1cd195dc2)" style="fill: none; stroke: #bf00bf; stroke-width: 2"/>
    <path d="M 280.186364 278.363486 
L 280.186364 278.171194 
" clip-path="url(#pc1cd195dc2)" style="fill: none; stroke: #bf00bf; stroke-width: 2"/>
   </g>
   <g id="line2d_20">
    <defs>
     <path id="m8792b3a815" d="M 3 0 
L -3 -0 
" style="stroke: #bf00bf; stroke-width: 2"/>
    </defs>
    <g clip-path="url(#pc1cd195dc2)">
     <use xlink:href="#m8792b3a815" x="51.913636" y="82.42621" style="fill: #bf00bf; stroke: #bf00bf; stroke-width: 2"/>
     <use xlink:href="#m8792b3a815" x="72.665702" y="117.247306" style="fill: #bf00bf; stroke: #bf00bf; stroke-width: 2"/>
     <use xlink:href="#m8792b3a815" x="93.417769" y="141.750198" style="fill: #bf00bf; stroke: #bf00bf; stroke-width: 2"/>
     <use xlink:href="#m8792b3a815" x="114.169835" y="173.478076" style="fill: #bf00bf; stroke: #bf00bf; stroke-width: 2"/>
     <use xlink:href="#m8792b3a815" x="134.921901" y="198.164911" style="fill: #bf00bf; stroke: #bf00bf; stroke-width: 2"/>
     <use xlink:href="#m8792b3a815" x="155.673967" y="216.402661" style="fill: #bf00bf; stroke: #bf00bf; stroke-width: 2"/>
     <use xlink:href="#m8792b3a815" x="176.426033" y="235.405582" style="fill: #bf00bf; stroke: #bf00bf; stroke-width: 2"/>
     <use xlink:href="#m8792b3a815" x="197.178099" y="248.835713" style="fill: #bf00bf; stroke: #bf00bf; stroke-width: 2"/>
     <use xlink:href="#m8792b3a815" x="217.930165" y="260.103851" style="fill: #bf00bf; stroke: #bf00bf; stroke-width: 2"/>
     <use xlink:href="#m8792b3a815" x="238.682231" y="268.162863" style="fill: #bf00bf; stroke: #bf00bf; stroke-width: 2"/>
     <use xlink:href="#m8792b3a815" x="259.434298" y="274.149201" style="fill: #bf00bf; stroke: #bf00bf; stroke-width: 2"/>
     <use xlink:href="#m8792b3a815" x="280.186364" y="278.363486" style="fill: #bf00bf; stroke: #bf00bf; stroke-width: 2"/>
    </g>
   </g>
   <g id="line2d_21">
    <g clip-path="url(#pc1cd195dc2)">
     <use xlink:href="#m8792b3a815" x="51.913636" y="78.433214" style="fill: #bf00bf; stroke: #bf00bf; stroke-width: 2"/>
     <use xlink:href="#m8792b3a815" x="72.665702" y="113.627045" style="fill: #bf00bf; stroke: #bf00bf; stroke-width: 2"/>
     <use xlink:href="#m8792b3a815" x="93.417769" y="140.210276" style="fill: #bf00bf; stroke: #bf00bf; stroke-width: 2"/>
     <use xlink:href="#m8792b3a815" x="114.169835" y="170.398477" style="fill: #bf00bf; stroke: #bf00bf; stroke-width: 2"/>
     <use xlink:href="#m8792b3a815" x="134.921901" y="196.051146" style="fill: #bf00bf; stroke: #bf00bf; stroke-width: 2"/>
     <use xlink:href="#m8792b3a815" x="155.673967" y="215.174346" style="fill: #bf00bf; stroke: #bf00bf; stroke-width: 2"/>
     <use xlink:href="#m8792b3a815" x="176.426033" y="234.363538" style="fill: #bf00bf; stroke: #bf00bf; stroke-width: 2"/>
     <use xlink:href="#m8792b3a815" x="197.178099" y="247.972027" style="fill: #bf00bf; stroke: #bf00bf; stroke-width: 2"/>
     <use xlink:href="#m8792b3a815" x="217.930165" y="259.557524" style="fill: #bf00bf; stroke: #bf00bf; stroke-width: 2"/>
     <use xlink:href="#m8792b3a815" x="238.682231" y="267.735834" style="fill: #bf00bf; stroke: #bf00bf; stroke-width: 2"/>
     <use xlink:href="#m8792b3a815" x="259.434298" y="274.005162" style="fill: #bf00bf; stroke: #bf00bf; stroke-width: 2"/>
     <use xlink:href="#m8792b3a815" x="280.186364" y="278.171194" style="fill: #bf00bf; stroke: #bf00bf; stroke-width: 2"/>
    </g>
   </g>
   <g id="line2d_22">
    <path d="M 51.913636 140.015414 
L 72.665702 155.328408 
L 93.417769 168.501014 
L 114.169835 180.702012 
L 134.921901 191.422864 
L 155.673967 201.015719 
L 176.426033 210.127966 
L 197.178099 217.912884 
L 217.930165 225.762627 
L 238.682231 231.973415 
L 259.434298 237.581203 
L 280.186364 242.156504 
" clip-path="url(#pc1cd195dc2)" style="fill: none; stroke: #ff0000; stroke-width: 1.5; stroke-linecap: square"/>
   </g>
   <g id="line2d_23">
    <path d="M 51.913636 123.197332 
L 72.665702 144.852101 
L 93.417769 160.365903 
L 114.169835 176.895125 
L 134.921901 191.02762 
L 155.673967 203.981887 
L 176.426033 216.778427 
L 197.178099 226.409266 
L 217.930165 235.386544 
L 238.682231 243.025212 
L 259.434298 249.094028 
L 280.186364 254.642023 
" clip-path="url(#pc1cd195dc2)" style="fill: none; stroke: #000000; stroke-width: 1.5; stroke-linecap: square"/>
   </g>
   <g id="line2d_24">
    <path d="M 51.913636 103.281146 
L 72.665702 127.733506 
L 93.417769 153.352809 
L 114.169835 174.171045 
L 134.921901 193.13506 
L 155.673967 209.769391 
L 176.426033 224.82388 
L 197.178099 236.960527 
L 217.930165 247.226825 
L 238.682231 255.371147 
L 259.434298 261.661588 
L 280.186364 266.888383 
" clip-path="url(#pc1cd195dc2)" style="fill: none; stroke: #0000ff; stroke-width: 1.5; stroke-linecap: square"/>
   </g>
   <g id="line2d_25">
    <path d="M 51.913636 80.429712 
L 72.665702 115.437175 
L 93.417769 140.980237 
L 114.169835 171.938276 
L 134.921901 197.108028 
L 155.673967 215.788504 
L 176.426033 234.88456 
L 197.178099 248.40387 
L 217.930165 259.830687 
L 238.682231 267.949348 
L 259.434298 274.077181 
L 280.186364 278.26734 
" clip-path="url(#pc1cd195dc2)" style="fill: none; stroke: #bf00bf; stroke-width: 1.5; stroke-linecap: square"/>
   </g>
   <g id="patch_3">
    <path d="M 40.5 288.36 
L 40.5 38.88 
" style="fill: none; stroke: #000000; stroke-width: 1.6; stroke-linejoin: miter; stroke-linecap: square"/>
   </g>
   <g id="patch_4">
    <path d="M 291.6 288.36 
L 291.6 38.88 
" style="fill: none; stroke: #000000; stroke-width: 1.6; stroke-linejoin: miter; stroke-linecap: square"/>
   </g>
   <g id="patch_5">
    <path d="M 40.5 288.36 
L 291.6 288.36 
" style="fill: none; stroke: #000000; stroke-width: 1.6; stroke-linejoin: miter; stroke-linecap: square"/>
   </g>
   <g id="patch_6">
    <path d="M 40.5 38.88 
L 291.6 38.88 
" style="fill: none; stroke: #000000; stroke-width: 1.6; stroke-linejoin: miter; stroke-linecap: square"/>
   </g>
   <g id="legend_1">
    <g id="patch_7">
     <path d="M 209.120625 118.935 
L 283.2 118.935 
Q 285.6 118.935 285.6 116.535 
L 285.6 47.28 
Q 285.6 44.88 283.2 44.88 
L 209.120625 44.88 
Q 206.720625 44.88 206.720625 47.28 
L 206.720625 116.535 
Q 206.720625 118.935 209.120625 118.935 
z
" style="fill: #ffffff; opacity: 0.8"/>
    </g>
    <g id="line2d_26">
     <path d="M 211.520625 54.598125 
L 223.520625 54.598125 
L 235.520625 54.598125 
" style="fill: none; stroke: #ff0000; stroke-width: 1.5; stroke-linecap: square"/>
    </g>
    <g id="text_10">
     <!-- M=4 -->
     <g transform="translate(245.120625 58.798125) scale(0.12 -0.12)">
      <defs>
       <path id="DejaVuSans-4d" d="M 628 4666 
L 1569 4666 
L 2759 1491 
L 3956 4666 
L 4897 4666 
L 4897 0 
L 4281 0 
L 4281 4097 
L 3078 897 
L 2444 897 
L 1241 4097 
L 1241 0 
L 628 0 
L 628 4666 
z
" transform="scale(0.015625)"/>
       <path id="DejaVuSans-3d" d="M 678 2906 
L 4684 2906 
L 4684 2381 
L 678 2381 
L 678 2906 
z
M 678 1631 
L 4684 1631 
L 4684 1100 
L 678 1100 
L 678 1631 
z
" transform="scale(0.015625)"/>
      </defs>
      <use xlink:href="#DejaVuSans-4d"/>
      <use xlink:href="#DejaVuSans-3d" x="86.279297"/>
      <use xlink:href="#DejaVuSans-34" x="170.068359"/>
     </g>
    </g>
    <g id="line2d_27">
     <path d="M 211.520625 72.211875 
L 223.520625 72.211875 
L 235.520625 72.211875 
" style="fill: none; stroke: #000000; stroke-width: 1.5; stroke-linecap: square"/>
    </g>
    <g id="text_11">
     <!-- M=8 -->
     <g transform="translate(245.120625 76.411875) scale(0.12 -0.12)">
      <defs>
       <path id="DejaVuSans-38" d="M 2034 2216 
Q 1584 2216 1326 1975 
Q 1069 1734 1069 1313 
Q 1069 891 1326 650 
Q 1584 409 2034 409 
Q 2484 409 2743 651 
Q 3003 894 3003 1313 
Q 3003 1734 2745 1975 
Q 2488 2216 2034 2216 
z
M 1403 2484 
Q 997 2584 770 2862 
Q 544 3141 544 3541 
Q 544 4100 942 4425 
Q 1341 4750 2034 4750 
Q 2731 4750 3128 4425 
Q 3525 4100 3525 3541 
Q 3525 3141 3298 2862 
Q 3072 2584 2669 2484 
Q 3125 2378 3379 2068 
Q 3634 1759 3634 1313 
Q 3634 634 3220 271 
Q 2806 -91 2034 -91 
Q 1263 -91 848 271 
Q 434 634 434 1313 
Q 434 1759 690 2068 
Q 947 2378 1403 2484 
z
M 1172 3481 
Q 1172 3119 1398 2916 
Q 1625 2713 2034 2713 
Q 2441 2713 2670 2916 
Q 2900 3119 2900 3481 
Q 2900 3844 2670 4047 
Q 2441 4250 2034 4250 
Q 1625 4250 1398 4047 
Q 1172 3844 1172 3481 
z
" transform="scale(0.015625)"/>
      </defs>
      <use xlink:href="#DejaVuSans-4d"/>
      <use xlink:href="#DejaVuSans-3d" x="86.279297"/>
      <use xlink:href="#DejaVuSans-38" x="170.068359"/>
     </g>
    </g>
    <g id="line2d_28">
     <path d="M 211.520625 89.825625 
L 223.520625 89.825625 
L 235.520625 89.825625 
" style="fill: none; stroke: #0000ff; stroke-width: 1.5; stroke-linecap: square"/>
    </g>
    <g id="text_12">
     <!-- M=16 -->
     <g transform="translate(245.120625 94.025625) scale(0.12 -0.12)">
      <defs>
       <path id="DejaVuSans-36" d="M 2113 2584 
Q 1688 2584 1439 2293 
Q 1191 2003 1191 1497 
Q 1191 994 1439 701 
Q 1688 409 2113 409 
Q 2538 409 2786 701 
Q 3034 994 3034 1497 
Q 3034 2003 2786 2293 
Q 2538 2584 2113 2584 
z
M 3366 4563 
L 3366 3988 
Q 3128 4100 2886 4159 
Q 2644 4219 2406 4219 
Q 1781 4219 1451 3797 
Q 1122 3375 1075 2522 
Q 1259 2794 1537 2939 
Q 1816 3084 2150 3084 
Q 2853 3084 3261 2657 
Q 3669 2231 3669 1497 
Q 3669 778 3244 343 
Q 2819 -91 2113 -91 
Q 1303 -91 875 529 
Q 447 1150 447 2328 
Q 447 3434 972 4092 
Q 1497 4750 2381 4750 
Q 2619 4750 2861 4703 
Q 3103 4656 3366 4563 
z
" transform="scale(0.015625)"/>
      </defs>
      <use xlink:href="#DejaVuSans-4d"/>
      <use xlink:href="#DejaVuSans-3d" x="86.279297"/>
      <use xlink:href="#DejaVuSans-31" x="170.068359"/>
      <use xlink:href="#DejaVuSans-36" x="233.691406"/>
     </g>
    </g>
    <g id="line2d_29">
     <path d="M 211.520625 107.439375 
L 223.520625 107.439375 
L 235.520625 107.439375 
" style="fill: none; stroke: #bf00bf; stroke-width: 1.5; stroke-linecap: square"/>
    </g>
    <g id="text_13">
     <!-- M=32 -->
     <g transform="translate(245.120625 111.639375) scale(0.12 -0.12)">
      <use xlink:href="#DejaVuSans-4d"/>
      <use xlink:href="#DejaVuSans-3d" x="86.279297"/>
      <use xlink:href="#DejaVuSans-33" x="170.068359"/>
      <use xlink:href="#DejaVuSans-32" x="233.691406"/>
     </g>
    </g>
   </g>
  </g>
 </g>
 <defs>
  <clipPath id="pc1cd195dc2">
   <rect x="40.5" y="38.88" width="251.1" height="249.48"/>
  </clipPath>
 </defs>
</svg>
