<?xml version="1.0" encoding="utf-8" standalone="no"?>
<!DOCTYPE svg PUBLIC "-//W3C//DTD SVG 1.1//EN"
  "http://www.w3.org/Graphics/SVG/1.1/DTD/svg11.dtd">
<svg xmlns:xlink="http://www.w3.org/1999/xlink" width="324pt" height="324pt" viewBox="0 0 324 324" xmlns="http://www.w3.org/2000/svg" version="1.1">
 <metadata>
  <rdf:RDF xmlns:dc="http://purl.org/dc/elements/1.1/" xmlns:cc="http://creativecommons.org/ns#" xmlns:rdf="http://www.w3.org/1999/02/22-rdf-syntax-ns#">
   <cc:Work>
    <dc:type rdf:resource="http://purl.org/dc/dcmitype/StillImage"/>
    <dc:date>2026-01-08T14:10:00.424862</dc:date>
    <dc:format>image/svg+xml</dc:format>
    <dc:creator>
     <cc:Agent>
      <dc:title>Matplotlib v3.8.0, https://matplotlib.org/</dc:title>
     </cc:Agent>
    </dc:creator>
   </cc:Work>
  </rdf:RDF>
 </metadata>
 <defs>
  <style type="text/css">*{stroke-linejoin: round; stroke-linecap: butt}</style>
 </defs>
 <g id="figure_1">
  <g id="patch_1">
   <path d="M 0 324 
L 324 324 
L 324 0 
L 0 0 
z
" style="fill: #ffffff"/>
  </g>
  <g id="axes_1">
   <g id="patch_2">
    <path d="M 40.5 288.36 
L 291.6 288.36 
L 291.6 38.88 
L 40.5 38.88 
z
" style="fill: #ffffff"/>
   </g>
   <g id="matplotlib.axis_1">
    <g id="xtick_1">
     <g id="line2d_1">
      <defs>
       <path id="m498e6edb8d" d="M 0 0 
L 0 8 
" style="stroke: #000000; stroke-width: 1.5"/>
      </defs>
      <g>
       <use xlink:href="#m498e6edb8d" x="51.913636" y="288.36" style="stroke: #000000; stroke-width: 1.5"/>
      </g>
     </g>
     <g id="text_1">
      <!-- 2.0 -->
      <g transform="translate(42.371761 308.978125) scale(0.12 -0.12)">
       <defs>
        <path id="DejaVuSans-32" d="M 1228 531 
L 3431 531 
L 3431 0 
L 469 0 
L 469 531 
Q 828 903 1448 1529 
Q 2069 2156 2228 2338 
Q 2531 2678 2651 2914 
Q 2772 3150 2772 3378 
Q 2772 3750 2511 3984 
Q 2250 4219 1831 4219 
Q 1534 4219 1204 4116 
Q 875 4013 500 3803 
L 500 4441 
Q 881 4594 1212 4672 
Q 1544 4750 1819 4750 
Q 2544 4750 2975 4387 
Q 3406 4025 3406 3419 
Q 3406 3131 3298 2873 
Q 3191 2616 2906 2266 
Q 2828 2175 2409 1742 
Q 1991 1309 1228 531 
z
" transform="scale(0.015625)"/>
        <path id="DejaVuSans-2e" d="M 684 794 
L 1344 794 
L 1344 0 
L 684 0 
L 684 794 
z
" transform="scale(0.015625)"/>
        <path id="DejaVuSans-30" d="M 2034 4250 
Q 1547 4250 1301 3770 
Q 1056 3291 1056 2328 
Q 1056 1369 1301 889 
Q 1547 409 2034 409 
Q 2525 409 2770 889 
Q 3016 1369 3016 2328 
Q 3016 3291 2770 3770 
Q 2525 4250 2034 4250 
z
M 2034 4750 
Q 2819 4750 3233 4129 
Q 3647 3509 3647 2328 
Q 3647 1150 3233 529 
Q 2819 -91 2034 -91 
Q 1250 -91 836 529 
Q 422 1150 422 2328 
Q 422 3509 836 4129 
Q 1250 4750 2034 4750 
z
" transform="scale(0.015625)"/>
       </defs>
       <use xlink:href="#DejaVuSans-32"/>
       <use xlink:href="#DejaVuSans-2e" x="63.623047"/>
       <use xlink:href="#DejaVuSans-30" x="95.410156"/>
      </g>
     </g>
    </g>
    <g id="xtick_2">
     <g id="line2d_2">
      <g>
       <use xlink:href="#m498e6edb8d" x="103.793802" y="288.36" style="stroke: #000000; stroke-width: 1.5"/>
      </g>
     </g>
     <g id="text_2">
      <!-- 2.5 -->
      <g transform="translate(94.251927 308.978125) scale(0.12 -0.12)">
       <defs>
        <path id="DejaVuSans-35" d="M 691 4666 
L 3169 4666 
L 3169 4134 
L 1269 4134 
L 1269 2991 
Q 1406 3038 1543 3061 
Q 1681 3084 1819 3084 
Q 2600 3084 3056 2656 
Q 3513 2228 3513 1497 
Q 3513 744 3044 326 
Q 2575 -91 1722 -91 
Q 1428 -91 1123 -41 
Q 819 9 494 109 
L 494 744 
Q 775 591 1075 516 
Q 1375 441 1709 441 
Q 2250 441 2565 725 
Q 2881 1009 2881 1497 
Q 2881 1984 2565 2268 
Q 2250 2553 1709 2553 
Q 1456 2553 1204 2497 
Q 953 2441 691 2322 
L 691 4666 
z
" transform="scale(0.015625)"/>
       </defs>
       <use xlink:href="#DejaVuSans-32"/>
       <use xlink:href="#DejaVuSans-2e" x="63.623047"/>
       <use xlink:href="#DejaVuSans-35" x="95.410156"/>
      </g>
     </g>
    </g>
    <g id="xtick_3">
     <g id="line2d_3">
      <g>
       <use xlink:href="#m498e6edb8d" x="155.673967" y="288.36" style="stroke: #000000; stroke-width: 1.5"/>
      </g>
     </g>
     <g id="text_3">
      <!-- 3.0 -->
      <g transform="translate(146.132092 308.978125) scale(0.12 -0.12)">
       <defs>
        <path id="DejaVuSans-33" d="M 2597 2516 
Q 3050 2419 3304 2112 
Q 3559 1806 3559 1356 
Q 3559 666 3084 287 
Q 2609 -91 1734 -91 
Q 1441 -91 1130 -33 
Q 819 25 488 141 
L 488 750 
Q 750 597 1062 519 
Q 1375 441 1716 441 
Q 2309 441 2620 675 
Q 2931 909 2931 1356 
Q 2931 1769 2642 2001 
Q 2353 2234 1838 2234 
L 1294 2234 
L 1294 2753 
L 1863 2753 
Q 2328 2753 2575 2939 
Q 2822 3125 2822 3475 
Q 2822 3834 2567 4026 
Q 2313 4219 1838 4219 
Q 1578 4219 1281 4162 
Q 984 4106 628 3988 
L 628 4550 
Q 988 4650 1302 4700 
Q 1616 4750 1894 4750 
Q 2613 4750 3031 4423 
Q 3450 4097 3450 3541 
Q 3450 3153 3228 2886 
Q 3006 2619 2597 2516 
z
" transform="scale(0.015625)"/>
       </defs>
       <use xlink:href="#DejaVuSans-33"/>
       <use xlink:href="#DejaVuSans-2e" x="63.623047"/>
       <use xlink:href="#DejaVuSans-30" x="95.410156"/>
      </g>
     </g>
    </g>
    <g id="xtick_4">
     <g id="line2d_4">
      <g>
       <use xlink:href="#m498e6edb8d" x="207.554132" y="288.36" style="stroke: #000000; stroke-width: 1.5"/>
      </g>
     </g>
     <g id="text_4">
      <!-- 3.5 -->
      <g transform="translate(198.012257 308.978125) scale(0.12 -0.12)">
       <use xlink:href="#DejaVuSans-33"/>
       <use xlink:href="#DejaVuSans-2e" x="63.623047"/>
       <use xlink:href="#DejaVuSans-35" x="95.410156"/>
      </g>
     </g>
    </g>
    <g id="xtick_5">
     <g id="line2d_5">
      <g>
       <use xlink:href="#m498e6edb8d" x="259.434298" y="288.36" style="stroke: #000000; stroke-width: 1.5"/>
      </g>
     </g>
     <g id="text_5">
      <!-- 4.0 -->
      <g transform="translate(249.892423 308.978125) scale(0.12 -0.12)">
       <defs>
        <path id="DejaVuSans-34" d="M 2419 4116 
L 825 1625 
L 2419 1625 
L 2419 4116 
z
M 2253 4666 
L 3047 4666 
L 3047 1625 
L 3713 1625 
L 3713 1100 
L 3047 1100 
L 3047 0 
L 2419 0 
L 2419 1100 
L 313 1100 
L 313 1709 
L 2253 4666 
z
" transform="scale(0.015625)"/>
       </defs>
       <use xlink:href="#DejaVuSans-34"/>
       <use xlink:href="#DejaVuSans-2e" x="63.623047"/>
       <use xlink:href="#DejaVuSans-30" x="95.410156"/>
      </g>
     </g>
    </g>
   </g>
   <g id="matplotlib.axis_2">
    <g id="ytick_1">
     <g id="line2d_6">
      <defs>
       <path id="m6a37983c06" d="M 0 0 
L -8 0 
" style="stroke: #000000; stroke-width: 1.5"/>
      </defs>
      <g>
       <use xlink:href="#m6a37983c06" x="40.5" y="235.85279" style="stroke: #000000; stroke-width: 1.5"/>
      </g>
     </g>
     <g id="text_6">
      <!-- 1 -->
      <g transform="translate(21.365 240.411852) scale(0.12 -0.12)">
       <defs>
        <path id="DejaVuSans-31" d="M 794 531 
L 1825 531 
L 1825 4091 
L 703 3866 
L 703 4441 
L 1819 4666 
L 2450 4666 
L 2450 531 
L 3481 531 
L 3481 0 
L 794 0 
L 794 531 
z
" transform="scale(0.015625)"/>
       </defs>
       <use xlink:href="#DejaVuSans-31"/>
      </g>
     </g>
    </g>
    <g id="ytick_2">
     <g id="line2d_7">
      <g>
       <use xlink:href="#m6a37983c06" x="40.5" y="170.195193" style="stroke: #000000; stroke-width: 1.5"/>
      </g>
     </g>
     <g id="text_7">
      <!-- 2 -->
      <g transform="translate(21.365 174.754256) scale(0.12 -0.12)">
       <use xlink:href="#DejaVuSans-32"/>
      </g>
     </g>
    </g>
    <g id="ytick_3">
     <g id="line2d_8">
      <g>
       <use xlink:href="#m6a37983c06" x="40.5" y="104.537597" style="stroke: #000000; stroke-width: 1.5"/>
      </g>
     </g>
     <g id="text_8">
      <!-- 3 -->
      <g transform="translate(21.365 109.096659) scale(0.12 -0.12)">
       <use xlink:href="#DejaVuSans-33"/>
      </g>
     </g>
    </g>
    <g id="ytick_4">
     <g id="line2d_9">
      <g>
       <use xlink:href="#m6a37983c06" x="40.5" y="38.88" style="stroke: #000000; stroke-width: 1.5"/>
      </g>
     </g>
     <g id="text_9">
      <!-- 4 -->
      <g transform="translate(21.365 43.439062) scale(0.12 -0.12)">
       <use xlink:href="#DejaVuSans-34"/>
      </g>
     </g>
    </g>
   </g>
   <g id="line2d_10">
    <path d="M 51.913636 136.343805 
L 72.665702 152.380989 
L 93.417769 168.551617 
L 114.169835 182.229265 
L 134.921901 193.013528 
L 155.673967 204.550308 
L 176.426033 213.182722 
L 197.178099 220.550745 
L 217.930165 226.671514 
L 238.682231 233.081904 
L 259.434298 237.928154 
L 280.186364 242.952179 
" clip-path="url(#p32be0d488e)" style="fill: none; stroke: #ff0000; stroke-width: 1.5; stroke-linecap: square"/>
   </g>
   <g id="LineCollection_1">
    <path d="M 51.913636 136.887959 
L 51.913636 135.79965 
" clip-path="url(#p32be0d488e)" style="fill: none; stroke: #ff0000; stroke-width: 2"/>
    <path d="M 72.665702 152.811922 
L 72.665702 151.950057 
" clip-path="url(#p32be0d488e)" style="fill: none; stroke: #ff0000; stroke-width: 2"/>
    <path d="M 93.417769 169.294028 
L 93.417769 167.809206 
" clip-path="url(#p32be0d488e)" style="fill: none; stroke: #ff0000; stroke-width: 2"/>
    <path d="M 114.169835 182.906477 
L 114.169835 181.552053 
" clip-path="url(#p32be0d488e)" style="fill: none; stroke: #ff0000; stroke-width: 2"/>
    <path d="M 134.921901 193.530176 
L 134.921901 192.49688 
" clip-path="url(#p32be0d488e)" style="fill: none; stroke: #ff0000; stroke-width: 2"/>
    <path d="M 155.673967 204.883584 
L 155.673967 204.217032 
" clip-path="url(#p32be0d488e)" style="fill: none; stroke: #ff0000; stroke-width: 2"/>
    <path d="M 176.426033 213.668926 
L 176.426033 212.696518 
" clip-path="url(#p32be0d488e)" style="fill: none; stroke: #ff0000; stroke-width: 2"/>
    <path d="M 197.178099 220.77579 
L 197.178099 220.325699 
" clip-path="url(#p32be0d488e)" style="fill: none; stroke: #ff0000; stroke-width: 2"/>
    <path d="M 217.930165 226.808324 
L 217.930165 226.534705 
" clip-path="url(#p32be0d488e)" style="fill: none; stroke: #ff0000; stroke-width: 2"/>
    <path d="M 238.682231 233.39126 
L 238.682231 232.772548 
" clip-path="url(#p32be0d488e)" style="fill: none; stroke: #ff0000; stroke-width: 2"/>
    <path d="M 259.434298 238.234208 
L 259.434298 237.622099 
" clip-path="url(#p32be0d488e)" style="fill: none; stroke: #ff0000; stroke-width: 2"/>
    <path d="M 280.186364 243.049919 
L 280.186364 242.854438 
" clip-path="url(#p32be0d488e)" style="fill: none; stroke: #ff0000; stroke-width: 2"/>
   </g>
   <g id="line2d_11">
    <defs>
     <path id="m33b6348d7c" d="M 3 0 
L -3 -0 
" style="stroke: #ff0000; stroke-width: 2"/>
    </defs>
    <g clip-path="url(#p32be0d488e)">
     <use xlink:href="#m33b6348d7c" x="51.913636" y="136.887959" style="fill: #ff0000; stroke: #ff0000; stroke-width: 2"/>
     <use xlink:href="#m33b6348d7c" x="72.665702" y="152.811922" style="fill: #ff0000; stroke: #ff0000; stroke-width: 2"/>
     <use xlink:href="#m33b6348d7c" x="93.417769" y="169.294028" style="fill: #ff0000; stroke: #ff0000; stroke-width: 2"/>
     <use xlink:href="#m33b6348d7c" x="114.169835" y="182.906477" style="fill: #ff0000; stroke: #ff0000; stroke-width: 2"/>
     <use xlink:href="#m33b6348d7c" x="134.921901" y="193.530176" style="fill: #ff0000; stroke: #ff0000; stroke-width: 2"/>
     <use xlink:href="#m33b6348d7c" x="155.673967" y="204.883584" style="fill: #ff0000; stroke: #ff0000; stroke-width: 2"/>
     <use xlink:href="#m33b6348d7c" x="176.426033" y="213.668926" style="fill: #ff0000; stroke: #ff0000; stroke-width: 2"/>
     <use xlink:href="#m33b6348d7c" x="197.178099" y="220.77579" style="fill: #ff0000; stroke: #ff0000; stroke-width: 2"/>
     <use xlink:href="#m33b6348d7c" x="217.930165" y="226.808324" style="fill: #ff0000; stroke: #ff0000; stroke-width: 2"/>
     <use xlink:href="#m33b6348d7c" x="238.682231" y="233.39126" style="fill: #ff0000; stroke: #ff0000; stroke-width: 2"/>
     <use xlink:href="#m33b6348d7c" x="259.434298" y="238.234208" style="fill: #ff0000; stroke: #ff0000; stroke-width: 2"/>
     <use xlink:href="#m33b6348d7c" x="280.186364" y="243.049919" style="fill: #ff0000; stroke: #ff0000; stroke-width: 2"/>
    </g>
   </g>
   <g id="line2d_12">
    <g clip-path="url(#p32be0d488e)">
     <use xlink:href="#m33b6348d7c" x="51.913636" y="135.79965" style="fill: #ff0000; stroke: #ff0000; stroke-width: 2"/>
     <use xlink:href="#m33b6348d7c" x="72.665702" y="151.950057" style="fill: #ff0000; stroke: #ff0000; stroke-width: 2"/>
     <use xlink:href="#m33b6348d7c" x="93.417769" y="167.809206" style="fill: #ff0000; stroke: #ff0000; stroke-width: 2"/>
     <use xlink:href="#m33b6348d7c" x="114.169835" y="181.552053" style="fill: #ff0000; stroke: #ff0000; stroke-width: 2"/>
     <use xlink:href="#m33b6348d7c" x="134.921901" y="192.49688" style="fill: #ff0000; stroke: #ff0000; stroke-width: 2"/>
     <use xlink:href="#m33b6348d7c" x="155.673967" y="204.217032" style="fill: #ff0000; stroke: #ff0000; stroke-width: 2"/>
     <use xlink:href="#m33b6348d7c" x="176.426033" y="212.696518" style="fill: #ff0000; stroke: #ff0000; stroke-width: 2"/>
     <use xlink:href="#m33b6348d7c" x="197.178099" y="220.325699" style="fill: #ff0000; stroke: #ff0000; stroke-width: 2"/>
     <use xlink:href="#m33b6348d7c" x="217.930165" y="226.534705" style="fill: #ff0000; stroke: #ff0000; stroke-width: 2"/>
     <use xlink:href="#m33b6348d7c" x="238.682231" y="232.772548" style="fill: #ff0000; stroke: #ff0000; stroke-width: 2"/>
     <use xlink:href="#m33b6348d7c" x="259.434298" y="237.622099" style="fill: #ff0000; stroke: #ff0000; stroke-width: 2"/>
     <use xlink:href="#m33b6348d7c" x="280.186364" y="242.854438" style="fill: #ff0000; stroke: #ff0000; stroke-width: 2"/>
    </g>
   </g>
   <g id="line2d_13">
    <path d="M 51.913636 118.11448 
L 72.665702 143.022994 
L 93.417769 164.95959 
L 114.169835 180.83852 
L 134.921901 196.796737 
L 155.673967 211.224387 
L 176.426033 221.865959 
L 197.178099 230.222991 
L 217.930165 238.230956 
L 238.682231 244.985733 
L 259.434298 250.548557 
L 280.186364 255.242953 
" clip-path="url(#p32be0d488e)" style="fill: none; stroke: #000000; stroke-width: 1.5; stroke-linecap: square"/>
   </g>
   <g id="LineCollection_2">
    <path d="M 51.913636 118.748581 
L 51.913636 117.48038 
" clip-path="url(#p32be0d488e)" style="fill: none; stroke: #000000; stroke-width: 2"/>
    <path d="M 72.665702 143.763452 
L 72.665702 142.282535 
" clip-path="url(#p32be0d488e)" style="fill: none; stroke: #000000; stroke-width: 2"/>
    <path d="M 93.417769 165.86217 
L 93.417769 164.05701 
" clip-path="url(#p32be0d488e)" style="fill: none; stroke: #000000; stroke-width: 2"/>
    <path d="M 114.169835 181.395511 
L 114.169835 180.281528 
" clip-path="url(#p32be0d488e)" style="fill: none; stroke: #000000; stroke-width: 2"/>
    <path d="M 134.921901 197.289946 
L 134.921901 196.303527 
" clip-path="url(#p32be0d488e)" style="fill: none; stroke: #000000; stroke-width: 2"/>
    <path d="M 155.673967 211.630344 
L 155.673967 210.81843 
" clip-path="url(#p32be0d488e)" style="fill: none; stroke: #000000; stroke-width: 2"/>
    <path d="M 176.426033 222.410437 
L 176.426033 221.321481 
" clip-path="url(#p32be0d488e)" style="fill: none; stroke: #000000; stroke-width: 2"/>
    <path d="M 197.178099 230.703808 
L 197.178099 229.742173 
" clip-path="url(#p32be0d488e)" style="fill: none; stroke: #000000; stroke-width: 2"/>
    <path d="M 217.930165 238.477783 
L 217.930165 237.984129 
" clip-path="url(#p32be0d488e)" style="fill: none; stroke: #000000; stroke-width: 2"/>
    <path d="M 238.682231 245.090489 
L 238.682231 244.880978 
" clip-path="url(#p32be0d488e)" style="fill: none; stroke: #000000; stroke-width: 2"/>
    <path d="M 259.434298 250.794877 
L 259.434298 250.302237 
" clip-path="url(#p32be0d488e)" style="fill: none; stroke: #000000; stroke-width: 2"/>
    <path d="M 280.186364 255.405363 
L 280.186364 255.080542 
" clip-path="url(#p32be0d488e)" style="fill: none; stroke: #000000; stroke-width: 2"/>
   </g>
   <g id="line2d_14">
    <defs>
     <path id="m30365e8e54" d="M 3 0 
L -3 -0 
" style="stroke: #000000; stroke-width: 2"/>
    </defs>
    <g clip-path="url(#p32be0d488e)">
     <use xlink:href="#m30365e8e54" x="51.913636" y="118.748581" style="stroke: #000000; stroke-width: 2"/>
     <use xlink:href="#m30365e8e54" x="72.665702" y="143.763452" style="stroke: #000000; stroke-width: 2"/>
     <use xlink:href="#m30365e8e54" x="93.417769" y="165.86217" style="stroke: #000000; stroke-width: 2"/>
     <use xlink:href="#m30365e8e54" x="114.169835" y="181.395511" style="stroke: #000000; stroke-width: 2"/>
     <use xlink:href="#m30365e8e54" x="134.921901" y="197.289946" style="stroke: #000000; stroke-width: 2"/>
     <use xlink:href="#m30365e8e54" x="155.673967" y="211.630344" style="stroke: #000000; stroke-width: 2"/>
     <use xlink:href="#m30365e8e54" x="176.426033" y="222.410437" style="stroke: #000000; stroke-width: 2"/>
     <use xlink:href="#m30365e8e54" x="197.178099" y="230.703808" style="stroke: #000000; stroke-width: 2"/>
     <use xlink:href="#m30365e8e54" x="217.930165" y="238.477783" style="stroke: #000000; stroke-width: 2"/>
     <use xlink:href="#m30365e8e54" x="238.682231" y="245.090489" style="stroke: #000000; stroke-width: 2"/>
     <use xlink:href="#m30365e8e54" x="259.434298" y="250.794877" style="stroke: #000000; stroke-width: 2"/>
     <use xlink:href="#m30365e8e54" x="280.186364" y="255.405363" style="stroke: #000000; stroke-width: 2"/>
    </g>
   </g>
   <g id="line2d_15">
    <g clip-path="url(#p32be0d488e)">
     <use xlink:href="#m30365e8e54" x="51.913636" y="117.48038" style="stroke: #000000; stroke-width: 2"/>
     <use xlink:href="#m30365e8e54" x="72.665702" y="142.282535" style="stroke: #000000; stroke-width: 2"/>
     <use xlink:href="#m30365e8e54" x="93.417769" y="164.05701" style="stroke: #000000; stroke-width: 2"/>
     <use xlink:href="#m30365e8e54" x="114.169835" y="180.281528" style="stroke: #000000; stroke-width: 2"/>
     <use xlink:href="#m30365e8e54" x="134.921901" y="196.303527" style="stroke: #000000; stroke-width: 2"/>
     <use xlink:href="#m30365e8e54" x="155.673967" y="210.81843" style="stroke: #000000; stroke-width: 2"/>
     <use xlink:href="#m30365e8e54" x="176.426033" y="221.321481" style="stroke: #000000; stroke-width: 2"/>
     <use xlink:href="#m30365e8e54" x="197.178099" y="229.742173" style="stroke: #000000; stroke-width: 2"/>
     <use xlink:href="#m30365e8e54" x="217.930165" y="237.984129" style="stroke: #000000; stroke-width: 2"/>
     <use xlink:href="#m30365e8e54" x="238.682231" y="244.880978" style="stroke: #000000; stroke-width: 2"/>
     <use xlink:href="#m30365e8e54" x="259.434298" y="250.302237" style="stroke: #000000; stroke-width: 2"/>
     <use xlink:href="#m30365e8e54" x="280.186364" y="255.080542" style="stroke: #000000; stroke-width: 2"/>
    </g>
   </g>
   <g id="line2d_16">
    <path d="M 51.913636 100.683804 
L 72.665702 130.958991 
L 93.417769 159.718701 
L 114.169835 182.916588 
L 134.921901 202.160086 
L 155.673967 218.854143 
L 176.426033 231.423748 
L 197.178099 242.129574 
L 217.930165 250.07315 
L 238.682231 257.327183 
L 259.434298 262.987355 
L 280.186364 267.459123 
" clip-path="url(#p32be0d488e)" style="fill: none; stroke: #0000ff; stroke-width: 1.5; stroke-linecap: square"/>
   </g>
   <g id="LineCollection_3">
    <path d="M 51.913636 101.261162 
L 51.913636 100.106447 
" clip-path="url(#p32be0d488e)" style="fill: none; stroke: #0000ff; stroke-width: 2"/>
    <path d="M 72.665702 132.079294 
L 72.665702 129.838688 
" clip-path="url(#p32be0d488e)" style="fill: none; stroke: #0000ff; stroke-width: 2"/>
    <path d="M 93.417769 160.654006 
L 93.417769 158.783396 
" clip-path="url(#p32be0d488e)" style="fill: none; stroke: #0000ff; stroke-width: 2"/>
    <path d="M 114.169835 183.368476 
L 114.169835 182.4647 
" clip-path="url(#p32be0d488e)" style="fill: none; stroke: #0000ff; stroke-width: 2"/>
    <path d="M 134.921901 202.680464 
L 134.921901 201.639709 
" clip-path="url(#p32be0d488e)" style="fill: none; stroke: #0000ff; stroke-width: 2"/>
    <path d="M 155.673967 219.157185 
L 155.673967 218.551102 
" clip-path="url(#p32be0d488e)" style="fill: none; stroke: #0000ff; stroke-width: 2"/>
    <path d="M 176.426033 231.78025 
L 176.426033 231.067245 
" clip-path="url(#p32be0d488e)" style="fill: none; stroke: #0000ff; stroke-width: 2"/>
    <path d="M 197.178099 242.373057 
L 197.178099 241.88609 
" clip-path="url(#p32be0d488e)" style="fill: none; stroke: #0000ff; stroke-width: 2"/>
    <path d="M 217.930165 250.276369 
L 217.930165 249.869931 
" clip-path="url(#p32be0d488e)" style="fill: none; stroke: #0000ff; stroke-width: 2"/>
    <path d="M 238.682231 257.479271 
L 238.682231 257.175094 
" clip-path="url(#p32be0d488e)" style="fill: none; stroke: #0000ff; stroke-width: 2"/>
    <path d="M 259.434298 263.146242 
L 259.434298 262.828469 
" clip-path="url(#p32be0d488e)" style="fill: none; stroke: #0000ff; stroke-width: 2"/>
    <path d="M 280.186364 267.724605 
L 280.186364 267.19364 
" clip-path="url(#p32be0d488e)" style="fill: none; stroke: #0000ff; stroke-width: 2"/>
   </g>
   <g id="line2d_17">
    <defs>
     <path id="mea21b94560" d="M 3 0 
L -3 -0 
" style="stroke: #0000ff; stroke-width: 2"/>
    </defs>
    <g clip-path="url(#p32be0d488e)">
     <use xlink:href="#mea21b94560" x="51.913636" y="101.261162" style="fill: #0000ff; stroke: #0000ff; stroke-width: 2"/>
     <use xlink:href="#mea21b94560" x="72.665702" y="132.079294" style="fill: #0000ff; stroke: #0000ff; stroke-width: 2"/>
     <use xlink:href="#mea21b94560" x="93.417769" y="160.654006" style="fill: #0000ff; stroke: #0000ff; stroke-width: 2"/>
     <use xlink:href="#mea21b94560" x="114.169835" y="183.368476" style="fill: #0000ff; stroke: #0000ff; stroke-width: 2"/>
     <use xlink:href="#mea21b94560" x="134.921901" y="202.680464" style="fill: #0000ff; stroke: #0000ff; stroke-width: 2"/>
     <use xlink:href="#mea21b94560" x="155.673967" y="219.157185" style="fill: #0000ff; stroke: #0000ff; stroke-width: 2"/>
     <use xlink:href="#mea21b94560" x="176.426033" y="231.78025" style="fill: #0000ff; stroke: #0000ff; stroke-width: 2"/>
     <use xlink:href="#mea21b94560" x="197.178099" y="242.373057" style="fill: #0000ff; stroke: #0000ff; stroke-width: 2"/>
     <use xlink:href="#mea21b94560" x="217.930165" y="250.276369" style="fill: #0000ff; stroke: #0000ff; stroke-width: 2"/>
     <use xlink:href="#mea21b94560" x="238.682231" y="257.479271" style="fill: #0000ff; stroke: #0000ff; stroke-width: 2"/>
     <use xlink:href="#mea21b94560" x="259.434298" y="263.146242" style="fill: #0000ff; stroke: #0000ff; stroke-width: 2"/>
     <use xlink:href="#mea21b94560" x="280.186364" y="267.724605" style="fill: #0000ff; stroke: #0000ff; stroke-width: 2"/>
    </g>
   </g>
   <g id="line2d_18">
    <g clip-path="url(#p32be0d488e)">
     <use xlink:href="#mea21b94560" x="51.913636" y="100.106447" style="fill: #0000ff; stroke: #0000ff; stroke-width: 2"/>
     <use xlink:href="#mea21b94560" x="72.665702" y="129.838688" style="fill: #0000ff; stroke: #0000ff; stroke-width: 2"/>
     <use xlink:href="#mea21b94560" x="93.417769" y="158.783396" style="fill: #0000ff; stroke: #0000ff; stroke-width: 2"/>
     <use xlink:href="#mea21b94560" x="114.169835" y="182.4647" style="fill: #0000ff; stroke: #0000ff; stroke-width: 2"/>
     <use xlink:href="#mea21b94560" x="134.921901" y="201.639709" style="fill: #0000ff; stroke: #0000ff; stroke-width: 2"/>
     <use xlink:href="#mea21b94560" x="155.673967" y="218.551102" style="fill: #0000ff; stroke: #0000ff; stroke-width: 2"/>
     <use xlink:href="#mea21b94560" x="176.426033" y="231.067245" style="fill: #0000ff; stroke: #0000ff; stroke-width: 2"/>
     <use xlink:href="#mea21b94560" x="197.178099" y="241.88609" style="fill: #0000ff; stroke: #0000ff; stroke-width: 2"/>
     <use xlink:href="#mea21b94560" x="217.930165" y="249.869931" style="fill: #0000ff; stroke: #0000ff; stroke-width: 2"/>
     <use xlink:href="#mea21b94560" x="238.682231" y="257.175094" style="fill: #0000ff; stroke: #0000ff; stroke-width: 2"/>
     <use xlink:href="#mea21b94560" x="259.434298" y="262.828469" style="fill: #0000ff; stroke: #0000ff; stroke-width: 2"/>
     <use xlink:href="#mea21b94560" x="280.186364" y="267.19364" style="fill: #0000ff; stroke: #0000ff; stroke-width: 2"/>
    </g>
   </g>
   <g id="line2d_19">
    <path d="M 51.913636 78.352235 
L 72.665702 115.581292 
L 93.417769 153.059915 
L 114.169835 181.207182 
L 134.921901 209.458701 
L 155.673967 229.000602 
L 176.426033 242.09044 
L 197.178099 254.293483 
L 217.930165 262.060395 
L 238.682231 269.368102 
L 259.434298 274.533505 
L 280.186364 278.219688 
" clip-path="url(#p32be0d488e)" style="fill: none; stroke: #bf00bf; stroke-width: 1.5; stroke-linecap: square"/>
   </g>
   <g id="LineCollection_4">
    <path d="M 51.913636 79.532685 
L 51.913636 77.171785 
" clip-path="url(#p32be0d488e)" style="fill: none; stroke: #bf00bf; stroke-width: 2"/>
    <path d="M 72.665702 116.157378 
L 72.665702 115.005205 
" clip-path="url(#p32be0d488e)" style="fill: none; stroke: #bf00bf; stroke-width: 2"/>
    <path d="M 93.417769 154.019731 
L 93.417769 152.1001 
" clip-path="url(#p32be0d488e)" style="fill: none; stroke: #bf00bf; stroke-width: 2"/>
    <path d="M 114.169835 181.831172 
L 114.169835 180.583191 
" clip-path="url(#p32be0d488e)" style="fill: none; stroke: #bf00bf; stroke-width: 2"/>
    <path d="M 134.921901 210.035761 
L 134.921901 208.88164 
" clip-path="url(#p32be0d488e)" style="fill: none; stroke: #bf00bf; stroke-width: 2"/>
    <path d="M 155.673967 229.426698 
L 155.673967 228.574506 
" clip-path="url(#p32be0d488e)" style="fill: none; stroke: #bf00bf; stroke-width: 2"/>
    <path d="M 176.426033 242.250825 
L 176.426033 241.930055 
" clip-path="url(#p32be0d488e)" style="fill: none; stroke: #bf00bf; stroke-width: 2"/>
    <path d="M 197.178099 254.389315 
L 197.178099 254.197652 
" clip-path="url(#p32be0d488e)" style="fill: none; stroke: #bf00bf; stroke-width: 2"/>
    <path d="M 217.930165 262.322688 
L 217.930165 261.798103 
" clip-path="url(#p32be0d488e)" style="fill: none; stroke: #bf00bf; stroke-width: 2"/>
    <path d="M 238.682231 269.521056 
L 238.682231 269.215148 
" clip-path="url(#p32be0d488e)" style="fill: none; stroke: #bf00bf; stroke-width: 2"/>
    <path d="M 259.434298 274.566977 
L 259.434298 274.500034 
" clip-path="url(#p32be0d488e)" style="fill: none; stroke: #bf00bf; stroke-width: 2"/>
    <path d="M 280.186364 278.303418 
L 280.186364 278.135957 
" clip-path="url(#p32be0d488e)" style="fill: none; stroke: #bf00bf; stroke-width: 2"/>
   </g>
   <g id="line2d_20">
    <defs>
     <path id="md32b151fc3" d="M 3 0 
L -3 -0 
" style="stroke: #bf00bf; stroke-width: 2"/>
    </defs>
    <g clip-path="url(#p32be0d488e)">
     <use xlink:href="#md32b151fc3" x="51.913636" y="79.532685" style="fill: #bf00bf; stroke: #bf00bf; stroke-width: 2"/>
     <use xlink:href="#md32b151fc3" x="72.665702" y="116.157378" style="fill: #bf00bf; stroke: #bf00bf; stroke-width: 2"/>
     <use xlink:href="#md32b151fc3" x="93.417769" y="154.019731" style="fill: #bf00bf; stroke: #bf00bf; stroke-width: 2"/>
     <use xlink:href="#md32b151fc3" x="114.169835" y="181.831172" style="fill: #bf00bf; stroke: #bf00bf; stroke-width: 2"/>
     <use xlink:href="#md32b151fc3" x="134.921901" y="210.035761" style="fill: #bf00bf; stroke: #bf00bf; stroke-width: 2"/>
     <use xlink:href="#md32b151fc3" x="155.673967" y="229.426698" style="fill: #bf00bf; stroke: #bf00bf; stroke-width: 2"/>
     <use xlink:href="#md32b151fc3" x="176.426033" y="242.250825" style="fill: #bf00bf; stroke: #bf00bf; stroke-width: 2"/>
     <use xlink:href="#md32b151fc3" x="197.178099" y="254.389315" style="fill: #bf00bf; stroke: #bf00bf; stroke-width: 2"/>
     <use xlink:href="#md32b151fc3" x="217.930165" y="262.322688" style="fill: #bf00bf; stroke: #bf00bf; stroke-width: 2"/>
     <use xlink:href="#md32b151fc3" x="238.682231" y="269.521056" style="fill: #bf00bf; stroke: #bf00bf; stroke-width: 2"/>
     <use xlink:href="#md32b151fc3" x="259.434298" y="274.566977" style="fill: #bf00bf; stroke: #bf00bf; stroke-width: 2"/>
     <use xlink:href="#md32b151fc3" x="280.186364" y="278.303418" style="fill: #bf00bf; stroke: #bf00bf; stroke-width: 2"/>
    </g>
   </g>
   <g id="line2d_21">
    <g clip-path="url(#p32be0d488e)">
     <use xlink:href="#md32b151fc3" x="51.913636" y="77.171785" style="fill: #bf00bf; stroke: #bf00bf; stroke-width: 2"/>
     <use xlink:href="#md32b151fc3" x="72.665702" y="115.005205" style="fill: #bf00bf; stroke: #bf00bf; stroke-width: 2"/>
     <use xlink:href="#md32b151fc3" x="93.417769" y="152.1001" style="fill: #bf00bf; stroke: #bf00bf; stroke-width: 2"/>
     <use xlink:href="#md32b151fc3" x="114.169835" y="180.583191" style="fill: #bf00bf; stroke: #bf00bf; stroke-width: 2"/>
     <use xlink:href="#md32b151fc3" x="134.921901" y="208.88164" style="fill: #bf00bf; stroke: #bf00bf; stroke-width: 2"/>
     <use xlink:href="#md32b151fc3" x="155.673967" y="228.574506" style="fill: #bf00bf; stroke: #bf00bf; stroke-width: 2"/>
     <use xlink:href="#md32b151fc3" x="176.426033" y="241.930055" style="fill: #bf00bf; stroke: #bf00bf; stroke-width: 2"/>
     <use xlink:href="#md32b151fc3" x="197.178099" y="254.197652" style="fill: #bf00bf; stroke: #bf00bf; stroke-width: 2"/>
     <use xlink:href="#md32b151fc3" x="217.930165" y="261.798103" style="fill: #bf00bf; stroke: #bf00bf; stroke-width: 2"/>
     <use xlink:href="#md32b151fc3" x="238.682231" y="269.215148" style="fill: #bf00bf; stroke: #bf00bf; stroke-width: 2"/>
     <use xlink:href="#md32b151fc3" x="259.434298" y="274.500034" style="fill: #bf00bf; stroke: #bf00bf; stroke-width: 2"/>
     <use xlink:href="#md32b151fc3" x="280.186364" y="278.135957" style="fill: #bf00bf; stroke: #bf00bf; stroke-width: 2"/>
    </g>
   </g>
   <g id="line2d_22">
    <path d="M 51.913636 136.343805 
L 72.665702 152.380989 
L 93.417769 168.551617 
L 114.169835 182.229265 
L 134.921901 193.013528 
L 155.673967 204.550308 
L 176.426033 213.182722 
L 197.178099 220.550745 
L 217.930165 226.671514 
L 238.682231 233.081904 
L 259.434298 237.928154 
L 280.186364 242.952179 
" clip-path="url(#p32be0d488e)" style="fill: none; stroke: #ff0000; stroke-width: 1.5; stroke-linecap: square"/>
   </g>
   <g id="line2d_23">
    <path d="M 51.913636 118.11448 
L 72.665702 143.022994 
L 93.417769 164.95959 
L 114.169835 180.83852 
L 134.921901 196.796737 
L 155.673967 211.224387 
L 176.426033 221.865959 
L 197.178099 230.222991 
L 217.930165 238.230956 
L 238.682231 244.985733 
L 259.434298 250.548557 
L 280.186364 255.242953 
" clip-path="url(#p32be0d488e)" style="fill: none; stroke: #000000; stroke-width: 1.5; stroke-linecap: square"/>
   </g>
   <g id="line2d_24">
    <path d="M 51.913636 100.683804 
L 72.665702 130.958991 
L 93.417769 159.718701 
L 114.169835 182.916588 
L 134.921901 202.160086 
L 155.673967 218.854143 
L 176.426033 231.423748 
L 197.178099 242.129574 
L 217.930165 250.07315 
L 238.682231 257.327183 
L 259.434298 262.987355 
L 280.186364 267.459123 
" clip-path="url(#p32be0d488e)" style="fill: none; stroke: #0000ff; stroke-width: 1.5; stroke-linecap: square"/>
   </g>
   <g id="line2d_25">
    <path d="M 51.913636 78.352235 
L 72.665702 115.581292 
L 93.417769 153.059915 
L 114.169835 181.207182 
L 134.921901 209.458701 
L 155.673967 229.000602 
L 176.426033 242.09044 
L 197.178099 254.293483 
L 217.930165 262.060395 
L 238.682231 269.368102 
L 259.434298 274.533505 
L 280.186364 278.219688 
" clip-path="url(#p32be0d488e)" style="fill: none; stroke: #bf00bf; stroke-width: 1.5; stroke-linecap: square"/>
   </g>
   <g id="patch_3">
    <path d="M 40.5 288.36 
L 40.5 38.88 
" style="fill: none; stroke: #000000; stroke-width: 1.6; stroke-linejoin: miter; stroke-linecap: square"/>
   </g>
   <g id="patch_4">
    <path d="M 291.6 288.36 
L 291.6 38.88 
" style="fill: none; stroke: #000000; stroke-width: 1.6; stroke-linejoin: miter; stroke-linecap: square"/>
   </g>
   <g id="patch_5">
    <path d="M 40.5 288.36 
L 291.6 288.36 
" style="fill: none; stroke: #000000; stroke-width: 1.6; stroke-linejoin: miter; stroke-linecap: square"/>
   </g>
   <g id="patch_6">
    <path d="M 40.5 38.88 
L 291.6 38.88 
" style="fill: none; stroke: #000000; stroke-width: 1.6; stroke-linejoin: miter; stroke-linecap: square"/>
   </g>
   <g id="legend_1">
    <g id="patch_7">
     <path d="M 209.120625 118.935 
L 283.2 118.935 
Q 285.6 118.935 285.6 116.535 
L 285.6 47.28 
Q 285.6 44.88 283.2 44.88 
L 209.120625 44.88 
Q 206.720625 44.88 206.720625 47.28 
L 206.720625 116.535 
Q 206.720625 118.935 209.120625 118.935 
z
" style="fill: #ffffff; opacity: 0.8"/>
    </g>
    <g id="line2d_26">
     <path d="M 211.520625 54.598125 
L 223.520625 54.598125 
L 235.520625 54.598125 
" style="fill: none; stroke: #ff0000; stroke-width: 1.5; stroke-linecap: square"/>
    </g>
    <g id="text_10">
     <!-- M=4 -->
     <g transform="translate(245.120625 58.798125) scale(0.12 -0.12)">
      <defs>
       <path id="DejaVuSans-4d" d="M 628 4666 
L 1569 4666 
L 2759 1491 
L 3956 4666 
L 4897 4666 
L 4897 0 
L 4281 0 
L 4281 4097 
L 3078 897 
L 2444 897 
L 1241 4097 
L 1241 0 
L 628 0 
L 628 4666 
z
" transform="scale(0.015625)"/>
       <path id="DejaVuSans-3d" d="M 678 2906 
L 4684 2906 
L 4684 2381 
L 678 2381 
L 678 2906 
z
M 678 1631 
L 4684 1631 
L 4684 1100 
L 678 1100 
L 678 1631 
z
" transform="scale(0.015625)"/>
      </defs>
      <use xlink:href="#DejaVuSans-4d"/>
      <use xlink:href="#DejaVuSans-3d" x="86.279297"/>
      <use xlink:href="#DejaVuSans-34" x="170.068359"/>
     </g>
    </g>
    <g id="line2d_27">
     <path d="M 211.520625 72.211875 
L 223.520625 72.211875 
L 235.520625 72.211875 
" style="fill: none; stroke: #000000; stroke-width: 1.5; stroke-linecap: square"/>
    </g>
    <g id="text_11">
     <!-- M=8 -->
     <g transform="translate(245.120625 76.411875) scale(0.12 -0.12)">
      <defs>
       <path id="DejaVuSans-38" d="M 2034 2216 
Q 1584 2216 1326 1975 
Q 1069 1734 1069 1313 
Q 1069 891 1326 650 
Q 1584 409 2034 409 
Q 2484 409 2743 651 
Q 3003 894 3003 1313 
Q 3003 1734 2745 1975 
Q 2488 2216 2034 2216 
z
M 1403 2484 
Q 997 2584 770 2862 
Q 544 3141 544 3541 
Q 544 4100 942 4425 
Q 1341 4750 2034 4750 
Q 2731 4750 3128 4425 
Q 3525 4100 3525 3541 
Q 3525 3141 3298 2862 
Q 3072 2584 2669 2484 
Q 3125 2378 3379 2068 
Q 3634 1759 3634 1313 
Q 3634 634 3220 271 
Q 2806 -91 2034 -91 
Q 1263 -91 848 271 
Q 434 634 434 1313 
Q 434 1759 690 2068 
Q 947 2378 1403 2484 
z
M 1172 3481 
Q 1172 3119 1398 2916 
Q 1625 2713 2034 2713 
Q 2441 2713 2670 2916 
Q 2900 3119 2900 3481 
Q 2900 3844 2670 4047 
Q 2441 4250 2034 4250 
Q 1625 4250 1398 4047 
Q 1172 3844 1172 3481 
z
" transform="scale(0.015625)"/>
      </defs>
      <use xlink:href="#DejaVuSans-4d"/>
      <use xlink:href="#DejaVuSans-3d" x="86.279297"/>
      <use xlink:href="#DejaVuSans-38" x="170.068359"/>
     </g>
    </g>
    <g id="line2d_28">
     <path d="M 211.520625 89.825625 
L 223.520625 89.825625 
L 235.520625 89.825625 
" style="fill: none; stroke: #0000ff; stroke-width: 1.5; stroke-linecap: square"/>
    </g>
    <g id="text_12">
     <!-- M=16 -->
     <g transform="translate(245.120625 94.025625) scale(0.12 -0.12)">
      <defs>
       <path id="DejaVuSans-36" d="M 2113 2584 
Q 1688 2584 1439 2293 
Q 1191 2003 1191 1497 
Q 1191 994 1439 701 
Q 1688 409 2113 409 
Q 2538 409 2786 701 
Q 3034 994 3034 1497 
Q 3034 2003 2786 2293 
Q 2538 2584 2113 2584 
z
M 3366 4563 
L 3366 3988 
Q 3128 4100 2886 4159 
Q 2644 4219 2406 4219 
Q 1781 4219 1451 3797 
Q 1122 3375 1075 2522 
Q 1259 2794 1537 2939 
Q 1816 3084 2150 3084 
Q 2853 3084 3261 2657 
Q 3669 2231 3669 1497 
Q 3669 778 3244 343 
Q 2819 -91 2113 -91 
Q 1303 -91 875 529 
Q 447 1150 447 2328 
Q 447 3434 972 4092 
Q 1497 4750 2381 4750 
Q 2619 4750 2861 4703 
Q 3103 4656 3366 4563 
z
" transform="scale(0.015625)"/>
      </defs>
      <use xlink:href="#DejaVuSans-4d"/>
      <use xlink:href="#DejaVuSans-3d" x="86.279297"/>
      <use xlink:href="#DejaVuSans-31" x="170.068359"/>
      <use xlink:href="#DejaVuSans-36" x="233.691406"/>
     </g>
    </g>
    <g id="line2d_29">
     <path d="M 211.520625 107.439375 
L 223.520625 107.439375 
L 235.520625 107.439375 
" style="fill: none; stroke: #bf00bf; stroke-width: 1.5; stroke-linecap: square"/>
    </g>
    <g id="text_13">
     <!-- M=32 -->
     <g transform="translate(245.120625 111.639375) scale(0.12 -0.12)">
      <use xlink:href="#DejaVuSans-4d"/>
      <use xlink:href="#DejaVuSans-3d" x="86.279297"/>
      <use xlink:href="#DejaVuSans-33" x="170.068359"/>
      <use xlink:href="#DejaVuSans-32" x="233.691406"/>
     </g>
    </g>
   </g>
  </g>
 </g>
 <defs>
  <clipPath id="p32be0d488e">
   <rect x="40.5" y="38.88" width="251.1" height="249.48"/>
  </clipPath>
 </defs>
</svg>
