<?xml version="1.0" encoding="utf-8" standalone="no"?>
<!DOCTYPE svg PUBLIC "-//W3C//DTD SVG 1.1//EN"
  "http://www.w3.org/Graphics/SVG/1.1/DTD/svg11.dtd">
<svg xmlns:xlink="http://www.w3.org/1999/xlink" width="324pt" height="324pt" viewBox="0 0 324 324" xmlns="http://www.w3.org/2000/svg" version="1.1">
 <metadata>
  <rdf:RDF xmlns:dc="http://purl.org/dc/elements/1.1/" xmlns:cc="http://creativecommons.org/ns#" xmlns:rdf="http://www.w3.org/1999/02/22-rdf-syntax-ns#">
   <cc:Work>
    <dc:type rdf:resource="http://purl.org/dc/dcmitype/StillImage"/>
    <dc:date>2026-01-10T11:33:36.334635</dc:date>
    <dc:format>image/svg+xml</dc:format>
    <dc:creator>
     <cc:Agent>
      <dc:title>Matplotlib v3.8.0, https://matplotlib.org/</dc:title>
     </cc:Agent>
    </dc:creator>
   </cc:Work>
  </rdf:RDF>
 </metadata>
 <defs>
  <style type="text/css">*{stroke-linejoin: round; stroke-linecap: butt}</style>
 </defs>
 <g id="figure_1">
  <g id="patch_1">
   <path d="M 0 324 
L 324 324 
L 324 0 
L 0 0 
z
" style="fill: #ffffff"/>
  </g>
  <g id="axes_1">
   <g id="patch_2">
    <path d="M 40.5 288.36 
L 291.6 288.36 
L 291.6 38.88 
L 40.5 38.88 
z
" style="fill: #ffffff"/>
   </g>
   <g id="matplotlib.axis_1">
    <g id="xtick_1">
     <g id="line2d_1">
      <defs>
       <path id="m68b06f7fcf" d="M 0 0 
L 0 8 
" style="stroke: #000000; stroke-width: 1.5"/>
      </defs>
      <g>
       <use xlink:href="#m68b06f7fcf" x="84.524026" y="288.36" style="stroke: #000000; stroke-width: 1.5"/>
      </g>
     </g>
     <g id="text_1">
      <!-- 7 -->
      <g transform="translate(80.706526 308.978125) scale(0.12 -0.12)">
       <defs>
        <path id="DejaVuSans-37" d="M 525 4666 
L 3525 4666 
L 3525 4397 
L 1831 0 
L 1172 0 
L 2766 4134 
L 525 4134 
L 525 4666 
z
" transform="scale(0.015625)"/>
       </defs>
       <use xlink:href="#DejaVuSans-37"/>
      </g>
     </g>
    </g>
    <g id="xtick_2">
     <g id="line2d_2">
      <g>
       <use xlink:href="#m68b06f7fcf" x="166.05" y="288.36" style="stroke: #000000; stroke-width: 1.5"/>
      </g>
     </g>
     <g id="text_2">
      <!-- 8 -->
      <g transform="translate(162.2325 308.978125) scale(0.12 -0.12)">
       <defs>
        <path id="DejaVuSans-38" d="M 2034 2216 
Q 1584 2216 1326 1975 
Q 1069 1734 1069 1313 
Q 1069 891 1326 650 
Q 1584 409 2034 409 
Q 2484 409 2743 651 
Q 3003 894 3003 1313 
Q 3003 1734 2745 1975 
Q 2488 2216 2034 2216 
z
M 1403 2484 
Q 997 2584 770 2862 
Q 544 3141 544 3541 
Q 544 4100 942 4425 
Q 1341 4750 2034 4750 
Q 2731 4750 3128 4425 
Q 3525 4100 3525 3541 
Q 3525 3141 3298 2862 
Q 3072 2584 2669 2484 
Q 3125 2378 3379 2068 
Q 3634 1759 3634 1313 
Q 3634 634 3220 271 
Q 2806 -91 2034 -91 
Q 1263 -91 848 271 
Q 434 634 434 1313 
Q 434 1759 690 2068 
Q 947 2378 1403 2484 
z
M 1172 3481 
Q 1172 3119 1398 2916 
Q 1625 2713 2034 2713 
Q 2441 2713 2670 2916 
Q 2900 3119 2900 3481 
Q 2900 3844 2670 4047 
Q 2441 4250 2034 4250 
Q 1625 4250 1398 4047 
Q 1172 3844 1172 3481 
z
" transform="scale(0.015625)"/>
       </defs>
       <use xlink:href="#DejaVuSans-38"/>
      </g>
     </g>
    </g>
    <g id="xtick_3">
     <g id="line2d_3">
      <g>
       <use xlink:href="#m68b06f7fcf" x="247.575974" y="288.36" style="stroke: #000000; stroke-width: 1.5"/>
      </g>
     </g>
     <g id="text_3">
      <!-- 9 -->
      <g transform="translate(243.758474 308.978125) scale(0.12 -0.12)">
       <defs>
        <path id="DejaVuSans-39" d="M 703 97 
L 703 672 
Q 941 559 1184 500 
Q 1428 441 1663 441 
Q 2288 441 2617 861 
Q 2947 1281 2994 2138 
Q 2813 1869 2534 1725 
Q 2256 1581 1919 1581 
Q 1219 1581 811 2004 
Q 403 2428 403 3163 
Q 403 3881 828 4315 
Q 1253 4750 1959 4750 
Q 2769 4750 3195 4129 
Q 3622 3509 3622 2328 
Q 3622 1225 3098 567 
Q 2575 -91 1691 -91 
Q 1453 -91 1209 -44 
Q 966 3 703 97 
z
M 1959 2075 
Q 2384 2075 2632 2365 
Q 2881 2656 2881 3163 
Q 2881 3666 2632 3958 
Q 2384 4250 1959 4250 
Q 1534 4250 1286 3958 
Q 1038 3666 1038 3163 
Q 1038 2656 1286 2365 
Q 1534 2075 1959 2075 
z
" transform="scale(0.015625)"/>
       </defs>
       <use xlink:href="#DejaVuSans-39"/>
      </g>
     </g>
    </g>
   </g>
   <g id="matplotlib.axis_2">
    <g id="ytick_1">
     <g id="line2d_4">
      <defs>
       <path id="me59d53cdb2" d="M 0 0 
L -8 0 
" style="stroke: #000000; stroke-width: 1.5"/>
      </defs>
      <g>
       <use xlink:href="#me59d53cdb2" x="40.5" y="274.264103" style="stroke: #000000; stroke-width: 1.5"/>
      </g>
     </g>
     <g id="text_4">
      <!-- 0.1 -->
      <g transform="translate(9.91625 278.823165) scale(0.12 -0.12)">
       <defs>
        <path id="DejaVuSans-30" d="M 2034 4250 
Q 1547 4250 1301 3770 
Q 1056 3291 1056 2328 
Q 1056 1369 1301 889 
Q 1547 409 2034 409 
Q 2525 409 2770 889 
Q 3016 1369 3016 2328 
Q 3016 3291 2770 3770 
Q 2525 4250 2034 4250 
z
M 2034 4750 
Q 2819 4750 3233 4129 
Q 3647 3509 3647 2328 
Q 3647 1150 3233 529 
Q 2819 -91 2034 -91 
Q 1250 -91 836 529 
Q 422 1150 422 2328 
Q 422 3509 836 4129 
Q 1250 4750 2034 4750 
z
" transform="scale(0.015625)"/>
        <path id="DejaVuSans-2e" d="M 684 794 
L 1344 794 
L 1344 0 
L 684 0 
L 684 794 
z
" transform="scale(0.015625)"/>
        <path id="DejaVuSans-31" d="M 794 531 
L 1825 531 
L 1825 4091 
L 703 3866 
L 703 4441 
L 1819 4666 
L 2450 4666 
L 2450 531 
L 3481 531 
L 3481 0 
L 794 0 
L 794 531 
z
" transform="scale(0.015625)"/>
       </defs>
       <use xlink:href="#DejaVuSans-30"/>
       <use xlink:href="#DejaVuSans-2e" x="63.623047"/>
       <use xlink:href="#DejaVuSans-31" x="95.410156"/>
      </g>
     </g>
    </g>
    <g id="ytick_2">
     <g id="line2d_5">
      <g>
       <use xlink:href="#me59d53cdb2" x="40.5" y="238.613437" style="stroke: #000000; stroke-width: 1.5"/>
      </g>
     </g>
     <g id="text_5">
      <!-- 0.2 -->
      <g transform="translate(9.91625 243.172499) scale(0.12 -0.12)">
       <defs>
        <path id="DejaVuSans-32" d="M 1228 531 
L 3431 531 
L 3431 0 
L 469 0 
L 469 531 
Q 828 903 1448 1529 
Q 2069 2156 2228 2338 
Q 2531 2678 2651 2914 
Q 2772 3150 2772 3378 
Q 2772 3750 2511 3984 
Q 2250 4219 1831 4219 
Q 1534 4219 1204 4116 
Q 875 4013 500 3803 
L 500 4441 
Q 881 4594 1212 4672 
Q 1544 4750 1819 4750 
Q 2544 4750 2975 4387 
Q 3406 4025 3406 3419 
Q 3406 3131 3298 2873 
Q 3191 2616 2906 2266 
Q 2828 2175 2409 1742 
Q 1991 1309 1228 531 
z
" transform="scale(0.015625)"/>
       </defs>
       <use xlink:href="#DejaVuSans-30"/>
       <use xlink:href="#DejaVuSans-2e" x="63.623047"/>
       <use xlink:href="#DejaVuSans-32" x="95.410156"/>
      </g>
     </g>
    </g>
    <g id="ytick_3">
     <g id="line2d_6">
      <g>
       <use xlink:href="#me59d53cdb2" x="40.5" y="202.962771" style="stroke: #000000; stroke-width: 1.5"/>
      </g>
     </g>
     <g id="text_6">
      <!-- 0.3 -->
      <g transform="translate(9.91625 207.521834) scale(0.12 -0.12)">
       <defs>
        <path id="DejaVuSans-33" d="M 2597 2516 
Q 3050 2419 3304 2112 
Q 3559 1806 3559 1356 
Q 3559 666 3084 287 
Q 2609 -91 1734 -91 
Q 1441 -91 1130 -33 
Q 819 25 488 141 
L 488 750 
Q 750 597 1062 519 
Q 1375 441 1716 441 
Q 2309 441 2620 675 
Q 2931 909 2931 1356 
Q 2931 1769 2642 2001 
Q 2353 2234 1838 2234 
L 1294 2234 
L 1294 2753 
L 1863 2753 
Q 2328 2753 2575 2939 
Q 2822 3125 2822 3475 
Q 2822 3834 2567 4026 
Q 2313 4219 1838 4219 
Q 1578 4219 1281 4162 
Q 984 4106 628 3988 
L 628 4550 
Q 988 4650 1302 4700 
Q 1616 4750 1894 4750 
Q 2613 4750 3031 4423 
Q 3450 4097 3450 3541 
Q 3450 3153 3228 2886 
Q 3006 2619 2597 2516 
z
" transform="scale(0.015625)"/>
       </defs>
       <use xlink:href="#DejaVuSans-30"/>
       <use xlink:href="#DejaVuSans-2e" x="63.623047"/>
       <use xlink:href="#DejaVuSans-33" x="95.410156"/>
      </g>
     </g>
    </g>
    <g id="ytick_4">
     <g id="line2d_7">
      <g>
       <use xlink:href="#me59d53cdb2" x="40.5" y="167.312105" style="stroke: #000000; stroke-width: 1.5"/>
      </g>
     </g>
     <g id="text_7">
      <!-- 0.4 -->
      <g transform="translate(9.91625 171.871168) scale(0.12 -0.12)">
       <defs>
        <path id="DejaVuSans-34" d="M 2419 4116 
L 825 1625 
L 2419 1625 
L 2419 4116 
z
M 2253 4666 
L 3047 4666 
L 3047 1625 
L 3713 1625 
L 3713 1100 
L 3047 1100 
L 3047 0 
L 2419 0 
L 2419 1100 
L 313 1100 
L 313 1709 
L 2253 4666 
z
" transform="scale(0.015625)"/>
       </defs>
       <use xlink:href="#DejaVuSans-30"/>
       <use xlink:href="#DejaVuSans-2e" x="63.623047"/>
       <use xlink:href="#DejaVuSans-34" x="95.410156"/>
      </g>
     </g>
    </g>
    <g id="ytick_5">
     <g id="line2d_8">
      <g>
       <use xlink:href="#me59d53cdb2" x="40.5" y="131.661439" style="stroke: #000000; stroke-width: 1.5"/>
      </g>
     </g>
     <g id="text_8">
      <!-- 0.5 -->
      <g transform="translate(9.91625 136.220502) scale(0.12 -0.12)">
       <defs>
        <path id="DejaVuSans-35" d="M 691 4666 
L 3169 4666 
L 3169 4134 
L 1269 4134 
L 1269 2991 
Q 1406 3038 1543 3061 
Q 1681 3084 1819 3084 
Q 2600 3084 3056 2656 
Q 3513 2228 3513 1497 
Q 3513 744 3044 326 
Q 2575 -91 1722 -91 
Q 1428 -91 1123 -41 
Q 819 9 494 109 
L 494 744 
Q 775 591 1075 516 
Q 1375 441 1709 441 
Q 2250 441 2565 725 
Q 2881 1009 2881 1497 
Q 2881 1984 2565 2268 
Q 2250 2553 1709 2553 
Q 1456 2553 1204 2497 
Q 953 2441 691 2322 
L 691 4666 
z
" transform="scale(0.015625)"/>
       </defs>
       <use xlink:href="#DejaVuSans-30"/>
       <use xlink:href="#DejaVuSans-2e" x="63.623047"/>
       <use xlink:href="#DejaVuSans-35" x="95.410156"/>
      </g>
     </g>
    </g>
    <g id="ytick_6">
     <g id="line2d_9">
      <g>
       <use xlink:href="#me59d53cdb2" x="40.5" y="96.010774" style="stroke: #000000; stroke-width: 1.5"/>
      </g>
     </g>
     <g id="text_9">
      <!-- 0.6 -->
      <g transform="translate(9.91625 100.569836) scale(0.12 -0.12)">
       <defs>
        <path id="DejaVuSans-36" d="M 2113 2584 
Q 1688 2584 1439 2293 
Q 1191 2003 1191 1497 
Q 1191 994 1439 701 
Q 1688 409 2113 409 
Q 2538 409 2786 701 
Q 3034 994 3034 1497 
Q 3034 2003 2786 2293 
Q 2538 2584 2113 2584 
z
M 3366 4563 
L 3366 3988 
Q 3128 4100 2886 4159 
Q 2644 4219 2406 4219 
Q 1781 4219 1451 3797 
Q 1122 3375 1075 2522 
Q 1259 2794 1537 2939 
Q 1816 3084 2150 3084 
Q 2853 3084 3261 2657 
Q 3669 2231 3669 1497 
Q 3669 778 3244 343 
Q 2819 -91 2113 -91 
Q 1303 -91 875 529 
Q 447 1150 447 2328 
Q 447 3434 972 4092 
Q 1497 4750 2381 4750 
Q 2619 4750 2861 4703 
Q 3103 4656 3366 4563 
z
" transform="scale(0.015625)"/>
       </defs>
       <use xlink:href="#DejaVuSans-30"/>
       <use xlink:href="#DejaVuSans-2e" x="63.623047"/>
       <use xlink:href="#DejaVuSans-36" x="95.410156"/>
      </g>
     </g>
    </g>
    <g id="ytick_7">
     <g id="line2d_10">
      <g>
       <use xlink:href="#me59d53cdb2" x="40.5" y="60.360108" style="stroke: #000000; stroke-width: 1.5"/>
      </g>
     </g>
     <g id="text_10">
      <!-- 0.7 -->
      <g transform="translate(9.91625 64.91917) scale(0.12 -0.12)">
       <use xlink:href="#DejaVuSans-30"/>
       <use xlink:href="#DejaVuSans-2e" x="63.623047"/>
       <use xlink:href="#DejaVuSans-37" x="95.410156"/>
      </g>
     </g>
    </g>
   </g>
   <g id="line2d_11">
    <path d="M 51.913636 67.443279 
L 68.218831 74.715736 
L 84.524026 80.545871 
L 100.829221 80.968376 
L 117.134416 82.419796 
L 133.43961 83.472222 
L 149.744805 90.938674 
L 166.05 107.328811 
L 182.355195 130.149688 
L 198.66039 152.877526 
L 214.965584 177.144081 
L 231.270779 200.563639 
L 247.575974 221.4684 
L 263.881169 240.477256 
L 280.186364 255.976979 
" clip-path="url(#p6cc9fb5d23)" style="fill: none; stroke: #ff0000; stroke-width: 1.5; stroke-linecap: square"/>
   </g>
   <g id="LineCollection_1">
    <path d="M 51.913636 68.014479 
L 51.913636 66.872079 
" clip-path="url(#p6cc9fb5d23)" style="fill: none; stroke: #ff0000; stroke-width: 2"/>
    <path d="M 68.218831 75.238877 
L 68.218831 74.192596 
" clip-path="url(#p6cc9fb5d23)" style="fill: none; stroke: #ff0000; stroke-width: 2"/>
    <path d="M 84.524026 80.820768 
L 84.524026 80.270974 
" clip-path="url(#p6cc9fb5d23)" style="fill: none; stroke: #ff0000; stroke-width: 2"/>
    <path d="M 100.829221 81.574285 
L 100.829221 80.362468 
" clip-path="url(#p6cc9fb5d23)" style="fill: none; stroke: #ff0000; stroke-width: 2"/>
    <path d="M 117.134416 82.764832 
L 117.134416 82.07476 
" clip-path="url(#p6cc9fb5d23)" style="fill: none; stroke: #ff0000; stroke-width: 2"/>
    <path d="M 133.43961 83.874632 
L 133.43961 83.069812 
" clip-path="url(#p6cc9fb5d23)" style="fill: none; stroke: #ff0000; stroke-width: 2"/>
    <path d="M 149.744805 91.52205 
L 149.744805 90.355297 
" clip-path="url(#p6cc9fb5d23)" style="fill: none; stroke: #ff0000; stroke-width: 2"/>
    <path d="M 166.05 107.580967 
L 166.05 107.076655 
" clip-path="url(#p6cc9fb5d23)" style="fill: none; stroke: #ff0000; stroke-width: 2"/>
    <path d="M 182.355195 130.515725 
L 182.355195 129.783652 
" clip-path="url(#p6cc9fb5d23)" style="fill: none; stroke: #ff0000; stroke-width: 2"/>
    <path d="M 198.66039 153.163579 
L 198.66039 152.591474 
" clip-path="url(#p6cc9fb5d23)" style="fill: none; stroke: #ff0000; stroke-width: 2"/>
    <path d="M 214.965584 177.447653 
L 214.965584 176.840509 
" clip-path="url(#p6cc9fb5d23)" style="fill: none; stroke: #ff0000; stroke-width: 2"/>
    <path d="M 231.270779 200.809255 
L 231.270779 200.318023 
" clip-path="url(#p6cc9fb5d23)" style="fill: none; stroke: #ff0000; stroke-width: 2"/>
    <path d="M 247.575974 221.564002 
L 247.575974 221.372797 
" clip-path="url(#p6cc9fb5d23)" style="fill: none; stroke: #ff0000; stroke-width: 2"/>
    <path d="M 263.881169 240.552087 
L 263.881169 240.402425 
" clip-path="url(#p6cc9fb5d23)" style="fill: none; stroke: #ff0000; stroke-width: 2"/>
    <path d="M 280.186364 256.00478 
L 280.186364 255.949178 
" clip-path="url(#p6cc9fb5d23)" style="fill: none; stroke: #ff0000; stroke-width: 2"/>
   </g>
   <g id="line2d_12">
    <defs>
     <path id="mb039982f0a" d="M 3 0 
L -3 -0 
" style="stroke: #ff0000; stroke-width: 2"/>
    </defs>
    <g clip-path="url(#p6cc9fb5d23)">
     <use xlink:href="#mb039982f0a" x="51.913636" y="68.014479" style="fill: #ff0000; stroke: #ff0000; stroke-width: 2"/>
     <use xlink:href="#mb039982f0a" x="68.218831" y="75.238877" style="fill: #ff0000; stroke: #ff0000; stroke-width: 2"/>
     <use xlink:href="#mb039982f0a" x="84.524026" y="80.820768" style="fill: #ff0000; stroke: #ff0000; stroke-width: 2"/>
     <use xlink:href="#mb039982f0a" x="100.829221" y="81.574285" style="fill: #ff0000; stroke: #ff0000; stroke-width: 2"/>
     <use xlink:href="#mb039982f0a" x="117.134416" y="82.764832" style="fill: #ff0000; stroke: #ff0000; stroke-width: 2"/>
     <use xlink:href="#mb039982f0a" x="133.43961" y="83.874632" style="fill: #ff0000; stroke: #ff0000; stroke-width: 2"/>
     <use xlink:href="#mb039982f0a" x="149.744805" y="91.52205" style="fill: #ff0000; stroke: #ff0000; stroke-width: 2"/>
     <use xlink:href="#mb039982f0a" x="166.05" y="107.580967" style="fill: #ff0000; stroke: #ff0000; stroke-width: 2"/>
     <use xlink:href="#mb039982f0a" x="182.355195" y="130.515725" style="fill: #ff0000; stroke: #ff0000; stroke-width: 2"/>
     <use xlink:href="#mb039982f0a" x="198.66039" y="153.163579" style="fill: #ff0000; stroke: #ff0000; stroke-width: 2"/>
     <use xlink:href="#mb039982f0a" x="214.965584" y="177.447653" style="fill: #ff0000; stroke: #ff0000; stroke-width: 2"/>
     <use xlink:href="#mb039982f0a" x="231.270779" y="200.809255" style="fill: #ff0000; stroke: #ff0000; stroke-width: 2"/>
     <use xlink:href="#mb039982f0a" x="247.575974" y="221.564002" style="fill: #ff0000; stroke: #ff0000; stroke-width: 2"/>
     <use xlink:href="#mb039982f0a" x="263.881169" y="240.552087" style="fill: #ff0000; stroke: #ff0000; stroke-width: 2"/>
     <use xlink:href="#mb039982f0a" x="280.186364" y="256.00478" style="fill: #ff0000; stroke: #ff0000; stroke-width: 2"/>
    </g>
   </g>
   <g id="line2d_13">
    <g clip-path="url(#p6cc9fb5d23)">
     <use xlink:href="#mb039982f0a" x="51.913636" y="66.872079" style="fill: #ff0000; stroke: #ff0000; stroke-width: 2"/>
     <use xlink:href="#mb039982f0a" x="68.218831" y="74.192596" style="fill: #ff0000; stroke: #ff0000; stroke-width: 2"/>
     <use xlink:href="#mb039982f0a" x="84.524026" y="80.270974" style="fill: #ff0000; stroke: #ff0000; stroke-width: 2"/>
     <use xlink:href="#mb039982f0a" x="100.829221" y="80.362468" style="fill: #ff0000; stroke: #ff0000; stroke-width: 2"/>
     <use xlink:href="#mb039982f0a" x="117.134416" y="82.07476" style="fill: #ff0000; stroke: #ff0000; stroke-width: 2"/>
     <use xlink:href="#mb039982f0a" x="133.43961" y="83.069812" style="fill: #ff0000; stroke: #ff0000; stroke-width: 2"/>
     <use xlink:href="#mb039982f0a" x="149.744805" y="90.355297" style="fill: #ff0000; stroke: #ff0000; stroke-width: 2"/>
     <use xlink:href="#mb039982f0a" x="166.05" y="107.076655" style="fill: #ff0000; stroke: #ff0000; stroke-width: 2"/>
     <use xlink:href="#mb039982f0a" x="182.355195" y="129.783652" style="fill: #ff0000; stroke: #ff0000; stroke-width: 2"/>
     <use xlink:href="#mb039982f0a" x="198.66039" y="152.591474" style="fill: #ff0000; stroke: #ff0000; stroke-width: 2"/>
     <use xlink:href="#mb039982f0a" x="214.965584" y="176.840509" style="fill: #ff0000; stroke: #ff0000; stroke-width: 2"/>
     <use xlink:href="#mb039982f0a" x="231.270779" y="200.318023" style="fill: #ff0000; stroke: #ff0000; stroke-width: 2"/>
     <use xlink:href="#mb039982f0a" x="247.575974" y="221.372797" style="fill: #ff0000; stroke: #ff0000; stroke-width: 2"/>
     <use xlink:href="#mb039982f0a" x="263.881169" y="240.402425" style="fill: #ff0000; stroke: #ff0000; stroke-width: 2"/>
     <use xlink:href="#mb039982f0a" x="280.186364" y="255.949178" style="fill: #ff0000; stroke: #ff0000; stroke-width: 2"/>
    </g>
   </g>
   <g id="line2d_14">
    <path d="M 51.913636 62.820632 
L 68.218831 70.343883 
L 84.524026 75.607936 
L 100.829221 78.374016 
L 117.134416 78.739362 
L 133.43961 81.501805 
L 149.744805 91.267791 
L 166.05 107.811256 
L 182.355195 130.278029 
L 198.66039 156.371656 
L 214.965584 183.234037 
L 231.270779 209.664887 
L 247.575974 232.941448 
L 263.881169 251.966517 
L 280.186364 265.481075 
" clip-path="url(#p6cc9fb5d23)" style="fill: none; stroke: #000000; stroke-width: 1.5; stroke-linecap: square"/>
   </g>
   <g id="LineCollection_2">
    <path d="M 51.913636 63.633289 
L 51.913636 62.007975 
" clip-path="url(#p6cc9fb5d23)" style="fill: none; stroke: #000000; stroke-width: 2"/>
    <path d="M 68.218831 71.07899 
L 68.218831 69.608777 
" clip-path="url(#p6cc9fb5d23)" style="fill: none; stroke: #000000; stroke-width: 2"/>
    <path d="M 84.524026 76.154842 
L 84.524026 75.06103 
" clip-path="url(#p6cc9fb5d23)" style="fill: none; stroke: #000000; stroke-width: 2"/>
    <path d="M 100.829221 78.914907 
L 100.829221 77.833126 
" clip-path="url(#p6cc9fb5d23)" style="fill: none; stroke: #000000; stroke-width: 2"/>
    <path d="M 117.134416 79.467702 
L 117.134416 78.011021 
" clip-path="url(#p6cc9fb5d23)" style="fill: none; stroke: #000000; stroke-width: 2"/>
    <path d="M 133.43961 82.36429 
L 133.43961 80.63932 
" clip-path="url(#p6cc9fb5d23)" style="fill: none; stroke: #000000; stroke-width: 2"/>
    <path d="M 149.744805 91.783478 
L 149.744805 90.752103 
" clip-path="url(#p6cc9fb5d23)" style="fill: none; stroke: #000000; stroke-width: 2"/>
    <path d="M 166.05 108.304249 
L 166.05 107.318262 
" clip-path="url(#p6cc9fb5d23)" style="fill: none; stroke: #000000; stroke-width: 2"/>
    <path d="M 182.355195 130.642221 
L 182.355195 129.913837 
" clip-path="url(#p6cc9fb5d23)" style="fill: none; stroke: #000000; stroke-width: 2"/>
    <path d="M 198.66039 156.511798 
L 198.66039 156.231513 
" clip-path="url(#p6cc9fb5d23)" style="fill: none; stroke: #000000; stroke-width: 2"/>
    <path d="M 214.965584 183.473472 
L 214.965584 182.994602 
" clip-path="url(#p6cc9fb5d23)" style="fill: none; stroke: #000000; stroke-width: 2"/>
    <path d="M 231.270779 209.798758 
L 231.270779 209.531016 
" clip-path="url(#p6cc9fb5d23)" style="fill: none; stroke: #000000; stroke-width: 2"/>
    <path d="M 247.575974 232.977479 
L 247.575974 232.905417 
" clip-path="url(#p6cc9fb5d23)" style="fill: none; stroke: #000000; stroke-width: 2"/>
    <path d="M 263.881169 252.019223 
L 263.881169 251.913812 
" clip-path="url(#p6cc9fb5d23)" style="fill: none; stroke: #000000; stroke-width: 2"/>
    <path d="M 280.186364 265.521546 
L 280.186364 265.440605 
" clip-path="url(#p6cc9fb5d23)" style="fill: none; stroke: #000000; stroke-width: 2"/>
   </g>
   <g id="line2d_15">
    <defs>
     <path id="m1ce0980853" d="M 3 0 
L -3 -0 
" style="stroke: #000000; stroke-width: 2"/>
    </defs>
    <g clip-path="url(#p6cc9fb5d23)">
     <use xlink:href="#m1ce0980853" x="51.913636" y="63.633289" style="stroke: #000000; stroke-width: 2"/>
     <use xlink:href="#m1ce0980853" x="68.218831" y="71.07899" style="stroke: #000000; stroke-width: 2"/>
     <use xlink:href="#m1ce0980853" x="84.524026" y="76.154842" style="stroke: #000000; stroke-width: 2"/>
     <use xlink:href="#m1ce0980853" x="100.829221" y="78.914907" style="stroke: #000000; stroke-width: 2"/>
     <use xlink:href="#m1ce0980853" x="117.134416" y="79.467702" style="stroke: #000000; stroke-width: 2"/>
     <use xlink:href="#m1ce0980853" x="133.43961" y="82.36429" style="stroke: #000000; stroke-width: 2"/>
     <use xlink:href="#m1ce0980853" x="149.744805" y="91.783478" style="stroke: #000000; stroke-width: 2"/>
     <use xlink:href="#m1ce0980853" x="166.05" y="108.304249" style="stroke: #000000; stroke-width: 2"/>
     <use xlink:href="#m1ce0980853" x="182.355195" y="130.642221" style="stroke: #000000; stroke-width: 2"/>
     <use xlink:href="#m1ce0980853" x="198.66039" y="156.511798" style="stroke: #000000; stroke-width: 2"/>
     <use xlink:href="#m1ce0980853" x="214.965584" y="183.473472" style="stroke: #000000; stroke-width: 2"/>
     <use xlink:href="#m1ce0980853" x="231.270779" y="209.798758" style="stroke: #000000; stroke-width: 2"/>
     <use xlink:href="#m1ce0980853" x="247.575974" y="232.977479" style="stroke: #000000; stroke-width: 2"/>
     <use xlink:href="#m1ce0980853" x="263.881169" y="252.019223" style="stroke: #000000; stroke-width: 2"/>
     <use xlink:href="#m1ce0980853" x="280.186364" y="265.521546" style="stroke: #000000; stroke-width: 2"/>
    </g>
   </g>
   <g id="line2d_16">
    <g clip-path="url(#p6cc9fb5d23)">
     <use xlink:href="#m1ce0980853" x="51.913636" y="62.007975" style="stroke: #000000; stroke-width: 2"/>
     <use xlink:href="#m1ce0980853" x="68.218831" y="69.608777" style="stroke: #000000; stroke-width: 2"/>
     <use xlink:href="#m1ce0980853" x="84.524026" y="75.06103" style="stroke: #000000; stroke-width: 2"/>
     <use xlink:href="#m1ce0980853" x="100.829221" y="77.833126" style="stroke: #000000; stroke-width: 2"/>
     <use xlink:href="#m1ce0980853" x="117.134416" y="78.011021" style="stroke: #000000; stroke-width: 2"/>
     <use xlink:href="#m1ce0980853" x="133.43961" y="80.63932" style="stroke: #000000; stroke-width: 2"/>
     <use xlink:href="#m1ce0980853" x="149.744805" y="90.752103" style="stroke: #000000; stroke-width: 2"/>
     <use xlink:href="#m1ce0980853" x="166.05" y="107.318262" style="stroke: #000000; stroke-width: 2"/>
     <use xlink:href="#m1ce0980853" x="182.355195" y="129.913837" style="stroke: #000000; stroke-width: 2"/>
     <use xlink:href="#m1ce0980853" x="198.66039" y="156.231513" style="stroke: #000000; stroke-width: 2"/>
     <use xlink:href="#m1ce0980853" x="214.965584" y="182.994602" style="stroke: #000000; stroke-width: 2"/>
     <use xlink:href="#m1ce0980853" x="231.270779" y="209.531016" style="stroke: #000000; stroke-width: 2"/>
     <use xlink:href="#m1ce0980853" x="247.575974" y="232.905417" style="stroke: #000000; stroke-width: 2"/>
     <use xlink:href="#m1ce0980853" x="263.881169" y="251.913812" style="stroke: #000000; stroke-width: 2"/>
     <use xlink:href="#m1ce0980853" x="280.186364" y="265.440605" style="stroke: #000000; stroke-width: 2"/>
    </g>
   </g>
   <g id="line2d_17">
    <path d="M 51.913636 56.17396 
L 68.218831 65.910244 
L 84.524026 72.43586 
L 100.829221 74.968157 
L 117.134416 74.677418 
L 133.43961 77.785611 
L 149.744805 90.038012 
L 166.05 109.085762 
L 182.355195 134.545657 
L 198.66039 161.613469 
L 214.965584 189.388869 
L 231.270779 216.307431 
L 247.575974 240.320883 
L 263.881169 259.434152 
L 280.186364 272.174723 
" clip-path="url(#p6cc9fb5d23)" style="fill: none; stroke: #0000ff; stroke-width: 1.5; stroke-linecap: square"/>
   </g>
   <g id="LineCollection_3">
    <path d="M 51.913636 56.842841 
L 51.913636 55.505079 
" clip-path="url(#p6cc9fb5d23)" style="fill: none; stroke: #0000ff; stroke-width: 2"/>
    <path d="M 68.218831 66.162344 
L 68.218831 65.658143 
" clip-path="url(#p6cc9fb5d23)" style="fill: none; stroke: #0000ff; stroke-width: 2"/>
    <path d="M 84.524026 72.707023 
L 84.524026 72.164697 
" clip-path="url(#p6cc9fb5d23)" style="fill: none; stroke: #0000ff; stroke-width: 2"/>
    <path d="M 100.829221 75.440657 
L 100.829221 74.495658 
" clip-path="url(#p6cc9fb5d23)" style="fill: none; stroke: #0000ff; stroke-width: 2"/>
    <path d="M 117.134416 75.369044 
L 117.134416 73.985793 
" clip-path="url(#p6cc9fb5d23)" style="fill: none; stroke: #0000ff; stroke-width: 2"/>
    <path d="M 133.43961 78.076895 
L 133.43961 77.494327 
" clip-path="url(#p6cc9fb5d23)" style="fill: none; stroke: #0000ff; stroke-width: 2"/>
    <path d="M 149.744805 90.390322 
L 149.744805 89.685702 
" clip-path="url(#p6cc9fb5d23)" style="fill: none; stroke: #0000ff; stroke-width: 2"/>
    <path d="M 166.05 109.967934 
L 166.05 108.20359 
" clip-path="url(#p6cc9fb5d23)" style="fill: none; stroke: #0000ff; stroke-width: 2"/>
    <path d="M 182.355195 134.905914 
L 182.355195 134.185401 
" clip-path="url(#p6cc9fb5d23)" style="fill: none; stroke: #0000ff; stroke-width: 2"/>
    <path d="M 198.66039 161.926161 
L 198.66039 161.300778 
" clip-path="url(#p6cc9fb5d23)" style="fill: none; stroke: #0000ff; stroke-width: 2"/>
    <path d="M 214.965584 189.521602 
L 214.965584 189.256135 
" clip-path="url(#p6cc9fb5d23)" style="fill: none; stroke: #0000ff; stroke-width: 2"/>
    <path d="M 231.270779 216.412701 
L 231.270779 216.20216 
" clip-path="url(#p6cc9fb5d23)" style="fill: none; stroke: #0000ff; stroke-width: 2"/>
    <path d="M 247.575974 240.411891 
L 247.575974 240.229874 
" clip-path="url(#p6cc9fb5d23)" style="fill: none; stroke: #0000ff; stroke-width: 2"/>
    <path d="M 263.881169 259.511264 
L 263.881169 259.357039 
" clip-path="url(#p6cc9fb5d23)" style="fill: none; stroke: #0000ff; stroke-width: 2"/>
    <path d="M 280.186364 272.191477 
L 280.186364 272.157968 
" clip-path="url(#p6cc9fb5d23)" style="fill: none; stroke: #0000ff; stroke-width: 2"/>
   </g>
   <g id="line2d_18">
    <defs>
     <path id="m00f39ec3e7" d="M 3 0 
L -3 -0 
" style="stroke: #0000ff; stroke-width: 2"/>
    </defs>
    <g clip-path="url(#p6cc9fb5d23)">
     <use xlink:href="#m00f39ec3e7" x="51.913636" y="56.842841" style="fill: #0000ff; stroke: #0000ff; stroke-width: 2"/>
     <use xlink:href="#m00f39ec3e7" x="68.218831" y="66.162344" style="fill: #0000ff; stroke: #0000ff; stroke-width: 2"/>
     <use xlink:href="#m00f39ec3e7" x="84.524026" y="72.707023" style="fill: #0000ff; stroke: #0000ff; stroke-width: 2"/>
     <use xlink:href="#m00f39ec3e7" x="100.829221" y="75.440657" style="fill: #0000ff; stroke: #0000ff; stroke-width: 2"/>
     <use xlink:href="#m00f39ec3e7" x="117.134416" y="75.369044" style="fill: #0000ff; stroke: #0000ff; stroke-width: 2"/>
     <use xlink:href="#m00f39ec3e7" x="133.43961" y="78.076895" style="fill: #0000ff; stroke: #0000ff; stroke-width: 2"/>
     <use xlink:href="#m00f39ec3e7" x="149.744805" y="90.390322" style="fill: #0000ff; stroke: #0000ff; stroke-width: 2"/>
     <use xlink:href="#m00f39ec3e7" x="166.05" y="109.967934" style="fill: #0000ff; stroke: #0000ff; stroke-width: 2"/>
     <use xlink:href="#m00f39ec3e7" x="182.355195" y="134.905914" style="fill: #0000ff; stroke: #0000ff; stroke-width: 2"/>
     <use xlink:href="#m00f39ec3e7" x="198.66039" y="161.926161" style="fill: #0000ff; stroke: #0000ff; stroke-width: 2"/>
     <use xlink:href="#m00f39ec3e7" x="214.965584" y="189.521602" style="fill: #0000ff; stroke: #0000ff; stroke-width: 2"/>
     <use xlink:href="#m00f39ec3e7" x="231.270779" y="216.412701" style="fill: #0000ff; stroke: #0000ff; stroke-width: 2"/>
     <use xlink:href="#m00f39ec3e7" x="247.575974" y="240.411891" style="fill: #0000ff; stroke: #0000ff; stroke-width: 2"/>
     <use xlink:href="#m00f39ec3e7" x="263.881169" y="259.511264" style="fill: #0000ff; stroke: #0000ff; stroke-width: 2"/>
     <use xlink:href="#m00f39ec3e7" x="280.186364" y="272.191477" style="fill: #0000ff; stroke: #0000ff; stroke-width: 2"/>
    </g>
   </g>
   <g id="line2d_19">
    <g clip-path="url(#p6cc9fb5d23)">
     <use xlink:href="#m00f39ec3e7" x="51.913636" y="55.505079" style="fill: #0000ff; stroke: #0000ff; stroke-width: 2"/>
     <use xlink:href="#m00f39ec3e7" x="68.218831" y="65.658143" style="fill: #0000ff; stroke: #0000ff; stroke-width: 2"/>
     <use xlink:href="#m00f39ec3e7" x="84.524026" y="72.164697" style="fill: #0000ff; stroke: #0000ff; stroke-width: 2"/>
     <use xlink:href="#m00f39ec3e7" x="100.829221" y="74.495658" style="fill: #0000ff; stroke: #0000ff; stroke-width: 2"/>
     <use xlink:href="#m00f39ec3e7" x="117.134416" y="73.985793" style="fill: #0000ff; stroke: #0000ff; stroke-width: 2"/>
     <use xlink:href="#m00f39ec3e7" x="133.43961" y="77.494327" style="fill: #0000ff; stroke: #0000ff; stroke-width: 2"/>
     <use xlink:href="#m00f39ec3e7" x="149.744805" y="89.685702" style="fill: #0000ff; stroke: #0000ff; stroke-width: 2"/>
     <use xlink:href="#m00f39ec3e7" x="166.05" y="108.20359" style="fill: #0000ff; stroke: #0000ff; stroke-width: 2"/>
     <use xlink:href="#m00f39ec3e7" x="182.355195" y="134.185401" style="fill: #0000ff; stroke: #0000ff; stroke-width: 2"/>
     <use xlink:href="#m00f39ec3e7" x="198.66039" y="161.300778" style="fill: #0000ff; stroke: #0000ff; stroke-width: 2"/>
     <use xlink:href="#m00f39ec3e7" x="214.965584" y="189.256135" style="fill: #0000ff; stroke: #0000ff; stroke-width: 2"/>
     <use xlink:href="#m00f39ec3e7" x="231.270779" y="216.20216" style="fill: #0000ff; stroke: #0000ff; stroke-width: 2"/>
     <use xlink:href="#m00f39ec3e7" x="247.575974" y="240.229874" style="fill: #0000ff; stroke: #0000ff; stroke-width: 2"/>
     <use xlink:href="#m00f39ec3e7" x="263.881169" y="259.357039" style="fill: #0000ff; stroke: #0000ff; stroke-width: 2"/>
     <use xlink:href="#m00f39ec3e7" x="280.186364" y="272.157968" style="fill: #0000ff; stroke: #0000ff; stroke-width: 2"/>
    </g>
   </g>
   <g id="line2d_20">
    <path d="M 51.913636 51.203791 
L 68.218831 62.057117 
L 84.524026 70.099326 
L 100.829221 71.481953 
L 117.134416 71.887338 
L 133.43961 76.90569 
L 149.744805 87.145311 
L 166.05 110.745123 
L 182.355195 137.039233 
L 198.66039 166.439638 
L 214.965584 195.556909 
L 231.270779 222.329899 
L 247.575974 246.416018 
L 263.881169 264.917811 
L 280.186364 276.997523 
" clip-path="url(#p6cc9fb5d23)" style="fill: none; stroke: #bf00bf; stroke-width: 1.5; stroke-linecap: square"/>
   </g>
   <g id="LineCollection_4">
    <path d="M 51.913636 52.187581 
L 51.913636 50.22 
" clip-path="url(#p6cc9fb5d23)" style="fill: none; stroke: #bf00bf; stroke-width: 2"/>
    <path d="M 68.218831 62.429677 
L 68.218831 61.684556 
" clip-path="url(#p6cc9fb5d23)" style="fill: none; stroke: #bf00bf; stroke-width: 2"/>
    <path d="M 84.524026 70.591386 
L 84.524026 69.607265 
" clip-path="url(#p6cc9fb5d23)" style="fill: none; stroke: #bf00bf; stroke-width: 2"/>
    <path d="M 100.829221 72.339446 
L 100.829221 70.62446 
" clip-path="url(#p6cc9fb5d23)" style="fill: none; stroke: #bf00bf; stroke-width: 2"/>
    <path d="M 117.134416 72.667217 
L 117.134416 71.107458 
" clip-path="url(#p6cc9fb5d23)" style="fill: none; stroke: #bf00bf; stroke-width: 2"/>
    <path d="M 133.43961 77.400986 
L 133.43961 76.410394 
" clip-path="url(#p6cc9fb5d23)" style="fill: none; stroke: #bf00bf; stroke-width: 2"/>
    <path d="M 149.744805 87.641521 
L 149.744805 86.649101 
" clip-path="url(#p6cc9fb5d23)" style="fill: none; stroke: #bf00bf; stroke-width: 2"/>
    <path d="M 166.05 111.157792 
L 166.05 110.332454 
" clip-path="url(#p6cc9fb5d23)" style="fill: none; stroke: #bf00bf; stroke-width: 2"/>
    <path d="M 182.355195 137.455866 
L 182.355195 136.622601 
" clip-path="url(#p6cc9fb5d23)" style="fill: none; stroke: #bf00bf; stroke-width: 2"/>
    <path d="M 198.66039 166.876855 
L 198.66039 166.002422 
" clip-path="url(#p6cc9fb5d23)" style="fill: none; stroke: #bf00bf; stroke-width: 2"/>
    <path d="M 214.965584 195.750915 
L 214.965584 195.362904 
" clip-path="url(#p6cc9fb5d23)" style="fill: none; stroke: #bf00bf; stroke-width: 2"/>
    <path d="M 231.270779 222.473825 
L 231.270779 222.185972 
" clip-path="url(#p6cc9fb5d23)" style="fill: none; stroke: #bf00bf; stroke-width: 2"/>
    <path d="M 247.575974 246.504704 
L 247.575974 246.327332 
" clip-path="url(#p6cc9fb5d23)" style="fill: none; stroke: #bf00bf; stroke-width: 2"/>
    <path d="M 263.881169 264.975913 
L 263.881169 264.859709 
" clip-path="url(#p6cc9fb5d23)" style="fill: none; stroke: #bf00bf; stroke-width: 2"/>
    <path d="M 280.186364 277.02 
L 280.186364 276.975047 
" clip-path="url(#p6cc9fb5d23)" style="fill: none; stroke: #bf00bf; stroke-width: 2"/>
   </g>
   <g id="line2d_21">
    <defs>
     <path id="m4f03b1d79a" d="M 3 0 
L -3 -0 
" style="stroke: #bf00bf; stroke-width: 2"/>
    </defs>
    <g clip-path="url(#p6cc9fb5d23)">
     <use xlink:href="#m4f03b1d79a" x="51.913636" y="52.187581" style="fill: #bf00bf; stroke: #bf00bf; stroke-width: 2"/>
     <use xlink:href="#m4f03b1d79a" x="68.218831" y="62.429677" style="fill: #bf00bf; stroke: #bf00bf; stroke-width: 2"/>
     <use xlink:href="#m4f03b1d79a" x="84.524026" y="70.591386" style="fill: #bf00bf; stroke: #bf00bf; stroke-width: 2"/>
     <use xlink:href="#m4f03b1d79a" x="100.829221" y="72.339446" style="fill: #bf00bf; stroke: #bf00bf; stroke-width: 2"/>
     <use xlink:href="#m4f03b1d79a" x="117.134416" y="72.667217" style="fill: #bf00bf; stroke: #bf00bf; stroke-width: 2"/>
     <use xlink:href="#m4f03b1d79a" x="133.43961" y="77.400986" style="fill: #bf00bf; stroke: #bf00bf; stroke-width: 2"/>
     <use xlink:href="#m4f03b1d79a" x="149.744805" y="87.641521" style="fill: #bf00bf; stroke: #bf00bf; stroke-width: 2"/>
     <use xlink:href="#m4f03b1d79a" x="166.05" y="111.157792" style="fill: #bf00bf; stroke: #bf00bf; stroke-width: 2"/>
     <use xlink:href="#m4f03b1d79a" x="182.355195" y="137.455866" style="fill: #bf00bf; stroke: #bf00bf; stroke-width: 2"/>
     <use xlink:href="#m4f03b1d79a" x="198.66039" y="166.876855" style="fill: #bf00bf; stroke: #bf00bf; stroke-width: 2"/>
     <use xlink:href="#m4f03b1d79a" x="214.965584" y="195.750915" style="fill: #bf00bf; stroke: #bf00bf; stroke-width: 2"/>
     <use xlink:href="#m4f03b1d79a" x="231.270779" y="222.473825" style="fill: #bf00bf; stroke: #bf00bf; stroke-width: 2"/>
     <use xlink:href="#m4f03b1d79a" x="247.575974" y="246.504704" style="fill: #bf00bf; stroke: #bf00bf; stroke-width: 2"/>
     <use xlink:href="#m4f03b1d79a" x="263.881169" y="264.975913" style="fill: #bf00bf; stroke: #bf00bf; stroke-width: 2"/>
     <use xlink:href="#m4f03b1d79a" x="280.186364" y="277.02" style="fill: #bf00bf; stroke: #bf00bf; stroke-width: 2"/>
    </g>
   </g>
   <g id="line2d_22">
    <g clip-path="url(#p6cc9fb5d23)">
     <use xlink:href="#m4f03b1d79a" x="51.913636" y="50.22" style="fill: #bf00bf; stroke: #bf00bf; stroke-width: 2"/>
     <use xlink:href="#m4f03b1d79a" x="68.218831" y="61.684556" style="fill: #bf00bf; stroke: #bf00bf; stroke-width: 2"/>
     <use xlink:href="#m4f03b1d79a" x="84.524026" y="69.607265" style="fill: #bf00bf; stroke: #bf00bf; stroke-width: 2"/>
     <use xlink:href="#m4f03b1d79a" x="100.829221" y="70.62446" style="fill: #bf00bf; stroke: #bf00bf; stroke-width: 2"/>
     <use xlink:href="#m4f03b1d79a" x="117.134416" y="71.107458" style="fill: #bf00bf; stroke: #bf00bf; stroke-width: 2"/>
     <use xlink:href="#m4f03b1d79a" x="133.43961" y="76.410394" style="fill: #bf00bf; stroke: #bf00bf; stroke-width: 2"/>
     <use xlink:href="#m4f03b1d79a" x="149.744805" y="86.649101" style="fill: #bf00bf; stroke: #bf00bf; stroke-width: 2"/>
     <use xlink:href="#m4f03b1d79a" x="166.05" y="110.332454" style="fill: #bf00bf; stroke: #bf00bf; stroke-width: 2"/>
     <use xlink:href="#m4f03b1d79a" x="182.355195" y="136.622601" style="fill: #bf00bf; stroke: #bf00bf; stroke-width: 2"/>
     <use xlink:href="#m4f03b1d79a" x="198.66039" y="166.002422" style="fill: #bf00bf; stroke: #bf00bf; stroke-width: 2"/>
     <use xlink:href="#m4f03b1d79a" x="214.965584" y="195.362904" style="fill: #bf00bf; stroke: #bf00bf; stroke-width: 2"/>
     <use xlink:href="#m4f03b1d79a" x="231.270779" y="222.185972" style="fill: #bf00bf; stroke: #bf00bf; stroke-width: 2"/>
     <use xlink:href="#m4f03b1d79a" x="247.575974" y="246.327332" style="fill: #bf00bf; stroke: #bf00bf; stroke-width: 2"/>
     <use xlink:href="#m4f03b1d79a" x="263.881169" y="264.859709" style="fill: #bf00bf; stroke: #bf00bf; stroke-width: 2"/>
     <use xlink:href="#m4f03b1d79a" x="280.186364" y="276.975047" style="fill: #bf00bf; stroke: #bf00bf; stroke-width: 2"/>
    </g>
   </g>
   <g id="line2d_23">
    <path d="M 51.913636 67.443279 
L 68.218831 74.715736 
L 84.524026 80.545871 
L 100.829221 80.968376 
L 117.134416 82.419796 
L 133.43961 83.472222 
L 149.744805 90.938674 
L 166.05 107.328811 
L 182.355195 130.149688 
L 198.66039 152.877526 
L 214.965584 177.144081 
L 231.270779 200.563639 
L 247.575974 221.4684 
L 263.881169 240.477256 
L 280.186364 255.976979 
" clip-path="url(#p6cc9fb5d23)" style="fill: none; stroke: #ff0000; stroke-width: 1.5; stroke-linecap: square"/>
   </g>
   <g id="line2d_24">
    <path d="M 51.913636 62.820632 
L 68.218831 70.343883 
L 84.524026 75.607936 
L 100.829221 78.374016 
L 117.134416 78.739362 
L 133.43961 81.501805 
L 149.744805 91.267791 
L 166.05 107.811256 
L 182.355195 130.278029 
L 198.66039 156.371656 
L 214.965584 183.234037 
L 231.270779 209.664887 
L 247.575974 232.941448 
L 263.881169 251.966517 
L 280.186364 265.481075 
" clip-path="url(#p6cc9fb5d23)" style="fill: none; stroke: #000000; stroke-width: 1.5; stroke-linecap: square"/>
   </g>
   <g id="line2d_25">
    <path d="M 51.913636 56.17396 
L 68.218831 65.910244 
L 84.524026 72.43586 
L 100.829221 74.968157 
L 117.134416 74.677418 
L 133.43961 77.785611 
L 149.744805 90.038012 
L 166.05 109.085762 
L 182.355195 134.545657 
L 198.66039 161.613469 
L 214.965584 189.388869 
L 231.270779 216.307431 
L 247.575974 240.320883 
L 263.881169 259.434152 
L 280.186364 272.174723 
" clip-path="url(#p6cc9fb5d23)" style="fill: none; stroke: #0000ff; stroke-width: 1.5; stroke-linecap: square"/>
   </g>
   <g id="line2d_26">
    <path d="M 51.913636 51.203791 
L 68.218831 62.057117 
L 84.524026 70.099326 
L 100.829221 71.481953 
L 117.134416 71.887338 
L 133.43961 76.90569 
L 149.744805 87.145311 
L 166.05 110.745123 
L 182.355195 137.039233 
L 198.66039 166.439638 
L 214.965584 195.556909 
L 231.270779 222.329899 
L 247.575974 246.416018 
L 263.881169 264.917811 
L 280.186364 276.997523 
" clip-path="url(#p6cc9fb5d23)" style="fill: none; stroke: #bf00bf; stroke-width: 1.5; stroke-linecap: square"/>
   </g>
   <g id="patch_3">
    <path d="M 40.5 288.36 
L 40.5 38.88 
" style="fill: none; stroke: #000000; stroke-width: 1.6; stroke-linejoin: miter; stroke-linecap: square"/>
   </g>
   <g id="patch_4">
    <path d="M 291.6 288.36 
L 291.6 38.88 
" style="fill: none; stroke: #000000; stroke-width: 1.6; stroke-linejoin: miter; stroke-linecap: square"/>
   </g>
   <g id="patch_5">
    <path d="M 40.5 288.36 
L 291.6 288.36 
" style="fill: none; stroke: #000000; stroke-width: 1.6; stroke-linejoin: miter; stroke-linecap: square"/>
   </g>
   <g id="patch_6">
    <path d="M 40.5 38.88 
L 291.6 38.88 
" style="fill: none; stroke: #000000; stroke-width: 1.6; stroke-linejoin: miter; stroke-linecap: square"/>
   </g>
   <g id="legend_1">
    <g id="patch_7">
     <path d="M 209.120625 118.935 
L 283.2 118.935 
Q 285.6 118.935 285.6 116.535 
L 285.6 47.28 
Q 285.6 44.88 283.2 44.88 
L 209.120625 44.88 
Q 206.720625 44.88 206.720625 47.28 
L 206.720625 116.535 
Q 206.720625 118.935 209.120625 118.935 
z
" style="fill: #ffffff; opacity: 0.8"/>
    </g>
    <g id="LineCollection_5">
     <path d="M 223.520625 60.598125 
L 223.520625 48.598125 
" style="fill: none; stroke: #ff0000; stroke-width: 2"/>
    </g>
    <g id="line2d_27">
     <g>
      <use xlink:href="#mb039982f0a" x="223.520625" y="60.598125" style="fill: #ff0000; stroke: #ff0000; stroke-width: 2"/>
     </g>
    </g>
    <g id="line2d_28">
     <g>
      <use xlink:href="#mb039982f0a" x="223.520625" y="48.598125" style="fill: #ff0000; stroke: #ff0000; stroke-width: 2"/>
     </g>
    </g>
    <g id="line2d_29">
     <path d="M 211.520625 54.598125 
L 235.520625 54.598125 
" style="fill: none; stroke: #ff0000; stroke-width: 1.5; stroke-linecap: square"/>
    </g>
    <g id="line2d_30"/>
    <g id="text_11">
     <!-- M=8 -->
     <g transform="translate(245.120625 58.798125) scale(0.12 -0.12)">
      <defs>
       <path id="DejaVuSans-4d" d="M 628 4666 
L 1569 4666 
L 2759 1491 
L 3956 4666 
L 4897 4666 
L 4897 0 
L 4281 0 
L 4281 4097 
L 3078 897 
L 2444 897 
L 1241 4097 
L 1241 0 
L 628 0 
L 628 4666 
z
" transform="scale(0.015625)"/>
       <path id="DejaVuSans-3d" d="M 678 2906 
L 4684 2906 
L 4684 2381 
L 678 2381 
L 678 2906 
z
M 678 1631 
L 4684 1631 
L 4684 1100 
L 678 1100 
L 678 1631 
z
" transform="scale(0.015625)"/>
      </defs>
      <use xlink:href="#DejaVuSans-4d"/>
      <use xlink:href="#DejaVuSans-3d" x="86.279297"/>
      <use xlink:href="#DejaVuSans-38" x="170.068359"/>
     </g>
    </g>
    <g id="LineCollection_6">
     <path d="M 223.520625 78.211875 
L 223.520625 66.211875 
" style="fill: none; stroke: #000000; stroke-width: 2"/>
    </g>
    <g id="line2d_31">
     <g>
      <use xlink:href="#m1ce0980853" x="223.520625" y="78.211875" style="stroke: #000000; stroke-width: 2"/>
     </g>
    </g>
    <g id="line2d_32">
     <g>
      <use xlink:href="#m1ce0980853" x="223.520625" y="66.211875" style="stroke: #000000; stroke-width: 2"/>
     </g>
    </g>
    <g id="line2d_33">
     <path d="M 211.520625 72.211875 
L 235.520625 72.211875 
" style="fill: none; stroke: #000000; stroke-width: 1.5; stroke-linecap: square"/>
    </g>
    <g id="line2d_34"/>
    <g id="text_12">
     <!-- M=10 -->
     <g transform="translate(245.120625 76.411875) scale(0.12 -0.12)">
      <use xlink:href="#DejaVuSans-4d"/>
      <use xlink:href="#DejaVuSans-3d" x="86.279297"/>
      <use xlink:href="#DejaVuSans-31" x="170.068359"/>
      <use xlink:href="#DejaVuSans-30" x="233.691406"/>
     </g>
    </g>
    <g id="LineCollection_7">
     <path d="M 223.520625 95.825625 
L 223.520625 83.825625 
" style="fill: none; stroke: #0000ff; stroke-width: 2"/>
    </g>
    <g id="line2d_35">
     <g>
      <use xlink:href="#m00f39ec3e7" x="223.520625" y="95.825625" style="fill: #0000ff; stroke: #0000ff; stroke-width: 2"/>
     </g>
    </g>
    <g id="line2d_36">
     <g>
      <use xlink:href="#m00f39ec3e7" x="223.520625" y="83.825625" style="fill: #0000ff; stroke: #0000ff; stroke-width: 2"/>
     </g>
    </g>
    <g id="line2d_37">
     <path d="M 211.520625 89.825625 
L 235.520625 89.825625 
" style="fill: none; stroke: #0000ff; stroke-width: 1.5; stroke-linecap: square"/>
    </g>
    <g id="line2d_38"/>
    <g id="text_13">
     <!-- M=12 -->
     <g transform="translate(245.120625 94.025625) scale(0.12 -0.12)">
      <use xlink:href="#DejaVuSans-4d"/>
      <use xlink:href="#DejaVuSans-3d" x="86.279297"/>
      <use xlink:href="#DejaVuSans-31" x="170.068359"/>
      <use xlink:href="#DejaVuSans-32" x="233.691406"/>
     </g>
    </g>
    <g id="LineCollection_8">
     <path d="M 223.520625 113.439375 
L 223.520625 101.439375 
" style="fill: none; stroke: #bf00bf; stroke-width: 2"/>
    </g>
    <g id="line2d_39">
     <g>
      <use xlink:href="#m4f03b1d79a" x="223.520625" y="113.439375" style="fill: #bf00bf; stroke: #bf00bf; stroke-width: 2"/>
     </g>
    </g>
    <g id="line2d_40">
     <g>
      <use xlink:href="#m4f03b1d79a" x="223.520625" y="101.439375" style="fill: #bf00bf; stroke: #bf00bf; stroke-width: 2"/>
     </g>
    </g>
    <g id="line2d_41">
     <path d="M 211.520625 107.439375 
L 235.520625 107.439375 
" style="fill: none; stroke: #bf00bf; stroke-width: 1.5; stroke-linecap: square"/>
    </g>
    <g id="line2d_42"/>
    <g id="text_14">
     <!-- M=14 -->
     <g transform="translate(245.120625 111.639375) scale(0.12 -0.12)">
      <use xlink:href="#DejaVuSans-4d"/>
      <use xlink:href="#DejaVuSans-3d" x="86.279297"/>
      <use xlink:href="#DejaVuSans-31" x="170.068359"/>
      <use xlink:href="#DejaVuSans-34" x="233.691406"/>
     </g>
    </g>
   </g>
  </g>
 </g>
 <defs>
  <clipPath id="p6cc9fb5d23">
   <rect x="40.5" y="38.88" width="251.1" height="249.48"/>
  </clipPath>
 </defs>
</svg>
