<?xml version="1.0" encoding="utf-8" standalone="no"?>
<!DOCTYPE svg PUBLIC "-//W3C//DTD SVG 1.1//EN"
  "http://www.w3.org/Graphics/SVG/1.1/DTD/svg11.dtd">
<svg xmlns:xlink="http://www.w3.org/1999/xlink" width="324pt" height="324pt" viewBox="0 0 324 324" xmlns="http://www.w3.org/2000/svg" version="1.1">
 <metadata>
  <rdf:RDF xmlns:dc="http://purl.org/dc/elements/1.1/" xmlns:cc="http://creativecommons.org/ns#" xmlns:rdf="http://www.w3.org/1999/02/22-rdf-syntax-ns#">
   <cc:Work>
    <dc:type rdf:resource="http://purl.org/dc/dcmitype/StillImage"/>
    <dc:date>2026-01-08T17:00:29.376847</dc:date>
    <dc:format>image/svg+xml</dc:format>
    <dc:creator>
     <cc:Agent>
      <dc:title>Matplotlib v3.8.0, https://matplotlib.org/</dc:title>
     </cc:Agent>
    </dc:creator>
   </cc:Work>
  </rdf:RDF>
 </metadata>
 <defs>
  <style type="text/css">*{stroke-linejoin: round; stroke-linecap: butt}</style>
 </defs>
 <g id="figure_1">
  <g id="patch_1">
   <path d="M 0 324 
L 324 324 
L 324 0 
L 0 0 
z
" style="fill: #ffffff"/>
  </g>
  <g id="axes_1">
   <g id="patch_2">
    <path d="M 40.5 288.36 
L 291.6 288.36 
L 291.6 38.88 
L 40.5 38.88 
z
" style="fill: #ffffff"/>
   </g>
   <g id="matplotlib.axis_1">
    <g id="xtick_1">
     <g id="line2d_1">
      <defs>
       <path id="m6571eabe87" d="M 0 0 
L 0 8 
" style="stroke: #000000; stroke-width: 1.5"/>
      </defs>
      <g>
       <use xlink:href="#m6571eabe87" x="51.913636" y="288.36" style="stroke: #000000; stroke-width: 1.5"/>
      </g>
     </g>
     <g id="text_1">
      <!-- 1.0 -->
      <g transform="translate(42.371761 308.978125) scale(0.12 -0.12)">
       <defs>
        <path id="DejaVuSans-31" d="M 794 531 
L 1825 531 
L 1825 4091 
L 703 3866 
L 703 4441 
L 1819 4666 
L 2450 4666 
L 2450 531 
L 3481 531 
L 3481 0 
L 794 0 
L 794 531 
z
" transform="scale(0.015625)"/>
        <path id="DejaVuSans-2e" d="M 684 794 
L 1344 794 
L 1344 0 
L 684 0 
L 684 794 
z
" transform="scale(0.015625)"/>
        <path id="DejaVuSans-30" d="M 2034 4250 
Q 1547 4250 1301 3770 
Q 1056 3291 1056 2328 
Q 1056 1369 1301 889 
Q 1547 409 2034 409 
Q 2525 409 2770 889 
Q 3016 1369 3016 2328 
Q 3016 3291 2770 3770 
Q 2525 4250 2034 4250 
z
M 2034 4750 
Q 2819 4750 3233 4129 
Q 3647 3509 3647 2328 
Q 3647 1150 3233 529 
Q 2819 -91 2034 -91 
Q 1250 -91 836 529 
Q 422 1150 422 2328 
Q 422 3509 836 4129 
Q 1250 4750 2034 4750 
z
" transform="scale(0.015625)"/>
       </defs>
       <use xlink:href="#DejaVuSans-31"/>
       <use xlink:href="#DejaVuSans-2e" x="63.623047"/>
       <use xlink:href="#DejaVuSans-30" x="95.410156"/>
      </g>
     </g>
    </g>
    <g id="xtick_2">
     <g id="line2d_2">
      <g>
       <use xlink:href="#m6571eabe87" x="103.793802" y="288.36" style="stroke: #000000; stroke-width: 1.5"/>
      </g>
     </g>
     <g id="text_2">
      <!-- 1.5 -->
      <g transform="translate(94.251927 308.978125) scale(0.12 -0.12)">
       <defs>
        <path id="DejaVuSans-35" d="M 691 4666 
L 3169 4666 
L 3169 4134 
L 1269 4134 
L 1269 2991 
Q 1406 3038 1543 3061 
Q 1681 3084 1819 3084 
Q 2600 3084 3056 2656 
Q 3513 2228 3513 1497 
Q 3513 744 3044 326 
Q 2575 -91 1722 -91 
Q 1428 -91 1123 -41 
Q 819 9 494 109 
L 494 744 
Q 775 591 1075 516 
Q 1375 441 1709 441 
Q 2250 441 2565 725 
Q 2881 1009 2881 1497 
Q 2881 1984 2565 2268 
Q 2250 2553 1709 2553 
Q 1456 2553 1204 2497 
Q 953 2441 691 2322 
L 691 4666 
z
" transform="scale(0.015625)"/>
       </defs>
       <use xlink:href="#DejaVuSans-31"/>
       <use xlink:href="#DejaVuSans-2e" x="63.623047"/>
       <use xlink:href="#DejaVuSans-35" x="95.410156"/>
      </g>
     </g>
    </g>
    <g id="xtick_3">
     <g id="line2d_3">
      <g>
       <use xlink:href="#m6571eabe87" x="155.673967" y="288.36" style="stroke: #000000; stroke-width: 1.5"/>
      </g>
     </g>
     <g id="text_3">
      <!-- 2.0 -->
      <g transform="translate(146.132092 308.978125) scale(0.12 -0.12)">
       <defs>
        <path id="DejaVuSans-32" d="M 1228 531 
L 3431 531 
L 3431 0 
L 469 0 
L 469 531 
Q 828 903 1448 1529 
Q 2069 2156 2228 2338 
Q 2531 2678 2651 2914 
Q 2772 3150 2772 3378 
Q 2772 3750 2511 3984 
Q 2250 4219 1831 4219 
Q 1534 4219 1204 4116 
Q 875 4013 500 3803 
L 500 4441 
Q 881 4594 1212 4672 
Q 1544 4750 1819 4750 
Q 2544 4750 2975 4387 
Q 3406 4025 3406 3419 
Q 3406 3131 3298 2873 
Q 3191 2616 2906 2266 
Q 2828 2175 2409 1742 
Q 1991 1309 1228 531 
z
" transform="scale(0.015625)"/>
       </defs>
       <use xlink:href="#DejaVuSans-32"/>
       <use xlink:href="#DejaVuSans-2e" x="63.623047"/>
       <use xlink:href="#DejaVuSans-30" x="95.410156"/>
      </g>
     </g>
    </g>
    <g id="xtick_4">
     <g id="line2d_4">
      <g>
       <use xlink:href="#m6571eabe87" x="207.554132" y="288.36" style="stroke: #000000; stroke-width: 1.5"/>
      </g>
     </g>
     <g id="text_4">
      <!-- 2.5 -->
      <g transform="translate(198.012257 308.978125) scale(0.12 -0.12)">
       <use xlink:href="#DejaVuSans-32"/>
       <use xlink:href="#DejaVuSans-2e" x="63.623047"/>
       <use xlink:href="#DejaVuSans-35" x="95.410156"/>
      </g>
     </g>
    </g>
    <g id="xtick_5">
     <g id="line2d_5">
      <g>
       <use xlink:href="#m6571eabe87" x="259.434298" y="288.36" style="stroke: #000000; stroke-width: 1.5"/>
      </g>
     </g>
     <g id="text_5">
      <!-- 3.0 -->
      <g transform="translate(249.892423 308.978125) scale(0.12 -0.12)">
       <defs>
        <path id="DejaVuSans-33" d="M 2597 2516 
Q 3050 2419 3304 2112 
Q 3559 1806 3559 1356 
Q 3559 666 3084 287 
Q 2609 -91 1734 -91 
Q 1441 -91 1130 -33 
Q 819 25 488 141 
L 488 750 
Q 750 597 1062 519 
Q 1375 441 1716 441 
Q 2309 441 2620 675 
Q 2931 909 2931 1356 
Q 2931 1769 2642 2001 
Q 2353 2234 1838 2234 
L 1294 2234 
L 1294 2753 
L 1863 2753 
Q 2328 2753 2575 2939 
Q 2822 3125 2822 3475 
Q 2822 3834 2567 4026 
Q 2313 4219 1838 4219 
Q 1578 4219 1281 4162 
Q 984 4106 628 3988 
L 628 4550 
Q 988 4650 1302 4700 
Q 1616 4750 1894 4750 
Q 2613 4750 3031 4423 
Q 3450 4097 3450 3541 
Q 3450 3153 3228 2886 
Q 3006 2619 2597 2516 
z
" transform="scale(0.015625)"/>
       </defs>
       <use xlink:href="#DejaVuSans-33"/>
       <use xlink:href="#DejaVuSans-2e" x="63.623047"/>
       <use xlink:href="#DejaVuSans-30" x="95.410156"/>
      </g>
     </g>
    </g>
   </g>
   <g id="matplotlib.axis_2">
    <g id="ytick_1">
     <g id="line2d_6">
      <defs>
       <path id="m20ea686649" d="M 0 0 
L -8 0 
" style="stroke: #000000; stroke-width: 1.5"/>
      </defs>
      <g>
       <use xlink:href="#m20ea686649" x="40.5" y="239.898134" style="stroke: #000000; stroke-width: 1.5"/>
      </g>
     </g>
     <g id="text_6">
      <!-- 1 -->
      <g transform="translate(21.365 244.457197) scale(0.12 -0.12)">
       <use xlink:href="#DejaVuSans-31"/>
      </g>
     </g>
    </g>
    <g id="ytick_2">
     <g id="line2d_7">
      <g>
       <use xlink:href="#m20ea686649" x="40.5" y="172.89209" style="stroke: #000000; stroke-width: 1.5"/>
      </g>
     </g>
     <g id="text_7">
      <!-- 2 -->
      <g transform="translate(21.365 177.451152) scale(0.12 -0.12)">
       <use xlink:href="#DejaVuSans-32"/>
      </g>
     </g>
    </g>
    <g id="ytick_3">
     <g id="line2d_8">
      <g>
       <use xlink:href="#m20ea686649" x="40.5" y="105.886045" style="stroke: #000000; stroke-width: 1.5"/>
      </g>
     </g>
     <g id="text_8">
      <!-- 3 -->
      <g transform="translate(21.365 110.445107) scale(0.12 -0.12)">
       <use xlink:href="#DejaVuSans-33"/>
      </g>
     </g>
    </g>
    <g id="ytick_4">
     <g id="line2d_9">
      <g>
       <use xlink:href="#m20ea686649" x="40.5" y="38.88" style="stroke: #000000; stroke-width: 1.5"/>
      </g>
     </g>
     <g id="text_9">
      <!-- 4 -->
      <g transform="translate(21.365 43.439062) scale(0.12 -0.12)">
       <defs>
        <path id="DejaVuSans-34" d="M 2419 4116 
L 825 1625 
L 2419 1625 
L 2419 4116 
z
M 2253 4666 
L 3047 4666 
L 3047 1625 
L 3713 1625 
L 3713 1100 
L 3047 1100 
L 3047 0 
L 2419 0 
L 2419 1100 
L 313 1100 
L 313 1709 
L 2253 4666 
z
" transform="scale(0.015625)"/>
       </defs>
       <use xlink:href="#DejaVuSans-34"/>
      </g>
     </g>
    </g>
   </g>
   <g id="line2d_10">
    <path d="M 51.913636 140.212507 
L 72.665702 154.668324 
L 93.417769 168.629147 
L 114.169835 180.211877 
L 134.921901 190.782028 
L 155.673967 199.860317 
L 176.426033 208.510036 
L 197.178099 217.031667 
L 217.930165 224.829038 
L 238.682231 231.521114 
L 259.434298 236.299776 
L 280.186364 242.049586 
" clip-path="url(#p0f6eecd3c6)" style="fill: none; stroke: #ff0000; stroke-width: 1.5; stroke-linecap: square"/>
   </g>
   <g id="LineCollection_1">
    <path d="M 51.913636 141.618151 
L 51.913636 138.806862 
" clip-path="url(#p0f6eecd3c6)" style="fill: none; stroke: #ff0000; stroke-width: 2"/>
    <path d="M 72.665702 155.376847 
L 72.665702 153.959801 
" clip-path="url(#p0f6eecd3c6)" style="fill: none; stroke: #ff0000; stroke-width: 2"/>
    <path d="M 93.417769 168.860453 
L 93.417769 168.397841 
" clip-path="url(#p0f6eecd3c6)" style="fill: none; stroke: #ff0000; stroke-width: 2"/>
    <path d="M 114.169835 180.559844 
L 114.169835 179.863911 
" clip-path="url(#p0f6eecd3c6)" style="fill: none; stroke: #ff0000; stroke-width: 2"/>
    <path d="M 134.921901 191.372091 
L 134.921901 190.191965 
" clip-path="url(#p0f6eecd3c6)" style="fill: none; stroke: #ff0000; stroke-width: 2"/>
    <path d="M 155.673967 200.649117 
L 155.673967 199.071518 
" clip-path="url(#p0f6eecd3c6)" style="fill: none; stroke: #ff0000; stroke-width: 2"/>
    <path d="M 176.426033 208.959521 
L 176.426033 208.060551 
" clip-path="url(#p0f6eecd3c6)" style="fill: none; stroke: #ff0000; stroke-width: 2"/>
    <path d="M 197.178099 217.367017 
L 197.178099 216.696317 
" clip-path="url(#p0f6eecd3c6)" style="fill: none; stroke: #ff0000; stroke-width: 2"/>
    <path d="M 217.930165 225.23242 
L 217.930165 224.425656 
" clip-path="url(#p0f6eecd3c6)" style="fill: none; stroke: #ff0000; stroke-width: 2"/>
    <path d="M 238.682231 231.67163 
L 238.682231 231.370598 
" clip-path="url(#p0f6eecd3c6)" style="fill: none; stroke: #ff0000; stroke-width: 2"/>
    <path d="M 259.434298 236.686453 
L 259.434298 235.913099 
" clip-path="url(#p0f6eecd3c6)" style="fill: none; stroke: #ff0000; stroke-width: 2"/>
    <path d="M 280.186364 242.342327 
L 280.186364 241.756846 
" clip-path="url(#p0f6eecd3c6)" style="fill: none; stroke: #ff0000; stroke-width: 2"/>
   </g>
   <g id="line2d_11">
    <defs>
     <path id="mc28f42308a" d="M 3 0 
L -3 -0 
" style="stroke: #ff0000; stroke-width: 2"/>
    </defs>
    <g clip-path="url(#p0f6eecd3c6)">
     <use xlink:href="#mc28f42308a" x="51.913636" y="141.618151" style="fill: #ff0000; stroke: #ff0000; stroke-width: 2"/>
     <use xlink:href="#mc28f42308a" x="72.665702" y="155.376847" style="fill: #ff0000; stroke: #ff0000; stroke-width: 2"/>
     <use xlink:href="#mc28f42308a" x="93.417769" y="168.860453" style="fill: #ff0000; stroke: #ff0000; stroke-width: 2"/>
     <use xlink:href="#mc28f42308a" x="114.169835" y="180.559844" style="fill: #ff0000; stroke: #ff0000; stroke-width: 2"/>
     <use xlink:href="#mc28f42308a" x="134.921901" y="191.372091" style="fill: #ff0000; stroke: #ff0000; stroke-width: 2"/>
     <use xlink:href="#mc28f42308a" x="155.673967" y="200.649117" style="fill: #ff0000; stroke: #ff0000; stroke-width: 2"/>
     <use xlink:href="#mc28f42308a" x="176.426033" y="208.959521" style="fill: #ff0000; stroke: #ff0000; stroke-width: 2"/>
     <use xlink:href="#mc28f42308a" x="197.178099" y="217.367017" style="fill: #ff0000; stroke: #ff0000; stroke-width: 2"/>
     <use xlink:href="#mc28f42308a" x="217.930165" y="225.23242" style="fill: #ff0000; stroke: #ff0000; stroke-width: 2"/>
     <use xlink:href="#mc28f42308a" x="238.682231" y="231.67163" style="fill: #ff0000; stroke: #ff0000; stroke-width: 2"/>
     <use xlink:href="#mc28f42308a" x="259.434298" y="236.686453" style="fill: #ff0000; stroke: #ff0000; stroke-width: 2"/>
     <use xlink:href="#mc28f42308a" x="280.186364" y="242.342327" style="fill: #ff0000; stroke: #ff0000; stroke-width: 2"/>
    </g>
   </g>
   <g id="line2d_12">
    <g clip-path="url(#p0f6eecd3c6)">
     <use xlink:href="#mc28f42308a" x="51.913636" y="138.806862" style="fill: #ff0000; stroke: #ff0000; stroke-width: 2"/>
     <use xlink:href="#mc28f42308a" x="72.665702" y="153.959801" style="fill: #ff0000; stroke: #ff0000; stroke-width: 2"/>
     <use xlink:href="#mc28f42308a" x="93.417769" y="168.397841" style="fill: #ff0000; stroke: #ff0000; stroke-width: 2"/>
     <use xlink:href="#mc28f42308a" x="114.169835" y="179.863911" style="fill: #ff0000; stroke: #ff0000; stroke-width: 2"/>
     <use xlink:href="#mc28f42308a" x="134.921901" y="190.191965" style="fill: #ff0000; stroke: #ff0000; stroke-width: 2"/>
     <use xlink:href="#mc28f42308a" x="155.673967" y="199.071518" style="fill: #ff0000; stroke: #ff0000; stroke-width: 2"/>
     <use xlink:href="#mc28f42308a" x="176.426033" y="208.060551" style="fill: #ff0000; stroke: #ff0000; stroke-width: 2"/>
     <use xlink:href="#mc28f42308a" x="197.178099" y="216.696317" style="fill: #ff0000; stroke: #ff0000; stroke-width: 2"/>
     <use xlink:href="#mc28f42308a" x="217.930165" y="224.425656" style="fill: #ff0000; stroke: #ff0000; stroke-width: 2"/>
     <use xlink:href="#mc28f42308a" x="238.682231" y="231.370598" style="fill: #ff0000; stroke: #ff0000; stroke-width: 2"/>
     <use xlink:href="#mc28f42308a" x="259.434298" y="235.913099" style="fill: #ff0000; stroke: #ff0000; stroke-width: 2"/>
     <use xlink:href="#mc28f42308a" x="280.186364" y="241.756846" style="fill: #ff0000; stroke: #ff0000; stroke-width: 2"/>
    </g>
   </g>
   <g id="line2d_13">
    <path d="M 51.913636 124.122016 
L 72.665702 142.705803 
L 93.417769 162.129331 
L 114.169835 176.553532 
L 134.921901 191.570196 
L 155.673967 204.149531 
L 176.426033 215.407018 
L 197.178099 226.295958 
L 217.930165 234.657317 
L 238.682231 242.466207 
L 259.434298 248.840328 
L 280.186364 253.339704 
" clip-path="url(#p0f6eecd3c6)" style="fill: none; stroke: #000000; stroke-width: 1.5; stroke-linecap: square"/>
   </g>
   <g id="LineCollection_2">
    <path d="M 51.913636 125.11254 
L 51.913636 123.131491 
" clip-path="url(#p0f6eecd3c6)" style="fill: none; stroke: #000000; stroke-width: 2"/>
    <path d="M 72.665702 143.839322 
L 72.665702 141.572284 
" clip-path="url(#p0f6eecd3c6)" style="fill: none; stroke: #000000; stroke-width: 2"/>
    <path d="M 93.417769 162.7493 
L 93.417769 161.509363 
" clip-path="url(#p0f6eecd3c6)" style="fill: none; stroke: #000000; stroke-width: 2"/>
    <path d="M 114.169835 177.04532 
L 114.169835 176.061745 
" clip-path="url(#p0f6eecd3c6)" style="fill: none; stroke: #000000; stroke-width: 2"/>
    <path d="M 134.921901 192.004794 
L 134.921901 191.135598 
" clip-path="url(#p0f6eecd3c6)" style="fill: none; stroke: #000000; stroke-width: 2"/>
    <path d="M 155.673967 204.7936 
L 155.673967 203.505462 
" clip-path="url(#p0f6eecd3c6)" style="fill: none; stroke: #000000; stroke-width: 2"/>
    <path d="M 176.426033 215.653293 
L 176.426033 215.160742 
" clip-path="url(#p0f6eecd3c6)" style="fill: none; stroke: #000000; stroke-width: 2"/>
    <path d="M 197.178099 226.761776 
L 197.178099 225.83014 
" clip-path="url(#p0f6eecd3c6)" style="fill: none; stroke: #000000; stroke-width: 2"/>
    <path d="M 217.930165 235.003309 
L 217.930165 234.311326 
" clip-path="url(#p0f6eecd3c6)" style="fill: none; stroke: #000000; stroke-width: 2"/>
    <path d="M 238.682231 242.740289 
L 238.682231 242.192125 
" clip-path="url(#p0f6eecd3c6)" style="fill: none; stroke: #000000; stroke-width: 2"/>
    <path d="M 259.434298 249.035552 
L 259.434298 248.645104 
" clip-path="url(#p0f6eecd3c6)" style="fill: none; stroke: #000000; stroke-width: 2"/>
    <path d="M 280.186364 253.617108 
L 280.186364 253.062301 
" clip-path="url(#p0f6eecd3c6)" style="fill: none; stroke: #000000; stroke-width: 2"/>
   </g>
   <g id="line2d_14">
    <defs>
     <path id="m35b92a7ff1" d="M 3 0 
L -3 -0 
" style="stroke: #000000; stroke-width: 2"/>
    </defs>
    <g clip-path="url(#p0f6eecd3c6)">
     <use xlink:href="#m35b92a7ff1" x="51.913636" y="125.11254" style="stroke: #000000; stroke-width: 2"/>
     <use xlink:href="#m35b92a7ff1" x="72.665702" y="143.839322" style="stroke: #000000; stroke-width: 2"/>
     <use xlink:href="#m35b92a7ff1" x="93.417769" y="162.7493" style="stroke: #000000; stroke-width: 2"/>
     <use xlink:href="#m35b92a7ff1" x="114.169835" y="177.04532" style="stroke: #000000; stroke-width: 2"/>
     <use xlink:href="#m35b92a7ff1" x="134.921901" y="192.004794" style="stroke: #000000; stroke-width: 2"/>
     <use xlink:href="#m35b92a7ff1" x="155.673967" y="204.7936" style="stroke: #000000; stroke-width: 2"/>
     <use xlink:href="#m35b92a7ff1" x="176.426033" y="215.653293" style="stroke: #000000; stroke-width: 2"/>
     <use xlink:href="#m35b92a7ff1" x="197.178099" y="226.761776" style="stroke: #000000; stroke-width: 2"/>
     <use xlink:href="#m35b92a7ff1" x="217.930165" y="235.003309" style="stroke: #000000; stroke-width: 2"/>
     <use xlink:href="#m35b92a7ff1" x="238.682231" y="242.740289" style="stroke: #000000; stroke-width: 2"/>
     <use xlink:href="#m35b92a7ff1" x="259.434298" y="249.035552" style="stroke: #000000; stroke-width: 2"/>
     <use xlink:href="#m35b92a7ff1" x="280.186364" y="253.617108" style="stroke: #000000; stroke-width: 2"/>
    </g>
   </g>
   <g id="line2d_15">
    <g clip-path="url(#p0f6eecd3c6)">
     <use xlink:href="#m35b92a7ff1" x="51.913636" y="123.131491" style="stroke: #000000; stroke-width: 2"/>
     <use xlink:href="#m35b92a7ff1" x="72.665702" y="141.572284" style="stroke: #000000; stroke-width: 2"/>
     <use xlink:href="#m35b92a7ff1" x="93.417769" y="161.509363" style="stroke: #000000; stroke-width: 2"/>
     <use xlink:href="#m35b92a7ff1" x="114.169835" y="176.061745" style="stroke: #000000; stroke-width: 2"/>
     <use xlink:href="#m35b92a7ff1" x="134.921901" y="191.135598" style="stroke: #000000; stroke-width: 2"/>
     <use xlink:href="#m35b92a7ff1" x="155.673967" y="203.505462" style="stroke: #000000; stroke-width: 2"/>
     <use xlink:href="#m35b92a7ff1" x="176.426033" y="215.160742" style="stroke: #000000; stroke-width: 2"/>
     <use xlink:href="#m35b92a7ff1" x="197.178099" y="225.83014" style="stroke: #000000; stroke-width: 2"/>
     <use xlink:href="#m35b92a7ff1" x="217.930165" y="234.311326" style="stroke: #000000; stroke-width: 2"/>
     <use xlink:href="#m35b92a7ff1" x="238.682231" y="242.192125" style="stroke: #000000; stroke-width: 2"/>
     <use xlink:href="#m35b92a7ff1" x="259.434298" y="248.645104" style="stroke: #000000; stroke-width: 2"/>
     <use xlink:href="#m35b92a7ff1" x="280.186364" y="253.062301" style="stroke: #000000; stroke-width: 2"/>
    </g>
   </g>
   <g id="line2d_16">
    <path d="M 51.913636 103.656051 
L 72.665702 130.636706 
L 93.417769 150.924821 
L 114.169835 174.070102 
L 134.921901 191.248771 
L 155.673967 208.910303 
L 176.426033 223.729808 
L 197.178099 236.728574 
L 217.930165 246.258255 
L 238.682231 254.84612 
L 259.434298 261.94246 
L 280.186364 266.583379 
" clip-path="url(#p0f6eecd3c6)" style="fill: none; stroke: #0000ff; stroke-width: 1.5; stroke-linecap: square"/>
   </g>
   <g id="LineCollection_3">
    <path d="M 51.913636 104.703027 
L 51.913636 102.609074 
" clip-path="url(#p0f6eecd3c6)" style="fill: none; stroke: #0000ff; stroke-width: 2"/>
    <path d="M 72.665702 130.974848 
L 72.665702 130.298564 
" clip-path="url(#p0f6eecd3c6)" style="fill: none; stroke: #0000ff; stroke-width: 2"/>
    <path d="M 93.417769 152.044857 
L 93.417769 149.804786 
" clip-path="url(#p0f6eecd3c6)" style="fill: none; stroke: #0000ff; stroke-width: 2"/>
    <path d="M 114.169835 174.774394 
L 114.169835 173.36581 
" clip-path="url(#p0f6eecd3c6)" style="fill: none; stroke: #0000ff; stroke-width: 2"/>
    <path d="M 134.921901 191.937839 
L 134.921901 190.559704 
" clip-path="url(#p0f6eecd3c6)" style="fill: none; stroke: #0000ff; stroke-width: 2"/>
    <path d="M 155.673967 209.232174 
L 155.673967 208.588432 
" clip-path="url(#p0f6eecd3c6)" style="fill: none; stroke: #0000ff; stroke-width: 2"/>
    <path d="M 176.426033 224.042649 
L 176.426033 223.416966 
" clip-path="url(#p0f6eecd3c6)" style="fill: none; stroke: #0000ff; stroke-width: 2"/>
    <path d="M 197.178099 236.91229 
L 197.178099 236.544858 
" clip-path="url(#p0f6eecd3c6)" style="fill: none; stroke: #0000ff; stroke-width: 2"/>
    <path d="M 217.930165 246.511211 
L 217.930165 246.005298 
" clip-path="url(#p0f6eecd3c6)" style="fill: none; stroke: #0000ff; stroke-width: 2"/>
    <path d="M 238.682231 255.058915 
L 238.682231 254.633325 
" clip-path="url(#p0f6eecd3c6)" style="fill: none; stroke: #0000ff; stroke-width: 2"/>
    <path d="M 259.434298 262.060072 
L 259.434298 261.824848 
" clip-path="url(#p0f6eecd3c6)" style="fill: none; stroke: #0000ff; stroke-width: 2"/>
    <path d="M 280.186364 266.824207 
L 280.186364 266.342551 
" clip-path="url(#p0f6eecd3c6)" style="fill: none; stroke: #0000ff; stroke-width: 2"/>
   </g>
   <g id="line2d_17">
    <defs>
     <path id="m90235829a6" d="M 3 0 
L -3 -0 
" style="stroke: #0000ff; stroke-width: 2"/>
    </defs>
    <g clip-path="url(#p0f6eecd3c6)">
     <use xlink:href="#m90235829a6" x="51.913636" y="104.703027" style="fill: #0000ff; stroke: #0000ff; stroke-width: 2"/>
     <use xlink:href="#m90235829a6" x="72.665702" y="130.974848" style="fill: #0000ff; stroke: #0000ff; stroke-width: 2"/>
     <use xlink:href="#m90235829a6" x="93.417769" y="152.044857" style="fill: #0000ff; stroke: #0000ff; stroke-width: 2"/>
     <use xlink:href="#m90235829a6" x="114.169835" y="174.774394" style="fill: #0000ff; stroke: #0000ff; stroke-width: 2"/>
     <use xlink:href="#m90235829a6" x="134.921901" y="191.937839" style="fill: #0000ff; stroke: #0000ff; stroke-width: 2"/>
     <use xlink:href="#m90235829a6" x="155.673967" y="209.232174" style="fill: #0000ff; stroke: #0000ff; stroke-width: 2"/>
     <use xlink:href="#m90235829a6" x="176.426033" y="224.042649" style="fill: #0000ff; stroke: #0000ff; stroke-width: 2"/>
     <use xlink:href="#m90235829a6" x="197.178099" y="236.91229" style="fill: #0000ff; stroke: #0000ff; stroke-width: 2"/>
     <use xlink:href="#m90235829a6" x="217.930165" y="246.511211" style="fill: #0000ff; stroke: #0000ff; stroke-width: 2"/>
     <use xlink:href="#m90235829a6" x="238.682231" y="255.058915" style="fill: #0000ff; stroke: #0000ff; stroke-width: 2"/>
     <use xlink:href="#m90235829a6" x="259.434298" y="262.060072" style="fill: #0000ff; stroke: #0000ff; stroke-width: 2"/>
     <use xlink:href="#m90235829a6" x="280.186364" y="266.824207" style="fill: #0000ff; stroke: #0000ff; stroke-width: 2"/>
    </g>
   </g>
   <g id="line2d_18">
    <g clip-path="url(#p0f6eecd3c6)">
     <use xlink:href="#m90235829a6" x="51.913636" y="102.609074" style="fill: #0000ff; stroke: #0000ff; stroke-width: 2"/>
     <use xlink:href="#m90235829a6" x="72.665702" y="130.298564" style="fill: #0000ff; stroke: #0000ff; stroke-width: 2"/>
     <use xlink:href="#m90235829a6" x="93.417769" y="149.804786" style="fill: #0000ff; stroke: #0000ff; stroke-width: 2"/>
     <use xlink:href="#m90235829a6" x="114.169835" y="173.36581" style="fill: #0000ff; stroke: #0000ff; stroke-width: 2"/>
     <use xlink:href="#m90235829a6" x="134.921901" y="190.559704" style="fill: #0000ff; stroke: #0000ff; stroke-width: 2"/>
     <use xlink:href="#m90235829a6" x="155.673967" y="208.588432" style="fill: #0000ff; stroke: #0000ff; stroke-width: 2"/>
     <use xlink:href="#m90235829a6" x="176.426033" y="223.416966" style="fill: #0000ff; stroke: #0000ff; stroke-width: 2"/>
     <use xlink:href="#m90235829a6" x="197.178099" y="236.544858" style="fill: #0000ff; stroke: #0000ff; stroke-width: 2"/>
     <use xlink:href="#m90235829a6" x="217.930165" y="246.005298" style="fill: #0000ff; stroke: #0000ff; stroke-width: 2"/>
     <use xlink:href="#m90235829a6" x="238.682231" y="254.633325" style="fill: #0000ff; stroke: #0000ff; stroke-width: 2"/>
     <use xlink:href="#m90235829a6" x="259.434298" y="261.824848" style="fill: #0000ff; stroke: #0000ff; stroke-width: 2"/>
     <use xlink:href="#m90235829a6" x="280.186364" y="266.342551" style="fill: #0000ff; stroke: #0000ff; stroke-width: 2"/>
    </g>
   </g>
   <g id="line2d_19">
    <path d="M 51.913636 77.288055 
L 72.665702 112.96245 
L 93.417769 142.376899 
L 114.169835 170.613302 
L 134.921901 194.281658 
L 155.673967 217.084271 
L 176.426033 233.763297 
L 197.178099 248.247508 
L 217.930165 258.895827 
L 238.682231 266.726281 
L 259.434298 273.188227 
L 280.186364 278.084572 
" clip-path="url(#p0f6eecd3c6)" style="fill: none; stroke: #bf00bf; stroke-width: 1.5; stroke-linecap: square"/>
   </g>
   <g id="LineCollection_4">
    <path d="M 51.913636 77.734324 
L 51.913636 76.841787 
" clip-path="url(#p0f6eecd3c6)" style="fill: none; stroke: #bf00bf; stroke-width: 2"/>
    <path d="M 72.665702 114.405439 
L 72.665702 111.51946 
" clip-path="url(#p0f6eecd3c6)" style="fill: none; stroke: #bf00bf; stroke-width: 2"/>
    <path d="M 93.417769 143.459178 
L 93.417769 141.29462 
" clip-path="url(#p0f6eecd3c6)" style="fill: none; stroke: #bf00bf; stroke-width: 2"/>
    <path d="M 114.169835 171.332999 
L 114.169835 169.893604 
" clip-path="url(#p0f6eecd3c6)" style="fill: none; stroke: #bf00bf; stroke-width: 2"/>
    <path d="M 134.921901 194.960554 
L 134.921901 193.602762 
" clip-path="url(#p0f6eecd3c6)" style="fill: none; stroke: #bf00bf; stroke-width: 2"/>
    <path d="M 155.673967 217.27268 
L 155.673967 216.895861 
" clip-path="url(#p0f6eecd3c6)" style="fill: none; stroke: #bf00bf; stroke-width: 2"/>
    <path d="M 176.426033 233.960983 
L 176.426033 233.56561 
" clip-path="url(#p0f6eecd3c6)" style="fill: none; stroke: #bf00bf; stroke-width: 2"/>
    <path d="M 197.178099 248.601565 
L 197.178099 247.893451 
" clip-path="url(#p0f6eecd3c6)" style="fill: none; stroke: #bf00bf; stroke-width: 2"/>
    <path d="M 217.930165 259.215711 
L 217.930165 258.575943 
" clip-path="url(#p0f6eecd3c6)" style="fill: none; stroke: #bf00bf; stroke-width: 2"/>
    <path d="M 238.682231 266.853703 
L 238.682231 266.59886 
" clip-path="url(#p0f6eecd3c6)" style="fill: none; stroke: #bf00bf; stroke-width: 2"/>
    <path d="M 259.434298 273.365671 
L 259.434298 273.010783 
" clip-path="url(#p0f6eecd3c6)" style="fill: none; stroke: #bf00bf; stroke-width: 2"/>
    <path d="M 280.186364 278.287704 
L 280.186364 277.881441 
" clip-path="url(#p0f6eecd3c6)" style="fill: none; stroke: #bf00bf; stroke-width: 2"/>
   </g>
   <g id="line2d_20">
    <defs>
     <path id="m2375fd16c0" d="M 3 0 
L -3 -0 
" style="stroke: #bf00bf; stroke-width: 2"/>
    </defs>
    <g clip-path="url(#p0f6eecd3c6)">
     <use xlink:href="#m2375fd16c0" x="51.913636" y="77.734324" style="fill: #bf00bf; stroke: #bf00bf; stroke-width: 2"/>
     <use xlink:href="#m2375fd16c0" x="72.665702" y="114.405439" style="fill: #bf00bf; stroke: #bf00bf; stroke-width: 2"/>
     <use xlink:href="#m2375fd16c0" x="93.417769" y="143.459178" style="fill: #bf00bf; stroke: #bf00bf; stroke-width: 2"/>
     <use xlink:href="#m2375fd16c0" x="114.169835" y="171.332999" style="fill: #bf00bf; stroke: #bf00bf; stroke-width: 2"/>
     <use xlink:href="#m2375fd16c0" x="134.921901" y="194.960554" style="fill: #bf00bf; stroke: #bf00bf; stroke-width: 2"/>
     <use xlink:href="#m2375fd16c0" x="155.673967" y="217.27268" style="fill: #bf00bf; stroke: #bf00bf; stroke-width: 2"/>
     <use xlink:href="#m2375fd16c0" x="176.426033" y="233.960983" style="fill: #bf00bf; stroke: #bf00bf; stroke-width: 2"/>
     <use xlink:href="#m2375fd16c0" x="197.178099" y="248.601565" style="fill: #bf00bf; stroke: #bf00bf; stroke-width: 2"/>
     <use xlink:href="#m2375fd16c0" x="217.930165" y="259.215711" style="fill: #bf00bf; stroke: #bf00bf; stroke-width: 2"/>
     <use xlink:href="#m2375fd16c0" x="238.682231" y="266.853703" style="fill: #bf00bf; stroke: #bf00bf; stroke-width: 2"/>
     <use xlink:href="#m2375fd16c0" x="259.434298" y="273.365671" style="fill: #bf00bf; stroke: #bf00bf; stroke-width: 2"/>
     <use xlink:href="#m2375fd16c0" x="280.186364" y="278.287704" style="fill: #bf00bf; stroke: #bf00bf; stroke-width: 2"/>
    </g>
   </g>
   <g id="line2d_21">
    <g clip-path="url(#p0f6eecd3c6)">
     <use xlink:href="#m2375fd16c0" x="51.913636" y="76.841787" style="fill: #bf00bf; stroke: #bf00bf; stroke-width: 2"/>
     <use xlink:href="#m2375fd16c0" x="72.665702" y="111.51946" style="fill: #bf00bf; stroke: #bf00bf; stroke-width: 2"/>
     <use xlink:href="#m2375fd16c0" x="93.417769" y="141.29462" style="fill: #bf00bf; stroke: #bf00bf; stroke-width: 2"/>
     <use xlink:href="#m2375fd16c0" x="114.169835" y="169.893604" style="fill: #bf00bf; stroke: #bf00bf; stroke-width: 2"/>
     <use xlink:href="#m2375fd16c0" x="134.921901" y="193.602762" style="fill: #bf00bf; stroke: #bf00bf; stroke-width: 2"/>
     <use xlink:href="#m2375fd16c0" x="155.673967" y="216.895861" style="fill: #bf00bf; stroke: #bf00bf; stroke-width: 2"/>
     <use xlink:href="#m2375fd16c0" x="176.426033" y="233.56561" style="fill: #bf00bf; stroke: #bf00bf; stroke-width: 2"/>
     <use xlink:href="#m2375fd16c0" x="197.178099" y="247.893451" style="fill: #bf00bf; stroke: #bf00bf; stroke-width: 2"/>
     <use xlink:href="#m2375fd16c0" x="217.930165" y="258.575943" style="fill: #bf00bf; stroke: #bf00bf; stroke-width: 2"/>
     <use xlink:href="#m2375fd16c0" x="238.682231" y="266.59886" style="fill: #bf00bf; stroke: #bf00bf; stroke-width: 2"/>
     <use xlink:href="#m2375fd16c0" x="259.434298" y="273.010783" style="fill: #bf00bf; stroke: #bf00bf; stroke-width: 2"/>
     <use xlink:href="#m2375fd16c0" x="280.186364" y="277.881441" style="fill: #bf00bf; stroke: #bf00bf; stroke-width: 2"/>
    </g>
   </g>
   <g id="line2d_22">
    <path d="M 51.913636 140.212507 
L 72.665702 154.668324 
L 93.417769 168.629147 
L 114.169835 180.211877 
L 134.921901 190.782028 
L 155.673967 199.860317 
L 176.426033 208.510036 
L 197.178099 217.031667 
L 217.930165 224.829038 
L 238.682231 231.521114 
L 259.434298 236.299776 
L 280.186364 242.049586 
" clip-path="url(#p0f6eecd3c6)" style="fill: none; stroke: #ff0000; stroke-width: 1.5; stroke-linecap: square"/>
   </g>
   <g id="line2d_23">
    <path d="M 51.913636 124.122016 
L 72.665702 142.705803 
L 93.417769 162.129331 
L 114.169835 176.553532 
L 134.921901 191.570196 
L 155.673967 204.149531 
L 176.426033 215.407018 
L 197.178099 226.295958 
L 217.930165 234.657317 
L 238.682231 242.466207 
L 259.434298 248.840328 
L 280.186364 253.339704 
" clip-path="url(#p0f6eecd3c6)" style="fill: none; stroke: #000000; stroke-width: 1.5; stroke-linecap: square"/>
   </g>
   <g id="line2d_24">
    <path d="M 51.913636 103.656051 
L 72.665702 130.636706 
L 93.417769 150.924821 
L 114.169835 174.070102 
L 134.921901 191.248771 
L 155.673967 208.910303 
L 176.426033 223.729808 
L 197.178099 236.728574 
L 217.930165 246.258255 
L 238.682231 254.84612 
L 259.434298 261.94246 
L 280.186364 266.583379 
" clip-path="url(#p0f6eecd3c6)" style="fill: none; stroke: #0000ff; stroke-width: 1.5; stroke-linecap: square"/>
   </g>
   <g id="line2d_25">
    <path d="M 51.913636 77.288055 
L 72.665702 112.96245 
L 93.417769 142.376899 
L 114.169835 170.613302 
L 134.921901 194.281658 
L 155.673967 217.084271 
L 176.426033 233.763297 
L 197.178099 248.247508 
L 217.930165 258.895827 
L 238.682231 266.726281 
L 259.434298 273.188227 
L 280.186364 278.084572 
" clip-path="url(#p0f6eecd3c6)" style="fill: none; stroke: #bf00bf; stroke-width: 1.5; stroke-linecap: square"/>
   </g>
   <g id="patch_3">
    <path d="M 40.5 288.36 
L 40.5 38.88 
" style="fill: none; stroke: #000000; stroke-width: 1.6; stroke-linejoin: miter; stroke-linecap: square"/>
   </g>
   <g id="patch_4">
    <path d="M 291.6 288.36 
L 291.6 38.88 
" style="fill: none; stroke: #000000; stroke-width: 1.6; stroke-linejoin: miter; stroke-linecap: square"/>
   </g>
   <g id="patch_5">
    <path d="M 40.5 288.36 
L 291.6 288.36 
" style="fill: none; stroke: #000000; stroke-width: 1.6; stroke-linejoin: miter; stroke-linecap: square"/>
   </g>
   <g id="patch_6">
    <path d="M 40.5 38.88 
L 291.6 38.88 
" style="fill: none; stroke: #000000; stroke-width: 1.6; stroke-linejoin: miter; stroke-linecap: square"/>
   </g>
   <g id="legend_1">
    <g id="patch_7">
     <path d="M 209.120625 118.935 
L 283.2 118.935 
Q 285.6 118.935 285.6 116.535 
L 285.6 47.28 
Q 285.6 44.88 283.2 44.88 
L 209.120625 44.88 
Q 206.720625 44.88 206.720625 47.28 
L 206.720625 116.535 
Q 206.720625 118.935 209.120625 118.935 
z
" style="fill: #ffffff; opacity: 0.8"/>
    </g>
    <g id="line2d_26">
     <path d="M 211.520625 54.598125 
L 223.520625 54.598125 
L 235.520625 54.598125 
" style="fill: none; stroke: #ff0000; stroke-width: 1.5; stroke-linecap: square"/>
    </g>
    <g id="text_10">
     <!-- M=4 -->
     <g transform="translate(245.120625 58.798125) scale(0.12 -0.12)">
      <defs>
       <path id="DejaVuSans-4d" d="M 628 4666 
L 1569 4666 
L 2759 1491 
L 3956 4666 
L 4897 4666 
L 4897 0 
L 4281 0 
L 4281 4097 
L 3078 897 
L 2444 897 
L 1241 4097 
L 1241 0 
L 628 0 
L 628 4666 
z
" transform="scale(0.015625)"/>
       <path id="DejaVuSans-3d" d="M 678 2906 
L 4684 2906 
L 4684 2381 
L 678 2381 
L 678 2906 
z
M 678 1631 
L 4684 1631 
L 4684 1100 
L 678 1100 
L 678 1631 
z
" transform="scale(0.015625)"/>
      </defs>
      <use xlink:href="#DejaVuSans-4d"/>
      <use xlink:href="#DejaVuSans-3d" x="86.279297"/>
      <use xlink:href="#DejaVuSans-34" x="170.068359"/>
     </g>
    </g>
    <g id="line2d_27">
     <path d="M 211.520625 72.211875 
L 223.520625 72.211875 
L 235.520625 72.211875 
" style="fill: none; stroke: #000000; stroke-width: 1.5; stroke-linecap: square"/>
    </g>
    <g id="text_11">
     <!-- M=8 -->
     <g transform="translate(245.120625 76.411875) scale(0.12 -0.12)">
      <defs>
       <path id="DejaVuSans-38" d="M 2034 2216 
Q 1584 2216 1326 1975 
Q 1069 1734 1069 1313 
Q 1069 891 1326 650 
Q 1584 409 2034 409 
Q 2484 409 2743 651 
Q 3003 894 3003 1313 
Q 3003 1734 2745 1975 
Q 2488 2216 2034 2216 
z
M 1403 2484 
Q 997 2584 770 2862 
Q 544 3141 544 3541 
Q 544 4100 942 4425 
Q 1341 4750 2034 4750 
Q 2731 4750 3128 4425 
Q 3525 4100 3525 3541 
Q 3525 3141 3298 2862 
Q 3072 2584 2669 2484 
Q 3125 2378 3379 2068 
Q 3634 1759 3634 1313 
Q 3634 634 3220 271 
Q 2806 -91 2034 -91 
Q 1263 -91 848 271 
Q 434 634 434 1313 
Q 434 1759 690 2068 
Q 947 2378 1403 2484 
z
M 1172 3481 
Q 1172 3119 1398 2916 
Q 1625 2713 2034 2713 
Q 2441 2713 2670 2916 
Q 2900 3119 2900 3481 
Q 2900 3844 2670 4047 
Q 2441 4250 2034 4250 
Q 1625 4250 1398 4047 
Q 1172 3844 1172 3481 
z
" transform="scale(0.015625)"/>
      </defs>
      <use xlink:href="#DejaVuSans-4d"/>
      <use xlink:href="#DejaVuSans-3d" x="86.279297"/>
      <use xlink:href="#DejaVuSans-38" x="170.068359"/>
     </g>
    </g>
    <g id="line2d_28">
     <path d="M 211.520625 89.825625 
L 223.520625 89.825625 
L 235.520625 89.825625 
" style="fill: none; stroke: #0000ff; stroke-width: 1.5; stroke-linecap: square"/>
    </g>
    <g id="text_12">
     <!-- M=16 -->
     <g transform="translate(245.120625 94.025625) scale(0.12 -0.12)">
      <defs>
       <path id="DejaVuSans-36" d="M 2113 2584 
Q 1688 2584 1439 2293 
Q 1191 2003 1191 1497 
Q 1191 994 1439 701 
Q 1688 409 2113 409 
Q 2538 409 2786 701 
Q 3034 994 3034 1497 
Q 3034 2003 2786 2293 
Q 2538 2584 2113 2584 
z
M 3366 4563 
L 3366 3988 
Q 3128 4100 2886 4159 
Q 2644 4219 2406 4219 
Q 1781 4219 1451 3797 
Q 1122 3375 1075 2522 
Q 1259 2794 1537 2939 
Q 1816 3084 2150 3084 
Q 2853 3084 3261 2657 
Q 3669 2231 3669 1497 
Q 3669 778 3244 343 
Q 2819 -91 2113 -91 
Q 1303 -91 875 529 
Q 447 1150 447 2328 
Q 447 3434 972 4092 
Q 1497 4750 2381 4750 
Q 2619 4750 2861 4703 
Q 3103 4656 3366 4563 
z
" transform="scale(0.015625)"/>
      </defs>
      <use xlink:href="#DejaVuSans-4d"/>
      <use xlink:href="#DejaVuSans-3d" x="86.279297"/>
      <use xlink:href="#DejaVuSans-31" x="170.068359"/>
      <use xlink:href="#DejaVuSans-36" x="233.691406"/>
     </g>
    </g>
    <g id="line2d_29">
     <path d="M 211.520625 107.439375 
L 223.520625 107.439375 
L 235.520625 107.439375 
" style="fill: none; stroke: #bf00bf; stroke-width: 1.5; stroke-linecap: square"/>
    </g>
    <g id="text_13">
     <!-- M=32 -->
     <g transform="translate(245.120625 111.639375) scale(0.12 -0.12)">
      <use xlink:href="#DejaVuSans-4d"/>
      <use xlink:href="#DejaVuSans-3d" x="86.279297"/>
      <use xlink:href="#DejaVuSans-33" x="170.068359"/>
      <use xlink:href="#DejaVuSans-32" x="233.691406"/>
     </g>
    </g>
   </g>
  </g>
 </g>
 <defs>
  <clipPath id="p0f6eecd3c6">
   <rect x="40.5" y="38.88" width="251.1" height="249.48"/>
  </clipPath>
 </defs>
</svg>
