<?xml version="1.0" encoding="utf-8" standalone="no"?>
<!DOCTYPE svg PUBLIC "-//W3C//DTD SVG 1.1//EN"
  "http://www.w3.org/Graphics/SVG/1.1/DTD/svg11.dtd">
<svg xmlns:xlink="http://www.w3.org/1999/xlink" width="324pt" height="324pt" viewBox="0 0 324 324" xmlns="http://www.w3.org/2000/svg" version="1.1">
 <metadata>
  <rdf:RDF xmlns:dc="http://purl.org/dc/elements/1.1/" xmlns:cc="http://creativecommons.org/ns#" xmlns:rdf="http://www.w3.org/1999/02/22-rdf-syntax-ns#">
   <cc:Work>
    <dc:type rdf:resource="http://purl.org/dc/dcmitype/StillImage"/>
    <dc:date>2026-01-11T21:17:33.532195</dc:date>
    <dc:format>image/svg+xml</dc:format>
    <dc:creator>
     <cc:Agent>
      <dc:title>Matplotlib v3.8.0, https://matplotlib.org/</dc:title>
     </cc:Agent>
    </dc:creator>
   </cc:Work>
  </rdf:RDF>
 </metadata>
 <defs>
  <style type="text/css">*{stroke-linejoin: round; stroke-linecap: butt}</style>
 </defs>
 <g id="figure_1">
  <g id="patch_1">
   <path d="M 0 324 
L 324 324 
L 324 0 
L 0 0 
z
" style="fill: #ffffff"/>
  </g>
  <g id="axes_1">
   <g id="patch_2">
    <path d="M 40.5 288.36 
L 291.6 288.36 
L 291.6 38.88 
L 40.5 38.88 
z
" style="fill: #ffffff"/>
   </g>
   <g id="matplotlib.axis_1">
    <g id="xtick_1">
     <g id="line2d_1">
      <defs>
       <path id="m57ac4de282" d="M 0 0 
L 0 8 
" style="stroke: #000000; stroke-width: 1.5"/>
      </defs>
      <g>
       <use xlink:href="#m57ac4de282" x="117.134416" y="288.36" style="stroke: #000000; stroke-width: 1.5"/>
      </g>
     </g>
     <g id="text_1">
      <!-- 7 -->
      <g transform="translate(113.316916 308.978125) scale(0.12 -0.12)">
       <defs>
        <path id="DejaVuSans-37" d="M 525 4666 
L 3525 4666 
L 3525 4397 
L 1831 0 
L 1172 0 
L 2766 4134 
L 525 4134 
L 525 4666 
z
" transform="scale(0.015625)"/>
       </defs>
       <use xlink:href="#DejaVuSans-37"/>
      </g>
     </g>
    </g>
    <g id="xtick_2">
     <g id="line2d_2">
      <g>
       <use xlink:href="#m57ac4de282" x="198.66039" y="288.36" style="stroke: #000000; stroke-width: 1.5"/>
      </g>
     </g>
     <g id="text_2">
      <!-- 8 -->
      <g transform="translate(194.84289 308.978125) scale(0.12 -0.12)">
       <defs>
        <path id="DejaVuSans-38" d="M 2034 2216 
Q 1584 2216 1326 1975 
Q 1069 1734 1069 1313 
Q 1069 891 1326 650 
Q 1584 409 2034 409 
Q 2484 409 2743 651 
Q 3003 894 3003 1313 
Q 3003 1734 2745 1975 
Q 2488 2216 2034 2216 
z
M 1403 2484 
Q 997 2584 770 2862 
Q 544 3141 544 3541 
Q 544 4100 942 4425 
Q 1341 4750 2034 4750 
Q 2731 4750 3128 4425 
Q 3525 4100 3525 3541 
Q 3525 3141 3298 2862 
Q 3072 2584 2669 2484 
Q 3125 2378 3379 2068 
Q 3634 1759 3634 1313 
Q 3634 634 3220 271 
Q 2806 -91 2034 -91 
Q 1263 -91 848 271 
Q 434 634 434 1313 
Q 434 1759 690 2068 
Q 947 2378 1403 2484 
z
M 1172 3481 
Q 1172 3119 1398 2916 
Q 1625 2713 2034 2713 
Q 2441 2713 2670 2916 
Q 2900 3119 2900 3481 
Q 2900 3844 2670 4047 
Q 2441 4250 2034 4250 
Q 1625 4250 1398 4047 
Q 1172 3844 1172 3481 
z
" transform="scale(0.015625)"/>
       </defs>
       <use xlink:href="#DejaVuSans-38"/>
      </g>
     </g>
    </g>
    <g id="xtick_3">
     <g id="line2d_3">
      <g>
       <use xlink:href="#m57ac4de282" x="280.186364" y="288.36" style="stroke: #000000; stroke-width: 1.5"/>
      </g>
     </g>
     <g id="text_3">
      <!-- 9 -->
      <g transform="translate(276.368864 308.978125) scale(0.12 -0.12)">
       <defs>
        <path id="DejaVuSans-39" d="M 703 97 
L 703 672 
Q 941 559 1184 500 
Q 1428 441 1663 441 
Q 2288 441 2617 861 
Q 2947 1281 2994 2138 
Q 2813 1869 2534 1725 
Q 2256 1581 1919 1581 
Q 1219 1581 811 2004 
Q 403 2428 403 3163 
Q 403 3881 828 4315 
Q 1253 4750 1959 4750 
Q 2769 4750 3195 4129 
Q 3622 3509 3622 2328 
Q 3622 1225 3098 567 
Q 2575 -91 1691 -91 
Q 1453 -91 1209 -44 
Q 966 3 703 97 
z
M 1959 2075 
Q 2384 2075 2632 2365 
Q 2881 2656 2881 3163 
Q 2881 3666 2632 3958 
Q 2384 4250 1959 4250 
Q 1534 4250 1286 3958 
Q 1038 3666 1038 3163 
Q 1038 2656 1286 2365 
Q 1534 2075 1959 2075 
z
" transform="scale(0.015625)"/>
       </defs>
       <use xlink:href="#DejaVuSans-39"/>
      </g>
     </g>
    </g>
   </g>
   <g id="matplotlib.axis_2">
    <g id="ytick_1">
     <g id="line2d_4">
      <defs>
       <path id="m6d386b875b" d="M 0 0 
L -8 0 
" style="stroke: #000000; stroke-width: 1.5"/>
      </defs>
      <g>
       <use xlink:href="#m6d386b875b" x="40.5" y="288.36" style="stroke: #000000; stroke-width: 1.5"/>
      </g>
     </g>
     <g id="text_4">
      <!-- 0.3 -->
      <g transform="translate(9.91625 292.919062) scale(0.12 -0.12)">
       <defs>
        <path id="DejaVuSans-30" d="M 2034 4250 
Q 1547 4250 1301 3770 
Q 1056 3291 1056 2328 
Q 1056 1369 1301 889 
Q 1547 409 2034 409 
Q 2525 409 2770 889 
Q 3016 1369 3016 2328 
Q 3016 3291 2770 3770 
Q 2525 4250 2034 4250 
z
M 2034 4750 
Q 2819 4750 3233 4129 
Q 3647 3509 3647 2328 
Q 3647 1150 3233 529 
Q 2819 -91 2034 -91 
Q 1250 -91 836 529 
Q 422 1150 422 2328 
Q 422 3509 836 4129 
Q 1250 4750 2034 4750 
z
" transform="scale(0.015625)"/>
        <path id="DejaVuSans-2e" d="M 684 794 
L 1344 794 
L 1344 0 
L 684 0 
L 684 794 
z
" transform="scale(0.015625)"/>
        <path id="DejaVuSans-33" d="M 2597 2516 
Q 3050 2419 3304 2112 
Q 3559 1806 3559 1356 
Q 3559 666 3084 287 
Q 2609 -91 1734 -91 
Q 1441 -91 1130 -33 
Q 819 25 488 141 
L 488 750 
Q 750 597 1062 519 
Q 1375 441 1716 441 
Q 2309 441 2620 675 
Q 2931 909 2931 1356 
Q 2931 1769 2642 2001 
Q 2353 2234 1838 2234 
L 1294 2234 
L 1294 2753 
L 1863 2753 
Q 2328 2753 2575 2939 
Q 2822 3125 2822 3475 
Q 2822 3834 2567 4026 
Q 2313 4219 1838 4219 
Q 1578 4219 1281 4162 
Q 984 4106 628 3988 
L 628 4550 
Q 988 4650 1302 4700 
Q 1616 4750 1894 4750 
Q 2613 4750 3031 4423 
Q 3450 4097 3450 3541 
Q 3450 3153 3228 2886 
Q 3006 2619 2597 2516 
z
" transform="scale(0.015625)"/>
       </defs>
       <use xlink:href="#DejaVuSans-30"/>
       <use xlink:href="#DejaVuSans-2e" x="63.623047"/>
       <use xlink:href="#DejaVuSans-33" x="95.410156"/>
      </g>
     </g>
    </g>
    <g id="ytick_2">
     <g id="line2d_5">
      <g>
       <use xlink:href="#m6d386b875b" x="40.5" y="227.051365" style="stroke: #000000; stroke-width: 1.5"/>
      </g>
     </g>
     <g id="text_5">
      <!-- 0.5 -->
      <g transform="translate(9.91625 231.610428) scale(0.12 -0.12)">
       <defs>
        <path id="DejaVuSans-35" d="M 691 4666 
L 3169 4666 
L 3169 4134 
L 1269 4134 
L 1269 2991 
Q 1406 3038 1543 3061 
Q 1681 3084 1819 3084 
Q 2600 3084 3056 2656 
Q 3513 2228 3513 1497 
Q 3513 744 3044 326 
Q 2575 -91 1722 -91 
Q 1428 -91 1123 -41 
Q 819 9 494 109 
L 494 744 
Q 775 591 1075 516 
Q 1375 441 1709 441 
Q 2250 441 2565 725 
Q 2881 1009 2881 1497 
Q 2881 1984 2565 2268 
Q 2250 2553 1709 2553 
Q 1456 2553 1204 2497 
Q 953 2441 691 2322 
L 691 4666 
z
" transform="scale(0.015625)"/>
       </defs>
       <use xlink:href="#DejaVuSans-30"/>
       <use xlink:href="#DejaVuSans-2e" x="63.623047"/>
       <use xlink:href="#DejaVuSans-35" x="95.410156"/>
      </g>
     </g>
    </g>
    <g id="ytick_3">
     <g id="line2d_6">
      <g>
       <use xlink:href="#m6d386b875b" x="40.5" y="165.74273" style="stroke: #000000; stroke-width: 1.5"/>
      </g>
     </g>
     <g id="text_6">
      <!-- 0.7 -->
      <g transform="translate(9.91625 170.301793) scale(0.12 -0.12)">
       <use xlink:href="#DejaVuSans-30"/>
       <use xlink:href="#DejaVuSans-2e" x="63.623047"/>
       <use xlink:href="#DejaVuSans-37" x="95.410156"/>
      </g>
     </g>
    </g>
    <g id="ytick_4">
     <g id="line2d_7">
      <g>
       <use xlink:href="#m6d386b875b" x="40.5" y="104.434096" style="stroke: #000000; stroke-width: 1.5"/>
      </g>
     </g>
     <g id="text_7">
      <!-- 0.9 -->
      <g transform="translate(9.91625 108.993158) scale(0.12 -0.12)">
       <use xlink:href="#DejaVuSans-30"/>
       <use xlink:href="#DejaVuSans-2e" x="63.623047"/>
       <use xlink:href="#DejaVuSans-39" x="95.410156"/>
      </g>
     </g>
    </g>
    <g id="ytick_5">
     <g id="line2d_8">
      <g>
       <use xlink:href="#m6d386b875b" x="40.5" y="43.125461" style="stroke: #000000; stroke-width: 1.5"/>
      </g>
     </g>
     <g id="text_8">
      <!-- 1.1 -->
      <g transform="translate(9.91625 47.684523) scale(0.12 -0.12)">
       <defs>
        <path id="DejaVuSans-31" d="M 794 531 
L 1825 531 
L 1825 4091 
L 703 3866 
L 703 4441 
L 1819 4666 
L 2450 4666 
L 2450 531 
L 3481 531 
L 3481 0 
L 794 0 
L 794 531 
z
" transform="scale(0.015625)"/>
       </defs>
       <use xlink:href="#DejaVuSans-31"/>
       <use xlink:href="#DejaVuSans-2e" x="63.623047"/>
       <use xlink:href="#DejaVuSans-31" x="95.410156"/>
      </g>
     </g>
    </g>
   </g>
   <g id="line2d_9">
    <path d="M 51.913636 160.996223 
L 68.218831 169.022809 
L 84.524026 178.120126 
L 100.829221 186.078876 
L 117.134416 196.464397 
L 133.43961 201.651379 
L 149.744805 206.092885 
L 166.05 212.195665 
L 182.355195 216.853872 
L 198.66039 218.578106 
L 214.965584 223.304946 
L 231.270779 229.194338 
L 247.575974 233.542068 
L 263.881169 236.935889 
L 280.186364 241.023324 
" clip-path="url(#pfce35862d2)" style="fill: none; stroke: #ff0000; stroke-width: 1.5; stroke-linecap: square"/>
   </g>
   <g id="LineCollection_1">
    <path d="M 51.913636 161.989013 
L 51.913636 160.003433 
" clip-path="url(#pfce35862d2)" style="fill: none; stroke: #ff0000; stroke-width: 2"/>
    <path d="M 68.218831 170.161911 
L 68.218831 167.883708 
" clip-path="url(#pfce35862d2)" style="fill: none; stroke: #ff0000; stroke-width: 2"/>
    <path d="M 84.524026 178.799458 
L 84.524026 177.440794 
" clip-path="url(#pfce35862d2)" style="fill: none; stroke: #ff0000; stroke-width: 2"/>
    <path d="M 100.829221 187.223074 
L 100.829221 184.934678 
" clip-path="url(#pfce35862d2)" style="fill: none; stroke: #ff0000; stroke-width: 2"/>
    <path d="M 117.134416 197.280401 
L 117.134416 195.648392 
" clip-path="url(#pfce35862d2)" style="fill: none; stroke: #ff0000; stroke-width: 2"/>
    <path d="M 133.43961 202.285659 
L 133.43961 201.0171 
" clip-path="url(#pfce35862d2)" style="fill: none; stroke: #ff0000; stroke-width: 2"/>
    <path d="M 149.744805 206.891877 
L 149.744805 205.293892 
" clip-path="url(#pfce35862d2)" style="fill: none; stroke: #ff0000; stroke-width: 2"/>
    <path d="M 166.05 212.899682 
L 166.05 211.491649 
" clip-path="url(#pfce35862d2)" style="fill: none; stroke: #ff0000; stroke-width: 2"/>
    <path d="M 182.355195 217.451217 
L 182.355195 216.256526 
" clip-path="url(#pfce35862d2)" style="fill: none; stroke: #ff0000; stroke-width: 2"/>
    <path d="M 198.66039 219.049072 
L 198.66039 218.10714 
" clip-path="url(#pfce35862d2)" style="fill: none; stroke: #ff0000; stroke-width: 2"/>
    <path d="M 214.965584 223.984382 
L 214.965584 222.62551 
" clip-path="url(#pfce35862d2)" style="fill: none; stroke: #ff0000; stroke-width: 2"/>
    <path d="M 231.270779 229.456601 
L 231.270779 228.932074 
" clip-path="url(#pfce35862d2)" style="fill: none; stroke: #ff0000; stroke-width: 2"/>
    <path d="M 247.575974 234.205707 
L 247.575974 232.878429 
" clip-path="url(#pfce35862d2)" style="fill: none; stroke: #ff0000; stroke-width: 2"/>
    <path d="M 263.881169 237.170769 
L 263.881169 236.70101 
" clip-path="url(#pfce35862d2)" style="fill: none; stroke: #ff0000; stroke-width: 2"/>
    <path d="M 280.186364 241.302369 
L 280.186364 240.74428 
" clip-path="url(#pfce35862d2)" style="fill: none; stroke: #ff0000; stroke-width: 2"/>
   </g>
   <g id="line2d_10">
    <defs>
     <path id="m45225a1c03" d="M 3 0 
L -3 -0 
" style="stroke: #ff0000; stroke-width: 2"/>
    </defs>
    <g clip-path="url(#pfce35862d2)">
     <use xlink:href="#m45225a1c03" x="51.913636" y="161.989013" style="fill: #ff0000; stroke: #ff0000; stroke-width: 2"/>
     <use xlink:href="#m45225a1c03" x="68.218831" y="170.161911" style="fill: #ff0000; stroke: #ff0000; stroke-width: 2"/>
     <use xlink:href="#m45225a1c03" x="84.524026" y="178.799458" style="fill: #ff0000; stroke: #ff0000; stroke-width: 2"/>
     <use xlink:href="#m45225a1c03" x="100.829221" y="187.223074" style="fill: #ff0000; stroke: #ff0000; stroke-width: 2"/>
     <use xlink:href="#m45225a1c03" x="117.134416" y="197.280401" style="fill: #ff0000; stroke: #ff0000; stroke-width: 2"/>
     <use xlink:href="#m45225a1c03" x="133.43961" y="202.285659" style="fill: #ff0000; stroke: #ff0000; stroke-width: 2"/>
     <use xlink:href="#m45225a1c03" x="149.744805" y="206.891877" style="fill: #ff0000; stroke: #ff0000; stroke-width: 2"/>
     <use xlink:href="#m45225a1c03" x="166.05" y="212.899682" style="fill: #ff0000; stroke: #ff0000; stroke-width: 2"/>
     <use xlink:href="#m45225a1c03" x="182.355195" y="217.451217" style="fill: #ff0000; stroke: #ff0000; stroke-width: 2"/>
     <use xlink:href="#m45225a1c03" x="198.66039" y="219.049072" style="fill: #ff0000; stroke: #ff0000; stroke-width: 2"/>
     <use xlink:href="#m45225a1c03" x="214.965584" y="223.984382" style="fill: #ff0000; stroke: #ff0000; stroke-width: 2"/>
     <use xlink:href="#m45225a1c03" x="231.270779" y="229.456601" style="fill: #ff0000; stroke: #ff0000; stroke-width: 2"/>
     <use xlink:href="#m45225a1c03" x="247.575974" y="234.205707" style="fill: #ff0000; stroke: #ff0000; stroke-width: 2"/>
     <use xlink:href="#m45225a1c03" x="263.881169" y="237.170769" style="fill: #ff0000; stroke: #ff0000; stroke-width: 2"/>
     <use xlink:href="#m45225a1c03" x="280.186364" y="241.302369" style="fill: #ff0000; stroke: #ff0000; stroke-width: 2"/>
    </g>
   </g>
   <g id="line2d_11">
    <g clip-path="url(#pfce35862d2)">
     <use xlink:href="#m45225a1c03" x="51.913636" y="160.003433" style="fill: #ff0000; stroke: #ff0000; stroke-width: 2"/>
     <use xlink:href="#m45225a1c03" x="68.218831" y="167.883708" style="fill: #ff0000; stroke: #ff0000; stroke-width: 2"/>
     <use xlink:href="#m45225a1c03" x="84.524026" y="177.440794" style="fill: #ff0000; stroke: #ff0000; stroke-width: 2"/>
     <use xlink:href="#m45225a1c03" x="100.829221" y="184.934678" style="fill: #ff0000; stroke: #ff0000; stroke-width: 2"/>
     <use xlink:href="#m45225a1c03" x="117.134416" y="195.648392" style="fill: #ff0000; stroke: #ff0000; stroke-width: 2"/>
     <use xlink:href="#m45225a1c03" x="133.43961" y="201.0171" style="fill: #ff0000; stroke: #ff0000; stroke-width: 2"/>
     <use xlink:href="#m45225a1c03" x="149.744805" y="205.293892" style="fill: #ff0000; stroke: #ff0000; stroke-width: 2"/>
     <use xlink:href="#m45225a1c03" x="166.05" y="211.491649" style="fill: #ff0000; stroke: #ff0000; stroke-width: 2"/>
     <use xlink:href="#m45225a1c03" x="182.355195" y="216.256526" style="fill: #ff0000; stroke: #ff0000; stroke-width: 2"/>
     <use xlink:href="#m45225a1c03" x="198.66039" y="218.10714" style="fill: #ff0000; stroke: #ff0000; stroke-width: 2"/>
     <use xlink:href="#m45225a1c03" x="214.965584" y="222.62551" style="fill: #ff0000; stroke: #ff0000; stroke-width: 2"/>
     <use xlink:href="#m45225a1c03" x="231.270779" y="228.932074" style="fill: #ff0000; stroke: #ff0000; stroke-width: 2"/>
     <use xlink:href="#m45225a1c03" x="247.575974" y="232.878429" style="fill: #ff0000; stroke: #ff0000; stroke-width: 2"/>
     <use xlink:href="#m45225a1c03" x="263.881169" y="236.70101" style="fill: #ff0000; stroke: #ff0000; stroke-width: 2"/>
     <use xlink:href="#m45225a1c03" x="280.186364" y="240.74428" style="fill: #ff0000; stroke: #ff0000; stroke-width: 2"/>
    </g>
   </g>
   <g id="line2d_12">
    <path d="M 51.913636 112.241624 
L 68.218831 133.706587 
L 84.524026 152.291714 
L 100.829221 170.513658 
L 117.134416 184.425496 
L 133.43961 194.533133 
L 149.744805 204.418316 
L 166.05 212.660169 
L 182.355195 220.27409 
L 198.66039 224.289058 
L 214.965584 231.363966 
L 231.270779 237.73015 
L 247.575974 243.140011 
L 263.881169 248.728799 
L 280.186364 252.820679 
" clip-path="url(#pfce35862d2)" style="fill: none; stroke: #000000; stroke-width: 1.5; stroke-linecap: square"/>
   </g>
   <g id="LineCollection_2">
    <path d="M 51.913636 113.372281 
L 51.913636 111.110968 
" clip-path="url(#pfce35862d2)" style="fill: none; stroke: #000000; stroke-width: 2"/>
    <path d="M 68.218831 134.525078 
L 68.218831 132.888096 
" clip-path="url(#pfce35862d2)" style="fill: none; stroke: #000000; stroke-width: 2"/>
    <path d="M 84.524026 152.769522 
L 84.524026 151.813906 
" clip-path="url(#pfce35862d2)" style="fill: none; stroke: #000000; stroke-width: 2"/>
    <path d="M 100.829221 170.949835 
L 100.829221 170.077481 
" clip-path="url(#pfce35862d2)" style="fill: none; stroke: #000000; stroke-width: 2"/>
    <path d="M 117.134416 185.178045 
L 117.134416 183.672947 
" clip-path="url(#pfce35862d2)" style="fill: none; stroke: #000000; stroke-width: 2"/>
    <path d="M 133.43961 195.186783 
L 133.43961 193.879483 
" clip-path="url(#pfce35862d2)" style="fill: none; stroke: #000000; stroke-width: 2"/>
    <path d="M 149.744805 204.86458 
L 149.744805 203.972053 
" clip-path="url(#pfce35862d2)" style="fill: none; stroke: #000000; stroke-width: 2"/>
    <path d="M 166.05 213.287593 
L 166.05 212.032745 
" clip-path="url(#pfce35862d2)" style="fill: none; stroke: #000000; stroke-width: 2"/>
    <path d="M 182.355195 220.71049 
L 182.355195 219.83769 
" clip-path="url(#pfce35862d2)" style="fill: none; stroke: #000000; stroke-width: 2"/>
    <path d="M 198.66039 224.833268 
L 198.66039 223.744847 
" clip-path="url(#pfce35862d2)" style="fill: none; stroke: #000000; stroke-width: 2"/>
    <path d="M 214.965584 231.943128 
L 214.965584 230.784805 
" clip-path="url(#pfce35862d2)" style="fill: none; stroke: #000000; stroke-width: 2"/>
    <path d="M 231.270779 238.408136 
L 231.270779 237.052164 
" clip-path="url(#pfce35862d2)" style="fill: none; stroke: #000000; stroke-width: 2"/>
    <path d="M 247.575974 243.54365 
L 247.575974 242.736372 
" clip-path="url(#pfce35862d2)" style="fill: none; stroke: #000000; stroke-width: 2"/>
    <path d="M 263.881169 249.198373 
L 263.881169 248.259224 
" clip-path="url(#pfce35862d2)" style="fill: none; stroke: #000000; stroke-width: 2"/>
    <path d="M 280.186364 252.975237 
L 280.186364 252.666121 
" clip-path="url(#pfce35862d2)" style="fill: none; stroke: #000000; stroke-width: 2"/>
   </g>
   <g id="line2d_13">
    <defs>
     <path id="m437c22b79f" d="M 3 0 
L -3 -0 
" style="stroke: #000000; stroke-width: 2"/>
    </defs>
    <g clip-path="url(#pfce35862d2)">
     <use xlink:href="#m437c22b79f" x="51.913636" y="113.372281" style="stroke: #000000; stroke-width: 2"/>
     <use xlink:href="#m437c22b79f" x="68.218831" y="134.525078" style="stroke: #000000; stroke-width: 2"/>
     <use xlink:href="#m437c22b79f" x="84.524026" y="152.769522" style="stroke: #000000; stroke-width: 2"/>
     <use xlink:href="#m437c22b79f" x="100.829221" y="170.949835" style="stroke: #000000; stroke-width: 2"/>
     <use xlink:href="#m437c22b79f" x="117.134416" y="185.178045" style="stroke: #000000; stroke-width: 2"/>
     <use xlink:href="#m437c22b79f" x="133.43961" y="195.186783" style="stroke: #000000; stroke-width: 2"/>
     <use xlink:href="#m437c22b79f" x="149.744805" y="204.86458" style="stroke: #000000; stroke-width: 2"/>
     <use xlink:href="#m437c22b79f" x="166.05" y="213.287593" style="stroke: #000000; stroke-width: 2"/>
     <use xlink:href="#m437c22b79f" x="182.355195" y="220.71049" style="stroke: #000000; stroke-width: 2"/>
     <use xlink:href="#m437c22b79f" x="198.66039" y="224.833268" style="stroke: #000000; stroke-width: 2"/>
     <use xlink:href="#m437c22b79f" x="214.965584" y="231.943128" style="stroke: #000000; stroke-width: 2"/>
     <use xlink:href="#m437c22b79f" x="231.270779" y="238.408136" style="stroke: #000000; stroke-width: 2"/>
     <use xlink:href="#m437c22b79f" x="247.575974" y="243.54365" style="stroke: #000000; stroke-width: 2"/>
     <use xlink:href="#m437c22b79f" x="263.881169" y="249.198373" style="stroke: #000000; stroke-width: 2"/>
     <use xlink:href="#m437c22b79f" x="280.186364" y="252.975237" style="stroke: #000000; stroke-width: 2"/>
    </g>
   </g>
   <g id="line2d_14">
    <g clip-path="url(#pfce35862d2)">
     <use xlink:href="#m437c22b79f" x="51.913636" y="111.110968" style="stroke: #000000; stroke-width: 2"/>
     <use xlink:href="#m437c22b79f" x="68.218831" y="132.888096" style="stroke: #000000; stroke-width: 2"/>
     <use xlink:href="#m437c22b79f" x="84.524026" y="151.813906" style="stroke: #000000; stroke-width: 2"/>
     <use xlink:href="#m437c22b79f" x="100.829221" y="170.077481" style="stroke: #000000; stroke-width: 2"/>
     <use xlink:href="#m437c22b79f" x="117.134416" y="183.672947" style="stroke: #000000; stroke-width: 2"/>
     <use xlink:href="#m437c22b79f" x="133.43961" y="193.879483" style="stroke: #000000; stroke-width: 2"/>
     <use xlink:href="#m437c22b79f" x="149.744805" y="203.972053" style="stroke: #000000; stroke-width: 2"/>
     <use xlink:href="#m437c22b79f" x="166.05" y="212.032745" style="stroke: #000000; stroke-width: 2"/>
     <use xlink:href="#m437c22b79f" x="182.355195" y="219.83769" style="stroke: #000000; stroke-width: 2"/>
     <use xlink:href="#m437c22b79f" x="198.66039" y="223.744847" style="stroke: #000000; stroke-width: 2"/>
     <use xlink:href="#m437c22b79f" x="214.965584" y="230.784805" style="stroke: #000000; stroke-width: 2"/>
     <use xlink:href="#m437c22b79f" x="231.270779" y="237.052164" style="stroke: #000000; stroke-width: 2"/>
     <use xlink:href="#m437c22b79f" x="247.575974" y="242.736372" style="stroke: #000000; stroke-width: 2"/>
     <use xlink:href="#m437c22b79f" x="263.881169" y="248.259224" style="stroke: #000000; stroke-width: 2"/>
     <use xlink:href="#m437c22b79f" x="280.186364" y="252.666121" style="stroke: #000000; stroke-width: 2"/>
    </g>
   </g>
   <g id="line2d_15">
    <path d="M 51.913636 82.676589 
L 68.218831 108.7692 
L 84.524026 134.56465 
L 100.829221 159.14473 
L 117.134416 179.296588 
L 133.43961 193.6079 
L 149.744805 203.397976 
L 166.05 213.476025 
L 182.355195 221.878943 
L 198.66039 230.348772 
L 214.965584 236.555165 
L 231.270779 244.080019 
L 247.575974 250.059486 
L 263.881169 258.023234 
L 280.186364 262.924567 
" clip-path="url(#pfce35862d2)" style="fill: none; stroke: #0000ff; stroke-width: 1.5; stroke-linecap: square"/>
   </g>
   <g id="LineCollection_3">
    <path d="M 51.913636 83.291896 
L 51.913636 82.061282 
" clip-path="url(#pfce35862d2)" style="fill: none; stroke: #0000ff; stroke-width: 2"/>
    <path d="M 68.218831 109.611609 
L 68.218831 107.926792 
" clip-path="url(#pfce35862d2)" style="fill: none; stroke: #0000ff; stroke-width: 2"/>
    <path d="M 84.524026 135.136525 
L 84.524026 133.992776 
" clip-path="url(#pfce35862d2)" style="fill: none; stroke: #0000ff; stroke-width: 2"/>
    <path d="M 100.829221 159.863484 
L 100.829221 158.425976 
" clip-path="url(#pfce35862d2)" style="fill: none; stroke: #0000ff; stroke-width: 2"/>
    <path d="M 117.134416 180.042137 
L 117.134416 178.551039 
" clip-path="url(#pfce35862d2)" style="fill: none; stroke: #0000ff; stroke-width: 2"/>
    <path d="M 133.43961 194.64908 
L 133.43961 192.56672 
" clip-path="url(#pfce35862d2)" style="fill: none; stroke: #0000ff; stroke-width: 2"/>
    <path d="M 149.744805 204.149589 
L 149.744805 202.646363 
" clip-path="url(#pfce35862d2)" style="fill: none; stroke: #0000ff; stroke-width: 2"/>
    <path d="M 166.05 213.904255 
L 166.05 213.047794 
" clip-path="url(#pfce35862d2)" style="fill: none; stroke: #0000ff; stroke-width: 2"/>
    <path d="M 182.355195 222.645981 
L 182.355195 221.111905 
" clip-path="url(#pfce35862d2)" style="fill: none; stroke: #0000ff; stroke-width: 2"/>
    <path d="M 198.66039 231.00493 
L 198.66039 229.692614 
" clip-path="url(#pfce35862d2)" style="fill: none; stroke: #0000ff; stroke-width: 2"/>
    <path d="M 214.965584 237.07794 
L 214.965584 236.03239 
" clip-path="url(#pfce35862d2)" style="fill: none; stroke: #0000ff; stroke-width: 2"/>
    <path d="M 231.270779 244.486422 
L 231.270779 243.673617 
" clip-path="url(#pfce35862d2)" style="fill: none; stroke: #0000ff; stroke-width: 2"/>
    <path d="M 247.575974 250.487464 
L 247.575974 249.631507 
" clip-path="url(#pfce35862d2)" style="fill: none; stroke: #0000ff; stroke-width: 2"/>
    <path d="M 263.881169 258.309531 
L 263.881169 257.736938 
" clip-path="url(#pfce35862d2)" style="fill: none; stroke: #0000ff; stroke-width: 2"/>
    <path d="M 280.186364 263.315287 
L 280.186364 262.533846 
" clip-path="url(#pfce35862d2)" style="fill: none; stroke: #0000ff; stroke-width: 2"/>
   </g>
   <g id="line2d_16">
    <defs>
     <path id="ma8adf13112" d="M 3 0 
L -3 -0 
" style="stroke: #0000ff; stroke-width: 2"/>
    </defs>
    <g clip-path="url(#pfce35862d2)">
     <use xlink:href="#ma8adf13112" x="51.913636" y="83.291896" style="fill: #0000ff; stroke: #0000ff; stroke-width: 2"/>
     <use xlink:href="#ma8adf13112" x="68.218831" y="109.611609" style="fill: #0000ff; stroke: #0000ff; stroke-width: 2"/>
     <use xlink:href="#ma8adf13112" x="84.524026" y="135.136525" style="fill: #0000ff; stroke: #0000ff; stroke-width: 2"/>
     <use xlink:href="#ma8adf13112" x="100.829221" y="159.863484" style="fill: #0000ff; stroke: #0000ff; stroke-width: 2"/>
     <use xlink:href="#ma8adf13112" x="117.134416" y="180.042137" style="fill: #0000ff; stroke: #0000ff; stroke-width: 2"/>
     <use xlink:href="#ma8adf13112" x="133.43961" y="194.64908" style="fill: #0000ff; stroke: #0000ff; stroke-width: 2"/>
     <use xlink:href="#ma8adf13112" x="149.744805" y="204.149589" style="fill: #0000ff; stroke: #0000ff; stroke-width: 2"/>
     <use xlink:href="#ma8adf13112" x="166.05" y="213.904255" style="fill: #0000ff; stroke: #0000ff; stroke-width: 2"/>
     <use xlink:href="#ma8adf13112" x="182.355195" y="222.645981" style="fill: #0000ff; stroke: #0000ff; stroke-width: 2"/>
     <use xlink:href="#ma8adf13112" x="198.66039" y="231.00493" style="fill: #0000ff; stroke: #0000ff; stroke-width: 2"/>
     <use xlink:href="#ma8adf13112" x="214.965584" y="237.07794" style="fill: #0000ff; stroke: #0000ff; stroke-width: 2"/>
     <use xlink:href="#ma8adf13112" x="231.270779" y="244.486422" style="fill: #0000ff; stroke: #0000ff; stroke-width: 2"/>
     <use xlink:href="#ma8adf13112" x="247.575974" y="250.487464" style="fill: #0000ff; stroke: #0000ff; stroke-width: 2"/>
     <use xlink:href="#ma8adf13112" x="263.881169" y="258.309531" style="fill: #0000ff; stroke: #0000ff; stroke-width: 2"/>
     <use xlink:href="#ma8adf13112" x="280.186364" y="263.315287" style="fill: #0000ff; stroke: #0000ff; stroke-width: 2"/>
    </g>
   </g>
   <g id="line2d_17">
    <g clip-path="url(#pfce35862d2)">
     <use xlink:href="#ma8adf13112" x="51.913636" y="82.061282" style="fill: #0000ff; stroke: #0000ff; stroke-width: 2"/>
     <use xlink:href="#ma8adf13112" x="68.218831" y="107.926792" style="fill: #0000ff; stroke: #0000ff; stroke-width: 2"/>
     <use xlink:href="#ma8adf13112" x="84.524026" y="133.992776" style="fill: #0000ff; stroke: #0000ff; stroke-width: 2"/>
     <use xlink:href="#ma8adf13112" x="100.829221" y="158.425976" style="fill: #0000ff; stroke: #0000ff; stroke-width: 2"/>
     <use xlink:href="#ma8adf13112" x="117.134416" y="178.551039" style="fill: #0000ff; stroke: #0000ff; stroke-width: 2"/>
     <use xlink:href="#ma8adf13112" x="133.43961" y="192.56672" style="fill: #0000ff; stroke: #0000ff; stroke-width: 2"/>
     <use xlink:href="#ma8adf13112" x="149.744805" y="202.646363" style="fill: #0000ff; stroke: #0000ff; stroke-width: 2"/>
     <use xlink:href="#ma8adf13112" x="166.05" y="213.047794" style="fill: #0000ff; stroke: #0000ff; stroke-width: 2"/>
     <use xlink:href="#ma8adf13112" x="182.355195" y="221.111905" style="fill: #0000ff; stroke: #0000ff; stroke-width: 2"/>
     <use xlink:href="#ma8adf13112" x="198.66039" y="229.692614" style="fill: #0000ff; stroke: #0000ff; stroke-width: 2"/>
     <use xlink:href="#ma8adf13112" x="214.965584" y="236.03239" style="fill: #0000ff; stroke: #0000ff; stroke-width: 2"/>
     <use xlink:href="#ma8adf13112" x="231.270779" y="243.673617" style="fill: #0000ff; stroke: #0000ff; stroke-width: 2"/>
     <use xlink:href="#ma8adf13112" x="247.575974" y="249.631507" style="fill: #0000ff; stroke: #0000ff; stroke-width: 2"/>
     <use xlink:href="#ma8adf13112" x="263.881169" y="257.736938" style="fill: #0000ff; stroke: #0000ff; stroke-width: 2"/>
     <use xlink:href="#ma8adf13112" x="280.186364" y="262.533846" style="fill: #0000ff; stroke: #0000ff; stroke-width: 2"/>
    </g>
   </g>
   <g id="line2d_18">
    <path d="M 51.913636 51.127938 
L 68.218831 80.35281 
L 84.524026 120.503448 
L 100.829221 148.24229 
L 117.134416 170.742829 
L 133.43961 190.18867 
L 149.744805 204.324139 
L 166.05 214.857584 
L 182.355195 225.39467 
L 198.66039 234.210406 
L 214.965584 242.265538 
L 231.270779 250.555538 
L 247.575974 257.758698 
L 263.881169 264.083649 
L 280.186364 271.964754 
" clip-path="url(#pfce35862d2)" style="fill: none; stroke: #bf00bf; stroke-width: 1.5; stroke-linecap: square"/>
   </g>
   <g id="LineCollection_4">
    <path d="M 51.913636 52.262555 
L 51.913636 49.99332 
" clip-path="url(#pfce35862d2)" style="fill: none; stroke: #bf00bf; stroke-width: 2"/>
    <path d="M 68.218831 81.658646 
L 68.218831 79.046974 
" clip-path="url(#pfce35862d2)" style="fill: none; stroke: #bf00bf; stroke-width: 2"/>
    <path d="M 84.524026 121.517972 
L 84.524026 119.488924 
" clip-path="url(#pfce35862d2)" style="fill: none; stroke: #bf00bf; stroke-width: 2"/>
    <path d="M 100.829221 149.089686 
L 100.829221 147.394894 
" clip-path="url(#pfce35862d2)" style="fill: none; stroke: #bf00bf; stroke-width: 2"/>
    <path d="M 117.134416 171.715238 
L 117.134416 169.770421 
" clip-path="url(#pfce35862d2)" style="fill: none; stroke: #bf00bf; stroke-width: 2"/>
    <path d="M 133.43961 191.330498 
L 133.43961 189.046843 
" clip-path="url(#pfce35862d2)" style="fill: none; stroke: #bf00bf; stroke-width: 2"/>
    <path d="M 149.744805 205.320227 
L 149.744805 203.328052 
" clip-path="url(#pfce35862d2)" style="fill: none; stroke: #bf00bf; stroke-width: 2"/>
    <path d="M 166.05 215.715955 
L 166.05 213.999213 
" clip-path="url(#pfce35862d2)" style="fill: none; stroke: #bf00bf; stroke-width: 2"/>
    <path d="M 182.355195 225.793089 
L 182.355195 224.996251 
" clip-path="url(#pfce35862d2)" style="fill: none; stroke: #bf00bf; stroke-width: 2"/>
    <path d="M 198.66039 234.563302 
L 198.66039 233.857509 
" clip-path="url(#pfce35862d2)" style="fill: none; stroke: #bf00bf; stroke-width: 2"/>
    <path d="M 214.965584 242.551532 
L 214.965584 241.979544 
" clip-path="url(#pfce35862d2)" style="fill: none; stroke: #bf00bf; stroke-width: 2"/>
    <path d="M 231.270779 250.943127 
L 231.270779 250.16795 
" clip-path="url(#pfce35862d2)" style="fill: none; stroke: #bf00bf; stroke-width: 2"/>
    <path d="M 247.575974 258.122214 
L 247.575974 257.395182 
" clip-path="url(#pfce35862d2)" style="fill: none; stroke: #bf00bf; stroke-width: 2"/>
    <path d="M 263.881169 264.394966 
L 263.881169 263.772332 
" clip-path="url(#pfce35862d2)" style="fill: none; stroke: #bf00bf; stroke-width: 2"/>
    <path d="M 280.186364 272.25973 
L 280.186364 271.669778 
" clip-path="url(#pfce35862d2)" style="fill: none; stroke: #bf00bf; stroke-width: 2"/>
   </g>
   <g id="line2d_19">
    <defs>
     <path id="mc8633f67bf" d="M 3 0 
L -3 -0 
" style="stroke: #bf00bf; stroke-width: 2"/>
    </defs>
    <g clip-path="url(#pfce35862d2)">
     <use xlink:href="#mc8633f67bf" x="51.913636" y="52.262555" style="fill: #bf00bf; stroke: #bf00bf; stroke-width: 2"/>
     <use xlink:href="#mc8633f67bf" x="68.218831" y="81.658646" style="fill: #bf00bf; stroke: #bf00bf; stroke-width: 2"/>
     <use xlink:href="#mc8633f67bf" x="84.524026" y="121.517972" style="fill: #bf00bf; stroke: #bf00bf; stroke-width: 2"/>
     <use xlink:href="#mc8633f67bf" x="100.829221" y="149.089686" style="fill: #bf00bf; stroke: #bf00bf; stroke-width: 2"/>
     <use xlink:href="#mc8633f67bf" x="117.134416" y="171.715238" style="fill: #bf00bf; stroke: #bf00bf; stroke-width: 2"/>
     <use xlink:href="#mc8633f67bf" x="133.43961" y="191.330498" style="fill: #bf00bf; stroke: #bf00bf; stroke-width: 2"/>
     <use xlink:href="#mc8633f67bf" x="149.744805" y="205.320227" style="fill: #bf00bf; stroke: #bf00bf; stroke-width: 2"/>
     <use xlink:href="#mc8633f67bf" x="166.05" y="215.715955" style="fill: #bf00bf; stroke: #bf00bf; stroke-width: 2"/>
     <use xlink:href="#mc8633f67bf" x="182.355195" y="225.793089" style="fill: #bf00bf; stroke: #bf00bf; stroke-width: 2"/>
     <use xlink:href="#mc8633f67bf" x="198.66039" y="234.563302" style="fill: #bf00bf; stroke: #bf00bf; stroke-width: 2"/>
     <use xlink:href="#mc8633f67bf" x="214.965584" y="242.551532" style="fill: #bf00bf; stroke: #bf00bf; stroke-width: 2"/>
     <use xlink:href="#mc8633f67bf" x="231.270779" y="250.943127" style="fill: #bf00bf; stroke: #bf00bf; stroke-width: 2"/>
     <use xlink:href="#mc8633f67bf" x="247.575974" y="258.122214" style="fill: #bf00bf; stroke: #bf00bf; stroke-width: 2"/>
     <use xlink:href="#mc8633f67bf" x="263.881169" y="264.394966" style="fill: #bf00bf; stroke: #bf00bf; stroke-width: 2"/>
     <use xlink:href="#mc8633f67bf" x="280.186364" y="272.25973" style="fill: #bf00bf; stroke: #bf00bf; stroke-width: 2"/>
    </g>
   </g>
   <g id="line2d_20">
    <g clip-path="url(#pfce35862d2)">
     <use xlink:href="#mc8633f67bf" x="51.913636" y="49.99332" style="fill: #bf00bf; stroke: #bf00bf; stroke-width: 2"/>
     <use xlink:href="#mc8633f67bf" x="68.218831" y="79.046974" style="fill: #bf00bf; stroke: #bf00bf; stroke-width: 2"/>
     <use xlink:href="#mc8633f67bf" x="84.524026" y="119.488924" style="fill: #bf00bf; stroke: #bf00bf; stroke-width: 2"/>
     <use xlink:href="#mc8633f67bf" x="100.829221" y="147.394894" style="fill: #bf00bf; stroke: #bf00bf; stroke-width: 2"/>
     <use xlink:href="#mc8633f67bf" x="117.134416" y="169.770421" style="fill: #bf00bf; stroke: #bf00bf; stroke-width: 2"/>
     <use xlink:href="#mc8633f67bf" x="133.43961" y="189.046843" style="fill: #bf00bf; stroke: #bf00bf; stroke-width: 2"/>
     <use xlink:href="#mc8633f67bf" x="149.744805" y="203.328052" style="fill: #bf00bf; stroke: #bf00bf; stroke-width: 2"/>
     <use xlink:href="#mc8633f67bf" x="166.05" y="213.999213" style="fill: #bf00bf; stroke: #bf00bf; stroke-width: 2"/>
     <use xlink:href="#mc8633f67bf" x="182.355195" y="224.996251" style="fill: #bf00bf; stroke: #bf00bf; stroke-width: 2"/>
     <use xlink:href="#mc8633f67bf" x="198.66039" y="233.857509" style="fill: #bf00bf; stroke: #bf00bf; stroke-width: 2"/>
     <use xlink:href="#mc8633f67bf" x="214.965584" y="241.979544" style="fill: #bf00bf; stroke: #bf00bf; stroke-width: 2"/>
     <use xlink:href="#mc8633f67bf" x="231.270779" y="250.16795" style="fill: #bf00bf; stroke: #bf00bf; stroke-width: 2"/>
     <use xlink:href="#mc8633f67bf" x="247.575974" y="257.395182" style="fill: #bf00bf; stroke: #bf00bf; stroke-width: 2"/>
     <use xlink:href="#mc8633f67bf" x="263.881169" y="263.772332" style="fill: #bf00bf; stroke: #bf00bf; stroke-width: 2"/>
     <use xlink:href="#mc8633f67bf" x="280.186364" y="271.669778" style="fill: #bf00bf; stroke: #bf00bf; stroke-width: 2"/>
    </g>
   </g>
   <g id="line2d_21">
    <path d="M 51.913636 160.996223 
L 68.218831 169.022809 
L 84.524026 178.120126 
L 100.829221 186.078876 
L 117.134416 196.464397 
L 133.43961 201.651379 
L 149.744805 206.092885 
L 166.05 212.195665 
L 182.355195 216.853872 
L 198.66039 218.578106 
L 214.965584 223.304946 
L 231.270779 229.194338 
L 247.575974 233.542068 
L 263.881169 236.935889 
L 280.186364 241.023324 
" clip-path="url(#pfce35862d2)" style="fill: none; stroke: #ff0000; stroke-width: 1.5; stroke-linecap: square"/>
   </g>
   <g id="line2d_22">
    <path d="M 51.913636 112.241624 
L 68.218831 133.706587 
L 84.524026 152.291714 
L 100.829221 170.513658 
L 117.134416 184.425496 
L 133.43961 194.533133 
L 149.744805 204.418316 
L 166.05 212.660169 
L 182.355195 220.27409 
L 198.66039 224.289058 
L 214.965584 231.363966 
L 231.270779 237.73015 
L 247.575974 243.140011 
L 263.881169 248.728799 
L 280.186364 252.820679 
" clip-path="url(#pfce35862d2)" style="fill: none; stroke: #000000; stroke-width: 1.5; stroke-linecap: square"/>
   </g>
   <g id="line2d_23">
    <path d="M 51.913636 82.676589 
L 68.218831 108.7692 
L 84.524026 134.56465 
L 100.829221 159.14473 
L 117.134416 179.296588 
L 133.43961 193.6079 
L 149.744805 203.397976 
L 166.05 213.476025 
L 182.355195 221.878943 
L 198.66039 230.348772 
L 214.965584 236.555165 
L 231.270779 244.080019 
L 247.575974 250.059486 
L 263.881169 258.023234 
L 280.186364 262.924567 
" clip-path="url(#pfce35862d2)" style="fill: none; stroke: #0000ff; stroke-width: 1.5; stroke-linecap: square"/>
   </g>
   <g id="line2d_24">
    <path d="M 51.913636 51.127938 
L 68.218831 80.35281 
L 84.524026 120.503448 
L 100.829221 148.24229 
L 117.134416 170.742829 
L 133.43961 190.18867 
L 149.744805 204.324139 
L 166.05 214.857584 
L 182.355195 225.39467 
L 198.66039 234.210406 
L 214.965584 242.265538 
L 231.270779 250.555538 
L 247.575974 257.758698 
L 263.881169 264.083649 
L 280.186364 271.964754 
" clip-path="url(#pfce35862d2)" style="fill: none; stroke: #bf00bf; stroke-width: 1.5; stroke-linecap: square"/>
   </g>
   <g id="patch_3">
    <path d="M 40.5 288.36 
L 40.5 38.88 
" style="fill: none; stroke: #000000; stroke-width: 1.6; stroke-linejoin: miter; stroke-linecap: square"/>
   </g>
   <g id="patch_4">
    <path d="M 291.6 288.36 
L 291.6 38.88 
" style="fill: none; stroke: #000000; stroke-width: 1.6; stroke-linejoin: miter; stroke-linecap: square"/>
   </g>
   <g id="patch_5">
    <path d="M 40.5 288.36 
L 291.6 288.36 
" style="fill: none; stroke: #000000; stroke-width: 1.6; stroke-linejoin: miter; stroke-linecap: square"/>
   </g>
   <g id="patch_6">
    <path d="M 40.5 38.88 
L 291.6 38.88 
" style="fill: none; stroke: #000000; stroke-width: 1.6; stroke-linejoin: miter; stroke-linecap: square"/>
   </g>
   <g id="legend_1">
    <g id="patch_7">
     <path d="M 209.120625 118.935 
L 283.2 118.935 
Q 285.6 118.935 285.6 116.535 
L 285.6 47.28 
Q 285.6 44.88 283.2 44.88 
L 209.120625 44.88 
Q 206.720625 44.88 206.720625 47.28 
L 206.720625 116.535 
Q 206.720625 118.935 209.120625 118.935 
z
" style="fill: #ffffff; opacity: 0.8"/>
    </g>
    <g id="LineCollection_5">
     <path d="M 223.520625 60.598125 
L 223.520625 48.598125 
" style="fill: none; stroke: #ff0000; stroke-width: 2"/>
    </g>
    <g id="line2d_25">
     <g>
      <use xlink:href="#m45225a1c03" x="223.520625" y="60.598125" style="fill: #ff0000; stroke: #ff0000; stroke-width: 2"/>
     </g>
    </g>
    <g id="line2d_26">
     <g>
      <use xlink:href="#m45225a1c03" x="223.520625" y="48.598125" style="fill: #ff0000; stroke: #ff0000; stroke-width: 2"/>
     </g>
    </g>
    <g id="line2d_27">
     <path d="M 211.520625 54.598125 
L 235.520625 54.598125 
" style="fill: none; stroke: #ff0000; stroke-width: 1.5; stroke-linecap: square"/>
    </g>
    <g id="line2d_28"/>
    <g id="text_9">
     <!-- M=4 -->
     <g transform="translate(245.120625 58.798125) scale(0.12 -0.12)">
      <defs>
       <path id="DejaVuSans-4d" d="M 628 4666 
L 1569 4666 
L 2759 1491 
L 3956 4666 
L 4897 4666 
L 4897 0 
L 4281 0 
L 4281 4097 
L 3078 897 
L 2444 897 
L 1241 4097 
L 1241 0 
L 628 0 
L 628 4666 
z
" transform="scale(0.015625)"/>
       <path id="DejaVuSans-3d" d="M 678 2906 
L 4684 2906 
L 4684 2381 
L 678 2381 
L 678 2906 
z
M 678 1631 
L 4684 1631 
L 4684 1100 
L 678 1100 
L 678 1631 
z
" transform="scale(0.015625)"/>
       <path id="DejaVuSans-34" d="M 2419 4116 
L 825 1625 
L 2419 1625 
L 2419 4116 
z
M 2253 4666 
L 3047 4666 
L 3047 1625 
L 3713 1625 
L 3713 1100 
L 3047 1100 
L 3047 0 
L 2419 0 
L 2419 1100 
L 313 1100 
L 313 1709 
L 2253 4666 
z
" transform="scale(0.015625)"/>
      </defs>
      <use xlink:href="#DejaVuSans-4d"/>
      <use xlink:href="#DejaVuSans-3d" x="86.279297"/>
      <use xlink:href="#DejaVuSans-34" x="170.068359"/>
     </g>
    </g>
    <g id="LineCollection_6">
     <path d="M 223.520625 78.211875 
L 223.520625 66.211875 
" style="fill: none; stroke: #000000; stroke-width: 2"/>
    </g>
    <g id="line2d_29">
     <g>
      <use xlink:href="#m437c22b79f" x="223.520625" y="78.211875" style="stroke: #000000; stroke-width: 2"/>
     </g>
    </g>
    <g id="line2d_30">
     <g>
      <use xlink:href="#m437c22b79f" x="223.520625" y="66.211875" style="stroke: #000000; stroke-width: 2"/>
     </g>
    </g>
    <g id="line2d_31">
     <path d="M 211.520625 72.211875 
L 235.520625 72.211875 
" style="fill: none; stroke: #000000; stroke-width: 1.5; stroke-linecap: square"/>
    </g>
    <g id="line2d_32"/>
    <g id="text_10">
     <!-- M=8 -->
     <g transform="translate(245.120625 76.411875) scale(0.12 -0.12)">
      <use xlink:href="#DejaVuSans-4d"/>
      <use xlink:href="#DejaVuSans-3d" x="86.279297"/>
      <use xlink:href="#DejaVuSans-38" x="170.068359"/>
     </g>
    </g>
    <g id="LineCollection_7">
     <path d="M 223.520625 95.825625 
L 223.520625 83.825625 
" style="fill: none; stroke: #0000ff; stroke-width: 2"/>
    </g>
    <g id="line2d_33">
     <g>
      <use xlink:href="#ma8adf13112" x="223.520625" y="95.825625" style="fill: #0000ff; stroke: #0000ff; stroke-width: 2"/>
     </g>
    </g>
    <g id="line2d_34">
     <g>
      <use xlink:href="#ma8adf13112" x="223.520625" y="83.825625" style="fill: #0000ff; stroke: #0000ff; stroke-width: 2"/>
     </g>
    </g>
    <g id="line2d_35">
     <path d="M 211.520625 89.825625 
L 235.520625 89.825625 
" style="fill: none; stroke: #0000ff; stroke-width: 1.5; stroke-linecap: square"/>
    </g>
    <g id="line2d_36"/>
    <g id="text_11">
     <!-- M=12 -->
     <g transform="translate(245.120625 94.025625) scale(0.12 -0.12)">
      <defs>
       <path id="DejaVuSans-32" d="M 1228 531 
L 3431 531 
L 3431 0 
L 469 0 
L 469 531 
Q 828 903 1448 1529 
Q 2069 2156 2228 2338 
Q 2531 2678 2651 2914 
Q 2772 3150 2772 3378 
Q 2772 3750 2511 3984 
Q 2250 4219 1831 4219 
Q 1534 4219 1204 4116 
Q 875 4013 500 3803 
L 500 4441 
Q 881 4594 1212 4672 
Q 1544 4750 1819 4750 
Q 2544 4750 2975 4387 
Q 3406 4025 3406 3419 
Q 3406 3131 3298 2873 
Q 3191 2616 2906 2266 
Q 2828 2175 2409 1742 
Q 1991 1309 1228 531 
z
" transform="scale(0.015625)"/>
      </defs>
      <use xlink:href="#DejaVuSans-4d"/>
      <use xlink:href="#DejaVuSans-3d" x="86.279297"/>
      <use xlink:href="#DejaVuSans-31" x="170.068359"/>
      <use xlink:href="#DejaVuSans-32" x="233.691406"/>
     </g>
    </g>
    <g id="LineCollection_8">
     <path d="M 223.520625 113.439375 
L 223.520625 101.439375 
" style="fill: none; stroke: #bf00bf; stroke-width: 2"/>
    </g>
    <g id="line2d_37">
     <g>
      <use xlink:href="#mc8633f67bf" x="223.520625" y="113.439375" style="fill: #bf00bf; stroke: #bf00bf; stroke-width: 2"/>
     </g>
    </g>
    <g id="line2d_38">
     <g>
      <use xlink:href="#mc8633f67bf" x="223.520625" y="101.439375" style="fill: #bf00bf; stroke: #bf00bf; stroke-width: 2"/>
     </g>
    </g>
    <g id="line2d_39">
     <path d="M 211.520625 107.439375 
L 235.520625 107.439375 
" style="fill: none; stroke: #bf00bf; stroke-width: 1.5; stroke-linecap: square"/>
    </g>
    <g id="line2d_40"/>
    <g id="text_12">
     <!-- M=16 -->
     <g transform="translate(245.120625 111.639375) scale(0.12 -0.12)">
      <defs>
       <path id="DejaVuSans-36" d="M 2113 2584 
Q 1688 2584 1439 2293 
Q 1191 2003 1191 1497 
Q 1191 994 1439 701 
Q 1688 409 2113 409 
Q 2538 409 2786 701 
Q 3034 994 3034 1497 
Q 3034 2003 2786 2293 
Q 2538 2584 2113 2584 
z
M 3366 4563 
L 3366 3988 
Q 3128 4100 2886 4159 
Q 2644 4219 2406 4219 
Q 1781 4219 1451 3797 
Q 1122 3375 1075 2522 
Q 1259 2794 1537 2939 
Q 1816 3084 2150 3084 
Q 2853 3084 3261 2657 
Q 3669 2231 3669 1497 
Q 3669 778 3244 343 
Q 2819 -91 2113 -91 
Q 1303 -91 875 529 
Q 447 1150 447 2328 
Q 447 3434 972 4092 
Q 1497 4750 2381 4750 
Q 2619 4750 2861 4703 
Q 3103 4656 3366 4563 
z
" transform="scale(0.015625)"/>
      </defs>
      <use xlink:href="#DejaVuSans-4d"/>
      <use xlink:href="#DejaVuSans-3d" x="86.279297"/>
      <use xlink:href="#DejaVuSans-31" x="170.068359"/>
      <use xlink:href="#DejaVuSans-36" x="233.691406"/>
     </g>
    </g>
   </g>
  </g>
 </g>
 <defs>
  <clipPath id="pfce35862d2">
   <rect x="40.5" y="38.88" width="251.1" height="249.48"/>
  </clipPath>
 </defs>
</svg>
