<?xml version="1.0" encoding="utf-8" standalone="no"?>
<!DOCTYPE svg PUBLIC "-//W3C//DTD SVG 1.1//EN"
  "http://www.w3.org/Graphics/SVG/1.1/DTD/svg11.dtd">
<svg xmlns:xlink="http://www.w3.org/1999/xlink" width="324pt" height="324pt" viewBox="0 0 324 324" xmlns="http://www.w3.org/2000/svg" version="1.1">
 <metadata>
  <rdf:RDF xmlns:dc="http://purl.org/dc/elements/1.1/" xmlns:cc="http://creativecommons.org/ns#" xmlns:rdf="http://www.w3.org/1999/02/22-rdf-syntax-ns#">
   <cc:Work>
    <dc:type rdf:resource="http://purl.org/dc/dcmitype/StillImage"/>
    <dc:date>2026-01-06T21:39:28.591654</dc:date>
    <dc:format>image/svg+xml</dc:format>
    <dc:creator>
     <cc:Agent>
      <dc:title>Matplotlib v3.8.0, https://matplotlib.org/</dc:title>
     </cc:Agent>
    </dc:creator>
   </cc:Work>
  </rdf:RDF>
 </metadata>
 <defs>
  <style type="text/css">*{stroke-linejoin: round; stroke-linecap: butt}</style>
 </defs>
 <g id="figure_1">
  <g id="patch_1">
   <path d="M 0 324 
L 324 324 
L 324 0 
L 0 0 
z
" style="fill: #ffffff"/>
  </g>
  <g id="axes_1">
   <g id="patch_2">
    <path d="M 40.5 288.36 
L 291.6 288.36 
L 291.6 38.88 
L 40.5 38.88 
z
" style="fill: #ffffff"/>
   </g>
   <g id="matplotlib.axis_1">
    <g id="xtick_1">
     <g id="line2d_1">
      <defs>
       <path id="mc49ca612c8" d="M 0 0 
L 0 8 
" style="stroke: #000000; stroke-width: 1.5"/>
      </defs>
      <g>
       <use xlink:href="#mc49ca612c8" x="117.134416" y="288.36" style="stroke: #000000; stroke-width: 1.5"/>
      </g>
     </g>
     <g id="text_1">
      <!-- 7 -->
      <g transform="translate(113.316916 308.978125) scale(0.12 -0.12)">
       <defs>
        <path id="DejaVuSans-37" d="M 525 4666 
L 3525 4666 
L 3525 4397 
L 1831 0 
L 1172 0 
L 2766 4134 
L 525 4134 
L 525 4666 
z
" transform="scale(0.015625)"/>
       </defs>
       <use xlink:href="#DejaVuSans-37"/>
      </g>
     </g>
    </g>
    <g id="xtick_2">
     <g id="line2d_2">
      <g>
       <use xlink:href="#mc49ca612c8" x="198.66039" y="288.36" style="stroke: #000000; stroke-width: 1.5"/>
      </g>
     </g>
     <g id="text_2">
      <!-- 8 -->
      <g transform="translate(194.84289 308.978125) scale(0.12 -0.12)">
       <defs>
        <path id="DejaVuSans-38" d="M 2034 2216 
Q 1584 2216 1326 1975 
Q 1069 1734 1069 1313 
Q 1069 891 1326 650 
Q 1584 409 2034 409 
Q 2484 409 2743 651 
Q 3003 894 3003 1313 
Q 3003 1734 2745 1975 
Q 2488 2216 2034 2216 
z
M 1403 2484 
Q 997 2584 770 2862 
Q 544 3141 544 3541 
Q 544 4100 942 4425 
Q 1341 4750 2034 4750 
Q 2731 4750 3128 4425 
Q 3525 4100 3525 3541 
Q 3525 3141 3298 2862 
Q 3072 2584 2669 2484 
Q 3125 2378 3379 2068 
Q 3634 1759 3634 1313 
Q 3634 634 3220 271 
Q 2806 -91 2034 -91 
Q 1263 -91 848 271 
Q 434 634 434 1313 
Q 434 1759 690 2068 
Q 947 2378 1403 2484 
z
M 1172 3481 
Q 1172 3119 1398 2916 
Q 1625 2713 2034 2713 
Q 2441 2713 2670 2916 
Q 2900 3119 2900 3481 
Q 2900 3844 2670 4047 
Q 2441 4250 2034 4250 
Q 1625 4250 1398 4047 
Q 1172 3844 1172 3481 
z
" transform="scale(0.015625)"/>
       </defs>
       <use xlink:href="#DejaVuSans-38"/>
      </g>
     </g>
    </g>
    <g id="xtick_3">
     <g id="line2d_3">
      <g>
       <use xlink:href="#mc49ca612c8" x="280.186364" y="288.36" style="stroke: #000000; stroke-width: 1.5"/>
      </g>
     </g>
     <g id="text_3">
      <!-- 9 -->
      <g transform="translate(276.368864 308.978125) scale(0.12 -0.12)">
       <defs>
        <path id="DejaVuSans-39" d="M 703 97 
L 703 672 
Q 941 559 1184 500 
Q 1428 441 1663 441 
Q 2288 441 2617 861 
Q 2947 1281 2994 2138 
Q 2813 1869 2534 1725 
Q 2256 1581 1919 1581 
Q 1219 1581 811 2004 
Q 403 2428 403 3163 
Q 403 3881 828 4315 
Q 1253 4750 1959 4750 
Q 2769 4750 3195 4129 
Q 3622 3509 3622 2328 
Q 3622 1225 3098 567 
Q 2575 -91 1691 -91 
Q 1453 -91 1209 -44 
Q 966 3 703 97 
z
M 1959 2075 
Q 2384 2075 2632 2365 
Q 2881 2656 2881 3163 
Q 2881 3666 2632 3958 
Q 2384 4250 1959 4250 
Q 1534 4250 1286 3958 
Q 1038 3666 1038 3163 
Q 1038 2656 1286 2365 
Q 1534 2075 1959 2075 
z
" transform="scale(0.015625)"/>
       </defs>
       <use xlink:href="#DejaVuSans-39"/>
      </g>
     </g>
    </g>
   </g>
   <g id="matplotlib.axis_2">
    <g id="ytick_1">
     <g id="line2d_4">
      <defs>
       <path id="m3183cbc556" d="M 0 0 
L -8 0 
" style="stroke: #000000; stroke-width: 1.5"/>
      </defs>
      <g>
       <use xlink:href="#m3183cbc556" x="40.5" y="288.36" style="stroke: #000000; stroke-width: 1.5"/>
      </g>
     </g>
     <g id="text_4">
      <!-- 0.3 -->
      <g transform="translate(9.91625 292.919062) scale(0.12 -0.12)">
       <defs>
        <path id="DejaVuSans-30" d="M 2034 4250 
Q 1547 4250 1301 3770 
Q 1056 3291 1056 2328 
Q 1056 1369 1301 889 
Q 1547 409 2034 409 
Q 2525 409 2770 889 
Q 3016 1369 3016 2328 
Q 3016 3291 2770 3770 
Q 2525 4250 2034 4250 
z
M 2034 4750 
Q 2819 4750 3233 4129 
Q 3647 3509 3647 2328 
Q 3647 1150 3233 529 
Q 2819 -91 2034 -91 
Q 1250 -91 836 529 
Q 422 1150 422 2328 
Q 422 3509 836 4129 
Q 1250 4750 2034 4750 
z
" transform="scale(0.015625)"/>
        <path id="DejaVuSans-2e" d="M 684 794 
L 1344 794 
L 1344 0 
L 684 0 
L 684 794 
z
" transform="scale(0.015625)"/>
        <path id="DejaVuSans-33" d="M 2597 2516 
Q 3050 2419 3304 2112 
Q 3559 1806 3559 1356 
Q 3559 666 3084 287 
Q 2609 -91 1734 -91 
Q 1441 -91 1130 -33 
Q 819 25 488 141 
L 488 750 
Q 750 597 1062 519 
Q 1375 441 1716 441 
Q 2309 441 2620 675 
Q 2931 909 2931 1356 
Q 2931 1769 2642 2001 
Q 2353 2234 1838 2234 
L 1294 2234 
L 1294 2753 
L 1863 2753 
Q 2328 2753 2575 2939 
Q 2822 3125 2822 3475 
Q 2822 3834 2567 4026 
Q 2313 4219 1838 4219 
Q 1578 4219 1281 4162 
Q 984 4106 628 3988 
L 628 4550 
Q 988 4650 1302 4700 
Q 1616 4750 1894 4750 
Q 2613 4750 3031 4423 
Q 3450 4097 3450 3541 
Q 3450 3153 3228 2886 
Q 3006 2619 2597 2516 
z
" transform="scale(0.015625)"/>
       </defs>
       <use xlink:href="#DejaVuSans-30"/>
       <use xlink:href="#DejaVuSans-2e" x="63.623047"/>
       <use xlink:href="#DejaVuSans-33" x="95.410156"/>
      </g>
     </g>
    </g>
    <g id="ytick_2">
     <g id="line2d_5">
      <g>
       <use xlink:href="#m3183cbc556" x="40.5" y="205.2" style="stroke: #000000; stroke-width: 1.5"/>
      </g>
     </g>
     <g id="text_5">
      <!-- 0.6 -->
      <g transform="translate(9.91625 209.759062) scale(0.12 -0.12)">
       <defs>
        <path id="DejaVuSans-36" d="M 2113 2584 
Q 1688 2584 1439 2293 
Q 1191 2003 1191 1497 
Q 1191 994 1439 701 
Q 1688 409 2113 409 
Q 2538 409 2786 701 
Q 3034 994 3034 1497 
Q 3034 2003 2786 2293 
Q 2538 2584 2113 2584 
z
M 3366 4563 
L 3366 3988 
Q 3128 4100 2886 4159 
Q 2644 4219 2406 4219 
Q 1781 4219 1451 3797 
Q 1122 3375 1075 2522 
Q 1259 2794 1537 2939 
Q 1816 3084 2150 3084 
Q 2853 3084 3261 2657 
Q 3669 2231 3669 1497 
Q 3669 778 3244 343 
Q 2819 -91 2113 -91 
Q 1303 -91 875 529 
Q 447 1150 447 2328 
Q 447 3434 972 4092 
Q 1497 4750 2381 4750 
Q 2619 4750 2861 4703 
Q 3103 4656 3366 4563 
z
" transform="scale(0.015625)"/>
       </defs>
       <use xlink:href="#DejaVuSans-30"/>
       <use xlink:href="#DejaVuSans-2e" x="63.623047"/>
       <use xlink:href="#DejaVuSans-36" x="95.410156"/>
      </g>
     </g>
    </g>
    <g id="ytick_3">
     <g id="line2d_6">
      <g>
       <use xlink:href="#m3183cbc556" x="40.5" y="122.04" style="stroke: #000000; stroke-width: 1.5"/>
      </g>
     </g>
     <g id="text_6">
      <!-- 0.9 -->
      <g transform="translate(9.91625 126.599062) scale(0.12 -0.12)">
       <use xlink:href="#DejaVuSans-30"/>
       <use xlink:href="#DejaVuSans-2e" x="63.623047"/>
       <use xlink:href="#DejaVuSans-39" x="95.410156"/>
      </g>
     </g>
    </g>
    <g id="ytick_4">
     <g id="line2d_7">
      <g>
       <use xlink:href="#m3183cbc556" x="40.5" y="38.88" style="stroke: #000000; stroke-width: 1.5"/>
      </g>
     </g>
     <g id="text_7">
      <!-- 1.2 -->
      <g transform="translate(9.91625 43.439062) scale(0.12 -0.12)">
       <defs>
        <path id="DejaVuSans-31" d="M 794 531 
L 1825 531 
L 1825 4091 
L 703 3866 
L 703 4441 
L 1819 4666 
L 2450 4666 
L 2450 531 
L 3481 531 
L 3481 0 
L 794 0 
L 794 531 
z
" transform="scale(0.015625)"/>
        <path id="DejaVuSans-32" d="M 1228 531 
L 3431 531 
L 3431 0 
L 469 0 
L 469 531 
Q 828 903 1448 1529 
Q 2069 2156 2228 2338 
Q 2531 2678 2651 2914 
Q 2772 3150 2772 3378 
Q 2772 3750 2511 3984 
Q 2250 4219 1831 4219 
Q 1534 4219 1204 4116 
Q 875 4013 500 3803 
L 500 4441 
Q 881 4594 1212 4672 
Q 1544 4750 1819 4750 
Q 2544 4750 2975 4387 
Q 3406 4025 3406 3419 
Q 3406 3131 3298 2873 
Q 3191 2616 2906 2266 
Q 2828 2175 2409 1742 
Q 1991 1309 1228 531 
z
" transform="scale(0.015625)"/>
       </defs>
       <use xlink:href="#DejaVuSans-31"/>
       <use xlink:href="#DejaVuSans-2e" x="63.623047"/>
       <use xlink:href="#DejaVuSans-32" x="95.410156"/>
      </g>
     </g>
    </g>
   </g>
   <g id="line2d_8">
    <path d="M 51.913636 173.187842 
L 68.218831 180.446101 
L 84.524026 188.672596 
L 100.829221 195.869512 
L 117.134416 205.260902 
L 133.43961 209.951372 
L 149.744805 213.967724 
L 166.05 219.486329 
L 182.355195 223.698639 
L 198.66039 225.257825 
L 214.965584 229.532199 
L 231.270779 234.857841 
L 247.575974 238.789395 
L 263.881169 241.85835 
L 280.186364 245.554524 
" clip-path="url(#p6d1ef5ed4f)" style="fill: none; stroke: #ff0000; stroke-width: 1.5; stroke-linecap: square"/>
   </g>
   <g id="LineCollection_1">
    <path d="M 51.913636 174.085599 
L 51.913636 172.290084 
" clip-path="url(#p6d1ef5ed4f)" style="fill: none; stroke: #ff0000; stroke-width: 2"/>
    <path d="M 68.218831 181.476164 
L 68.218831 179.416038 
" clip-path="url(#p6d1ef5ed4f)" style="fill: none; stroke: #ff0000; stroke-width: 2"/>
    <path d="M 84.524026 189.286901 
L 84.524026 188.058292 
" clip-path="url(#p6d1ef5ed4f)" style="fill: none; stroke: #ff0000; stroke-width: 2"/>
    <path d="M 100.829221 196.904184 
L 100.829221 194.83484 
" clip-path="url(#p6d1ef5ed4f)" style="fill: none; stroke: #ff0000; stroke-width: 2"/>
    <path d="M 117.134416 205.998796 
L 117.134416 204.523008 
" clip-path="url(#p6d1ef5ed4f)" style="fill: none; stroke: #ff0000; stroke-width: 2"/>
    <path d="M 133.43961 210.524937 
L 133.43961 209.377807 
" clip-path="url(#p6d1ef5ed4f)" style="fill: none; stroke: #ff0000; stroke-width: 2"/>
    <path d="M 149.744805 214.690235 
L 149.744805 213.245213 
" clip-path="url(#p6d1ef5ed4f)" style="fill: none; stroke: #ff0000; stroke-width: 2"/>
    <path d="M 166.05 220.122956 
L 166.05 218.849703 
" clip-path="url(#p6d1ef5ed4f)" style="fill: none; stroke: #ff0000; stroke-width: 2"/>
    <path d="M 182.355195 224.238805 
L 182.355195 223.158473 
" clip-path="url(#p6d1ef5ed4f)" style="fill: none; stroke: #ff0000; stroke-width: 2"/>
    <path d="M 198.66039 225.683709 
L 198.66039 224.831941 
" clip-path="url(#p6d1ef5ed4f)" style="fill: none; stroke: #ff0000; stroke-width: 2"/>
    <path d="M 214.965584 230.146597 
L 214.965584 228.9178 
" clip-path="url(#p6d1ef5ed4f)" style="fill: none; stroke: #ff0000; stroke-width: 2"/>
    <path d="M 231.270779 235.095 
L 231.270779 234.620682 
" clip-path="url(#p6d1ef5ed4f)" style="fill: none; stroke: #ff0000; stroke-width: 2"/>
    <path d="M 247.575974 239.389508 
L 247.575974 238.189281 
" clip-path="url(#p6d1ef5ed4f)" style="fill: none; stroke: #ff0000; stroke-width: 2"/>
    <path d="M 263.881169 242.070746 
L 263.881169 241.645953 
" clip-path="url(#p6d1ef5ed4f)" style="fill: none; stroke: #ff0000; stroke-width: 2"/>
    <path d="M 280.186364 245.806858 
L 280.186364 245.30219 
" clip-path="url(#p6d1ef5ed4f)" style="fill: none; stroke: #ff0000; stroke-width: 2"/>
   </g>
   <g id="line2d_9">
    <defs>
     <path id="me9e10f9b54" d="M 3 0 
L -3 -0 
" style="stroke: #ff0000; stroke-width: 2"/>
    </defs>
    <g clip-path="url(#p6d1ef5ed4f)">
     <use xlink:href="#me9e10f9b54" x="51.913636" y="174.085599" style="fill: #ff0000; stroke: #ff0000; stroke-width: 2"/>
     <use xlink:href="#me9e10f9b54" x="68.218831" y="181.476164" style="fill: #ff0000; stroke: #ff0000; stroke-width: 2"/>
     <use xlink:href="#me9e10f9b54" x="84.524026" y="189.286901" style="fill: #ff0000; stroke: #ff0000; stroke-width: 2"/>
     <use xlink:href="#me9e10f9b54" x="100.829221" y="196.904184" style="fill: #ff0000; stroke: #ff0000; stroke-width: 2"/>
     <use xlink:href="#me9e10f9b54" x="117.134416" y="205.998796" style="fill: #ff0000; stroke: #ff0000; stroke-width: 2"/>
     <use xlink:href="#me9e10f9b54" x="133.43961" y="210.524937" style="fill: #ff0000; stroke: #ff0000; stroke-width: 2"/>
     <use xlink:href="#me9e10f9b54" x="149.744805" y="214.690235" style="fill: #ff0000; stroke: #ff0000; stroke-width: 2"/>
     <use xlink:href="#me9e10f9b54" x="166.05" y="220.122956" style="fill: #ff0000; stroke: #ff0000; stroke-width: 2"/>
     <use xlink:href="#me9e10f9b54" x="182.355195" y="224.238805" style="fill: #ff0000; stroke: #ff0000; stroke-width: 2"/>
     <use xlink:href="#me9e10f9b54" x="198.66039" y="225.683709" style="fill: #ff0000; stroke: #ff0000; stroke-width: 2"/>
     <use xlink:href="#me9e10f9b54" x="214.965584" y="230.146597" style="fill: #ff0000; stroke: #ff0000; stroke-width: 2"/>
     <use xlink:href="#me9e10f9b54" x="231.270779" y="235.095" style="fill: #ff0000; stroke: #ff0000; stroke-width: 2"/>
     <use xlink:href="#me9e10f9b54" x="247.575974" y="239.389508" style="fill: #ff0000; stroke: #ff0000; stroke-width: 2"/>
     <use xlink:href="#me9e10f9b54" x="263.881169" y="242.070746" style="fill: #ff0000; stroke: #ff0000; stroke-width: 2"/>
     <use xlink:href="#me9e10f9b54" x="280.186364" y="245.806858" style="fill: #ff0000; stroke: #ff0000; stroke-width: 2"/>
    </g>
   </g>
   <g id="line2d_10">
    <g clip-path="url(#p6d1ef5ed4f)">
     <use xlink:href="#me9e10f9b54" x="51.913636" y="172.290084" style="fill: #ff0000; stroke: #ff0000; stroke-width: 2"/>
     <use xlink:href="#me9e10f9b54" x="68.218831" y="179.416038" style="fill: #ff0000; stroke: #ff0000; stroke-width: 2"/>
     <use xlink:href="#me9e10f9b54" x="84.524026" y="188.058292" style="fill: #ff0000; stroke: #ff0000; stroke-width: 2"/>
     <use xlink:href="#me9e10f9b54" x="100.829221" y="194.83484" style="fill: #ff0000; stroke: #ff0000; stroke-width: 2"/>
     <use xlink:href="#me9e10f9b54" x="117.134416" y="204.523008" style="fill: #ff0000; stroke: #ff0000; stroke-width: 2"/>
     <use xlink:href="#me9e10f9b54" x="133.43961" y="209.377807" style="fill: #ff0000; stroke: #ff0000; stroke-width: 2"/>
     <use xlink:href="#me9e10f9b54" x="149.744805" y="213.245213" style="fill: #ff0000; stroke: #ff0000; stroke-width: 2"/>
     <use xlink:href="#me9e10f9b54" x="166.05" y="218.849703" style="fill: #ff0000; stroke: #ff0000; stroke-width: 2"/>
     <use xlink:href="#me9e10f9b54" x="182.355195" y="223.158473" style="fill: #ff0000; stroke: #ff0000; stroke-width: 2"/>
     <use xlink:href="#me9e10f9b54" x="198.66039" y="224.831941" style="fill: #ff0000; stroke: #ff0000; stroke-width: 2"/>
     <use xlink:href="#me9e10f9b54" x="214.965584" y="228.9178" style="fill: #ff0000; stroke: #ff0000; stroke-width: 2"/>
     <use xlink:href="#me9e10f9b54" x="231.270779" y="234.620682" style="fill: #ff0000; stroke: #ff0000; stroke-width: 2"/>
     <use xlink:href="#me9e10f9b54" x="247.575974" y="238.189281" style="fill: #ff0000; stroke: #ff0000; stroke-width: 2"/>
     <use xlink:href="#me9e10f9b54" x="263.881169" y="241.645953" style="fill: #ff0000; stroke: #ff0000; stroke-width: 2"/>
     <use xlink:href="#me9e10f9b54" x="280.186364" y="245.30219" style="fill: #ff0000; stroke: #ff0000; stroke-width: 2"/>
    </g>
   </g>
   <g id="line2d_11">
    <path d="M 51.913636 129.10017 
L 68.218831 148.510446 
L 84.524026 165.316552 
L 100.829221 181.794241 
L 117.134416 194.374399 
L 133.43961 203.514504 
L 149.744805 212.45345 
L 166.05 219.90637 
L 182.355195 226.791465 
L 198.66039 230.422108 
L 214.965584 236.819787 
L 231.270779 242.576582 
L 247.575974 247.468596 
L 263.881169 252.522409 
L 280.186364 256.222603 
" clip-path="url(#p6d1ef5ed4f)" style="fill: none; stroke: #000000; stroke-width: 1.5; stroke-linecap: square"/>
   </g>
   <g id="LineCollection_2">
    <path d="M 51.913636 130.122597 
L 51.913636 128.077744 
" clip-path="url(#p6d1ef5ed4f)" style="fill: none; stroke: #000000; stroke-width: 2"/>
    <path d="M 68.218831 149.250589 
L 68.218831 147.770303 
" clip-path="url(#p6d1ef5ed4f)" style="fill: none; stroke: #000000; stroke-width: 2"/>
    <path d="M 84.524026 165.748623 
L 84.524026 164.884481 
" clip-path="url(#p6d1ef5ed4f)" style="fill: none; stroke: #000000; stroke-width: 2"/>
    <path d="M 100.829221 182.188666 
L 100.829221 181.399816 
" clip-path="url(#p6d1ef5ed4f)" style="fill: none; stroke: #000000; stroke-width: 2"/>
    <path d="M 117.134416 195.054911 
L 117.134416 193.693886 
" clip-path="url(#p6d1ef5ed4f)" style="fill: none; stroke: #000000; stroke-width: 2"/>
    <path d="M 133.43961 204.105585 
L 133.43961 202.923424 
" clip-path="url(#p6d1ef5ed4f)" style="fill: none; stroke: #000000; stroke-width: 2"/>
    <path d="M 149.744805 212.856996 
L 149.744805 212.049904 
" clip-path="url(#p6d1ef5ed4f)" style="fill: none; stroke: #000000; stroke-width: 2"/>
    <path d="M 166.05 220.473735 
L 166.05 219.339005 
" clip-path="url(#p6d1ef5ed4f)" style="fill: none; stroke: #000000; stroke-width: 2"/>
    <path d="M 182.355195 227.186091 
L 182.355195 226.396838 
" clip-path="url(#p6d1ef5ed4f)" style="fill: none; stroke: #000000; stroke-width: 2"/>
    <path d="M 198.66039 230.914226 
L 198.66039 229.929991 
" clip-path="url(#p6d1ef5ed4f)" style="fill: none; stroke: #000000; stroke-width: 2"/>
    <path d="M 214.965584 237.343509 
L 214.965584 236.296064 
" clip-path="url(#p6d1ef5ed4f)" style="fill: none; stroke: #000000; stroke-width: 2"/>
    <path d="M 231.270779 243.189669 
L 231.270779 241.963494 
" clip-path="url(#p6d1ef5ed4f)" style="fill: none; stroke: #000000; stroke-width: 2"/>
    <path d="M 247.575974 247.833597 
L 247.575974 247.103594 
" clip-path="url(#p6d1ef5ed4f)" style="fill: none; stroke: #000000; stroke-width: 2"/>
    <path d="M 263.881169 252.947034 
L 263.881169 252.097783 
" clip-path="url(#p6d1ef5ed4f)" style="fill: none; stroke: #000000; stroke-width: 2"/>
    <path d="M 280.186364 256.362366 
L 280.186364 256.082839 
" clip-path="url(#p6d1ef5ed4f)" style="fill: none; stroke: #000000; stroke-width: 2"/>
   </g>
   <g id="line2d_12">
    <defs>
     <path id="mb4548ffa13" d="M 3 0 
L -3 -0 
" style="stroke: #000000; stroke-width: 2"/>
    </defs>
    <g clip-path="url(#p6d1ef5ed4f)">
     <use xlink:href="#mb4548ffa13" x="51.913636" y="130.122597" style="stroke: #000000; stroke-width: 2"/>
     <use xlink:href="#mb4548ffa13" x="68.218831" y="149.250589" style="stroke: #000000; stroke-width: 2"/>
     <use xlink:href="#mb4548ffa13" x="84.524026" y="165.748623" style="stroke: #000000; stroke-width: 2"/>
     <use xlink:href="#mb4548ffa13" x="100.829221" y="182.188666" style="stroke: #000000; stroke-width: 2"/>
     <use xlink:href="#mb4548ffa13" x="117.134416" y="195.054911" style="stroke: #000000; stroke-width: 2"/>
     <use xlink:href="#mb4548ffa13" x="133.43961" y="204.105585" style="stroke: #000000; stroke-width: 2"/>
     <use xlink:href="#mb4548ffa13" x="149.744805" y="212.856996" style="stroke: #000000; stroke-width: 2"/>
     <use xlink:href="#mb4548ffa13" x="166.05" y="220.473735" style="stroke: #000000; stroke-width: 2"/>
     <use xlink:href="#mb4548ffa13" x="182.355195" y="227.186091" style="stroke: #000000; stroke-width: 2"/>
     <use xlink:href="#mb4548ffa13" x="198.66039" y="230.914226" style="stroke: #000000; stroke-width: 2"/>
     <use xlink:href="#mb4548ffa13" x="214.965584" y="237.343509" style="stroke: #000000; stroke-width: 2"/>
     <use xlink:href="#mb4548ffa13" x="231.270779" y="243.189669" style="stroke: #000000; stroke-width: 2"/>
     <use xlink:href="#mb4548ffa13" x="247.575974" y="247.833597" style="stroke: #000000; stroke-width: 2"/>
     <use xlink:href="#mb4548ffa13" x="263.881169" y="252.947034" style="stroke: #000000; stroke-width: 2"/>
     <use xlink:href="#mb4548ffa13" x="280.186364" y="256.362366" style="stroke: #000000; stroke-width: 2"/>
    </g>
   </g>
   <g id="line2d_13">
    <g clip-path="url(#p6d1ef5ed4f)">
     <use xlink:href="#mb4548ffa13" x="51.913636" y="128.077744" style="stroke: #000000; stroke-width: 2"/>
     <use xlink:href="#mb4548ffa13" x="68.218831" y="147.770303" style="stroke: #000000; stroke-width: 2"/>
     <use xlink:href="#mb4548ffa13" x="84.524026" y="164.884481" style="stroke: #000000; stroke-width: 2"/>
     <use xlink:href="#mb4548ffa13" x="100.829221" y="181.399816" style="stroke: #000000; stroke-width: 2"/>
     <use xlink:href="#mb4548ffa13" x="117.134416" y="193.693886" style="stroke: #000000; stroke-width: 2"/>
     <use xlink:href="#mb4548ffa13" x="133.43961" y="202.923424" style="stroke: #000000; stroke-width: 2"/>
     <use xlink:href="#mb4548ffa13" x="149.744805" y="212.049904" style="stroke: #000000; stroke-width: 2"/>
     <use xlink:href="#mb4548ffa13" x="166.05" y="219.339005" style="stroke: #000000; stroke-width: 2"/>
     <use xlink:href="#mb4548ffa13" x="182.355195" y="226.396838" style="stroke: #000000; stroke-width: 2"/>
     <use xlink:href="#mb4548ffa13" x="198.66039" y="229.929991" style="stroke: #000000; stroke-width: 2"/>
     <use xlink:href="#mb4548ffa13" x="214.965584" y="236.296064" style="stroke: #000000; stroke-width: 2"/>
     <use xlink:href="#mb4548ffa13" x="231.270779" y="241.963494" style="stroke: #000000; stroke-width: 2"/>
     <use xlink:href="#mb4548ffa13" x="247.575974" y="247.103594" style="stroke: #000000; stroke-width: 2"/>
     <use xlink:href="#mb4548ffa13" x="263.881169" y="252.097783" style="stroke: #000000; stroke-width: 2"/>
     <use xlink:href="#mb4548ffa13" x="280.186364" y="256.082839" style="stroke: #000000; stroke-width: 2"/>
    </g>
   </g>
   <g id="line2d_14">
    <path d="M 51.913636 102.365183 
L 68.218831 125.960136 
L 84.524026 149.286373 
L 100.829221 171.513579 
L 117.134416 189.736444 
L 133.43961 202.677837 
L 149.744805 211.53078 
L 166.05 220.644129 
L 182.355195 228.242697 
L 198.66039 235.90177 
L 214.965584 241.514069 
L 231.270779 248.318624 
L 247.575974 253.725719 
L 263.881169 260.927155 
L 280.186364 265.359318 
" clip-path="url(#p6d1ef5ed4f)" style="fill: none; stroke: #0000ff; stroke-width: 1.5; stroke-linecap: square"/>
   </g>
   <g id="LineCollection_3">
    <path d="M 51.913636 102.921592 
L 51.913636 101.808775 
" clip-path="url(#p6d1ef5ed4f)" style="fill: none; stroke: #0000ff; stroke-width: 2"/>
    <path d="M 68.218831 126.721907 
L 68.218831 125.198365 
" clip-path="url(#p6d1ef5ed4f)" style="fill: none; stroke: #0000ff; stroke-width: 2"/>
    <path d="M 84.524026 149.803507 
L 84.524026 148.76924 
" clip-path="url(#p6d1ef5ed4f)" style="fill: none; stroke: #0000ff; stroke-width: 2"/>
    <path d="M 100.829221 172.163532 
L 100.829221 170.863626 
" clip-path="url(#p6d1ef5ed4f)" style="fill: none; stroke: #0000ff; stroke-width: 2"/>
    <path d="M 117.134416 190.410627 
L 117.134416 189.062262 
" clip-path="url(#p6d1ef5ed4f)" style="fill: none; stroke: #0000ff; stroke-width: 2"/>
    <path d="M 133.43961 203.619353 
L 133.43961 201.736322 
" clip-path="url(#p6d1ef5ed4f)" style="fill: none; stroke: #0000ff; stroke-width: 2"/>
    <path d="M 149.744805 212.210446 
L 149.744805 210.851114 
" clip-path="url(#p6d1ef5ed4f)" style="fill: none; stroke: #0000ff; stroke-width: 2"/>
    <path d="M 166.05 221.031368 
L 166.05 220.25689 
" clip-path="url(#p6d1ef5ed4f)" style="fill: none; stroke: #0000ff; stroke-width: 2"/>
    <path d="M 182.355195 228.936312 
L 182.355195 227.549081 
" clip-path="url(#p6d1ef5ed4f)" style="fill: none; stroke: #0000ff; stroke-width: 2"/>
    <path d="M 198.66039 236.495119 
L 198.66039 235.308421 
" clip-path="url(#p6d1ef5ed4f)" style="fill: none; stroke: #0000ff; stroke-width: 2"/>
    <path d="M 214.965584 241.986803 
L 214.965584 241.041336 
" clip-path="url(#p6d1ef5ed4f)" style="fill: none; stroke: #0000ff; stroke-width: 2"/>
    <path d="M 231.270779 248.686124 
L 231.270779 247.951123 
" clip-path="url(#p6d1ef5ed4f)" style="fill: none; stroke: #0000ff; stroke-width: 2"/>
    <path d="M 247.575974 254.11273 
L 247.575974 253.338707 
" clip-path="url(#p6d1ef5ed4f)" style="fill: none; stroke: #0000ff; stroke-width: 2"/>
    <path d="M 263.881169 261.186046 
L 263.881169 260.668263 
" clip-path="url(#p6d1ef5ed4f)" style="fill: none; stroke: #0000ff; stroke-width: 2"/>
    <path d="M 280.186364 265.712637 
L 280.186364 265.005998 
" clip-path="url(#p6d1ef5ed4f)" style="fill: none; stroke: #0000ff; stroke-width: 2"/>
   </g>
   <g id="line2d_15">
    <defs>
     <path id="mac74173335" d="M 3 0 
L -3 -0 
" style="stroke: #0000ff; stroke-width: 2"/>
    </defs>
    <g clip-path="url(#p6d1ef5ed4f)">
     <use xlink:href="#mac74173335" x="51.913636" y="102.921592" style="fill: #0000ff; stroke: #0000ff; stroke-width: 2"/>
     <use xlink:href="#mac74173335" x="68.218831" y="126.721907" style="fill: #0000ff; stroke: #0000ff; stroke-width: 2"/>
     <use xlink:href="#mac74173335" x="84.524026" y="149.803507" style="fill: #0000ff; stroke: #0000ff; stroke-width: 2"/>
     <use xlink:href="#mac74173335" x="100.829221" y="172.163532" style="fill: #0000ff; stroke: #0000ff; stroke-width: 2"/>
     <use xlink:href="#mac74173335" x="117.134416" y="190.410627" style="fill: #0000ff; stroke: #0000ff; stroke-width: 2"/>
     <use xlink:href="#mac74173335" x="133.43961" y="203.619353" style="fill: #0000ff; stroke: #0000ff; stroke-width: 2"/>
     <use xlink:href="#mac74173335" x="149.744805" y="212.210446" style="fill: #0000ff; stroke: #0000ff; stroke-width: 2"/>
     <use xlink:href="#mac74173335" x="166.05" y="221.031368" style="fill: #0000ff; stroke: #0000ff; stroke-width: 2"/>
     <use xlink:href="#mac74173335" x="182.355195" y="228.936312" style="fill: #0000ff; stroke: #0000ff; stroke-width: 2"/>
     <use xlink:href="#mac74173335" x="198.66039" y="236.495119" style="fill: #0000ff; stroke: #0000ff; stroke-width: 2"/>
     <use xlink:href="#mac74173335" x="214.965584" y="241.986803" style="fill: #0000ff; stroke: #0000ff; stroke-width: 2"/>
     <use xlink:href="#mac74173335" x="231.270779" y="248.686124" style="fill: #0000ff; stroke: #0000ff; stroke-width: 2"/>
     <use xlink:href="#mac74173335" x="247.575974" y="254.11273" style="fill: #0000ff; stroke: #0000ff; stroke-width: 2"/>
     <use xlink:href="#mac74173335" x="263.881169" y="261.186046" style="fill: #0000ff; stroke: #0000ff; stroke-width: 2"/>
     <use xlink:href="#mac74173335" x="280.186364" y="265.712637" style="fill: #0000ff; stroke: #0000ff; stroke-width: 2"/>
    </g>
   </g>
   <g id="line2d_16">
    <g clip-path="url(#p6d1ef5ed4f)">
     <use xlink:href="#mac74173335" x="51.913636" y="101.808775" style="fill: #0000ff; stroke: #0000ff; stroke-width: 2"/>
     <use xlink:href="#mac74173335" x="68.218831" y="125.198365" style="fill: #0000ff; stroke: #0000ff; stroke-width: 2"/>
     <use xlink:href="#mac74173335" x="84.524026" y="148.76924" style="fill: #0000ff; stroke: #0000ff; stroke-width: 2"/>
     <use xlink:href="#mac74173335" x="100.829221" y="170.863626" style="fill: #0000ff; stroke: #0000ff; stroke-width: 2"/>
     <use xlink:href="#mac74173335" x="117.134416" y="189.062262" style="fill: #0000ff; stroke: #0000ff; stroke-width: 2"/>
     <use xlink:href="#mac74173335" x="133.43961" y="201.736322" style="fill: #0000ff; stroke: #0000ff; stroke-width: 2"/>
     <use xlink:href="#mac74173335" x="149.744805" y="210.851114" style="fill: #0000ff; stroke: #0000ff; stroke-width: 2"/>
     <use xlink:href="#mac74173335" x="166.05" y="220.25689" style="fill: #0000ff; stroke: #0000ff; stroke-width: 2"/>
     <use xlink:href="#mac74173335" x="182.355195" y="227.549081" style="fill: #0000ff; stroke: #0000ff; stroke-width: 2"/>
     <use xlink:href="#mac74173335" x="198.66039" y="235.308421" style="fill: #0000ff; stroke: #0000ff; stroke-width: 2"/>
     <use xlink:href="#mac74173335" x="214.965584" y="241.041336" style="fill: #0000ff; stroke: #0000ff; stroke-width: 2"/>
     <use xlink:href="#mac74173335" x="231.270779" y="247.951123" style="fill: #0000ff; stroke: #0000ff; stroke-width: 2"/>
     <use xlink:href="#mac74173335" x="247.575974" y="253.338707" style="fill: #0000ff; stroke: #0000ff; stroke-width: 2"/>
     <use xlink:href="#mac74173335" x="263.881169" y="260.668263" style="fill: #0000ff; stroke: #0000ff; stroke-width: 2"/>
     <use xlink:href="#mac74173335" x="280.186364" y="265.005998" style="fill: #0000ff; stroke: #0000ff; stroke-width: 2"/>
    </g>
   </g>
   <g id="line2d_17">
    <path d="M 51.913636 73.836457 
L 68.218831 100.263843 
M 117.134416 182.001475 
L 133.43961 199.305723 
L 149.744805 212.368288 
L 166.05 221.893441 
L 182.355195 231.421888 
L 198.66039 239.393757 
L 214.965584 246.677829 
L 231.270779 254.174288 
L 247.575974 260.68794 
L 263.881169 266.40745 
L 280.186364 273.534153 
" clip-path="url(#p6d1ef5ed4f)" style="fill: none; stroke: #bf00bf; stroke-width: 1.5; stroke-linecap: square"/>
   </g>
   <g id="LineCollection_4">
    <path d="M 51.913636 74.862466 
L 51.913636 72.810449 
" clip-path="url(#p6d1ef5ed4f)" style="fill: none; stroke: #bf00bf; stroke-width: 2"/>
    <path d="M 68.218831 101.444681 
L 68.218831 99.083005 
" clip-path="url(#p6d1ef5ed4f)" style="fill: none; stroke: #bf00bf; stroke-width: 2"/>
    <path clip-path="url(#p6d1ef5ed4f)" style="fill: none; stroke: #bf00bf; stroke-width: 2"/>
    <path clip-path="url(#p6d1ef5ed4f)" style="fill: none; stroke: #bf00bf; stroke-width: 2"/>
    <path d="M 117.134416 182.880803 
L 117.134416 181.122148 
" clip-path="url(#p6d1ef5ed4f)" style="fill: none; stroke: #bf00bf; stroke-width: 2"/>
    <path d="M 133.43961 200.908823 
L 133.43961 197.702622 
" clip-path="url(#p6d1ef5ed4f)" style="fill: none; stroke: #bf00bf; stroke-width: 2"/>
    <path d="M 149.744805 213.269027 
L 149.744805 211.467549 
" clip-path="url(#p6d1ef5ed4f)" style="fill: none; stroke: #bf00bf; stroke-width: 2"/>
    <path d="M 166.05 222.669647 
L 166.05 221.117236 
" clip-path="url(#p6d1ef5ed4f)" style="fill: none; stroke: #bf00bf; stroke-width: 2"/>
    <path d="M 182.355195 231.78217 
L 182.355195 231.061607 
" clip-path="url(#p6d1ef5ed4f)" style="fill: none; stroke: #bf00bf; stroke-width: 2"/>
    <path d="M 198.66039 239.712873 
L 198.66039 239.07464 
" clip-path="url(#p6d1ef5ed4f)" style="fill: none; stroke: #bf00bf; stroke-width: 2"/>
    <path d="M 214.965584 246.936447 
L 214.965584 246.419211 
" clip-path="url(#p6d1ef5ed4f)" style="fill: none; stroke: #bf00bf; stroke-width: 2"/>
    <path d="M 231.270779 254.524776 
L 231.270779 253.8238 
" clip-path="url(#p6d1ef5ed4f)" style="fill: none; stroke: #bf00bf; stroke-width: 2"/>
    <path d="M 247.575974 261.016659 
L 247.575974 260.359221 
" clip-path="url(#p6d1ef5ed4f)" style="fill: none; stroke: #bf00bf; stroke-width: 2"/>
    <path d="M 263.881169 266.688966 
L 263.881169 266.125933 
" clip-path="url(#p6d1ef5ed4f)" style="fill: none; stroke: #bf00bf; stroke-width: 2"/>
    <path d="M 280.186364 273.800893 
L 280.186364 273.267413 
" clip-path="url(#p6d1ef5ed4f)" style="fill: none; stroke: #bf00bf; stroke-width: 2"/>
   </g>
   <g id="line2d_18">
    <defs>
     <path id="medfea99289" d="M 3 0 
L -3 -0 
" style="stroke: #bf00bf; stroke-width: 2"/>
    </defs>
    <g clip-path="url(#p6d1ef5ed4f)">
     <use xlink:href="#medfea99289" x="51.913636" y="74.862466" style="fill: #bf00bf; stroke: #bf00bf; stroke-width: 2"/>
     <use xlink:href="#medfea99289" x="68.218831" y="101.444681" style="fill: #bf00bf; stroke: #bf00bf; stroke-width: 2"/>
     <use xlink:href="#medfea99289" x="117.134416" y="182.880803" style="fill: #bf00bf; stroke: #bf00bf; stroke-width: 2"/>
     <use xlink:href="#medfea99289" x="133.43961" y="200.908823" style="fill: #bf00bf; stroke: #bf00bf; stroke-width: 2"/>
     <use xlink:href="#medfea99289" x="149.744805" y="213.269027" style="fill: #bf00bf; stroke: #bf00bf; stroke-width: 2"/>
     <use xlink:href="#medfea99289" x="166.05" y="222.669647" style="fill: #bf00bf; stroke: #bf00bf; stroke-width: 2"/>
     <use xlink:href="#medfea99289" x="182.355195" y="231.78217" style="fill: #bf00bf; stroke: #bf00bf; stroke-width: 2"/>
     <use xlink:href="#medfea99289" x="198.66039" y="239.712873" style="fill: #bf00bf; stroke: #bf00bf; stroke-width: 2"/>
     <use xlink:href="#medfea99289" x="214.965584" y="246.936447" style="fill: #bf00bf; stroke: #bf00bf; stroke-width: 2"/>
     <use xlink:href="#medfea99289" x="231.270779" y="254.524776" style="fill: #bf00bf; stroke: #bf00bf; stroke-width: 2"/>
     <use xlink:href="#medfea99289" x="247.575974" y="261.016659" style="fill: #bf00bf; stroke: #bf00bf; stroke-width: 2"/>
     <use xlink:href="#medfea99289" x="263.881169" y="266.688966" style="fill: #bf00bf; stroke: #bf00bf; stroke-width: 2"/>
     <use xlink:href="#medfea99289" x="280.186364" y="273.800893" style="fill: #bf00bf; stroke: #bf00bf; stroke-width: 2"/>
    </g>
   </g>
   <g id="line2d_19">
    <g clip-path="url(#p6d1ef5ed4f)">
     <use xlink:href="#medfea99289" x="51.913636" y="72.810449" style="fill: #bf00bf; stroke: #bf00bf; stroke-width: 2"/>
     <use xlink:href="#medfea99289" x="68.218831" y="99.083005" style="fill: #bf00bf; stroke: #bf00bf; stroke-width: 2"/>
     <use xlink:href="#medfea99289" x="117.134416" y="181.122148" style="fill: #bf00bf; stroke: #bf00bf; stroke-width: 2"/>
     <use xlink:href="#medfea99289" x="133.43961" y="197.702622" style="fill: #bf00bf; stroke: #bf00bf; stroke-width: 2"/>
     <use xlink:href="#medfea99289" x="149.744805" y="211.467549" style="fill: #bf00bf; stroke: #bf00bf; stroke-width: 2"/>
     <use xlink:href="#medfea99289" x="166.05" y="221.117236" style="fill: #bf00bf; stroke: #bf00bf; stroke-width: 2"/>
     <use xlink:href="#medfea99289" x="182.355195" y="231.061607" style="fill: #bf00bf; stroke: #bf00bf; stroke-width: 2"/>
     <use xlink:href="#medfea99289" x="198.66039" y="239.07464" style="fill: #bf00bf; stroke: #bf00bf; stroke-width: 2"/>
     <use xlink:href="#medfea99289" x="214.965584" y="246.419211" style="fill: #bf00bf; stroke: #bf00bf; stroke-width: 2"/>
     <use xlink:href="#medfea99289" x="231.270779" y="253.8238" style="fill: #bf00bf; stroke: #bf00bf; stroke-width: 2"/>
     <use xlink:href="#medfea99289" x="247.575974" y="260.359221" style="fill: #bf00bf; stroke: #bf00bf; stroke-width: 2"/>
     <use xlink:href="#medfea99289" x="263.881169" y="266.125933" style="fill: #bf00bf; stroke: #bf00bf; stroke-width: 2"/>
     <use xlink:href="#medfea99289" x="280.186364" y="273.267413" style="fill: #bf00bf; stroke: #bf00bf; stroke-width: 2"/>
    </g>
   </g>
   <g id="line2d_20">
    <path d="M 51.913636 173.187842 
L 68.218831 180.446101 
L 84.524026 188.672596 
L 100.829221 195.869512 
L 117.134416 205.260902 
L 133.43961 209.951372 
L 149.744805 213.967724 
L 166.05 219.486329 
L 182.355195 223.698639 
L 198.66039 225.257825 
L 214.965584 229.532199 
L 231.270779 234.857841 
L 247.575974 238.789395 
L 263.881169 241.85835 
L 280.186364 245.554524 
" clip-path="url(#p6d1ef5ed4f)" style="fill: none; stroke: #ff0000; stroke-width: 1.5; stroke-linecap: square"/>
   </g>
   <g id="line2d_21">
    <path d="M 51.913636 129.10017 
L 68.218831 148.510446 
L 84.524026 165.316552 
L 100.829221 181.794241 
L 117.134416 194.374399 
L 133.43961 203.514504 
L 149.744805 212.45345 
L 166.05 219.90637 
L 182.355195 226.791465 
L 198.66039 230.422108 
L 214.965584 236.819787 
L 231.270779 242.576582 
L 247.575974 247.468596 
L 263.881169 252.522409 
L 280.186364 256.222603 
" clip-path="url(#p6d1ef5ed4f)" style="fill: none; stroke: #000000; stroke-width: 1.5; stroke-linecap: square"/>
   </g>
   <g id="line2d_22">
    <path d="M 51.913636 102.365183 
L 68.218831 125.960136 
L 84.524026 149.286373 
L 100.829221 171.513579 
L 117.134416 189.736444 
L 133.43961 202.677837 
L 149.744805 211.53078 
L 166.05 220.644129 
L 182.355195 228.242697 
L 198.66039 235.90177 
L 214.965584 241.514069 
L 231.270779 248.318624 
L 247.575974 253.725719 
L 263.881169 260.927155 
L 280.186364 265.359318 
" clip-path="url(#p6d1ef5ed4f)" style="fill: none; stroke: #0000ff; stroke-width: 1.5; stroke-linecap: square"/>
   </g>
   <g id="line2d_23">
    <path d="M 51.913636 73.836457 
L 68.218831 100.263843 
M 117.134416 182.001475 
L 133.43961 199.305723 
L 149.744805 212.368288 
L 166.05 221.893441 
L 182.355195 231.421888 
L 198.66039 239.393757 
L 214.965584 246.677829 
L 231.270779 254.174288 
L 247.575974 260.68794 
L 263.881169 266.40745 
L 280.186364 273.534153 
" clip-path="url(#p6d1ef5ed4f)" style="fill: none; stroke: #bf00bf; stroke-width: 1.5; stroke-linecap: square"/>
   </g>
   <g id="patch_3">
    <path d="M 40.5 288.36 
L 40.5 38.88 
" style="fill: none; stroke: #000000; stroke-width: 1.6; stroke-linejoin: miter; stroke-linecap: square"/>
   </g>
   <g id="patch_4">
    <path d="M 291.6 288.36 
L 291.6 38.88 
" style="fill: none; stroke: #000000; stroke-width: 1.6; stroke-linejoin: miter; stroke-linecap: square"/>
   </g>
   <g id="patch_5">
    <path d="M 40.5 288.36 
L 291.6 288.36 
" style="fill: none; stroke: #000000; stroke-width: 1.6; stroke-linejoin: miter; stroke-linecap: square"/>
   </g>
   <g id="patch_6">
    <path d="M 40.5 38.88 
L 291.6 38.88 
" style="fill: none; stroke: #000000; stroke-width: 1.6; stroke-linejoin: miter; stroke-linecap: square"/>
   </g>
   <g id="legend_1">
    <g id="patch_7">
     <path d="M 209.120625 118.935 
L 283.2 118.935 
Q 285.6 118.935 285.6 116.535 
L 285.6 47.28 
Q 285.6 44.88 283.2 44.88 
L 209.120625 44.88 
Q 206.720625 44.88 206.720625 47.28 
L 206.720625 116.535 
Q 206.720625 118.935 209.120625 118.935 
z
" style="fill: #ffffff; opacity: 0.8"/>
    </g>
    <g id="line2d_24">
     <path d="M 211.520625 54.598125 
L 223.520625 54.598125 
L 235.520625 54.598125 
" style="fill: none; stroke: #ff0000; stroke-width: 1.5; stroke-linecap: square"/>
    </g>
    <g id="text_8">
     <!-- M=4 -->
     <g transform="translate(245.120625 58.798125) scale(0.12 -0.12)">
      <defs>
       <path id="DejaVuSans-4d" d="M 628 4666 
L 1569 4666 
L 2759 1491 
L 3956 4666 
L 4897 4666 
L 4897 0 
L 4281 0 
L 4281 4097 
L 3078 897 
L 2444 897 
L 1241 4097 
L 1241 0 
L 628 0 
L 628 4666 
z
" transform="scale(0.015625)"/>
       <path id="DejaVuSans-3d" d="M 678 2906 
L 4684 2906 
L 4684 2381 
L 678 2381 
L 678 2906 
z
M 678 1631 
L 4684 1631 
L 4684 1100 
L 678 1100 
L 678 1631 
z
" transform="scale(0.015625)"/>
       <path id="DejaVuSans-34" d="M 2419 4116 
L 825 1625 
L 2419 1625 
L 2419 4116 
z
M 2253 4666 
L 3047 4666 
L 3047 1625 
L 3713 1625 
L 3713 1100 
L 3047 1100 
L 3047 0 
L 2419 0 
L 2419 1100 
L 313 1100 
L 313 1709 
L 2253 4666 
z
" transform="scale(0.015625)"/>
      </defs>
      <use xlink:href="#DejaVuSans-4d"/>
      <use xlink:href="#DejaVuSans-3d" x="86.279297"/>
      <use xlink:href="#DejaVuSans-34" x="170.068359"/>
     </g>
    </g>
    <g id="line2d_25">
     <path d="M 211.520625 72.211875 
L 223.520625 72.211875 
L 235.520625 72.211875 
" style="fill: none; stroke: #000000; stroke-width: 1.5; stroke-linecap: square"/>
    </g>
    <g id="text_9">
     <!-- M=8 -->
     <g transform="translate(245.120625 76.411875) scale(0.12 -0.12)">
      <use xlink:href="#DejaVuSans-4d"/>
      <use xlink:href="#DejaVuSans-3d" x="86.279297"/>
      <use xlink:href="#DejaVuSans-38" x="170.068359"/>
     </g>
    </g>
    <g id="line2d_26">
     <path d="M 211.520625 89.825625 
L 223.520625 89.825625 
L 235.520625 89.825625 
" style="fill: none; stroke: #0000ff; stroke-width: 1.5; stroke-linecap: square"/>
    </g>
    <g id="text_10">
     <!-- M=12 -->
     <g transform="translate(245.120625 94.025625) scale(0.12 -0.12)">
      <use xlink:href="#DejaVuSans-4d"/>
      <use xlink:href="#DejaVuSans-3d" x="86.279297"/>
      <use xlink:href="#DejaVuSans-31" x="170.068359"/>
      <use xlink:href="#DejaVuSans-32" x="233.691406"/>
     </g>
    </g>
    <g id="line2d_27">
     <path d="M 211.520625 107.439375 
L 223.520625 107.439375 
L 235.520625 107.439375 
" style="fill: none; stroke: #bf00bf; stroke-width: 1.5; stroke-linecap: square"/>
    </g>
    <g id="text_11">
     <!-- M=16 -->
     <g transform="translate(245.120625 111.639375) scale(0.12 -0.12)">
      <use xlink:href="#DejaVuSans-4d"/>
      <use xlink:href="#DejaVuSans-3d" x="86.279297"/>
      <use xlink:href="#DejaVuSans-31" x="170.068359"/>
      <use xlink:href="#DejaVuSans-36" x="233.691406"/>
     </g>
    </g>
   </g>
  </g>
 </g>
 <defs>
  <clipPath id="p6d1ef5ed4f">
   <rect x="40.5" y="38.88" width="251.1" height="249.48"/>
  </clipPath>
 </defs>
</svg>
