<?xml version="1.0" encoding="utf-8" standalone="no"?>
<!DOCTYPE svg PUBLIC "-//W3C//DTD SVG 1.1//EN"
  "http://www.w3.org/Graphics/SVG/1.1/DTD/svg11.dtd">
<svg xmlns:xlink="http://www.w3.org/1999/xlink" width="324pt" height="324pt" viewBox="0 0 324 324" xmlns="http://www.w3.org/2000/svg" version="1.1">
 <metadata>
  <rdf:RDF xmlns:dc="http://purl.org/dc/elements/1.1/" xmlns:cc="http://creativecommons.org/ns#" xmlns:rdf="http://www.w3.org/1999/02/22-rdf-syntax-ns#">
   <cc:Work>
    <dc:type rdf:resource="http://purl.org/dc/dcmitype/StillImage"/>
    <dc:date>2026-01-11T17:24:33.000313</dc:date>
    <dc:format>image/svg+xml</dc:format>
    <dc:creator>
     <cc:Agent>
      <dc:title>Matplotlib v3.8.0, https://matplotlib.org/</dc:title>
     </cc:Agent>
    </dc:creator>
   </cc:Work>
  </rdf:RDF>
 </metadata>
 <defs>
  <style type="text/css">*{stroke-linejoin: round; stroke-linecap: butt}</style>
 </defs>
 <g id="figure_1">
  <g id="patch_1">
   <path d="M 0 324 
L 324 324 
L 324 0 
L 0 0 
z
" style="fill: #ffffff"/>
  </g>
  <g id="axes_1">
   <g id="patch_2">
    <path d="M 40.5 288.36 
L 291.6 288.36 
L 291.6 38.88 
L 40.5 38.88 
z
" style="fill: #ffffff"/>
   </g>
   <g id="matplotlib.axis_1">
    <g id="xtick_1">
     <g id="line2d_1">
      <defs>
       <path id="m4b08f0f345" d="M 0 0 
L 0 8 
" style="stroke: #000000; stroke-width: 1.5"/>
      </defs>
      <g>
       <use xlink:href="#m4b08f0f345" x="51.913636" y="288.36" style="stroke: #000000; stroke-width: 1.5"/>
      </g>
     </g>
     <g id="text_1">
      <!-- 7.0 -->
      <g transform="translate(42.371761 308.978125) scale(0.12 -0.12)">
       <defs>
        <path id="DejaVuSans-37" d="M 525 4666 
L 3525 4666 
L 3525 4397 
L 1831 0 
L 1172 0 
L 2766 4134 
L 525 4134 
L 525 4666 
z
" transform="scale(0.015625)"/>
        <path id="DejaVuSans-2e" d="M 684 794 
L 1344 794 
L 1344 0 
L 684 0 
L 684 794 
z
" transform="scale(0.015625)"/>
        <path id="DejaVuSans-30" d="M 2034 4250 
Q 1547 4250 1301 3770 
Q 1056 3291 1056 2328 
Q 1056 1369 1301 889 
Q 1547 409 2034 409 
Q 2525 409 2770 889 
Q 3016 1369 3016 2328 
Q 3016 3291 2770 3770 
Q 2525 4250 2034 4250 
z
M 2034 4750 
Q 2819 4750 3233 4129 
Q 3647 3509 3647 2328 
Q 3647 1150 3233 529 
Q 2819 -91 2034 -91 
Q 1250 -91 836 529 
Q 422 1150 422 2328 
Q 422 3509 836 4129 
Q 1250 4750 2034 4750 
z
" transform="scale(0.015625)"/>
       </defs>
       <use xlink:href="#DejaVuSans-37"/>
       <use xlink:href="#DejaVuSans-2e" x="63.623047"/>
       <use xlink:href="#DejaVuSans-30" x="95.410156"/>
      </g>
     </g>
    </g>
    <g id="xtick_2">
     <g id="line2d_2">
      <g>
       <use xlink:href="#m4b08f0f345" x="99.470455" y="288.36" style="stroke: #000000; stroke-width: 1.5"/>
      </g>
     </g>
     <g id="text_2">
      <!-- 7.5 -->
      <g transform="translate(89.92858 308.978125) scale(0.12 -0.12)">
       <defs>
        <path id="DejaVuSans-35" d="M 691 4666 
L 3169 4666 
L 3169 4134 
L 1269 4134 
L 1269 2991 
Q 1406 3038 1543 3061 
Q 1681 3084 1819 3084 
Q 2600 3084 3056 2656 
Q 3513 2228 3513 1497 
Q 3513 744 3044 326 
Q 2575 -91 1722 -91 
Q 1428 -91 1123 -41 
Q 819 9 494 109 
L 494 744 
Q 775 591 1075 516 
Q 1375 441 1709 441 
Q 2250 441 2565 725 
Q 2881 1009 2881 1497 
Q 2881 1984 2565 2268 
Q 2250 2553 1709 2553 
Q 1456 2553 1204 2497 
Q 953 2441 691 2322 
L 691 4666 
z
" transform="scale(0.015625)"/>
       </defs>
       <use xlink:href="#DejaVuSans-37"/>
       <use xlink:href="#DejaVuSans-2e" x="63.623047"/>
       <use xlink:href="#DejaVuSans-35" x="95.410156"/>
      </g>
     </g>
    </g>
    <g id="xtick_3">
     <g id="line2d_3">
      <g>
       <use xlink:href="#m4b08f0f345" x="147.027273" y="288.36" style="stroke: #000000; stroke-width: 1.5"/>
      </g>
     </g>
     <g id="text_3">
      <!-- 8.0 -->
      <g transform="translate(137.485398 308.978125) scale(0.12 -0.12)">
       <defs>
        <path id="DejaVuSans-38" d="M 2034 2216 
Q 1584 2216 1326 1975 
Q 1069 1734 1069 1313 
Q 1069 891 1326 650 
Q 1584 409 2034 409 
Q 2484 409 2743 651 
Q 3003 894 3003 1313 
Q 3003 1734 2745 1975 
Q 2488 2216 2034 2216 
z
M 1403 2484 
Q 997 2584 770 2862 
Q 544 3141 544 3541 
Q 544 4100 942 4425 
Q 1341 4750 2034 4750 
Q 2731 4750 3128 4425 
Q 3525 4100 3525 3541 
Q 3525 3141 3298 2862 
Q 3072 2584 2669 2484 
Q 3125 2378 3379 2068 
Q 3634 1759 3634 1313 
Q 3634 634 3220 271 
Q 2806 -91 2034 -91 
Q 1263 -91 848 271 
Q 434 634 434 1313 
Q 434 1759 690 2068 
Q 947 2378 1403 2484 
z
M 1172 3481 
Q 1172 3119 1398 2916 
Q 1625 2713 2034 2713 
Q 2441 2713 2670 2916 
Q 2900 3119 2900 3481 
Q 2900 3844 2670 4047 
Q 2441 4250 2034 4250 
Q 1625 4250 1398 4047 
Q 1172 3844 1172 3481 
z
" transform="scale(0.015625)"/>
       </defs>
       <use xlink:href="#DejaVuSans-38"/>
       <use xlink:href="#DejaVuSans-2e" x="63.623047"/>
       <use xlink:href="#DejaVuSans-30" x="95.410156"/>
      </g>
     </g>
    </g>
    <g id="xtick_4">
     <g id="line2d_4">
      <g>
       <use xlink:href="#m4b08f0f345" x="194.584091" y="288.36" style="stroke: #000000; stroke-width: 1.5"/>
      </g>
     </g>
     <g id="text_4">
      <!-- 8.5 -->
      <g transform="translate(185.042216 308.978125) scale(0.12 -0.12)">
       <use xlink:href="#DejaVuSans-38"/>
       <use xlink:href="#DejaVuSans-2e" x="63.623047"/>
       <use xlink:href="#DejaVuSans-35" x="95.410156"/>
      </g>
     </g>
    </g>
    <g id="xtick_5">
     <g id="line2d_5">
      <g>
       <use xlink:href="#m4b08f0f345" x="242.140909" y="288.36" style="stroke: #000000; stroke-width: 1.5"/>
      </g>
     </g>
     <g id="text_5">
      <!-- 9.0 -->
      <g transform="translate(232.599034 308.978125) scale(0.12 -0.12)">
       <defs>
        <path id="DejaVuSans-39" d="M 703 97 
L 703 672 
Q 941 559 1184 500 
Q 1428 441 1663 441 
Q 2288 441 2617 861 
Q 2947 1281 2994 2138 
Q 2813 1869 2534 1725 
Q 2256 1581 1919 1581 
Q 1219 1581 811 2004 
Q 403 2428 403 3163 
Q 403 3881 828 4315 
Q 1253 4750 1959 4750 
Q 2769 4750 3195 4129 
Q 3622 3509 3622 2328 
Q 3622 1225 3098 567 
Q 2575 -91 1691 -91 
Q 1453 -91 1209 -44 
Q 966 3 703 97 
z
M 1959 2075 
Q 2384 2075 2632 2365 
Q 2881 2656 2881 3163 
Q 2881 3666 2632 3958 
Q 2384 4250 1959 4250 
Q 1534 4250 1286 3958 
Q 1038 3666 1038 3163 
Q 1038 2656 1286 2365 
Q 1534 2075 1959 2075 
z
" transform="scale(0.015625)"/>
       </defs>
       <use xlink:href="#DejaVuSans-39"/>
       <use xlink:href="#DejaVuSans-2e" x="63.623047"/>
       <use xlink:href="#DejaVuSans-30" x="95.410156"/>
      </g>
     </g>
    </g>
    <g id="xtick_6">
     <g id="line2d_6">
      <g>
       <use xlink:href="#m4b08f0f345" x="289.697727" y="288.36" style="stroke: #000000; stroke-width: 1.5"/>
      </g>
     </g>
     <g id="text_6">
      <!-- 9.5 -->
      <g transform="translate(280.155852 308.978125) scale(0.12 -0.12)">
       <use xlink:href="#DejaVuSans-39"/>
       <use xlink:href="#DejaVuSans-2e" x="63.623047"/>
       <use xlink:href="#DejaVuSans-35" x="95.410156"/>
      </g>
     </g>
    </g>
   </g>
   <g id="matplotlib.axis_2">
    <g id="ytick_1">
     <g id="line2d_7">
      <defs>
       <path id="m386bf04a9f" d="M 0 0 
L -8 0 
" style="stroke: #000000; stroke-width: 1.5"/>
      </defs>
      <g>
       <use xlink:href="#m386bf04a9f" x="40.5" y="288.36" style="stroke: #000000; stroke-width: 1.5"/>
      </g>
     </g>
     <g id="text_7">
      <!-- 0.3 -->
      <g transform="translate(9.91625 292.919062) scale(0.12 -0.12)">
       <defs>
        <path id="DejaVuSans-33" d="M 2597 2516 
Q 3050 2419 3304 2112 
Q 3559 1806 3559 1356 
Q 3559 666 3084 287 
Q 2609 -91 1734 -91 
Q 1441 -91 1130 -33 
Q 819 25 488 141 
L 488 750 
Q 750 597 1062 519 
Q 1375 441 1716 441 
Q 2309 441 2620 675 
Q 2931 909 2931 1356 
Q 2931 1769 2642 2001 
Q 2353 2234 1838 2234 
L 1294 2234 
L 1294 2753 
L 1863 2753 
Q 2328 2753 2575 2939 
Q 2822 3125 2822 3475 
Q 2822 3834 2567 4026 
Q 2313 4219 1838 4219 
Q 1578 4219 1281 4162 
Q 984 4106 628 3988 
L 628 4550 
Q 988 4650 1302 4700 
Q 1616 4750 1894 4750 
Q 2613 4750 3031 4423 
Q 3450 4097 3450 3541 
Q 3450 3153 3228 2886 
Q 3006 2619 2597 2516 
z
" transform="scale(0.015625)"/>
       </defs>
       <use xlink:href="#DejaVuSans-30"/>
       <use xlink:href="#DejaVuSans-2e" x="63.623047"/>
       <use xlink:href="#DejaVuSans-33" x="95.410156"/>
      </g>
     </g>
    </g>
    <g id="ytick_2">
     <g id="line2d_8">
      <g>
       <use xlink:href="#m386bf04a9f" x="40.5" y="205.2" style="stroke: #000000; stroke-width: 1.5"/>
      </g>
     </g>
     <g id="text_8">
      <!-- 0.6 -->
      <g transform="translate(9.91625 209.759062) scale(0.12 -0.12)">
       <defs>
        <path id="DejaVuSans-36" d="M 2113 2584 
Q 1688 2584 1439 2293 
Q 1191 2003 1191 1497 
Q 1191 994 1439 701 
Q 1688 409 2113 409 
Q 2538 409 2786 701 
Q 3034 994 3034 1497 
Q 3034 2003 2786 2293 
Q 2538 2584 2113 2584 
z
M 3366 4563 
L 3366 3988 
Q 3128 4100 2886 4159 
Q 2644 4219 2406 4219 
Q 1781 4219 1451 3797 
Q 1122 3375 1075 2522 
Q 1259 2794 1537 2939 
Q 1816 3084 2150 3084 
Q 2853 3084 3261 2657 
Q 3669 2231 3669 1497 
Q 3669 778 3244 343 
Q 2819 -91 2113 -91 
Q 1303 -91 875 529 
Q 447 1150 447 2328 
Q 447 3434 972 4092 
Q 1497 4750 2381 4750 
Q 2619 4750 2861 4703 
Q 3103 4656 3366 4563 
z
" transform="scale(0.015625)"/>
       </defs>
       <use xlink:href="#DejaVuSans-30"/>
       <use xlink:href="#DejaVuSans-2e" x="63.623047"/>
       <use xlink:href="#DejaVuSans-36" x="95.410156"/>
      </g>
     </g>
    </g>
    <g id="ytick_3">
     <g id="line2d_9">
      <g>
       <use xlink:href="#m386bf04a9f" x="40.5" y="122.04" style="stroke: #000000; stroke-width: 1.5"/>
      </g>
     </g>
     <g id="text_9">
      <!-- 0.9 -->
      <g transform="translate(9.91625 126.599062) scale(0.12 -0.12)">
       <use xlink:href="#DejaVuSans-30"/>
       <use xlink:href="#DejaVuSans-2e" x="63.623047"/>
       <use xlink:href="#DejaVuSans-39" x="95.410156"/>
      </g>
     </g>
    </g>
    <g id="ytick_4">
     <g id="line2d_10">
      <g>
       <use xlink:href="#m386bf04a9f" x="40.5" y="38.88" style="stroke: #000000; stroke-width: 1.5"/>
      </g>
     </g>
     <g id="text_10">
      <!-- 1.2 -->
      <g transform="translate(9.91625 43.439062) scale(0.12 -0.12)">
       <defs>
        <path id="DejaVuSans-31" d="M 794 531 
L 1825 531 
L 1825 4091 
L 703 3866 
L 703 4441 
L 1819 4666 
L 2450 4666 
L 2450 531 
L 3481 531 
L 3481 0 
L 794 0 
L 794 531 
z
" transform="scale(0.015625)"/>
        <path id="DejaVuSans-32" d="M 1228 531 
L 3431 531 
L 3431 0 
L 469 0 
L 469 531 
Q 828 903 1448 1529 
Q 2069 2156 2228 2338 
Q 2531 2678 2651 2914 
Q 2772 3150 2772 3378 
Q 2772 3750 2511 3984 
Q 2250 4219 1831 4219 
Q 1534 4219 1204 4116 
Q 875 4013 500 3803 
L 500 4441 
Q 881 4594 1212 4672 
Q 1544 4750 1819 4750 
Q 2544 4750 2975 4387 
Q 3406 4025 3406 3419 
Q 3406 3131 3298 2873 
Q 3191 2616 2906 2266 
Q 2828 2175 2409 1742 
Q 1991 1309 1228 531 
z
" transform="scale(0.015625)"/>
       </defs>
       <use xlink:href="#DejaVuSans-31"/>
       <use xlink:href="#DejaVuSans-2e" x="63.623047"/>
       <use xlink:href="#DejaVuSans-32" x="95.410156"/>
      </g>
     </g>
    </g>
   </g>
   <g id="line2d_11">
    <path d="M 51.913636 160.522129 
L 70.936364 170.56016 
L 89.959091 178.464198 
L 108.981818 187.023964 
L 128.004545 197.274444 
L 147.027273 204.388688 
L 166.05 209.962921 
L 185.072727 217.727816 
L 204.095455 222.684016 
L 223.118182 228.816951 
L 242.140909 234.73714 
L 261.163636 239.537789 
L 280.186364 243.660083 
" clip-path="url(#p035f739746)" style="fill: none; stroke: #ff0000; stroke-width: 1.5; stroke-linecap: square"/>
   </g>
   <g id="LineCollection_1">
    <path d="M 51.913636 160.95306 
L 51.913636 160.091197 
" clip-path="url(#p035f739746)" style="fill: none; stroke: #ff0000; stroke-width: 2"/>
    <path d="M 70.936364 171.170178 
L 70.936364 169.950141 
" clip-path="url(#p035f739746)" style="fill: none; stroke: #ff0000; stroke-width: 2"/>
    <path d="M 89.959091 179.402065 
L 89.959091 177.526332 
" clip-path="url(#p035f739746)" style="fill: none; stroke: #ff0000; stroke-width: 2"/>
    <path d="M 108.981818 188.023896 
L 108.981818 186.024031 
" clip-path="url(#p035f739746)" style="fill: none; stroke: #ff0000; stroke-width: 2"/>
    <path d="M 128.004545 197.717953 
L 128.004545 196.830936 
" clip-path="url(#p035f739746)" style="fill: none; stroke: #ff0000; stroke-width: 2"/>
    <path d="M 147.027273 204.918887 
L 147.027273 203.858489 
" clip-path="url(#p035f739746)" style="fill: none; stroke: #ff0000; stroke-width: 2"/>
    <path d="M 166.05 210.806018 
L 166.05 209.119823 
" clip-path="url(#p035f739746)" style="fill: none; stroke: #ff0000; stroke-width: 2"/>
    <path d="M 185.072727 218.090427 
L 185.072727 217.365206 
" clip-path="url(#p035f739746)" style="fill: none; stroke: #ff0000; stroke-width: 2"/>
    <path d="M 204.095455 223.248488 
L 204.095455 222.119544 
" clip-path="url(#p035f739746)" style="fill: none; stroke: #ff0000; stroke-width: 2"/>
    <path d="M 223.118182 229.178747 
L 223.118182 228.455156 
" clip-path="url(#p035f739746)" style="fill: none; stroke: #ff0000; stroke-width: 2"/>
    <path d="M 242.140909 235.163679 
L 242.140909 234.310601 
" clip-path="url(#p035f739746)" style="fill: none; stroke: #ff0000; stroke-width: 2"/>
    <path d="M 261.163636 240.161027 
L 261.163636 238.914551 
" clip-path="url(#p035f739746)" style="fill: none; stroke: #ff0000; stroke-width: 2"/>
    <path d="M 280.186364 244.308497 
L 280.186364 243.01167 
" clip-path="url(#p035f739746)" style="fill: none; stroke: #ff0000; stroke-width: 2"/>
   </g>
   <g id="line2d_12">
    <defs>
     <path id="m6d54dffaa0" d="M 3 0 
L -3 -0 
" style="stroke: #ff0000; stroke-width: 2"/>
    </defs>
    <g clip-path="url(#p035f739746)">
     <use xlink:href="#m6d54dffaa0" x="51.913636" y="160.95306" style="fill: #ff0000; stroke: #ff0000; stroke-width: 2"/>
     <use xlink:href="#m6d54dffaa0" x="70.936364" y="171.170178" style="fill: #ff0000; stroke: #ff0000; stroke-width: 2"/>
     <use xlink:href="#m6d54dffaa0" x="89.959091" y="179.402065" style="fill: #ff0000; stroke: #ff0000; stroke-width: 2"/>
     <use xlink:href="#m6d54dffaa0" x="108.981818" y="188.023896" style="fill: #ff0000; stroke: #ff0000; stroke-width: 2"/>
     <use xlink:href="#m6d54dffaa0" x="128.004545" y="197.717953" style="fill: #ff0000; stroke: #ff0000; stroke-width: 2"/>
     <use xlink:href="#m6d54dffaa0" x="147.027273" y="204.918887" style="fill: #ff0000; stroke: #ff0000; stroke-width: 2"/>
     <use xlink:href="#m6d54dffaa0" x="166.05" y="210.806018" style="fill: #ff0000; stroke: #ff0000; stroke-width: 2"/>
     <use xlink:href="#m6d54dffaa0" x="185.072727" y="218.090427" style="fill: #ff0000; stroke: #ff0000; stroke-width: 2"/>
     <use xlink:href="#m6d54dffaa0" x="204.095455" y="223.248488" style="fill: #ff0000; stroke: #ff0000; stroke-width: 2"/>
     <use xlink:href="#m6d54dffaa0" x="223.118182" y="229.178747" style="fill: #ff0000; stroke: #ff0000; stroke-width: 2"/>
     <use xlink:href="#m6d54dffaa0" x="242.140909" y="235.163679" style="fill: #ff0000; stroke: #ff0000; stroke-width: 2"/>
     <use xlink:href="#m6d54dffaa0" x="261.163636" y="240.161027" style="fill: #ff0000; stroke: #ff0000; stroke-width: 2"/>
     <use xlink:href="#m6d54dffaa0" x="280.186364" y="244.308497" style="fill: #ff0000; stroke: #ff0000; stroke-width: 2"/>
    </g>
   </g>
   <g id="line2d_13">
    <g clip-path="url(#p035f739746)">
     <use xlink:href="#m6d54dffaa0" x="51.913636" y="160.091197" style="fill: #ff0000; stroke: #ff0000; stroke-width: 2"/>
     <use xlink:href="#m6d54dffaa0" x="70.936364" y="169.950141" style="fill: #ff0000; stroke: #ff0000; stroke-width: 2"/>
     <use xlink:href="#m6d54dffaa0" x="89.959091" y="177.526332" style="fill: #ff0000; stroke: #ff0000; stroke-width: 2"/>
     <use xlink:href="#m6d54dffaa0" x="108.981818" y="186.024031" style="fill: #ff0000; stroke: #ff0000; stroke-width: 2"/>
     <use xlink:href="#m6d54dffaa0" x="128.004545" y="196.830936" style="fill: #ff0000; stroke: #ff0000; stroke-width: 2"/>
     <use xlink:href="#m6d54dffaa0" x="147.027273" y="203.858489" style="fill: #ff0000; stroke: #ff0000; stroke-width: 2"/>
     <use xlink:href="#m6d54dffaa0" x="166.05" y="209.119823" style="fill: #ff0000; stroke: #ff0000; stroke-width: 2"/>
     <use xlink:href="#m6d54dffaa0" x="185.072727" y="217.365206" style="fill: #ff0000; stroke: #ff0000; stroke-width: 2"/>
     <use xlink:href="#m6d54dffaa0" x="204.095455" y="222.119544" style="fill: #ff0000; stroke: #ff0000; stroke-width: 2"/>
     <use xlink:href="#m6d54dffaa0" x="223.118182" y="228.455156" style="fill: #ff0000; stroke: #ff0000; stroke-width: 2"/>
     <use xlink:href="#m6d54dffaa0" x="242.140909" y="234.310601" style="fill: #ff0000; stroke: #ff0000; stroke-width: 2"/>
     <use xlink:href="#m6d54dffaa0" x="261.163636" y="238.914551" style="fill: #ff0000; stroke: #ff0000; stroke-width: 2"/>
     <use xlink:href="#m6d54dffaa0" x="280.186364" y="243.01167" style="fill: #ff0000; stroke: #ff0000; stroke-width: 2"/>
    </g>
   </g>
   <g id="line2d_14">
    <path d="M 51.913636 123.664117 
L 70.936364 143.434791 
L 89.959091 158.33606 
L 108.981818 172.90246 
L 128.004545 187.658908 
L 147.027273 199.227957 
L 166.05 210.51433 
L 185.072727 219.757055 
L 204.095455 229.160975 
L 223.118182 236.817661 
L 242.140909 244.366703 
L 261.163636 250.771353 
L 280.186364 257.357245 
" clip-path="url(#p035f739746)" style="fill: none; stroke: #000000; stroke-width: 1.5; stroke-linecap: square"/>
   </g>
   <g id="LineCollection_2">
    <path d="M 51.913636 124.081322 
L 51.913636 123.246912 
" clip-path="url(#p035f739746)" style="fill: none; stroke: #000000; stroke-width: 2"/>
    <path d="M 70.936364 144.301895 
L 70.936364 142.567686 
" clip-path="url(#p035f739746)" style="fill: none; stroke: #000000; stroke-width: 2"/>
    <path d="M 89.959091 159.036452 
L 89.959091 157.635668 
" clip-path="url(#p035f739746)" style="fill: none; stroke: #000000; stroke-width: 2"/>
    <path d="M 108.981818 173.422383 
L 108.981818 172.382536 
" clip-path="url(#p035f739746)" style="fill: none; stroke: #000000; stroke-width: 2"/>
    <path d="M 128.004545 187.998454 
L 128.004545 187.319362 
" clip-path="url(#p035f739746)" style="fill: none; stroke: #000000; stroke-width: 2"/>
    <path d="M 147.027273 199.634865 
L 147.027273 198.821048 
" clip-path="url(#p035f739746)" style="fill: none; stroke: #000000; stroke-width: 2"/>
    <path d="M 166.05 210.820456 
L 166.05 210.208203 
" clip-path="url(#p035f739746)" style="fill: none; stroke: #000000; stroke-width: 2"/>
    <path d="M 185.072727 220.186401 
L 185.072727 219.32771 
" clip-path="url(#p035f739746)" style="fill: none; stroke: #000000; stroke-width: 2"/>
    <path d="M 204.095455 229.50646 
L 204.095455 228.81549 
" clip-path="url(#p035f739746)" style="fill: none; stroke: #000000; stroke-width: 2"/>
    <path d="M 223.118182 237.312685 
L 223.118182 236.322637 
" clip-path="url(#p035f739746)" style="fill: none; stroke: #000000; stroke-width: 2"/>
    <path d="M 242.140909 244.710304 
L 242.140909 244.023102 
" clip-path="url(#p035f739746)" style="fill: none; stroke: #000000; stroke-width: 2"/>
    <path d="M 261.163636 250.921973 
L 261.163636 250.620733 
" clip-path="url(#p035f739746)" style="fill: none; stroke: #000000; stroke-width: 2"/>
    <path d="M 280.186364 257.816125 
L 280.186364 256.898364 
" clip-path="url(#p035f739746)" style="fill: none; stroke: #000000; stroke-width: 2"/>
   </g>
   <g id="line2d_15">
    <defs>
     <path id="m19c9037240" d="M 3 0 
L -3 -0 
" style="stroke: #000000; stroke-width: 2"/>
    </defs>
    <g clip-path="url(#p035f739746)">
     <use xlink:href="#m19c9037240" x="51.913636" y="124.081322" style="stroke: #000000; stroke-width: 2"/>
     <use xlink:href="#m19c9037240" x="70.936364" y="144.301895" style="stroke: #000000; stroke-width: 2"/>
     <use xlink:href="#m19c9037240" x="89.959091" y="159.036452" style="stroke: #000000; stroke-width: 2"/>
     <use xlink:href="#m19c9037240" x="108.981818" y="173.422383" style="stroke: #000000; stroke-width: 2"/>
     <use xlink:href="#m19c9037240" x="128.004545" y="187.998454" style="stroke: #000000; stroke-width: 2"/>
     <use xlink:href="#m19c9037240" x="147.027273" y="199.634865" style="stroke: #000000; stroke-width: 2"/>
     <use xlink:href="#m19c9037240" x="166.05" y="210.820456" style="stroke: #000000; stroke-width: 2"/>
     <use xlink:href="#m19c9037240" x="185.072727" y="220.186401" style="stroke: #000000; stroke-width: 2"/>
     <use xlink:href="#m19c9037240" x="204.095455" y="229.50646" style="stroke: #000000; stroke-width: 2"/>
     <use xlink:href="#m19c9037240" x="223.118182" y="237.312685" style="stroke: #000000; stroke-width: 2"/>
     <use xlink:href="#m19c9037240" x="242.140909" y="244.710304" style="stroke: #000000; stroke-width: 2"/>
     <use xlink:href="#m19c9037240" x="261.163636" y="250.921973" style="stroke: #000000; stroke-width: 2"/>
     <use xlink:href="#m19c9037240" x="280.186364" y="257.816125" style="stroke: #000000; stroke-width: 2"/>
    </g>
   </g>
   <g id="line2d_16">
    <g clip-path="url(#p035f739746)">
     <use xlink:href="#m19c9037240" x="51.913636" y="123.246912" style="stroke: #000000; stroke-width: 2"/>
     <use xlink:href="#m19c9037240" x="70.936364" y="142.567686" style="stroke: #000000; stroke-width: 2"/>
     <use xlink:href="#m19c9037240" x="89.959091" y="157.635668" style="stroke: #000000; stroke-width: 2"/>
     <use xlink:href="#m19c9037240" x="108.981818" y="172.382536" style="stroke: #000000; stroke-width: 2"/>
     <use xlink:href="#m19c9037240" x="128.004545" y="187.319362" style="stroke: #000000; stroke-width: 2"/>
     <use xlink:href="#m19c9037240" x="147.027273" y="198.821048" style="stroke: #000000; stroke-width: 2"/>
     <use xlink:href="#m19c9037240" x="166.05" y="210.208203" style="stroke: #000000; stroke-width: 2"/>
     <use xlink:href="#m19c9037240" x="185.072727" y="219.32771" style="stroke: #000000; stroke-width: 2"/>
     <use xlink:href="#m19c9037240" x="204.095455" y="228.81549" style="stroke: #000000; stroke-width: 2"/>
     <use xlink:href="#m19c9037240" x="223.118182" y="236.322637" style="stroke: #000000; stroke-width: 2"/>
     <use xlink:href="#m19c9037240" x="242.140909" y="244.023102" style="stroke: #000000; stroke-width: 2"/>
     <use xlink:href="#m19c9037240" x="261.163636" y="250.620733" style="stroke: #000000; stroke-width: 2"/>
     <use xlink:href="#m19c9037240" x="280.186364" y="256.898364" style="stroke: #000000; stroke-width: 2"/>
    </g>
   </g>
   <g id="line2d_17">
    <path d="M 51.913636 90.068627 
L 70.936364 115.738287 
L 89.959091 137.894178 
L 108.981818 160.376017 
L 128.004545 179.579413 
L 147.027273 194.788829 
L 166.05 209.62286 
L 185.072727 221.65243 
L 204.095455 232.669545 
L 223.118182 242.34182 
L 242.140909 250.833356 
L 261.163636 258.749447 
L 280.186364 266.668708 
" clip-path="url(#p035f739746)" style="fill: none; stroke: #0000ff; stroke-width: 1.5; stroke-linecap: square"/>
   </g>
   <g id="LineCollection_3">
    <path d="M 51.913636 91.181307 
L 51.913636 88.955947 
" clip-path="url(#p035f739746)" style="fill: none; stroke: #0000ff; stroke-width: 2"/>
    <path d="M 70.936364 116.266205 
L 70.936364 115.21037 
" clip-path="url(#p035f739746)" style="fill: none; stroke: #0000ff; stroke-width: 2"/>
    <path d="M 89.959091 138.745838 
L 89.959091 137.042518 
" clip-path="url(#p035f739746)" style="fill: none; stroke: #0000ff; stroke-width: 2"/>
    <path d="M 108.981818 161.28545 
L 108.981818 159.466583 
" clip-path="url(#p035f739746)" style="fill: none; stroke: #0000ff; stroke-width: 2"/>
    <path d="M 128.004545 180.156544 
L 128.004545 179.002283 
" clip-path="url(#p035f739746)" style="fill: none; stroke: #0000ff; stroke-width: 2"/>
    <path d="M 147.027273 195.262149 
L 147.027273 194.315509 
" clip-path="url(#p035f739746)" style="fill: none; stroke: #0000ff; stroke-width: 2"/>
    <path d="M 166.05 210.135743 
L 166.05 209.109977 
" clip-path="url(#p035f739746)" style="fill: none; stroke: #0000ff; stroke-width: 2"/>
    <path d="M 185.072727 222.467014 
L 185.072727 220.837847 
" clip-path="url(#p035f739746)" style="fill: none; stroke: #0000ff; stroke-width: 2"/>
    <path d="M 204.095455 232.974076 
L 204.095455 232.365014 
" clip-path="url(#p035f739746)" style="fill: none; stroke: #0000ff; stroke-width: 2"/>
    <path d="M 223.118182 242.707723 
L 223.118182 241.975917 
" clip-path="url(#p035f739746)" style="fill: none; stroke: #0000ff; stroke-width: 2"/>
    <path d="M 242.140909 251.62731 
L 242.140909 250.039403 
" clip-path="url(#p035f739746)" style="fill: none; stroke: #0000ff; stroke-width: 2"/>
    <path d="M 261.163636 259.254947 
L 261.163636 258.243947 
" clip-path="url(#p035f739746)" style="fill: none; stroke: #0000ff; stroke-width: 2"/>
    <path d="M 280.186364 267.016856 
L 280.186364 266.32056 
" clip-path="url(#p035f739746)" style="fill: none; stroke: #0000ff; stroke-width: 2"/>
   </g>
   <g id="line2d_18">
    <defs>
     <path id="mc9cfa95231" d="M 3 0 
L -3 -0 
" style="stroke: #0000ff; stroke-width: 2"/>
    </defs>
    <g clip-path="url(#p035f739746)">
     <use xlink:href="#mc9cfa95231" x="51.913636" y="91.181307" style="fill: #0000ff; stroke: #0000ff; stroke-width: 2"/>
     <use xlink:href="#mc9cfa95231" x="70.936364" y="116.266205" style="fill: #0000ff; stroke: #0000ff; stroke-width: 2"/>
     <use xlink:href="#mc9cfa95231" x="89.959091" y="138.745838" style="fill: #0000ff; stroke: #0000ff; stroke-width: 2"/>
     <use xlink:href="#mc9cfa95231" x="108.981818" y="161.28545" style="fill: #0000ff; stroke: #0000ff; stroke-width: 2"/>
     <use xlink:href="#mc9cfa95231" x="128.004545" y="180.156544" style="fill: #0000ff; stroke: #0000ff; stroke-width: 2"/>
     <use xlink:href="#mc9cfa95231" x="147.027273" y="195.262149" style="fill: #0000ff; stroke: #0000ff; stroke-width: 2"/>
     <use xlink:href="#mc9cfa95231" x="166.05" y="210.135743" style="fill: #0000ff; stroke: #0000ff; stroke-width: 2"/>
     <use xlink:href="#mc9cfa95231" x="185.072727" y="222.467014" style="fill: #0000ff; stroke: #0000ff; stroke-width: 2"/>
     <use xlink:href="#mc9cfa95231" x="204.095455" y="232.974076" style="fill: #0000ff; stroke: #0000ff; stroke-width: 2"/>
     <use xlink:href="#mc9cfa95231" x="223.118182" y="242.707723" style="fill: #0000ff; stroke: #0000ff; stroke-width: 2"/>
     <use xlink:href="#mc9cfa95231" x="242.140909" y="251.62731" style="fill: #0000ff; stroke: #0000ff; stroke-width: 2"/>
     <use xlink:href="#mc9cfa95231" x="261.163636" y="259.254947" style="fill: #0000ff; stroke: #0000ff; stroke-width: 2"/>
     <use xlink:href="#mc9cfa95231" x="280.186364" y="267.016856" style="fill: #0000ff; stroke: #0000ff; stroke-width: 2"/>
    </g>
   </g>
   <g id="line2d_19">
    <g clip-path="url(#p035f739746)">
     <use xlink:href="#mc9cfa95231" x="51.913636" y="88.955947" style="fill: #0000ff; stroke: #0000ff; stroke-width: 2"/>
     <use xlink:href="#mc9cfa95231" x="70.936364" y="115.21037" style="fill: #0000ff; stroke: #0000ff; stroke-width: 2"/>
     <use xlink:href="#mc9cfa95231" x="89.959091" y="137.042518" style="fill: #0000ff; stroke: #0000ff; stroke-width: 2"/>
     <use xlink:href="#mc9cfa95231" x="108.981818" y="159.466583" style="fill: #0000ff; stroke: #0000ff; stroke-width: 2"/>
     <use xlink:href="#mc9cfa95231" x="128.004545" y="179.002283" style="fill: #0000ff; stroke: #0000ff; stroke-width: 2"/>
     <use xlink:href="#mc9cfa95231" x="147.027273" y="194.315509" style="fill: #0000ff; stroke: #0000ff; stroke-width: 2"/>
     <use xlink:href="#mc9cfa95231" x="166.05" y="209.109977" style="fill: #0000ff; stroke: #0000ff; stroke-width: 2"/>
     <use xlink:href="#mc9cfa95231" x="185.072727" y="220.837847" style="fill: #0000ff; stroke: #0000ff; stroke-width: 2"/>
     <use xlink:href="#mc9cfa95231" x="204.095455" y="232.365014" style="fill: #0000ff; stroke: #0000ff; stroke-width: 2"/>
     <use xlink:href="#mc9cfa95231" x="223.118182" y="241.975917" style="fill: #0000ff; stroke: #0000ff; stroke-width: 2"/>
     <use xlink:href="#mc9cfa95231" x="242.140909" y="250.039403" style="fill: #0000ff; stroke: #0000ff; stroke-width: 2"/>
     <use xlink:href="#mc9cfa95231" x="261.163636" y="258.243947" style="fill: #0000ff; stroke: #0000ff; stroke-width: 2"/>
     <use xlink:href="#mc9cfa95231" x="280.186364" y="266.32056" style="fill: #0000ff; stroke: #0000ff; stroke-width: 2"/>
    </g>
   </g>
   <g id="line2d_20">
    <path d="M 51.913636 53.994751 
L 70.936364 91.392514 
L 89.959091 121.555183 
L 108.981818 146.745431 
L 128.004545 169.727522 
L 147.027273 190.894782 
L 166.05 207.81801 
L 185.072727 221.693195 
L 204.095455 235.380527 
L 223.118182 248.095655 
L 242.140909 258.132807 
L 261.163636 265.946332 
L 280.186364 273.632211 
" clip-path="url(#p035f739746)" style="fill: none; stroke: #bf00bf; stroke-width: 1.5; stroke-linecap: square"/>
   </g>
   <g id="LineCollection_4">
    <path d="M 51.913636 54.772602 
L 51.913636 53.2169 
" clip-path="url(#p035f739746)" style="fill: none; stroke: #bf00bf; stroke-width: 2"/>
    <path d="M 70.936364 92.205762 
L 70.936364 90.579267 
" clip-path="url(#p035f739746)" style="fill: none; stroke: #bf00bf; stroke-width: 2"/>
    <path d="M 89.959091 122.005959 
L 89.959091 121.104408 
" clip-path="url(#p035f739746)" style="fill: none; stroke: #bf00bf; stroke-width: 2"/>
    <path d="M 108.981818 147.395157 
L 108.981818 146.095705 
" clip-path="url(#p035f739746)" style="fill: none; stroke: #bf00bf; stroke-width: 2"/>
    <path d="M 128.004545 170.476223 
L 128.004545 168.97882 
" clip-path="url(#p035f739746)" style="fill: none; stroke: #bf00bf; stroke-width: 2"/>
    <path d="M 147.027273 191.669378 
L 147.027273 190.120187 
" clip-path="url(#p035f739746)" style="fill: none; stroke: #bf00bf; stroke-width: 2"/>
    <path d="M 166.05 208.085265 
L 166.05 207.550755 
" clip-path="url(#p035f739746)" style="fill: none; stroke: #bf00bf; stroke-width: 2"/>
    <path d="M 185.072727 222.084423 
L 185.072727 221.301966 
" clip-path="url(#p035f739746)" style="fill: none; stroke: #bf00bf; stroke-width: 2"/>
    <path d="M 204.095455 235.654741 
L 204.095455 235.106314 
" clip-path="url(#p035f739746)" style="fill: none; stroke: #bf00bf; stroke-width: 2"/>
    <path d="M 223.118182 248.370599 
L 223.118182 247.820711 
" clip-path="url(#p035f739746)" style="fill: none; stroke: #bf00bf; stroke-width: 2"/>
    <path d="M 242.140909 258.313606 
L 242.140909 257.952007 
" clip-path="url(#p035f739746)" style="fill: none; stroke: #bf00bf; stroke-width: 2"/>
    <path d="M 261.163636 266.336091 
L 261.163636 265.556572 
" clip-path="url(#p035f739746)" style="fill: none; stroke: #bf00bf; stroke-width: 2"/>
    <path d="M 280.186364 274.070195 
L 280.186364 273.194228 
" clip-path="url(#p035f739746)" style="fill: none; stroke: #bf00bf; stroke-width: 2"/>
   </g>
   <g id="line2d_21">
    <defs>
     <path id="m9e9aaedaf5" d="M 3 0 
L -3 -0 
" style="stroke: #bf00bf; stroke-width: 2"/>
    </defs>
    <g clip-path="url(#p035f739746)">
     <use xlink:href="#m9e9aaedaf5" x="51.913636" y="54.772602" style="fill: #bf00bf; stroke: #bf00bf; stroke-width: 2"/>
     <use xlink:href="#m9e9aaedaf5" x="70.936364" y="92.205762" style="fill: #bf00bf; stroke: #bf00bf; stroke-width: 2"/>
     <use xlink:href="#m9e9aaedaf5" x="89.959091" y="122.005959" style="fill: #bf00bf; stroke: #bf00bf; stroke-width: 2"/>
     <use xlink:href="#m9e9aaedaf5" x="108.981818" y="147.395157" style="fill: #bf00bf; stroke: #bf00bf; stroke-width: 2"/>
     <use xlink:href="#m9e9aaedaf5" x="128.004545" y="170.476223" style="fill: #bf00bf; stroke: #bf00bf; stroke-width: 2"/>
     <use xlink:href="#m9e9aaedaf5" x="147.027273" y="191.669378" style="fill: #bf00bf; stroke: #bf00bf; stroke-width: 2"/>
     <use xlink:href="#m9e9aaedaf5" x="166.05" y="208.085265" style="fill: #bf00bf; stroke: #bf00bf; stroke-width: 2"/>
     <use xlink:href="#m9e9aaedaf5" x="185.072727" y="222.084423" style="fill: #bf00bf; stroke: #bf00bf; stroke-width: 2"/>
     <use xlink:href="#m9e9aaedaf5" x="204.095455" y="235.654741" style="fill: #bf00bf; stroke: #bf00bf; stroke-width: 2"/>
     <use xlink:href="#m9e9aaedaf5" x="223.118182" y="248.370599" style="fill: #bf00bf; stroke: #bf00bf; stroke-width: 2"/>
     <use xlink:href="#m9e9aaedaf5" x="242.140909" y="258.313606" style="fill: #bf00bf; stroke: #bf00bf; stroke-width: 2"/>
     <use xlink:href="#m9e9aaedaf5" x="261.163636" y="266.336091" style="fill: #bf00bf; stroke: #bf00bf; stroke-width: 2"/>
     <use xlink:href="#m9e9aaedaf5" x="280.186364" y="274.070195" style="fill: #bf00bf; stroke: #bf00bf; stroke-width: 2"/>
    </g>
   </g>
   <g id="line2d_22">
    <g clip-path="url(#p035f739746)">
     <use xlink:href="#m9e9aaedaf5" x="51.913636" y="53.2169" style="fill: #bf00bf; stroke: #bf00bf; stroke-width: 2"/>
     <use xlink:href="#m9e9aaedaf5" x="70.936364" y="90.579267" style="fill: #bf00bf; stroke: #bf00bf; stroke-width: 2"/>
     <use xlink:href="#m9e9aaedaf5" x="89.959091" y="121.104408" style="fill: #bf00bf; stroke: #bf00bf; stroke-width: 2"/>
     <use xlink:href="#m9e9aaedaf5" x="108.981818" y="146.095705" style="fill: #bf00bf; stroke: #bf00bf; stroke-width: 2"/>
     <use xlink:href="#m9e9aaedaf5" x="128.004545" y="168.97882" style="fill: #bf00bf; stroke: #bf00bf; stroke-width: 2"/>
     <use xlink:href="#m9e9aaedaf5" x="147.027273" y="190.120187" style="fill: #bf00bf; stroke: #bf00bf; stroke-width: 2"/>
     <use xlink:href="#m9e9aaedaf5" x="166.05" y="207.550755" style="fill: #bf00bf; stroke: #bf00bf; stroke-width: 2"/>
     <use xlink:href="#m9e9aaedaf5" x="185.072727" y="221.301966" style="fill: #bf00bf; stroke: #bf00bf; stroke-width: 2"/>
     <use xlink:href="#m9e9aaedaf5" x="204.095455" y="235.106314" style="fill: #bf00bf; stroke: #bf00bf; stroke-width: 2"/>
     <use xlink:href="#m9e9aaedaf5" x="223.118182" y="247.820711" style="fill: #bf00bf; stroke: #bf00bf; stroke-width: 2"/>
     <use xlink:href="#m9e9aaedaf5" x="242.140909" y="257.952007" style="fill: #bf00bf; stroke: #bf00bf; stroke-width: 2"/>
     <use xlink:href="#m9e9aaedaf5" x="261.163636" y="265.556572" style="fill: #bf00bf; stroke: #bf00bf; stroke-width: 2"/>
     <use xlink:href="#m9e9aaedaf5" x="280.186364" y="273.194228" style="fill: #bf00bf; stroke: #bf00bf; stroke-width: 2"/>
    </g>
   </g>
   <g id="line2d_23">
    <path d="M 51.913636 160.522129 
L 70.936364 170.56016 
L 89.959091 178.464198 
L 108.981818 187.023964 
L 128.004545 197.274444 
L 147.027273 204.388688 
L 166.05 209.962921 
L 185.072727 217.727816 
L 204.095455 222.684016 
L 223.118182 228.816951 
L 242.140909 234.73714 
L 261.163636 239.537789 
L 280.186364 243.660083 
" clip-path="url(#p035f739746)" style="fill: none; stroke: #ff0000; stroke-width: 1.5; stroke-linecap: square"/>
   </g>
   <g id="line2d_24">
    <path d="M 51.913636 123.664117 
L 70.936364 143.434791 
L 89.959091 158.33606 
L 108.981818 172.90246 
L 128.004545 187.658908 
L 147.027273 199.227957 
L 166.05 210.51433 
L 185.072727 219.757055 
L 204.095455 229.160975 
L 223.118182 236.817661 
L 242.140909 244.366703 
L 261.163636 250.771353 
L 280.186364 257.357245 
" clip-path="url(#p035f739746)" style="fill: none; stroke: #000000; stroke-width: 1.5; stroke-linecap: square"/>
   </g>
   <g id="line2d_25">
    <path d="M 51.913636 90.068627 
L 70.936364 115.738287 
L 89.959091 137.894178 
L 108.981818 160.376017 
L 128.004545 179.579413 
L 147.027273 194.788829 
L 166.05 209.62286 
L 185.072727 221.65243 
L 204.095455 232.669545 
L 223.118182 242.34182 
L 242.140909 250.833356 
L 261.163636 258.749447 
L 280.186364 266.668708 
" clip-path="url(#p035f739746)" style="fill: none; stroke: #0000ff; stroke-width: 1.5; stroke-linecap: square"/>
   </g>
   <g id="line2d_26">
    <path d="M 51.913636 53.994751 
L 70.936364 91.392514 
L 89.959091 121.555183 
L 108.981818 146.745431 
L 128.004545 169.727522 
L 147.027273 190.894782 
L 166.05 207.81801 
L 185.072727 221.693195 
L 204.095455 235.380527 
L 223.118182 248.095655 
L 242.140909 258.132807 
L 261.163636 265.946332 
L 280.186364 273.632211 
" clip-path="url(#p035f739746)" style="fill: none; stroke: #bf00bf; stroke-width: 1.5; stroke-linecap: square"/>
   </g>
   <g id="patch_3">
    <path d="M 40.5 288.36 
L 40.5 38.88 
" style="fill: none; stroke: #000000; stroke-width: 1.6; stroke-linejoin: miter; stroke-linecap: square"/>
   </g>
   <g id="patch_4">
    <path d="M 291.6 288.36 
L 291.6 38.88 
" style="fill: none; stroke: #000000; stroke-width: 1.6; stroke-linejoin: miter; stroke-linecap: square"/>
   </g>
   <g id="patch_5">
    <path d="M 40.5 288.36 
L 291.6 288.36 
" style="fill: none; stroke: #000000; stroke-width: 1.6; stroke-linejoin: miter; stroke-linecap: square"/>
   </g>
   <g id="patch_6">
    <path d="M 40.5 38.88 
L 291.6 38.88 
" style="fill: none; stroke: #000000; stroke-width: 1.6; stroke-linejoin: miter; stroke-linecap: square"/>
   </g>
   <g id="legend_1">
    <g id="patch_7">
     <path d="M 209.120625 118.935 
L 283.2 118.935 
Q 285.6 118.935 285.6 116.535 
L 285.6 47.28 
Q 285.6 44.88 283.2 44.88 
L 209.120625 44.88 
Q 206.720625 44.88 206.720625 47.28 
L 206.720625 116.535 
Q 206.720625 118.935 209.120625 118.935 
z
" style="fill: #ffffff; opacity: 0.8"/>
    </g>
    <g id="LineCollection_5">
     <path d="M 223.520625 60.598125 
L 223.520625 48.598125 
" style="fill: none; stroke: #ff0000; stroke-width: 2"/>
    </g>
    <g id="line2d_27">
     <g>
      <use xlink:href="#m6d54dffaa0" x="223.520625" y="60.598125" style="fill: #ff0000; stroke: #ff0000; stroke-width: 2"/>
     </g>
    </g>
    <g id="line2d_28">
     <g>
      <use xlink:href="#m6d54dffaa0" x="223.520625" y="48.598125" style="fill: #ff0000; stroke: #ff0000; stroke-width: 2"/>
     </g>
    </g>
    <g id="line2d_29">
     <path d="M 211.520625 54.598125 
L 235.520625 54.598125 
" style="fill: none; stroke: #ff0000; stroke-width: 1.5; stroke-linecap: square"/>
    </g>
    <g id="line2d_30"/>
    <g id="text_11">
     <!-- M=4 -->
     <g transform="translate(245.120625 58.798125) scale(0.12 -0.12)">
      <defs>
       <path id="DejaVuSans-4d" d="M 628 4666 
L 1569 4666 
L 2759 1491 
L 3956 4666 
L 4897 4666 
L 4897 0 
L 4281 0 
L 4281 4097 
L 3078 897 
L 2444 897 
L 1241 4097 
L 1241 0 
L 628 0 
L 628 4666 
z
" transform="scale(0.015625)"/>
       <path id="DejaVuSans-3d" d="M 678 2906 
L 4684 2906 
L 4684 2381 
L 678 2381 
L 678 2906 
z
M 678 1631 
L 4684 1631 
L 4684 1100 
L 678 1100 
L 678 1631 
z
" transform="scale(0.015625)"/>
       <path id="DejaVuSans-34" d="M 2419 4116 
L 825 1625 
L 2419 1625 
L 2419 4116 
z
M 2253 4666 
L 3047 4666 
L 3047 1625 
L 3713 1625 
L 3713 1100 
L 3047 1100 
L 3047 0 
L 2419 0 
L 2419 1100 
L 313 1100 
L 313 1709 
L 2253 4666 
z
" transform="scale(0.015625)"/>
      </defs>
      <use xlink:href="#DejaVuSans-4d"/>
      <use xlink:href="#DejaVuSans-3d" x="86.279297"/>
      <use xlink:href="#DejaVuSans-34" x="170.068359"/>
     </g>
    </g>
    <g id="LineCollection_6">
     <path d="M 223.520625 78.211875 
L 223.520625 66.211875 
" style="fill: none; stroke: #000000; stroke-width: 2"/>
    </g>
    <g id="line2d_31">
     <g>
      <use xlink:href="#m19c9037240" x="223.520625" y="78.211875" style="stroke: #000000; stroke-width: 2"/>
     </g>
    </g>
    <g id="line2d_32">
     <g>
      <use xlink:href="#m19c9037240" x="223.520625" y="66.211875" style="stroke: #000000; stroke-width: 2"/>
     </g>
    </g>
    <g id="line2d_33">
     <path d="M 211.520625 72.211875 
L 235.520625 72.211875 
" style="fill: none; stroke: #000000; stroke-width: 1.5; stroke-linecap: square"/>
    </g>
    <g id="line2d_34"/>
    <g id="text_12">
     <!-- M=8 -->
     <g transform="translate(245.120625 76.411875) scale(0.12 -0.12)">
      <use xlink:href="#DejaVuSans-4d"/>
      <use xlink:href="#DejaVuSans-3d" x="86.279297"/>
      <use xlink:href="#DejaVuSans-38" x="170.068359"/>
     </g>
    </g>
    <g id="LineCollection_7">
     <path d="M 223.520625 95.825625 
L 223.520625 83.825625 
" style="fill: none; stroke: #0000ff; stroke-width: 2"/>
    </g>
    <g id="line2d_35">
     <g>
      <use xlink:href="#mc9cfa95231" x="223.520625" y="95.825625" style="fill: #0000ff; stroke: #0000ff; stroke-width: 2"/>
     </g>
    </g>
    <g id="line2d_36">
     <g>
      <use xlink:href="#mc9cfa95231" x="223.520625" y="83.825625" style="fill: #0000ff; stroke: #0000ff; stroke-width: 2"/>
     </g>
    </g>
    <g id="line2d_37">
     <path d="M 211.520625 89.825625 
L 235.520625 89.825625 
" style="fill: none; stroke: #0000ff; stroke-width: 1.5; stroke-linecap: square"/>
    </g>
    <g id="line2d_38"/>
    <g id="text_13">
     <!-- M=12 -->
     <g transform="translate(245.120625 94.025625) scale(0.12 -0.12)">
      <use xlink:href="#DejaVuSans-4d"/>
      <use xlink:href="#DejaVuSans-3d" x="86.279297"/>
      <use xlink:href="#DejaVuSans-31" x="170.068359"/>
      <use xlink:href="#DejaVuSans-32" x="233.691406"/>
     </g>
    </g>
    <g id="LineCollection_8">
     <path d="M 223.520625 113.439375 
L 223.520625 101.439375 
" style="fill: none; stroke: #bf00bf; stroke-width: 2"/>
    </g>
    <g id="line2d_39">
     <g>
      <use xlink:href="#m9e9aaedaf5" x="223.520625" y="113.439375" style="fill: #bf00bf; stroke: #bf00bf; stroke-width: 2"/>
     </g>
    </g>
    <g id="line2d_40">
     <g>
      <use xlink:href="#m9e9aaedaf5" x="223.520625" y="101.439375" style="fill: #bf00bf; stroke: #bf00bf; stroke-width: 2"/>
     </g>
    </g>
    <g id="line2d_41">
     <path d="M 211.520625 107.439375 
L 235.520625 107.439375 
" style="fill: none; stroke: #bf00bf; stroke-width: 1.5; stroke-linecap: square"/>
    </g>
    <g id="line2d_42"/>
    <g id="text_14">
     <!-- M=16 -->
     <g transform="translate(245.120625 111.639375) scale(0.12 -0.12)">
      <use xlink:href="#DejaVuSans-4d"/>
      <use xlink:href="#DejaVuSans-3d" x="86.279297"/>
      <use xlink:href="#DejaVuSans-31" x="170.068359"/>
      <use xlink:href="#DejaVuSans-36" x="233.691406"/>
     </g>
    </g>
   </g>
  </g>
 </g>
 <defs>
  <clipPath id="p035f739746">
   <rect x="40.5" y="38.88" width="251.1" height="249.48"/>
  </clipPath>
 </defs>
</svg>
