<?xml version="1.0" encoding="utf-8" standalone="no"?>
<!DOCTYPE svg PUBLIC "-//W3C//DTD SVG 1.1//EN"
  "http://www.w3.org/Graphics/SVG/1.1/DTD/svg11.dtd">
<svg xmlns:xlink="http://www.w3.org/1999/xlink" width="324pt" height="324pt" viewBox="0 0 324 324" xmlns="http://www.w3.org/2000/svg" version="1.1">
 <metadata>
  <rdf:RDF xmlns:dc="http://purl.org/dc/elements/1.1/" xmlns:cc="http://creativecommons.org/ns#" xmlns:rdf="http://www.w3.org/1999/02/22-rdf-syntax-ns#">
   <cc:Work>
    <dc:type rdf:resource="http://purl.org/dc/dcmitype/StillImage"/>
    <dc:date>2025-12-10T13:35:02.015418</dc:date>
    <dc:format>image/svg+xml</dc:format>
    <dc:creator>
     <cc:Agent>
      <dc:title>Matplotlib v3.8.0, https://matplotlib.org/</dc:title>
     </cc:Agent>
    </dc:creator>
   </cc:Work>
  </rdf:RDF>
 </metadata>
 <defs>
  <style type="text/css">*{stroke-linejoin: round; stroke-linecap: butt}</style>
 </defs>
 <g id="figure_1">
  <g id="patch_1">
   <path d="M 0 324 
L 324 324 
L 324 0 
L 0 0 
z
" style="fill: #ffffff"/>
  </g>
  <g id="axes_1">
   <g id="patch_2">
    <path d="M 40.5 288.36 
L 291.6 288.36 
L 291.6 38.88 
L 40.5 38.88 
z
" style="fill: #ffffff"/>
   </g>
   <g id="matplotlib.axis_1">
    <g id="xtick_1">
     <g id="line2d_1">
      <defs>
       <path id="m9dd2865773" d="M 0 0 
L 0 8 
" style="stroke: #000000; stroke-width: 1.5"/>
      </defs>
      <g>
       <use xlink:href="#m9dd2865773" x="40.5" y="288.36" style="stroke: #000000; stroke-width: 1.5"/>
      </g>
     </g>
     <g id="text_1">
      <!-- −10 -->
      <g transform="translate(27.837187 308.978125) scale(0.12 -0.12)">
       <defs>
        <path id="DejaVuSans-2212" d="M 678 2272 
L 4684 2272 
L 4684 1741 
L 678 1741 
L 678 2272 
z
" transform="scale(0.015625)"/>
        <path id="DejaVuSans-31" d="M 794 531 
L 1825 531 
L 1825 4091 
L 703 3866 
L 703 4441 
L 1819 4666 
L 2450 4666 
L 2450 531 
L 3481 531 
L 3481 0 
L 794 0 
L 794 531 
z
" transform="scale(0.015625)"/>
        <path id="DejaVuSans-30" d="M 2034 4250 
Q 1547 4250 1301 3770 
Q 1056 3291 1056 2328 
Q 1056 1369 1301 889 
Q 1547 409 2034 409 
Q 2525 409 2770 889 
Q 3016 1369 3016 2328 
Q 3016 3291 2770 3770 
Q 2525 4250 2034 4250 
z
M 2034 4750 
Q 2819 4750 3233 4129 
Q 3647 3509 3647 2328 
Q 3647 1150 3233 529 
Q 2819 -91 2034 -91 
Q 1250 -91 836 529 
Q 422 1150 422 2328 
Q 422 3509 836 4129 
Q 1250 4750 2034 4750 
z
" transform="scale(0.015625)"/>
       </defs>
       <use xlink:href="#DejaVuSans-2212"/>
       <use xlink:href="#DejaVuSans-31" x="83.789062"/>
       <use xlink:href="#DejaVuSans-30" x="147.412109"/>
      </g>
     </g>
    </g>
    <g id="xtick_2">
     <g id="line2d_2">
      <g>
       <use xlink:href="#m9dd2865773" x="88.328571" y="288.36" style="stroke: #000000; stroke-width: 1.5"/>
      </g>
     </g>
     <g id="text_2">
      <!-- −8 -->
      <g transform="translate(79.483259 308.978125) scale(0.12 -0.12)">
       <defs>
        <path id="DejaVuSans-38" d="M 2034 2216 
Q 1584 2216 1326 1975 
Q 1069 1734 1069 1313 
Q 1069 891 1326 650 
Q 1584 409 2034 409 
Q 2484 409 2743 651 
Q 3003 894 3003 1313 
Q 3003 1734 2745 1975 
Q 2488 2216 2034 2216 
z
M 1403 2484 
Q 997 2584 770 2862 
Q 544 3141 544 3541 
Q 544 4100 942 4425 
Q 1341 4750 2034 4750 
Q 2731 4750 3128 4425 
Q 3525 4100 3525 3541 
Q 3525 3141 3298 2862 
Q 3072 2584 2669 2484 
Q 3125 2378 3379 2068 
Q 3634 1759 3634 1313 
Q 3634 634 3220 271 
Q 2806 -91 2034 -91 
Q 1263 -91 848 271 
Q 434 634 434 1313 
Q 434 1759 690 2068 
Q 947 2378 1403 2484 
z
M 1172 3481 
Q 1172 3119 1398 2916 
Q 1625 2713 2034 2713 
Q 2441 2713 2670 2916 
Q 2900 3119 2900 3481 
Q 2900 3844 2670 4047 
Q 2441 4250 2034 4250 
Q 1625 4250 1398 4047 
Q 1172 3844 1172 3481 
z
" transform="scale(0.015625)"/>
       </defs>
       <use xlink:href="#DejaVuSans-2212"/>
       <use xlink:href="#DejaVuSans-38" x="83.789062"/>
      </g>
     </g>
    </g>
    <g id="xtick_3">
     <g id="line2d_3">
      <g>
       <use xlink:href="#m9dd2865773" x="136.157143" y="288.36" style="stroke: #000000; stroke-width: 1.5"/>
      </g>
     </g>
     <g id="text_3">
      <!-- −6 -->
      <g transform="translate(127.31183 308.978125) scale(0.12 -0.12)">
       <defs>
        <path id="DejaVuSans-36" d="M 2113 2584 
Q 1688 2584 1439 2293 
Q 1191 2003 1191 1497 
Q 1191 994 1439 701 
Q 1688 409 2113 409 
Q 2538 409 2786 701 
Q 3034 994 3034 1497 
Q 3034 2003 2786 2293 
Q 2538 2584 2113 2584 
z
M 3366 4563 
L 3366 3988 
Q 3128 4100 2886 4159 
Q 2644 4219 2406 4219 
Q 1781 4219 1451 3797 
Q 1122 3375 1075 2522 
Q 1259 2794 1537 2939 
Q 1816 3084 2150 3084 
Q 2853 3084 3261 2657 
Q 3669 2231 3669 1497 
Q 3669 778 3244 343 
Q 2819 -91 2113 -91 
Q 1303 -91 875 529 
Q 447 1150 447 2328 
Q 447 3434 972 4092 
Q 1497 4750 2381 4750 
Q 2619 4750 2861 4703 
Q 3103 4656 3366 4563 
z
" transform="scale(0.015625)"/>
       </defs>
       <use xlink:href="#DejaVuSans-2212"/>
       <use xlink:href="#DejaVuSans-36" x="83.789062"/>
      </g>
     </g>
    </g>
    <g id="xtick_4">
     <g id="line2d_4">
      <g>
       <use xlink:href="#m9dd2865773" x="183.985714" y="288.36" style="stroke: #000000; stroke-width: 1.5"/>
      </g>
     </g>
     <g id="text_4">
      <!-- −4 -->
      <g transform="translate(175.140402 308.978125) scale(0.12 -0.12)">
       <defs>
        <path id="DejaVuSans-34" d="M 2419 4116 
L 825 1625 
L 2419 1625 
L 2419 4116 
z
M 2253 4666 
L 3047 4666 
L 3047 1625 
L 3713 1625 
L 3713 1100 
L 3047 1100 
L 3047 0 
L 2419 0 
L 2419 1100 
L 313 1100 
L 313 1709 
L 2253 4666 
z
" transform="scale(0.015625)"/>
       </defs>
       <use xlink:href="#DejaVuSans-2212"/>
       <use xlink:href="#DejaVuSans-34" x="83.789062"/>
      </g>
     </g>
    </g>
    <g id="xtick_5">
     <g id="line2d_5">
      <g>
       <use xlink:href="#m9dd2865773" x="231.814286" y="288.36" style="stroke: #000000; stroke-width: 1.5"/>
      </g>
     </g>
     <g id="text_5">
      <!-- −2 -->
      <g transform="translate(222.968973 308.978125) scale(0.12 -0.12)">
       <defs>
        <path id="DejaVuSans-32" d="M 1228 531 
L 3431 531 
L 3431 0 
L 469 0 
L 469 531 
Q 828 903 1448 1529 
Q 2069 2156 2228 2338 
Q 2531 2678 2651 2914 
Q 2772 3150 2772 3378 
Q 2772 3750 2511 3984 
Q 2250 4219 1831 4219 
Q 1534 4219 1204 4116 
Q 875 4013 500 3803 
L 500 4441 
Q 881 4594 1212 4672 
Q 1544 4750 1819 4750 
Q 2544 4750 2975 4387 
Q 3406 4025 3406 3419 
Q 3406 3131 3298 2873 
Q 3191 2616 2906 2266 
Q 2828 2175 2409 1742 
Q 1991 1309 1228 531 
z
" transform="scale(0.015625)"/>
       </defs>
       <use xlink:href="#DejaVuSans-2212"/>
       <use xlink:href="#DejaVuSans-32" x="83.789062"/>
      </g>
     </g>
    </g>
    <g id="xtick_6">
     <g id="line2d_6">
      <g>
       <use xlink:href="#m9dd2865773" x="279.642857" y="288.36" style="stroke: #000000; stroke-width: 1.5"/>
      </g>
     </g>
     <g id="text_6">
      <!-- 0 -->
      <g transform="translate(275.825357 308.978125) scale(0.12 -0.12)">
       <use xlink:href="#DejaVuSans-30"/>
      </g>
     </g>
    </g>
   </g>
   <g id="matplotlib.axis_2">
    <g id="ytick_1">
     <g id="line2d_7">
      <defs>
       <path id="m174517dde1" d="M 0 0 
L -8 0 
" style="stroke: #000000; stroke-width: 1.5"/>
      </defs>
      <g>
       <use xlink:href="#m174517dde1" x="40.5" y="261.570082" style="stroke: #000000; stroke-width: 1.5"/>
      </g>
     </g>
     <g id="text_7">
      <!-- 1.4 -->
      <g transform="translate(9.91625 266.129144) scale(0.12 -0.12)">
       <defs>
        <path id="DejaVuSans-2e" d="M 684 794 
L 1344 794 
L 1344 0 
L 684 0 
L 684 794 
z
" transform="scale(0.015625)"/>
       </defs>
       <use xlink:href="#DejaVuSans-31"/>
       <use xlink:href="#DejaVuSans-2e" x="63.623047"/>
       <use xlink:href="#DejaVuSans-34" x="95.410156"/>
      </g>
     </g>
    </g>
    <g id="ytick_2">
     <g id="line2d_8">
      <g>
       <use xlink:href="#m174517dde1" x="40.5" y="226.079506" style="stroke: #000000; stroke-width: 1.5"/>
      </g>
     </g>
     <g id="text_8">
      <!-- 1.6 -->
      <g transform="translate(9.91625 230.638569) scale(0.12 -0.12)">
       <use xlink:href="#DejaVuSans-31"/>
       <use xlink:href="#DejaVuSans-2e" x="63.623047"/>
       <use xlink:href="#DejaVuSans-36" x="95.410156"/>
      </g>
     </g>
    </g>
    <g id="ytick_3">
     <g id="line2d_9">
      <g>
       <use xlink:href="#m174517dde1" x="40.5" y="190.588931" style="stroke: #000000; stroke-width: 1.5"/>
      </g>
     </g>
     <g id="text_9">
      <!-- 1.8 -->
      <g transform="translate(9.91625 195.147994) scale(0.12 -0.12)">
       <use xlink:href="#DejaVuSans-31"/>
       <use xlink:href="#DejaVuSans-2e" x="63.623047"/>
       <use xlink:href="#DejaVuSans-38" x="95.410156"/>
      </g>
     </g>
    </g>
    <g id="ytick_4">
     <g id="line2d_10">
      <g>
       <use xlink:href="#m174517dde1" x="40.5" y="155.098356" style="stroke: #000000; stroke-width: 1.5"/>
      </g>
     </g>
     <g id="text_10">
      <!-- 2.0 -->
      <g transform="translate(9.91625 159.657419) scale(0.12 -0.12)">
       <use xlink:href="#DejaVuSans-32"/>
       <use xlink:href="#DejaVuSans-2e" x="63.623047"/>
       <use xlink:href="#DejaVuSans-30" x="95.410156"/>
      </g>
     </g>
    </g>
    <g id="ytick_5">
     <g id="line2d_11">
      <g>
       <use xlink:href="#m174517dde1" x="40.5" y="119.607781" style="stroke: #000000; stroke-width: 1.5"/>
      </g>
     </g>
     <g id="text_11">
      <!-- 2.2 -->
      <g transform="translate(9.91625 124.166844) scale(0.12 -0.12)">
       <use xlink:href="#DejaVuSans-32"/>
       <use xlink:href="#DejaVuSans-2e" x="63.623047"/>
       <use xlink:href="#DejaVuSans-32" x="95.410156"/>
      </g>
     </g>
    </g>
    <g id="ytick_6">
     <g id="line2d_12">
      <g>
       <use xlink:href="#m174517dde1" x="40.5" y="84.117206" style="stroke: #000000; stroke-width: 1.5"/>
      </g>
     </g>
     <g id="text_12">
      <!-- 2.4 -->
      <g transform="translate(9.91625 88.676268) scale(0.12 -0.12)">
       <use xlink:href="#DejaVuSans-32"/>
       <use xlink:href="#DejaVuSans-2e" x="63.623047"/>
       <use xlink:href="#DejaVuSans-34" x="95.410156"/>
      </g>
     </g>
    </g>
    <g id="ytick_7">
     <g id="line2d_13">
      <g>
       <use xlink:href="#m174517dde1" x="40.5" y="48.626631" style="stroke: #000000; stroke-width: 1.5"/>
      </g>
     </g>
     <g id="text_13">
      <!-- 2.6 -->
      <g transform="translate(9.91625 53.185693) scale(0.12 -0.12)">
       <use xlink:href="#DejaVuSans-32"/>
       <use xlink:href="#DejaVuSans-2e" x="63.623047"/>
       <use xlink:href="#DejaVuSans-36" x="95.410156"/>
      </g>
     </g>
    </g>
   </g>
   <g id="LineCollection_1">
    <path d="M 231.979231 132.541697 
L 231.979231 129.228125 
" clip-path="url(#p392817b1b5)" style="fill: none; stroke: #ff0000; stroke-width: 2"/>
    <path d="M 219.624378 139.719225 
L 219.624378 137.063404 
" clip-path="url(#p392817b1b5)" style="fill: none; stroke: #ff0000; stroke-width: 2"/>
    <path d="M 204.372599 148.844727 
L 204.372599 147.215676 
" clip-path="url(#p392817b1b5)" style="fill: none; stroke: #ff0000; stroke-width: 2"/>
    <path d="M 184.435453 159.96544 
L 184.435453 157.7086 
" clip-path="url(#p392817b1b5)" style="fill: none; stroke: #ff0000; stroke-width: 2"/>
    <path d="M 155.58996 168.35434 
L 155.58996 166.757119 
" clip-path="url(#p392817b1b5)" style="fill: none; stroke: #ff0000; stroke-width: 2"/>
    <path d="M 102.647569 178.459661 
L 102.647569 175.948762 
" clip-path="url(#p392817b1b5)" style="fill: none; stroke: #ff0000; stroke-width: 2"/>
    <path d="M 12.141956 187.295381 
L 12.141956 184.832875 
" clip-path="url(#p392817b1b5)" style="fill: none; stroke: #ff0000; stroke-width: 2"/>
    <path d="M 129.118765 196.119884 
L 129.118765 194.049641 
" clip-path="url(#p392817b1b5)" style="fill: none; stroke: #ff0000; stroke-width: 2"/>
    <path d="M 168.690947 203.652245 
L 168.690947 202.245095 
" clip-path="url(#p392817b1b5)" style="fill: none; stroke: #ff0000; stroke-width: 2"/>
    <path d="M 193.153183 212.205862 
L 193.153183 210.081288 
" clip-path="url(#p392817b1b5)" style="fill: none; stroke: #ff0000; stroke-width: 2"/>
    <path d="M 210.906648 219.956017 
L 210.906648 217.087805 
" clip-path="url(#p392817b1b5)" style="fill: none; stroke: #ff0000; stroke-width: 2"/>
    <path d="M 224.850046 228.843175 
L 224.850046 227.101522 
" clip-path="url(#p392817b1b5)" style="fill: none; stroke: #ff0000; stroke-width: 2"/>
   </g>
   <g id="line2d_14">
    <defs>
     <path id="m44b0c0a058" d="M 3 0 
L -3 -0 
" style="stroke: #ff0000; stroke-width: 2"/>
    </defs>
    <g clip-path="url(#p392817b1b5)">
     <use xlink:href="#m44b0c0a058" x="231.979231" y="132.541697" style="fill: #ff0000; stroke: #ff0000; stroke-width: 2"/>
     <use xlink:href="#m44b0c0a058" x="219.624378" y="139.719225" style="fill: #ff0000; stroke: #ff0000; stroke-width: 2"/>
     <use xlink:href="#m44b0c0a058" x="204.372599" y="148.844727" style="fill: #ff0000; stroke: #ff0000; stroke-width: 2"/>
     <use xlink:href="#m44b0c0a058" x="184.435453" y="159.96544" style="fill: #ff0000; stroke: #ff0000; stroke-width: 2"/>
     <use xlink:href="#m44b0c0a058" x="155.58996" y="168.35434" style="fill: #ff0000; stroke: #ff0000; stroke-width: 2"/>
     <use xlink:href="#m44b0c0a058" x="102.647569" y="178.459661" style="fill: #ff0000; stroke: #ff0000; stroke-width: 2"/>
     <use xlink:href="#m44b0c0a058" x="12.141956" y="187.295381" style="fill: #ff0000; stroke: #ff0000; stroke-width: 2"/>
     <use xlink:href="#m44b0c0a058" x="129.118765" y="196.119884" style="fill: #ff0000; stroke: #ff0000; stroke-width: 2"/>
     <use xlink:href="#m44b0c0a058" x="168.690947" y="203.652245" style="fill: #ff0000; stroke: #ff0000; stroke-width: 2"/>
     <use xlink:href="#m44b0c0a058" x="193.153183" y="212.205862" style="fill: #ff0000; stroke: #ff0000; stroke-width: 2"/>
     <use xlink:href="#m44b0c0a058" x="210.906648" y="219.956017" style="fill: #ff0000; stroke: #ff0000; stroke-width: 2"/>
     <use xlink:href="#m44b0c0a058" x="224.850046" y="228.843175" style="fill: #ff0000; stroke: #ff0000; stroke-width: 2"/>
    </g>
   </g>
   <g id="line2d_15">
    <g clip-path="url(#p392817b1b5)">
     <use xlink:href="#m44b0c0a058" x="231.979231" y="129.228125" style="fill: #ff0000; stroke: #ff0000; stroke-width: 2"/>
     <use xlink:href="#m44b0c0a058" x="219.624378" y="137.063404" style="fill: #ff0000; stroke: #ff0000; stroke-width: 2"/>
     <use xlink:href="#m44b0c0a058" x="204.372599" y="147.215676" style="fill: #ff0000; stroke: #ff0000; stroke-width: 2"/>
     <use xlink:href="#m44b0c0a058" x="184.435453" y="157.7086" style="fill: #ff0000; stroke: #ff0000; stroke-width: 2"/>
     <use xlink:href="#m44b0c0a058" x="155.58996" y="166.757119" style="fill: #ff0000; stroke: #ff0000; stroke-width: 2"/>
     <use xlink:href="#m44b0c0a058" x="102.647569" y="175.948762" style="fill: #ff0000; stroke: #ff0000; stroke-width: 2"/>
     <use xlink:href="#m44b0c0a058" x="12.141956" y="184.832875" style="fill: #ff0000; stroke: #ff0000; stroke-width: 2"/>
     <use xlink:href="#m44b0c0a058" x="129.118765" y="194.049641" style="fill: #ff0000; stroke: #ff0000; stroke-width: 2"/>
     <use xlink:href="#m44b0c0a058" x="168.690947" y="202.245095" style="fill: #ff0000; stroke: #ff0000; stroke-width: 2"/>
     <use xlink:href="#m44b0c0a058" x="193.153183" y="210.081288" style="fill: #ff0000; stroke: #ff0000; stroke-width: 2"/>
     <use xlink:href="#m44b0c0a058" x="210.906648" y="217.087805" style="fill: #ff0000; stroke: #ff0000; stroke-width: 2"/>
     <use xlink:href="#m44b0c0a058" x="224.850046" y="227.101522" style="fill: #ff0000; stroke: #ff0000; stroke-width: 2"/>
    </g>
   </g>
   <g id="LineCollection_2">
    <path d="M 248.555351 109.72101 
L 248.555351 107.033799 
" clip-path="url(#p392817b1b5)" style="fill: none; stroke: #ffa500; stroke-width: 2"/>
    <path d="M 236.200498 122.810543 
L 236.200498 120.647352 
" clip-path="url(#p392817b1b5)" style="fill: none; stroke: #ffa500; stroke-width: 2"/>
    <path d="M 220.948719 134.063057 
L 220.948719 131.649939 
" clip-path="url(#p392817b1b5)" style="fill: none; stroke: #ffa500; stroke-width: 2"/>
    <path d="M 201.011572 150.222608 
L 201.011572 148.010861 
" clip-path="url(#p392817b1b5)" style="fill: none; stroke: #ffa500; stroke-width: 2"/>
    <path d="M 172.166079 162.451789 
L 172.166079 160.135398 
" clip-path="url(#p392817b1b5)" style="fill: none; stroke: #ffa500; stroke-width: 2"/>
    <path d="M 119.223689 175.152285 
L 119.223689 172.734604 
" clip-path="url(#p392817b1b5)" style="fill: none; stroke: #ffa500; stroke-width: 2"/>
    <path d="M 28.718076 185.799968 
L 28.718076 184.114783 
" clip-path="url(#p392817b1b5)" style="fill: none; stroke: #ffa500; stroke-width: 2"/>
    <path d="M 145.694884 197.407597 
L 145.694884 196.373253 
" clip-path="url(#p392817b1b5)" style="fill: none; stroke: #ffa500; stroke-width: 2"/>
    <path d="M 185.267066 210.161403 
L 185.267066 208.590695 
" clip-path="url(#p392817b1b5)" style="fill: none; stroke: #ffa500; stroke-width: 2"/>
    <path d="M 209.729303 220.79933 
L 209.729303 218.907392 
" clip-path="url(#p392817b1b5)" style="fill: none; stroke: #ffa500; stroke-width: 2"/>
    <path d="M 227.482767 229.992986 
L 227.482767 227.710941 
" clip-path="url(#p392817b1b5)" style="fill: none; stroke: #ffa500; stroke-width: 2"/>
    <path d="M 241.426166 239.144607 
L 241.426166 237.247217 
" clip-path="url(#p392817b1b5)" style="fill: none; stroke: #ffa500; stroke-width: 2"/>
   </g>
   <g id="line2d_16">
    <defs>
     <path id="m8f0acaed7d" d="M 3 0 
L -3 -0 
" style="stroke: #ffa500; stroke-width: 2"/>
    </defs>
    <g clip-path="url(#p392817b1b5)">
     <use xlink:href="#m8f0acaed7d" x="248.555351" y="109.72101" style="fill: #ffa500; stroke: #ffa500; stroke-width: 2"/>
     <use xlink:href="#m8f0acaed7d" x="236.200498" y="122.810543" style="fill: #ffa500; stroke: #ffa500; stroke-width: 2"/>
     <use xlink:href="#m8f0acaed7d" x="220.948719" y="134.063057" style="fill: #ffa500; stroke: #ffa500; stroke-width: 2"/>
     <use xlink:href="#m8f0acaed7d" x="201.011572" y="150.222608" style="fill: #ffa500; stroke: #ffa500; stroke-width: 2"/>
     <use xlink:href="#m8f0acaed7d" x="172.166079" y="162.451789" style="fill: #ffa500; stroke: #ffa500; stroke-width: 2"/>
     <use xlink:href="#m8f0acaed7d" x="119.223689" y="175.152285" style="fill: #ffa500; stroke: #ffa500; stroke-width: 2"/>
     <use xlink:href="#m8f0acaed7d" x="28.718076" y="185.799968" style="fill: #ffa500; stroke: #ffa500; stroke-width: 2"/>
     <use xlink:href="#m8f0acaed7d" x="145.694884" y="197.407597" style="fill: #ffa500; stroke: #ffa500; stroke-width: 2"/>
     <use xlink:href="#m8f0acaed7d" x="185.267066" y="210.161403" style="fill: #ffa500; stroke: #ffa500; stroke-width: 2"/>
     <use xlink:href="#m8f0acaed7d" x="209.729303" y="220.79933" style="fill: #ffa500; stroke: #ffa500; stroke-width: 2"/>
     <use xlink:href="#m8f0acaed7d" x="227.482767" y="229.992986" style="fill: #ffa500; stroke: #ffa500; stroke-width: 2"/>
     <use xlink:href="#m8f0acaed7d" x="241.426166" y="239.144607" style="fill: #ffa500; stroke: #ffa500; stroke-width: 2"/>
    </g>
   </g>
   <g id="line2d_17">
    <g clip-path="url(#p392817b1b5)">
     <use xlink:href="#m8f0acaed7d" x="248.555351" y="107.033799" style="fill: #ffa500; stroke: #ffa500; stroke-width: 2"/>
     <use xlink:href="#m8f0acaed7d" x="236.200498" y="120.647352" style="fill: #ffa500; stroke: #ffa500; stroke-width: 2"/>
     <use xlink:href="#m8f0acaed7d" x="220.948719" y="131.649939" style="fill: #ffa500; stroke: #ffa500; stroke-width: 2"/>
     <use xlink:href="#m8f0acaed7d" x="201.011572" y="148.010861" style="fill: #ffa500; stroke: #ffa500; stroke-width: 2"/>
     <use xlink:href="#m8f0acaed7d" x="172.166079" y="160.135398" style="fill: #ffa500; stroke: #ffa500; stroke-width: 2"/>
     <use xlink:href="#m8f0acaed7d" x="119.223689" y="172.734604" style="fill: #ffa500; stroke: #ffa500; stroke-width: 2"/>
     <use xlink:href="#m8f0acaed7d" x="28.718076" y="184.114783" style="fill: #ffa500; stroke: #ffa500; stroke-width: 2"/>
     <use xlink:href="#m8f0acaed7d" x="145.694884" y="196.373253" style="fill: #ffa500; stroke: #ffa500; stroke-width: 2"/>
     <use xlink:href="#m8f0acaed7d" x="185.267066" y="208.590695" style="fill: #ffa500; stroke: #ffa500; stroke-width: 2"/>
     <use xlink:href="#m8f0acaed7d" x="209.729303" y="218.907392" style="fill: #ffa500; stroke: #ffa500; stroke-width: 2"/>
     <use xlink:href="#m8f0acaed7d" x="227.482767" y="227.710941" style="fill: #ffa500; stroke: #ffa500; stroke-width: 2"/>
     <use xlink:href="#m8f0acaed7d" x="241.426166" y="237.247217" style="fill: #ffa500; stroke: #ffa500; stroke-width: 2"/>
    </g>
   </g>
   <g id="LineCollection_3">
    <path d="M 265.131471 86.748788 
L 265.131471 84.801218 
" clip-path="url(#p392817b1b5)" style="fill: none; stroke: #0000ff; stroke-width: 2"/>
    <path d="M 252.776618 105.014123 
L 252.776618 100.845534 
" clip-path="url(#p392817b1b5)" style="fill: none; stroke: #0000ff; stroke-width: 2"/>
    <path d="M 237.524838 119.701239 
L 237.524838 117.059937 
" clip-path="url(#p392817b1b5)" style="fill: none; stroke: #0000ff; stroke-width: 2"/>
    <path d="M 217.587692 137.940193 
L 217.587692 135.14628 
" clip-path="url(#p392817b1b5)" style="fill: none; stroke: #0000ff; stroke-width: 2"/>
    <path d="M 188.742199 153.640537 
L 188.742199 151.017742 
" clip-path="url(#p392817b1b5)" style="fill: none; stroke: #0000ff; stroke-width: 2"/>
    <path d="M 135.799809 170.511668 
L 135.799809 168.051687 
" clip-path="url(#p392817b1b5)" style="fill: none; stroke: #0000ff; stroke-width: 2"/>
    <path d="M 45.294195 188.653704 
L 45.294195 185.955728 
" clip-path="url(#p392817b1b5)" style="fill: none; stroke: #0000ff; stroke-width: 2"/>
    <path d="M 162.271004 202.78421 
L 162.271004 200.184207 
" clip-path="url(#p392817b1b5)" style="fill: none; stroke: #0000ff; stroke-width: 2"/>
    <path d="M 201.843186 216.366605 
L 201.843186 214.998944 
" clip-path="url(#p392817b1b5)" style="fill: none; stroke: #0000ff; stroke-width: 2"/>
    <path d="M 226.305423 229.477516 
L 226.305423 227.147199 
" clip-path="url(#p392817b1b5)" style="fill: none; stroke: #0000ff; stroke-width: 2"/>
    <path d="M 244.058887 243.241013 
L 244.058887 241.990001 
" clip-path="url(#p392817b1b5)" style="fill: none; stroke: #0000ff; stroke-width: 2"/>
    <path d="M 258.002286 255.400669 
L 258.002286 254.317865 
" clip-path="url(#p392817b1b5)" style="fill: none; stroke: #0000ff; stroke-width: 2"/>
   </g>
   <g id="line2d_18">
    <defs>
     <path id="me5b71c8e33" d="M 3 0 
L -3 -0 
" style="stroke: #0000ff; stroke-width: 2"/>
    </defs>
    <g clip-path="url(#p392817b1b5)">
     <use xlink:href="#me5b71c8e33" x="265.131471" y="86.748788" style="fill: #0000ff; stroke: #0000ff; stroke-width: 2"/>
     <use xlink:href="#me5b71c8e33" x="252.776618" y="105.014123" style="fill: #0000ff; stroke: #0000ff; stroke-width: 2"/>
     <use xlink:href="#me5b71c8e33" x="237.524838" y="119.701239" style="fill: #0000ff; stroke: #0000ff; stroke-width: 2"/>
     <use xlink:href="#me5b71c8e33" x="217.587692" y="137.940193" style="fill: #0000ff; stroke: #0000ff; stroke-width: 2"/>
     <use xlink:href="#me5b71c8e33" x="188.742199" y="153.640537" style="fill: #0000ff; stroke: #0000ff; stroke-width: 2"/>
     <use xlink:href="#me5b71c8e33" x="135.799809" y="170.511668" style="fill: #0000ff; stroke: #0000ff; stroke-width: 2"/>
     <use xlink:href="#me5b71c8e33" x="45.294195" y="188.653704" style="fill: #0000ff; stroke: #0000ff; stroke-width: 2"/>
     <use xlink:href="#me5b71c8e33" x="162.271004" y="202.78421" style="fill: #0000ff; stroke: #0000ff; stroke-width: 2"/>
     <use xlink:href="#me5b71c8e33" x="201.843186" y="216.366605" style="fill: #0000ff; stroke: #0000ff; stroke-width: 2"/>
     <use xlink:href="#me5b71c8e33" x="226.305423" y="229.477516" style="fill: #0000ff; stroke: #0000ff; stroke-width: 2"/>
     <use xlink:href="#me5b71c8e33" x="244.058887" y="243.241013" style="fill: #0000ff; stroke: #0000ff; stroke-width: 2"/>
     <use xlink:href="#me5b71c8e33" x="258.002286" y="255.400669" style="fill: #0000ff; stroke: #0000ff; stroke-width: 2"/>
    </g>
   </g>
   <g id="line2d_19">
    <g clip-path="url(#p392817b1b5)">
     <use xlink:href="#me5b71c8e33" x="265.131471" y="84.801218" style="fill: #0000ff; stroke: #0000ff; stroke-width: 2"/>
     <use xlink:href="#me5b71c8e33" x="252.776618" y="100.845534" style="fill: #0000ff; stroke: #0000ff; stroke-width: 2"/>
     <use xlink:href="#me5b71c8e33" x="237.524838" y="117.059937" style="fill: #0000ff; stroke: #0000ff; stroke-width: 2"/>
     <use xlink:href="#me5b71c8e33" x="217.587692" y="135.14628" style="fill: #0000ff; stroke: #0000ff; stroke-width: 2"/>
     <use xlink:href="#me5b71c8e33" x="188.742199" y="151.017742" style="fill: #0000ff; stroke: #0000ff; stroke-width: 2"/>
     <use xlink:href="#me5b71c8e33" x="135.799809" y="168.051687" style="fill: #0000ff; stroke: #0000ff; stroke-width: 2"/>
     <use xlink:href="#me5b71c8e33" x="45.294195" y="185.955728" style="fill: #0000ff; stroke: #0000ff; stroke-width: 2"/>
     <use xlink:href="#me5b71c8e33" x="162.271004" y="200.184207" style="fill: #0000ff; stroke: #0000ff; stroke-width: 2"/>
     <use xlink:href="#me5b71c8e33" x="201.843186" y="214.998944" style="fill: #0000ff; stroke: #0000ff; stroke-width: 2"/>
     <use xlink:href="#me5b71c8e33" x="226.305423" y="227.147199" style="fill: #0000ff; stroke: #0000ff; stroke-width: 2"/>
     <use xlink:href="#me5b71c8e33" x="244.058887" y="241.990001" style="fill: #0000ff; stroke: #0000ff; stroke-width: 2"/>
     <use xlink:href="#me5b71c8e33" x="258.002286" y="254.317865" style="fill: #0000ff; stroke: #0000ff; stroke-width: 2"/>
    </g>
   </g>
   <g id="LineCollection_4">
    <path d="M 281.707591 52.535725 
L 281.707591 50.22 
" clip-path="url(#p392817b1b5)" style="fill: none; stroke: #bf00bf; stroke-width: 2"/>
    <path d="M 269.352737 76.630099 
L 269.352737 72.426727 
" clip-path="url(#p392817b1b5)" style="fill: none; stroke: #bf00bf; stroke-width: 2"/>
    <path d="M 254.100958 101.301776 
L 254.100958 98.260839 
" clip-path="url(#p392817b1b5)" style="fill: none; stroke: #bf00bf; stroke-width: 2"/>
    <path d="M 234.163812 122.745167 
L 234.163812 119.533936 
" clip-path="url(#p392817b1b5)" style="fill: none; stroke: #bf00bf; stroke-width: 2"/>
    <path d="M 205.318319 144.902499 
L 205.318319 141.576436 
" clip-path="url(#p392817b1b5)" style="fill: none; stroke: #bf00bf; stroke-width: 2"/>
    <path d="M 152.375929 166.771194 
L 152.375929 163.778322 
" clip-path="url(#p392817b1b5)" style="fill: none; stroke: #bf00bf; stroke-width: 2"/>
    <path d="M 61.870315 184.885278 
L 61.870315 182.628914 
" clip-path="url(#p392817b1b5)" style="fill: none; stroke: #bf00bf; stroke-width: 2"/>
    <path d="M 178.847124 206.009475 
L 178.847124 204.121194 
" clip-path="url(#p392817b1b5)" style="fill: none; stroke: #bf00bf; stroke-width: 2"/>
    <path d="M 218.419306 224.234553 
L 218.419306 222.343184 
" clip-path="url(#p392817b1b5)" style="fill: none; stroke: #bf00bf; stroke-width: 2"/>
    <path d="M 242.881542 240.97995 
L 242.881542 237.603028 
" clip-path="url(#p392817b1b5)" style="fill: none; stroke: #bf00bf; stroke-width: 2"/>
    <path d="M 260.635007 257.601918 
L 260.635007 255.29288 
" clip-path="url(#p392817b1b5)" style="fill: none; stroke: #bf00bf; stroke-width: 2"/>
    <path d="M 274.578406 271.461192 
L 274.578406 269.58266 
" clip-path="url(#p392817b1b5)" style="fill: none; stroke: #bf00bf; stroke-width: 2"/>
   </g>
   <g id="line2d_20">
    <defs>
     <path id="mc8dde926f8" d="M 3 0 
L -3 -0 
" style="stroke: #bf00bf; stroke-width: 2"/>
    </defs>
    <g clip-path="url(#p392817b1b5)">
     <use xlink:href="#mc8dde926f8" x="281.707591" y="52.535725" style="fill: #bf00bf; stroke: #bf00bf; stroke-width: 2"/>
     <use xlink:href="#mc8dde926f8" x="269.352737" y="76.630099" style="fill: #bf00bf; stroke: #bf00bf; stroke-width: 2"/>
     <use xlink:href="#mc8dde926f8" x="254.100958" y="101.301776" style="fill: #bf00bf; stroke: #bf00bf; stroke-width: 2"/>
     <use xlink:href="#mc8dde926f8" x="234.163812" y="122.745167" style="fill: #bf00bf; stroke: #bf00bf; stroke-width: 2"/>
     <use xlink:href="#mc8dde926f8" x="205.318319" y="144.902499" style="fill: #bf00bf; stroke: #bf00bf; stroke-width: 2"/>
     <use xlink:href="#mc8dde926f8" x="152.375929" y="166.771194" style="fill: #bf00bf; stroke: #bf00bf; stroke-width: 2"/>
     <use xlink:href="#mc8dde926f8" x="61.870315" y="184.885278" style="fill: #bf00bf; stroke: #bf00bf; stroke-width: 2"/>
     <use xlink:href="#mc8dde926f8" x="178.847124" y="206.009475" style="fill: #bf00bf; stroke: #bf00bf; stroke-width: 2"/>
     <use xlink:href="#mc8dde926f8" x="218.419306" y="224.234553" style="fill: #bf00bf; stroke: #bf00bf; stroke-width: 2"/>
     <use xlink:href="#mc8dde926f8" x="242.881542" y="240.97995" style="fill: #bf00bf; stroke: #bf00bf; stroke-width: 2"/>
     <use xlink:href="#mc8dde926f8" x="260.635007" y="257.601918" style="fill: #bf00bf; stroke: #bf00bf; stroke-width: 2"/>
     <use xlink:href="#mc8dde926f8" x="274.578406" y="271.461192" style="fill: #bf00bf; stroke: #bf00bf; stroke-width: 2"/>
    </g>
   </g>
   <g id="line2d_21">
    <g clip-path="url(#p392817b1b5)">
     <use xlink:href="#mc8dde926f8" x="281.707591" y="50.22" style="fill: #bf00bf; stroke: #bf00bf; stroke-width: 2"/>
     <use xlink:href="#mc8dde926f8" x="269.352737" y="72.426727" style="fill: #bf00bf; stroke: #bf00bf; stroke-width: 2"/>
     <use xlink:href="#mc8dde926f8" x="254.100958" y="98.260839" style="fill: #bf00bf; stroke: #bf00bf; stroke-width: 2"/>
     <use xlink:href="#mc8dde926f8" x="234.163812" y="119.533936" style="fill: #bf00bf; stroke: #bf00bf; stroke-width: 2"/>
     <use xlink:href="#mc8dde926f8" x="205.318319" y="141.576436" style="fill: #bf00bf; stroke: #bf00bf; stroke-width: 2"/>
     <use xlink:href="#mc8dde926f8" x="152.375929" y="163.778322" style="fill: #bf00bf; stroke: #bf00bf; stroke-width: 2"/>
     <use xlink:href="#mc8dde926f8" x="61.870315" y="182.628914" style="fill: #bf00bf; stroke: #bf00bf; stroke-width: 2"/>
     <use xlink:href="#mc8dde926f8" x="178.847124" y="204.121194" style="fill: #bf00bf; stroke: #bf00bf; stroke-width: 2"/>
     <use xlink:href="#mc8dde926f8" x="218.419306" y="222.343184" style="fill: #bf00bf; stroke: #bf00bf; stroke-width: 2"/>
     <use xlink:href="#mc8dde926f8" x="242.881542" y="237.603028" style="fill: #bf00bf; stroke: #bf00bf; stroke-width: 2"/>
     <use xlink:href="#mc8dde926f8" x="260.635007" y="255.29288" style="fill: #bf00bf; stroke: #bf00bf; stroke-width: 2"/>
     <use xlink:href="#mc8dde926f8" x="274.578406" y="269.58266" style="fill: #bf00bf; stroke: #bf00bf; stroke-width: 2"/>
    </g>
   </g>
   <g id="line2d_22">
    <path d="M 40.5 186.806038 
L 58.674857 187.566919 
L 74.458286 188.445116 
L 88.328571 189.433309 
L 100.764 190.535183 
L 112.242857 191.773772 
L 122.765143 193.132815 
L 132.330857 194.586686 
L 141.418286 196.191045 
L 149.788286 197.888576 
L 157.919143 199.765929 
L 165.571714 201.76303 
L 172.746 203.860316 
L 179.681143 206.11543 
L 186.377143 208.524746 
L 192.834 211.082152 
L 199.051714 213.778982 
L 205.269429 216.721974 
L 211.248 219.799078 
L 217.226571 223.133139 
L 222.966 226.588477 
L 228.705429 230.305095 
L 234.444857 234.293786 
L 240.184286 238.564164 
L 245.923714 243.124345 
L 251.663143 247.980603 
L 257.402571 253.137015 
L 263.142 258.595114 
L 268.881429 264.35354 
L 274.86 270.666306 
L 280.599429 277.02 
L 280.599429 277.02 
" clip-path="url(#p392817b1b5)" style="fill: none; stroke: #000000; stroke-width: 1.5; stroke-linecap: square"/>
   </g>
   <g id="line2d_23">
    <path d="M 40.5 183.469472 
L 56.522571 182.325228 
L 70.871143 181.084008 
L 84.024 179.728668 
L 96.220286 178.249971 
L 107.46 176.664104 
L 117.743143 174.99425 
L 127.308857 173.223633 
L 136.396286 171.318887 
L 145.005429 169.285925 
L 153.136286 167.133945 
L 160.788857 164.875715 
L 167.963143 162.527798 
L 174.898286 160.020016 
L 181.355143 157.450122 
L 187.572857 154.736777 
L 193.551429 151.882564 
L 199.290857 148.891734 
L 204.791143 145.77039 
L 210.052286 142.526653 
L 215.074286 139.170837 
L 219.857143 135.715591 
L 224.64 131.98235 
L 229.183714 128.152971 
L 233.488286 124.246241 
L 237.792857 120.042038 
L 241.858286 115.772294 
L 245.923714 111.184172 
L 249.989143 106.246957 
L 253.815429 101.250297 
L 257.641714 95.881165 
L 261.228857 90.476703 
L 264.816 84.67846 
L 268.403143 78.447928 
L 271.751143 72.204382 
L 275.099143 65.506279 
L 278.447143 58.308299 
L 280.599429 53.393411 
L 280.599429 53.393411 
" clip-path="url(#p392817b1b5)" style="fill: none; stroke: #000000; stroke-width: 1.5; stroke-linecap: square"/>
   </g>
   <g id="line2d_24"/>
   <g id="line2d_25"/>
   <g id="line2d_26"/>
   <g id="line2d_27"/>
   <g id="patch_3">
    <path d="M 40.5 288.36 
L 40.5 38.88 
" style="fill: none; stroke: #000000; stroke-width: 1.6; stroke-linejoin: miter; stroke-linecap: square"/>
   </g>
   <g id="patch_4">
    <path d="M 291.6 288.36 
L 291.6 38.88 
" style="fill: none; stroke: #000000; stroke-width: 1.6; stroke-linejoin: miter; stroke-linecap: square"/>
   </g>
   <g id="patch_5">
    <path d="M 40.5 288.36 
L 291.6 288.36 
" style="fill: none; stroke: #000000; stroke-width: 1.6; stroke-linejoin: miter; stroke-linecap: square"/>
   </g>
   <g id="patch_6">
    <path d="M 40.5 38.88 
L 291.6 38.88 
" style="fill: none; stroke: #000000; stroke-width: 1.6; stroke-linejoin: miter; stroke-linecap: square"/>
   </g>
   <g id="legend_1">
    <g id="patch_7">
     <path d="M 48.9 118.935 
L 122.979375 118.935 
Q 125.379375 118.935 125.379375 116.535 
L 125.379375 47.28 
Q 125.379375 44.88 122.979375 44.88 
L 48.9 44.88 
Q 46.5 44.88 46.5 47.28 
L 46.5 116.535 
Q 46.5 118.935 48.9 118.935 
z
" style="fill: #ffffff; opacity: 0.8"/>
    </g>
    <g id="LineCollection_5">
     <path d="M 63.3 60.598125 
L 63.3 48.598125 
" style="fill: none; stroke: #ff0000; stroke-width: 2"/>
    </g>
    <g id="line2d_28">
     <g>
      <use xlink:href="#m44b0c0a058" x="63.3" y="60.598125" style="fill: #ff0000; stroke: #ff0000; stroke-width: 2"/>
     </g>
    </g>
    <g id="line2d_29">
     <g>
      <use xlink:href="#m44b0c0a058" x="63.3" y="48.598125" style="fill: #ff0000; stroke: #ff0000; stroke-width: 2"/>
     </g>
    </g>
    <g id="line2d_30"/>
    <g id="line2d_31"/>
    <g id="text_14">
     <!-- M=4 -->
     <g transform="translate(84.9 58.798125) scale(0.12 -0.12)">
      <defs>
       <path id="DejaVuSans-4d" d="M 628 4666 
L 1569 4666 
L 2759 1491 
L 3956 4666 
L 4897 4666 
L 4897 0 
L 4281 0 
L 4281 4097 
L 3078 897 
L 2444 897 
L 1241 4097 
L 1241 0 
L 628 0 
L 628 4666 
z
" transform="scale(0.015625)"/>
       <path id="DejaVuSans-3d" d="M 678 2906 
L 4684 2906 
L 4684 2381 
L 678 2381 
L 678 2906 
z
M 678 1631 
L 4684 1631 
L 4684 1100 
L 678 1100 
L 678 1631 
z
" transform="scale(0.015625)"/>
      </defs>
      <use xlink:href="#DejaVuSans-4d"/>
      <use xlink:href="#DejaVuSans-3d" x="86.279297"/>
      <use xlink:href="#DejaVuSans-34" x="170.068359"/>
     </g>
    </g>
    <g id="LineCollection_6">
     <path d="M 63.3 78.211875 
L 63.3 66.211875 
" style="fill: none; stroke: #ffa500; stroke-width: 2"/>
    </g>
    <g id="line2d_32">
     <g>
      <use xlink:href="#m8f0acaed7d" x="63.3" y="78.211875" style="fill: #ffa500; stroke: #ffa500; stroke-width: 2"/>
     </g>
    </g>
    <g id="line2d_33">
     <g>
      <use xlink:href="#m8f0acaed7d" x="63.3" y="66.211875" style="fill: #ffa500; stroke: #ffa500; stroke-width: 2"/>
     </g>
    </g>
    <g id="line2d_34"/>
    <g id="line2d_35"/>
    <g id="text_15">
     <!-- M=8 -->
     <g transform="translate(84.9 76.411875) scale(0.12 -0.12)">
      <use xlink:href="#DejaVuSans-4d"/>
      <use xlink:href="#DejaVuSans-3d" x="86.279297"/>
      <use xlink:href="#DejaVuSans-38" x="170.068359"/>
     </g>
    </g>
    <g id="LineCollection_7">
     <path d="M 63.3 95.825625 
L 63.3 83.825625 
" style="fill: none; stroke: #0000ff; stroke-width: 2"/>
    </g>
    <g id="line2d_36">
     <g>
      <use xlink:href="#me5b71c8e33" x="63.3" y="95.825625" style="fill: #0000ff; stroke: #0000ff; stroke-width: 2"/>
     </g>
    </g>
    <g id="line2d_37">
     <g>
      <use xlink:href="#me5b71c8e33" x="63.3" y="83.825625" style="fill: #0000ff; stroke: #0000ff; stroke-width: 2"/>
     </g>
    </g>
    <g id="line2d_38"/>
    <g id="line2d_39"/>
    <g id="text_16">
     <!-- M=16 -->
     <g transform="translate(84.9 94.025625) scale(0.12 -0.12)">
      <use xlink:href="#DejaVuSans-4d"/>
      <use xlink:href="#DejaVuSans-3d" x="86.279297"/>
      <use xlink:href="#DejaVuSans-31" x="170.068359"/>
      <use xlink:href="#DejaVuSans-36" x="233.691406"/>
     </g>
    </g>
    <g id="LineCollection_8">
     <path d="M 63.3 113.439375 
L 63.3 101.439375 
" style="fill: none; stroke: #bf00bf; stroke-width: 2"/>
    </g>
    <g id="line2d_40">
     <g>
      <use xlink:href="#mc8dde926f8" x="63.3" y="113.439375" style="fill: #bf00bf; stroke: #bf00bf; stroke-width: 2"/>
     </g>
    </g>
    <g id="line2d_41">
     <g>
      <use xlink:href="#mc8dde926f8" x="63.3" y="101.439375" style="fill: #bf00bf; stroke: #bf00bf; stroke-width: 2"/>
     </g>
    </g>
    <g id="line2d_42"/>
    <g id="line2d_43"/>
    <g id="text_17">
     <!-- M=32 -->
     <g transform="translate(84.9 111.639375) scale(0.12 -0.12)">
      <defs>
       <path id="DejaVuSans-33" d="M 2597 2516 
Q 3050 2419 3304 2112 
Q 3559 1806 3559 1356 
Q 3559 666 3084 287 
Q 2609 -91 1734 -91 
Q 1441 -91 1130 -33 
Q 819 25 488 141 
L 488 750 
Q 750 597 1062 519 
Q 1375 441 1716 441 
Q 2309 441 2620 675 
Q 2931 909 2931 1356 
Q 2931 1769 2642 2001 
Q 2353 2234 1838 2234 
L 1294 2234 
L 1294 2753 
L 1863 2753 
Q 2328 2753 2575 2939 
Q 2822 3125 2822 3475 
Q 2822 3834 2567 4026 
Q 2313 4219 1838 4219 
Q 1578 4219 1281 4162 
Q 984 4106 628 3988 
L 628 4550 
Q 988 4650 1302 4700 
Q 1616 4750 1894 4750 
Q 2613 4750 3031 4423 
Q 3450 4097 3450 3541 
Q 3450 3153 3228 2886 
Q 3006 2619 2597 2516 
z
" transform="scale(0.015625)"/>
      </defs>
      <use xlink:href="#DejaVuSans-4d"/>
      <use xlink:href="#DejaVuSans-3d" x="86.279297"/>
      <use xlink:href="#DejaVuSans-33" x="170.068359"/>
      <use xlink:href="#DejaVuSans-32" x="233.691406"/>
     </g>
    </g>
   </g>
  </g>
 </g>
 <defs>
  <clipPath id="p392817b1b5">
   <rect x="40.5" y="38.88" width="251.1" height="249.48"/>
  </clipPath>
 </defs>
</svg>
