<?xml version="1.0" encoding="utf-8" standalone="no"?>
<!DOCTYPE svg PUBLIC "-//W3C//DTD SVG 1.1//EN"
  "http://www.w3.org/Graphics/SVG/1.1/DTD/svg11.dtd">
<svg xmlns:xlink="http://www.w3.org/1999/xlink" width="324pt" height="324pt" viewBox="0 0 324 324" xmlns="http://www.w3.org/2000/svg" version="1.1">
 <metadata>
  <rdf:RDF xmlns:dc="http://purl.org/dc/elements/1.1/" xmlns:cc="http://creativecommons.org/ns#" xmlns:rdf="http://www.w3.org/1999/02/22-rdf-syntax-ns#">
   <cc:Work>
    <dc:type rdf:resource="http://purl.org/dc/dcmitype/StillImage"/>
    <dc:date>2025-12-10T11:54:53.504405</dc:date>
    <dc:format>image/svg+xml</dc:format>
    <dc:creator>
     <cc:Agent>
      <dc:title>Matplotlib v3.8.0, https://matplotlib.org/</dc:title>
     </cc:Agent>
    </dc:creator>
   </cc:Work>
  </rdf:RDF>
 </metadata>
 <defs>
  <style type="text/css">*{stroke-linejoin: round; stroke-linecap: butt}</style>
 </defs>
 <g id="figure_1">
  <g id="patch_1">
   <path d="M 0 324 
L 324 324 
L 324 0 
L 0 0 
z
" style="fill: #ffffff"/>
  </g>
  <g id="axes_1">
   <g id="patch_2">
    <path d="M 40.5 288.36 
L 291.6 288.36 
L 291.6 38.88 
L 40.5 38.88 
z
" style="fill: #ffffff"/>
   </g>
   <g id="matplotlib.axis_1">
    <g id="xtick_1">
     <g id="line2d_1">
      <defs>
       <path id="mb340a366ac" d="M 0 0 
L 0 8 
" style="stroke: #000000; stroke-width: 1.5"/>
      </defs>
      <g>
       <use xlink:href="#mb340a366ac" x="51.913636" y="288.36" style="stroke: #000000; stroke-width: 1.5"/>
      </g>
     </g>
     <g id="text_1">
      <!-- 2.8 -->
      <g transform="translate(42.371761 308.978125) scale(0.12 -0.12)">
       <defs>
        <path id="DejaVuSans-32" d="M 1228 531 
L 3431 531 
L 3431 0 
L 469 0 
L 469 531 
Q 828 903 1448 1529 
Q 2069 2156 2228 2338 
Q 2531 2678 2651 2914 
Q 2772 3150 2772 3378 
Q 2772 3750 2511 3984 
Q 2250 4219 1831 4219 
Q 1534 4219 1204 4116 
Q 875 4013 500 3803 
L 500 4441 
Q 881 4594 1212 4672 
Q 1544 4750 1819 4750 
Q 2544 4750 2975 4387 
Q 3406 4025 3406 3419 
Q 3406 3131 3298 2873 
Q 3191 2616 2906 2266 
Q 2828 2175 2409 1742 
Q 1991 1309 1228 531 
z
" transform="scale(0.015625)"/>
        <path id="DejaVuSans-2e" d="M 684 794 
L 1344 794 
L 1344 0 
L 684 0 
L 684 794 
z
" transform="scale(0.015625)"/>
        <path id="DejaVuSans-38" d="M 2034 2216 
Q 1584 2216 1326 1975 
Q 1069 1734 1069 1313 
Q 1069 891 1326 650 
Q 1584 409 2034 409 
Q 2484 409 2743 651 
Q 3003 894 3003 1313 
Q 3003 1734 2745 1975 
Q 2488 2216 2034 2216 
z
M 1403 2484 
Q 997 2584 770 2862 
Q 544 3141 544 3541 
Q 544 4100 942 4425 
Q 1341 4750 2034 4750 
Q 2731 4750 3128 4425 
Q 3525 4100 3525 3541 
Q 3525 3141 3298 2862 
Q 3072 2584 2669 2484 
Q 3125 2378 3379 2068 
Q 3634 1759 3634 1313 
Q 3634 634 3220 271 
Q 2806 -91 2034 -91 
Q 1263 -91 848 271 
Q 434 634 434 1313 
Q 434 1759 690 2068 
Q 947 2378 1403 2484 
z
M 1172 3481 
Q 1172 3119 1398 2916 
Q 1625 2713 2034 2713 
Q 2441 2713 2670 2916 
Q 2900 3119 2900 3481 
Q 2900 3844 2670 4047 
Q 2441 4250 2034 4250 
Q 1625 4250 1398 4047 
Q 1172 3844 1172 3481 
z
" transform="scale(0.015625)"/>
       </defs>
       <use xlink:href="#DejaVuSans-32"/>
       <use xlink:href="#DejaVuSans-2e" x="63.623047"/>
       <use xlink:href="#DejaVuSans-38" x="95.410156"/>
      </g>
     </g>
    </g>
    <g id="xtick_2">
     <g id="line2d_2">
      <g>
       <use xlink:href="#mb340a366ac" x="134.921901" y="288.36" style="stroke: #000000; stroke-width: 1.5"/>
      </g>
     </g>
     <g id="text_2">
      <!-- 3.0 -->
      <g transform="translate(125.380026 308.978125) scale(0.12 -0.12)">
       <defs>
        <path id="DejaVuSans-33" d="M 2597 2516 
Q 3050 2419 3304 2112 
Q 3559 1806 3559 1356 
Q 3559 666 3084 287 
Q 2609 -91 1734 -91 
Q 1441 -91 1130 -33 
Q 819 25 488 141 
L 488 750 
Q 750 597 1062 519 
Q 1375 441 1716 441 
Q 2309 441 2620 675 
Q 2931 909 2931 1356 
Q 2931 1769 2642 2001 
Q 2353 2234 1838 2234 
L 1294 2234 
L 1294 2753 
L 1863 2753 
Q 2328 2753 2575 2939 
Q 2822 3125 2822 3475 
Q 2822 3834 2567 4026 
Q 2313 4219 1838 4219 
Q 1578 4219 1281 4162 
Q 984 4106 628 3988 
L 628 4550 
Q 988 4650 1302 4700 
Q 1616 4750 1894 4750 
Q 2613 4750 3031 4423 
Q 3450 4097 3450 3541 
Q 3450 3153 3228 2886 
Q 3006 2619 2597 2516 
z
" transform="scale(0.015625)"/>
        <path id="DejaVuSans-30" d="M 2034 4250 
Q 1547 4250 1301 3770 
Q 1056 3291 1056 2328 
Q 1056 1369 1301 889 
Q 1547 409 2034 409 
Q 2525 409 2770 889 
Q 3016 1369 3016 2328 
Q 3016 3291 2770 3770 
Q 2525 4250 2034 4250 
z
M 2034 4750 
Q 2819 4750 3233 4129 
Q 3647 3509 3647 2328 
Q 3647 1150 3233 529 
Q 2819 -91 2034 -91 
Q 1250 -91 836 529 
Q 422 1150 422 2328 
Q 422 3509 836 4129 
Q 1250 4750 2034 4750 
z
" transform="scale(0.015625)"/>
       </defs>
       <use xlink:href="#DejaVuSans-33"/>
       <use xlink:href="#DejaVuSans-2e" x="63.623047"/>
       <use xlink:href="#DejaVuSans-30" x="95.410156"/>
      </g>
     </g>
    </g>
    <g id="xtick_3">
     <g id="line2d_3">
      <g>
       <use xlink:href="#mb340a366ac" x="217.930165" y="288.36" style="stroke: #000000; stroke-width: 1.5"/>
      </g>
     </g>
     <g id="text_3">
      <!-- 3.2 -->
      <g transform="translate(208.38829 308.978125) scale(0.12 -0.12)">
       <use xlink:href="#DejaVuSans-33"/>
       <use xlink:href="#DejaVuSans-2e" x="63.623047"/>
       <use xlink:href="#DejaVuSans-32" x="95.410156"/>
      </g>
     </g>
    </g>
   </g>
   <g id="matplotlib.axis_2">
    <g id="ytick_1">
     <g id="line2d_4">
      <defs>
       <path id="m275aa5e706" d="M 0 0 
L -8 0 
" style="stroke: #000000; stroke-width: 1.5"/>
      </defs>
      <g>
       <use xlink:href="#m275aa5e706" x="40.5" y="266.88037" style="stroke: #000000; stroke-width: 1.5"/>
      </g>
     </g>
     <g id="text_4">
      <!-- 1.4 -->
      <g transform="translate(9.91625 271.439433) scale(0.12 -0.12)">
       <defs>
        <path id="DejaVuSans-31" d="M 794 531 
L 1825 531 
L 1825 4091 
L 703 3866 
L 703 4441 
L 1819 4666 
L 2450 4666 
L 2450 531 
L 3481 531 
L 3481 0 
L 794 0 
L 794 531 
z
" transform="scale(0.015625)"/>
        <path id="DejaVuSans-34" d="M 2419 4116 
L 825 1625 
L 2419 1625 
L 2419 4116 
z
M 2253 4666 
L 3047 4666 
L 3047 1625 
L 3713 1625 
L 3713 1100 
L 3047 1100 
L 3047 0 
L 2419 0 
L 2419 1100 
L 313 1100 
L 313 1709 
L 2253 4666 
z
" transform="scale(0.015625)"/>
       </defs>
       <use xlink:href="#DejaVuSans-31"/>
       <use xlink:href="#DejaVuSans-2e" x="63.623047"/>
       <use xlink:href="#DejaVuSans-34" x="95.410156"/>
      </g>
     </g>
    </g>
    <g id="ytick_2">
     <g id="line2d_5">
      <g>
       <use xlink:href="#m275aa5e706" x="40.5" y="230.498075" style="stroke: #000000; stroke-width: 1.5"/>
      </g>
     </g>
     <g id="text_5">
      <!-- 1.6 -->
      <g transform="translate(9.91625 235.057137) scale(0.12 -0.12)">
       <defs>
        <path id="DejaVuSans-36" d="M 2113 2584 
Q 1688 2584 1439 2293 
Q 1191 2003 1191 1497 
Q 1191 994 1439 701 
Q 1688 409 2113 409 
Q 2538 409 2786 701 
Q 3034 994 3034 1497 
Q 3034 2003 2786 2293 
Q 2538 2584 2113 2584 
z
M 3366 4563 
L 3366 3988 
Q 3128 4100 2886 4159 
Q 2644 4219 2406 4219 
Q 1781 4219 1451 3797 
Q 1122 3375 1075 2522 
Q 1259 2794 1537 2939 
Q 1816 3084 2150 3084 
Q 2853 3084 3261 2657 
Q 3669 2231 3669 1497 
Q 3669 778 3244 343 
Q 2819 -91 2113 -91 
Q 1303 -91 875 529 
Q 447 1150 447 2328 
Q 447 3434 972 4092 
Q 1497 4750 2381 4750 
Q 2619 4750 2861 4703 
Q 3103 4656 3366 4563 
z
" transform="scale(0.015625)"/>
       </defs>
       <use xlink:href="#DejaVuSans-31"/>
       <use xlink:href="#DejaVuSans-2e" x="63.623047"/>
       <use xlink:href="#DejaVuSans-36" x="95.410156"/>
      </g>
     </g>
    </g>
    <g id="ytick_3">
     <g id="line2d_6">
      <g>
       <use xlink:href="#m275aa5e706" x="40.5" y="194.115779" style="stroke: #000000; stroke-width: 1.5"/>
      </g>
     </g>
     <g id="text_6">
      <!-- 1.8 -->
      <g transform="translate(9.91625 198.674841) scale(0.12 -0.12)">
       <use xlink:href="#DejaVuSans-31"/>
       <use xlink:href="#DejaVuSans-2e" x="63.623047"/>
       <use xlink:href="#DejaVuSans-38" x="95.410156"/>
      </g>
     </g>
    </g>
    <g id="ytick_4">
     <g id="line2d_7">
      <g>
       <use xlink:href="#m275aa5e706" x="40.5" y="157.733483" style="stroke: #000000; stroke-width: 1.5"/>
      </g>
     </g>
     <g id="text_7">
      <!-- 2.0 -->
      <g transform="translate(9.91625 162.292546) scale(0.12 -0.12)">
       <use xlink:href="#DejaVuSans-32"/>
       <use xlink:href="#DejaVuSans-2e" x="63.623047"/>
       <use xlink:href="#DejaVuSans-30" x="95.410156"/>
      </g>
     </g>
    </g>
    <g id="ytick_5">
     <g id="line2d_8">
      <g>
       <use xlink:href="#m275aa5e706" x="40.5" y="121.351188" style="stroke: #000000; stroke-width: 1.5"/>
      </g>
     </g>
     <g id="text_8">
      <!-- 2.2 -->
      <g transform="translate(9.91625 125.91025) scale(0.12 -0.12)">
       <use xlink:href="#DejaVuSans-32"/>
       <use xlink:href="#DejaVuSans-2e" x="63.623047"/>
       <use xlink:href="#DejaVuSans-32" x="95.410156"/>
      </g>
     </g>
    </g>
    <g id="ytick_6">
     <g id="line2d_9">
      <g>
       <use xlink:href="#m275aa5e706" x="40.5" y="84.968892" style="stroke: #000000; stroke-width: 1.5"/>
      </g>
     </g>
     <g id="text_9">
      <!-- 2.4 -->
      <g transform="translate(9.91625 89.527955) scale(0.12 -0.12)">
       <use xlink:href="#DejaVuSans-32"/>
       <use xlink:href="#DejaVuSans-2e" x="63.623047"/>
       <use xlink:href="#DejaVuSans-34" x="95.410156"/>
      </g>
     </g>
    </g>
    <g id="ytick_7">
     <g id="line2d_10">
      <g>
       <use xlink:href="#m275aa5e706" x="40.5" y="48.586596" style="stroke: #000000; stroke-width: 1.5"/>
      </g>
     </g>
     <g id="text_10">
      <!-- 2.6 -->
      <g transform="translate(9.91625 53.145659) scale(0.12 -0.12)">
       <use xlink:href="#DejaVuSans-32"/>
       <use xlink:href="#DejaVuSans-2e" x="63.623047"/>
       <use xlink:href="#DejaVuSans-36" x="95.410156"/>
      </g>
     </g>
    </g>
   </g>
   <g id="line2d_11">
    <path d="M 51.913636 132.911662 
L 72.665702 140.606668 
L 93.417769 150.487737 
L 114.169835 161.566083 
L 134.921901 170.503855 
L 155.673967 180.394761 
L 176.426033 189.477287 
L 197.178099 198.724571 
L 217.930165 206.786063 
L 238.682231 215.18687 
L 259.434298 222.75059 
L 280.186364 232.438475 
" clip-path="url(#p1126c2d76c)" style="fill: none; stroke: #ff0000; stroke-width: 1.5; stroke-linecap: square"/>
   </g>
   <g id="LineCollection_1">
    <path d="M 51.913636 134.610075 
L 51.913636 131.213248 
" clip-path="url(#p1126c2d76c)" style="fill: none; stroke: #ff0000; stroke-width: 2"/>
    <path d="M 72.665702 141.967943 
L 72.665702 139.245393 
" clip-path="url(#p1126c2d76c)" style="fill: none; stroke: #ff0000; stroke-width: 2"/>
    <path d="M 93.417769 151.322728 
L 93.417769 149.652747 
" clip-path="url(#p1126c2d76c)" style="fill: none; stroke: #ff0000; stroke-width: 2"/>
    <path d="M 114.169835 162.722855 
L 114.169835 160.409311 
" clip-path="url(#p1126c2d76c)" style="fill: none; stroke: #ff0000; stroke-width: 2"/>
    <path d="M 134.921901 171.322531 
L 134.921901 169.68518 
" clip-path="url(#p1126c2d76c)" style="fill: none; stroke: #ff0000; stroke-width: 2"/>
    <path d="M 155.673967 181.681754 
L 155.673967 179.107767 
" clip-path="url(#p1126c2d76c)" style="fill: none; stroke: #ff0000; stroke-width: 2"/>
    <path d="M 176.426033 190.739476 
L 176.426033 188.215098 
" clip-path="url(#p1126c2d76c)" style="fill: none; stroke: #ff0000; stroke-width: 2"/>
    <path d="M 197.178099 199.7857 
L 197.178099 197.663441 
" clip-path="url(#p1126c2d76c)" style="fill: none; stroke: #ff0000; stroke-width: 2"/>
    <path d="M 217.930165 207.507315 
L 217.930165 206.06481 
" clip-path="url(#p1126c2d76c)" style="fill: none; stroke: #ff0000; stroke-width: 2"/>
    <path d="M 238.682231 216.275847 
L 238.682231 214.097892 
" clip-path="url(#p1126c2d76c)" style="fill: none; stroke: #ff0000; stroke-width: 2"/>
    <path d="M 259.434298 224.220729 
L 259.434298 221.280452 
" clip-path="url(#p1126c2d76c)" style="fill: none; stroke: #ff0000; stroke-width: 2"/>
    <path d="M 280.186364 233.331182 
L 280.186364 231.545769 
" clip-path="url(#p1126c2d76c)" style="fill: none; stroke: #ff0000; stroke-width: 2"/>
   </g>
   <g id="line2d_12">
    <defs>
     <path id="m7560091d72" d="M 3 0 
L -3 -0 
" style="stroke: #ff0000; stroke-width: 2"/>
    </defs>
    <g clip-path="url(#p1126c2d76c)">
     <use xlink:href="#m7560091d72" x="51.913636" y="134.610075" style="fill: #ff0000; stroke: #ff0000; stroke-width: 2"/>
     <use xlink:href="#m7560091d72" x="72.665702" y="141.967943" style="fill: #ff0000; stroke: #ff0000; stroke-width: 2"/>
     <use xlink:href="#m7560091d72" x="93.417769" y="151.322728" style="fill: #ff0000; stroke: #ff0000; stroke-width: 2"/>
     <use xlink:href="#m7560091d72" x="114.169835" y="162.722855" style="fill: #ff0000; stroke: #ff0000; stroke-width: 2"/>
     <use xlink:href="#m7560091d72" x="134.921901" y="171.322531" style="fill: #ff0000; stroke: #ff0000; stroke-width: 2"/>
     <use xlink:href="#m7560091d72" x="155.673967" y="181.681754" style="fill: #ff0000; stroke: #ff0000; stroke-width: 2"/>
     <use xlink:href="#m7560091d72" x="176.426033" y="190.739476" style="fill: #ff0000; stroke: #ff0000; stroke-width: 2"/>
     <use xlink:href="#m7560091d72" x="197.178099" y="199.7857" style="fill: #ff0000; stroke: #ff0000; stroke-width: 2"/>
     <use xlink:href="#m7560091d72" x="217.930165" y="207.507315" style="fill: #ff0000; stroke: #ff0000; stroke-width: 2"/>
     <use xlink:href="#m7560091d72" x="238.682231" y="216.275847" style="fill: #ff0000; stroke: #ff0000; stroke-width: 2"/>
     <use xlink:href="#m7560091d72" x="259.434298" y="224.220729" style="fill: #ff0000; stroke: #ff0000; stroke-width: 2"/>
     <use xlink:href="#m7560091d72" x="280.186364" y="233.331182" style="fill: #ff0000; stroke: #ff0000; stroke-width: 2"/>
    </g>
   </g>
   <g id="line2d_13">
    <g clip-path="url(#p1126c2d76c)">
     <use xlink:href="#m7560091d72" x="51.913636" y="131.213248" style="fill: #ff0000; stroke: #ff0000; stroke-width: 2"/>
     <use xlink:href="#m7560091d72" x="72.665702" y="139.245393" style="fill: #ff0000; stroke: #ff0000; stroke-width: 2"/>
     <use xlink:href="#m7560091d72" x="93.417769" y="149.652747" style="fill: #ff0000; stroke: #ff0000; stroke-width: 2"/>
     <use xlink:href="#m7560091d72" x="114.169835" y="160.409311" style="fill: #ff0000; stroke: #ff0000; stroke-width: 2"/>
     <use xlink:href="#m7560091d72" x="134.921901" y="169.68518" style="fill: #ff0000; stroke: #ff0000; stroke-width: 2"/>
     <use xlink:href="#m7560091d72" x="155.673967" y="179.107767" style="fill: #ff0000; stroke: #ff0000; stroke-width: 2"/>
     <use xlink:href="#m7560091d72" x="176.426033" y="188.215098" style="fill: #ff0000; stroke: #ff0000; stroke-width: 2"/>
     <use xlink:href="#m7560091d72" x="197.178099" y="197.663441" style="fill: #ff0000; stroke: #ff0000; stroke-width: 2"/>
     <use xlink:href="#m7560091d72" x="217.930165" y="206.06481" style="fill: #ff0000; stroke: #ff0000; stroke-width: 2"/>
     <use xlink:href="#m7560091d72" x="238.682231" y="214.097892" style="fill: #ff0000; stroke: #ff0000; stroke-width: 2"/>
     <use xlink:href="#m7560091d72" x="259.434298" y="221.280452" style="fill: #ff0000; stroke: #ff0000; stroke-width: 2"/>
     <use xlink:href="#m7560091d72" x="280.186364" y="231.545769" style="fill: #ff0000; stroke: #ff0000; stroke-width: 2"/>
    </g>
   </g>
   <g id="line2d_14">
    <path d="M 51.913636 109.838642 
L 72.665702 123.52565 
L 93.417769 134.932786 
L 114.169835 151.60157 
L 134.921901 164.08438 
L 155.673967 177.052065 
L 176.426033 188.342727 
L 197.178099 200.575601 
L 217.930165 213.374933 
L 238.682231 224.115494 
L 259.434298 233.340191 
L 280.186364 242.918911 
" clip-path="url(#p1126c2d76c)" style="fill: none; stroke: #ffa500; stroke-width: 1.5; stroke-linecap: square"/>
   </g>
   <g id="LineCollection_2">
    <path d="M 51.913636 111.216006 
L 51.913636 108.461278 
" clip-path="url(#p1126c2d76c)" style="fill: none; stroke: #ffa500; stroke-width: 2"/>
    <path d="M 72.665702 124.634421 
L 72.665702 122.416878 
" clip-path="url(#p1126c2d76c)" style="fill: none; stroke: #ffa500; stroke-width: 2"/>
    <path d="M 93.417769 136.16966 
L 93.417769 133.695911 
" clip-path="url(#p1126c2d76c)" style="fill: none; stroke: #ffa500; stroke-width: 2"/>
    <path d="M 114.169835 152.735229 
L 114.169835 150.467911 
" clip-path="url(#p1126c2d76c)" style="fill: none; stroke: #ffa500; stroke-width: 2"/>
    <path d="M 134.921901 165.271676 
L 134.921901 162.897084 
" clip-path="url(#p1126c2d76c)" style="fill: none; stroke: #ffa500; stroke-width: 2"/>
    <path d="M 155.673967 178.291279 
L 155.673967 175.812851 
" clip-path="url(#p1126c2d76c)" style="fill: none; stroke: #ffa500; stroke-width: 2"/>
    <path d="M 176.426033 189.20649 
L 176.426033 187.478964 
" clip-path="url(#p1126c2d76c)" style="fill: none; stroke: #ffa500; stroke-width: 2"/>
    <path d="M 197.178099 201.105767 
L 197.178099 200.045435 
" clip-path="url(#p1126c2d76c)" style="fill: none; stroke: #ffa500; stroke-width: 2"/>
    <path d="M 217.930165 214.18002 
L 217.930165 212.569847 
" clip-path="url(#p1126c2d76c)" style="fill: none; stroke: #ffa500; stroke-width: 2"/>
    <path d="M 238.682231 225.08523 
L 238.682231 223.145757 
" clip-path="url(#p1126c2d76c)" style="fill: none; stroke: #ffa500; stroke-width: 2"/>
    <path d="M 259.434298 234.509882 
L 259.434298 232.1705 
" clip-path="url(#p1126c2d76c)" style="fill: none; stroke: #ffa500; stroke-width: 2"/>
    <path d="M 280.186364 243.891443 
L 280.186364 241.94638 
" clip-path="url(#p1126c2d76c)" style="fill: none; stroke: #ffa500; stroke-width: 2"/>
   </g>
   <g id="line2d_15">
    <defs>
     <path id="m8a86896b48" d="M 3 0 
L -3 -0 
" style="stroke: #ffa500; stroke-width: 2"/>
    </defs>
    <g clip-path="url(#p1126c2d76c)">
     <use xlink:href="#m8a86896b48" x="51.913636" y="111.216006" style="fill: #ffa500; stroke: #ffa500; stroke-width: 2"/>
     <use xlink:href="#m8a86896b48" x="72.665702" y="124.634421" style="fill: #ffa500; stroke: #ffa500; stroke-width: 2"/>
     <use xlink:href="#m8a86896b48" x="93.417769" y="136.16966" style="fill: #ffa500; stroke: #ffa500; stroke-width: 2"/>
     <use xlink:href="#m8a86896b48" x="114.169835" y="152.735229" style="fill: #ffa500; stroke: #ffa500; stroke-width: 2"/>
     <use xlink:href="#m8a86896b48" x="134.921901" y="165.271676" style="fill: #ffa500; stroke: #ffa500; stroke-width: 2"/>
     <use xlink:href="#m8a86896b48" x="155.673967" y="178.291279" style="fill: #ffa500; stroke: #ffa500; stroke-width: 2"/>
     <use xlink:href="#m8a86896b48" x="176.426033" y="189.20649" style="fill: #ffa500; stroke: #ffa500; stroke-width: 2"/>
     <use xlink:href="#m8a86896b48" x="197.178099" y="201.105767" style="fill: #ffa500; stroke: #ffa500; stroke-width: 2"/>
     <use xlink:href="#m8a86896b48" x="217.930165" y="214.18002" style="fill: #ffa500; stroke: #ffa500; stroke-width: 2"/>
     <use xlink:href="#m8a86896b48" x="238.682231" y="225.08523" style="fill: #ffa500; stroke: #ffa500; stroke-width: 2"/>
     <use xlink:href="#m8a86896b48" x="259.434298" y="234.509882" style="fill: #ffa500; stroke: #ffa500; stroke-width: 2"/>
     <use xlink:href="#m8a86896b48" x="280.186364" y="243.891443" style="fill: #ffa500; stroke: #ffa500; stroke-width: 2"/>
    </g>
   </g>
   <g id="line2d_16">
    <g clip-path="url(#p1126c2d76c)">
     <use xlink:href="#m8a86896b48" x="51.913636" y="108.461278" style="fill: #ffa500; stroke: #ffa500; stroke-width: 2"/>
     <use xlink:href="#m8a86896b48" x="72.665702" y="122.416878" style="fill: #ffa500; stroke: #ffa500; stroke-width: 2"/>
     <use xlink:href="#m8a86896b48" x="93.417769" y="133.695911" style="fill: #ffa500; stroke: #ffa500; stroke-width: 2"/>
     <use xlink:href="#m8a86896b48" x="114.169835" y="150.467911" style="fill: #ffa500; stroke: #ffa500; stroke-width: 2"/>
     <use xlink:href="#m8a86896b48" x="134.921901" y="162.897084" style="fill: #ffa500; stroke: #ffa500; stroke-width: 2"/>
     <use xlink:href="#m8a86896b48" x="155.673967" y="175.812851" style="fill: #ffa500; stroke: #ffa500; stroke-width: 2"/>
     <use xlink:href="#m8a86896b48" x="176.426033" y="187.478964" style="fill: #ffa500; stroke: #ffa500; stroke-width: 2"/>
     <use xlink:href="#m8a86896b48" x="197.178099" y="200.045435" style="fill: #ffa500; stroke: #ffa500; stroke-width: 2"/>
     <use xlink:href="#m8a86896b48" x="217.930165" y="212.569847" style="fill: #ffa500; stroke: #ffa500; stroke-width: 2"/>
     <use xlink:href="#m8a86896b48" x="238.682231" y="223.145757" style="fill: #ffa500; stroke: #ffa500; stroke-width: 2"/>
     <use xlink:href="#m8a86896b48" x="259.434298" y="232.1705" style="fill: #ffa500; stroke: #ffa500; stroke-width: 2"/>
     <use xlink:href="#m8a86896b48" x="280.186364" y="241.94638" style="fill: #ffa500; stroke: #ffa500; stroke-width: 2"/>
    </g>
   </g>
   <g id="line2d_17">
    <path d="M 51.913636 86.668342 
L 72.665702 104.254193 
L 93.417769 120.093161 
L 114.169835 138.712156 
L 134.921901 154.894688 
L 155.673967 172.273169 
L 176.426033 190.749046 
L 197.178099 205.284806 
L 217.930165 219.840119 
L 238.682231 232.787027 
L 259.434298 247.449552 
L 280.186364 260.000942 
" clip-path="url(#p1126c2d76c)" style="fill: none; stroke: #0000ff; stroke-width: 1.5; stroke-linecap: square"/>
   </g>
   <g id="LineCollection_3">
    <path d="M 51.913636 87.666594 
L 51.913636 85.67009 
" clip-path="url(#p1126c2d76c)" style="fill: none; stroke: #0000ff; stroke-width: 2"/>
    <path d="M 72.665702 106.390856 
L 72.665702 102.117529 
" clip-path="url(#p1126c2d76c)" style="fill: none; stroke: #0000ff; stroke-width: 2"/>
    <path d="M 93.417769 121.446994 
L 93.417769 118.739327 
" clip-path="url(#p1126c2d76c)" style="fill: none; stroke: #0000ff; stroke-width: 2"/>
    <path d="M 114.169835 140.144212 
L 114.169835 137.2801 
" clip-path="url(#p1126c2d76c)" style="fill: none; stroke: #0000ff; stroke-width: 2"/>
    <path d="M 134.921901 156.239036 
L 134.921901 153.550341 
" clip-path="url(#p1126c2d76c)" style="fill: none; stroke: #0000ff; stroke-width: 2"/>
    <path d="M 155.673967 173.534064 
L 155.673967 171.012274 
" clip-path="url(#p1126c2d76c)" style="fill: none; stroke: #0000ff; stroke-width: 2"/>
    <path d="M 176.426033 192.131928 
L 176.426033 189.366164 
" clip-path="url(#p1126c2d76c)" style="fill: none; stroke: #0000ff; stroke-width: 2"/>
    <path d="M 197.178099 206.617471 
L 197.178099 203.952142 
" clip-path="url(#p1126c2d76c)" style="fill: none; stroke: #0000ff; stroke-width: 2"/>
    <path d="M 217.930165 220.541131 
L 217.930165 219.139107 
" clip-path="url(#p1126c2d76c)" style="fill: none; stroke: #0000ff; stroke-width: 2"/>
    <path d="M 238.682231 233.981461 
L 238.682231 231.592593 
" clip-path="url(#p1126c2d76c)" style="fill: none; stroke: #0000ff; stroke-width: 2"/>
    <path d="M 259.434298 248.090774 
L 259.434298 246.808329 
" clip-path="url(#p1126c2d76c)" style="fill: none; stroke: #0000ff; stroke-width: 2"/>
    <path d="M 280.186364 260.555947 
L 280.186364 259.445937 
" clip-path="url(#p1126c2d76c)" style="fill: none; stroke: #0000ff; stroke-width: 2"/>
   </g>
   <g id="line2d_18">
    <defs>
     <path id="m89779ad0ce" d="M 3 0 
L -3 -0 
" style="stroke: #0000ff; stroke-width: 2"/>
    </defs>
    <g clip-path="url(#p1126c2d76c)">
     <use xlink:href="#m89779ad0ce" x="51.913636" y="87.666594" style="fill: #0000ff; stroke: #0000ff; stroke-width: 2"/>
     <use xlink:href="#m89779ad0ce" x="72.665702" y="106.390856" style="fill: #0000ff; stroke: #0000ff; stroke-width: 2"/>
     <use xlink:href="#m89779ad0ce" x="93.417769" y="121.446994" style="fill: #0000ff; stroke: #0000ff; stroke-width: 2"/>
     <use xlink:href="#m89779ad0ce" x="114.169835" y="140.144212" style="fill: #0000ff; stroke: #0000ff; stroke-width: 2"/>
     <use xlink:href="#m89779ad0ce" x="134.921901" y="156.239036" style="fill: #0000ff; stroke: #0000ff; stroke-width: 2"/>
     <use xlink:href="#m89779ad0ce" x="155.673967" y="173.534064" style="fill: #0000ff; stroke: #0000ff; stroke-width: 2"/>
     <use xlink:href="#m89779ad0ce" x="176.426033" y="192.131928" style="fill: #0000ff; stroke: #0000ff; stroke-width: 2"/>
     <use xlink:href="#m89779ad0ce" x="197.178099" y="206.617471" style="fill: #0000ff; stroke: #0000ff; stroke-width: 2"/>
     <use xlink:href="#m89779ad0ce" x="217.930165" y="220.541131" style="fill: #0000ff; stroke: #0000ff; stroke-width: 2"/>
     <use xlink:href="#m89779ad0ce" x="238.682231" y="233.981461" style="fill: #0000ff; stroke: #0000ff; stroke-width: 2"/>
     <use xlink:href="#m89779ad0ce" x="259.434298" y="248.090774" style="fill: #0000ff; stroke: #0000ff; stroke-width: 2"/>
     <use xlink:href="#m89779ad0ce" x="280.186364" y="260.555947" style="fill: #0000ff; stroke: #0000ff; stroke-width: 2"/>
    </g>
   </g>
   <g id="line2d_19">
    <g clip-path="url(#p1126c2d76c)">
     <use xlink:href="#m89779ad0ce" x="51.913636" y="85.67009" style="fill: #0000ff; stroke: #0000ff; stroke-width: 2"/>
     <use xlink:href="#m89779ad0ce" x="72.665702" y="102.117529" style="fill: #0000ff; stroke: #0000ff; stroke-width: 2"/>
     <use xlink:href="#m89779ad0ce" x="93.417769" y="118.739327" style="fill: #0000ff; stroke: #0000ff; stroke-width: 2"/>
     <use xlink:href="#m89779ad0ce" x="114.169835" y="137.2801" style="fill: #0000ff; stroke: #0000ff; stroke-width: 2"/>
     <use xlink:href="#m89779ad0ce" x="134.921901" y="153.550341" style="fill: #0000ff; stroke: #0000ff; stroke-width: 2"/>
     <use xlink:href="#m89779ad0ce" x="155.673967" y="171.012274" style="fill: #0000ff; stroke: #0000ff; stroke-width: 2"/>
     <use xlink:href="#m89779ad0ce" x="176.426033" y="189.366164" style="fill: #0000ff; stroke: #0000ff; stroke-width: 2"/>
     <use xlink:href="#m89779ad0ce" x="197.178099" y="203.952142" style="fill: #0000ff; stroke: #0000ff; stroke-width: 2"/>
     <use xlink:href="#m89779ad0ce" x="217.930165" y="219.139107" style="fill: #0000ff; stroke: #0000ff; stroke-width: 2"/>
     <use xlink:href="#m89779ad0ce" x="238.682231" y="231.592593" style="fill: #0000ff; stroke: #0000ff; stroke-width: 2"/>
     <use xlink:href="#m89779ad0ce" x="259.434298" y="246.808329" style="fill: #0000ff; stroke: #0000ff; stroke-width: 2"/>
     <use xlink:href="#m89779ad0ce" x="280.186364" y="259.445937" style="fill: #0000ff; stroke: #0000ff; stroke-width: 2"/>
    </g>
   </g>
   <g id="line2d_20">
    <path d="M 51.913636 51.406954 
L 72.665702 75.139175 
L 93.417769 101.026563 
L 114.169835 122.921445 
L 134.921901 145.576634 
L 155.673967 168.165573 
L 176.426033 187.11229 
L 197.178099 208.95591 
L 217.930165 227.637321 
L 238.682231 244.042015 
L 259.434298 261.628977 
L 280.186364 276.057135 
" clip-path="url(#p1126c2d76c)" style="fill: none; stroke: #bf00bf; stroke-width: 1.5; stroke-linecap: square"/>
   </g>
   <g id="LineCollection_4">
    <path d="M 51.913636 52.593908 
L 51.913636 50.22 
" clip-path="url(#p1126c2d76c)" style="fill: none; stroke: #bf00bf; stroke-width: 2"/>
    <path d="M 72.665702 77.293667 
L 72.665702 72.984684 
" clip-path="url(#p1126c2d76c)" style="fill: none; stroke: #bf00bf; stroke-width: 2"/>
    <path d="M 93.417769 102.585234 
L 93.417769 99.467892 
" clip-path="url(#p1126c2d76c)" style="fill: none; stroke: #bf00bf; stroke-width: 2"/>
    <path d="M 114.169835 124.567402 
L 114.169835 121.275487 
" clip-path="url(#p1126c2d76c)" style="fill: none; stroke: #bf00bf; stroke-width: 2"/>
    <path d="M 134.921901 147.28145 
L 134.921901 143.871817 
" clip-path="url(#p1126c2d76c)" style="fill: none; stroke: #bf00bf; stroke-width: 2"/>
    <path d="M 155.673967 169.699608 
L 155.673967 166.631538 
" clip-path="url(#p1126c2d76c)" style="fill: none; stroke: #bf00bf; stroke-width: 2"/>
    <path d="M 176.426033 188.268818 
L 176.426033 185.955762 
" clip-path="url(#p1126c2d76c)" style="fill: none; stroke: #bf00bf; stroke-width: 2"/>
    <path d="M 197.178099 209.923773 
L 197.178099 207.988047 
" clip-path="url(#p1126c2d76c)" style="fill: none; stroke: #bf00bf; stroke-width: 2"/>
    <path d="M 217.930165 228.606766 
L 217.930165 226.667875 
" clip-path="url(#p1126c2d76c)" style="fill: none; stroke: #bf00bf; stroke-width: 2"/>
    <path d="M 238.682231 245.7729 
L 238.682231 242.311131 
" clip-path="url(#p1126c2d76c)" style="fill: none; stroke: #bf00bf; stroke-width: 2"/>
    <path d="M 259.434298 262.812504 
L 259.434298 260.445451 
" clip-path="url(#p1126c2d76c)" style="fill: none; stroke: #bf00bf; stroke-width: 2"/>
    <path d="M 280.186364 277.02 
L 280.186364 275.09427 
" clip-path="url(#p1126c2d76c)" style="fill: none; stroke: #bf00bf; stroke-width: 2"/>
   </g>
   <g id="line2d_21">
    <defs>
     <path id="m656473118b" d="M 3 0 
L -3 -0 
" style="stroke: #bf00bf; stroke-width: 2"/>
    </defs>
    <g clip-path="url(#p1126c2d76c)">
     <use xlink:href="#m656473118b" x="51.913636" y="52.593908" style="fill: #bf00bf; stroke: #bf00bf; stroke-width: 2"/>
     <use xlink:href="#m656473118b" x="72.665702" y="77.293667" style="fill: #bf00bf; stroke: #bf00bf; stroke-width: 2"/>
     <use xlink:href="#m656473118b" x="93.417769" y="102.585234" style="fill: #bf00bf; stroke: #bf00bf; stroke-width: 2"/>
     <use xlink:href="#m656473118b" x="114.169835" y="124.567402" style="fill: #bf00bf; stroke: #bf00bf; stroke-width: 2"/>
     <use xlink:href="#m656473118b" x="134.921901" y="147.28145" style="fill: #bf00bf; stroke: #bf00bf; stroke-width: 2"/>
     <use xlink:href="#m656473118b" x="155.673967" y="169.699608" style="fill: #bf00bf; stroke: #bf00bf; stroke-width: 2"/>
     <use xlink:href="#m656473118b" x="176.426033" y="188.268818" style="fill: #bf00bf; stroke: #bf00bf; stroke-width: 2"/>
     <use xlink:href="#m656473118b" x="197.178099" y="209.923773" style="fill: #bf00bf; stroke: #bf00bf; stroke-width: 2"/>
     <use xlink:href="#m656473118b" x="217.930165" y="228.606766" style="fill: #bf00bf; stroke: #bf00bf; stroke-width: 2"/>
     <use xlink:href="#m656473118b" x="238.682231" y="245.7729" style="fill: #bf00bf; stroke: #bf00bf; stroke-width: 2"/>
     <use xlink:href="#m656473118b" x="259.434298" y="262.812504" style="fill: #bf00bf; stroke: #bf00bf; stroke-width: 2"/>
     <use xlink:href="#m656473118b" x="280.186364" y="277.02" style="fill: #bf00bf; stroke: #bf00bf; stroke-width: 2"/>
    </g>
   </g>
   <g id="line2d_22">
    <g clip-path="url(#p1126c2d76c)">
     <use xlink:href="#m656473118b" x="51.913636" y="50.22" style="fill: #bf00bf; stroke: #bf00bf; stroke-width: 2"/>
     <use xlink:href="#m656473118b" x="72.665702" y="72.984684" style="fill: #bf00bf; stroke: #bf00bf; stroke-width: 2"/>
     <use xlink:href="#m656473118b" x="93.417769" y="99.467892" style="fill: #bf00bf; stroke: #bf00bf; stroke-width: 2"/>
     <use xlink:href="#m656473118b" x="114.169835" y="121.275487" style="fill: #bf00bf; stroke: #bf00bf; stroke-width: 2"/>
     <use xlink:href="#m656473118b" x="134.921901" y="143.871817" style="fill: #bf00bf; stroke: #bf00bf; stroke-width: 2"/>
     <use xlink:href="#m656473118b" x="155.673967" y="166.631538" style="fill: #bf00bf; stroke: #bf00bf; stroke-width: 2"/>
     <use xlink:href="#m656473118b" x="176.426033" y="185.955762" style="fill: #bf00bf; stroke: #bf00bf; stroke-width: 2"/>
     <use xlink:href="#m656473118b" x="197.178099" y="207.988047" style="fill: #bf00bf; stroke: #bf00bf; stroke-width: 2"/>
     <use xlink:href="#m656473118b" x="217.930165" y="226.667875" style="fill: #bf00bf; stroke: #bf00bf; stroke-width: 2"/>
     <use xlink:href="#m656473118b" x="238.682231" y="242.311131" style="fill: #bf00bf; stroke: #bf00bf; stroke-width: 2"/>
     <use xlink:href="#m656473118b" x="259.434298" y="260.445451" style="fill: #bf00bf; stroke: #bf00bf; stroke-width: 2"/>
     <use xlink:href="#m656473118b" x="280.186364" y="275.09427" style="fill: #bf00bf; stroke: #bf00bf; stroke-width: 2"/>
    </g>
   </g>
   <g id="line2d_23">
    <path d="M 51.913636 132.911662 
L 72.665702 140.606668 
L 93.417769 150.487737 
L 114.169835 161.566083 
L 134.921901 170.503855 
L 155.673967 180.394761 
L 176.426033 189.477287 
L 197.178099 198.724571 
L 217.930165 206.786063 
L 238.682231 215.18687 
L 259.434298 222.75059 
L 280.186364 232.438475 
" clip-path="url(#p1126c2d76c)" style="fill: none; stroke: #ff0000; stroke-width: 1.5; stroke-linecap: square"/>
   </g>
   <g id="line2d_24">
    <path d="M 51.913636 109.838642 
L 72.665702 123.52565 
L 93.417769 134.932786 
L 114.169835 151.60157 
L 134.921901 164.08438 
L 155.673967 177.052065 
L 176.426033 188.342727 
L 197.178099 200.575601 
L 217.930165 213.374933 
L 238.682231 224.115494 
L 259.434298 233.340191 
L 280.186364 242.918911 
" clip-path="url(#p1126c2d76c)" style="fill: none; stroke: #ffa500; stroke-width: 1.5; stroke-linecap: square"/>
   </g>
   <g id="line2d_25">
    <path d="M 51.913636 86.668342 
L 72.665702 104.254193 
L 93.417769 120.093161 
L 114.169835 138.712156 
L 134.921901 154.894688 
L 155.673967 172.273169 
L 176.426033 190.749046 
L 197.178099 205.284806 
L 217.930165 219.840119 
L 238.682231 232.787027 
L 259.434298 247.449552 
L 280.186364 260.000942 
" clip-path="url(#p1126c2d76c)" style="fill: none; stroke: #0000ff; stroke-width: 1.5; stroke-linecap: square"/>
   </g>
   <g id="line2d_26">
    <path d="M 51.913636 51.406954 
L 72.665702 75.139175 
L 93.417769 101.026563 
L 114.169835 122.921445 
L 134.921901 145.576634 
L 155.673967 168.165573 
L 176.426033 187.11229 
L 197.178099 208.95591 
L 217.930165 227.637321 
L 238.682231 244.042015 
L 259.434298 261.628977 
L 280.186364 276.057135 
" clip-path="url(#p1126c2d76c)" style="fill: none; stroke: #bf00bf; stroke-width: 1.5; stroke-linecap: square"/>
   </g>
   <g id="patch_3">
    <path d="M 40.5 288.36 
L 40.5 38.88 
" style="fill: none; stroke: #000000; stroke-width: 1.6; stroke-linejoin: miter; stroke-linecap: square"/>
   </g>
   <g id="patch_4">
    <path d="M 291.6 288.36 
L 291.6 38.88 
" style="fill: none; stroke: #000000; stroke-width: 1.6; stroke-linejoin: miter; stroke-linecap: square"/>
   </g>
   <g id="patch_5">
    <path d="M 40.5 288.36 
L 291.6 288.36 
" style="fill: none; stroke: #000000; stroke-width: 1.6; stroke-linejoin: miter; stroke-linecap: square"/>
   </g>
   <g id="patch_6">
    <path d="M 40.5 38.88 
L 291.6 38.88 
" style="fill: none; stroke: #000000; stroke-width: 1.6; stroke-linejoin: miter; stroke-linecap: square"/>
   </g>
   <g id="legend_1">
    <g id="patch_7">
     <path d="M 209.120625 118.935 
L 283.2 118.935 
Q 285.6 118.935 285.6 116.535 
L 285.6 47.28 
Q 285.6 44.88 283.2 44.88 
L 209.120625 44.88 
Q 206.720625 44.88 206.720625 47.28 
L 206.720625 116.535 
Q 206.720625 118.935 209.120625 118.935 
z
" style="fill: #ffffff; opacity: 0.8"/>
    </g>
    <g id="LineCollection_5">
     <path d="M 223.520625 60.598125 
L 223.520625 48.598125 
" style="fill: none; stroke: #ff0000; stroke-width: 2"/>
    </g>
    <g id="line2d_27">
     <g>
      <use xlink:href="#m7560091d72" x="223.520625" y="60.598125" style="fill: #ff0000; stroke: #ff0000; stroke-width: 2"/>
     </g>
    </g>
    <g id="line2d_28">
     <g>
      <use xlink:href="#m7560091d72" x="223.520625" y="48.598125" style="fill: #ff0000; stroke: #ff0000; stroke-width: 2"/>
     </g>
    </g>
    <g id="line2d_29">
     <path d="M 211.520625 54.598125 
L 235.520625 54.598125 
" style="fill: none; stroke: #ff0000; stroke-width: 1.5; stroke-linecap: square"/>
    </g>
    <g id="line2d_30"/>
    <g id="text_11">
     <!-- M=4 -->
     <g transform="translate(245.120625 58.798125) scale(0.12 -0.12)">
      <defs>
       <path id="DejaVuSans-4d" d="M 628 4666 
L 1569 4666 
L 2759 1491 
L 3956 4666 
L 4897 4666 
L 4897 0 
L 4281 0 
L 4281 4097 
L 3078 897 
L 2444 897 
L 1241 4097 
L 1241 0 
L 628 0 
L 628 4666 
z
" transform="scale(0.015625)"/>
       <path id="DejaVuSans-3d" d="M 678 2906 
L 4684 2906 
L 4684 2381 
L 678 2381 
L 678 2906 
z
M 678 1631 
L 4684 1631 
L 4684 1100 
L 678 1100 
L 678 1631 
z
" transform="scale(0.015625)"/>
      </defs>
      <use xlink:href="#DejaVuSans-4d"/>
      <use xlink:href="#DejaVuSans-3d" x="86.279297"/>
      <use xlink:href="#DejaVuSans-34" x="170.068359"/>
     </g>
    </g>
    <g id="LineCollection_6">
     <path d="M 223.520625 78.211875 
L 223.520625 66.211875 
" style="fill: none; stroke: #ffa500; stroke-width: 2"/>
    </g>
    <g id="line2d_31">
     <g>
      <use xlink:href="#m8a86896b48" x="223.520625" y="78.211875" style="fill: #ffa500; stroke: #ffa500; stroke-width: 2"/>
     </g>
    </g>
    <g id="line2d_32">
     <g>
      <use xlink:href="#m8a86896b48" x="223.520625" y="66.211875" style="fill: #ffa500; stroke: #ffa500; stroke-width: 2"/>
     </g>
    </g>
    <g id="line2d_33">
     <path d="M 211.520625 72.211875 
L 235.520625 72.211875 
" style="fill: none; stroke: #ffa500; stroke-width: 1.5; stroke-linecap: square"/>
    </g>
    <g id="line2d_34"/>
    <g id="text_12">
     <!-- M=8 -->
     <g transform="translate(245.120625 76.411875) scale(0.12 -0.12)">
      <use xlink:href="#DejaVuSans-4d"/>
      <use xlink:href="#DejaVuSans-3d" x="86.279297"/>
      <use xlink:href="#DejaVuSans-38" x="170.068359"/>
     </g>
    </g>
    <g id="LineCollection_7">
     <path d="M 223.520625 95.825625 
L 223.520625 83.825625 
" style="fill: none; stroke: #0000ff; stroke-width: 2"/>
    </g>
    <g id="line2d_35">
     <g>
      <use xlink:href="#m89779ad0ce" x="223.520625" y="95.825625" style="fill: #0000ff; stroke: #0000ff; stroke-width: 2"/>
     </g>
    </g>
    <g id="line2d_36">
     <g>
      <use xlink:href="#m89779ad0ce" x="223.520625" y="83.825625" style="fill: #0000ff; stroke: #0000ff; stroke-width: 2"/>
     </g>
    </g>
    <g id="line2d_37">
     <path d="M 211.520625 89.825625 
L 235.520625 89.825625 
" style="fill: none; stroke: #0000ff; stroke-width: 1.5; stroke-linecap: square"/>
    </g>
    <g id="line2d_38"/>
    <g id="text_13">
     <!-- M=16 -->
     <g transform="translate(245.120625 94.025625) scale(0.12 -0.12)">
      <use xlink:href="#DejaVuSans-4d"/>
      <use xlink:href="#DejaVuSans-3d" x="86.279297"/>
      <use xlink:href="#DejaVuSans-31" x="170.068359"/>
      <use xlink:href="#DejaVuSans-36" x="233.691406"/>
     </g>
    </g>
    <g id="LineCollection_8">
     <path d="M 223.520625 113.439375 
L 223.520625 101.439375 
" style="fill: none; stroke: #bf00bf; stroke-width: 2"/>
    </g>
    <g id="line2d_39">
     <g>
      <use xlink:href="#m656473118b" x="223.520625" y="113.439375" style="fill: #bf00bf; stroke: #bf00bf; stroke-width: 2"/>
     </g>
    </g>
    <g id="line2d_40">
     <g>
      <use xlink:href="#m656473118b" x="223.520625" y="101.439375" style="fill: #bf00bf; stroke: #bf00bf; stroke-width: 2"/>
     </g>
    </g>
    <g id="line2d_41">
     <path d="M 211.520625 107.439375 
L 235.520625 107.439375 
" style="fill: none; stroke: #bf00bf; stroke-width: 1.5; stroke-linecap: square"/>
    </g>
    <g id="line2d_42"/>
    <g id="text_14">
     <!-- M=32 -->
     <g transform="translate(245.120625 111.639375) scale(0.12 -0.12)">
      <use xlink:href="#DejaVuSans-4d"/>
      <use xlink:href="#DejaVuSans-3d" x="86.279297"/>
      <use xlink:href="#DejaVuSans-33" x="170.068359"/>
      <use xlink:href="#DejaVuSans-32" x="233.691406"/>
     </g>
    </g>
   </g>
  </g>
 </g>
 <defs>
  <clipPath id="p1126c2d76c">
   <rect x="40.5" y="38.88" width="251.1" height="249.48"/>
  </clipPath>
 </defs>
</svg>
