<?xml version="1.0" encoding="utf-8" standalone="no"?>
<!DOCTYPE svg PUBLIC "-//W3C//DTD SVG 1.1//EN"
  "http://www.w3.org/Graphics/SVG/1.1/DTD/svg11.dtd">
<svg xmlns:xlink="http://www.w3.org/1999/xlink" width="324pt" height="324pt" viewBox="0 0 324 324" xmlns="http://www.w3.org/2000/svg" version="1.1">
 <metadata>
  <rdf:RDF xmlns:dc="http://purl.org/dc/elements/1.1/" xmlns:cc="http://creativecommons.org/ns#" xmlns:rdf="http://www.w3.org/1999/02/22-rdf-syntax-ns#">
   <cc:Work>
    <dc:type rdf:resource="http://purl.org/dc/dcmitype/StillImage"/>
    <dc:date>2026-01-08T20:01:22.243204</dc:date>
    <dc:format>image/svg+xml</dc:format>
    <dc:creator>
     <cc:Agent>
      <dc:title>Matplotlib v3.8.0, https://matplotlib.org/</dc:title>
     </cc:Agent>
    </dc:creator>
   </cc:Work>
  </rdf:RDF>
 </metadata>
 <defs>
  <style type="text/css">*{stroke-linejoin: round; stroke-linecap: butt}</style>
 </defs>
 <g id="figure_1">
  <g id="patch_1">
   <path d="M 0 324 
L 324 324 
L 324 0 
L 0 0 
z
" style="fill: #ffffff"/>
  </g>
  <g id="axes_1">
   <g id="patch_2">
    <path d="M 40.5 288.36 
L 291.6 288.36 
L 291.6 38.88 
L 40.5 38.88 
z
" style="fill: #ffffff"/>
   </g>
   <g id="matplotlib.axis_1">
    <g id="xtick_1">
     <g id="line2d_1">
      <defs>
       <path id="m44087893ae" d="M 0 0 
L 0 8 
" style="stroke: #000000; stroke-width: 1.5"/>
      </defs>
      <g>
       <use xlink:href="#m44087893ae" x="51.913636" y="288.36" style="stroke: #000000; stroke-width: 1.5"/>
      </g>
     </g>
     <g id="text_1">
      <!-- 2.0 -->
      <g transform="translate(42.371761 308.978125) scale(0.12 -0.12)">
       <defs>
        <path id="DejaVuSans-32" d="M 1228 531 
L 3431 531 
L 3431 0 
L 469 0 
L 469 531 
Q 828 903 1448 1529 
Q 2069 2156 2228 2338 
Q 2531 2678 2651 2914 
Q 2772 3150 2772 3378 
Q 2772 3750 2511 3984 
Q 2250 4219 1831 4219 
Q 1534 4219 1204 4116 
Q 875 4013 500 3803 
L 500 4441 
Q 881 4594 1212 4672 
Q 1544 4750 1819 4750 
Q 2544 4750 2975 4387 
Q 3406 4025 3406 3419 
Q 3406 3131 3298 2873 
Q 3191 2616 2906 2266 
Q 2828 2175 2409 1742 
Q 1991 1309 1228 531 
z
" transform="scale(0.015625)"/>
        <path id="DejaVuSans-2e" d="M 684 794 
L 1344 794 
L 1344 0 
L 684 0 
L 684 794 
z
" transform="scale(0.015625)"/>
        <path id="DejaVuSans-30" d="M 2034 4250 
Q 1547 4250 1301 3770 
Q 1056 3291 1056 2328 
Q 1056 1369 1301 889 
Q 1547 409 2034 409 
Q 2525 409 2770 889 
Q 3016 1369 3016 2328 
Q 3016 3291 2770 3770 
Q 2525 4250 2034 4250 
z
M 2034 4750 
Q 2819 4750 3233 4129 
Q 3647 3509 3647 2328 
Q 3647 1150 3233 529 
Q 2819 -91 2034 -91 
Q 1250 -91 836 529 
Q 422 1150 422 2328 
Q 422 3509 836 4129 
Q 1250 4750 2034 4750 
z
" transform="scale(0.015625)"/>
       </defs>
       <use xlink:href="#DejaVuSans-32"/>
       <use xlink:href="#DejaVuSans-2e" x="63.623047"/>
       <use xlink:href="#DejaVuSans-30" x="95.410156"/>
      </g>
     </g>
    </g>
    <g id="xtick_2">
     <g id="line2d_2">
      <g>
       <use xlink:href="#m44087893ae" x="103.793802" y="288.36" style="stroke: #000000; stroke-width: 1.5"/>
      </g>
     </g>
     <g id="text_2">
      <!-- 2.5 -->
      <g transform="translate(94.251927 308.978125) scale(0.12 -0.12)">
       <defs>
        <path id="DejaVuSans-35" d="M 691 4666 
L 3169 4666 
L 3169 4134 
L 1269 4134 
L 1269 2991 
Q 1406 3038 1543 3061 
Q 1681 3084 1819 3084 
Q 2600 3084 3056 2656 
Q 3513 2228 3513 1497 
Q 3513 744 3044 326 
Q 2575 -91 1722 -91 
Q 1428 -91 1123 -41 
Q 819 9 494 109 
L 494 744 
Q 775 591 1075 516 
Q 1375 441 1709 441 
Q 2250 441 2565 725 
Q 2881 1009 2881 1497 
Q 2881 1984 2565 2268 
Q 2250 2553 1709 2553 
Q 1456 2553 1204 2497 
Q 953 2441 691 2322 
L 691 4666 
z
" transform="scale(0.015625)"/>
       </defs>
       <use xlink:href="#DejaVuSans-32"/>
       <use xlink:href="#DejaVuSans-2e" x="63.623047"/>
       <use xlink:href="#DejaVuSans-35" x="95.410156"/>
      </g>
     </g>
    </g>
    <g id="xtick_3">
     <g id="line2d_3">
      <g>
       <use xlink:href="#m44087893ae" x="155.673967" y="288.36" style="stroke: #000000; stroke-width: 1.5"/>
      </g>
     </g>
     <g id="text_3">
      <!-- 3.0 -->
      <g transform="translate(146.132092 308.978125) scale(0.12 -0.12)">
       <defs>
        <path id="DejaVuSans-33" d="M 2597 2516 
Q 3050 2419 3304 2112 
Q 3559 1806 3559 1356 
Q 3559 666 3084 287 
Q 2609 -91 1734 -91 
Q 1441 -91 1130 -33 
Q 819 25 488 141 
L 488 750 
Q 750 597 1062 519 
Q 1375 441 1716 441 
Q 2309 441 2620 675 
Q 2931 909 2931 1356 
Q 2931 1769 2642 2001 
Q 2353 2234 1838 2234 
L 1294 2234 
L 1294 2753 
L 1863 2753 
Q 2328 2753 2575 2939 
Q 2822 3125 2822 3475 
Q 2822 3834 2567 4026 
Q 2313 4219 1838 4219 
Q 1578 4219 1281 4162 
Q 984 4106 628 3988 
L 628 4550 
Q 988 4650 1302 4700 
Q 1616 4750 1894 4750 
Q 2613 4750 3031 4423 
Q 3450 4097 3450 3541 
Q 3450 3153 3228 2886 
Q 3006 2619 2597 2516 
z
" transform="scale(0.015625)"/>
       </defs>
       <use xlink:href="#DejaVuSans-33"/>
       <use xlink:href="#DejaVuSans-2e" x="63.623047"/>
       <use xlink:href="#DejaVuSans-30" x="95.410156"/>
      </g>
     </g>
    </g>
    <g id="xtick_4">
     <g id="line2d_4">
      <g>
       <use xlink:href="#m44087893ae" x="207.554132" y="288.36" style="stroke: #000000; stroke-width: 1.5"/>
      </g>
     </g>
     <g id="text_4">
      <!-- 3.5 -->
      <g transform="translate(198.012257 308.978125) scale(0.12 -0.12)">
       <use xlink:href="#DejaVuSans-33"/>
       <use xlink:href="#DejaVuSans-2e" x="63.623047"/>
       <use xlink:href="#DejaVuSans-35" x="95.410156"/>
      </g>
     </g>
    </g>
    <g id="xtick_5">
     <g id="line2d_5">
      <g>
       <use xlink:href="#m44087893ae" x="259.434298" y="288.36" style="stroke: #000000; stroke-width: 1.5"/>
      </g>
     </g>
     <g id="text_5">
      <!-- 4.0 -->
      <g transform="translate(249.892423 308.978125) scale(0.12 -0.12)">
       <defs>
        <path id="DejaVuSans-34" d="M 2419 4116 
L 825 1625 
L 2419 1625 
L 2419 4116 
z
M 2253 4666 
L 3047 4666 
L 3047 1625 
L 3713 1625 
L 3713 1100 
L 3047 1100 
L 3047 0 
L 2419 0 
L 2419 1100 
L 313 1100 
L 313 1709 
L 2253 4666 
z
" transform="scale(0.015625)"/>
       </defs>
       <use xlink:href="#DejaVuSans-34"/>
       <use xlink:href="#DejaVuSans-2e" x="63.623047"/>
       <use xlink:href="#DejaVuSans-30" x="95.410156"/>
      </g>
     </g>
    </g>
   </g>
   <g id="matplotlib.axis_2">
    <g id="ytick_1">
     <g id="line2d_6">
      <defs>
       <path id="m32141ccf18" d="M 0 0 
L -8 0 
" style="stroke: #000000; stroke-width: 1.5"/>
      </defs>
      <g>
       <use xlink:href="#m32141ccf18" x="40.5" y="247.662124" style="stroke: #000000; stroke-width: 1.5"/>
      </g>
     </g>
     <g id="text_6">
      <!-- 1 -->
      <g transform="translate(21.365 252.221186) scale(0.12 -0.12)">
       <defs>
        <path id="DejaVuSans-31" d="M 794 531 
L 1825 531 
L 1825 4091 
L 703 3866 
L 703 4441 
L 1819 4666 
L 2450 4666 
L 2450 531 
L 3481 531 
L 3481 0 
L 794 0 
L 794 531 
z
" transform="scale(0.015625)"/>
       </defs>
       <use xlink:href="#DejaVuSans-31"/>
      </g>
     </g>
    </g>
    <g id="ytick_2">
     <g id="line2d_7">
      <g>
       <use xlink:href="#m32141ccf18" x="40.5" y="190.810538" style="stroke: #000000; stroke-width: 1.5"/>
      </g>
     </g>
     <g id="text_7">
      <!-- 2 -->
      <g transform="translate(21.365 195.3696) scale(0.12 -0.12)">
       <use xlink:href="#DejaVuSans-32"/>
      </g>
     </g>
    </g>
    <g id="ytick_3">
     <g id="line2d_8">
      <g>
       <use xlink:href="#m32141ccf18" x="40.5" y="133.958951" style="stroke: #000000; stroke-width: 1.5"/>
      </g>
     </g>
     <g id="text_8">
      <!-- 3 -->
      <g transform="translate(21.365 138.518014) scale(0.12 -0.12)">
       <use xlink:href="#DejaVuSans-33"/>
      </g>
     </g>
    </g>
    <g id="ytick_4">
     <g id="line2d_9">
      <g>
       <use xlink:href="#m32141ccf18" x="40.5" y="77.107365" style="stroke: #000000; stroke-width: 1.5"/>
      </g>
     </g>
     <g id="text_9">
      <!-- 4 -->
      <g transform="translate(21.365 81.666427) scale(0.12 -0.12)">
       <use xlink:href="#DejaVuSans-34"/>
      </g>
     </g>
    </g>
   </g>
   <g id="line2d_10">
    <path d="M 51.913636 136.081467 
L 72.665702 146.112476 
L 93.417769 157.225353 
L 114.169835 170.226519 
L 134.921901 182.756937 
L 155.673967 195.056112 
L 176.426033 205.879055 
L 197.178099 216.737445 
L 217.930165 225.246872 
L 238.682231 232.663422 
L 259.434298 240.067401 
L 280.186364 245.814974 
" clip-path="url(#p648207dc43)" style="fill: none; stroke: #ff0000; stroke-width: 1.5; stroke-linecap: square"/>
   </g>
   <g id="LineCollection_1">
    <path d="M 51.913636 136.80856 
L 51.913636 135.354373 
" clip-path="url(#p648207dc43)" style="fill: none; stroke: #ff0000; stroke-width: 2"/>
    <path d="M 72.665702 146.961358 
L 72.665702 145.263593 
" clip-path="url(#p648207dc43)" style="fill: none; stroke: #ff0000; stroke-width: 2"/>
    <path d="M 93.417769 157.73543 
L 93.417769 156.715276 
" clip-path="url(#p648207dc43)" style="fill: none; stroke: #ff0000; stroke-width: 2"/>
    <path d="M 114.169835 170.716187 
L 114.169835 169.736851 
" clip-path="url(#p648207dc43)" style="fill: none; stroke: #ff0000; stroke-width: 2"/>
    <path d="M 134.921901 183.410481 
L 134.921901 182.103393 
" clip-path="url(#p648207dc43)" style="fill: none; stroke: #ff0000; stroke-width: 2"/>
    <path d="M 155.673967 195.521988 
L 155.673967 194.590235 
" clip-path="url(#p648207dc43)" style="fill: none; stroke: #ff0000; stroke-width: 2"/>
    <path d="M 176.426033 206.363558 
L 176.426033 205.394553 
" clip-path="url(#p648207dc43)" style="fill: none; stroke: #ff0000; stroke-width: 2"/>
    <path d="M 197.178099 216.916132 
L 197.178099 216.558758 
" clip-path="url(#p648207dc43)" style="fill: none; stroke: #ff0000; stroke-width: 2"/>
    <path d="M 217.930165 225.53103 
L 217.930165 224.962714 
" clip-path="url(#p648207dc43)" style="fill: none; stroke: #ff0000; stroke-width: 2"/>
    <path d="M 238.682231 232.983442 
L 238.682231 232.343401 
" clip-path="url(#p648207dc43)" style="fill: none; stroke: #ff0000; stroke-width: 2"/>
    <path d="M 259.434298 240.315662 
L 259.434298 239.81914 
" clip-path="url(#p648207dc43)" style="fill: none; stroke: #ff0000; stroke-width: 2"/>
    <path d="M 280.186364 245.904952 
L 280.186364 245.724996 
" clip-path="url(#p648207dc43)" style="fill: none; stroke: #ff0000; stroke-width: 2"/>
   </g>
   <g id="line2d_11">
    <defs>
     <path id="m6a792bf0d6" d="M 3 0 
L -3 -0 
" style="stroke: #ff0000; stroke-width: 2"/>
    </defs>
    <g clip-path="url(#p648207dc43)">
     <use xlink:href="#m6a792bf0d6" x="51.913636" y="136.80856" style="fill: #ff0000; stroke: #ff0000; stroke-width: 2"/>
     <use xlink:href="#m6a792bf0d6" x="72.665702" y="146.961358" style="fill: #ff0000; stroke: #ff0000; stroke-width: 2"/>
     <use xlink:href="#m6a792bf0d6" x="93.417769" y="157.73543" style="fill: #ff0000; stroke: #ff0000; stroke-width: 2"/>
     <use xlink:href="#m6a792bf0d6" x="114.169835" y="170.716187" style="fill: #ff0000; stroke: #ff0000; stroke-width: 2"/>
     <use xlink:href="#m6a792bf0d6" x="134.921901" y="183.410481" style="fill: #ff0000; stroke: #ff0000; stroke-width: 2"/>
     <use xlink:href="#m6a792bf0d6" x="155.673967" y="195.521988" style="fill: #ff0000; stroke: #ff0000; stroke-width: 2"/>
     <use xlink:href="#m6a792bf0d6" x="176.426033" y="206.363558" style="fill: #ff0000; stroke: #ff0000; stroke-width: 2"/>
     <use xlink:href="#m6a792bf0d6" x="197.178099" y="216.916132" style="fill: #ff0000; stroke: #ff0000; stroke-width: 2"/>
     <use xlink:href="#m6a792bf0d6" x="217.930165" y="225.53103" style="fill: #ff0000; stroke: #ff0000; stroke-width: 2"/>
     <use xlink:href="#m6a792bf0d6" x="238.682231" y="232.983442" style="fill: #ff0000; stroke: #ff0000; stroke-width: 2"/>
     <use xlink:href="#m6a792bf0d6" x="259.434298" y="240.315662" style="fill: #ff0000; stroke: #ff0000; stroke-width: 2"/>
     <use xlink:href="#m6a792bf0d6" x="280.186364" y="245.904952" style="fill: #ff0000; stroke: #ff0000; stroke-width: 2"/>
    </g>
   </g>
   <g id="line2d_12">
    <g clip-path="url(#p648207dc43)">
     <use xlink:href="#m6a792bf0d6" x="51.913636" y="135.354373" style="fill: #ff0000; stroke: #ff0000; stroke-width: 2"/>
     <use xlink:href="#m6a792bf0d6" x="72.665702" y="145.263593" style="fill: #ff0000; stroke: #ff0000; stroke-width: 2"/>
     <use xlink:href="#m6a792bf0d6" x="93.417769" y="156.715276" style="fill: #ff0000; stroke: #ff0000; stroke-width: 2"/>
     <use xlink:href="#m6a792bf0d6" x="114.169835" y="169.736851" style="fill: #ff0000; stroke: #ff0000; stroke-width: 2"/>
     <use xlink:href="#m6a792bf0d6" x="134.921901" y="182.103393" style="fill: #ff0000; stroke: #ff0000; stroke-width: 2"/>
     <use xlink:href="#m6a792bf0d6" x="155.673967" y="194.590235" style="fill: #ff0000; stroke: #ff0000; stroke-width: 2"/>
     <use xlink:href="#m6a792bf0d6" x="176.426033" y="205.394553" style="fill: #ff0000; stroke: #ff0000; stroke-width: 2"/>
     <use xlink:href="#m6a792bf0d6" x="197.178099" y="216.558758" style="fill: #ff0000; stroke: #ff0000; stroke-width: 2"/>
     <use xlink:href="#m6a792bf0d6" x="217.930165" y="224.962714" style="fill: #ff0000; stroke: #ff0000; stroke-width: 2"/>
     <use xlink:href="#m6a792bf0d6" x="238.682231" y="232.343401" style="fill: #ff0000; stroke: #ff0000; stroke-width: 2"/>
     <use xlink:href="#m6a792bf0d6" x="259.434298" y="239.81914" style="fill: #ff0000; stroke: #ff0000; stroke-width: 2"/>
     <use xlink:href="#m6a792bf0d6" x="280.186364" y="245.724996" style="fill: #ff0000; stroke: #ff0000; stroke-width: 2"/>
    </g>
   </g>
   <g id="line2d_13">
    <path d="M 51.913636 106.563676 
L 72.665702 121.601321 
L 93.417769 140.367445 
L 114.169835 158.33624 
L 134.921901 176.955375 
L 155.673967 192.624862 
L 176.426033 207.075234 
L 197.178099 220.876747 
L 217.930165 232.12572 
L 238.682231 241.277244 
L 259.434298 248.750982 
L 280.186364 255.541539 
" clip-path="url(#p648207dc43)" style="fill: none; stroke: #000000; stroke-width: 1.5; stroke-linecap: square"/>
   </g>
   <g id="LineCollection_2">
    <path d="M 51.913636 107.919832 
L 51.913636 105.20752 
" clip-path="url(#p648207dc43)" style="fill: none; stroke: #000000; stroke-width: 2"/>
    <path d="M 72.665702 122.587835 
L 72.665702 120.614808 
" clip-path="url(#p648207dc43)" style="fill: none; stroke: #000000; stroke-width: 2"/>
    <path d="M 93.417769 141.049061 
L 93.417769 139.685829 
" clip-path="url(#p648207dc43)" style="fill: none; stroke: #000000; stroke-width: 2"/>
    <path d="M 114.169835 159.57258 
L 114.169835 157.099899 
" clip-path="url(#p648207dc43)" style="fill: none; stroke: #000000; stroke-width: 2"/>
    <path d="M 134.921901 177.986622 
L 134.921901 175.924127 
" clip-path="url(#p648207dc43)" style="fill: none; stroke: #000000; stroke-width: 2"/>
    <path d="M 155.673967 192.836523 
L 155.673967 192.4132 
" clip-path="url(#p648207dc43)" style="fill: none; stroke: #000000; stroke-width: 2"/>
    <path d="M 176.426033 207.416124 
L 176.426033 206.734343 
" clip-path="url(#p648207dc43)" style="fill: none; stroke: #000000; stroke-width: 2"/>
    <path d="M 197.178099 221.182091 
L 197.178099 220.571403 
" clip-path="url(#p648207dc43)" style="fill: none; stroke: #000000; stroke-width: 2"/>
    <path d="M 217.930165 232.444858 
L 217.930165 231.806581 
" clip-path="url(#p648207dc43)" style="fill: none; stroke: #000000; stroke-width: 2"/>
    <path d="M 238.682231 241.524372 
L 238.682231 241.030116 
" clip-path="url(#p648207dc43)" style="fill: none; stroke: #000000; stroke-width: 2"/>
    <path d="M 259.434298 249.056192 
L 259.434298 248.445772 
" clip-path="url(#p648207dc43)" style="fill: none; stroke: #000000; stroke-width: 2"/>
    <path d="M 280.186364 255.904273 
L 280.186364 255.178805 
" clip-path="url(#p648207dc43)" style="fill: none; stroke: #000000; stroke-width: 2"/>
   </g>
   <g id="line2d_14">
    <defs>
     <path id="m636b713d5d" d="M 3 0 
L -3 -0 
" style="stroke: #000000; stroke-width: 2"/>
    </defs>
    <g clip-path="url(#p648207dc43)">
     <use xlink:href="#m636b713d5d" x="51.913636" y="107.919832" style="stroke: #000000; stroke-width: 2"/>
     <use xlink:href="#m636b713d5d" x="72.665702" y="122.587835" style="stroke: #000000; stroke-width: 2"/>
     <use xlink:href="#m636b713d5d" x="93.417769" y="141.049061" style="stroke: #000000; stroke-width: 2"/>
     <use xlink:href="#m636b713d5d" x="114.169835" y="159.57258" style="stroke: #000000; stroke-width: 2"/>
     <use xlink:href="#m636b713d5d" x="134.921901" y="177.986622" style="stroke: #000000; stroke-width: 2"/>
     <use xlink:href="#m636b713d5d" x="155.673967" y="192.836523" style="stroke: #000000; stroke-width: 2"/>
     <use xlink:href="#m636b713d5d" x="176.426033" y="207.416124" style="stroke: #000000; stroke-width: 2"/>
     <use xlink:href="#m636b713d5d" x="197.178099" y="221.182091" style="stroke: #000000; stroke-width: 2"/>
     <use xlink:href="#m636b713d5d" x="217.930165" y="232.444858" style="stroke: #000000; stroke-width: 2"/>
     <use xlink:href="#m636b713d5d" x="238.682231" y="241.524372" style="stroke: #000000; stroke-width: 2"/>
     <use xlink:href="#m636b713d5d" x="259.434298" y="249.056192" style="stroke: #000000; stroke-width: 2"/>
     <use xlink:href="#m636b713d5d" x="280.186364" y="255.904273" style="stroke: #000000; stroke-width: 2"/>
    </g>
   </g>
   <g id="line2d_15">
    <g clip-path="url(#p648207dc43)">
     <use xlink:href="#m636b713d5d" x="51.913636" y="105.20752" style="stroke: #000000; stroke-width: 2"/>
     <use xlink:href="#m636b713d5d" x="72.665702" y="120.614808" style="stroke: #000000; stroke-width: 2"/>
     <use xlink:href="#m636b713d5d" x="93.417769" y="139.685829" style="stroke: #000000; stroke-width: 2"/>
     <use xlink:href="#m636b713d5d" x="114.169835" y="157.099899" style="stroke: #000000; stroke-width: 2"/>
     <use xlink:href="#m636b713d5d" x="134.921901" y="175.924127" style="stroke: #000000; stroke-width: 2"/>
     <use xlink:href="#m636b713d5d" x="155.673967" y="192.4132" style="stroke: #000000; stroke-width: 2"/>
     <use xlink:href="#m636b713d5d" x="176.426033" y="206.734343" style="stroke: #000000; stroke-width: 2"/>
     <use xlink:href="#m636b713d5d" x="197.178099" y="220.571403" style="stroke: #000000; stroke-width: 2"/>
     <use xlink:href="#m636b713d5d" x="217.930165" y="231.806581" style="stroke: #000000; stroke-width: 2"/>
     <use xlink:href="#m636b713d5d" x="238.682231" y="241.030116" style="stroke: #000000; stroke-width: 2"/>
     <use xlink:href="#m636b713d5d" x="259.434298" y="248.445772" style="stroke: #000000; stroke-width: 2"/>
     <use xlink:href="#m636b713d5d" x="280.186364" y="255.178805" style="stroke: #000000; stroke-width: 2"/>
    </g>
   </g>
   <g id="line2d_16">
    <path d="M 51.913636 79.803661 
L 72.665702 102.151504 
L 93.417769 120.899962 
L 114.169835 145.732769 
L 134.921901 166.853117 
L 155.673967 191.349752 
L 176.426033 209.561439 
L 197.178099 225.333015 
L 217.930165 240.295877 
L 238.682231 250.654034 
L 259.434298 259.840308 
L 280.186364 267.017892 
" clip-path="url(#p648207dc43)" style="fill: none; stroke: #0000ff; stroke-width: 1.5; stroke-linecap: square"/>
   </g>
   <g id="LineCollection_3">
    <path d="M 51.913636 81.245257 
L 51.913636 78.362064 
" clip-path="url(#p648207dc43)" style="fill: none; stroke: #0000ff; stroke-width: 2"/>
    <path d="M 72.665702 102.630867 
L 72.665702 101.67214 
" clip-path="url(#p648207dc43)" style="fill: none; stroke: #0000ff; stroke-width: 2"/>
    <path d="M 93.417769 121.737937 
L 93.417769 120.061986 
" clip-path="url(#p648207dc43)" style="fill: none; stroke: #0000ff; stroke-width: 2"/>
    <path d="M 114.169835 146.262311 
L 114.169835 145.203226 
" clip-path="url(#p648207dc43)" style="fill: none; stroke: #0000ff; stroke-width: 2"/>
    <path d="M 134.921901 167.864789 
L 134.921901 165.841446 
" clip-path="url(#p648207dc43)" style="fill: none; stroke: #0000ff; stroke-width: 2"/>
    <path d="M 155.673967 191.955321 
L 155.673967 190.744182 
" clip-path="url(#p648207dc43)" style="fill: none; stroke: #0000ff; stroke-width: 2"/>
    <path d="M 176.426033 209.816692 
L 176.426033 209.306187 
" clip-path="url(#p648207dc43)" style="fill: none; stroke: #0000ff; stroke-width: 2"/>
    <path d="M 197.178099 225.542962 
L 197.178099 225.123068 
" clip-path="url(#p648207dc43)" style="fill: none; stroke: #0000ff; stroke-width: 2"/>
    <path d="M 217.930165 240.57703 
L 217.930165 240.014724 
" clip-path="url(#p648207dc43)" style="fill: none; stroke: #0000ff; stroke-width: 2"/>
    <path d="M 238.682231 250.855723 
L 238.682231 250.452345 
" clip-path="url(#p648207dc43)" style="fill: none; stroke: #0000ff; stroke-width: 2"/>
    <path d="M 259.434298 260.027489 
L 259.434298 259.653127 
" clip-path="url(#p648207dc43)" style="fill: none; stroke: #0000ff; stroke-width: 2"/>
    <path d="M 280.186364 267.285811 
L 280.186364 266.749974 
" clip-path="url(#p648207dc43)" style="fill: none; stroke: #0000ff; stroke-width: 2"/>
   </g>
   <g id="line2d_17">
    <defs>
     <path id="m760843c6f0" d="M 3 0 
L -3 -0 
" style="stroke: #0000ff; stroke-width: 2"/>
    </defs>
    <g clip-path="url(#p648207dc43)">
     <use xlink:href="#m760843c6f0" x="51.913636" y="81.245257" style="fill: #0000ff; stroke: #0000ff; stroke-width: 2"/>
     <use xlink:href="#m760843c6f0" x="72.665702" y="102.630867" style="fill: #0000ff; stroke: #0000ff; stroke-width: 2"/>
     <use xlink:href="#m760843c6f0" x="93.417769" y="121.737937" style="fill: #0000ff; stroke: #0000ff; stroke-width: 2"/>
     <use xlink:href="#m760843c6f0" x="114.169835" y="146.262311" style="fill: #0000ff; stroke: #0000ff; stroke-width: 2"/>
     <use xlink:href="#m760843c6f0" x="134.921901" y="167.864789" style="fill: #0000ff; stroke: #0000ff; stroke-width: 2"/>
     <use xlink:href="#m760843c6f0" x="155.673967" y="191.955321" style="fill: #0000ff; stroke: #0000ff; stroke-width: 2"/>
     <use xlink:href="#m760843c6f0" x="176.426033" y="209.816692" style="fill: #0000ff; stroke: #0000ff; stroke-width: 2"/>
     <use xlink:href="#m760843c6f0" x="197.178099" y="225.542962" style="fill: #0000ff; stroke: #0000ff; stroke-width: 2"/>
     <use xlink:href="#m760843c6f0" x="217.930165" y="240.57703" style="fill: #0000ff; stroke: #0000ff; stroke-width: 2"/>
     <use xlink:href="#m760843c6f0" x="238.682231" y="250.855723" style="fill: #0000ff; stroke: #0000ff; stroke-width: 2"/>
     <use xlink:href="#m760843c6f0" x="259.434298" y="260.027489" style="fill: #0000ff; stroke: #0000ff; stroke-width: 2"/>
     <use xlink:href="#m760843c6f0" x="280.186364" y="267.285811" style="fill: #0000ff; stroke: #0000ff; stroke-width: 2"/>
    </g>
   </g>
   <g id="line2d_18">
    <g clip-path="url(#p648207dc43)">
     <use xlink:href="#m760843c6f0" x="51.913636" y="78.362064" style="fill: #0000ff; stroke: #0000ff; stroke-width: 2"/>
     <use xlink:href="#m760843c6f0" x="72.665702" y="101.67214" style="fill: #0000ff; stroke: #0000ff; stroke-width: 2"/>
     <use xlink:href="#m760843c6f0" x="93.417769" y="120.061986" style="fill: #0000ff; stroke: #0000ff; stroke-width: 2"/>
     <use xlink:href="#m760843c6f0" x="114.169835" y="145.203226" style="fill: #0000ff; stroke: #0000ff; stroke-width: 2"/>
     <use xlink:href="#m760843c6f0" x="134.921901" y="165.841446" style="fill: #0000ff; stroke: #0000ff; stroke-width: 2"/>
     <use xlink:href="#m760843c6f0" x="155.673967" y="190.744182" style="fill: #0000ff; stroke: #0000ff; stroke-width: 2"/>
     <use xlink:href="#m760843c6f0" x="176.426033" y="209.306187" style="fill: #0000ff; stroke: #0000ff; stroke-width: 2"/>
     <use xlink:href="#m760843c6f0" x="197.178099" y="225.123068" style="fill: #0000ff; stroke: #0000ff; stroke-width: 2"/>
     <use xlink:href="#m760843c6f0" x="217.930165" y="240.014724" style="fill: #0000ff; stroke: #0000ff; stroke-width: 2"/>
     <use xlink:href="#m760843c6f0" x="238.682231" y="250.452345" style="fill: #0000ff; stroke: #0000ff; stroke-width: 2"/>
     <use xlink:href="#m760843c6f0" x="259.434298" y="259.653127" style="fill: #0000ff; stroke: #0000ff; stroke-width: 2"/>
     <use xlink:href="#m760843c6f0" x="280.186364" y="266.749974" style="fill: #0000ff; stroke: #0000ff; stroke-width: 2"/>
    </g>
   </g>
   <g id="line2d_19">
    <path d="M 51.913636 52.384297 
L 72.665702 68.569104 
L 93.417769 98.783523 
L 114.169835 127.547362 
L 134.921901 154.123359 
L 155.673967 186.907723 
L 176.426033 213.359975 
L 197.178099 233.414484 
L 217.930165 248.997651 
L 238.682231 261.197834 
L 259.434298 270.262052 
L 280.186364 276.85712 
" clip-path="url(#p648207dc43)" style="fill: none; stroke: #bf00bf; stroke-width: 1.5; stroke-linecap: square"/>
   </g>
   <g id="LineCollection_4">
    <path d="M 51.913636 54.548594 
L 51.913636 50.22 
" clip-path="url(#p648207dc43)" style="fill: none; stroke: #bf00bf; stroke-width: 2"/>
    <path d="M 72.665702 69.113329 
L 72.665702 68.02488 
" clip-path="url(#p648207dc43)" style="fill: none; stroke: #bf00bf; stroke-width: 2"/>
    <path d="M 93.417769 100.214406 
L 93.417769 97.35264 
" clip-path="url(#p648207dc43)" style="fill: none; stroke: #bf00bf; stroke-width: 2"/>
    <path d="M 114.169835 129.142367 
L 114.169835 125.952357 
" clip-path="url(#p648207dc43)" style="fill: none; stroke: #bf00bf; stroke-width: 2"/>
    <path d="M 134.921901 154.612338 
L 134.921901 153.63438 
" clip-path="url(#p648207dc43)" style="fill: none; stroke: #bf00bf; stroke-width: 2"/>
    <path d="M 155.673967 187.796363 
L 155.673967 186.019084 
" clip-path="url(#p648207dc43)" style="fill: none; stroke: #bf00bf; stroke-width: 2"/>
    <path d="M 176.426033 213.888801 
L 176.426033 212.831149 
" clip-path="url(#p648207dc43)" style="fill: none; stroke: #bf00bf; stroke-width: 2"/>
    <path d="M 197.178099 233.707921 
L 197.178099 233.121047 
" clip-path="url(#p648207dc43)" style="fill: none; stroke: #bf00bf; stroke-width: 2"/>
    <path d="M 217.930165 249.155249 
L 217.930165 248.840053 
" clip-path="url(#p648207dc43)" style="fill: none; stroke: #bf00bf; stroke-width: 2"/>
    <path d="M 238.682231 261.291318 
L 238.682231 261.104351 
" clip-path="url(#p648207dc43)" style="fill: none; stroke: #bf00bf; stroke-width: 2"/>
    <path d="M 259.434298 270.531354 
L 259.434298 269.992749 
" clip-path="url(#p648207dc43)" style="fill: none; stroke: #bf00bf; stroke-width: 2"/>
    <path d="M 280.186364 277.02 
L 280.186364 276.694239 
" clip-path="url(#p648207dc43)" style="fill: none; stroke: #bf00bf; stroke-width: 2"/>
   </g>
   <g id="line2d_20">
    <defs>
     <path id="m129ab57162" d="M 3 0 
L -3 -0 
" style="stroke: #bf00bf; stroke-width: 2"/>
    </defs>
    <g clip-path="url(#p648207dc43)">
     <use xlink:href="#m129ab57162" x="51.913636" y="54.548594" style="fill: #bf00bf; stroke: #bf00bf; stroke-width: 2"/>
     <use xlink:href="#m129ab57162" x="72.665702" y="69.113329" style="fill: #bf00bf; stroke: #bf00bf; stroke-width: 2"/>
     <use xlink:href="#m129ab57162" x="93.417769" y="100.214406" style="fill: #bf00bf; stroke: #bf00bf; stroke-width: 2"/>
     <use xlink:href="#m129ab57162" x="114.169835" y="129.142367" style="fill: #bf00bf; stroke: #bf00bf; stroke-width: 2"/>
     <use xlink:href="#m129ab57162" x="134.921901" y="154.612338" style="fill: #bf00bf; stroke: #bf00bf; stroke-width: 2"/>
     <use xlink:href="#m129ab57162" x="155.673967" y="187.796363" style="fill: #bf00bf; stroke: #bf00bf; stroke-width: 2"/>
     <use xlink:href="#m129ab57162" x="176.426033" y="213.888801" style="fill: #bf00bf; stroke: #bf00bf; stroke-width: 2"/>
     <use xlink:href="#m129ab57162" x="197.178099" y="233.707921" style="fill: #bf00bf; stroke: #bf00bf; stroke-width: 2"/>
     <use xlink:href="#m129ab57162" x="217.930165" y="249.155249" style="fill: #bf00bf; stroke: #bf00bf; stroke-width: 2"/>
     <use xlink:href="#m129ab57162" x="238.682231" y="261.291318" style="fill: #bf00bf; stroke: #bf00bf; stroke-width: 2"/>
     <use xlink:href="#m129ab57162" x="259.434298" y="270.531354" style="fill: #bf00bf; stroke: #bf00bf; stroke-width: 2"/>
     <use xlink:href="#m129ab57162" x="280.186364" y="277.02" style="fill: #bf00bf; stroke: #bf00bf; stroke-width: 2"/>
    </g>
   </g>
   <g id="line2d_21">
    <g clip-path="url(#p648207dc43)">
     <use xlink:href="#m129ab57162" x="51.913636" y="50.22" style="fill: #bf00bf; stroke: #bf00bf; stroke-width: 2"/>
     <use xlink:href="#m129ab57162" x="72.665702" y="68.02488" style="fill: #bf00bf; stroke: #bf00bf; stroke-width: 2"/>
     <use xlink:href="#m129ab57162" x="93.417769" y="97.35264" style="fill: #bf00bf; stroke: #bf00bf; stroke-width: 2"/>
     <use xlink:href="#m129ab57162" x="114.169835" y="125.952357" style="fill: #bf00bf; stroke: #bf00bf; stroke-width: 2"/>
     <use xlink:href="#m129ab57162" x="134.921901" y="153.63438" style="fill: #bf00bf; stroke: #bf00bf; stroke-width: 2"/>
     <use xlink:href="#m129ab57162" x="155.673967" y="186.019084" style="fill: #bf00bf; stroke: #bf00bf; stroke-width: 2"/>
     <use xlink:href="#m129ab57162" x="176.426033" y="212.831149" style="fill: #bf00bf; stroke: #bf00bf; stroke-width: 2"/>
     <use xlink:href="#m129ab57162" x="197.178099" y="233.121047" style="fill: #bf00bf; stroke: #bf00bf; stroke-width: 2"/>
     <use xlink:href="#m129ab57162" x="217.930165" y="248.840053" style="fill: #bf00bf; stroke: #bf00bf; stroke-width: 2"/>
     <use xlink:href="#m129ab57162" x="238.682231" y="261.104351" style="fill: #bf00bf; stroke: #bf00bf; stroke-width: 2"/>
     <use xlink:href="#m129ab57162" x="259.434298" y="269.992749" style="fill: #bf00bf; stroke: #bf00bf; stroke-width: 2"/>
     <use xlink:href="#m129ab57162" x="280.186364" y="276.694239" style="fill: #bf00bf; stroke: #bf00bf; stroke-width: 2"/>
    </g>
   </g>
   <g id="line2d_22">
    <path d="M 51.913636 136.081467 
L 72.665702 146.112476 
L 93.417769 157.225353 
L 114.169835 170.226519 
L 134.921901 182.756937 
L 155.673967 195.056112 
L 176.426033 205.879055 
L 197.178099 216.737445 
L 217.930165 225.246872 
L 238.682231 232.663422 
L 259.434298 240.067401 
L 280.186364 245.814974 
" clip-path="url(#p648207dc43)" style="fill: none; stroke: #ff0000; stroke-width: 1.5; stroke-linecap: square"/>
   </g>
   <g id="line2d_23">
    <path d="M 51.913636 106.563676 
L 72.665702 121.601321 
L 93.417769 140.367445 
L 114.169835 158.33624 
L 134.921901 176.955375 
L 155.673967 192.624862 
L 176.426033 207.075234 
L 197.178099 220.876747 
L 217.930165 232.12572 
L 238.682231 241.277244 
L 259.434298 248.750982 
L 280.186364 255.541539 
" clip-path="url(#p648207dc43)" style="fill: none; stroke: #000000; stroke-width: 1.5; stroke-linecap: square"/>
   </g>
   <g id="line2d_24">
    <path d="M 51.913636 79.803661 
L 72.665702 102.151504 
L 93.417769 120.899962 
L 114.169835 145.732769 
L 134.921901 166.853117 
L 155.673967 191.349752 
L 176.426033 209.561439 
L 197.178099 225.333015 
L 217.930165 240.295877 
L 238.682231 250.654034 
L 259.434298 259.840308 
L 280.186364 267.017892 
" clip-path="url(#p648207dc43)" style="fill: none; stroke: #0000ff; stroke-width: 1.5; stroke-linecap: square"/>
   </g>
   <g id="line2d_25">
    <path d="M 51.913636 52.384297 
L 72.665702 68.569104 
L 93.417769 98.783523 
L 114.169835 127.547362 
L 134.921901 154.123359 
L 155.673967 186.907723 
L 176.426033 213.359975 
L 197.178099 233.414484 
L 217.930165 248.997651 
L 238.682231 261.197834 
L 259.434298 270.262052 
L 280.186364 276.85712 
" clip-path="url(#p648207dc43)" style="fill: none; stroke: #bf00bf; stroke-width: 1.5; stroke-linecap: square"/>
   </g>
   <g id="patch_3">
    <path d="M 40.5 288.36 
L 40.5 38.88 
" style="fill: none; stroke: #000000; stroke-width: 1.6; stroke-linejoin: miter; stroke-linecap: square"/>
   </g>
   <g id="patch_4">
    <path d="M 291.6 288.36 
L 291.6 38.88 
" style="fill: none; stroke: #000000; stroke-width: 1.6; stroke-linejoin: miter; stroke-linecap: square"/>
   </g>
   <g id="patch_5">
    <path d="M 40.5 288.36 
L 291.6 288.36 
" style="fill: none; stroke: #000000; stroke-width: 1.6; stroke-linejoin: miter; stroke-linecap: square"/>
   </g>
   <g id="patch_6">
    <path d="M 40.5 38.88 
L 291.6 38.88 
" style="fill: none; stroke: #000000; stroke-width: 1.6; stroke-linejoin: miter; stroke-linecap: square"/>
   </g>
   <g id="legend_1">
    <g id="patch_7">
     <path d="M 209.120625 118.935 
L 283.2 118.935 
Q 285.6 118.935 285.6 116.535 
L 285.6 47.28 
Q 285.6 44.88 283.2 44.88 
L 209.120625 44.88 
Q 206.720625 44.88 206.720625 47.28 
L 206.720625 116.535 
Q 206.720625 118.935 209.120625 118.935 
z
" style="fill: #ffffff; opacity: 0.8"/>
    </g>
    <g id="LineCollection_5">
     <path d="M 223.520625 60.598125 
L 223.520625 48.598125 
" style="fill: none; stroke: #ff0000; stroke-width: 2"/>
    </g>
    <g id="line2d_26">
     <g>
      <use xlink:href="#m6a792bf0d6" x="223.520625" y="60.598125" style="fill: #ff0000; stroke: #ff0000; stroke-width: 2"/>
     </g>
    </g>
    <g id="line2d_27">
     <g>
      <use xlink:href="#m6a792bf0d6" x="223.520625" y="48.598125" style="fill: #ff0000; stroke: #ff0000; stroke-width: 2"/>
     </g>
    </g>
    <g id="line2d_28">
     <path d="M 211.520625 54.598125 
L 235.520625 54.598125 
" style="fill: none; stroke: #ff0000; stroke-width: 1.5; stroke-linecap: square"/>
    </g>
    <g id="line2d_29"/>
    <g id="text_10">
     <!-- M=4 -->
     <g transform="translate(245.120625 58.798125) scale(0.12 -0.12)">
      <defs>
       <path id="DejaVuSans-4d" d="M 628 4666 
L 1569 4666 
L 2759 1491 
L 3956 4666 
L 4897 4666 
L 4897 0 
L 4281 0 
L 4281 4097 
L 3078 897 
L 2444 897 
L 1241 4097 
L 1241 0 
L 628 0 
L 628 4666 
z
" transform="scale(0.015625)"/>
       <path id="DejaVuSans-3d" d="M 678 2906 
L 4684 2906 
L 4684 2381 
L 678 2381 
L 678 2906 
z
M 678 1631 
L 4684 1631 
L 4684 1100 
L 678 1100 
L 678 1631 
z
" transform="scale(0.015625)"/>
      </defs>
      <use xlink:href="#DejaVuSans-4d"/>
      <use xlink:href="#DejaVuSans-3d" x="86.279297"/>
      <use xlink:href="#DejaVuSans-34" x="170.068359"/>
     </g>
    </g>
    <g id="LineCollection_6">
     <path d="M 223.520625 78.211875 
L 223.520625 66.211875 
" style="fill: none; stroke: #000000; stroke-width: 2"/>
    </g>
    <g id="line2d_30">
     <g>
      <use xlink:href="#m636b713d5d" x="223.520625" y="78.211875" style="stroke: #000000; stroke-width: 2"/>
     </g>
    </g>
    <g id="line2d_31">
     <g>
      <use xlink:href="#m636b713d5d" x="223.520625" y="66.211875" style="stroke: #000000; stroke-width: 2"/>
     </g>
    </g>
    <g id="line2d_32">
     <path d="M 211.520625 72.211875 
L 235.520625 72.211875 
" style="fill: none; stroke: #000000; stroke-width: 1.5; stroke-linecap: square"/>
    </g>
    <g id="line2d_33"/>
    <g id="text_11">
     <!-- M=8 -->
     <g transform="translate(245.120625 76.411875) scale(0.12 -0.12)">
      <defs>
       <path id="DejaVuSans-38" d="M 2034 2216 
Q 1584 2216 1326 1975 
Q 1069 1734 1069 1313 
Q 1069 891 1326 650 
Q 1584 409 2034 409 
Q 2484 409 2743 651 
Q 3003 894 3003 1313 
Q 3003 1734 2745 1975 
Q 2488 2216 2034 2216 
z
M 1403 2484 
Q 997 2584 770 2862 
Q 544 3141 544 3541 
Q 544 4100 942 4425 
Q 1341 4750 2034 4750 
Q 2731 4750 3128 4425 
Q 3525 4100 3525 3541 
Q 3525 3141 3298 2862 
Q 3072 2584 2669 2484 
Q 3125 2378 3379 2068 
Q 3634 1759 3634 1313 
Q 3634 634 3220 271 
Q 2806 -91 2034 -91 
Q 1263 -91 848 271 
Q 434 634 434 1313 
Q 434 1759 690 2068 
Q 947 2378 1403 2484 
z
M 1172 3481 
Q 1172 3119 1398 2916 
Q 1625 2713 2034 2713 
Q 2441 2713 2670 2916 
Q 2900 3119 2900 3481 
Q 2900 3844 2670 4047 
Q 2441 4250 2034 4250 
Q 1625 4250 1398 4047 
Q 1172 3844 1172 3481 
z
" transform="scale(0.015625)"/>
      </defs>
      <use xlink:href="#DejaVuSans-4d"/>
      <use xlink:href="#DejaVuSans-3d" x="86.279297"/>
      <use xlink:href="#DejaVuSans-38" x="170.068359"/>
     </g>
    </g>
    <g id="LineCollection_7">
     <path d="M 223.520625 95.825625 
L 223.520625 83.825625 
" style="fill: none; stroke: #0000ff; stroke-width: 2"/>
    </g>
    <g id="line2d_34">
     <g>
      <use xlink:href="#m760843c6f0" x="223.520625" y="95.825625" style="fill: #0000ff; stroke: #0000ff; stroke-width: 2"/>
     </g>
    </g>
    <g id="line2d_35">
     <g>
      <use xlink:href="#m760843c6f0" x="223.520625" y="83.825625" style="fill: #0000ff; stroke: #0000ff; stroke-width: 2"/>
     </g>
    </g>
    <g id="line2d_36">
     <path d="M 211.520625 89.825625 
L 235.520625 89.825625 
" style="fill: none; stroke: #0000ff; stroke-width: 1.5; stroke-linecap: square"/>
    </g>
    <g id="line2d_37"/>
    <g id="text_12">
     <!-- M=16 -->
     <g transform="translate(245.120625 94.025625) scale(0.12 -0.12)">
      <defs>
       <path id="DejaVuSans-36" d="M 2113 2584 
Q 1688 2584 1439 2293 
Q 1191 2003 1191 1497 
Q 1191 994 1439 701 
Q 1688 409 2113 409 
Q 2538 409 2786 701 
Q 3034 994 3034 1497 
Q 3034 2003 2786 2293 
Q 2538 2584 2113 2584 
z
M 3366 4563 
L 3366 3988 
Q 3128 4100 2886 4159 
Q 2644 4219 2406 4219 
Q 1781 4219 1451 3797 
Q 1122 3375 1075 2522 
Q 1259 2794 1537 2939 
Q 1816 3084 2150 3084 
Q 2853 3084 3261 2657 
Q 3669 2231 3669 1497 
Q 3669 778 3244 343 
Q 2819 -91 2113 -91 
Q 1303 -91 875 529 
Q 447 1150 447 2328 
Q 447 3434 972 4092 
Q 1497 4750 2381 4750 
Q 2619 4750 2861 4703 
Q 3103 4656 3366 4563 
z
" transform="scale(0.015625)"/>
      </defs>
      <use xlink:href="#DejaVuSans-4d"/>
      <use xlink:href="#DejaVuSans-3d" x="86.279297"/>
      <use xlink:href="#DejaVuSans-31" x="170.068359"/>
      <use xlink:href="#DejaVuSans-36" x="233.691406"/>
     </g>
    </g>
    <g id="LineCollection_8">
     <path d="M 223.520625 113.439375 
L 223.520625 101.439375 
" style="fill: none; stroke: #bf00bf; stroke-width: 2"/>
    </g>
    <g id="line2d_38">
     <g>
      <use xlink:href="#m129ab57162" x="223.520625" y="113.439375" style="fill: #bf00bf; stroke: #bf00bf; stroke-width: 2"/>
     </g>
    </g>
    <g id="line2d_39">
     <g>
      <use xlink:href="#m129ab57162" x="223.520625" y="101.439375" style="fill: #bf00bf; stroke: #bf00bf; stroke-width: 2"/>
     </g>
    </g>
    <g id="line2d_40">
     <path d="M 211.520625 107.439375 
L 235.520625 107.439375 
" style="fill: none; stroke: #bf00bf; stroke-width: 1.5; stroke-linecap: square"/>
    </g>
    <g id="line2d_41"/>
    <g id="text_13">
     <!-- M=32 -->
     <g transform="translate(245.120625 111.639375) scale(0.12 -0.12)">
      <use xlink:href="#DejaVuSans-4d"/>
      <use xlink:href="#DejaVuSans-3d" x="86.279297"/>
      <use xlink:href="#DejaVuSans-33" x="170.068359"/>
      <use xlink:href="#DejaVuSans-32" x="233.691406"/>
     </g>
    </g>
   </g>
  </g>
 </g>
 <defs>
  <clipPath id="p648207dc43">
   <rect x="40.5" y="38.88" width="251.1" height="249.48"/>
  </clipPath>
 </defs>
</svg>
