<?xml version="1.0" encoding="utf-8" standalone="no"?>
<!DOCTYPE svg PUBLIC "-//W3C//DTD SVG 1.1//EN"
  "http://www.w3.org/Graphics/SVG/1.1/DTD/svg11.dtd">
<svg xmlns:xlink="http://www.w3.org/1999/xlink" width="324pt" height="324pt" viewBox="0 0 324 324" xmlns="http://www.w3.org/2000/svg" version="1.1">
 <metadata>
  <rdf:RDF xmlns:dc="http://purl.org/dc/elements/1.1/" xmlns:cc="http://creativecommons.org/ns#" xmlns:rdf="http://www.w3.org/1999/02/22-rdf-syntax-ns#">
   <cc:Work>
    <dc:type rdf:resource="http://purl.org/dc/dcmitype/StillImage"/>
    <dc:date>2026-01-11T16:55:16.972126</dc:date>
    <dc:format>image/svg+xml</dc:format>
    <dc:creator>
     <cc:Agent>
      <dc:title>Matplotlib v3.8.0, https://matplotlib.org/</dc:title>
     </cc:Agent>
    </dc:creator>
   </cc:Work>
  </rdf:RDF>
 </metadata>
 <defs>
  <style type="text/css">*{stroke-linejoin: round; stroke-linecap: butt}</style>
 </defs>
 <g id="figure_1">
  <g id="patch_1">
   <path d="M 0 324 
L 324 324 
L 324 0 
L 0 0 
z
" style="fill: #ffffff"/>
  </g>
  <g id="axes_1">
   <g id="patch_2">
    <path d="M 40.5 288.36 
L 291.6 288.36 
L 291.6 38.88 
L 40.5 38.88 
z
" style="fill: #ffffff"/>
   </g>
   <g id="matplotlib.axis_1">
    <g id="xtick_1">
     <g id="line2d_1">
      <defs>
       <path id="m55db51337a" d="M 0 0 
L 0 8 
" style="stroke: #000000; stroke-width: 1.5"/>
      </defs>
      <g>
       <use xlink:href="#m55db51337a" x="51.913636" y="288.36" style="stroke: #000000; stroke-width: 1.5"/>
      </g>
     </g>
     <g id="text_1">
      <!-- 2.0 -->
      <g transform="translate(42.371761 308.978125) scale(0.12 -0.12)">
       <defs>
        <path id="DejaVuSans-32" d="M 1228 531 
L 3431 531 
L 3431 0 
L 469 0 
L 469 531 
Q 828 903 1448 1529 
Q 2069 2156 2228 2338 
Q 2531 2678 2651 2914 
Q 2772 3150 2772 3378 
Q 2772 3750 2511 3984 
Q 2250 4219 1831 4219 
Q 1534 4219 1204 4116 
Q 875 4013 500 3803 
L 500 4441 
Q 881 4594 1212 4672 
Q 1544 4750 1819 4750 
Q 2544 4750 2975 4387 
Q 3406 4025 3406 3419 
Q 3406 3131 3298 2873 
Q 3191 2616 2906 2266 
Q 2828 2175 2409 1742 
Q 1991 1309 1228 531 
z
" transform="scale(0.015625)"/>
        <path id="DejaVuSans-2e" d="M 684 794 
L 1344 794 
L 1344 0 
L 684 0 
L 684 794 
z
" transform="scale(0.015625)"/>
        <path id="DejaVuSans-30" d="M 2034 4250 
Q 1547 4250 1301 3770 
Q 1056 3291 1056 2328 
Q 1056 1369 1301 889 
Q 1547 409 2034 409 
Q 2525 409 2770 889 
Q 3016 1369 3016 2328 
Q 3016 3291 2770 3770 
Q 2525 4250 2034 4250 
z
M 2034 4750 
Q 2819 4750 3233 4129 
Q 3647 3509 3647 2328 
Q 3647 1150 3233 529 
Q 2819 -91 2034 -91 
Q 1250 -91 836 529 
Q 422 1150 422 2328 
Q 422 3509 836 4129 
Q 1250 4750 2034 4750 
z
" transform="scale(0.015625)"/>
       </defs>
       <use xlink:href="#DejaVuSans-32"/>
       <use xlink:href="#DejaVuSans-2e" x="63.623047"/>
       <use xlink:href="#DejaVuSans-30" x="95.410156"/>
      </g>
     </g>
    </g>
    <g id="xtick_2">
     <g id="line2d_2">
      <g>
       <use xlink:href="#m55db51337a" x="103.793802" y="288.36" style="stroke: #000000; stroke-width: 1.5"/>
      </g>
     </g>
     <g id="text_2">
      <!-- 2.5 -->
      <g transform="translate(94.251927 308.978125) scale(0.12 -0.12)">
       <defs>
        <path id="DejaVuSans-35" d="M 691 4666 
L 3169 4666 
L 3169 4134 
L 1269 4134 
L 1269 2991 
Q 1406 3038 1543 3061 
Q 1681 3084 1819 3084 
Q 2600 3084 3056 2656 
Q 3513 2228 3513 1497 
Q 3513 744 3044 326 
Q 2575 -91 1722 -91 
Q 1428 -91 1123 -41 
Q 819 9 494 109 
L 494 744 
Q 775 591 1075 516 
Q 1375 441 1709 441 
Q 2250 441 2565 725 
Q 2881 1009 2881 1497 
Q 2881 1984 2565 2268 
Q 2250 2553 1709 2553 
Q 1456 2553 1204 2497 
Q 953 2441 691 2322 
L 691 4666 
z
" transform="scale(0.015625)"/>
       </defs>
       <use xlink:href="#DejaVuSans-32"/>
       <use xlink:href="#DejaVuSans-2e" x="63.623047"/>
       <use xlink:href="#DejaVuSans-35" x="95.410156"/>
      </g>
     </g>
    </g>
    <g id="xtick_3">
     <g id="line2d_3">
      <g>
       <use xlink:href="#m55db51337a" x="155.673967" y="288.36" style="stroke: #000000; stroke-width: 1.5"/>
      </g>
     </g>
     <g id="text_3">
      <!-- 3.0 -->
      <g transform="translate(146.132092 308.978125) scale(0.12 -0.12)">
       <defs>
        <path id="DejaVuSans-33" d="M 2597 2516 
Q 3050 2419 3304 2112 
Q 3559 1806 3559 1356 
Q 3559 666 3084 287 
Q 2609 -91 1734 -91 
Q 1441 -91 1130 -33 
Q 819 25 488 141 
L 488 750 
Q 750 597 1062 519 
Q 1375 441 1716 441 
Q 2309 441 2620 675 
Q 2931 909 2931 1356 
Q 2931 1769 2642 2001 
Q 2353 2234 1838 2234 
L 1294 2234 
L 1294 2753 
L 1863 2753 
Q 2328 2753 2575 2939 
Q 2822 3125 2822 3475 
Q 2822 3834 2567 4026 
Q 2313 4219 1838 4219 
Q 1578 4219 1281 4162 
Q 984 4106 628 3988 
L 628 4550 
Q 988 4650 1302 4700 
Q 1616 4750 1894 4750 
Q 2613 4750 3031 4423 
Q 3450 4097 3450 3541 
Q 3450 3153 3228 2886 
Q 3006 2619 2597 2516 
z
" transform="scale(0.015625)"/>
       </defs>
       <use xlink:href="#DejaVuSans-33"/>
       <use xlink:href="#DejaVuSans-2e" x="63.623047"/>
       <use xlink:href="#DejaVuSans-30" x="95.410156"/>
      </g>
     </g>
    </g>
    <g id="xtick_4">
     <g id="line2d_4">
      <g>
       <use xlink:href="#m55db51337a" x="207.554132" y="288.36" style="stroke: #000000; stroke-width: 1.5"/>
      </g>
     </g>
     <g id="text_4">
      <!-- 3.5 -->
      <g transform="translate(198.012257 308.978125) scale(0.12 -0.12)">
       <use xlink:href="#DejaVuSans-33"/>
       <use xlink:href="#DejaVuSans-2e" x="63.623047"/>
       <use xlink:href="#DejaVuSans-35" x="95.410156"/>
      </g>
     </g>
    </g>
    <g id="xtick_5">
     <g id="line2d_5">
      <g>
       <use xlink:href="#m55db51337a" x="259.434298" y="288.36" style="stroke: #000000; stroke-width: 1.5"/>
      </g>
     </g>
     <g id="text_5">
      <!-- 4.0 -->
      <g transform="translate(249.892423 308.978125) scale(0.12 -0.12)">
       <defs>
        <path id="DejaVuSans-34" d="M 2419 4116 
L 825 1625 
L 2419 1625 
L 2419 4116 
z
M 2253 4666 
L 3047 4666 
L 3047 1625 
L 3713 1625 
L 3713 1100 
L 3047 1100 
L 3047 0 
L 2419 0 
L 2419 1100 
L 313 1100 
L 313 1709 
L 2253 4666 
z
" transform="scale(0.015625)"/>
       </defs>
       <use xlink:href="#DejaVuSans-34"/>
       <use xlink:href="#DejaVuSans-2e" x="63.623047"/>
       <use xlink:href="#DejaVuSans-30" x="95.410156"/>
      </g>
     </g>
    </g>
   </g>
   <g id="matplotlib.axis_2">
    <g id="ytick_1">
     <g id="line2d_6">
      <defs>
       <path id="m21ae9b4e3e" d="M 0 0 
L -8 0 
" style="stroke: #000000; stroke-width: 1.5"/>
      </defs>
      <g>
       <use xlink:href="#m21ae9b4e3e" x="40.5" y="244.190841" style="stroke: #000000; stroke-width: 1.5"/>
      </g>
     </g>
     <g id="text_6">
      <!-- 1 -->
      <g transform="translate(21.365 248.749903) scale(0.12 -0.12)">
       <defs>
        <path id="DejaVuSans-31" d="M 794 531 
L 1825 531 
L 1825 4091 
L 703 3866 
L 703 4441 
L 1819 4666 
L 2450 4666 
L 2450 531 
L 3481 531 
L 3481 0 
L 794 0 
L 794 531 
z
" transform="scale(0.015625)"/>
       </defs>
       <use xlink:href="#DejaVuSans-31"/>
      </g>
     </g>
    </g>
    <g id="ytick_2">
     <g id="line2d_7">
      <g>
       <use xlink:href="#m21ae9b4e3e" x="40.5" y="184.67467" style="stroke: #000000; stroke-width: 1.5"/>
      </g>
     </g>
     <g id="text_7">
      <!-- 2 -->
      <g transform="translate(21.365 189.233732) scale(0.12 -0.12)">
       <use xlink:href="#DejaVuSans-32"/>
      </g>
     </g>
    </g>
    <g id="ytick_3">
     <g id="line2d_8">
      <g>
       <use xlink:href="#m21ae9b4e3e" x="40.5" y="125.158499" style="stroke: #000000; stroke-width: 1.5"/>
      </g>
     </g>
     <g id="text_8">
      <!-- 3 -->
      <g transform="translate(21.365 129.717561) scale(0.12 -0.12)">
       <use xlink:href="#DejaVuSans-33"/>
      </g>
     </g>
    </g>
    <g id="ytick_4">
     <g id="line2d_9">
      <g>
       <use xlink:href="#m21ae9b4e3e" x="40.5" y="65.642328" style="stroke: #000000; stroke-width: 1.5"/>
      </g>
     </g>
     <g id="text_9">
      <!-- 4 -->
      <g transform="translate(21.365 70.20139) scale(0.12 -0.12)">
       <use xlink:href="#DejaVuSans-34"/>
      </g>
     </g>
    </g>
   </g>
   <g id="line2d_10">
    <path d="M 51.913636 122.069977 
L 72.665702 138.123326 
L 93.417769 154.755177 
L 114.169835 169.680277 
L 134.921901 184.04492 
L 155.673967 195.826268 
L 176.426033 206.566737 
L 197.178099 216.281796 
L 217.930165 224.777408 
L 238.682231 232.137176 
L 259.434298 238.526885 
L 280.186364 243.901509 
" clip-path="url(#p4c2a387124)" style="fill: none; stroke: #ff0000; stroke-width: 1.5; stroke-linecap: square"/>
   </g>
   <g id="LineCollection_1">
    <path d="M 51.913636 122.767017 
L 51.913636 121.372936 
" clip-path="url(#p4c2a387124)" style="fill: none; stroke: #ff0000; stroke-width: 2"/>
    <path d="M 72.665702 138.331899 
L 72.665702 137.914753 
" clip-path="url(#p4c2a387124)" style="fill: none; stroke: #ff0000; stroke-width: 2"/>
    <path d="M 93.417769 155.426553 
L 93.417769 154.083801 
" clip-path="url(#p4c2a387124)" style="fill: none; stroke: #ff0000; stroke-width: 2"/>
    <path d="M 114.169835 169.99607 
L 114.169835 169.364484 
" clip-path="url(#p4c2a387124)" style="fill: none; stroke: #ff0000; stroke-width: 2"/>
    <path d="M 134.921901 184.355462 
L 134.921901 183.734378 
" clip-path="url(#p4c2a387124)" style="fill: none; stroke: #ff0000; stroke-width: 2"/>
    <path d="M 155.673967 196.132552 
L 155.673967 195.519985 
" clip-path="url(#p4c2a387124)" style="fill: none; stroke: #ff0000; stroke-width: 2"/>
    <path d="M 176.426033 206.732904 
L 176.426033 206.40057 
" clip-path="url(#p4c2a387124)" style="fill: none; stroke: #ff0000; stroke-width: 2"/>
    <path d="M 197.178099 216.549952 
L 197.178099 216.013639 
" clip-path="url(#p4c2a387124)" style="fill: none; stroke: #ff0000; stroke-width: 2"/>
    <path d="M 217.930165 224.899019 
L 217.930165 224.655796 
" clip-path="url(#p4c2a387124)" style="fill: none; stroke: #ff0000; stroke-width: 2"/>
    <path d="M 238.682231 232.305261 
L 238.682231 231.969091 
" clip-path="url(#p4c2a387124)" style="fill: none; stroke: #ff0000; stroke-width: 2"/>
    <path d="M 259.434298 238.604857 
L 259.434298 238.448913 
" clip-path="url(#p4c2a387124)" style="fill: none; stroke: #ff0000; stroke-width: 2"/>
    <path d="M 280.186364 244.052133 
L 280.186364 243.750885 
" clip-path="url(#p4c2a387124)" style="fill: none; stroke: #ff0000; stroke-width: 2"/>
   </g>
   <g id="line2d_11">
    <defs>
     <path id="m1d1332d42b" d="M 3 0 
L -3 -0 
" style="stroke: #ff0000; stroke-width: 2"/>
    </defs>
    <g clip-path="url(#p4c2a387124)">
     <use xlink:href="#m1d1332d42b" x="51.913636" y="122.767017" style="fill: #ff0000; stroke: #ff0000; stroke-width: 2"/>
     <use xlink:href="#m1d1332d42b" x="72.665702" y="138.331899" style="fill: #ff0000; stroke: #ff0000; stroke-width: 2"/>
     <use xlink:href="#m1d1332d42b" x="93.417769" y="155.426553" style="fill: #ff0000; stroke: #ff0000; stroke-width: 2"/>
     <use xlink:href="#m1d1332d42b" x="114.169835" y="169.99607" style="fill: #ff0000; stroke: #ff0000; stroke-width: 2"/>
     <use xlink:href="#m1d1332d42b" x="134.921901" y="184.355462" style="fill: #ff0000; stroke: #ff0000; stroke-width: 2"/>
     <use xlink:href="#m1d1332d42b" x="155.673967" y="196.132552" style="fill: #ff0000; stroke: #ff0000; stroke-width: 2"/>
     <use xlink:href="#m1d1332d42b" x="176.426033" y="206.732904" style="fill: #ff0000; stroke: #ff0000; stroke-width: 2"/>
     <use xlink:href="#m1d1332d42b" x="197.178099" y="216.549952" style="fill: #ff0000; stroke: #ff0000; stroke-width: 2"/>
     <use xlink:href="#m1d1332d42b" x="217.930165" y="224.899019" style="fill: #ff0000; stroke: #ff0000; stroke-width: 2"/>
     <use xlink:href="#m1d1332d42b" x="238.682231" y="232.305261" style="fill: #ff0000; stroke: #ff0000; stroke-width: 2"/>
     <use xlink:href="#m1d1332d42b" x="259.434298" y="238.604857" style="fill: #ff0000; stroke: #ff0000; stroke-width: 2"/>
     <use xlink:href="#m1d1332d42b" x="280.186364" y="244.052133" style="fill: #ff0000; stroke: #ff0000; stroke-width: 2"/>
    </g>
   </g>
   <g id="line2d_12">
    <g clip-path="url(#p4c2a387124)">
     <use xlink:href="#m1d1332d42b" x="51.913636" y="121.372936" style="fill: #ff0000; stroke: #ff0000; stroke-width: 2"/>
     <use xlink:href="#m1d1332d42b" x="72.665702" y="137.914753" style="fill: #ff0000; stroke: #ff0000; stroke-width: 2"/>
     <use xlink:href="#m1d1332d42b" x="93.417769" y="154.083801" style="fill: #ff0000; stroke: #ff0000; stroke-width: 2"/>
     <use xlink:href="#m1d1332d42b" x="114.169835" y="169.364484" style="fill: #ff0000; stroke: #ff0000; stroke-width: 2"/>
     <use xlink:href="#m1d1332d42b" x="134.921901" y="183.734378" style="fill: #ff0000; stroke: #ff0000; stroke-width: 2"/>
     <use xlink:href="#m1d1332d42b" x="155.673967" y="195.519985" style="fill: #ff0000; stroke: #ff0000; stroke-width: 2"/>
     <use xlink:href="#m1d1332d42b" x="176.426033" y="206.40057" style="fill: #ff0000; stroke: #ff0000; stroke-width: 2"/>
     <use xlink:href="#m1d1332d42b" x="197.178099" y="216.013639" style="fill: #ff0000; stroke: #ff0000; stroke-width: 2"/>
     <use xlink:href="#m1d1332d42b" x="217.930165" y="224.655796" style="fill: #ff0000; stroke: #ff0000; stroke-width: 2"/>
     <use xlink:href="#m1d1332d42b" x="238.682231" y="231.969091" style="fill: #ff0000; stroke: #ff0000; stroke-width: 2"/>
     <use xlink:href="#m1d1332d42b" x="259.434298" y="238.448913" style="fill: #ff0000; stroke: #ff0000; stroke-width: 2"/>
     <use xlink:href="#m1d1332d42b" x="280.186364" y="243.750885" style="fill: #ff0000; stroke: #ff0000; stroke-width: 2"/>
    </g>
   </g>
   <g id="line2d_13">
    <path d="M 51.913636 97.958455 
L 72.665702 120.137294 
L 93.417769 141.198082 
L 114.169835 161.377257 
L 134.921901 180.357231 
L 155.673967 196.093747 
L 176.426033 210.363914 
L 197.178099 222.46153 
L 217.930165 232.587901 
L 238.682231 241.30548 
L 259.434298 248.567023 
L 280.186364 255.089116 
" clip-path="url(#p4c2a387124)" style="fill: none; stroke: #000000; stroke-width: 1.5; stroke-linecap: square"/>
   </g>
   <g id="LineCollection_2">
    <path d="M 51.913636 99.698477 
L 51.913636 96.218433 
" clip-path="url(#p4c2a387124)" style="fill: none; stroke: #000000; stroke-width: 2"/>
    <path d="M 72.665702 121.234053 
L 72.665702 119.040534 
" clip-path="url(#p4c2a387124)" style="fill: none; stroke: #000000; stroke-width: 2"/>
    <path d="M 93.417769 142.060354 
L 93.417769 140.33581 
" clip-path="url(#p4c2a387124)" style="fill: none; stroke: #000000; stroke-width: 2"/>
    <path d="M 114.169835 162.131335 
L 114.169835 160.623179 
" clip-path="url(#p4c2a387124)" style="fill: none; stroke: #000000; stroke-width: 2"/>
    <path d="M 134.921901 180.659041 
L 134.921901 180.055421 
" clip-path="url(#p4c2a387124)" style="fill: none; stroke: #000000; stroke-width: 2"/>
    <path d="M 155.673967 196.612513 
L 155.673967 195.574982 
" clip-path="url(#p4c2a387124)" style="fill: none; stroke: #000000; stroke-width: 2"/>
    <path d="M 176.426033 210.505691 
L 176.426033 210.222137 
" clip-path="url(#p4c2a387124)" style="fill: none; stroke: #000000; stroke-width: 2"/>
    <path d="M 197.178099 222.757985 
L 197.178099 222.165075 
" clip-path="url(#p4c2a387124)" style="fill: none; stroke: #000000; stroke-width: 2"/>
    <path d="M 217.930165 232.707216 
L 217.930165 232.468585 
" clip-path="url(#p4c2a387124)" style="fill: none; stroke: #000000; stroke-width: 2"/>
    <path d="M 238.682231 241.508357 
L 238.682231 241.102604 
" clip-path="url(#p4c2a387124)" style="fill: none; stroke: #000000; stroke-width: 2"/>
    <path d="M 259.434298 248.664213 
L 259.434298 248.469833 
" clip-path="url(#p4c2a387124)" style="fill: none; stroke: #000000; stroke-width: 2"/>
    <path d="M 280.186364 255.291422 
L 280.186364 254.88681 
" clip-path="url(#p4c2a387124)" style="fill: none; stroke: #000000; stroke-width: 2"/>
   </g>
   <g id="line2d_14">
    <defs>
     <path id="m6734ad77f0" d="M 3 0 
L -3 -0 
" style="stroke: #000000; stroke-width: 2"/>
    </defs>
    <g clip-path="url(#p4c2a387124)">
     <use xlink:href="#m6734ad77f0" x="51.913636" y="99.698477" style="stroke: #000000; stroke-width: 2"/>
     <use xlink:href="#m6734ad77f0" x="72.665702" y="121.234053" style="stroke: #000000; stroke-width: 2"/>
     <use xlink:href="#m6734ad77f0" x="93.417769" y="142.060354" style="stroke: #000000; stroke-width: 2"/>
     <use xlink:href="#m6734ad77f0" x="114.169835" y="162.131335" style="stroke: #000000; stroke-width: 2"/>
     <use xlink:href="#m6734ad77f0" x="134.921901" y="180.659041" style="stroke: #000000; stroke-width: 2"/>
     <use xlink:href="#m6734ad77f0" x="155.673967" y="196.612513" style="stroke: #000000; stroke-width: 2"/>
     <use xlink:href="#m6734ad77f0" x="176.426033" y="210.505691" style="stroke: #000000; stroke-width: 2"/>
     <use xlink:href="#m6734ad77f0" x="197.178099" y="222.757985" style="stroke: #000000; stroke-width: 2"/>
     <use xlink:href="#m6734ad77f0" x="217.930165" y="232.707216" style="stroke: #000000; stroke-width: 2"/>
     <use xlink:href="#m6734ad77f0" x="238.682231" y="241.508357" style="stroke: #000000; stroke-width: 2"/>
     <use xlink:href="#m6734ad77f0" x="259.434298" y="248.664213" style="stroke: #000000; stroke-width: 2"/>
     <use xlink:href="#m6734ad77f0" x="280.186364" y="255.291422" style="stroke: #000000; stroke-width: 2"/>
    </g>
   </g>
   <g id="line2d_15">
    <g clip-path="url(#p4c2a387124)">
     <use xlink:href="#m6734ad77f0" x="51.913636" y="96.218433" style="stroke: #000000; stroke-width: 2"/>
     <use xlink:href="#m6734ad77f0" x="72.665702" y="119.040534" style="stroke: #000000; stroke-width: 2"/>
     <use xlink:href="#m6734ad77f0" x="93.417769" y="140.33581" style="stroke: #000000; stroke-width: 2"/>
     <use xlink:href="#m6734ad77f0" x="114.169835" y="160.623179" style="stroke: #000000; stroke-width: 2"/>
     <use xlink:href="#m6734ad77f0" x="134.921901" y="180.055421" style="stroke: #000000; stroke-width: 2"/>
     <use xlink:href="#m6734ad77f0" x="155.673967" y="195.574982" style="stroke: #000000; stroke-width: 2"/>
     <use xlink:href="#m6734ad77f0" x="176.426033" y="210.222137" style="stroke: #000000; stroke-width: 2"/>
     <use xlink:href="#m6734ad77f0" x="197.178099" y="222.165075" style="stroke: #000000; stroke-width: 2"/>
     <use xlink:href="#m6734ad77f0" x="217.930165" y="232.468585" style="stroke: #000000; stroke-width: 2"/>
     <use xlink:href="#m6734ad77f0" x="238.682231" y="241.102604" style="stroke: #000000; stroke-width: 2"/>
     <use xlink:href="#m6734ad77f0" x="259.434298" y="248.469833" style="stroke: #000000; stroke-width: 2"/>
     <use xlink:href="#m6734ad77f0" x="280.186364" y="254.88681" style="stroke: #000000; stroke-width: 2"/>
    </g>
   </g>
   <g id="line2d_16">
    <path d="M 51.913636 70.7794 
L 72.665702 101.919878 
L 93.417769 124.12395 
L 114.169835 150.53279 
L 134.921901 173.274762 
L 155.673967 196.522956 
L 176.426033 214.058416 
L 197.178099 229.590064 
L 217.930165 242.024864 
L 238.682231 252.286977 
L 259.434298 259.619944 
L 280.186364 266.35028 
" clip-path="url(#p4c2a387124)" style="fill: none; stroke: #0000ff; stroke-width: 1.5; stroke-linecap: square"/>
   </g>
   <g id="LineCollection_3">
    <path d="M 51.913636 71.775825 
L 51.913636 69.782975 
" clip-path="url(#p4c2a387124)" style="fill: none; stroke: #0000ff; stroke-width: 2"/>
    <path d="M 72.665702 103.227235 
L 72.665702 100.61252 
" clip-path="url(#p4c2a387124)" style="fill: none; stroke: #0000ff; stroke-width: 2"/>
    <path d="M 93.417769 126.22871 
L 93.417769 122.01919 
" clip-path="url(#p4c2a387124)" style="fill: none; stroke: #0000ff; stroke-width: 2"/>
    <path d="M 114.169835 151.430694 
L 114.169835 149.634887 
" clip-path="url(#p4c2a387124)" style="fill: none; stroke: #0000ff; stroke-width: 2"/>
    <path d="M 134.921901 173.895499 
L 134.921901 172.654025 
" clip-path="url(#p4c2a387124)" style="fill: none; stroke: #0000ff; stroke-width: 2"/>
    <path d="M 155.673967 197.045832 
L 155.673967 196.00008 
" clip-path="url(#p4c2a387124)" style="fill: none; stroke: #0000ff; stroke-width: 2"/>
    <path d="M 176.426033 214.704762 
L 176.426033 213.41207 
" clip-path="url(#p4c2a387124)" style="fill: none; stroke: #0000ff; stroke-width: 2"/>
    <path d="M 197.178099 229.688987 
L 197.178099 229.491141 
" clip-path="url(#p4c2a387124)" style="fill: none; stroke: #0000ff; stroke-width: 2"/>
    <path d="M 217.930165 242.170702 
L 217.930165 241.879026 
" clip-path="url(#p4c2a387124)" style="fill: none; stroke: #0000ff; stroke-width: 2"/>
    <path d="M 238.682231 252.399285 
L 238.682231 252.174668 
" clip-path="url(#p4c2a387124)" style="fill: none; stroke: #0000ff; stroke-width: 2"/>
    <path d="M 259.434298 259.727838 
L 259.434298 259.512049 
" clip-path="url(#p4c2a387124)" style="fill: none; stroke: #0000ff; stroke-width: 2"/>
    <path d="M 280.186364 266.392774 
L 280.186364 266.307786 
" clip-path="url(#p4c2a387124)" style="fill: none; stroke: #0000ff; stroke-width: 2"/>
   </g>
   <g id="line2d_17">
    <defs>
     <path id="m54698f7da6" d="M 3 0 
L -3 -0 
" style="stroke: #0000ff; stroke-width: 2"/>
    </defs>
    <g clip-path="url(#p4c2a387124)">
     <use xlink:href="#m54698f7da6" x="51.913636" y="71.775825" style="fill: #0000ff; stroke: #0000ff; stroke-width: 2"/>
     <use xlink:href="#m54698f7da6" x="72.665702" y="103.227235" style="fill: #0000ff; stroke: #0000ff; stroke-width: 2"/>
     <use xlink:href="#m54698f7da6" x="93.417769" y="126.22871" style="fill: #0000ff; stroke: #0000ff; stroke-width: 2"/>
     <use xlink:href="#m54698f7da6" x="114.169835" y="151.430694" style="fill: #0000ff; stroke: #0000ff; stroke-width: 2"/>
     <use xlink:href="#m54698f7da6" x="134.921901" y="173.895499" style="fill: #0000ff; stroke: #0000ff; stroke-width: 2"/>
     <use xlink:href="#m54698f7da6" x="155.673967" y="197.045832" style="fill: #0000ff; stroke: #0000ff; stroke-width: 2"/>
     <use xlink:href="#m54698f7da6" x="176.426033" y="214.704762" style="fill: #0000ff; stroke: #0000ff; stroke-width: 2"/>
     <use xlink:href="#m54698f7da6" x="197.178099" y="229.688987" style="fill: #0000ff; stroke: #0000ff; stroke-width: 2"/>
     <use xlink:href="#m54698f7da6" x="217.930165" y="242.170702" style="fill: #0000ff; stroke: #0000ff; stroke-width: 2"/>
     <use xlink:href="#m54698f7da6" x="238.682231" y="252.399285" style="fill: #0000ff; stroke: #0000ff; stroke-width: 2"/>
     <use xlink:href="#m54698f7da6" x="259.434298" y="259.727838" style="fill: #0000ff; stroke: #0000ff; stroke-width: 2"/>
     <use xlink:href="#m54698f7da6" x="280.186364" y="266.392774" style="fill: #0000ff; stroke: #0000ff; stroke-width: 2"/>
    </g>
   </g>
   <g id="line2d_18">
    <g clip-path="url(#p4c2a387124)">
     <use xlink:href="#m54698f7da6" x="51.913636" y="69.782975" style="fill: #0000ff; stroke: #0000ff; stroke-width: 2"/>
     <use xlink:href="#m54698f7da6" x="72.665702" y="100.61252" style="fill: #0000ff; stroke: #0000ff; stroke-width: 2"/>
     <use xlink:href="#m54698f7da6" x="93.417769" y="122.01919" style="fill: #0000ff; stroke: #0000ff; stroke-width: 2"/>
     <use xlink:href="#m54698f7da6" x="114.169835" y="149.634887" style="fill: #0000ff; stroke: #0000ff; stroke-width: 2"/>
     <use xlink:href="#m54698f7da6" x="134.921901" y="172.654025" style="fill: #0000ff; stroke: #0000ff; stroke-width: 2"/>
     <use xlink:href="#m54698f7da6" x="155.673967" y="196.00008" style="fill: #0000ff; stroke: #0000ff; stroke-width: 2"/>
     <use xlink:href="#m54698f7da6" x="176.426033" y="213.41207" style="fill: #0000ff; stroke: #0000ff; stroke-width: 2"/>
     <use xlink:href="#m54698f7da6" x="197.178099" y="229.491141" style="fill: #0000ff; stroke: #0000ff; stroke-width: 2"/>
     <use xlink:href="#m54698f7da6" x="217.930165" y="241.879026" style="fill: #0000ff; stroke: #0000ff; stroke-width: 2"/>
     <use xlink:href="#m54698f7da6" x="238.682231" y="252.174668" style="fill: #0000ff; stroke: #0000ff; stroke-width: 2"/>
     <use xlink:href="#m54698f7da6" x="259.434298" y="259.512049" style="fill: #0000ff; stroke: #0000ff; stroke-width: 2"/>
     <use xlink:href="#m54698f7da6" x="280.186364" y="266.307786" style="fill: #0000ff; stroke: #0000ff; stroke-width: 2"/>
    </g>
   </g>
   <g id="line2d_19">
    <path d="M 51.913636 52.9342 
L 72.665702 68.755721 
L 93.417769 103.708167 
L 114.169835 138.58672 
L 134.921901 169.465236 
L 155.673967 198.352261 
L 176.426033 220.155764 
L 197.178099 237.407752 
L 217.930165 252.402931 
L 238.682231 262.84795 
L 259.434298 271.073521 
L 280.186364 276.924927 
" clip-path="url(#p4c2a387124)" style="fill: none; stroke: #bf00bf; stroke-width: 1.5; stroke-linecap: square"/>
   </g>
   <g id="LineCollection_4">
    <path d="M 51.913636 55.6484 
L 51.913636 50.22 
" clip-path="url(#p4c2a387124)" style="fill: none; stroke: #bf00bf; stroke-width: 2"/>
    <path d="M 72.665702 73.475868 
L 72.665702 64.035574 
" clip-path="url(#p4c2a387124)" style="fill: none; stroke: #bf00bf; stroke-width: 2"/>
    <path d="M 93.417769 105.555297 
L 93.417769 101.861036 
" clip-path="url(#p4c2a387124)" style="fill: none; stroke: #bf00bf; stroke-width: 2"/>
    <path d="M 114.169835 140.908448 
L 114.169835 136.264993 
" clip-path="url(#p4c2a387124)" style="fill: none; stroke: #bf00bf; stroke-width: 2"/>
    <path d="M 134.921901 170.479606 
L 134.921901 168.450867 
" clip-path="url(#p4c2a387124)" style="fill: none; stroke: #bf00bf; stroke-width: 2"/>
    <path d="M 155.673967 198.893559 
L 155.673967 197.810963 
" clip-path="url(#p4c2a387124)" style="fill: none; stroke: #bf00bf; stroke-width: 2"/>
    <path d="M 176.426033 220.614406 
L 176.426033 219.697121 
" clip-path="url(#p4c2a387124)" style="fill: none; stroke: #bf00bf; stroke-width: 2"/>
    <path d="M 197.178099 237.819732 
L 197.178099 236.995773 
" clip-path="url(#p4c2a387124)" style="fill: none; stroke: #bf00bf; stroke-width: 2"/>
    <path d="M 217.930165 252.610339 
L 217.930165 252.195523 
" clip-path="url(#p4c2a387124)" style="fill: none; stroke: #bf00bf; stroke-width: 2"/>
    <path d="M 238.682231 263.2665 
L 238.682231 262.4294 
" clip-path="url(#p4c2a387124)" style="fill: none; stroke: #bf00bf; stroke-width: 2"/>
    <path d="M 259.434298 271.168145 
L 259.434298 270.978897 
" clip-path="url(#p4c2a387124)" style="fill: none; stroke: #bf00bf; stroke-width: 2"/>
    <path d="M 280.186364 277.02 
L 280.186364 276.829855 
" clip-path="url(#p4c2a387124)" style="fill: none; stroke: #bf00bf; stroke-width: 2"/>
   </g>
   <g id="line2d_20">
    <defs>
     <path id="m45ce4151c0" d="M 3 0 
L -3 -0 
" style="stroke: #bf00bf; stroke-width: 2"/>
    </defs>
    <g clip-path="url(#p4c2a387124)">
     <use xlink:href="#m45ce4151c0" x="51.913636" y="55.6484" style="fill: #bf00bf; stroke: #bf00bf; stroke-width: 2"/>
     <use xlink:href="#m45ce4151c0" x="72.665702" y="73.475868" style="fill: #bf00bf; stroke: #bf00bf; stroke-width: 2"/>
     <use xlink:href="#m45ce4151c0" x="93.417769" y="105.555297" style="fill: #bf00bf; stroke: #bf00bf; stroke-width: 2"/>
     <use xlink:href="#m45ce4151c0" x="114.169835" y="140.908448" style="fill: #bf00bf; stroke: #bf00bf; stroke-width: 2"/>
     <use xlink:href="#m45ce4151c0" x="134.921901" y="170.479606" style="fill: #bf00bf; stroke: #bf00bf; stroke-width: 2"/>
     <use xlink:href="#m45ce4151c0" x="155.673967" y="198.893559" style="fill: #bf00bf; stroke: #bf00bf; stroke-width: 2"/>
     <use xlink:href="#m45ce4151c0" x="176.426033" y="220.614406" style="fill: #bf00bf; stroke: #bf00bf; stroke-width: 2"/>
     <use xlink:href="#m45ce4151c0" x="197.178099" y="237.819732" style="fill: #bf00bf; stroke: #bf00bf; stroke-width: 2"/>
     <use xlink:href="#m45ce4151c0" x="217.930165" y="252.610339" style="fill: #bf00bf; stroke: #bf00bf; stroke-width: 2"/>
     <use xlink:href="#m45ce4151c0" x="238.682231" y="263.2665" style="fill: #bf00bf; stroke: #bf00bf; stroke-width: 2"/>
     <use xlink:href="#m45ce4151c0" x="259.434298" y="271.168145" style="fill: #bf00bf; stroke: #bf00bf; stroke-width: 2"/>
     <use xlink:href="#m45ce4151c0" x="280.186364" y="277.02" style="fill: #bf00bf; stroke: #bf00bf; stroke-width: 2"/>
    </g>
   </g>
   <g id="line2d_21">
    <g clip-path="url(#p4c2a387124)">
     <use xlink:href="#m45ce4151c0" x="51.913636" y="50.22" style="fill: #bf00bf; stroke: #bf00bf; stroke-width: 2"/>
     <use xlink:href="#m45ce4151c0" x="72.665702" y="64.035574" style="fill: #bf00bf; stroke: #bf00bf; stroke-width: 2"/>
     <use xlink:href="#m45ce4151c0" x="93.417769" y="101.861036" style="fill: #bf00bf; stroke: #bf00bf; stroke-width: 2"/>
     <use xlink:href="#m45ce4151c0" x="114.169835" y="136.264993" style="fill: #bf00bf; stroke: #bf00bf; stroke-width: 2"/>
     <use xlink:href="#m45ce4151c0" x="134.921901" y="168.450867" style="fill: #bf00bf; stroke: #bf00bf; stroke-width: 2"/>
     <use xlink:href="#m45ce4151c0" x="155.673967" y="197.810963" style="fill: #bf00bf; stroke: #bf00bf; stroke-width: 2"/>
     <use xlink:href="#m45ce4151c0" x="176.426033" y="219.697121" style="fill: #bf00bf; stroke: #bf00bf; stroke-width: 2"/>
     <use xlink:href="#m45ce4151c0" x="197.178099" y="236.995773" style="fill: #bf00bf; stroke: #bf00bf; stroke-width: 2"/>
     <use xlink:href="#m45ce4151c0" x="217.930165" y="252.195523" style="fill: #bf00bf; stroke: #bf00bf; stroke-width: 2"/>
     <use xlink:href="#m45ce4151c0" x="238.682231" y="262.4294" style="fill: #bf00bf; stroke: #bf00bf; stroke-width: 2"/>
     <use xlink:href="#m45ce4151c0" x="259.434298" y="270.978897" style="fill: #bf00bf; stroke: #bf00bf; stroke-width: 2"/>
     <use xlink:href="#m45ce4151c0" x="280.186364" y="276.829855" style="fill: #bf00bf; stroke: #bf00bf; stroke-width: 2"/>
    </g>
   </g>
   <g id="line2d_22">
    <path d="M 51.913636 122.069977 
L 72.665702 138.123326 
L 93.417769 154.755177 
L 114.169835 169.680277 
L 134.921901 184.04492 
L 155.673967 195.826268 
L 176.426033 206.566737 
L 197.178099 216.281796 
L 217.930165 224.777408 
L 238.682231 232.137176 
L 259.434298 238.526885 
L 280.186364 243.901509 
" clip-path="url(#p4c2a387124)" style="fill: none; stroke: #ff0000; stroke-width: 1.5; stroke-linecap: square"/>
   </g>
   <g id="line2d_23">
    <path d="M 51.913636 97.958455 
L 72.665702 120.137294 
L 93.417769 141.198082 
L 114.169835 161.377257 
L 134.921901 180.357231 
L 155.673967 196.093747 
L 176.426033 210.363914 
L 197.178099 222.46153 
L 217.930165 232.587901 
L 238.682231 241.30548 
L 259.434298 248.567023 
L 280.186364 255.089116 
" clip-path="url(#p4c2a387124)" style="fill: none; stroke: #000000; stroke-width: 1.5; stroke-linecap: square"/>
   </g>
   <g id="line2d_24">
    <path d="M 51.913636 70.7794 
L 72.665702 101.919878 
L 93.417769 124.12395 
L 114.169835 150.53279 
L 134.921901 173.274762 
L 155.673967 196.522956 
L 176.426033 214.058416 
L 197.178099 229.590064 
L 217.930165 242.024864 
L 238.682231 252.286977 
L 259.434298 259.619944 
L 280.186364 266.35028 
" clip-path="url(#p4c2a387124)" style="fill: none; stroke: #0000ff; stroke-width: 1.5; stroke-linecap: square"/>
   </g>
   <g id="line2d_25">
    <path d="M 51.913636 52.9342 
L 72.665702 68.755721 
L 93.417769 103.708167 
L 114.169835 138.58672 
L 134.921901 169.465236 
L 155.673967 198.352261 
L 176.426033 220.155764 
L 197.178099 237.407752 
L 217.930165 252.402931 
L 238.682231 262.84795 
L 259.434298 271.073521 
L 280.186364 276.924927 
" clip-path="url(#p4c2a387124)" style="fill: none; stroke: #bf00bf; stroke-width: 1.5; stroke-linecap: square"/>
   </g>
   <g id="patch_3">
    <path d="M 40.5 288.36 
L 40.5 38.88 
" style="fill: none; stroke: #000000; stroke-width: 1.6; stroke-linejoin: miter; stroke-linecap: square"/>
   </g>
   <g id="patch_4">
    <path d="M 291.6 288.36 
L 291.6 38.88 
" style="fill: none; stroke: #000000; stroke-width: 1.6; stroke-linejoin: miter; stroke-linecap: square"/>
   </g>
   <g id="patch_5">
    <path d="M 40.5 288.36 
L 291.6 288.36 
" style="fill: none; stroke: #000000; stroke-width: 1.6; stroke-linejoin: miter; stroke-linecap: square"/>
   </g>
   <g id="patch_6">
    <path d="M 40.5 38.88 
L 291.6 38.88 
" style="fill: none; stroke: #000000; stroke-width: 1.6; stroke-linejoin: miter; stroke-linecap: square"/>
   </g>
   <g id="legend_1">
    <g id="patch_7">
     <path d="M 209.120625 118.935 
L 283.2 118.935 
Q 285.6 118.935 285.6 116.535 
L 285.6 47.28 
Q 285.6 44.88 283.2 44.88 
L 209.120625 44.88 
Q 206.720625 44.88 206.720625 47.28 
L 206.720625 116.535 
Q 206.720625 118.935 209.120625 118.935 
z
" style="fill: #ffffff; opacity: 0.8"/>
    </g>
    <g id="LineCollection_5">
     <path d="M 223.520625 60.598125 
L 223.520625 48.598125 
" style="fill: none; stroke: #ff0000; stroke-width: 2"/>
    </g>
    <g id="line2d_26">
     <g>
      <use xlink:href="#m1d1332d42b" x="223.520625" y="60.598125" style="fill: #ff0000; stroke: #ff0000; stroke-width: 2"/>
     </g>
    </g>
    <g id="line2d_27">
     <g>
      <use xlink:href="#m1d1332d42b" x="223.520625" y="48.598125" style="fill: #ff0000; stroke: #ff0000; stroke-width: 2"/>
     </g>
    </g>
    <g id="line2d_28">
     <path d="M 211.520625 54.598125 
L 235.520625 54.598125 
" style="fill: none; stroke: #ff0000; stroke-width: 1.5; stroke-linecap: square"/>
    </g>
    <g id="line2d_29"/>
    <g id="text_10">
     <!-- M=4 -->
     <g transform="translate(245.120625 58.798125) scale(0.12 -0.12)">
      <defs>
       <path id="DejaVuSans-4d" d="M 628 4666 
L 1569 4666 
L 2759 1491 
L 3956 4666 
L 4897 4666 
L 4897 0 
L 4281 0 
L 4281 4097 
L 3078 897 
L 2444 897 
L 1241 4097 
L 1241 0 
L 628 0 
L 628 4666 
z
" transform="scale(0.015625)"/>
       <path id="DejaVuSans-3d" d="M 678 2906 
L 4684 2906 
L 4684 2381 
L 678 2381 
L 678 2906 
z
M 678 1631 
L 4684 1631 
L 4684 1100 
L 678 1100 
L 678 1631 
z
" transform="scale(0.015625)"/>
      </defs>
      <use xlink:href="#DejaVuSans-4d"/>
      <use xlink:href="#DejaVuSans-3d" x="86.279297"/>
      <use xlink:href="#DejaVuSans-34" x="170.068359"/>
     </g>
    </g>
    <g id="LineCollection_6">
     <path d="M 223.520625 78.211875 
L 223.520625 66.211875 
" style="fill: none; stroke: #000000; stroke-width: 2"/>
    </g>
    <g id="line2d_30">
     <g>
      <use xlink:href="#m6734ad77f0" x="223.520625" y="78.211875" style="stroke: #000000; stroke-width: 2"/>
     </g>
    </g>
    <g id="line2d_31">
     <g>
      <use xlink:href="#m6734ad77f0" x="223.520625" y="66.211875" style="stroke: #000000; stroke-width: 2"/>
     </g>
    </g>
    <g id="line2d_32">
     <path d="M 211.520625 72.211875 
L 235.520625 72.211875 
" style="fill: none; stroke: #000000; stroke-width: 1.5; stroke-linecap: square"/>
    </g>
    <g id="line2d_33"/>
    <g id="text_11">
     <!-- M=8 -->
     <g transform="translate(245.120625 76.411875) scale(0.12 -0.12)">
      <defs>
       <path id="DejaVuSans-38" d="M 2034 2216 
Q 1584 2216 1326 1975 
Q 1069 1734 1069 1313 
Q 1069 891 1326 650 
Q 1584 409 2034 409 
Q 2484 409 2743 651 
Q 3003 894 3003 1313 
Q 3003 1734 2745 1975 
Q 2488 2216 2034 2216 
z
M 1403 2484 
Q 997 2584 770 2862 
Q 544 3141 544 3541 
Q 544 4100 942 4425 
Q 1341 4750 2034 4750 
Q 2731 4750 3128 4425 
Q 3525 4100 3525 3541 
Q 3525 3141 3298 2862 
Q 3072 2584 2669 2484 
Q 3125 2378 3379 2068 
Q 3634 1759 3634 1313 
Q 3634 634 3220 271 
Q 2806 -91 2034 -91 
Q 1263 -91 848 271 
Q 434 634 434 1313 
Q 434 1759 690 2068 
Q 947 2378 1403 2484 
z
M 1172 3481 
Q 1172 3119 1398 2916 
Q 1625 2713 2034 2713 
Q 2441 2713 2670 2916 
Q 2900 3119 2900 3481 
Q 2900 3844 2670 4047 
Q 2441 4250 2034 4250 
Q 1625 4250 1398 4047 
Q 1172 3844 1172 3481 
z
" transform="scale(0.015625)"/>
      </defs>
      <use xlink:href="#DejaVuSans-4d"/>
      <use xlink:href="#DejaVuSans-3d" x="86.279297"/>
      <use xlink:href="#DejaVuSans-38" x="170.068359"/>
     </g>
    </g>
    <g id="LineCollection_7">
     <path d="M 223.520625 95.825625 
L 223.520625 83.825625 
" style="fill: none; stroke: #0000ff; stroke-width: 2"/>
    </g>
    <g id="line2d_34">
     <g>
      <use xlink:href="#m54698f7da6" x="223.520625" y="95.825625" style="fill: #0000ff; stroke: #0000ff; stroke-width: 2"/>
     </g>
    </g>
    <g id="line2d_35">
     <g>
      <use xlink:href="#m54698f7da6" x="223.520625" y="83.825625" style="fill: #0000ff; stroke: #0000ff; stroke-width: 2"/>
     </g>
    </g>
    <g id="line2d_36">
     <path d="M 211.520625 89.825625 
L 235.520625 89.825625 
" style="fill: none; stroke: #0000ff; stroke-width: 1.5; stroke-linecap: square"/>
    </g>
    <g id="line2d_37"/>
    <g id="text_12">
     <!-- M=16 -->
     <g transform="translate(245.120625 94.025625) scale(0.12 -0.12)">
      <defs>
       <path id="DejaVuSans-36" d="M 2113 2584 
Q 1688 2584 1439 2293 
Q 1191 2003 1191 1497 
Q 1191 994 1439 701 
Q 1688 409 2113 409 
Q 2538 409 2786 701 
Q 3034 994 3034 1497 
Q 3034 2003 2786 2293 
Q 2538 2584 2113 2584 
z
M 3366 4563 
L 3366 3988 
Q 3128 4100 2886 4159 
Q 2644 4219 2406 4219 
Q 1781 4219 1451 3797 
Q 1122 3375 1075 2522 
Q 1259 2794 1537 2939 
Q 1816 3084 2150 3084 
Q 2853 3084 3261 2657 
Q 3669 2231 3669 1497 
Q 3669 778 3244 343 
Q 2819 -91 2113 -91 
Q 1303 -91 875 529 
Q 447 1150 447 2328 
Q 447 3434 972 4092 
Q 1497 4750 2381 4750 
Q 2619 4750 2861 4703 
Q 3103 4656 3366 4563 
z
" transform="scale(0.015625)"/>
      </defs>
      <use xlink:href="#DejaVuSans-4d"/>
      <use xlink:href="#DejaVuSans-3d" x="86.279297"/>
      <use xlink:href="#DejaVuSans-31" x="170.068359"/>
      <use xlink:href="#DejaVuSans-36" x="233.691406"/>
     </g>
    </g>
    <g id="LineCollection_8">
     <path d="M 223.520625 113.439375 
L 223.520625 101.439375 
" style="fill: none; stroke: #bf00bf; stroke-width: 2"/>
    </g>
    <g id="line2d_38">
     <g>
      <use xlink:href="#m45ce4151c0" x="223.520625" y="113.439375" style="fill: #bf00bf; stroke: #bf00bf; stroke-width: 2"/>
     </g>
    </g>
    <g id="line2d_39">
     <g>
      <use xlink:href="#m45ce4151c0" x="223.520625" y="101.439375" style="fill: #bf00bf; stroke: #bf00bf; stroke-width: 2"/>
     </g>
    </g>
    <g id="line2d_40">
     <path d="M 211.520625 107.439375 
L 235.520625 107.439375 
" style="fill: none; stroke: #bf00bf; stroke-width: 1.5; stroke-linecap: square"/>
    </g>
    <g id="line2d_41"/>
    <g id="text_13">
     <!-- M=32 -->
     <g transform="translate(245.120625 111.639375) scale(0.12 -0.12)">
      <use xlink:href="#DejaVuSans-4d"/>
      <use xlink:href="#DejaVuSans-3d" x="86.279297"/>
      <use xlink:href="#DejaVuSans-33" x="170.068359"/>
      <use xlink:href="#DejaVuSans-32" x="233.691406"/>
     </g>
    </g>
   </g>
  </g>
 </g>
 <defs>
  <clipPath id="p4c2a387124">
   <rect x="40.5" y="38.88" width="251.1" height="249.48"/>
  </clipPath>
 </defs>
</svg>
