<?xml version="1.0" encoding="utf-8" standalone="no"?>
<!DOCTYPE svg PUBLIC "-//W3C//DTD SVG 1.1//EN"
  "http://www.w3.org/Graphics/SVG/1.1/DTD/svg11.dtd">
<svg xmlns:xlink="http://www.w3.org/1999/xlink" width="324pt" height="324pt" viewBox="0 0 324 324" xmlns="http://www.w3.org/2000/svg" version="1.1">
 <metadata>
  <rdf:RDF xmlns:dc="http://purl.org/dc/elements/1.1/" xmlns:cc="http://creativecommons.org/ns#" xmlns:rdf="http://www.w3.org/1999/02/22-rdf-syntax-ns#">
   <cc:Work>
    <dc:type rdf:resource="http://purl.org/dc/dcmitype/StillImage"/>
    <dc:date>2026-01-11T17:11:05.119398</dc:date>
    <dc:format>image/svg+xml</dc:format>
    <dc:creator>
     <cc:Agent>
      <dc:title>Matplotlib v3.8.0, https://matplotlib.org/</dc:title>
     </cc:Agent>
    </dc:creator>
   </cc:Work>
  </rdf:RDF>
 </metadata>
 <defs>
  <style type="text/css">*{stroke-linejoin: round; stroke-linecap: butt}</style>
 </defs>
 <g id="figure_1">
  <g id="patch_1">
   <path d="M 0 324 
L 324 324 
L 324 0 
L 0 0 
z
" style="fill: #ffffff"/>
  </g>
  <g id="axes_1">
   <g id="patch_2">
    <path d="M 40.5 288.36 
L 291.6 288.36 
L 291.6 38.88 
L 40.5 38.88 
z
" style="fill: #ffffff"/>
   </g>
   <g id="matplotlib.axis_1">
    <g id="xtick_1">
     <g id="line2d_1">
      <defs>
       <path id="m370880546a" d="M 0 0 
L 0 8 
" style="stroke: #000000; stroke-width: 1.5"/>
      </defs>
      <g>
       <use xlink:href="#m370880546a" x="68.218831" y="288.36" style="stroke: #000000; stroke-width: 1.5"/>
      </g>
     </g>
     <g id="text_1">
      <!-- 6 -->
      <g transform="translate(64.401331 308.978125) scale(0.12 -0.12)">
       <defs>
        <path id="DejaVuSans-36" d="M 2113 2584 
Q 1688 2584 1439 2293 
Q 1191 2003 1191 1497 
Q 1191 994 1439 701 
Q 1688 409 2113 409 
Q 2538 409 2786 701 
Q 3034 994 3034 1497 
Q 3034 2003 2786 2293 
Q 2538 2584 2113 2584 
z
M 3366 4563 
L 3366 3988 
Q 3128 4100 2886 4159 
Q 2644 4219 2406 4219 
Q 1781 4219 1451 3797 
Q 1122 3375 1075 2522 
Q 1259 2794 1537 2939 
Q 1816 3084 2150 3084 
Q 2853 3084 3261 2657 
Q 3669 2231 3669 1497 
Q 3669 778 3244 343 
Q 2819 -91 2113 -91 
Q 1303 -91 875 529 
Q 447 1150 447 2328 
Q 447 3434 972 4092 
Q 1497 4750 2381 4750 
Q 2619 4750 2861 4703 
Q 3103 4656 3366 4563 
z
" transform="scale(0.015625)"/>
       </defs>
       <use xlink:href="#DejaVuSans-36"/>
      </g>
     </g>
    </g>
    <g id="xtick_2">
     <g id="line2d_2">
      <g>
       <use xlink:href="#m370880546a" x="149.744805" y="288.36" style="stroke: #000000; stroke-width: 1.5"/>
      </g>
     </g>
     <g id="text_2">
      <!-- 7 -->
      <g transform="translate(145.927305 308.978125) scale(0.12 -0.12)">
       <defs>
        <path id="DejaVuSans-37" d="M 525 4666 
L 3525 4666 
L 3525 4397 
L 1831 0 
L 1172 0 
L 2766 4134 
L 525 4134 
L 525 4666 
z
" transform="scale(0.015625)"/>
       </defs>
       <use xlink:href="#DejaVuSans-37"/>
      </g>
     </g>
    </g>
    <g id="xtick_3">
     <g id="line2d_3">
      <g>
       <use xlink:href="#m370880546a" x="231.270779" y="288.36" style="stroke: #000000; stroke-width: 1.5"/>
      </g>
     </g>
     <g id="text_3">
      <!-- 8 -->
      <g transform="translate(227.453279 308.978125) scale(0.12 -0.12)">
       <defs>
        <path id="DejaVuSans-38" d="M 2034 2216 
Q 1584 2216 1326 1975 
Q 1069 1734 1069 1313 
Q 1069 891 1326 650 
Q 1584 409 2034 409 
Q 2484 409 2743 651 
Q 3003 894 3003 1313 
Q 3003 1734 2745 1975 
Q 2488 2216 2034 2216 
z
M 1403 2484 
Q 997 2584 770 2862 
Q 544 3141 544 3541 
Q 544 4100 942 4425 
Q 1341 4750 2034 4750 
Q 2731 4750 3128 4425 
Q 3525 4100 3525 3541 
Q 3525 3141 3298 2862 
Q 3072 2584 2669 2484 
Q 3125 2378 3379 2068 
Q 3634 1759 3634 1313 
Q 3634 634 3220 271 
Q 2806 -91 2034 -91 
Q 1263 -91 848 271 
Q 434 634 434 1313 
Q 434 1759 690 2068 
Q 947 2378 1403 2484 
z
M 1172 3481 
Q 1172 3119 1398 2916 
Q 1625 2713 2034 2713 
Q 2441 2713 2670 2916 
Q 2900 3119 2900 3481 
Q 2900 3844 2670 4047 
Q 2441 4250 2034 4250 
Q 1625 4250 1398 4047 
Q 1172 3844 1172 3481 
z
" transform="scale(0.015625)"/>
       </defs>
       <use xlink:href="#DejaVuSans-38"/>
      </g>
     </g>
    </g>
   </g>
   <g id="matplotlib.axis_2">
    <g id="ytick_1">
     <g id="line2d_4">
      <defs>
       <path id="m36ceb0f629" d="M 0 0 
L -8 0 
" style="stroke: #000000; stroke-width: 1.5"/>
      </defs>
      <g>
       <use xlink:href="#m36ceb0f629" x="40.5" y="285.758136" style="stroke: #000000; stroke-width: 1.5"/>
      </g>
     </g>
     <g id="text_4">
      <!-- 0.0 -->
      <g transform="translate(9.91625 290.317198) scale(0.12 -0.12)">
       <defs>
        <path id="DejaVuSans-30" d="M 2034 4250 
Q 1547 4250 1301 3770 
Q 1056 3291 1056 2328 
Q 1056 1369 1301 889 
Q 1547 409 2034 409 
Q 2525 409 2770 889 
Q 3016 1369 3016 2328 
Q 3016 3291 2770 3770 
Q 2525 4250 2034 4250 
z
M 2034 4750 
Q 2819 4750 3233 4129 
Q 3647 3509 3647 2328 
Q 3647 1150 3233 529 
Q 2819 -91 2034 -91 
Q 1250 -91 836 529 
Q 422 1150 422 2328 
Q 422 3509 836 4129 
Q 1250 4750 2034 4750 
z
" transform="scale(0.015625)"/>
        <path id="DejaVuSans-2e" d="M 684 794 
L 1344 794 
L 1344 0 
L 684 0 
L 684 794 
z
" transform="scale(0.015625)"/>
       </defs>
       <use xlink:href="#DejaVuSans-30"/>
       <use xlink:href="#DejaVuSans-2e" x="63.623047"/>
       <use xlink:href="#DejaVuSans-30" x="95.410156"/>
      </g>
     </g>
    </g>
    <g id="ytick_2">
     <g id="line2d_5">
      <g>
       <use xlink:href="#m36ceb0f629" x="40.5" y="236.382509" style="stroke: #000000; stroke-width: 1.5"/>
      </g>
     </g>
     <g id="text_5">
      <!-- 0.5 -->
      <g transform="translate(9.91625 240.941571) scale(0.12 -0.12)">
       <defs>
        <path id="DejaVuSans-35" d="M 691 4666 
L 3169 4666 
L 3169 4134 
L 1269 4134 
L 1269 2991 
Q 1406 3038 1543 3061 
Q 1681 3084 1819 3084 
Q 2600 3084 3056 2656 
Q 3513 2228 3513 1497 
Q 3513 744 3044 326 
Q 2575 -91 1722 -91 
Q 1428 -91 1123 -41 
Q 819 9 494 109 
L 494 744 
Q 775 591 1075 516 
Q 1375 441 1709 441 
Q 2250 441 2565 725 
Q 2881 1009 2881 1497 
Q 2881 1984 2565 2268 
Q 2250 2553 1709 2553 
Q 1456 2553 1204 2497 
Q 953 2441 691 2322 
L 691 4666 
z
" transform="scale(0.015625)"/>
       </defs>
       <use xlink:href="#DejaVuSans-30"/>
       <use xlink:href="#DejaVuSans-2e" x="63.623047"/>
       <use xlink:href="#DejaVuSans-35" x="95.410156"/>
      </g>
     </g>
    </g>
    <g id="ytick_3">
     <g id="line2d_6">
      <g>
       <use xlink:href="#m36ceb0f629" x="40.5" y="187.006881" style="stroke: #000000; stroke-width: 1.5"/>
      </g>
     </g>
     <g id="text_6">
      <!-- 1.0 -->
      <g transform="translate(9.91625 191.565944) scale(0.12 -0.12)">
       <defs>
        <path id="DejaVuSans-31" d="M 794 531 
L 1825 531 
L 1825 4091 
L 703 3866 
L 703 4441 
L 1819 4666 
L 2450 4666 
L 2450 531 
L 3481 531 
L 3481 0 
L 794 0 
L 794 531 
z
" transform="scale(0.015625)"/>
       </defs>
       <use xlink:href="#DejaVuSans-31"/>
       <use xlink:href="#DejaVuSans-2e" x="63.623047"/>
       <use xlink:href="#DejaVuSans-30" x="95.410156"/>
      </g>
     </g>
    </g>
    <g id="ytick_4">
     <g id="line2d_7">
      <g>
       <use xlink:href="#m36ceb0f629" x="40.5" y="137.631254" style="stroke: #000000; stroke-width: 1.5"/>
      </g>
     </g>
     <g id="text_7">
      <!-- 1.5 -->
      <g transform="translate(9.91625 142.190317) scale(0.12 -0.12)">
       <use xlink:href="#DejaVuSans-31"/>
       <use xlink:href="#DejaVuSans-2e" x="63.623047"/>
       <use xlink:href="#DejaVuSans-35" x="95.410156"/>
      </g>
     </g>
    </g>
    <g id="ytick_5">
     <g id="line2d_8">
      <g>
       <use xlink:href="#m36ceb0f629" x="40.5" y="88.255627" style="stroke: #000000; stroke-width: 1.5"/>
      </g>
     </g>
     <g id="text_8">
      <!-- 2.0 -->
      <g transform="translate(9.91625 92.81469) scale(0.12 -0.12)">
       <defs>
        <path id="DejaVuSans-32" d="M 1228 531 
L 3431 531 
L 3431 0 
L 469 0 
L 469 531 
Q 828 903 1448 1529 
Q 2069 2156 2228 2338 
Q 2531 2678 2651 2914 
Q 2772 3150 2772 3378 
Q 2772 3750 2511 3984 
Q 2250 4219 1831 4219 
Q 1534 4219 1204 4116 
Q 875 4013 500 3803 
L 500 4441 
Q 881 4594 1212 4672 
Q 1544 4750 1819 4750 
Q 2544 4750 2975 4387 
Q 3406 4025 3406 3419 
Q 3406 3131 3298 2873 
Q 3191 2616 2906 2266 
Q 2828 2175 2409 1742 
Q 1991 1309 1228 531 
z
" transform="scale(0.015625)"/>
       </defs>
       <use xlink:href="#DejaVuSans-32"/>
       <use xlink:href="#DejaVuSans-2e" x="63.623047"/>
       <use xlink:href="#DejaVuSans-30" x="95.410156"/>
      </g>
     </g>
    </g>
    <g id="ytick_6">
     <g id="line2d_9">
      <g>
       <use xlink:href="#m36ceb0f629" x="40.5" y="38.88" style="stroke: #000000; stroke-width: 1.5"/>
      </g>
     </g>
     <g id="text_9">
      <!-- 2.5 -->
      <g transform="translate(9.91625 43.439062) scale(0.12 -0.12)">
       <use xlink:href="#DejaVuSans-32"/>
       <use xlink:href="#DejaVuSans-2e" x="63.623047"/>
       <use xlink:href="#DejaVuSans-35" x="95.410156"/>
      </g>
     </g>
    </g>
   </g>
   <g id="line2d_10">
    <path d="M 51.913636 126.004479 
L 68.218831 130.456266 
L 84.524026 135.385062 
L 100.829221 148.490613 
L 117.134416 162.671306 
L 133.43961 179.858801 
L 149.744805 198.485969 
L 166.05 217.616555 
L 182.355195 233.351648 
L 198.66039 244.924716 
L 214.965584 258.294435 
L 231.270779 267.022767 
L 247.575974 269.531164 
L 263.881169 269.583187 
L 280.186364 269.614625 
" clip-path="url(#p336540b4e6)" style="fill: none; stroke: #ff0000; stroke-width: 1.5; stroke-linecap: square"/>
   </g>
   <g id="LineCollection_1">
    <path d="M 51.913636 126.396281 
L 51.913636 125.612676 
" clip-path="url(#p336540b4e6)" style="fill: none; stroke: #ff0000; stroke-width: 2"/>
    <path d="M 68.218831 131.035605 
L 68.218831 129.876927 
" clip-path="url(#p336540b4e6)" style="fill: none; stroke: #ff0000; stroke-width: 2"/>
    <path d="M 84.524026 135.9383 
L 84.524026 134.831824 
" clip-path="url(#p336540b4e6)" style="fill: none; stroke: #ff0000; stroke-width: 2"/>
    <path d="M 100.829221 148.82586 
L 100.829221 148.155366 
" clip-path="url(#p336540b4e6)" style="fill: none; stroke: #ff0000; stroke-width: 2"/>
    <path d="M 117.134416 163.65944 
L 117.134416 161.683172 
" clip-path="url(#p336540b4e6)" style="fill: none; stroke: #ff0000; stroke-width: 2"/>
    <path d="M 133.43961 180.301864 
L 133.43961 179.415738 
" clip-path="url(#p336540b4e6)" style="fill: none; stroke: #ff0000; stroke-width: 2"/>
    <path d="M 149.744805 198.753657 
L 149.744805 198.218282 
" clip-path="url(#p336540b4e6)" style="fill: none; stroke: #ff0000; stroke-width: 2"/>
    <path d="M 166.05 217.810913 
L 166.05 217.422196 
" clip-path="url(#p336540b4e6)" style="fill: none; stroke: #ff0000; stroke-width: 2"/>
    <path d="M 182.355195 233.615701 
L 182.355195 233.087595 
" clip-path="url(#p336540b4e6)" style="fill: none; stroke: #ff0000; stroke-width: 2"/>
    <path d="M 198.66039 245.216425 
L 198.66039 244.633008 
" clip-path="url(#p336540b4e6)" style="fill: none; stroke: #ff0000; stroke-width: 2"/>
    <path d="M 214.965584 258.390796 
L 214.965584 258.198074 
" clip-path="url(#p336540b4e6)" style="fill: none; stroke: #ff0000; stroke-width: 2"/>
    <path d="M 231.270779 267.060734 
L 231.270779 266.9848 
" clip-path="url(#p336540b4e6)" style="fill: none; stroke: #ff0000; stroke-width: 2"/>
    <path d="M 247.575974 269.579608 
L 247.575974 269.482719 
" clip-path="url(#p336540b4e6)" style="fill: none; stroke: #ff0000; stroke-width: 2"/>
    <path d="M 263.881169 269.608283 
L 263.881169 269.558091 
" clip-path="url(#p336540b4e6)" style="fill: none; stroke: #ff0000; stroke-width: 2"/>
    <path d="M 280.186364 269.626021 
L 280.186364 269.603228 
" clip-path="url(#p336540b4e6)" style="fill: none; stroke: #ff0000; stroke-width: 2"/>
   </g>
   <g id="line2d_11">
    <defs>
     <path id="m4c00aee1dc" d="M 3 0 
L -3 -0 
" style="stroke: #ff0000; stroke-width: 2"/>
    </defs>
    <g clip-path="url(#p336540b4e6)">
     <use xlink:href="#m4c00aee1dc" x="51.913636" y="126.396281" style="fill: #ff0000; stroke: #ff0000; stroke-width: 2"/>
     <use xlink:href="#m4c00aee1dc" x="68.218831" y="131.035605" style="fill: #ff0000; stroke: #ff0000; stroke-width: 2"/>
     <use xlink:href="#m4c00aee1dc" x="84.524026" y="135.9383" style="fill: #ff0000; stroke: #ff0000; stroke-width: 2"/>
     <use xlink:href="#m4c00aee1dc" x="100.829221" y="148.82586" style="fill: #ff0000; stroke: #ff0000; stroke-width: 2"/>
     <use xlink:href="#m4c00aee1dc" x="117.134416" y="163.65944" style="fill: #ff0000; stroke: #ff0000; stroke-width: 2"/>
     <use xlink:href="#m4c00aee1dc" x="133.43961" y="180.301864" style="fill: #ff0000; stroke: #ff0000; stroke-width: 2"/>
     <use xlink:href="#m4c00aee1dc" x="149.744805" y="198.753657" style="fill: #ff0000; stroke: #ff0000; stroke-width: 2"/>
     <use xlink:href="#m4c00aee1dc" x="166.05" y="217.810913" style="fill: #ff0000; stroke: #ff0000; stroke-width: 2"/>
     <use xlink:href="#m4c00aee1dc" x="182.355195" y="233.615701" style="fill: #ff0000; stroke: #ff0000; stroke-width: 2"/>
     <use xlink:href="#m4c00aee1dc" x="198.66039" y="245.216425" style="fill: #ff0000; stroke: #ff0000; stroke-width: 2"/>
     <use xlink:href="#m4c00aee1dc" x="214.965584" y="258.390796" style="fill: #ff0000; stroke: #ff0000; stroke-width: 2"/>
     <use xlink:href="#m4c00aee1dc" x="231.270779" y="267.060734" style="fill: #ff0000; stroke: #ff0000; stroke-width: 2"/>
     <use xlink:href="#m4c00aee1dc" x="247.575974" y="269.579608" style="fill: #ff0000; stroke: #ff0000; stroke-width: 2"/>
     <use xlink:href="#m4c00aee1dc" x="263.881169" y="269.608283" style="fill: #ff0000; stroke: #ff0000; stroke-width: 2"/>
     <use xlink:href="#m4c00aee1dc" x="280.186364" y="269.626021" style="fill: #ff0000; stroke: #ff0000; stroke-width: 2"/>
    </g>
   </g>
   <g id="line2d_12">
    <g clip-path="url(#p336540b4e6)">
     <use xlink:href="#m4c00aee1dc" x="51.913636" y="125.612676" style="fill: #ff0000; stroke: #ff0000; stroke-width: 2"/>
     <use xlink:href="#m4c00aee1dc" x="68.218831" y="129.876927" style="fill: #ff0000; stroke: #ff0000; stroke-width: 2"/>
     <use xlink:href="#m4c00aee1dc" x="84.524026" y="134.831824" style="fill: #ff0000; stroke: #ff0000; stroke-width: 2"/>
     <use xlink:href="#m4c00aee1dc" x="100.829221" y="148.155366" style="fill: #ff0000; stroke: #ff0000; stroke-width: 2"/>
     <use xlink:href="#m4c00aee1dc" x="117.134416" y="161.683172" style="fill: #ff0000; stroke: #ff0000; stroke-width: 2"/>
     <use xlink:href="#m4c00aee1dc" x="133.43961" y="179.415738" style="fill: #ff0000; stroke: #ff0000; stroke-width: 2"/>
     <use xlink:href="#m4c00aee1dc" x="149.744805" y="198.218282" style="fill: #ff0000; stroke: #ff0000; stroke-width: 2"/>
     <use xlink:href="#m4c00aee1dc" x="166.05" y="217.422196" style="fill: #ff0000; stroke: #ff0000; stroke-width: 2"/>
     <use xlink:href="#m4c00aee1dc" x="182.355195" y="233.087595" style="fill: #ff0000; stroke: #ff0000; stroke-width: 2"/>
     <use xlink:href="#m4c00aee1dc" x="198.66039" y="244.633008" style="fill: #ff0000; stroke: #ff0000; stroke-width: 2"/>
     <use xlink:href="#m4c00aee1dc" x="214.965584" y="258.198074" style="fill: #ff0000; stroke: #ff0000; stroke-width: 2"/>
     <use xlink:href="#m4c00aee1dc" x="231.270779" y="266.9848" style="fill: #ff0000; stroke: #ff0000; stroke-width: 2"/>
     <use xlink:href="#m4c00aee1dc" x="247.575974" y="269.482719" style="fill: #ff0000; stroke: #ff0000; stroke-width: 2"/>
     <use xlink:href="#m4c00aee1dc" x="263.881169" y="269.558091" style="fill: #ff0000; stroke: #ff0000; stroke-width: 2"/>
     <use xlink:href="#m4c00aee1dc" x="280.186364" y="269.603228" style="fill: #ff0000; stroke: #ff0000; stroke-width: 2"/>
    </g>
   </g>
   <g id="line2d_13">
    <path d="M 51.913636 104.38053 
L 68.218831 111.245368 
L 84.524026 121.8323 
L 100.829221 133.686733 
L 117.134416 148.257954 
L 133.43961 166.912987 
L 149.744805 187.529151 
L 166.05 211.526196 
L 182.355195 233.78437 
L 198.66039 250.114842 
L 214.965584 262.309443 
L 231.270779 270.617362 
L 247.575974 273.07613 
L 263.881169 273.177727 
L 280.186364 273.180385 
" clip-path="url(#p336540b4e6)" style="fill: none; stroke: #000000; stroke-width: 1.5; stroke-linecap: square"/>
   </g>
   <g id="LineCollection_2">
    <path d="M 51.913636 104.825305 
L 51.913636 103.935755 
" clip-path="url(#p336540b4e6)" style="fill: none; stroke: #000000; stroke-width: 2"/>
    <path d="M 68.218831 112.222852 
L 68.218831 110.267883 
" clip-path="url(#p336540b4e6)" style="fill: none; stroke: #000000; stroke-width: 2"/>
    <path d="M 84.524026 122.312676 
L 84.524026 121.351924 
" clip-path="url(#p336540b4e6)" style="fill: none; stroke: #000000; stroke-width: 2"/>
    <path d="M 100.829221 134.158322 
L 100.829221 133.215145 
" clip-path="url(#p336540b4e6)" style="fill: none; stroke: #000000; stroke-width: 2"/>
    <path d="M 117.134416 148.736749 
L 117.134416 147.77916 
" clip-path="url(#p336540b4e6)" style="fill: none; stroke: #000000; stroke-width: 2"/>
    <path d="M 133.43961 167.070822 
L 133.43961 166.755153 
" clip-path="url(#p336540b4e6)" style="fill: none; stroke: #000000; stroke-width: 2"/>
    <path d="M 149.744805 187.87231 
L 149.744805 187.185993 
" clip-path="url(#p336540b4e6)" style="fill: none; stroke: #000000; stroke-width: 2"/>
    <path d="M 166.05 211.746277 
L 166.05 211.306115 
" clip-path="url(#p336540b4e6)" style="fill: none; stroke: #000000; stroke-width: 2"/>
    <path d="M 182.355195 233.980268 
L 182.355195 233.588472 
" clip-path="url(#p336540b4e6)" style="fill: none; stroke: #000000; stroke-width: 2"/>
    <path d="M 198.66039 250.179063 
L 198.66039 250.050621 
" clip-path="url(#p336540b4e6)" style="fill: none; stroke: #000000; stroke-width: 2"/>
    <path d="M 214.965584 262.40745 
L 214.965584 262.211436 
" clip-path="url(#p336540b4e6)" style="fill: none; stroke: #000000; stroke-width: 2"/>
    <path d="M 231.270779 270.653957 
L 231.270779 270.580767 
" clip-path="url(#p336540b4e6)" style="fill: none; stroke: #000000; stroke-width: 2"/>
    <path d="M 247.575974 273.112306 
L 247.575974 273.039954 
" clip-path="url(#p336540b4e6)" style="fill: none; stroke: #000000; stroke-width: 2"/>
    <path d="M 263.881169 273.195881 
L 263.881169 273.159572 
" clip-path="url(#p336540b4e6)" style="fill: none; stroke: #000000; stroke-width: 2"/>
    <path d="M 280.186364 273.205915 
L 280.186364 273.154856 
" clip-path="url(#p336540b4e6)" style="fill: none; stroke: #000000; stroke-width: 2"/>
   </g>
   <g id="line2d_14">
    <defs>
     <path id="m7e461d3e09" d="M 3 0 
L -3 -0 
" style="stroke: #000000; stroke-width: 2"/>
    </defs>
    <g clip-path="url(#p336540b4e6)">
     <use xlink:href="#m7e461d3e09" x="51.913636" y="104.825305" style="stroke: #000000; stroke-width: 2"/>
     <use xlink:href="#m7e461d3e09" x="68.218831" y="112.222852" style="stroke: #000000; stroke-width: 2"/>
     <use xlink:href="#m7e461d3e09" x="84.524026" y="122.312676" style="stroke: #000000; stroke-width: 2"/>
     <use xlink:href="#m7e461d3e09" x="100.829221" y="134.158322" style="stroke: #000000; stroke-width: 2"/>
     <use xlink:href="#m7e461d3e09" x="117.134416" y="148.736749" style="stroke: #000000; stroke-width: 2"/>
     <use xlink:href="#m7e461d3e09" x="133.43961" y="167.070822" style="stroke: #000000; stroke-width: 2"/>
     <use xlink:href="#m7e461d3e09" x="149.744805" y="187.87231" style="stroke: #000000; stroke-width: 2"/>
     <use xlink:href="#m7e461d3e09" x="166.05" y="211.746277" style="stroke: #000000; stroke-width: 2"/>
     <use xlink:href="#m7e461d3e09" x="182.355195" y="233.980268" style="stroke: #000000; stroke-width: 2"/>
     <use xlink:href="#m7e461d3e09" x="198.66039" y="250.179063" style="stroke: #000000; stroke-width: 2"/>
     <use xlink:href="#m7e461d3e09" x="214.965584" y="262.40745" style="stroke: #000000; stroke-width: 2"/>
     <use xlink:href="#m7e461d3e09" x="231.270779" y="270.653957" style="stroke: #000000; stroke-width: 2"/>
     <use xlink:href="#m7e461d3e09" x="247.575974" y="273.112306" style="stroke: #000000; stroke-width: 2"/>
     <use xlink:href="#m7e461d3e09" x="263.881169" y="273.195881" style="stroke: #000000; stroke-width: 2"/>
     <use xlink:href="#m7e461d3e09" x="280.186364" y="273.205915" style="stroke: #000000; stroke-width: 2"/>
    </g>
   </g>
   <g id="line2d_15">
    <g clip-path="url(#p336540b4e6)">
     <use xlink:href="#m7e461d3e09" x="51.913636" y="103.935755" style="stroke: #000000; stroke-width: 2"/>
     <use xlink:href="#m7e461d3e09" x="68.218831" y="110.267883" style="stroke: #000000; stroke-width: 2"/>
     <use xlink:href="#m7e461d3e09" x="84.524026" y="121.351924" style="stroke: #000000; stroke-width: 2"/>
     <use xlink:href="#m7e461d3e09" x="100.829221" y="133.215145" style="stroke: #000000; stroke-width: 2"/>
     <use xlink:href="#m7e461d3e09" x="117.134416" y="147.77916" style="stroke: #000000; stroke-width: 2"/>
     <use xlink:href="#m7e461d3e09" x="133.43961" y="166.755153" style="stroke: #000000; stroke-width: 2"/>
     <use xlink:href="#m7e461d3e09" x="149.744805" y="187.185993" style="stroke: #000000; stroke-width: 2"/>
     <use xlink:href="#m7e461d3e09" x="166.05" y="211.306115" style="stroke: #000000; stroke-width: 2"/>
     <use xlink:href="#m7e461d3e09" x="182.355195" y="233.588472" style="stroke: #000000; stroke-width: 2"/>
     <use xlink:href="#m7e461d3e09" x="198.66039" y="250.050621" style="stroke: #000000; stroke-width: 2"/>
     <use xlink:href="#m7e461d3e09" x="214.965584" y="262.211436" style="stroke: #000000; stroke-width: 2"/>
     <use xlink:href="#m7e461d3e09" x="231.270779" y="270.580767" style="stroke: #000000; stroke-width: 2"/>
     <use xlink:href="#m7e461d3e09" x="247.575974" y="273.039954" style="stroke: #000000; stroke-width: 2"/>
     <use xlink:href="#m7e461d3e09" x="263.881169" y="273.159572" style="stroke: #000000; stroke-width: 2"/>
     <use xlink:href="#m7e461d3e09" x="280.186364" y="273.154856" style="stroke: #000000; stroke-width: 2"/>
    </g>
   </g>
   <g id="line2d_16">
    <path d="M 51.913636 79.587915 
L 68.218831 87.355229 
L 84.524026 98.963812 
L 100.829221 116.70694 
L 117.134416 137.284516 
L 133.43961 159.173627 
L 149.744805 181.656614 
L 166.05 206.48885 
L 182.355195 231.499907 
L 198.66039 252.334691 
L 214.965584 265.246816 
L 231.270779 272.986502 
L 247.575974 275.466064 
L 263.881169 275.529469 
L 280.186364 275.591362 
" clip-path="url(#p336540b4e6)" style="fill: none; stroke: #0000ff; stroke-width: 1.5; stroke-linecap: square"/>
   </g>
   <g id="LineCollection_3">
    <path d="M 51.913636 80.648847 
L 51.913636 78.526983 
" clip-path="url(#p336540b4e6)" style="fill: none; stroke: #0000ff; stroke-width: 2"/>
    <path d="M 68.218831 88.165965 
L 68.218831 86.544494 
" clip-path="url(#p336540b4e6)" style="fill: none; stroke: #0000ff; stroke-width: 2"/>
    <path d="M 84.524026 99.79866 
L 84.524026 98.128964 
" clip-path="url(#p336540b4e6)" style="fill: none; stroke: #0000ff; stroke-width: 2"/>
    <path d="M 100.829221 116.986979 
L 100.829221 116.4269 
" clip-path="url(#p336540b4e6)" style="fill: none; stroke: #0000ff; stroke-width: 2"/>
    <path d="M 117.134416 137.605148 
L 117.134416 136.963883 
" clip-path="url(#p336540b4e6)" style="fill: none; stroke: #0000ff; stroke-width: 2"/>
    <path d="M 133.43961 159.686495 
L 133.43961 158.660759 
" clip-path="url(#p336540b4e6)" style="fill: none; stroke: #0000ff; stroke-width: 2"/>
    <path d="M 149.744805 182.226757 
L 149.744805 181.086471 
" clip-path="url(#p336540b4e6)" style="fill: none; stroke: #0000ff; stroke-width: 2"/>
    <path d="M 166.05 206.659373 
L 166.05 206.318327 
" clip-path="url(#p336540b4e6)" style="fill: none; stroke: #0000ff; stroke-width: 2"/>
    <path d="M 182.355195 231.62984 
L 182.355195 231.369974 
" clip-path="url(#p336540b4e6)" style="fill: none; stroke: #0000ff; stroke-width: 2"/>
    <path d="M 198.66039 252.435364 
L 198.66039 252.234017 
" clip-path="url(#p336540b4e6)" style="fill: none; stroke: #0000ff; stroke-width: 2"/>
    <path d="M 214.965584 265.3119 
L 214.965584 265.181732 
" clip-path="url(#p336540b4e6)" style="fill: none; stroke: #0000ff; stroke-width: 2"/>
    <path d="M 231.270779 273.015187 
L 231.270779 272.957818 
" clip-path="url(#p336540b4e6)" style="fill: none; stroke: #0000ff; stroke-width: 2"/>
    <path d="M 247.575974 275.480852 
L 247.575974 275.451275 
" clip-path="url(#p336540b4e6)" style="fill: none; stroke: #0000ff; stroke-width: 2"/>
    <path d="M 263.881169 275.554369 
L 263.881169 275.504569 
" clip-path="url(#p336540b4e6)" style="fill: none; stroke: #0000ff; stroke-width: 2"/>
    <path d="M 280.186364 275.606197 
L 280.186364 275.576527 
" clip-path="url(#p336540b4e6)" style="fill: none; stroke: #0000ff; stroke-width: 2"/>
   </g>
   <g id="line2d_17">
    <defs>
     <path id="m23d6567851" d="M 3 0 
L -3 -0 
" style="stroke: #0000ff; stroke-width: 2"/>
    </defs>
    <g clip-path="url(#p336540b4e6)">
     <use xlink:href="#m23d6567851" x="51.913636" y="80.648847" style="fill: #0000ff; stroke: #0000ff; stroke-width: 2"/>
     <use xlink:href="#m23d6567851" x="68.218831" y="88.165965" style="fill: #0000ff; stroke: #0000ff; stroke-width: 2"/>
     <use xlink:href="#m23d6567851" x="84.524026" y="99.79866" style="fill: #0000ff; stroke: #0000ff; stroke-width: 2"/>
     <use xlink:href="#m23d6567851" x="100.829221" y="116.986979" style="fill: #0000ff; stroke: #0000ff; stroke-width: 2"/>
     <use xlink:href="#m23d6567851" x="117.134416" y="137.605148" style="fill: #0000ff; stroke: #0000ff; stroke-width: 2"/>
     <use xlink:href="#m23d6567851" x="133.43961" y="159.686495" style="fill: #0000ff; stroke: #0000ff; stroke-width: 2"/>
     <use xlink:href="#m23d6567851" x="149.744805" y="182.226757" style="fill: #0000ff; stroke: #0000ff; stroke-width: 2"/>
     <use xlink:href="#m23d6567851" x="166.05" y="206.659373" style="fill: #0000ff; stroke: #0000ff; stroke-width: 2"/>
     <use xlink:href="#m23d6567851" x="182.355195" y="231.62984" style="fill: #0000ff; stroke: #0000ff; stroke-width: 2"/>
     <use xlink:href="#m23d6567851" x="198.66039" y="252.435364" style="fill: #0000ff; stroke: #0000ff; stroke-width: 2"/>
     <use xlink:href="#m23d6567851" x="214.965584" y="265.3119" style="fill: #0000ff; stroke: #0000ff; stroke-width: 2"/>
     <use xlink:href="#m23d6567851" x="231.270779" y="273.015187" style="fill: #0000ff; stroke: #0000ff; stroke-width: 2"/>
     <use xlink:href="#m23d6567851" x="247.575974" y="275.480852" style="fill: #0000ff; stroke: #0000ff; stroke-width: 2"/>
     <use xlink:href="#m23d6567851" x="263.881169" y="275.554369" style="fill: #0000ff; stroke: #0000ff; stroke-width: 2"/>
     <use xlink:href="#m23d6567851" x="280.186364" y="275.606197" style="fill: #0000ff; stroke: #0000ff; stroke-width: 2"/>
    </g>
   </g>
   <g id="line2d_18">
    <g clip-path="url(#p336540b4e6)">
     <use xlink:href="#m23d6567851" x="51.913636" y="78.526983" style="fill: #0000ff; stroke: #0000ff; stroke-width: 2"/>
     <use xlink:href="#m23d6567851" x="68.218831" y="86.544494" style="fill: #0000ff; stroke: #0000ff; stroke-width: 2"/>
     <use xlink:href="#m23d6567851" x="84.524026" y="98.128964" style="fill: #0000ff; stroke: #0000ff; stroke-width: 2"/>
     <use xlink:href="#m23d6567851" x="100.829221" y="116.4269" style="fill: #0000ff; stroke: #0000ff; stroke-width: 2"/>
     <use xlink:href="#m23d6567851" x="117.134416" y="136.963883" style="fill: #0000ff; stroke: #0000ff; stroke-width: 2"/>
     <use xlink:href="#m23d6567851" x="133.43961" y="158.660759" style="fill: #0000ff; stroke: #0000ff; stroke-width: 2"/>
     <use xlink:href="#m23d6567851" x="149.744805" y="181.086471" style="fill: #0000ff; stroke: #0000ff; stroke-width: 2"/>
     <use xlink:href="#m23d6567851" x="166.05" y="206.318327" style="fill: #0000ff; stroke: #0000ff; stroke-width: 2"/>
     <use xlink:href="#m23d6567851" x="182.355195" y="231.369974" style="fill: #0000ff; stroke: #0000ff; stroke-width: 2"/>
     <use xlink:href="#m23d6567851" x="198.66039" y="252.234017" style="fill: #0000ff; stroke: #0000ff; stroke-width: 2"/>
     <use xlink:href="#m23d6567851" x="214.965584" y="265.181732" style="fill: #0000ff; stroke: #0000ff; stroke-width: 2"/>
     <use xlink:href="#m23d6567851" x="231.270779" y="272.957818" style="fill: #0000ff; stroke: #0000ff; stroke-width: 2"/>
     <use xlink:href="#m23d6567851" x="247.575974" y="275.451275" style="fill: #0000ff; stroke: #0000ff; stroke-width: 2"/>
     <use xlink:href="#m23d6567851" x="263.881169" y="275.504569" style="fill: #0000ff; stroke: #0000ff; stroke-width: 2"/>
     <use xlink:href="#m23d6567851" x="280.186364" y="275.576527" style="fill: #0000ff; stroke: #0000ff; stroke-width: 2"/>
    </g>
   </g>
   <g id="line2d_19">
    <path d="M 51.913636 56.241351 
L 68.218831 63.47164 
L 84.524026 80.464835 
L 100.829221 99.018522 
L 117.134416 121.826665 
L 133.43961 147.374306 
L 149.744805 176.585038 
L 166.05 204.568223 
L 182.355195 230.647637 
L 198.66039 253.423352 
L 214.965584 267.58908 
L 231.270779 274.747827 
L 247.575974 277.138699 
L 263.881169 277.255882 
L 280.186364 277.242333 
" clip-path="url(#p336540b4e6)" style="fill: none; stroke: #bf00bf; stroke-width: 1.5; stroke-linecap: square"/>
   </g>
   <g id="LineCollection_4">
    <path d="M 51.913636 57.039143 
L 51.913636 55.443558 
" clip-path="url(#p336540b4e6)" style="fill: none; stroke: #bf00bf; stroke-width: 2"/>
    <path d="M 68.218831 64.341268 
L 68.218831 62.602012 
" clip-path="url(#p336540b4e6)" style="fill: none; stroke: #bf00bf; stroke-width: 2"/>
    <path d="M 84.524026 81.5452 
L 84.524026 79.38447 
" clip-path="url(#p336540b4e6)" style="fill: none; stroke: #bf00bf; stroke-width: 2"/>
    <path d="M 100.829221 99.542047 
L 100.829221 98.494998 
" clip-path="url(#p336540b4e6)" style="fill: none; stroke: #bf00bf; stroke-width: 2"/>
    <path d="M 117.134416 122.240633 
L 117.134416 121.412697 
" clip-path="url(#p336540b4e6)" style="fill: none; stroke: #bf00bf; stroke-width: 2"/>
    <path d="M 133.43961 147.786488 
L 133.43961 146.962123 
" clip-path="url(#p336540b4e6)" style="fill: none; stroke: #bf00bf; stroke-width: 2"/>
    <path d="M 149.744805 176.834721 
L 149.744805 176.335356 
" clip-path="url(#p336540b4e6)" style="fill: none; stroke: #bf00bf; stroke-width: 2"/>
    <path d="M 166.05 204.957779 
L 166.05 204.178666 
" clip-path="url(#p336540b4e6)" style="fill: none; stroke: #bf00bf; stroke-width: 2"/>
    <path d="M 182.355195 230.793818 
L 182.355195 230.501457 
" clip-path="url(#p336540b4e6)" style="fill: none; stroke: #bf00bf; stroke-width: 2"/>
    <path d="M 198.66039 253.610157 
L 198.66039 253.236548 
" clip-path="url(#p336540b4e6)" style="fill: none; stroke: #bf00bf; stroke-width: 2"/>
    <path d="M 214.965584 267.646494 
L 214.965584 267.531666 
" clip-path="url(#p336540b4e6)" style="fill: none; stroke: #bf00bf; stroke-width: 2"/>
    <path d="M 231.270779 274.763979 
L 231.270779 274.731674 
" clip-path="url(#p336540b4e6)" style="fill: none; stroke: #bf00bf; stroke-width: 2"/>
    <path d="M 247.575974 277.150937 
L 247.575974 277.126461 
" clip-path="url(#p336540b4e6)" style="fill: none; stroke: #bf00bf; stroke-width: 2"/>
    <path d="M 263.881169 277.268741 
L 263.881169 277.243023 
" clip-path="url(#p336540b4e6)" style="fill: none; stroke: #bf00bf; stroke-width: 2"/>
    <path d="M 280.186364 277.253457 
L 280.186364 277.23121 
" clip-path="url(#p336540b4e6)" style="fill: none; stroke: #bf00bf; stroke-width: 2"/>
   </g>
   <g id="line2d_20">
    <defs>
     <path id="m689b3b4880" d="M 3 0 
L -3 -0 
" style="stroke: #bf00bf; stroke-width: 2"/>
    </defs>
    <g clip-path="url(#p336540b4e6)">
     <use xlink:href="#m689b3b4880" x="51.913636" y="57.039143" style="fill: #bf00bf; stroke: #bf00bf; stroke-width: 2"/>
     <use xlink:href="#m689b3b4880" x="68.218831" y="64.341268" style="fill: #bf00bf; stroke: #bf00bf; stroke-width: 2"/>
     <use xlink:href="#m689b3b4880" x="84.524026" y="81.5452" style="fill: #bf00bf; stroke: #bf00bf; stroke-width: 2"/>
     <use xlink:href="#m689b3b4880" x="100.829221" y="99.542047" style="fill: #bf00bf; stroke: #bf00bf; stroke-width: 2"/>
     <use xlink:href="#m689b3b4880" x="117.134416" y="122.240633" style="fill: #bf00bf; stroke: #bf00bf; stroke-width: 2"/>
     <use xlink:href="#m689b3b4880" x="133.43961" y="147.786488" style="fill: #bf00bf; stroke: #bf00bf; stroke-width: 2"/>
     <use xlink:href="#m689b3b4880" x="149.744805" y="176.834721" style="fill: #bf00bf; stroke: #bf00bf; stroke-width: 2"/>
     <use xlink:href="#m689b3b4880" x="166.05" y="204.957779" style="fill: #bf00bf; stroke: #bf00bf; stroke-width: 2"/>
     <use xlink:href="#m689b3b4880" x="182.355195" y="230.793818" style="fill: #bf00bf; stroke: #bf00bf; stroke-width: 2"/>
     <use xlink:href="#m689b3b4880" x="198.66039" y="253.610157" style="fill: #bf00bf; stroke: #bf00bf; stroke-width: 2"/>
     <use xlink:href="#m689b3b4880" x="214.965584" y="267.646494" style="fill: #bf00bf; stroke: #bf00bf; stroke-width: 2"/>
     <use xlink:href="#m689b3b4880" x="231.270779" y="274.763979" style="fill: #bf00bf; stroke: #bf00bf; stroke-width: 2"/>
     <use xlink:href="#m689b3b4880" x="247.575974" y="277.150937" style="fill: #bf00bf; stroke: #bf00bf; stroke-width: 2"/>
     <use xlink:href="#m689b3b4880" x="263.881169" y="277.268741" style="fill: #bf00bf; stroke: #bf00bf; stroke-width: 2"/>
     <use xlink:href="#m689b3b4880" x="280.186364" y="277.253457" style="fill: #bf00bf; stroke: #bf00bf; stroke-width: 2"/>
    </g>
   </g>
   <g id="line2d_21">
    <g clip-path="url(#p336540b4e6)">
     <use xlink:href="#m689b3b4880" x="51.913636" y="55.443558" style="fill: #bf00bf; stroke: #bf00bf; stroke-width: 2"/>
     <use xlink:href="#m689b3b4880" x="68.218831" y="62.602012" style="fill: #bf00bf; stroke: #bf00bf; stroke-width: 2"/>
     <use xlink:href="#m689b3b4880" x="84.524026" y="79.38447" style="fill: #bf00bf; stroke: #bf00bf; stroke-width: 2"/>
     <use xlink:href="#m689b3b4880" x="100.829221" y="98.494998" style="fill: #bf00bf; stroke: #bf00bf; stroke-width: 2"/>
     <use xlink:href="#m689b3b4880" x="117.134416" y="121.412697" style="fill: #bf00bf; stroke: #bf00bf; stroke-width: 2"/>
     <use xlink:href="#m689b3b4880" x="133.43961" y="146.962123" style="fill: #bf00bf; stroke: #bf00bf; stroke-width: 2"/>
     <use xlink:href="#m689b3b4880" x="149.744805" y="176.335356" style="fill: #bf00bf; stroke: #bf00bf; stroke-width: 2"/>
     <use xlink:href="#m689b3b4880" x="166.05" y="204.178666" style="fill: #bf00bf; stroke: #bf00bf; stroke-width: 2"/>
     <use xlink:href="#m689b3b4880" x="182.355195" y="230.501457" style="fill: #bf00bf; stroke: #bf00bf; stroke-width: 2"/>
     <use xlink:href="#m689b3b4880" x="198.66039" y="253.236548" style="fill: #bf00bf; stroke: #bf00bf; stroke-width: 2"/>
     <use xlink:href="#m689b3b4880" x="214.965584" y="267.531666" style="fill: #bf00bf; stroke: #bf00bf; stroke-width: 2"/>
     <use xlink:href="#m689b3b4880" x="231.270779" y="274.731674" style="fill: #bf00bf; stroke: #bf00bf; stroke-width: 2"/>
     <use xlink:href="#m689b3b4880" x="247.575974" y="277.126461" style="fill: #bf00bf; stroke: #bf00bf; stroke-width: 2"/>
     <use xlink:href="#m689b3b4880" x="263.881169" y="277.243023" style="fill: #bf00bf; stroke: #bf00bf; stroke-width: 2"/>
     <use xlink:href="#m689b3b4880" x="280.186364" y="277.23121" style="fill: #bf00bf; stroke: #bf00bf; stroke-width: 2"/>
    </g>
   </g>
   <g id="line2d_22">
    <path d="M 51.913636 126.004479 
L 68.218831 130.456266 
L 84.524026 135.385062 
L 100.829221 148.490613 
L 117.134416 162.671306 
L 133.43961 179.858801 
L 149.744805 198.485969 
L 166.05 217.616555 
L 182.355195 233.351648 
L 198.66039 244.924716 
L 214.965584 258.294435 
L 231.270779 267.022767 
L 247.575974 269.531164 
L 263.881169 269.583187 
L 280.186364 269.614625 
" clip-path="url(#p336540b4e6)" style="fill: none; stroke: #ff0000; stroke-width: 1.5; stroke-linecap: square"/>
   </g>
   <g id="line2d_23">
    <path d="M 51.913636 104.38053 
L 68.218831 111.245368 
L 84.524026 121.8323 
L 100.829221 133.686733 
L 117.134416 148.257954 
L 133.43961 166.912987 
L 149.744805 187.529151 
L 166.05 211.526196 
L 182.355195 233.78437 
L 198.66039 250.114842 
L 214.965584 262.309443 
L 231.270779 270.617362 
L 247.575974 273.07613 
L 263.881169 273.177727 
L 280.186364 273.180385 
" clip-path="url(#p336540b4e6)" style="fill: none; stroke: #000000; stroke-width: 1.5; stroke-linecap: square"/>
   </g>
   <g id="line2d_24">
    <path d="M 51.913636 79.587915 
L 68.218831 87.355229 
L 84.524026 98.963812 
L 100.829221 116.70694 
L 117.134416 137.284516 
L 133.43961 159.173627 
L 149.744805 181.656614 
L 166.05 206.48885 
L 182.355195 231.499907 
L 198.66039 252.334691 
L 214.965584 265.246816 
L 231.270779 272.986502 
L 247.575974 275.466064 
L 263.881169 275.529469 
L 280.186364 275.591362 
" clip-path="url(#p336540b4e6)" style="fill: none; stroke: #0000ff; stroke-width: 1.5; stroke-linecap: square"/>
   </g>
   <g id="line2d_25">
    <path d="M 51.913636 56.241351 
L 68.218831 63.47164 
L 84.524026 80.464835 
L 100.829221 99.018522 
L 117.134416 121.826665 
L 133.43961 147.374306 
L 149.744805 176.585038 
L 166.05 204.568223 
L 182.355195 230.647637 
L 198.66039 253.423352 
L 214.965584 267.58908 
L 231.270779 274.747827 
L 247.575974 277.138699 
L 263.881169 277.255882 
L 280.186364 277.242333 
" clip-path="url(#p336540b4e6)" style="fill: none; stroke: #bf00bf; stroke-width: 1.5; stroke-linecap: square"/>
   </g>
   <g id="patch_3">
    <path d="M 40.5 288.36 
L 40.5 38.88 
" style="fill: none; stroke: #000000; stroke-width: 1.6; stroke-linejoin: miter; stroke-linecap: square"/>
   </g>
   <g id="patch_4">
    <path d="M 291.6 288.36 
L 291.6 38.88 
" style="fill: none; stroke: #000000; stroke-width: 1.6; stroke-linejoin: miter; stroke-linecap: square"/>
   </g>
   <g id="patch_5">
    <path d="M 40.5 288.36 
L 291.6 288.36 
" style="fill: none; stroke: #000000; stroke-width: 1.6; stroke-linejoin: miter; stroke-linecap: square"/>
   </g>
   <g id="patch_6">
    <path d="M 40.5 38.88 
L 291.6 38.88 
" style="fill: none; stroke: #000000; stroke-width: 1.6; stroke-linejoin: miter; stroke-linecap: square"/>
   </g>
   <g id="legend_1">
    <g id="patch_7">
     <path d="M 209.120625 118.935 
L 283.2 118.935 
Q 285.6 118.935 285.6 116.535 
L 285.6 47.28 
Q 285.6 44.88 283.2 44.88 
L 209.120625 44.88 
Q 206.720625 44.88 206.720625 47.28 
L 206.720625 116.535 
Q 206.720625 118.935 209.120625 118.935 
z
" style="fill: #ffffff; opacity: 0.8"/>
    </g>
    <g id="LineCollection_5">
     <path d="M 223.520625 60.598125 
L 223.520625 48.598125 
" style="fill: none; stroke: #ff0000; stroke-width: 2"/>
    </g>
    <g id="line2d_26">
     <g>
      <use xlink:href="#m4c00aee1dc" x="223.520625" y="60.598125" style="fill: #ff0000; stroke: #ff0000; stroke-width: 2"/>
     </g>
    </g>
    <g id="line2d_27">
     <g>
      <use xlink:href="#m4c00aee1dc" x="223.520625" y="48.598125" style="fill: #ff0000; stroke: #ff0000; stroke-width: 2"/>
     </g>
    </g>
    <g id="line2d_28">
     <path d="M 211.520625 54.598125 
L 235.520625 54.598125 
" style="fill: none; stroke: #ff0000; stroke-width: 1.5; stroke-linecap: square"/>
    </g>
    <g id="line2d_29"/>
    <g id="text_10">
     <!-- M=8 -->
     <g transform="translate(245.120625 58.798125) scale(0.12 -0.12)">
      <defs>
       <path id="DejaVuSans-4d" d="M 628 4666 
L 1569 4666 
L 2759 1491 
L 3956 4666 
L 4897 4666 
L 4897 0 
L 4281 0 
L 4281 4097 
L 3078 897 
L 2444 897 
L 1241 4097 
L 1241 0 
L 628 0 
L 628 4666 
z
" transform="scale(0.015625)"/>
       <path id="DejaVuSans-3d" d="M 678 2906 
L 4684 2906 
L 4684 2381 
L 678 2381 
L 678 2906 
z
M 678 1631 
L 4684 1631 
L 4684 1100 
L 678 1100 
L 678 1631 
z
" transform="scale(0.015625)"/>
      </defs>
      <use xlink:href="#DejaVuSans-4d"/>
      <use xlink:href="#DejaVuSans-3d" x="86.279297"/>
      <use xlink:href="#DejaVuSans-38" x="170.068359"/>
     </g>
    </g>
    <g id="LineCollection_6">
     <path d="M 223.520625 78.211875 
L 223.520625 66.211875 
" style="fill: none; stroke: #000000; stroke-width: 2"/>
    </g>
    <g id="line2d_30">
     <g>
      <use xlink:href="#m7e461d3e09" x="223.520625" y="78.211875" style="stroke: #000000; stroke-width: 2"/>
     </g>
    </g>
    <g id="line2d_31">
     <g>
      <use xlink:href="#m7e461d3e09" x="223.520625" y="66.211875" style="stroke: #000000; stroke-width: 2"/>
     </g>
    </g>
    <g id="line2d_32">
     <path d="M 211.520625 72.211875 
L 235.520625 72.211875 
" style="fill: none; stroke: #000000; stroke-width: 1.5; stroke-linecap: square"/>
    </g>
    <g id="line2d_33"/>
    <g id="text_11">
     <!-- M=10 -->
     <g transform="translate(245.120625 76.411875) scale(0.12 -0.12)">
      <use xlink:href="#DejaVuSans-4d"/>
      <use xlink:href="#DejaVuSans-3d" x="86.279297"/>
      <use xlink:href="#DejaVuSans-31" x="170.068359"/>
      <use xlink:href="#DejaVuSans-30" x="233.691406"/>
     </g>
    </g>
    <g id="LineCollection_7">
     <path d="M 223.520625 95.825625 
L 223.520625 83.825625 
" style="fill: none; stroke: #0000ff; stroke-width: 2"/>
    </g>
    <g id="line2d_34">
     <g>
      <use xlink:href="#m23d6567851" x="223.520625" y="95.825625" style="fill: #0000ff; stroke: #0000ff; stroke-width: 2"/>
     </g>
    </g>
    <g id="line2d_35">
     <g>
      <use xlink:href="#m23d6567851" x="223.520625" y="83.825625" style="fill: #0000ff; stroke: #0000ff; stroke-width: 2"/>
     </g>
    </g>
    <g id="line2d_36">
     <path d="M 211.520625 89.825625 
L 235.520625 89.825625 
" style="fill: none; stroke: #0000ff; stroke-width: 1.5; stroke-linecap: square"/>
    </g>
    <g id="line2d_37"/>
    <g id="text_12">
     <!-- M=12 -->
     <g transform="translate(245.120625 94.025625) scale(0.12 -0.12)">
      <use xlink:href="#DejaVuSans-4d"/>
      <use xlink:href="#DejaVuSans-3d" x="86.279297"/>
      <use xlink:href="#DejaVuSans-31" x="170.068359"/>
      <use xlink:href="#DejaVuSans-32" x="233.691406"/>
     </g>
    </g>
    <g id="LineCollection_8">
     <path d="M 223.520625 113.439375 
L 223.520625 101.439375 
" style="fill: none; stroke: #bf00bf; stroke-width: 2"/>
    </g>
    <g id="line2d_38">
     <g>
      <use xlink:href="#m689b3b4880" x="223.520625" y="113.439375" style="fill: #bf00bf; stroke: #bf00bf; stroke-width: 2"/>
     </g>
    </g>
    <g id="line2d_39">
     <g>
      <use xlink:href="#m689b3b4880" x="223.520625" y="101.439375" style="fill: #bf00bf; stroke: #bf00bf; stroke-width: 2"/>
     </g>
    </g>
    <g id="line2d_40">
     <path d="M 211.520625 107.439375 
L 235.520625 107.439375 
" style="fill: none; stroke: #bf00bf; stroke-width: 1.5; stroke-linecap: square"/>
    </g>
    <g id="line2d_41"/>
    <g id="text_13">
     <!-- M=14 -->
     <g transform="translate(245.120625 111.639375) scale(0.12 -0.12)">
      <defs>
       <path id="DejaVuSans-34" d="M 2419 4116 
L 825 1625 
L 2419 1625 
L 2419 4116 
z
M 2253 4666 
L 3047 4666 
L 3047 1625 
L 3713 1625 
L 3713 1100 
L 3047 1100 
L 3047 0 
L 2419 0 
L 2419 1100 
L 313 1100 
L 313 1709 
L 2253 4666 
z
" transform="scale(0.015625)"/>
      </defs>
      <use xlink:href="#DejaVuSans-4d"/>
      <use xlink:href="#DejaVuSans-3d" x="86.279297"/>
      <use xlink:href="#DejaVuSans-31" x="170.068359"/>
      <use xlink:href="#DejaVuSans-34" x="233.691406"/>
     </g>
    </g>
   </g>
  </g>
 </g>
 <defs>
  <clipPath id="p336540b4e6">
   <rect x="40.5" y="38.88" width="251.1" height="249.48"/>
  </clipPath>
 </defs>
</svg>
