<?xml version="1.0" encoding="utf-8" standalone="no"?>
<!DOCTYPE svg PUBLIC "-//W3C//DTD SVG 1.1//EN"
  "http://www.w3.org/Graphics/SVG/1.1/DTD/svg11.dtd">
<svg xmlns:xlink="http://www.w3.org/1999/xlink" width="324pt" height="324pt" viewBox="0 0 324 324" xmlns="http://www.w3.org/2000/svg" version="1.1">
 <metadata>
  <rdf:RDF xmlns:dc="http://purl.org/dc/elements/1.1/" xmlns:cc="http://creativecommons.org/ns#" xmlns:rdf="http://www.w3.org/1999/02/22-rdf-syntax-ns#">
   <cc:Work>
    <dc:type rdf:resource="http://purl.org/dc/dcmitype/StillImage"/>
    <dc:date>2026-01-02T10:40:57.934830</dc:date>
    <dc:format>image/svg+xml</dc:format>
    <dc:creator>
     <cc:Agent>
      <dc:title>Matplotlib v3.8.0, https://matplotlib.org/</dc:title>
     </cc:Agent>
    </dc:creator>
   </cc:Work>
  </rdf:RDF>
 </metadata>
 <defs>
  <style type="text/css">*{stroke-linejoin: round; stroke-linecap: butt}</style>
 </defs>
 <g id="figure_1">
  <g id="patch_1">
   <path d="M 0 324 
L 324 324 
L 324 0 
L 0 0 
z
" style="fill: #ffffff"/>
  </g>
  <g id="axes_1">
   <g id="patch_2">
    <path d="M 40.5 288.36 
L 291.6 288.36 
L 291.6 38.88 
L 40.5 38.88 
z
" style="fill: #ffffff"/>
   </g>
   <g id="matplotlib.axis_1">
    <g id="xtick_1">
     <g id="line2d_1">
      <defs>
       <path id="m084722c864" d="M 0 0 
L 0 8 
" style="stroke: #000000; stroke-width: 1.5"/>
      </defs>
      <g>
       <use xlink:href="#m084722c864" x="68.218831" y="288.36" style="stroke: #000000; stroke-width: 1.5"/>
      </g>
     </g>
     <g id="text_1">
      <!-- 6 -->
      <g transform="translate(64.401331 308.978125) scale(0.12 -0.12)">
       <defs>
        <path id="DejaVuSans-36" d="M 2113 2584 
Q 1688 2584 1439 2293 
Q 1191 2003 1191 1497 
Q 1191 994 1439 701 
Q 1688 409 2113 409 
Q 2538 409 2786 701 
Q 3034 994 3034 1497 
Q 3034 2003 2786 2293 
Q 2538 2584 2113 2584 
z
M 3366 4563 
L 3366 3988 
Q 3128 4100 2886 4159 
Q 2644 4219 2406 4219 
Q 1781 4219 1451 3797 
Q 1122 3375 1075 2522 
Q 1259 2794 1537 2939 
Q 1816 3084 2150 3084 
Q 2853 3084 3261 2657 
Q 3669 2231 3669 1497 
Q 3669 778 3244 343 
Q 2819 -91 2113 -91 
Q 1303 -91 875 529 
Q 447 1150 447 2328 
Q 447 3434 972 4092 
Q 1497 4750 2381 4750 
Q 2619 4750 2861 4703 
Q 3103 4656 3366 4563 
z
" transform="scale(0.015625)"/>
       </defs>
       <use xlink:href="#DejaVuSans-36"/>
      </g>
     </g>
    </g>
    <g id="xtick_2">
     <g id="line2d_2">
      <g>
       <use xlink:href="#m084722c864" x="149.744805" y="288.36" style="stroke: #000000; stroke-width: 1.5"/>
      </g>
     </g>
     <g id="text_2">
      <!-- 7 -->
      <g transform="translate(145.927305 308.978125) scale(0.12 -0.12)">
       <defs>
        <path id="DejaVuSans-37" d="M 525 4666 
L 3525 4666 
L 3525 4397 
L 1831 0 
L 1172 0 
L 2766 4134 
L 525 4134 
L 525 4666 
z
" transform="scale(0.015625)"/>
       </defs>
       <use xlink:href="#DejaVuSans-37"/>
      </g>
     </g>
    </g>
    <g id="xtick_3">
     <g id="line2d_3">
      <g>
       <use xlink:href="#m084722c864" x="231.270779" y="288.36" style="stroke: #000000; stroke-width: 1.5"/>
      </g>
     </g>
     <g id="text_3">
      <!-- 8 -->
      <g transform="translate(227.453279 308.978125) scale(0.12 -0.12)">
       <defs>
        <path id="DejaVuSans-38" d="M 2034 2216 
Q 1584 2216 1326 1975 
Q 1069 1734 1069 1313 
Q 1069 891 1326 650 
Q 1584 409 2034 409 
Q 2484 409 2743 651 
Q 3003 894 3003 1313 
Q 3003 1734 2745 1975 
Q 2488 2216 2034 2216 
z
M 1403 2484 
Q 997 2584 770 2862 
Q 544 3141 544 3541 
Q 544 4100 942 4425 
Q 1341 4750 2034 4750 
Q 2731 4750 3128 4425 
Q 3525 4100 3525 3541 
Q 3525 3141 3298 2862 
Q 3072 2584 2669 2484 
Q 3125 2378 3379 2068 
Q 3634 1759 3634 1313 
Q 3634 634 3220 271 
Q 2806 -91 2034 -91 
Q 1263 -91 848 271 
Q 434 634 434 1313 
Q 434 1759 690 2068 
Q 947 2378 1403 2484 
z
M 1172 3481 
Q 1172 3119 1398 2916 
Q 1625 2713 2034 2713 
Q 2441 2713 2670 2916 
Q 2900 3119 2900 3481 
Q 2900 3844 2670 4047 
Q 2441 4250 2034 4250 
Q 1625 4250 1398 4047 
Q 1172 3844 1172 3481 
z
" transform="scale(0.015625)"/>
       </defs>
       <use xlink:href="#DejaVuSans-38"/>
      </g>
     </g>
    </g>
   </g>
   <g id="matplotlib.axis_2">
    <g id="ytick_1">
     <g id="line2d_4">
      <defs>
       <path id="m7d9966d061" d="M 0 0 
L -8 0 
" style="stroke: #000000; stroke-width: 1.5"/>
      </defs>
      <g>
       <use xlink:href="#m7d9966d061" x="40.5" y="285.699784" style="stroke: #000000; stroke-width: 1.5"/>
      </g>
     </g>
     <g id="text_4">
      <!-- 0.0 -->
      <g transform="translate(9.91625 290.258847) scale(0.12 -0.12)">
       <defs>
        <path id="DejaVuSans-30" d="M 2034 4250 
Q 1547 4250 1301 3770 
Q 1056 3291 1056 2328 
Q 1056 1369 1301 889 
Q 1547 409 2034 409 
Q 2525 409 2770 889 
Q 3016 1369 3016 2328 
Q 3016 3291 2770 3770 
Q 2525 4250 2034 4250 
z
M 2034 4750 
Q 2819 4750 3233 4129 
Q 3647 3509 3647 2328 
Q 3647 1150 3233 529 
Q 2819 -91 2034 -91 
Q 1250 -91 836 529 
Q 422 1150 422 2328 
Q 422 3509 836 4129 
Q 1250 4750 2034 4750 
z
" transform="scale(0.015625)"/>
        <path id="DejaVuSans-2e" d="M 684 794 
L 1344 794 
L 1344 0 
L 684 0 
L 684 794 
z
" transform="scale(0.015625)"/>
       </defs>
       <use xlink:href="#DejaVuSans-30"/>
       <use xlink:href="#DejaVuSans-2e" x="63.623047"/>
       <use xlink:href="#DejaVuSans-30" x="95.410156"/>
      </g>
     </g>
    </g>
    <g id="ytick_2">
     <g id="line2d_5">
      <g>
       <use xlink:href="#m7d9966d061" x="40.5" y="235.216822" style="stroke: #000000; stroke-width: 1.5"/>
      </g>
     </g>
     <g id="text_5">
      <!-- 0.5 -->
      <g transform="translate(9.91625 239.775885) scale(0.12 -0.12)">
       <defs>
        <path id="DejaVuSans-35" d="M 691 4666 
L 3169 4666 
L 3169 4134 
L 1269 4134 
L 1269 2991 
Q 1406 3038 1543 3061 
Q 1681 3084 1819 3084 
Q 2600 3084 3056 2656 
Q 3513 2228 3513 1497 
Q 3513 744 3044 326 
Q 2575 -91 1722 -91 
Q 1428 -91 1123 -41 
Q 819 9 494 109 
L 494 744 
Q 775 591 1075 516 
Q 1375 441 1709 441 
Q 2250 441 2565 725 
Q 2881 1009 2881 1497 
Q 2881 1984 2565 2268 
Q 2250 2553 1709 2553 
Q 1456 2553 1204 2497 
Q 953 2441 691 2322 
L 691 4666 
z
" transform="scale(0.015625)"/>
       </defs>
       <use xlink:href="#DejaVuSans-30"/>
       <use xlink:href="#DejaVuSans-2e" x="63.623047"/>
       <use xlink:href="#DejaVuSans-35" x="95.410156"/>
      </g>
     </g>
    </g>
    <g id="ytick_3">
     <g id="line2d_6">
      <g>
       <use xlink:href="#m7d9966d061" x="40.5" y="184.733861" style="stroke: #000000; stroke-width: 1.5"/>
      </g>
     </g>
     <g id="text_6">
      <!-- 1.0 -->
      <g transform="translate(9.91625 189.292923) scale(0.12 -0.12)">
       <defs>
        <path id="DejaVuSans-31" d="M 794 531 
L 1825 531 
L 1825 4091 
L 703 3866 
L 703 4441 
L 1819 4666 
L 2450 4666 
L 2450 531 
L 3481 531 
L 3481 0 
L 794 0 
L 794 531 
z
" transform="scale(0.015625)"/>
       </defs>
       <use xlink:href="#DejaVuSans-31"/>
       <use xlink:href="#DejaVuSans-2e" x="63.623047"/>
       <use xlink:href="#DejaVuSans-30" x="95.410156"/>
      </g>
     </g>
    </g>
    <g id="ytick_4">
     <g id="line2d_7">
      <g>
       <use xlink:href="#m7d9966d061" x="40.5" y="134.250899" style="stroke: #000000; stroke-width: 1.5"/>
      </g>
     </g>
     <g id="text_7">
      <!-- 1.5 -->
      <g transform="translate(9.91625 138.809961) scale(0.12 -0.12)">
       <use xlink:href="#DejaVuSans-31"/>
       <use xlink:href="#DejaVuSans-2e" x="63.623047"/>
       <use xlink:href="#DejaVuSans-35" x="95.410156"/>
      </g>
     </g>
    </g>
    <g id="ytick_5">
     <g id="line2d_8">
      <g>
       <use xlink:href="#m7d9966d061" x="40.5" y="83.767937" style="stroke: #000000; stroke-width: 1.5"/>
      </g>
     </g>
     <g id="text_8">
      <!-- 2.0 -->
      <g transform="translate(9.91625 88.326999) scale(0.12 -0.12)">
       <defs>
        <path id="DejaVuSans-32" d="M 1228 531 
L 3431 531 
L 3431 0 
L 469 0 
L 469 531 
Q 828 903 1448 1529 
Q 2069 2156 2228 2338 
Q 2531 2678 2651 2914 
Q 2772 3150 2772 3378 
Q 2772 3750 2511 3984 
Q 2250 4219 1831 4219 
Q 1534 4219 1204 4116 
Q 875 4013 500 3803 
L 500 4441 
Q 881 4594 1212 4672 
Q 1544 4750 1819 4750 
Q 2544 4750 2975 4387 
Q 3406 4025 3406 3419 
Q 3406 3131 3298 2873 
Q 3191 2616 2906 2266 
Q 2828 2175 2409 1742 
Q 1991 1309 1228 531 
z
" transform="scale(0.015625)"/>
       </defs>
       <use xlink:href="#DejaVuSans-32"/>
       <use xlink:href="#DejaVuSans-2e" x="63.623047"/>
       <use xlink:href="#DejaVuSans-30" x="95.410156"/>
      </g>
     </g>
    </g>
   </g>
   <g id="line2d_9">
    <path d="M 51.913636 122.363372 
L 68.218831 126.914999 
L 84.524026 131.954332 
L 100.829221 145.353797 
L 117.134416 159.852518 
L 133.43961 177.425472 
L 149.744805 196.55285 
L 166.05 216.030009 
L 182.355195 232.11799 
L 198.66039 243.950604 
L 214.965584 257.674756 
L 231.270779 266.544242 
L 247.575974 269.108894 
L 263.881169 269.162084 
L 280.186364 269.194227 
" clip-path="url(#p5c404ce5ae)" style="fill: none; stroke: #ff0000; stroke-width: 1.5; stroke-linecap: square"/>
   </g>
   <g id="LineCollection_1">
    <path d="M 51.913636 122.763962 
L 51.913636 121.962783 
" clip-path="url(#p5c404ce5ae)" style="fill: none; stroke: #ff0000; stroke-width: 2"/>
    <path d="M 68.218831 127.50733 
L 68.218831 126.322667 
" clip-path="url(#p5c404ce5ae)" style="fill: none; stroke: #ff0000; stroke-width: 2"/>
    <path d="M 84.524026 132.519977 
L 84.524026 131.388687 
" clip-path="url(#p5c404ce5ae)" style="fill: none; stroke: #ff0000; stroke-width: 2"/>
    <path d="M 100.829221 145.696563 
L 100.829221 145.011032 
" clip-path="url(#p5c404ce5ae)" style="fill: none; stroke: #ff0000; stroke-width: 2"/>
    <path d="M 117.134416 160.862812 
L 117.134416 158.842223 
" clip-path="url(#p5c404ce5ae)" style="fill: none; stroke: #ff0000; stroke-width: 2"/>
    <path d="M 133.43961 177.878471 
L 133.43961 176.972473 
" clip-path="url(#p5c404ce5ae)" style="fill: none; stroke: #ff0000; stroke-width: 2"/>
    <path d="M 149.744805 196.847524 
L 149.744805 196.258175 
" clip-path="url(#p5c404ce5ae)" style="fill: none; stroke: #ff0000; stroke-width: 2"/>
    <path d="M 166.05 216.228727 
L 166.05 215.831291 
" clip-path="url(#p5c404ce5ae)" style="fill: none; stroke: #ff0000; stroke-width: 2"/>
    <path d="M 182.355195 232.387965 
L 182.355195 231.848015 
" clip-path="url(#p5c404ce5ae)" style="fill: none; stroke: #ff0000; stroke-width: 2"/>
    <path d="M 198.66039 244.248855 
L 198.66039 243.652354 
" clip-path="url(#p5c404ce5ae)" style="fill: none; stroke: #ff0000; stroke-width: 2"/>
    <path d="M 214.965584 257.770426 
L 214.965584 257.579085 
" clip-path="url(#p5c404ce5ae)" style="fill: none; stroke: #ff0000; stroke-width: 2"/>
    <path d="M 231.270779 266.583061 
L 231.270779 266.505424 
" clip-path="url(#p5c404ce5ae)" style="fill: none; stroke: #ff0000; stroke-width: 2"/>
    <path d="M 247.575974 269.158425 
L 247.575974 269.059363 
" clip-path="url(#p5c404ce5ae)" style="fill: none; stroke: #ff0000; stroke-width: 2"/>
    <path d="M 263.881169 269.187743 
L 263.881169 269.136425 
" clip-path="url(#p5c404ce5ae)" style="fill: none; stroke: #ff0000; stroke-width: 2"/>
    <path d="M 280.186364 269.205879 
L 280.186364 269.182575 
" clip-path="url(#p5c404ce5ae)" style="fill: none; stroke: #ff0000; stroke-width: 2"/>
   </g>
   <g id="line2d_10">
    <defs>
     <path id="mb269316e77" d="M 3 0 
L -3 -0 
" style="stroke: #ff0000; stroke-width: 2"/>
    </defs>
    <g clip-path="url(#p5c404ce5ae)">
     <use xlink:href="#mb269316e77" x="51.913636" y="122.763962" style="fill: #ff0000; stroke: #ff0000; stroke-width: 2"/>
     <use xlink:href="#mb269316e77" x="68.218831" y="127.50733" style="fill: #ff0000; stroke: #ff0000; stroke-width: 2"/>
     <use xlink:href="#mb269316e77" x="84.524026" y="132.519977" style="fill: #ff0000; stroke: #ff0000; stroke-width: 2"/>
     <use xlink:href="#mb269316e77" x="100.829221" y="145.696563" style="fill: #ff0000; stroke: #ff0000; stroke-width: 2"/>
     <use xlink:href="#mb269316e77" x="117.134416" y="160.862812" style="fill: #ff0000; stroke: #ff0000; stroke-width: 2"/>
     <use xlink:href="#mb269316e77" x="133.43961" y="177.878471" style="fill: #ff0000; stroke: #ff0000; stroke-width: 2"/>
     <use xlink:href="#mb269316e77" x="149.744805" y="196.847524" style="fill: #ff0000; stroke: #ff0000; stroke-width: 2"/>
     <use xlink:href="#mb269316e77" x="166.05" y="216.228727" style="fill: #ff0000; stroke: #ff0000; stroke-width: 2"/>
     <use xlink:href="#mb269316e77" x="182.355195" y="232.387965" style="fill: #ff0000; stroke: #ff0000; stroke-width: 2"/>
     <use xlink:href="#mb269316e77" x="198.66039" y="244.248855" style="fill: #ff0000; stroke: #ff0000; stroke-width: 2"/>
     <use xlink:href="#mb269316e77" x="214.965584" y="257.770426" style="fill: #ff0000; stroke: #ff0000; stroke-width: 2"/>
     <use xlink:href="#mb269316e77" x="231.270779" y="266.583061" style="fill: #ff0000; stroke: #ff0000; stroke-width: 2"/>
     <use xlink:href="#mb269316e77" x="247.575974" y="269.158425" style="fill: #ff0000; stroke: #ff0000; stroke-width: 2"/>
     <use xlink:href="#mb269316e77" x="263.881169" y="269.187743" style="fill: #ff0000; stroke: #ff0000; stroke-width: 2"/>
     <use xlink:href="#mb269316e77" x="280.186364" y="269.205879" style="fill: #ff0000; stroke: #ff0000; stroke-width: 2"/>
    </g>
   </g>
   <g id="line2d_11">
    <g clip-path="url(#p5c404ce5ae)">
     <use xlink:href="#mb269316e77" x="51.913636" y="121.962783" style="fill: #ff0000; stroke: #ff0000; stroke-width: 2"/>
     <use xlink:href="#mb269316e77" x="68.218831" y="126.322667" style="fill: #ff0000; stroke: #ff0000; stroke-width: 2"/>
     <use xlink:href="#mb269316e77" x="84.524026" y="131.388687" style="fill: #ff0000; stroke: #ff0000; stroke-width: 2"/>
     <use xlink:href="#mb269316e77" x="100.829221" y="145.011032" style="fill: #ff0000; stroke: #ff0000; stroke-width: 2"/>
     <use xlink:href="#mb269316e77" x="117.134416" y="158.842223" style="fill: #ff0000; stroke: #ff0000; stroke-width: 2"/>
     <use xlink:href="#mb269316e77" x="133.43961" y="176.972473" style="fill: #ff0000; stroke: #ff0000; stroke-width: 2"/>
     <use xlink:href="#mb269316e77" x="149.744805" y="196.258175" style="fill: #ff0000; stroke: #ff0000; stroke-width: 2"/>
     <use xlink:href="#mb269316e77" x="166.05" y="215.831291" style="fill: #ff0000; stroke: #ff0000; stroke-width: 2"/>
     <use xlink:href="#mb269316e77" x="182.355195" y="231.848015" style="fill: #ff0000; stroke: #ff0000; stroke-width: 2"/>
     <use xlink:href="#mb269316e77" x="198.66039" y="243.652354" style="fill: #ff0000; stroke: #ff0000; stroke-width: 2"/>
     <use xlink:href="#mb269316e77" x="214.965584" y="257.579085" style="fill: #ff0000; stroke: #ff0000; stroke-width: 2"/>
     <use xlink:href="#mb269316e77" x="231.270779" y="266.505424" style="fill: #ff0000; stroke: #ff0000; stroke-width: 2"/>
     <use xlink:href="#mb269316e77" x="247.575974" y="269.059363" style="fill: #ff0000; stroke: #ff0000; stroke-width: 2"/>
     <use xlink:href="#mb269316e77" x="263.881169" y="269.136425" style="fill: #ff0000; stroke: #ff0000; stroke-width: 2"/>
     <use xlink:href="#mb269316e77" x="280.186364" y="269.182575" style="fill: #ff0000; stroke: #ff0000; stroke-width: 2"/>
    </g>
   </g>
   <g id="line2d_12">
    <path d="M 51.913636 100.254469 
L 68.218831 107.273262 
L 84.524026 118.097625 
L 100.829221 130.217915 
L 117.134416 145.115921 
L 133.43961 164.189326 
L 149.744805 185.267843 
L 166.05 209.803064 
L 182.355195 232.560416 
L 198.66039 249.257128 
L 214.965584 261.725213 
L 231.270779 270.219452 
L 247.575974 272.733362 
L 263.881169 272.837238 
L 280.186364 272.839956 
" clip-path="url(#p5c404ce5ae)" style="fill: none; stroke: #000000; stroke-width: 1.5; stroke-linecap: square"/>
   </g>
   <g id="LineCollection_2">
    <path d="M 51.913636 100.709219 
L 51.913636 99.799719 
" clip-path="url(#p5c404ce5ae)" style="fill: none; stroke: #000000; stroke-width: 2"/>
    <path d="M 68.218831 108.272669 
L 68.218831 106.273856 
" clip-path="url(#p5c404ce5ae)" style="fill: none; stroke: #000000; stroke-width: 2"/>
    <path d="M 84.524026 118.588774 
L 84.524026 117.606476 
" clip-path="url(#p5c404ce5ae)" style="fill: none; stroke: #000000; stroke-width: 2"/>
    <path d="M 100.829221 130.700079 
L 100.829221 129.73575 
" clip-path="url(#p5c404ce5ae)" style="fill: none; stroke: #000000; stroke-width: 2"/>
    <path d="M 117.134416 145.605453 
L 117.134416 144.626388 
" clip-path="url(#p5c404ce5ae)" style="fill: none; stroke: #000000; stroke-width: 2"/>
    <path d="M 133.43961 164.3507 
L 133.43961 164.027951 
" clip-path="url(#p5c404ce5ae)" style="fill: none; stroke: #000000; stroke-width: 2"/>
    <path d="M 149.744805 185.618698 
L 149.744805 184.916989 
" clip-path="url(#p5c404ce5ae)" style="fill: none; stroke: #000000; stroke-width: 2"/>
    <path d="M 166.05 210.028081 
L 166.05 209.578047 
" clip-path="url(#p5c404ce5ae)" style="fill: none; stroke: #000000; stroke-width: 2"/>
    <path d="M 182.355195 232.760708 
L 182.355195 232.360125 
" clip-path="url(#p5c404ce5ae)" style="fill: none; stroke: #000000; stroke-width: 2"/>
    <path d="M 198.66039 249.322789 
L 198.66039 249.191466 
" clip-path="url(#p5c404ce5ae)" style="fill: none; stroke: #000000; stroke-width: 2"/>
    <path d="M 214.965584 261.825418 
L 214.965584 261.625009 
" clip-path="url(#p5c404ce5ae)" style="fill: none; stroke: #000000; stroke-width: 2"/>
    <path d="M 231.270779 270.256868 
L 231.270779 270.182036 
" clip-path="url(#p5c404ce5ae)" style="fill: none; stroke: #000000; stroke-width: 2"/>
    <path d="M 247.575974 272.770349 
L 247.575974 272.696375 
" clip-path="url(#p5c404ce5ae)" style="fill: none; stroke: #000000; stroke-width: 2"/>
    <path d="M 263.881169 272.855799 
L 263.881169 272.818676 
" clip-path="url(#p5c404ce5ae)" style="fill: none; stroke: #000000; stroke-width: 2"/>
    <path d="M 280.186364 272.866058 
L 280.186364 272.813854 
" clip-path="url(#p5c404ce5ae)" style="fill: none; stroke: #000000; stroke-width: 2"/>
   </g>
   <g id="line2d_13">
    <defs>
     <path id="m431c59cbfe" d="M 3 0 
L -3 -0 
" style="stroke: #000000; stroke-width: 2"/>
    </defs>
    <g clip-path="url(#p5c404ce5ae)">
     <use xlink:href="#m431c59cbfe" x="51.913636" y="100.709219" style="stroke: #000000; stroke-width: 2"/>
     <use xlink:href="#m431c59cbfe" x="68.218831" y="108.272669" style="stroke: #000000; stroke-width: 2"/>
     <use xlink:href="#m431c59cbfe" x="84.524026" y="118.588774" style="stroke: #000000; stroke-width: 2"/>
     <use xlink:href="#m431c59cbfe" x="100.829221" y="130.700079" style="stroke: #000000; stroke-width: 2"/>
     <use xlink:href="#m431c59cbfe" x="117.134416" y="145.605453" style="stroke: #000000; stroke-width: 2"/>
     <use xlink:href="#m431c59cbfe" x="133.43961" y="164.3507" style="stroke: #000000; stroke-width: 2"/>
     <use xlink:href="#m431c59cbfe" x="149.744805" y="185.618698" style="stroke: #000000; stroke-width: 2"/>
     <use xlink:href="#m431c59cbfe" x="166.05" y="210.028081" style="stroke: #000000; stroke-width: 2"/>
     <use xlink:href="#m431c59cbfe" x="182.355195" y="232.760708" style="stroke: #000000; stroke-width: 2"/>
     <use xlink:href="#m431c59cbfe" x="198.66039" y="249.322789" style="stroke: #000000; stroke-width: 2"/>
     <use xlink:href="#m431c59cbfe" x="214.965584" y="261.825418" style="stroke: #000000; stroke-width: 2"/>
     <use xlink:href="#m431c59cbfe" x="231.270779" y="270.256868" style="stroke: #000000; stroke-width: 2"/>
     <use xlink:href="#m431c59cbfe" x="247.575974" y="272.770349" style="stroke: #000000; stroke-width: 2"/>
     <use xlink:href="#m431c59cbfe" x="263.881169" y="272.855799" style="stroke: #000000; stroke-width: 2"/>
     <use xlink:href="#m431c59cbfe" x="280.186364" y="272.866058" style="stroke: #000000; stroke-width: 2"/>
    </g>
   </g>
   <g id="line2d_14">
    <g clip-path="url(#p5c404ce5ae)">
     <use xlink:href="#m431c59cbfe" x="51.913636" y="99.799719" style="stroke: #000000; stroke-width: 2"/>
     <use xlink:href="#m431c59cbfe" x="68.218831" y="106.273856" style="stroke: #000000; stroke-width: 2"/>
     <use xlink:href="#m431c59cbfe" x="84.524026" y="117.606476" style="stroke: #000000; stroke-width: 2"/>
     <use xlink:href="#m431c59cbfe" x="100.829221" y="129.73575" style="stroke: #000000; stroke-width: 2"/>
     <use xlink:href="#m431c59cbfe" x="117.134416" y="144.626388" style="stroke: #000000; stroke-width: 2"/>
     <use xlink:href="#m431c59cbfe" x="133.43961" y="164.027951" style="stroke: #000000; stroke-width: 2"/>
     <use xlink:href="#m431c59cbfe" x="149.744805" y="184.916989" style="stroke: #000000; stroke-width: 2"/>
     <use xlink:href="#m431c59cbfe" x="166.05" y="209.578047" style="stroke: #000000; stroke-width: 2"/>
     <use xlink:href="#m431c59cbfe" x="182.355195" y="232.360125" style="stroke: #000000; stroke-width: 2"/>
     <use xlink:href="#m431c59cbfe" x="198.66039" y="249.191466" style="stroke: #000000; stroke-width: 2"/>
     <use xlink:href="#m431c59cbfe" x="214.965584" y="261.625009" style="stroke: #000000; stroke-width: 2"/>
     <use xlink:href="#m431c59cbfe" x="231.270779" y="270.182036" style="stroke: #000000; stroke-width: 2"/>
     <use xlink:href="#m431c59cbfe" x="247.575974" y="272.696375" style="stroke: #000000; stroke-width: 2"/>
     <use xlink:href="#m431c59cbfe" x="263.881169" y="272.818676" style="stroke: #000000; stroke-width: 2"/>
     <use xlink:href="#m431c59cbfe" x="280.186364" y="272.813854" style="stroke: #000000; stroke-width: 2"/>
    </g>
   </g>
   <g id="line2d_15">
    <path d="M 51.913636 74.905836 
L 68.218831 82.847346 
L 84.524026 94.716271 
L 100.829221 112.85732 
L 117.134416 133.896384 
L 133.43961 156.276397 
L 149.744805 179.263604 
L 166.05 204.652746 
L 182.355195 230.22472 
L 198.66039 251.52676 
L 214.965584 264.728462 
L 231.270779 272.641725 
L 247.575974 275.176895 
L 263.881169 275.241722 
L 280.186364 275.305003 
" clip-path="url(#p5c404ce5ae)" style="fill: none; stroke: #0000ff; stroke-width: 1.5; stroke-linecap: square"/>
   </g>
   <g id="LineCollection_3">
    <path d="M 51.913636 75.990562 
L 51.913636 73.82111 
" clip-path="url(#p5c404ce5ae)" style="fill: none; stroke: #0000ff; stroke-width: 2"/>
    <path d="M 68.218831 83.676263 
L 68.218831 82.018428 
" clip-path="url(#p5c404ce5ae)" style="fill: none; stroke: #0000ff; stroke-width: 2"/>
    <path d="M 84.524026 95.569842 
L 84.524026 93.8627 
" clip-path="url(#p5c404ce5ae)" style="fill: none; stroke: #0000ff; stroke-width: 2"/>
    <path d="M 100.829221 113.143639 
L 100.829221 112.571 
" clip-path="url(#p5c404ce5ae)" style="fill: none; stroke: #0000ff; stroke-width: 2"/>
    <path d="M 117.134416 134.224207 
L 117.134416 133.568561 
" clip-path="url(#p5c404ce5ae)" style="fill: none; stroke: #0000ff; stroke-width: 2"/>
    <path d="M 133.43961 156.800767 
L 133.43961 155.752027 
" clip-path="url(#p5c404ce5ae)" style="fill: none; stroke: #0000ff; stroke-width: 2"/>
    <path d="M 149.744805 179.846534 
L 149.744805 178.680674 
" clip-path="url(#p5c404ce5ae)" style="fill: none; stroke: #0000ff; stroke-width: 2"/>
    <path d="M 166.05 204.827094 
L 166.05 204.478399 
" clip-path="url(#p5c404ce5ae)" style="fill: none; stroke: #0000ff; stroke-width: 2"/>
    <path d="M 182.355195 230.357567 
L 182.355195 230.091873 
" clip-path="url(#p5c404ce5ae)" style="fill: none; stroke: #0000ff; stroke-width: 2"/>
    <path d="M 198.66039 251.629691 
L 198.66039 251.423829 
" clip-path="url(#p5c404ce5ae)" style="fill: none; stroke: #0000ff; stroke-width: 2"/>
    <path d="M 214.965584 264.795006 
L 214.965584 264.661919 
" clip-path="url(#p5c404ce5ae)" style="fill: none; stroke: #0000ff; stroke-width: 2"/>
    <path d="M 231.270779 272.671052 
L 231.270779 272.612397 
" clip-path="url(#p5c404ce5ae)" style="fill: none; stroke: #0000ff; stroke-width: 2"/>
    <path d="M 247.575974 275.192015 
L 247.575974 275.161774 
" clip-path="url(#p5c404ce5ae)" style="fill: none; stroke: #0000ff; stroke-width: 2"/>
    <path d="M 263.881169 275.26718 
L 263.881169 275.216264 
" clip-path="url(#p5c404ce5ae)" style="fill: none; stroke: #0000ff; stroke-width: 2"/>
    <path d="M 280.186364 275.320171 
L 280.186364 275.289835 
" clip-path="url(#p5c404ce5ae)" style="fill: none; stroke: #0000ff; stroke-width: 2"/>
   </g>
   <g id="line2d_16">
    <defs>
     <path id="md53e367fca" d="M 3 0 
L -3 -0 
" style="stroke: #0000ff; stroke-width: 2"/>
    </defs>
    <g clip-path="url(#p5c404ce5ae)">
     <use xlink:href="#md53e367fca" x="51.913636" y="75.990562" style="fill: #0000ff; stroke: #0000ff; stroke-width: 2"/>
     <use xlink:href="#md53e367fca" x="68.218831" y="83.676263" style="fill: #0000ff; stroke: #0000ff; stroke-width: 2"/>
     <use xlink:href="#md53e367fca" x="84.524026" y="95.569842" style="fill: #0000ff; stroke: #0000ff; stroke-width: 2"/>
     <use xlink:href="#md53e367fca" x="100.829221" y="113.143639" style="fill: #0000ff; stroke: #0000ff; stroke-width: 2"/>
     <use xlink:href="#md53e367fca" x="117.134416" y="134.224207" style="fill: #0000ff; stroke: #0000ff; stroke-width: 2"/>
     <use xlink:href="#md53e367fca" x="133.43961" y="156.800767" style="fill: #0000ff; stroke: #0000ff; stroke-width: 2"/>
     <use xlink:href="#md53e367fca" x="149.744805" y="179.846534" style="fill: #0000ff; stroke: #0000ff; stroke-width: 2"/>
     <use xlink:href="#md53e367fca" x="166.05" y="204.827094" style="fill: #0000ff; stroke: #0000ff; stroke-width: 2"/>
     <use xlink:href="#md53e367fca" x="182.355195" y="230.357567" style="fill: #0000ff; stroke: #0000ff; stroke-width: 2"/>
     <use xlink:href="#md53e367fca" x="198.66039" y="251.629691" style="fill: #0000ff; stroke: #0000ff; stroke-width: 2"/>
     <use xlink:href="#md53e367fca" x="214.965584" y="264.795006" style="fill: #0000ff; stroke: #0000ff; stroke-width: 2"/>
     <use xlink:href="#md53e367fca" x="231.270779" y="272.671052" style="fill: #0000ff; stroke: #0000ff; stroke-width: 2"/>
     <use xlink:href="#md53e367fca" x="247.575974" y="275.192015" style="fill: #0000ff; stroke: #0000ff; stroke-width: 2"/>
     <use xlink:href="#md53e367fca" x="263.881169" y="275.26718" style="fill: #0000ff; stroke: #0000ff; stroke-width: 2"/>
     <use xlink:href="#md53e367fca" x="280.186364" y="275.320171" style="fill: #0000ff; stroke: #0000ff; stroke-width: 2"/>
    </g>
   </g>
   <g id="line2d_17">
    <g clip-path="url(#p5c404ce5ae)">
     <use xlink:href="#md53e367fca" x="51.913636" y="73.82111" style="fill: #0000ff; stroke: #0000ff; stroke-width: 2"/>
     <use xlink:href="#md53e367fca" x="68.218831" y="82.018428" style="fill: #0000ff; stroke: #0000ff; stroke-width: 2"/>
     <use xlink:href="#md53e367fca" x="84.524026" y="93.8627" style="fill: #0000ff; stroke: #0000ff; stroke-width: 2"/>
     <use xlink:href="#md53e367fca" x="100.829221" y="112.571" style="fill: #0000ff; stroke: #0000ff; stroke-width: 2"/>
     <use xlink:href="#md53e367fca" x="117.134416" y="133.568561" style="fill: #0000ff; stroke: #0000ff; stroke-width: 2"/>
     <use xlink:href="#md53e367fca" x="133.43961" y="155.752027" style="fill: #0000ff; stroke: #0000ff; stroke-width: 2"/>
     <use xlink:href="#md53e367fca" x="149.744805" y="178.680674" style="fill: #0000ff; stroke: #0000ff; stroke-width: 2"/>
     <use xlink:href="#md53e367fca" x="166.05" y="204.478399" style="fill: #0000ff; stroke: #0000ff; stroke-width: 2"/>
     <use xlink:href="#md53e367fca" x="182.355195" y="230.091873" style="fill: #0000ff; stroke: #0000ff; stroke-width: 2"/>
     <use xlink:href="#md53e367fca" x="198.66039" y="251.423829" style="fill: #0000ff; stroke: #0000ff; stroke-width: 2"/>
     <use xlink:href="#md53e367fca" x="214.965584" y="264.661919" style="fill: #0000ff; stroke: #0000ff; stroke-width: 2"/>
     <use xlink:href="#md53e367fca" x="231.270779" y="272.612397" style="fill: #0000ff; stroke: #0000ff; stroke-width: 2"/>
     <use xlink:href="#md53e367fca" x="247.575974" y="275.161774" style="fill: #0000ff; stroke: #0000ff; stroke-width: 2"/>
     <use xlink:href="#md53e367fca" x="263.881169" y="275.216264" style="fill: #0000ff; stroke: #0000ff; stroke-width: 2"/>
     <use xlink:href="#md53e367fca" x="280.186364" y="275.289835" style="fill: #0000ff; stroke: #0000ff; stroke-width: 2"/>
    </g>
   </g>
   <g id="line2d_18">
    <path d="M 51.913636 51.035684 
L 68.218831 58.428126 
L 84.524026 75.802423 
L 100.829221 94.772209 
L 117.134416 118.091864 
L 133.43961 144.212455 
L 149.744805 174.078289 
L 166.05 202.689045 
L 182.355195 229.353337 
L 198.66039 252.639837 
L 214.965584 267.123256 
L 231.270779 274.44255 
L 247.575974 276.887041 
L 263.881169 277.006853 
L 280.186364 276.993 
" clip-path="url(#p5c404ce5ae)" style="fill: none; stroke: #bf00bf; stroke-width: 1.5; stroke-linecap: square"/>
   </g>
   <g id="LineCollection_4">
    <path d="M 51.913636 51.851369 
L 51.913636 50.22 
" clip-path="url(#p5c404ce5ae)" style="fill: none; stroke: #bf00bf; stroke-width: 2"/>
    <path d="M 68.218831 59.317256 
L 68.218831 57.538995 
" clip-path="url(#p5c404ce5ae)" style="fill: none; stroke: #bf00bf; stroke-width: 2"/>
    <path d="M 84.524026 76.907017 
L 84.524026 74.697829 
" clip-path="url(#p5c404ce5ae)" style="fill: none; stroke: #bf00bf; stroke-width: 2"/>
    <path d="M 100.829221 95.307475 
L 100.829221 94.236943 
" clip-path="url(#p5c404ce5ae)" style="fill: none; stroke: #bf00bf; stroke-width: 2"/>
    <path d="M 117.134416 118.515116 
L 117.134416 117.668612 
" clip-path="url(#p5c404ce5ae)" style="fill: none; stroke: #bf00bf; stroke-width: 2"/>
    <path d="M 133.43961 144.633882 
L 133.43961 143.791028 
" clip-path="url(#p5c404ce5ae)" style="fill: none; stroke: #bf00bf; stroke-width: 2"/>
    <path d="M 149.744805 174.333571 
L 149.744805 173.823007 
" clip-path="url(#p5c404ce5ae)" style="fill: none; stroke: #bf00bf; stroke-width: 2"/>
    <path d="M 166.05 203.087338 
L 166.05 202.290752 
" clip-path="url(#p5c404ce5ae)" style="fill: none; stroke: #bf00bf; stroke-width: 2"/>
    <path d="M 182.355195 229.502796 
L 182.355195 229.203878 
" clip-path="url(#p5c404ce5ae)" style="fill: none; stroke: #bf00bf; stroke-width: 2"/>
    <path d="M 198.66039 252.830831 
L 198.66039 252.448843 
" clip-path="url(#p5c404ce5ae)" style="fill: none; stroke: #bf00bf; stroke-width: 2"/>
    <path d="M 214.965584 267.181957 
L 214.965584 267.064555 
" clip-path="url(#p5c404ce5ae)" style="fill: none; stroke: #bf00bf; stroke-width: 2"/>
    <path d="M 231.270779 274.459065 
L 231.270779 274.426035 
" clip-path="url(#p5c404ce5ae)" style="fill: none; stroke: #bf00bf; stroke-width: 2"/>
    <path d="M 247.575974 276.899554 
L 247.575974 276.874529 
" clip-path="url(#p5c404ce5ae)" style="fill: none; stroke: #bf00bf; stroke-width: 2"/>
    <path d="M 263.881169 277.02 
L 263.881169 276.993705 
" clip-path="url(#p5c404ce5ae)" style="fill: none; stroke: #bf00bf; stroke-width: 2"/>
    <path d="M 280.186364 277.004373 
L 280.186364 276.981627 
" clip-path="url(#p5c404ce5ae)" style="fill: none; stroke: #bf00bf; stroke-width: 2"/>
   </g>
   <g id="line2d_19">
    <defs>
     <path id="m0a1631dacd" d="M 3 0 
L -3 -0 
" style="stroke: #bf00bf; stroke-width: 2"/>
    </defs>
    <g clip-path="url(#p5c404ce5ae)">
     <use xlink:href="#m0a1631dacd" x="51.913636" y="51.851369" style="fill: #bf00bf; stroke: #bf00bf; stroke-width: 2"/>
     <use xlink:href="#m0a1631dacd" x="68.218831" y="59.317256" style="fill: #bf00bf; stroke: #bf00bf; stroke-width: 2"/>
     <use xlink:href="#m0a1631dacd" x="84.524026" y="76.907017" style="fill: #bf00bf; stroke: #bf00bf; stroke-width: 2"/>
     <use xlink:href="#m0a1631dacd" x="100.829221" y="95.307475" style="fill: #bf00bf; stroke: #bf00bf; stroke-width: 2"/>
     <use xlink:href="#m0a1631dacd" x="117.134416" y="118.515116" style="fill: #bf00bf; stroke: #bf00bf; stroke-width: 2"/>
     <use xlink:href="#m0a1631dacd" x="133.43961" y="144.633882" style="fill: #bf00bf; stroke: #bf00bf; stroke-width: 2"/>
     <use xlink:href="#m0a1631dacd" x="149.744805" y="174.333571" style="fill: #bf00bf; stroke: #bf00bf; stroke-width: 2"/>
     <use xlink:href="#m0a1631dacd" x="166.05" y="203.087338" style="fill: #bf00bf; stroke: #bf00bf; stroke-width: 2"/>
     <use xlink:href="#m0a1631dacd" x="182.355195" y="229.502796" style="fill: #bf00bf; stroke: #bf00bf; stroke-width: 2"/>
     <use xlink:href="#m0a1631dacd" x="198.66039" y="252.830831" style="fill: #bf00bf; stroke: #bf00bf; stroke-width: 2"/>
     <use xlink:href="#m0a1631dacd" x="214.965584" y="267.181957" style="fill: #bf00bf; stroke: #bf00bf; stroke-width: 2"/>
     <use xlink:href="#m0a1631dacd" x="231.270779" y="274.459065" style="fill: #bf00bf; stroke: #bf00bf; stroke-width: 2"/>
     <use xlink:href="#m0a1631dacd" x="247.575974" y="276.899554" style="fill: #bf00bf; stroke: #bf00bf; stroke-width: 2"/>
     <use xlink:href="#m0a1631dacd" x="263.881169" y="277.02" style="fill: #bf00bf; stroke: #bf00bf; stroke-width: 2"/>
     <use xlink:href="#m0a1631dacd" x="280.186364" y="277.004373" style="fill: #bf00bf; stroke: #bf00bf; stroke-width: 2"/>
    </g>
   </g>
   <g id="line2d_20">
    <g clip-path="url(#p5c404ce5ae)">
     <use xlink:href="#m0a1631dacd" x="51.913636" y="50.22" style="fill: #bf00bf; stroke: #bf00bf; stroke-width: 2"/>
     <use xlink:href="#m0a1631dacd" x="68.218831" y="57.538995" style="fill: #bf00bf; stroke: #bf00bf; stroke-width: 2"/>
     <use xlink:href="#m0a1631dacd" x="84.524026" y="74.697829" style="fill: #bf00bf; stroke: #bf00bf; stroke-width: 2"/>
     <use xlink:href="#m0a1631dacd" x="100.829221" y="94.236943" style="fill: #bf00bf; stroke: #bf00bf; stroke-width: 2"/>
     <use xlink:href="#m0a1631dacd" x="117.134416" y="117.668612" style="fill: #bf00bf; stroke: #bf00bf; stroke-width: 2"/>
     <use xlink:href="#m0a1631dacd" x="133.43961" y="143.791028" style="fill: #bf00bf; stroke: #bf00bf; stroke-width: 2"/>
     <use xlink:href="#m0a1631dacd" x="149.744805" y="173.823007" style="fill: #bf00bf; stroke: #bf00bf; stroke-width: 2"/>
     <use xlink:href="#m0a1631dacd" x="166.05" y="202.290752" style="fill: #bf00bf; stroke: #bf00bf; stroke-width: 2"/>
     <use xlink:href="#m0a1631dacd" x="182.355195" y="229.203878" style="fill: #bf00bf; stroke: #bf00bf; stroke-width: 2"/>
     <use xlink:href="#m0a1631dacd" x="198.66039" y="252.448843" style="fill: #bf00bf; stroke: #bf00bf; stroke-width: 2"/>
     <use xlink:href="#m0a1631dacd" x="214.965584" y="267.064555" style="fill: #bf00bf; stroke: #bf00bf; stroke-width: 2"/>
     <use xlink:href="#m0a1631dacd" x="231.270779" y="274.426035" style="fill: #bf00bf; stroke: #bf00bf; stroke-width: 2"/>
     <use xlink:href="#m0a1631dacd" x="247.575974" y="276.874529" style="fill: #bf00bf; stroke: #bf00bf; stroke-width: 2"/>
     <use xlink:href="#m0a1631dacd" x="263.881169" y="276.993705" style="fill: #bf00bf; stroke: #bf00bf; stroke-width: 2"/>
     <use xlink:href="#m0a1631dacd" x="280.186364" y="276.981627" style="fill: #bf00bf; stroke: #bf00bf; stroke-width: 2"/>
    </g>
   </g>
   <g id="line2d_21">
    <path d="M 51.913636 122.363372 
L 68.218831 126.914999 
L 84.524026 131.954332 
L 100.829221 145.353797 
L 117.134416 159.852518 
L 133.43961 177.425472 
L 149.744805 196.55285 
L 166.05 216.030009 
L 182.355195 232.11799 
L 198.66039 243.950604 
L 214.965584 257.674756 
L 231.270779 266.544242 
L 247.575974 269.108894 
L 263.881169 269.162084 
L 280.186364 269.194227 
" clip-path="url(#p5c404ce5ae)" style="fill: none; stroke: #ff0000; stroke-width: 1.5; stroke-linecap: square"/>
   </g>
   <g id="line2d_22">
    <path d="M 51.913636 100.254469 
L 68.218831 107.273262 
L 84.524026 118.097625 
L 100.829221 130.217915 
L 117.134416 145.115921 
L 133.43961 164.189326 
L 149.744805 185.267843 
L 166.05 209.803064 
L 182.355195 232.560416 
L 198.66039 249.257128 
L 214.965584 261.725213 
L 231.270779 270.219452 
L 247.575974 272.733362 
L 263.881169 272.837238 
L 280.186364 272.839956 
" clip-path="url(#p5c404ce5ae)" style="fill: none; stroke: #000000; stroke-width: 1.5; stroke-linecap: square"/>
   </g>
   <g id="line2d_23">
    <path d="M 51.913636 74.905836 
L 68.218831 82.847346 
L 84.524026 94.716271 
L 100.829221 112.85732 
L 117.134416 133.896384 
L 133.43961 156.276397 
L 149.744805 179.263604 
L 166.05 204.652746 
L 182.355195 230.22472 
L 198.66039 251.52676 
L 214.965584 264.728462 
L 231.270779 272.641725 
L 247.575974 275.176895 
L 263.881169 275.241722 
L 280.186364 275.305003 
" clip-path="url(#p5c404ce5ae)" style="fill: none; stroke: #0000ff; stroke-width: 1.5; stroke-linecap: square"/>
   </g>
   <g id="line2d_24">
    <path d="M 51.913636 51.035684 
L 68.218831 58.428126 
L 84.524026 75.802423 
L 100.829221 94.772209 
L 117.134416 118.091864 
L 133.43961 144.212455 
L 149.744805 174.078289 
L 166.05 202.689045 
L 182.355195 229.353337 
L 198.66039 252.639837 
L 214.965584 267.123256 
L 231.270779 274.44255 
L 247.575974 276.887041 
L 263.881169 277.006853 
L 280.186364 276.993 
" clip-path="url(#p5c404ce5ae)" style="fill: none; stroke: #bf00bf; stroke-width: 1.5; stroke-linecap: square"/>
   </g>
   <g id="patch_3">
    <path d="M 40.5 288.36 
L 40.5 38.88 
" style="fill: none; stroke: #000000; stroke-width: 1.6; stroke-linejoin: miter; stroke-linecap: square"/>
   </g>
   <g id="patch_4">
    <path d="M 291.6 288.36 
L 291.6 38.88 
" style="fill: none; stroke: #000000; stroke-width: 1.6; stroke-linejoin: miter; stroke-linecap: square"/>
   </g>
   <g id="patch_5">
    <path d="M 40.5 288.36 
L 291.6 288.36 
" style="fill: none; stroke: #000000; stroke-width: 1.6; stroke-linejoin: miter; stroke-linecap: square"/>
   </g>
   <g id="patch_6">
    <path d="M 40.5 38.88 
L 291.6 38.88 
" style="fill: none; stroke: #000000; stroke-width: 1.6; stroke-linejoin: miter; stroke-linecap: square"/>
   </g>
   <g id="legend_1">
    <g id="patch_7">
     <path d="M 209.120625 118.935 
L 283.2 118.935 
Q 285.6 118.935 285.6 116.535 
L 285.6 47.28 
Q 285.6 44.88 283.2 44.88 
L 209.120625 44.88 
Q 206.720625 44.88 206.720625 47.28 
L 206.720625 116.535 
Q 206.720625 118.935 209.120625 118.935 
z
" style="fill: #ffffff; opacity: 0.8"/>
    </g>
    <g id="line2d_25">
     <path d="M 211.520625 54.598125 
L 223.520625 54.598125 
L 235.520625 54.598125 
" style="fill: none; stroke: #ff0000; stroke-width: 1.5; stroke-linecap: square"/>
    </g>
    <g id="text_9">
     <!-- M=8 -->
     <g transform="translate(245.120625 58.798125) scale(0.12 -0.12)">
      <defs>
       <path id="DejaVuSans-4d" d="M 628 4666 
L 1569 4666 
L 2759 1491 
L 3956 4666 
L 4897 4666 
L 4897 0 
L 4281 0 
L 4281 4097 
L 3078 897 
L 2444 897 
L 1241 4097 
L 1241 0 
L 628 0 
L 628 4666 
z
" transform="scale(0.015625)"/>
       <path id="DejaVuSans-3d" d="M 678 2906 
L 4684 2906 
L 4684 2381 
L 678 2381 
L 678 2906 
z
M 678 1631 
L 4684 1631 
L 4684 1100 
L 678 1100 
L 678 1631 
z
" transform="scale(0.015625)"/>
      </defs>
      <use xlink:href="#DejaVuSans-4d"/>
      <use xlink:href="#DejaVuSans-3d" x="86.279297"/>
      <use xlink:href="#DejaVuSans-38" x="170.068359"/>
     </g>
    </g>
    <g id="line2d_26">
     <path d="M 211.520625 72.211875 
L 223.520625 72.211875 
L 235.520625 72.211875 
" style="fill: none; stroke: #000000; stroke-width: 1.5; stroke-linecap: square"/>
    </g>
    <g id="text_10">
     <!-- M=10 -->
     <g transform="translate(245.120625 76.411875) scale(0.12 -0.12)">
      <use xlink:href="#DejaVuSans-4d"/>
      <use xlink:href="#DejaVuSans-3d" x="86.279297"/>
      <use xlink:href="#DejaVuSans-31" x="170.068359"/>
      <use xlink:href="#DejaVuSans-30" x="233.691406"/>
     </g>
    </g>
    <g id="line2d_27">
     <path d="M 211.520625 89.825625 
L 223.520625 89.825625 
L 235.520625 89.825625 
" style="fill: none; stroke: #0000ff; stroke-width: 1.5; stroke-linecap: square"/>
    </g>
    <g id="text_11">
     <!-- M=12 -->
     <g transform="translate(245.120625 94.025625) scale(0.12 -0.12)">
      <use xlink:href="#DejaVuSans-4d"/>
      <use xlink:href="#DejaVuSans-3d" x="86.279297"/>
      <use xlink:href="#DejaVuSans-31" x="170.068359"/>
      <use xlink:href="#DejaVuSans-32" x="233.691406"/>
     </g>
    </g>
    <g id="line2d_28">
     <path d="M 211.520625 107.439375 
L 223.520625 107.439375 
L 235.520625 107.439375 
" style="fill: none; stroke: #bf00bf; stroke-width: 1.5; stroke-linecap: square"/>
    </g>
    <g id="text_12">
     <!-- M=14 -->
     <g transform="translate(245.120625 111.639375) scale(0.12 -0.12)">
      <defs>
       <path id="DejaVuSans-34" d="M 2419 4116 
L 825 1625 
L 2419 1625 
L 2419 4116 
z
M 2253 4666 
L 3047 4666 
L 3047 1625 
L 3713 1625 
L 3713 1100 
L 3047 1100 
L 3047 0 
L 2419 0 
L 2419 1100 
L 313 1100 
L 313 1709 
L 2253 4666 
z
" transform="scale(0.015625)"/>
      </defs>
      <use xlink:href="#DejaVuSans-4d"/>
      <use xlink:href="#DejaVuSans-3d" x="86.279297"/>
      <use xlink:href="#DejaVuSans-31" x="170.068359"/>
      <use xlink:href="#DejaVuSans-34" x="233.691406"/>
     </g>
    </g>
   </g>
  </g>
 </g>
 <defs>
  <clipPath id="p5c404ce5ae">
   <rect x="40.5" y="38.88" width="251.1" height="249.48"/>
  </clipPath>
 </defs>
</svg>
