<?xml version="1.0" encoding="utf-8" standalone="no"?>
<!DOCTYPE svg PUBLIC "-//W3C//DTD SVG 1.1//EN"
  "http://www.w3.org/Graphics/SVG/1.1/DTD/svg11.dtd">
<svg xmlns:xlink="http://www.w3.org/1999/xlink" width="324pt" height="324pt" viewBox="0 0 324 324" xmlns="http://www.w3.org/2000/svg" version="1.1">
 <metadata>
  <rdf:RDF xmlns:dc="http://purl.org/dc/elements/1.1/" xmlns:cc="http://creativecommons.org/ns#" xmlns:rdf="http://www.w3.org/1999/02/22-rdf-syntax-ns#">
   <cc:Work>
    <dc:type rdf:resource="http://purl.org/dc/dcmitype/StillImage"/>
    <dc:date>2026-01-11T17:11:42.745614</dc:date>
    <dc:format>image/svg+xml</dc:format>
    <dc:creator>
     <cc:Agent>
      <dc:title>Matplotlib v3.8.0, https://matplotlib.org/</dc:title>
     </cc:Agent>
    </dc:creator>
   </cc:Work>
  </rdf:RDF>
 </metadata>
 <defs>
  <style type="text/css">*{stroke-linejoin: round; stroke-linecap: butt}</style>
 </defs>
 <g id="figure_1">
  <g id="patch_1">
   <path d="M 0 324 
L 324 324 
L 324 0 
L 0 0 
z
" style="fill: #ffffff"/>
  </g>
  <g id="axes_1">
   <g id="patch_2">
    <path d="M 40.5 288.36 
L 291.6 288.36 
L 291.6 38.88 
L 40.5 38.88 
z
" style="fill: #ffffff"/>
   </g>
   <g id="matplotlib.axis_1">
    <g id="xtick_1">
     <g id="line2d_1">
      <defs>
       <path id="m1228f3fd49" d="M 0 0 
L 0 8 
" style="stroke: #000000; stroke-width: 1.5"/>
      </defs>
      <g>
       <use xlink:href="#m1228f3fd49" x="60.066234" y="288.36" style="stroke: #000000; stroke-width: 1.5"/>
      </g>
     </g>
     <g id="text_1">
      <!-- 6.5 -->
      <g transform="translate(50.524359 308.978125) scale(0.12 -0.12)">
       <defs>
        <path id="DejaVuSans-36" d="M 2113 2584 
Q 1688 2584 1439 2293 
Q 1191 2003 1191 1497 
Q 1191 994 1439 701 
Q 1688 409 2113 409 
Q 2538 409 2786 701 
Q 3034 994 3034 1497 
Q 3034 2003 2786 2293 
Q 2538 2584 2113 2584 
z
M 3366 4563 
L 3366 3988 
Q 3128 4100 2886 4159 
Q 2644 4219 2406 4219 
Q 1781 4219 1451 3797 
Q 1122 3375 1075 2522 
Q 1259 2794 1537 2939 
Q 1816 3084 2150 3084 
Q 2853 3084 3261 2657 
Q 3669 2231 3669 1497 
Q 3669 778 3244 343 
Q 2819 -91 2113 -91 
Q 1303 -91 875 529 
Q 447 1150 447 2328 
Q 447 3434 972 4092 
Q 1497 4750 2381 4750 
Q 2619 4750 2861 4703 
Q 3103 4656 3366 4563 
z
" transform="scale(0.015625)"/>
        <path id="DejaVuSans-2e" d="M 684 794 
L 1344 794 
L 1344 0 
L 684 0 
L 684 794 
z
" transform="scale(0.015625)"/>
        <path id="DejaVuSans-35" d="M 691 4666 
L 3169 4666 
L 3169 4134 
L 1269 4134 
L 1269 2991 
Q 1406 3038 1543 3061 
Q 1681 3084 1819 3084 
Q 2600 3084 3056 2656 
Q 3513 2228 3513 1497 
Q 3513 744 3044 326 
Q 2575 -91 1722 -91 
Q 1428 -91 1123 -41 
Q 819 9 494 109 
L 494 744 
Q 775 591 1075 516 
Q 1375 441 1709 441 
Q 2250 441 2565 725 
Q 2881 1009 2881 1497 
Q 2881 1984 2565 2268 
Q 2250 2553 1709 2553 
Q 1456 2553 1204 2497 
Q 953 2441 691 2322 
L 691 4666 
z
" transform="scale(0.015625)"/>
       </defs>
       <use xlink:href="#DejaVuSans-36"/>
       <use xlink:href="#DejaVuSans-2e" x="63.623047"/>
       <use xlink:href="#DejaVuSans-35" x="95.410156"/>
      </g>
     </g>
    </g>
    <g id="xtick_2">
     <g id="line2d_2">
      <g>
       <use xlink:href="#m1228f3fd49" x="100.829221" y="288.36" style="stroke: #000000; stroke-width: 1.5"/>
      </g>
     </g>
     <g id="text_2">
      <!-- 7.0 -->
      <g transform="translate(91.287346 308.978125) scale(0.12 -0.12)">
       <defs>
        <path id="DejaVuSans-37" d="M 525 4666 
L 3525 4666 
L 3525 4397 
L 1831 0 
L 1172 0 
L 2766 4134 
L 525 4134 
L 525 4666 
z
" transform="scale(0.015625)"/>
        <path id="DejaVuSans-30" d="M 2034 4250 
Q 1547 4250 1301 3770 
Q 1056 3291 1056 2328 
Q 1056 1369 1301 889 
Q 1547 409 2034 409 
Q 2525 409 2770 889 
Q 3016 1369 3016 2328 
Q 3016 3291 2770 3770 
Q 2525 4250 2034 4250 
z
M 2034 4750 
Q 2819 4750 3233 4129 
Q 3647 3509 3647 2328 
Q 3647 1150 3233 529 
Q 2819 -91 2034 -91 
Q 1250 -91 836 529 
Q 422 1150 422 2328 
Q 422 3509 836 4129 
Q 1250 4750 2034 4750 
z
" transform="scale(0.015625)"/>
       </defs>
       <use xlink:href="#DejaVuSans-37"/>
       <use xlink:href="#DejaVuSans-2e" x="63.623047"/>
       <use xlink:href="#DejaVuSans-30" x="95.410156"/>
      </g>
     </g>
    </g>
    <g id="xtick_3">
     <g id="line2d_3">
      <g>
       <use xlink:href="#m1228f3fd49" x="141.592208" y="288.36" style="stroke: #000000; stroke-width: 1.5"/>
      </g>
     </g>
     <g id="text_3">
      <!-- 7.5 -->
      <g transform="translate(132.050333 308.978125) scale(0.12 -0.12)">
       <use xlink:href="#DejaVuSans-37"/>
       <use xlink:href="#DejaVuSans-2e" x="63.623047"/>
       <use xlink:href="#DejaVuSans-35" x="95.410156"/>
      </g>
     </g>
    </g>
    <g id="xtick_4">
     <g id="line2d_4">
      <g>
       <use xlink:href="#m1228f3fd49" x="182.355195" y="288.36" style="stroke: #000000; stroke-width: 1.5"/>
      </g>
     </g>
     <g id="text_4">
      <!-- 8.0 -->
      <g transform="translate(172.81332 308.978125) scale(0.12 -0.12)">
       <defs>
        <path id="DejaVuSans-38" d="M 2034 2216 
Q 1584 2216 1326 1975 
Q 1069 1734 1069 1313 
Q 1069 891 1326 650 
Q 1584 409 2034 409 
Q 2484 409 2743 651 
Q 3003 894 3003 1313 
Q 3003 1734 2745 1975 
Q 2488 2216 2034 2216 
z
M 1403 2484 
Q 997 2584 770 2862 
Q 544 3141 544 3541 
Q 544 4100 942 4425 
Q 1341 4750 2034 4750 
Q 2731 4750 3128 4425 
Q 3525 4100 3525 3541 
Q 3525 3141 3298 2862 
Q 3072 2584 2669 2484 
Q 3125 2378 3379 2068 
Q 3634 1759 3634 1313 
Q 3634 634 3220 271 
Q 2806 -91 2034 -91 
Q 1263 -91 848 271 
Q 434 634 434 1313 
Q 434 1759 690 2068 
Q 947 2378 1403 2484 
z
M 1172 3481 
Q 1172 3119 1398 2916 
Q 1625 2713 2034 2713 
Q 2441 2713 2670 2916 
Q 2900 3119 2900 3481 
Q 2900 3844 2670 4047 
Q 2441 4250 2034 4250 
Q 1625 4250 1398 4047 
Q 1172 3844 1172 3481 
z
" transform="scale(0.015625)"/>
       </defs>
       <use xlink:href="#DejaVuSans-38"/>
       <use xlink:href="#DejaVuSans-2e" x="63.623047"/>
       <use xlink:href="#DejaVuSans-30" x="95.410156"/>
      </g>
     </g>
    </g>
    <g id="xtick_5">
     <g id="line2d_5">
      <g>
       <use xlink:href="#m1228f3fd49" x="223.118182" y="288.36" style="stroke: #000000; stroke-width: 1.5"/>
      </g>
     </g>
     <g id="text_5">
      <!-- 8.5 -->
      <g transform="translate(213.576307 308.978125) scale(0.12 -0.12)">
       <use xlink:href="#DejaVuSans-38"/>
       <use xlink:href="#DejaVuSans-2e" x="63.623047"/>
       <use xlink:href="#DejaVuSans-35" x="95.410156"/>
      </g>
     </g>
    </g>
    <g id="xtick_6">
     <g id="line2d_6">
      <g>
       <use xlink:href="#m1228f3fd49" x="263.881169" y="288.36" style="stroke: #000000; stroke-width: 1.5"/>
      </g>
     </g>
     <g id="text_6">
      <!-- 9.0 -->
      <g transform="translate(254.339294 308.978125) scale(0.12 -0.12)">
       <defs>
        <path id="DejaVuSans-39" d="M 703 97 
L 703 672 
Q 941 559 1184 500 
Q 1428 441 1663 441 
Q 2288 441 2617 861 
Q 2947 1281 2994 2138 
Q 2813 1869 2534 1725 
Q 2256 1581 1919 1581 
Q 1219 1581 811 2004 
Q 403 2428 403 3163 
Q 403 3881 828 4315 
Q 1253 4750 1959 4750 
Q 2769 4750 3195 4129 
Q 3622 3509 3622 2328 
Q 3622 1225 3098 567 
Q 2575 -91 1691 -91 
Q 1453 -91 1209 -44 
Q 966 3 703 97 
z
M 1959 2075 
Q 2384 2075 2632 2365 
Q 2881 2656 2881 3163 
Q 2881 3666 2632 3958 
Q 2384 4250 1959 4250 
Q 1534 4250 1286 3958 
Q 1038 3666 1038 3163 
Q 1038 2656 1286 2365 
Q 1534 2075 1959 2075 
z
" transform="scale(0.015625)"/>
       </defs>
       <use xlink:href="#DejaVuSans-39"/>
       <use xlink:href="#DejaVuSans-2e" x="63.623047"/>
       <use xlink:href="#DejaVuSans-30" x="95.410156"/>
      </g>
     </g>
    </g>
   </g>
   <g id="matplotlib.axis_2">
    <g id="ytick_1">
     <g id="line2d_7">
      <defs>
       <path id="mc972246f85" d="M 0 0 
L -8 0 
" style="stroke: #000000; stroke-width: 1.5"/>
      </defs>
      <g>
       <use xlink:href="#mc972246f85" x="40.5" y="288.36" style="stroke: #000000; stroke-width: 1.5"/>
      </g>
     </g>
     <g id="text_7">
      <!-- 0.0 -->
      <g transform="translate(9.91625 292.919062) scale(0.12 -0.12)">
       <use xlink:href="#DejaVuSans-30"/>
       <use xlink:href="#DejaVuSans-2e" x="63.623047"/>
       <use xlink:href="#DejaVuSans-30" x="95.410156"/>
      </g>
     </g>
    </g>
    <g id="ytick_2">
     <g id="line2d_8">
      <g>
       <use xlink:href="#mc972246f85" x="40.5" y="210.435836" style="stroke: #000000; stroke-width: 1.5"/>
      </g>
     </g>
     <g id="text_8">
      <!-- 0.4 -->
      <g transform="translate(9.91625 214.994898) scale(0.12 -0.12)">
       <defs>
        <path id="DejaVuSans-34" d="M 2419 4116 
L 825 1625 
L 2419 1625 
L 2419 4116 
z
M 2253 4666 
L 3047 4666 
L 3047 1625 
L 3713 1625 
L 3713 1100 
L 3047 1100 
L 3047 0 
L 2419 0 
L 2419 1100 
L 313 1100 
L 313 1709 
L 2253 4666 
z
" transform="scale(0.015625)"/>
       </defs>
       <use xlink:href="#DejaVuSans-30"/>
       <use xlink:href="#DejaVuSans-2e" x="63.623047"/>
       <use xlink:href="#DejaVuSans-34" x="95.410156"/>
      </g>
     </g>
    </g>
    <g id="ytick_3">
     <g id="line2d_9">
      <g>
       <use xlink:href="#mc972246f85" x="40.5" y="132.511672" style="stroke: #000000; stroke-width: 1.5"/>
      </g>
     </g>
     <g id="text_9">
      <!-- 0.8 -->
      <g transform="translate(9.91625 137.070734) scale(0.12 -0.12)">
       <use xlink:href="#DejaVuSans-30"/>
       <use xlink:href="#DejaVuSans-2e" x="63.623047"/>
       <use xlink:href="#DejaVuSans-38" x="95.410156"/>
      </g>
     </g>
    </g>
    <g id="ytick_4">
     <g id="line2d_10">
      <g>
       <use xlink:href="#mc972246f85" x="40.5" y="54.587508" style="stroke: #000000; stroke-width: 1.5"/>
      </g>
     </g>
     <g id="text_10">
      <!-- 1.2 -->
      <g transform="translate(9.91625 59.14657) scale(0.12 -0.12)">
       <defs>
        <path id="DejaVuSans-31" d="M 794 531 
L 1825 531 
L 1825 4091 
L 703 3866 
L 703 4441 
L 1819 4666 
L 2450 4666 
L 2450 531 
L 3481 531 
L 3481 0 
L 794 0 
L 794 531 
z
" transform="scale(0.015625)"/>
        <path id="DejaVuSans-32" d="M 1228 531 
L 3431 531 
L 3431 0 
L 469 0 
L 469 531 
Q 828 903 1448 1529 
Q 2069 2156 2228 2338 
Q 2531 2678 2651 2914 
Q 2772 3150 2772 3378 
Q 2772 3750 2511 3984 
Q 2250 4219 1831 4219 
Q 1534 4219 1204 4116 
Q 875 4013 500 3803 
L 500 4441 
Q 881 4594 1212 4672 
Q 1544 4750 1819 4750 
Q 2544 4750 2975 4387 
Q 3406 4025 3406 3419 
Q 3406 3131 3298 2873 
Q 3191 2616 2906 2266 
Q 2828 2175 2409 1742 
Q 1991 1309 1228 531 
z
" transform="scale(0.015625)"/>
       </defs>
       <use xlink:href="#DejaVuSans-31"/>
       <use xlink:href="#DejaVuSans-2e" x="63.623047"/>
       <use xlink:href="#DejaVuSans-32" x="95.410156"/>
      </g>
     </g>
    </g>
   </g>
   <g id="line2d_11">
    <path d="M 51.913636 99.419923 
L 68.218831 99.030538 
L 84.524026 101.253313 
L 100.829221 110.421605 
L 117.134416 125.018037 
L 133.43961 143.376151 
L 149.744805 165.063679 
L 166.05 187.205277 
L 182.355195 208.026592 
L 198.66039 224.929908 
L 214.965584 240.559093 
L 231.270779 253.573041 
L 247.575974 261.287048 
L 263.881169 263.132093 
L 280.186364 263.182894 
" clip-path="url(#pd38184f04a)" style="fill: none; stroke: #ff0000; stroke-width: 1.5; stroke-linecap: square"/>
   </g>
   <g id="LineCollection_1">
    <path d="M 51.913636 100.472885 
L 51.913636 98.366961 
" clip-path="url(#pd38184f04a)" style="fill: none; stroke: #ff0000; stroke-width: 2"/>
    <path d="M 68.218831 99.342721 
L 68.218831 98.718356 
" clip-path="url(#pd38184f04a)" style="fill: none; stroke: #ff0000; stroke-width: 2"/>
    <path d="M 84.524026 102.30732 
L 84.524026 100.199306 
" clip-path="url(#pd38184f04a)" style="fill: none; stroke: #ff0000; stroke-width: 2"/>
    <path d="M 100.829221 110.82826 
L 100.829221 110.014951 
" clip-path="url(#pd38184f04a)" style="fill: none; stroke: #ff0000; stroke-width: 2"/>
    <path d="M 117.134416 125.614942 
L 117.134416 124.421131 
" clip-path="url(#pd38184f04a)" style="fill: none; stroke: #ff0000; stroke-width: 2"/>
    <path d="M 133.43961 143.897856 
L 133.43961 142.854447 
" clip-path="url(#pd38184f04a)" style="fill: none; stroke: #ff0000; stroke-width: 2"/>
    <path d="M 149.744805 165.450468 
L 149.744805 164.676889 
" clip-path="url(#pd38184f04a)" style="fill: none; stroke: #ff0000; stroke-width: 2"/>
    <path d="M 166.05 187.456538 
L 166.05 186.954016 
" clip-path="url(#pd38184f04a)" style="fill: none; stroke: #ff0000; stroke-width: 2"/>
    <path d="M 182.355195 208.274307 
L 182.355195 207.778877 
" clip-path="url(#pd38184f04a)" style="fill: none; stroke: #ff0000; stroke-width: 2"/>
    <path d="M 198.66039 225.206071 
L 198.66039 224.653745 
" clip-path="url(#pd38184f04a)" style="fill: none; stroke: #ff0000; stroke-width: 2"/>
    <path d="M 214.965584 240.632386 
L 214.965584 240.485799 
" clip-path="url(#pd38184f04a)" style="fill: none; stroke: #ff0000; stroke-width: 2"/>
    <path d="M 231.270779 253.625796 
L 231.270779 253.520286 
" clip-path="url(#pd38184f04a)" style="fill: none; stroke: #ff0000; stroke-width: 2"/>
    <path d="M 247.575974 261.3262 
L 247.575974 261.247896 
" clip-path="url(#pd38184f04a)" style="fill: none; stroke: #ff0000; stroke-width: 2"/>
    <path d="M 263.881169 263.177293 
L 263.881169 263.086894 
" clip-path="url(#pd38184f04a)" style="fill: none; stroke: #ff0000; stroke-width: 2"/>
    <path d="M 280.186364 263.239279 
L 280.186364 263.12651 
" clip-path="url(#pd38184f04a)" style="fill: none; stroke: #ff0000; stroke-width: 2"/>
   </g>
   <g id="line2d_12">
    <defs>
     <path id="m05dd6e9c2e" d="M 3 0 
L -3 -0 
" style="stroke: #ff0000; stroke-width: 2"/>
    </defs>
    <g clip-path="url(#pd38184f04a)">
     <use xlink:href="#m05dd6e9c2e" x="51.913636" y="100.472885" style="fill: #ff0000; stroke: #ff0000; stroke-width: 2"/>
     <use xlink:href="#m05dd6e9c2e" x="68.218831" y="99.342721" style="fill: #ff0000; stroke: #ff0000; stroke-width: 2"/>
     <use xlink:href="#m05dd6e9c2e" x="84.524026" y="102.30732" style="fill: #ff0000; stroke: #ff0000; stroke-width: 2"/>
     <use xlink:href="#m05dd6e9c2e" x="100.829221" y="110.82826" style="fill: #ff0000; stroke: #ff0000; stroke-width: 2"/>
     <use xlink:href="#m05dd6e9c2e" x="117.134416" y="125.614942" style="fill: #ff0000; stroke: #ff0000; stroke-width: 2"/>
     <use xlink:href="#m05dd6e9c2e" x="133.43961" y="143.897856" style="fill: #ff0000; stroke: #ff0000; stroke-width: 2"/>
     <use xlink:href="#m05dd6e9c2e" x="149.744805" y="165.450468" style="fill: #ff0000; stroke: #ff0000; stroke-width: 2"/>
     <use xlink:href="#m05dd6e9c2e" x="166.05" y="187.456538" style="fill: #ff0000; stroke: #ff0000; stroke-width: 2"/>
     <use xlink:href="#m05dd6e9c2e" x="182.355195" y="208.274307" style="fill: #ff0000; stroke: #ff0000; stroke-width: 2"/>
     <use xlink:href="#m05dd6e9c2e" x="198.66039" y="225.206071" style="fill: #ff0000; stroke: #ff0000; stroke-width: 2"/>
     <use xlink:href="#m05dd6e9c2e" x="214.965584" y="240.632386" style="fill: #ff0000; stroke: #ff0000; stroke-width: 2"/>
     <use xlink:href="#m05dd6e9c2e" x="231.270779" y="253.625796" style="fill: #ff0000; stroke: #ff0000; stroke-width: 2"/>
     <use xlink:href="#m05dd6e9c2e" x="247.575974" y="261.3262" style="fill: #ff0000; stroke: #ff0000; stroke-width: 2"/>
     <use xlink:href="#m05dd6e9c2e" x="263.881169" y="263.177293" style="fill: #ff0000; stroke: #ff0000; stroke-width: 2"/>
     <use xlink:href="#m05dd6e9c2e" x="280.186364" y="263.239279" style="fill: #ff0000; stroke: #ff0000; stroke-width: 2"/>
    </g>
   </g>
   <g id="line2d_13">
    <g clip-path="url(#pd38184f04a)">
     <use xlink:href="#m05dd6e9c2e" x="51.913636" y="98.366961" style="fill: #ff0000; stroke: #ff0000; stroke-width: 2"/>
     <use xlink:href="#m05dd6e9c2e" x="68.218831" y="98.718356" style="fill: #ff0000; stroke: #ff0000; stroke-width: 2"/>
     <use xlink:href="#m05dd6e9c2e" x="84.524026" y="100.199306" style="fill: #ff0000; stroke: #ff0000; stroke-width: 2"/>
     <use xlink:href="#m05dd6e9c2e" x="100.829221" y="110.014951" style="fill: #ff0000; stroke: #ff0000; stroke-width: 2"/>
     <use xlink:href="#m05dd6e9c2e" x="117.134416" y="124.421131" style="fill: #ff0000; stroke: #ff0000; stroke-width: 2"/>
     <use xlink:href="#m05dd6e9c2e" x="133.43961" y="142.854447" style="fill: #ff0000; stroke: #ff0000; stroke-width: 2"/>
     <use xlink:href="#m05dd6e9c2e" x="149.744805" y="164.676889" style="fill: #ff0000; stroke: #ff0000; stroke-width: 2"/>
     <use xlink:href="#m05dd6e9c2e" x="166.05" y="186.954016" style="fill: #ff0000; stroke: #ff0000; stroke-width: 2"/>
     <use xlink:href="#m05dd6e9c2e" x="182.355195" y="207.778877" style="fill: #ff0000; stroke: #ff0000; stroke-width: 2"/>
     <use xlink:href="#m05dd6e9c2e" x="198.66039" y="224.653745" style="fill: #ff0000; stroke: #ff0000; stroke-width: 2"/>
     <use xlink:href="#m05dd6e9c2e" x="214.965584" y="240.485799" style="fill: #ff0000; stroke: #ff0000; stroke-width: 2"/>
     <use xlink:href="#m05dd6e9c2e" x="231.270779" y="253.520286" style="fill: #ff0000; stroke: #ff0000; stroke-width: 2"/>
     <use xlink:href="#m05dd6e9c2e" x="247.575974" y="261.247896" style="fill: #ff0000; stroke: #ff0000; stroke-width: 2"/>
     <use xlink:href="#m05dd6e9c2e" x="263.881169" y="263.086894" style="fill: #ff0000; stroke: #ff0000; stroke-width: 2"/>
     <use xlink:href="#m05dd6e9c2e" x="280.186364" y="263.12651" style="fill: #ff0000; stroke: #ff0000; stroke-width: 2"/>
    </g>
   </g>
   <g id="line2d_14">
    <path d="M 51.913636 82.368221 
L 68.218831 83.657902 
L 84.524026 89.350526 
L 100.829221 101.041521 
L 117.134416 117.8413 
L 133.43961 136.428845 
L 149.744805 159.361613 
L 166.05 184.178684 
L 182.355195 209.958401 
L 198.66039 230.663009 
L 214.965584 247.34987 
L 231.270779 259.461264 
L 247.575974 266.652807 
L 263.881169 268.702387 
L 280.186364 268.83144 
" clip-path="url(#pd38184f04a)" style="fill: none; stroke: #000000; stroke-width: 1.5; stroke-linecap: square"/>
   </g>
   <g id="LineCollection_2">
    <path d="M 51.913636 83.127618 
L 51.913636 81.608825 
" clip-path="url(#pd38184f04a)" style="fill: none; stroke: #000000; stroke-width: 2"/>
    <path d="M 68.218831 84.02302 
L 68.218831 83.292784 
" clip-path="url(#pd38184f04a)" style="fill: none; stroke: #000000; stroke-width: 2"/>
    <path d="M 84.524026 90.126954 
L 84.524026 88.574097 
" clip-path="url(#pd38184f04a)" style="fill: none; stroke: #000000; stroke-width: 2"/>
    <path d="M 100.829221 101.713539 
L 100.829221 100.369503 
" clip-path="url(#pd38184f04a)" style="fill: none; stroke: #000000; stroke-width: 2"/>
    <path d="M 117.134416 118.513258 
L 117.134416 117.169343 
" clip-path="url(#pd38184f04a)" style="fill: none; stroke: #000000; stroke-width: 2"/>
    <path d="M 133.43961 137.269277 
L 133.43961 135.588412 
" clip-path="url(#pd38184f04a)" style="fill: none; stroke: #000000; stroke-width: 2"/>
    <path d="M 149.744805 159.761551 
L 149.744805 158.961674 
" clip-path="url(#pd38184f04a)" style="fill: none; stroke: #000000; stroke-width: 2"/>
    <path d="M 166.05 184.671042 
L 166.05 183.686327 
" clip-path="url(#pd38184f04a)" style="fill: none; stroke: #000000; stroke-width: 2"/>
    <path d="M 182.355195 210.074881 
L 182.355195 209.841922 
" clip-path="url(#pd38184f04a)" style="fill: none; stroke: #000000; stroke-width: 2"/>
    <path d="M 198.66039 230.817335 
L 198.66039 230.508684 
" clip-path="url(#pd38184f04a)" style="fill: none; stroke: #000000; stroke-width: 2"/>
    <path d="M 214.965584 247.514535 
L 214.965584 247.185206 
" clip-path="url(#pd38184f04a)" style="fill: none; stroke: #000000; stroke-width: 2"/>
    <path d="M 231.270779 259.59463 
L 231.270779 259.327898 
" clip-path="url(#pd38184f04a)" style="fill: none; stroke: #000000; stroke-width: 2"/>
    <path d="M 247.575974 266.696561 
L 247.575974 266.609054 
" clip-path="url(#pd38184f04a)" style="fill: none; stroke: #000000; stroke-width: 2"/>
    <path d="M 263.881169 268.758018 
L 263.881169 268.646756 
" clip-path="url(#pd38184f04a)" style="fill: none; stroke: #000000; stroke-width: 2"/>
    <path d="M 280.186364 268.869594 
L 280.186364 268.793285 
" clip-path="url(#pd38184f04a)" style="fill: none; stroke: #000000; stroke-width: 2"/>
   </g>
   <g id="line2d_15">
    <defs>
     <path id="mff0e22358b" d="M 3 0 
L -3 -0 
" style="stroke: #000000; stroke-width: 2"/>
    </defs>
    <g clip-path="url(#pd38184f04a)">
     <use xlink:href="#mff0e22358b" x="51.913636" y="83.127618" style="stroke: #000000; stroke-width: 2"/>
     <use xlink:href="#mff0e22358b" x="68.218831" y="84.02302" style="stroke: #000000; stroke-width: 2"/>
     <use xlink:href="#mff0e22358b" x="84.524026" y="90.126954" style="stroke: #000000; stroke-width: 2"/>
     <use xlink:href="#mff0e22358b" x="100.829221" y="101.713539" style="stroke: #000000; stroke-width: 2"/>
     <use xlink:href="#mff0e22358b" x="117.134416" y="118.513258" style="stroke: #000000; stroke-width: 2"/>
     <use xlink:href="#mff0e22358b" x="133.43961" y="137.269277" style="stroke: #000000; stroke-width: 2"/>
     <use xlink:href="#mff0e22358b" x="149.744805" y="159.761551" style="stroke: #000000; stroke-width: 2"/>
     <use xlink:href="#mff0e22358b" x="166.05" y="184.671042" style="stroke: #000000; stroke-width: 2"/>
     <use xlink:href="#mff0e22358b" x="182.355195" y="210.074881" style="stroke: #000000; stroke-width: 2"/>
     <use xlink:href="#mff0e22358b" x="198.66039" y="230.817335" style="stroke: #000000; stroke-width: 2"/>
     <use xlink:href="#mff0e22358b" x="214.965584" y="247.514535" style="stroke: #000000; stroke-width: 2"/>
     <use xlink:href="#mff0e22358b" x="231.270779" y="259.59463" style="stroke: #000000; stroke-width: 2"/>
     <use xlink:href="#mff0e22358b" x="247.575974" y="266.696561" style="stroke: #000000; stroke-width: 2"/>
     <use xlink:href="#mff0e22358b" x="263.881169" y="268.758018" style="stroke: #000000; stroke-width: 2"/>
     <use xlink:href="#mff0e22358b" x="280.186364" y="268.869594" style="stroke: #000000; stroke-width: 2"/>
    </g>
   </g>
   <g id="line2d_16">
    <g clip-path="url(#pd38184f04a)">
     <use xlink:href="#mff0e22358b" x="51.913636" y="81.608825" style="stroke: #000000; stroke-width: 2"/>
     <use xlink:href="#mff0e22358b" x="68.218831" y="83.292784" style="stroke: #000000; stroke-width: 2"/>
     <use xlink:href="#mff0e22358b" x="84.524026" y="88.574097" style="stroke: #000000; stroke-width: 2"/>
     <use xlink:href="#mff0e22358b" x="100.829221" y="100.369503" style="stroke: #000000; stroke-width: 2"/>
     <use xlink:href="#mff0e22358b" x="117.134416" y="117.169343" style="stroke: #000000; stroke-width: 2"/>
     <use xlink:href="#mff0e22358b" x="133.43961" y="135.588412" style="stroke: #000000; stroke-width: 2"/>
     <use xlink:href="#mff0e22358b" x="149.744805" y="158.961674" style="stroke: #000000; stroke-width: 2"/>
     <use xlink:href="#mff0e22358b" x="166.05" y="183.686327" style="stroke: #000000; stroke-width: 2"/>
     <use xlink:href="#mff0e22358b" x="182.355195" y="209.841922" style="stroke: #000000; stroke-width: 2"/>
     <use xlink:href="#mff0e22358b" x="198.66039" y="230.508684" style="stroke: #000000; stroke-width: 2"/>
     <use xlink:href="#mff0e22358b" x="214.965584" y="247.185206" style="stroke: #000000; stroke-width: 2"/>
     <use xlink:href="#mff0e22358b" x="231.270779" y="259.327898" style="stroke: #000000; stroke-width: 2"/>
     <use xlink:href="#mff0e22358b" x="247.575974" y="266.609054" style="stroke: #000000; stroke-width: 2"/>
     <use xlink:href="#mff0e22358b" x="263.881169" y="268.646756" style="stroke: #000000; stroke-width: 2"/>
     <use xlink:href="#mff0e22358b" x="280.186364" y="268.793285" style="stroke: #000000; stroke-width: 2"/>
    </g>
   </g>
   <g id="line2d_17">
    <path d="M 51.913636 67.205414 
L 68.218831 68.50113 
L 84.524026 73.200901 
L 100.829221 86.38502 
L 117.134416 109.026658 
L 133.43961 131.849106 
L 149.744805 156.726625 
L 166.05 183.452706 
L 182.355195 209.850886 
L 198.66039 234.157892 
L 214.965584 251.697759 
L 231.270779 263.756314 
L 247.575974 270.289436 
L 263.881169 272.298568 
L 280.186364 272.390345 
" clip-path="url(#pd38184f04a)" style="fill: none; stroke: #0000ff; stroke-width: 1.5; stroke-linecap: square"/>
   </g>
   <g id="LineCollection_3">
    <path d="M 51.913636 67.971466 
L 51.913636 66.439361 
" clip-path="url(#pd38184f04a)" style="fill: none; stroke: #0000ff; stroke-width: 2"/>
    <path d="M 68.218831 69.252706 
L 68.218831 67.749555 
" clip-path="url(#pd38184f04a)" style="fill: none; stroke: #0000ff; stroke-width: 2"/>
    <path d="M 84.524026 74.517963 
L 84.524026 71.88384 
" clip-path="url(#pd38184f04a)" style="fill: none; stroke: #0000ff; stroke-width: 2"/>
    <path d="M 100.829221 87.13504 
L 100.829221 85.635 
" clip-path="url(#pd38184f04a)" style="fill: none; stroke: #0000ff; stroke-width: 2"/>
    <path d="M 117.134416 109.437568 
L 117.134416 108.615748 
" clip-path="url(#pd38184f04a)" style="fill: none; stroke: #0000ff; stroke-width: 2"/>
    <path d="M 133.43961 131.99812 
L 133.43961 131.700092 
" clip-path="url(#pd38184f04a)" style="fill: none; stroke: #0000ff; stroke-width: 2"/>
    <path d="M 149.744805 157.514768 
L 149.744805 155.938483 
" clip-path="url(#pd38184f04a)" style="fill: none; stroke: #0000ff; stroke-width: 2"/>
    <path d="M 166.05 183.831568 
L 166.05 183.073845 
" clip-path="url(#pd38184f04a)" style="fill: none; stroke: #0000ff; stroke-width: 2"/>
    <path d="M 182.355195 210.186429 
L 182.355195 209.515343 
" clip-path="url(#pd38184f04a)" style="fill: none; stroke: #0000ff; stroke-width: 2"/>
    <path d="M 198.66039 234.306111 
L 198.66039 234.009673 
" clip-path="url(#pd38184f04a)" style="fill: none; stroke: #0000ff; stroke-width: 2"/>
    <path d="M 214.965584 251.810837 
L 214.965584 251.58468 
" clip-path="url(#pd38184f04a)" style="fill: none; stroke: #0000ff; stroke-width: 2"/>
    <path d="M 231.270779 263.814748 
L 231.270779 263.69788 
" clip-path="url(#pd38184f04a)" style="fill: none; stroke: #0000ff; stroke-width: 2"/>
    <path d="M 247.575974 270.317147 
L 247.575974 270.261725 
" clip-path="url(#pd38184f04a)" style="fill: none; stroke: #0000ff; stroke-width: 2"/>
    <path d="M 263.881169 272.322125 
L 263.881169 272.275011 
" clip-path="url(#pd38184f04a)" style="fill: none; stroke: #0000ff; stroke-width: 2"/>
    <path d="M 280.186364 272.414377 
L 280.186364 272.366313 
" clip-path="url(#pd38184f04a)" style="fill: none; stroke: #0000ff; stroke-width: 2"/>
   </g>
   <g id="line2d_18">
    <defs>
     <path id="m206b682799" d="M 3 0 
L -3 -0 
" style="stroke: #0000ff; stroke-width: 2"/>
    </defs>
    <g clip-path="url(#pd38184f04a)">
     <use xlink:href="#m206b682799" x="51.913636" y="67.971466" style="fill: #0000ff; stroke: #0000ff; stroke-width: 2"/>
     <use xlink:href="#m206b682799" x="68.218831" y="69.252706" style="fill: #0000ff; stroke: #0000ff; stroke-width: 2"/>
     <use xlink:href="#m206b682799" x="84.524026" y="74.517963" style="fill: #0000ff; stroke: #0000ff; stroke-width: 2"/>
     <use xlink:href="#m206b682799" x="100.829221" y="87.13504" style="fill: #0000ff; stroke: #0000ff; stroke-width: 2"/>
     <use xlink:href="#m206b682799" x="117.134416" y="109.437568" style="fill: #0000ff; stroke: #0000ff; stroke-width: 2"/>
     <use xlink:href="#m206b682799" x="133.43961" y="131.99812" style="fill: #0000ff; stroke: #0000ff; stroke-width: 2"/>
     <use xlink:href="#m206b682799" x="149.744805" y="157.514768" style="fill: #0000ff; stroke: #0000ff; stroke-width: 2"/>
     <use xlink:href="#m206b682799" x="166.05" y="183.831568" style="fill: #0000ff; stroke: #0000ff; stroke-width: 2"/>
     <use xlink:href="#m206b682799" x="182.355195" y="210.186429" style="fill: #0000ff; stroke: #0000ff; stroke-width: 2"/>
     <use xlink:href="#m206b682799" x="198.66039" y="234.306111" style="fill: #0000ff; stroke: #0000ff; stroke-width: 2"/>
     <use xlink:href="#m206b682799" x="214.965584" y="251.810837" style="fill: #0000ff; stroke: #0000ff; stroke-width: 2"/>
     <use xlink:href="#m206b682799" x="231.270779" y="263.814748" style="fill: #0000ff; stroke: #0000ff; stroke-width: 2"/>
     <use xlink:href="#m206b682799" x="247.575974" y="270.317147" style="fill: #0000ff; stroke: #0000ff; stroke-width: 2"/>
     <use xlink:href="#m206b682799" x="263.881169" y="272.322125" style="fill: #0000ff; stroke: #0000ff; stroke-width: 2"/>
     <use xlink:href="#m206b682799" x="280.186364" y="272.414377" style="fill: #0000ff; stroke: #0000ff; stroke-width: 2"/>
    </g>
   </g>
   <g id="line2d_19">
    <g clip-path="url(#pd38184f04a)">
     <use xlink:href="#m206b682799" x="51.913636" y="66.439361" style="fill: #0000ff; stroke: #0000ff; stroke-width: 2"/>
     <use xlink:href="#m206b682799" x="68.218831" y="67.749555" style="fill: #0000ff; stroke: #0000ff; stroke-width: 2"/>
     <use xlink:href="#m206b682799" x="84.524026" y="71.88384" style="fill: #0000ff; stroke: #0000ff; stroke-width: 2"/>
     <use xlink:href="#m206b682799" x="100.829221" y="85.635" style="fill: #0000ff; stroke: #0000ff; stroke-width: 2"/>
     <use xlink:href="#m206b682799" x="117.134416" y="108.615748" style="fill: #0000ff; stroke: #0000ff; stroke-width: 2"/>
     <use xlink:href="#m206b682799" x="133.43961" y="131.700092" style="fill: #0000ff; stroke: #0000ff; stroke-width: 2"/>
     <use xlink:href="#m206b682799" x="149.744805" y="155.938483" style="fill: #0000ff; stroke: #0000ff; stroke-width: 2"/>
     <use xlink:href="#m206b682799" x="166.05" y="183.073845" style="fill: #0000ff; stroke: #0000ff; stroke-width: 2"/>
     <use xlink:href="#m206b682799" x="182.355195" y="209.515343" style="fill: #0000ff; stroke: #0000ff; stroke-width: 2"/>
     <use xlink:href="#m206b682799" x="198.66039" y="234.009673" style="fill: #0000ff; stroke: #0000ff; stroke-width: 2"/>
     <use xlink:href="#m206b682799" x="214.965584" y="251.58468" style="fill: #0000ff; stroke: #0000ff; stroke-width: 2"/>
     <use xlink:href="#m206b682799" x="231.270779" y="263.69788" style="fill: #0000ff; stroke: #0000ff; stroke-width: 2"/>
     <use xlink:href="#m206b682799" x="247.575974" y="270.261725" style="fill: #0000ff; stroke: #0000ff; stroke-width: 2"/>
     <use xlink:href="#m206b682799" x="263.881169" y="272.275011" style="fill: #0000ff; stroke: #0000ff; stroke-width: 2"/>
     <use xlink:href="#m206b682799" x="280.186364" y="272.366313" style="fill: #0000ff; stroke: #0000ff; stroke-width: 2"/>
    </g>
   </g>
   <g id="line2d_20">
    <path d="M 51.913636 51.731177 
L 68.218831 53.257545 
L 84.524026 58.806695 
L 100.829221 75.07574 
L 117.134416 98.019133 
L 133.43961 124.827177 
L 149.744805 155.97495 
L 166.05 183.525831 
L 182.355195 211.417817 
L 198.66039 236.977121 
L 214.965584 255.374507 
L 231.270779 267.111353 
L 247.575974 272.889321 
L 263.881169 274.862884 
L 280.186364 274.944534 
" clip-path="url(#pd38184f04a)" style="fill: none; stroke: #bf00bf; stroke-width: 1.5; stroke-linecap: square"/>
   </g>
   <g id="LineCollection_4">
    <path d="M 51.913636 53.339671 
L 51.913636 50.122683 
" clip-path="url(#pd38184f04a)" style="fill: none; stroke: #bf00bf; stroke-width: 2"/>
    <path d="M 68.218831 53.92656 
L 68.218831 52.588529 
" clip-path="url(#pd38184f04a)" style="fill: none; stroke: #bf00bf; stroke-width: 2"/>
    <path d="M 84.524026 59.586934 
L 84.524026 58.026457 
" clip-path="url(#pd38184f04a)" style="fill: none; stroke: #bf00bf; stroke-width: 2"/>
    <path d="M 100.829221 76.186013 
L 100.829221 73.965468 
" clip-path="url(#pd38184f04a)" style="fill: none; stroke: #bf00bf; stroke-width: 2"/>
    <path d="M 117.134416 98.192158 
L 117.134416 97.846109 
" clip-path="url(#pd38184f04a)" style="fill: none; stroke: #bf00bf; stroke-width: 2"/>
    <path d="M 133.43961 125.328208 
L 133.43961 124.326146 
" clip-path="url(#pd38184f04a)" style="fill: none; stroke: #bf00bf; stroke-width: 2"/>
    <path d="M 149.744805 156.563878 
L 149.744805 155.386021 
" clip-path="url(#pd38184f04a)" style="fill: none; stroke: #bf00bf; stroke-width: 2"/>
    <path d="M 166.05 183.914001 
L 166.05 183.13766 
" clip-path="url(#pd38184f04a)" style="fill: none; stroke: #bf00bf; stroke-width: 2"/>
    <path d="M 182.355195 211.779784 
L 182.355195 211.055849 
" clip-path="url(#pd38184f04a)" style="fill: none; stroke: #bf00bf; stroke-width: 2"/>
    <path d="M 198.66039 237.114849 
L 198.66039 236.839392 
" clip-path="url(#pd38184f04a)" style="fill: none; stroke: #bf00bf; stroke-width: 2"/>
    <path d="M 214.965584 255.423901 
L 214.965584 255.325113 
" clip-path="url(#pd38184f04a)" style="fill: none; stroke: #bf00bf; stroke-width: 2"/>
    <path d="M 231.270779 267.178237 
L 231.270779 267.044469 
" clip-path="url(#pd38184f04a)" style="fill: none; stroke: #bf00bf; stroke-width: 2"/>
    <path d="M 247.575974 272.923708 
L 247.575974 272.854933 
" clip-path="url(#pd38184f04a)" style="fill: none; stroke: #bf00bf; stroke-width: 2"/>
    <path d="M 263.881169 274.888045 
L 263.881169 274.837723 
" clip-path="url(#pd38184f04a)" style="fill: none; stroke: #bf00bf; stroke-width: 2"/>
    <path d="M 280.186364 274.976347 
L 280.186364 274.912721 
" clip-path="url(#pd38184f04a)" style="fill: none; stroke: #bf00bf; stroke-width: 2"/>
   </g>
   <g id="line2d_21">
    <defs>
     <path id="m19e46ffc69" d="M 3 0 
L -3 -0 
" style="stroke: #bf00bf; stroke-width: 2"/>
    </defs>
    <g clip-path="url(#pd38184f04a)">
     <use xlink:href="#m19e46ffc69" x="51.913636" y="53.339671" style="fill: #bf00bf; stroke: #bf00bf; stroke-width: 2"/>
     <use xlink:href="#m19e46ffc69" x="68.218831" y="53.92656" style="fill: #bf00bf; stroke: #bf00bf; stroke-width: 2"/>
     <use xlink:href="#m19e46ffc69" x="84.524026" y="59.586934" style="fill: #bf00bf; stroke: #bf00bf; stroke-width: 2"/>
     <use xlink:href="#m19e46ffc69" x="100.829221" y="76.186013" style="fill: #bf00bf; stroke: #bf00bf; stroke-width: 2"/>
     <use xlink:href="#m19e46ffc69" x="117.134416" y="98.192158" style="fill: #bf00bf; stroke: #bf00bf; stroke-width: 2"/>
     <use xlink:href="#m19e46ffc69" x="133.43961" y="125.328208" style="fill: #bf00bf; stroke: #bf00bf; stroke-width: 2"/>
     <use xlink:href="#m19e46ffc69" x="149.744805" y="156.563878" style="fill: #bf00bf; stroke: #bf00bf; stroke-width: 2"/>
     <use xlink:href="#m19e46ffc69" x="166.05" y="183.914001" style="fill: #bf00bf; stroke: #bf00bf; stroke-width: 2"/>
     <use xlink:href="#m19e46ffc69" x="182.355195" y="211.779784" style="fill: #bf00bf; stroke: #bf00bf; stroke-width: 2"/>
     <use xlink:href="#m19e46ffc69" x="198.66039" y="237.114849" style="fill: #bf00bf; stroke: #bf00bf; stroke-width: 2"/>
     <use xlink:href="#m19e46ffc69" x="214.965584" y="255.423901" style="fill: #bf00bf; stroke: #bf00bf; stroke-width: 2"/>
     <use xlink:href="#m19e46ffc69" x="231.270779" y="267.178237" style="fill: #bf00bf; stroke: #bf00bf; stroke-width: 2"/>
     <use xlink:href="#m19e46ffc69" x="247.575974" y="272.923708" style="fill: #bf00bf; stroke: #bf00bf; stroke-width: 2"/>
     <use xlink:href="#m19e46ffc69" x="263.881169" y="274.888045" style="fill: #bf00bf; stroke: #bf00bf; stroke-width: 2"/>
     <use xlink:href="#m19e46ffc69" x="280.186364" y="274.976347" style="fill: #bf00bf; stroke: #bf00bf; stroke-width: 2"/>
    </g>
   </g>
   <g id="line2d_22">
    <g clip-path="url(#pd38184f04a)">
     <use xlink:href="#m19e46ffc69" x="51.913636" y="50.122683" style="fill: #bf00bf; stroke: #bf00bf; stroke-width: 2"/>
     <use xlink:href="#m19e46ffc69" x="68.218831" y="52.588529" style="fill: #bf00bf; stroke: #bf00bf; stroke-width: 2"/>
     <use xlink:href="#m19e46ffc69" x="84.524026" y="58.026457" style="fill: #bf00bf; stroke: #bf00bf; stroke-width: 2"/>
     <use xlink:href="#m19e46ffc69" x="100.829221" y="73.965468" style="fill: #bf00bf; stroke: #bf00bf; stroke-width: 2"/>
     <use xlink:href="#m19e46ffc69" x="117.134416" y="97.846109" style="fill: #bf00bf; stroke: #bf00bf; stroke-width: 2"/>
     <use xlink:href="#m19e46ffc69" x="133.43961" y="124.326146" style="fill: #bf00bf; stroke: #bf00bf; stroke-width: 2"/>
     <use xlink:href="#m19e46ffc69" x="149.744805" y="155.386021" style="fill: #bf00bf; stroke: #bf00bf; stroke-width: 2"/>
     <use xlink:href="#m19e46ffc69" x="166.05" y="183.13766" style="fill: #bf00bf; stroke: #bf00bf; stroke-width: 2"/>
     <use xlink:href="#m19e46ffc69" x="182.355195" y="211.055849" style="fill: #bf00bf; stroke: #bf00bf; stroke-width: 2"/>
     <use xlink:href="#m19e46ffc69" x="198.66039" y="236.839392" style="fill: #bf00bf; stroke: #bf00bf; stroke-width: 2"/>
     <use xlink:href="#m19e46ffc69" x="214.965584" y="255.325113" style="fill: #bf00bf; stroke: #bf00bf; stroke-width: 2"/>
     <use xlink:href="#m19e46ffc69" x="231.270779" y="267.044469" style="fill: #bf00bf; stroke: #bf00bf; stroke-width: 2"/>
     <use xlink:href="#m19e46ffc69" x="247.575974" y="272.854933" style="fill: #bf00bf; stroke: #bf00bf; stroke-width: 2"/>
     <use xlink:href="#m19e46ffc69" x="263.881169" y="274.837723" style="fill: #bf00bf; stroke: #bf00bf; stroke-width: 2"/>
     <use xlink:href="#m19e46ffc69" x="280.186364" y="274.912721" style="fill: #bf00bf; stroke: #bf00bf; stroke-width: 2"/>
    </g>
   </g>
   <g id="line2d_23">
    <path d="M 51.913636 99.419923 
L 68.218831 99.030538 
L 84.524026 101.253313 
L 100.829221 110.421605 
L 117.134416 125.018037 
L 133.43961 143.376151 
L 149.744805 165.063679 
L 166.05 187.205277 
L 182.355195 208.026592 
L 198.66039 224.929908 
L 214.965584 240.559093 
L 231.270779 253.573041 
L 247.575974 261.287048 
L 263.881169 263.132093 
L 280.186364 263.182894 
" clip-path="url(#pd38184f04a)" style="fill: none; stroke: #ff0000; stroke-width: 1.5; stroke-linecap: square"/>
   </g>
   <g id="line2d_24">
    <path d="M 51.913636 82.368221 
L 68.218831 83.657902 
L 84.524026 89.350526 
L 100.829221 101.041521 
L 117.134416 117.8413 
L 133.43961 136.428845 
L 149.744805 159.361613 
L 166.05 184.178684 
L 182.355195 209.958401 
L 198.66039 230.663009 
L 214.965584 247.34987 
L 231.270779 259.461264 
L 247.575974 266.652807 
L 263.881169 268.702387 
L 280.186364 268.83144 
" clip-path="url(#pd38184f04a)" style="fill: none; stroke: #000000; stroke-width: 1.5; stroke-linecap: square"/>
   </g>
   <g id="line2d_25">
    <path d="M 51.913636 67.205414 
L 68.218831 68.50113 
L 84.524026 73.200901 
L 100.829221 86.38502 
L 117.134416 109.026658 
L 133.43961 131.849106 
L 149.744805 156.726625 
L 166.05 183.452706 
L 182.355195 209.850886 
L 198.66039 234.157892 
L 214.965584 251.697759 
L 231.270779 263.756314 
L 247.575974 270.289436 
L 263.881169 272.298568 
L 280.186364 272.390345 
" clip-path="url(#pd38184f04a)" style="fill: none; stroke: #0000ff; stroke-width: 1.5; stroke-linecap: square"/>
   </g>
   <g id="line2d_26">
    <path d="M 51.913636 51.731177 
L 68.218831 53.257545 
L 84.524026 58.806695 
L 100.829221 75.07574 
L 117.134416 98.019133 
L 133.43961 124.827177 
L 149.744805 155.97495 
L 166.05 183.525831 
L 182.355195 211.417817 
L 198.66039 236.977121 
L 214.965584 255.374507 
L 231.270779 267.111353 
L 247.575974 272.889321 
L 263.881169 274.862884 
L 280.186364 274.944534 
" clip-path="url(#pd38184f04a)" style="fill: none; stroke: #bf00bf; stroke-width: 1.5; stroke-linecap: square"/>
   </g>
   <g id="patch_3">
    <path d="M 40.5 288.36 
L 40.5 38.88 
" style="fill: none; stroke: #000000; stroke-width: 1.6; stroke-linejoin: miter; stroke-linecap: square"/>
   </g>
   <g id="patch_4">
    <path d="M 291.6 288.36 
L 291.6 38.88 
" style="fill: none; stroke: #000000; stroke-width: 1.6; stroke-linejoin: miter; stroke-linecap: square"/>
   </g>
   <g id="patch_5">
    <path d="M 40.5 288.36 
L 291.6 288.36 
" style="fill: none; stroke: #000000; stroke-width: 1.6; stroke-linejoin: miter; stroke-linecap: square"/>
   </g>
   <g id="patch_6">
    <path d="M 40.5 38.88 
L 291.6 38.88 
" style="fill: none; stroke: #000000; stroke-width: 1.6; stroke-linejoin: miter; stroke-linecap: square"/>
   </g>
   <g id="legend_1">
    <g id="patch_7">
     <path d="M 209.120625 118.935 
L 283.2 118.935 
Q 285.6 118.935 285.6 116.535 
L 285.6 47.28 
Q 285.6 44.88 283.2 44.88 
L 209.120625 44.88 
Q 206.720625 44.88 206.720625 47.28 
L 206.720625 116.535 
Q 206.720625 118.935 209.120625 118.935 
z
" style="fill: #ffffff; opacity: 0.8"/>
    </g>
    <g id="LineCollection_5">
     <path d="M 223.520625 60.598125 
L 223.520625 48.598125 
" style="fill: none; stroke: #ff0000; stroke-width: 2"/>
    </g>
    <g id="line2d_27">
     <g>
      <use xlink:href="#m05dd6e9c2e" x="223.520625" y="60.598125" style="fill: #ff0000; stroke: #ff0000; stroke-width: 2"/>
     </g>
    </g>
    <g id="line2d_28">
     <g>
      <use xlink:href="#m05dd6e9c2e" x="223.520625" y="48.598125" style="fill: #ff0000; stroke: #ff0000; stroke-width: 2"/>
     </g>
    </g>
    <g id="line2d_29">
     <path d="M 211.520625 54.598125 
L 235.520625 54.598125 
" style="fill: none; stroke: #ff0000; stroke-width: 1.5; stroke-linecap: square"/>
    </g>
    <g id="line2d_30"/>
    <g id="text_11">
     <!-- M=8 -->
     <g transform="translate(245.120625 58.798125) scale(0.12 -0.12)">
      <defs>
       <path id="DejaVuSans-4d" d="M 628 4666 
L 1569 4666 
L 2759 1491 
L 3956 4666 
L 4897 4666 
L 4897 0 
L 4281 0 
L 4281 4097 
L 3078 897 
L 2444 897 
L 1241 4097 
L 1241 0 
L 628 0 
L 628 4666 
z
" transform="scale(0.015625)"/>
       <path id="DejaVuSans-3d" d="M 678 2906 
L 4684 2906 
L 4684 2381 
L 678 2381 
L 678 2906 
z
M 678 1631 
L 4684 1631 
L 4684 1100 
L 678 1100 
L 678 1631 
z
" transform="scale(0.015625)"/>
      </defs>
      <use xlink:href="#DejaVuSans-4d"/>
      <use xlink:href="#DejaVuSans-3d" x="86.279297"/>
      <use xlink:href="#DejaVuSans-38" x="170.068359"/>
     </g>
    </g>
    <g id="LineCollection_6">
     <path d="M 223.520625 78.211875 
L 223.520625 66.211875 
" style="fill: none; stroke: #000000; stroke-width: 2"/>
    </g>
    <g id="line2d_31">
     <g>
      <use xlink:href="#mff0e22358b" x="223.520625" y="78.211875" style="stroke: #000000; stroke-width: 2"/>
     </g>
    </g>
    <g id="line2d_32">
     <g>
      <use xlink:href="#mff0e22358b" x="223.520625" y="66.211875" style="stroke: #000000; stroke-width: 2"/>
     </g>
    </g>
    <g id="line2d_33">
     <path d="M 211.520625 72.211875 
L 235.520625 72.211875 
" style="fill: none; stroke: #000000; stroke-width: 1.5; stroke-linecap: square"/>
    </g>
    <g id="line2d_34"/>
    <g id="text_12">
     <!-- M=10 -->
     <g transform="translate(245.120625 76.411875) scale(0.12 -0.12)">
      <use xlink:href="#DejaVuSans-4d"/>
      <use xlink:href="#DejaVuSans-3d" x="86.279297"/>
      <use xlink:href="#DejaVuSans-31" x="170.068359"/>
      <use xlink:href="#DejaVuSans-30" x="233.691406"/>
     </g>
    </g>
    <g id="LineCollection_7">
     <path d="M 223.520625 95.825625 
L 223.520625 83.825625 
" style="fill: none; stroke: #0000ff; stroke-width: 2"/>
    </g>
    <g id="line2d_35">
     <g>
      <use xlink:href="#m206b682799" x="223.520625" y="95.825625" style="fill: #0000ff; stroke: #0000ff; stroke-width: 2"/>
     </g>
    </g>
    <g id="line2d_36">
     <g>
      <use xlink:href="#m206b682799" x="223.520625" y="83.825625" style="fill: #0000ff; stroke: #0000ff; stroke-width: 2"/>
     </g>
    </g>
    <g id="line2d_37">
     <path d="M 211.520625 89.825625 
L 235.520625 89.825625 
" style="fill: none; stroke: #0000ff; stroke-width: 1.5; stroke-linecap: square"/>
    </g>
    <g id="line2d_38"/>
    <g id="text_13">
     <!-- M=12 -->
     <g transform="translate(245.120625 94.025625) scale(0.12 -0.12)">
      <use xlink:href="#DejaVuSans-4d"/>
      <use xlink:href="#DejaVuSans-3d" x="86.279297"/>
      <use xlink:href="#DejaVuSans-31" x="170.068359"/>
      <use xlink:href="#DejaVuSans-32" x="233.691406"/>
     </g>
    </g>
    <g id="LineCollection_8">
     <path d="M 223.520625 113.439375 
L 223.520625 101.439375 
" style="fill: none; stroke: #bf00bf; stroke-width: 2"/>
    </g>
    <g id="line2d_39">
     <g>
      <use xlink:href="#m19e46ffc69" x="223.520625" y="113.439375" style="fill: #bf00bf; stroke: #bf00bf; stroke-width: 2"/>
     </g>
    </g>
    <g id="line2d_40">
     <g>
      <use xlink:href="#m19e46ffc69" x="223.520625" y="101.439375" style="fill: #bf00bf; stroke: #bf00bf; stroke-width: 2"/>
     </g>
    </g>
    <g id="line2d_41">
     <path d="M 211.520625 107.439375 
L 235.520625 107.439375 
" style="fill: none; stroke: #bf00bf; stroke-width: 1.5; stroke-linecap: square"/>
    </g>
    <g id="line2d_42"/>
    <g id="text_14">
     <!-- M=14 -->
     <g transform="translate(245.120625 111.639375) scale(0.12 -0.12)">
      <use xlink:href="#DejaVuSans-4d"/>
      <use xlink:href="#DejaVuSans-3d" x="86.279297"/>
      <use xlink:href="#DejaVuSans-31" x="170.068359"/>
      <use xlink:href="#DejaVuSans-34" x="233.691406"/>
     </g>
    </g>
   </g>
  </g>
 </g>
 <defs>
  <clipPath id="pd38184f04a">
   <rect x="40.5" y="38.88" width="251.1" height="249.48"/>
  </clipPath>
 </defs>
</svg>
