<?xml version="1.0" encoding="utf-8" standalone="no"?>
<!DOCTYPE svg PUBLIC "-//W3C//DTD SVG 1.1//EN"
  "http://www.w3.org/Graphics/SVG/1.1/DTD/svg11.dtd">
<svg xmlns:xlink="http://www.w3.org/1999/xlink" width="324pt" height="324pt" viewBox="0 0 324 324" xmlns="http://www.w3.org/2000/svg" version="1.1">
 <metadata>
  <rdf:RDF xmlns:dc="http://purl.org/dc/elements/1.1/" xmlns:cc="http://creativecommons.org/ns#" xmlns:rdf="http://www.w3.org/1999/02/22-rdf-syntax-ns#">
   <cc:Work>
    <dc:type rdf:resource="http://purl.org/dc/dcmitype/StillImage"/>
    <dc:date>2026-01-11T17:23:02.632303</dc:date>
    <dc:format>image/svg+xml</dc:format>
    <dc:creator>
     <cc:Agent>
      <dc:title>Matplotlib v3.8.0, https://matplotlib.org/</dc:title>
     </cc:Agent>
    </dc:creator>
   </cc:Work>
  </rdf:RDF>
 </metadata>
 <defs>
  <style type="text/css">*{stroke-linejoin: round; stroke-linecap: butt}</style>
 </defs>
 <g id="figure_1">
  <g id="patch_1">
   <path d="M 0 324 
L 324 324 
L 324 0 
L 0 0 
z
" style="fill: #ffffff"/>
  </g>
  <g id="axes_1">
   <g id="patch_2">
    <path d="M 40.5 288.36 
L 291.6 288.36 
L 291.6 38.88 
L 40.5 38.88 
z
" style="fill: #ffffff"/>
   </g>
   <g id="matplotlib.axis_1">
    <g id="xtick_1">
     <g id="line2d_1">
      <defs>
       <path id="m7b58717357" d="M 0 0 
L 0 8 
" style="stroke: #000000; stroke-width: 1.5"/>
      </defs>
      <g>
       <use xlink:href="#m7b58717357" x="70.936364" y="288.36" style="stroke: #000000; stroke-width: 1.5"/>
      </g>
     </g>
     <g id="text_1">
      <!-- 7.0 -->
      <g transform="translate(61.394489 308.978125) scale(0.12 -0.12)">
       <defs>
        <path id="DejaVuSans-37" d="M 525 4666 
L 3525 4666 
L 3525 4397 
L 1831 0 
L 1172 0 
L 2766 4134 
L 525 4134 
L 525 4666 
z
" transform="scale(0.015625)"/>
        <path id="DejaVuSans-2e" d="M 684 794 
L 1344 794 
L 1344 0 
L 684 0 
L 684 794 
z
" transform="scale(0.015625)"/>
        <path id="DejaVuSans-30" d="M 2034 4250 
Q 1547 4250 1301 3770 
Q 1056 3291 1056 2328 
Q 1056 1369 1301 889 
Q 1547 409 2034 409 
Q 2525 409 2770 889 
Q 3016 1369 3016 2328 
Q 3016 3291 2770 3770 
Q 2525 4250 2034 4250 
z
M 2034 4750 
Q 2819 4750 3233 4129 
Q 3647 3509 3647 2328 
Q 3647 1150 3233 529 
Q 2819 -91 2034 -91 
Q 1250 -91 836 529 
Q 422 1150 422 2328 
Q 422 3509 836 4129 
Q 1250 4750 2034 4750 
z
" transform="scale(0.015625)"/>
       </defs>
       <use xlink:href="#DejaVuSans-37"/>
       <use xlink:href="#DejaVuSans-2e" x="63.623047"/>
       <use xlink:href="#DejaVuSans-30" x="95.410156"/>
      </g>
     </g>
    </g>
    <g id="xtick_2">
     <g id="line2d_2">
      <g>
       <use xlink:href="#m7b58717357" x="118.493182" y="288.36" style="stroke: #000000; stroke-width: 1.5"/>
      </g>
     </g>
     <g id="text_2">
      <!-- 7.5 -->
      <g transform="translate(108.951307 308.978125) scale(0.12 -0.12)">
       <defs>
        <path id="DejaVuSans-35" d="M 691 4666 
L 3169 4666 
L 3169 4134 
L 1269 4134 
L 1269 2991 
Q 1406 3038 1543 3061 
Q 1681 3084 1819 3084 
Q 2600 3084 3056 2656 
Q 3513 2228 3513 1497 
Q 3513 744 3044 326 
Q 2575 -91 1722 -91 
Q 1428 -91 1123 -41 
Q 819 9 494 109 
L 494 744 
Q 775 591 1075 516 
Q 1375 441 1709 441 
Q 2250 441 2565 725 
Q 2881 1009 2881 1497 
Q 2881 1984 2565 2268 
Q 2250 2553 1709 2553 
Q 1456 2553 1204 2497 
Q 953 2441 691 2322 
L 691 4666 
z
" transform="scale(0.015625)"/>
       </defs>
       <use xlink:href="#DejaVuSans-37"/>
       <use xlink:href="#DejaVuSans-2e" x="63.623047"/>
       <use xlink:href="#DejaVuSans-35" x="95.410156"/>
      </g>
     </g>
    </g>
    <g id="xtick_3">
     <g id="line2d_3">
      <g>
       <use xlink:href="#m7b58717357" x="166.05" y="288.36" style="stroke: #000000; stroke-width: 1.5"/>
      </g>
     </g>
     <g id="text_3">
      <!-- 8.0 -->
      <g transform="translate(156.508125 308.978125) scale(0.12 -0.12)">
       <defs>
        <path id="DejaVuSans-38" d="M 2034 2216 
Q 1584 2216 1326 1975 
Q 1069 1734 1069 1313 
Q 1069 891 1326 650 
Q 1584 409 2034 409 
Q 2484 409 2743 651 
Q 3003 894 3003 1313 
Q 3003 1734 2745 1975 
Q 2488 2216 2034 2216 
z
M 1403 2484 
Q 997 2584 770 2862 
Q 544 3141 544 3541 
Q 544 4100 942 4425 
Q 1341 4750 2034 4750 
Q 2731 4750 3128 4425 
Q 3525 4100 3525 3541 
Q 3525 3141 3298 2862 
Q 3072 2584 2669 2484 
Q 3125 2378 3379 2068 
Q 3634 1759 3634 1313 
Q 3634 634 3220 271 
Q 2806 -91 2034 -91 
Q 1263 -91 848 271 
Q 434 634 434 1313 
Q 434 1759 690 2068 
Q 947 2378 1403 2484 
z
M 1172 3481 
Q 1172 3119 1398 2916 
Q 1625 2713 2034 2713 
Q 2441 2713 2670 2916 
Q 2900 3119 2900 3481 
Q 2900 3844 2670 4047 
Q 2441 4250 2034 4250 
Q 1625 4250 1398 4047 
Q 1172 3844 1172 3481 
z
" transform="scale(0.015625)"/>
       </defs>
       <use xlink:href="#DejaVuSans-38"/>
       <use xlink:href="#DejaVuSans-2e" x="63.623047"/>
       <use xlink:href="#DejaVuSans-30" x="95.410156"/>
      </g>
     </g>
    </g>
    <g id="xtick_4">
     <g id="line2d_4">
      <g>
       <use xlink:href="#m7b58717357" x="213.606818" y="288.36" style="stroke: #000000; stroke-width: 1.5"/>
      </g>
     </g>
     <g id="text_4">
      <!-- 8.5 -->
      <g transform="translate(204.064943 308.978125) scale(0.12 -0.12)">
       <use xlink:href="#DejaVuSans-38"/>
       <use xlink:href="#DejaVuSans-2e" x="63.623047"/>
       <use xlink:href="#DejaVuSans-35" x="95.410156"/>
      </g>
     </g>
    </g>
    <g id="xtick_5">
     <g id="line2d_5">
      <g>
       <use xlink:href="#m7b58717357" x="261.163636" y="288.36" style="stroke: #000000; stroke-width: 1.5"/>
      </g>
     </g>
     <g id="text_5">
      <!-- 9.0 -->
      <g transform="translate(251.621761 308.978125) scale(0.12 -0.12)">
       <defs>
        <path id="DejaVuSans-39" d="M 703 97 
L 703 672 
Q 941 559 1184 500 
Q 1428 441 1663 441 
Q 2288 441 2617 861 
Q 2947 1281 2994 2138 
Q 2813 1869 2534 1725 
Q 2256 1581 1919 1581 
Q 1219 1581 811 2004 
Q 403 2428 403 3163 
Q 403 3881 828 4315 
Q 1253 4750 1959 4750 
Q 2769 4750 3195 4129 
Q 3622 3509 3622 2328 
Q 3622 1225 3098 567 
Q 2575 -91 1691 -91 
Q 1453 -91 1209 -44 
Q 966 3 703 97 
z
M 1959 2075 
Q 2384 2075 2632 2365 
Q 2881 2656 2881 3163 
Q 2881 3666 2632 3958 
Q 2384 4250 1959 4250 
Q 1534 4250 1286 3958 
Q 1038 3666 1038 3163 
Q 1038 2656 1286 2365 
Q 1534 2075 1959 2075 
z
" transform="scale(0.015625)"/>
       </defs>
       <use xlink:href="#DejaVuSans-39"/>
       <use xlink:href="#DejaVuSans-2e" x="63.623047"/>
       <use xlink:href="#DejaVuSans-30" x="95.410156"/>
      </g>
     </g>
    </g>
   </g>
   <g id="matplotlib.axis_2">
    <g id="ytick_1">
     <g id="line2d_6">
      <defs>
       <path id="m5050130e9a" d="M 0 0 
L -8 0 
" style="stroke: #000000; stroke-width: 1.5"/>
      </defs>
      <g>
       <use xlink:href="#m5050130e9a" x="40.5" y="288.36" style="stroke: #000000; stroke-width: 1.5"/>
      </g>
     </g>
     <g id="text_6">
      <!-- 0.3 -->
      <g transform="translate(9.91625 292.919062) scale(0.12 -0.12)">
       <defs>
        <path id="DejaVuSans-33" d="M 2597 2516 
Q 3050 2419 3304 2112 
Q 3559 1806 3559 1356 
Q 3559 666 3084 287 
Q 2609 -91 1734 -91 
Q 1441 -91 1130 -33 
Q 819 25 488 141 
L 488 750 
Q 750 597 1062 519 
Q 1375 441 1716 441 
Q 2309 441 2620 675 
Q 2931 909 2931 1356 
Q 2931 1769 2642 2001 
Q 2353 2234 1838 2234 
L 1294 2234 
L 1294 2753 
L 1863 2753 
Q 2328 2753 2575 2939 
Q 2822 3125 2822 3475 
Q 2822 3834 2567 4026 
Q 2313 4219 1838 4219 
Q 1578 4219 1281 4162 
Q 984 4106 628 3988 
L 628 4550 
Q 988 4650 1302 4700 
Q 1616 4750 1894 4750 
Q 2613 4750 3031 4423 
Q 3450 4097 3450 3541 
Q 3450 3153 3228 2886 
Q 3006 2619 2597 2516 
z
" transform="scale(0.015625)"/>
       </defs>
       <use xlink:href="#DejaVuSans-30"/>
       <use xlink:href="#DejaVuSans-2e" x="63.623047"/>
       <use xlink:href="#DejaVuSans-33" x="95.410156"/>
      </g>
     </g>
    </g>
    <g id="ytick_2">
     <g id="line2d_7">
      <g>
       <use xlink:href="#m5050130e9a" x="40.5" y="213.656275" style="stroke: #000000; stroke-width: 1.5"/>
      </g>
     </g>
     <g id="text_7">
      <!-- 0.5 -->
      <g transform="translate(9.91625 218.215337) scale(0.12 -0.12)">
       <use xlink:href="#DejaVuSans-30"/>
       <use xlink:href="#DejaVuSans-2e" x="63.623047"/>
       <use xlink:href="#DejaVuSans-35" x="95.410156"/>
      </g>
     </g>
    </g>
    <g id="ytick_3">
     <g id="line2d_8">
      <g>
       <use xlink:href="#m5050130e9a" x="40.5" y="138.952549" style="stroke: #000000; stroke-width: 1.5"/>
      </g>
     </g>
     <g id="text_8">
      <!-- 0.7 -->
      <g transform="translate(9.91625 143.511612) scale(0.12 -0.12)">
       <use xlink:href="#DejaVuSans-30"/>
       <use xlink:href="#DejaVuSans-2e" x="63.623047"/>
       <use xlink:href="#DejaVuSans-37" x="95.410156"/>
      </g>
     </g>
    </g>
    <g id="ytick_4">
     <g id="line2d_9">
      <g>
       <use xlink:href="#m5050130e9a" x="40.5" y="64.248824" style="stroke: #000000; stroke-width: 1.5"/>
      </g>
     </g>
     <g id="text_9">
      <!-- 0.9 -->
      <g transform="translate(9.91625 68.807887) scale(0.12 -0.12)">
       <use xlink:href="#DejaVuSans-30"/>
       <use xlink:href="#DejaVuSans-2e" x="63.623047"/>
       <use xlink:href="#DejaVuSans-39" x="95.410156"/>
      </g>
     </g>
    </g>
   </g>
   <g id="line2d_10">
    <path d="M 51.913636 138.033451 
L 70.936364 147.266804 
L 89.959091 154.90929 
L 108.981818 164.008931 
L 128.004545 172.031009 
L 147.027273 178.85508 
L 166.05 186.025231 
L 185.072727 193.902275 
L 204.095455 199.695479 
L 223.118182 206.337417 
L 242.140909 212.632572 
L 261.163636 218.170656 
L 280.186364 223.537874 
" clip-path="url(#p00cadd93d7)" style="fill: none; stroke: #ff0000; stroke-width: 1.5; stroke-linecap: square"/>
   </g>
   <g id="LineCollection_1">
    <path d="M 51.913636 138.123561 
L 51.913636 137.94334 
" clip-path="url(#p00cadd93d7)" style="fill: none; stroke: #ff0000; stroke-width: 2"/>
    <path d="M 70.936364 147.468841 
L 70.936364 147.064767 
" clip-path="url(#p00cadd93d7)" style="fill: none; stroke: #ff0000; stroke-width: 2"/>
    <path d="M 89.959091 155.495299 
L 89.959091 154.32328 
" clip-path="url(#p00cadd93d7)" style="fill: none; stroke: #ff0000; stroke-width: 2"/>
    <path d="M 108.981818 164.375989 
L 108.981818 163.641873 
" clip-path="url(#p00cadd93d7)" style="fill: none; stroke: #ff0000; stroke-width: 2"/>
    <path d="M 128.004545 172.348072 
L 128.004545 171.713947 
" clip-path="url(#p00cadd93d7)" style="fill: none; stroke: #ff0000; stroke-width: 2"/>
    <path d="M 147.027273 179.222 
L 147.027273 178.48816 
" clip-path="url(#p00cadd93d7)" style="fill: none; stroke: #ff0000; stroke-width: 2"/>
    <path d="M 166.05 186.517118 
L 166.05 185.533344 
" clip-path="url(#p00cadd93d7)" style="fill: none; stroke: #ff0000; stroke-width: 2"/>
    <path d="M 185.072727 194.024466 
L 185.072727 193.780083 
" clip-path="url(#p00cadd93d7)" style="fill: none; stroke: #ff0000; stroke-width: 2"/>
    <path d="M 204.095455 199.923206 
L 204.095455 199.467751 
" clip-path="url(#p00cadd93d7)" style="fill: none; stroke: #ff0000; stroke-width: 2"/>
    <path d="M 223.118182 206.667232 
L 223.118182 206.007602 
" clip-path="url(#p00cadd93d7)" style="fill: none; stroke: #ff0000; stroke-width: 2"/>
    <path d="M 242.140909 212.894867 
L 242.140909 212.370278 
" clip-path="url(#p00cadd93d7)" style="fill: none; stroke: #ff0000; stroke-width: 2"/>
    <path d="M 261.163636 218.594549 
L 261.163636 217.746764 
" clip-path="url(#p00cadd93d7)" style="fill: none; stroke: #ff0000; stroke-width: 2"/>
    <path d="M 280.186364 223.853014 
L 280.186364 223.222733 
" clip-path="url(#p00cadd93d7)" style="fill: none; stroke: #ff0000; stroke-width: 2"/>
   </g>
   <g id="line2d_11">
    <defs>
     <path id="m94852dc161" d="M 3 0 
L -3 -0 
" style="stroke: #ff0000; stroke-width: 2"/>
    </defs>
    <g clip-path="url(#p00cadd93d7)">
     <use xlink:href="#m94852dc161" x="51.913636" y="138.123561" style="fill: #ff0000; stroke: #ff0000; stroke-width: 2"/>
     <use xlink:href="#m94852dc161" x="70.936364" y="147.468841" style="fill: #ff0000; stroke: #ff0000; stroke-width: 2"/>
     <use xlink:href="#m94852dc161" x="89.959091" y="155.495299" style="fill: #ff0000; stroke: #ff0000; stroke-width: 2"/>
     <use xlink:href="#m94852dc161" x="108.981818" y="164.375989" style="fill: #ff0000; stroke: #ff0000; stroke-width: 2"/>
     <use xlink:href="#m94852dc161" x="128.004545" y="172.348072" style="fill: #ff0000; stroke: #ff0000; stroke-width: 2"/>
     <use xlink:href="#m94852dc161" x="147.027273" y="179.222" style="fill: #ff0000; stroke: #ff0000; stroke-width: 2"/>
     <use xlink:href="#m94852dc161" x="166.05" y="186.517118" style="fill: #ff0000; stroke: #ff0000; stroke-width: 2"/>
     <use xlink:href="#m94852dc161" x="185.072727" y="194.024466" style="fill: #ff0000; stroke: #ff0000; stroke-width: 2"/>
     <use xlink:href="#m94852dc161" x="204.095455" y="199.923206" style="fill: #ff0000; stroke: #ff0000; stroke-width: 2"/>
     <use xlink:href="#m94852dc161" x="223.118182" y="206.667232" style="fill: #ff0000; stroke: #ff0000; stroke-width: 2"/>
     <use xlink:href="#m94852dc161" x="242.140909" y="212.894867" style="fill: #ff0000; stroke: #ff0000; stroke-width: 2"/>
     <use xlink:href="#m94852dc161" x="261.163636" y="218.594549" style="fill: #ff0000; stroke: #ff0000; stroke-width: 2"/>
     <use xlink:href="#m94852dc161" x="280.186364" y="223.853014" style="fill: #ff0000; stroke: #ff0000; stroke-width: 2"/>
    </g>
   </g>
   <g id="line2d_12">
    <g clip-path="url(#p00cadd93d7)">
     <use xlink:href="#m94852dc161" x="51.913636" y="137.94334" style="fill: #ff0000; stroke: #ff0000; stroke-width: 2"/>
     <use xlink:href="#m94852dc161" x="70.936364" y="147.064767" style="fill: #ff0000; stroke: #ff0000; stroke-width: 2"/>
     <use xlink:href="#m94852dc161" x="89.959091" y="154.32328" style="fill: #ff0000; stroke: #ff0000; stroke-width: 2"/>
     <use xlink:href="#m94852dc161" x="108.981818" y="163.641873" style="fill: #ff0000; stroke: #ff0000; stroke-width: 2"/>
     <use xlink:href="#m94852dc161" x="128.004545" y="171.713947" style="fill: #ff0000; stroke: #ff0000; stroke-width: 2"/>
     <use xlink:href="#m94852dc161" x="147.027273" y="178.48816" style="fill: #ff0000; stroke: #ff0000; stroke-width: 2"/>
     <use xlink:href="#m94852dc161" x="166.05" y="185.533344" style="fill: #ff0000; stroke: #ff0000; stroke-width: 2"/>
     <use xlink:href="#m94852dc161" x="185.072727" y="193.780083" style="fill: #ff0000; stroke: #ff0000; stroke-width: 2"/>
     <use xlink:href="#m94852dc161" x="204.095455" y="199.467751" style="fill: #ff0000; stroke: #ff0000; stroke-width: 2"/>
     <use xlink:href="#m94852dc161" x="223.118182" y="206.007602" style="fill: #ff0000; stroke: #ff0000; stroke-width: 2"/>
     <use xlink:href="#m94852dc161" x="242.140909" y="212.370278" style="fill: #ff0000; stroke: #ff0000; stroke-width: 2"/>
     <use xlink:href="#m94852dc161" x="261.163636" y="217.746764" style="fill: #ff0000; stroke: #ff0000; stroke-width: 2"/>
     <use xlink:href="#m94852dc161" x="280.186364" y="223.222733" style="fill: #ff0000; stroke: #ff0000; stroke-width: 2"/>
    </g>
   </g>
   <g id="line2d_13">
    <path d="M 51.913636 105.451516 
L 70.936364 121.967865 
L 89.959091 135.759882 
L 108.981818 149.033577 
L 128.004545 161.618102 
L 147.027273 174.317424 
L 166.05 185.789177 
L 185.072727 196.701234 
L 204.095455 207.135015 
L 223.118182 216.054959 
L 242.140909 225.687172 
L 261.163636 233.449482 
L 280.186364 241.220038 
" clip-path="url(#p00cadd93d7)" style="fill: none; stroke: #000000; stroke-width: 1.5; stroke-linecap: square"/>
   </g>
   <g id="LineCollection_2">
    <path d="M 51.913636 107.012562 
L 51.913636 103.890469 
" clip-path="url(#p00cadd93d7)" style="fill: none; stroke: #000000; stroke-width: 2"/>
    <path d="M 70.936364 122.520502 
L 70.936364 121.415228 
" clip-path="url(#p00cadd93d7)" style="fill: none; stroke: #000000; stroke-width: 2"/>
    <path d="M 89.959091 136.139904 
L 89.959091 135.37986 
" clip-path="url(#p00cadd93d7)" style="fill: none; stroke: #000000; stroke-width: 2"/>
    <path d="M 108.981818 149.491047 
L 108.981818 148.576107 
" clip-path="url(#p00cadd93d7)" style="fill: none; stroke: #000000; stroke-width: 2"/>
    <path d="M 128.004545 162.339842 
L 128.004545 160.896363 
" clip-path="url(#p00cadd93d7)" style="fill: none; stroke: #000000; stroke-width: 2"/>
    <path d="M 147.027273 174.546999 
L 147.027273 174.087849 
" clip-path="url(#p00cadd93d7)" style="fill: none; stroke: #000000; stroke-width: 2"/>
    <path d="M 166.05 186.085206 
L 166.05 185.493148 
" clip-path="url(#p00cadd93d7)" style="fill: none; stroke: #000000; stroke-width: 2"/>
    <path d="M 185.072727 196.981773 
L 185.072727 196.420695 
" clip-path="url(#p00cadd93d7)" style="fill: none; stroke: #000000; stroke-width: 2"/>
    <path d="M 204.095455 207.445565 
L 204.095455 206.824466 
" clip-path="url(#p00cadd93d7)" style="fill: none; stroke: #000000; stroke-width: 2"/>
    <path d="M 223.118182 216.441321 
L 223.118182 215.668597 
" clip-path="url(#p00cadd93d7)" style="fill: none; stroke: #000000; stroke-width: 2"/>
    <path d="M 242.140909 226.03376 
L 242.140909 225.340585 
" clip-path="url(#p00cadd93d7)" style="fill: none; stroke: #000000; stroke-width: 2"/>
    <path d="M 261.163636 233.548587 
L 261.163636 233.350376 
" clip-path="url(#p00cadd93d7)" style="fill: none; stroke: #000000; stroke-width: 2"/>
    <path d="M 280.186364 241.376686 
L 280.186364 241.063391 
" clip-path="url(#p00cadd93d7)" style="fill: none; stroke: #000000; stroke-width: 2"/>
   </g>
   <g id="line2d_14">
    <defs>
     <path id="m7a0ba3a58d" d="M 3 0 
L -3 -0 
" style="stroke: #000000; stroke-width: 2"/>
    </defs>
    <g clip-path="url(#p00cadd93d7)">
     <use xlink:href="#m7a0ba3a58d" x="51.913636" y="107.012562" style="stroke: #000000; stroke-width: 2"/>
     <use xlink:href="#m7a0ba3a58d" x="70.936364" y="122.520502" style="stroke: #000000; stroke-width: 2"/>
     <use xlink:href="#m7a0ba3a58d" x="89.959091" y="136.139904" style="stroke: #000000; stroke-width: 2"/>
     <use xlink:href="#m7a0ba3a58d" x="108.981818" y="149.491047" style="stroke: #000000; stroke-width: 2"/>
     <use xlink:href="#m7a0ba3a58d" x="128.004545" y="162.339842" style="stroke: #000000; stroke-width: 2"/>
     <use xlink:href="#m7a0ba3a58d" x="147.027273" y="174.546999" style="stroke: #000000; stroke-width: 2"/>
     <use xlink:href="#m7a0ba3a58d" x="166.05" y="186.085206" style="stroke: #000000; stroke-width: 2"/>
     <use xlink:href="#m7a0ba3a58d" x="185.072727" y="196.981773" style="stroke: #000000; stroke-width: 2"/>
     <use xlink:href="#m7a0ba3a58d" x="204.095455" y="207.445565" style="stroke: #000000; stroke-width: 2"/>
     <use xlink:href="#m7a0ba3a58d" x="223.118182" y="216.441321" style="stroke: #000000; stroke-width: 2"/>
     <use xlink:href="#m7a0ba3a58d" x="242.140909" y="226.03376" style="stroke: #000000; stroke-width: 2"/>
     <use xlink:href="#m7a0ba3a58d" x="261.163636" y="233.548587" style="stroke: #000000; stroke-width: 2"/>
     <use xlink:href="#m7a0ba3a58d" x="280.186364" y="241.376686" style="stroke: #000000; stroke-width: 2"/>
    </g>
   </g>
   <g id="line2d_15">
    <g clip-path="url(#p00cadd93d7)">
     <use xlink:href="#m7a0ba3a58d" x="51.913636" y="103.890469" style="stroke: #000000; stroke-width: 2"/>
     <use xlink:href="#m7a0ba3a58d" x="70.936364" y="121.415228" style="stroke: #000000; stroke-width: 2"/>
     <use xlink:href="#m7a0ba3a58d" x="89.959091" y="135.37986" style="stroke: #000000; stroke-width: 2"/>
     <use xlink:href="#m7a0ba3a58d" x="108.981818" y="148.576107" style="stroke: #000000; stroke-width: 2"/>
     <use xlink:href="#m7a0ba3a58d" x="128.004545" y="160.896363" style="stroke: #000000; stroke-width: 2"/>
     <use xlink:href="#m7a0ba3a58d" x="147.027273" y="174.087849" style="stroke: #000000; stroke-width: 2"/>
     <use xlink:href="#m7a0ba3a58d" x="166.05" y="185.493148" style="stroke: #000000; stroke-width: 2"/>
     <use xlink:href="#m7a0ba3a58d" x="185.072727" y="196.420695" style="stroke: #000000; stroke-width: 2"/>
     <use xlink:href="#m7a0ba3a58d" x="204.095455" y="206.824466" style="stroke: #000000; stroke-width: 2"/>
     <use xlink:href="#m7a0ba3a58d" x="223.118182" y="215.668597" style="stroke: #000000; stroke-width: 2"/>
     <use xlink:href="#m7a0ba3a58d" x="242.140909" y="225.340585" style="stroke: #000000; stroke-width: 2"/>
     <use xlink:href="#m7a0ba3a58d" x="261.163636" y="233.350376" style="stroke: #000000; stroke-width: 2"/>
     <use xlink:href="#m7a0ba3a58d" x="280.186364" y="241.063391" style="stroke: #000000; stroke-width: 2"/>
    </g>
   </g>
   <g id="line2d_16">
    <path d="M 51.913636 77.514818 
L 70.936364 100.461258 
L 89.959091 118.804768 
L 108.981818 138.544341 
L 128.004545 154.375527 
L 147.027273 170.951424 
L 166.05 185.803809 
L 185.072727 199.435779 
L 204.095455 211.641285 
L 223.118182 224.174835 
L 242.140909 235.510054 
L 261.163636 245.527483 
L 280.186364 253.822042 
" clip-path="url(#p00cadd93d7)" style="fill: none; stroke: #0000ff; stroke-width: 1.5; stroke-linecap: square"/>
   </g>
   <g id="LineCollection_3">
    <path d="M 51.913636 79.387875 
L 51.913636 75.641762 
" clip-path="url(#p00cadd93d7)" style="fill: none; stroke: #0000ff; stroke-width: 2"/>
    <path d="M 70.936364 101.328717 
L 70.936364 99.593799 
" clip-path="url(#p00cadd93d7)" style="fill: none; stroke: #0000ff; stroke-width: 2"/>
    <path d="M 89.959091 119.601316 
L 89.959091 118.00822 
" clip-path="url(#p00cadd93d7)" style="fill: none; stroke: #0000ff; stroke-width: 2"/>
    <path d="M 108.981818 138.835226 
L 108.981818 138.253457 
" clip-path="url(#p00cadd93d7)" style="fill: none; stroke: #0000ff; stroke-width: 2"/>
    <path d="M 128.004545 154.876036 
L 128.004545 153.875018 
" clip-path="url(#p00cadd93d7)" style="fill: none; stroke: #0000ff; stroke-width: 2"/>
    <path d="M 147.027273 171.49683 
L 147.027273 170.406019 
" clip-path="url(#p00cadd93d7)" style="fill: none; stroke: #0000ff; stroke-width: 2"/>
    <path d="M 166.05 186.256706 
L 166.05 185.350912 
" clip-path="url(#p00cadd93d7)" style="fill: none; stroke: #0000ff; stroke-width: 2"/>
    <path d="M 185.072727 199.572246 
L 185.072727 199.299313 
" clip-path="url(#p00cadd93d7)" style="fill: none; stroke: #0000ff; stroke-width: 2"/>
    <path d="M 204.095455 212.000334 
L 204.095455 211.282235 
" clip-path="url(#p00cadd93d7)" style="fill: none; stroke: #0000ff; stroke-width: 2"/>
    <path d="M 223.118182 224.347566 
L 223.118182 224.002105 
" clip-path="url(#p00cadd93d7)" style="fill: none; stroke: #0000ff; stroke-width: 2"/>
    <path d="M 242.140909 235.929791 
L 242.140909 235.090316 
" clip-path="url(#p00cadd93d7)" style="fill: none; stroke: #0000ff; stroke-width: 2"/>
    <path d="M 261.163636 245.918032 
L 261.163636 245.136933 
" clip-path="url(#p00cadd93d7)" style="fill: none; stroke: #0000ff; stroke-width: 2"/>
    <path d="M 280.186364 254.21882 
L 280.186364 253.425264 
" clip-path="url(#p00cadd93d7)" style="fill: none; stroke: #0000ff; stroke-width: 2"/>
   </g>
   <g id="line2d_17">
    <defs>
     <path id="m819dc98607" d="M 3 0 
L -3 -0 
" style="stroke: #0000ff; stroke-width: 2"/>
    </defs>
    <g clip-path="url(#p00cadd93d7)">
     <use xlink:href="#m819dc98607" x="51.913636" y="79.387875" style="fill: #0000ff; stroke: #0000ff; stroke-width: 2"/>
     <use xlink:href="#m819dc98607" x="70.936364" y="101.328717" style="fill: #0000ff; stroke: #0000ff; stroke-width: 2"/>
     <use xlink:href="#m819dc98607" x="89.959091" y="119.601316" style="fill: #0000ff; stroke: #0000ff; stroke-width: 2"/>
     <use xlink:href="#m819dc98607" x="108.981818" y="138.835226" style="fill: #0000ff; stroke: #0000ff; stroke-width: 2"/>
     <use xlink:href="#m819dc98607" x="128.004545" y="154.876036" style="fill: #0000ff; stroke: #0000ff; stroke-width: 2"/>
     <use xlink:href="#m819dc98607" x="147.027273" y="171.49683" style="fill: #0000ff; stroke: #0000ff; stroke-width: 2"/>
     <use xlink:href="#m819dc98607" x="166.05" y="186.256706" style="fill: #0000ff; stroke: #0000ff; stroke-width: 2"/>
     <use xlink:href="#m819dc98607" x="185.072727" y="199.572246" style="fill: #0000ff; stroke: #0000ff; stroke-width: 2"/>
     <use xlink:href="#m819dc98607" x="204.095455" y="212.000334" style="fill: #0000ff; stroke: #0000ff; stroke-width: 2"/>
     <use xlink:href="#m819dc98607" x="223.118182" y="224.347566" style="fill: #0000ff; stroke: #0000ff; stroke-width: 2"/>
     <use xlink:href="#m819dc98607" x="242.140909" y="235.929791" style="fill: #0000ff; stroke: #0000ff; stroke-width: 2"/>
     <use xlink:href="#m819dc98607" x="261.163636" y="245.918032" style="fill: #0000ff; stroke: #0000ff; stroke-width: 2"/>
     <use xlink:href="#m819dc98607" x="280.186364" y="254.21882" style="fill: #0000ff; stroke: #0000ff; stroke-width: 2"/>
    </g>
   </g>
   <g id="line2d_18">
    <g clip-path="url(#p00cadd93d7)">
     <use xlink:href="#m819dc98607" x="51.913636" y="75.641762" style="fill: #0000ff; stroke: #0000ff; stroke-width: 2"/>
     <use xlink:href="#m819dc98607" x="70.936364" y="99.593799" style="fill: #0000ff; stroke: #0000ff; stroke-width: 2"/>
     <use xlink:href="#m819dc98607" x="89.959091" y="118.00822" style="fill: #0000ff; stroke: #0000ff; stroke-width: 2"/>
     <use xlink:href="#m819dc98607" x="108.981818" y="138.253457" style="fill: #0000ff; stroke: #0000ff; stroke-width: 2"/>
     <use xlink:href="#m819dc98607" x="128.004545" y="153.875018" style="fill: #0000ff; stroke: #0000ff; stroke-width: 2"/>
     <use xlink:href="#m819dc98607" x="147.027273" y="170.406019" style="fill: #0000ff; stroke: #0000ff; stroke-width: 2"/>
     <use xlink:href="#m819dc98607" x="166.05" y="185.350912" style="fill: #0000ff; stroke: #0000ff; stroke-width: 2"/>
     <use xlink:href="#m819dc98607" x="185.072727" y="199.299313" style="fill: #0000ff; stroke: #0000ff; stroke-width: 2"/>
     <use xlink:href="#m819dc98607" x="204.095455" y="211.282235" style="fill: #0000ff; stroke: #0000ff; stroke-width: 2"/>
     <use xlink:href="#m819dc98607" x="223.118182" y="224.002105" style="fill: #0000ff; stroke: #0000ff; stroke-width: 2"/>
     <use xlink:href="#m819dc98607" x="242.140909" y="235.090316" style="fill: #0000ff; stroke: #0000ff; stroke-width: 2"/>
     <use xlink:href="#m819dc98607" x="261.163636" y="245.136933" style="fill: #0000ff; stroke: #0000ff; stroke-width: 2"/>
     <use xlink:href="#m819dc98607" x="280.186364" y="253.425264" style="fill: #0000ff; stroke: #0000ff; stroke-width: 2"/>
    </g>
   </g>
   <g id="line2d_19">
    <path d="M 51.913636 51.078621 
L 70.936364 77.150816 
L 89.959091 102.281598 
L 108.981818 126.142488 
L 128.004545 146.108231 
L 147.027273 166.29592 
L 166.05 185.321714 
L 185.072727 201.994175 
L 204.095455 216.531022 
L 223.118182 231.108532 
L 242.140909 243.775434 
L 261.163636 254.499385 
L 280.186364 264.742256 
" clip-path="url(#p00cadd93d7)" style="fill: none; stroke: #bf00bf; stroke-width: 1.5; stroke-linecap: square"/>
   </g>
   <g id="LineCollection_4">
    <path d="M 51.913636 52.505312 
L 51.913636 49.651929 
" clip-path="url(#p00cadd93d7)" style="fill: none; stroke: #bf00bf; stroke-width: 2"/>
    <path d="M 70.936364 77.695741 
L 70.936364 76.605891 
" clip-path="url(#p00cadd93d7)" style="fill: none; stroke: #bf00bf; stroke-width: 2"/>
    <path d="M 89.959091 103.036759 
L 89.959091 101.526436 
" clip-path="url(#p00cadd93d7)" style="fill: none; stroke: #bf00bf; stroke-width: 2"/>
    <path d="M 108.981818 127.064385 
L 108.981818 125.22059 
" clip-path="url(#p00cadd93d7)" style="fill: none; stroke: #bf00bf; stroke-width: 2"/>
    <path d="M 128.004545 146.971285 
L 128.004545 145.245177 
" clip-path="url(#p00cadd93d7)" style="fill: none; stroke: #bf00bf; stroke-width: 2"/>
    <path d="M 147.027273 166.431395 
L 147.027273 166.160446 
" clip-path="url(#p00cadd93d7)" style="fill: none; stroke: #bf00bf; stroke-width: 2"/>
    <path d="M 166.05 185.851137 
L 166.05 184.792291 
" clip-path="url(#p00cadd93d7)" style="fill: none; stroke: #bf00bf; stroke-width: 2"/>
    <path d="M 185.072727 202.791086 
L 185.072727 201.197263 
" clip-path="url(#p00cadd93d7)" style="fill: none; stroke: #bf00bf; stroke-width: 2"/>
    <path d="M 204.095455 217.07684 
L 204.095455 215.985204 
" clip-path="url(#p00cadd93d7)" style="fill: none; stroke: #bf00bf; stroke-width: 2"/>
    <path d="M 223.118182 231.482657 
L 223.118182 230.734408 
" clip-path="url(#p00cadd93d7)" style="fill: none; stroke: #bf00bf; stroke-width: 2"/>
    <path d="M 242.140909 244.379104 
L 242.140909 243.171764 
" clip-path="url(#p00cadd93d7)" style="fill: none; stroke: #bf00bf; stroke-width: 2"/>
    <path d="M 261.163636 254.901354 
L 261.163636 254.097416 
" clip-path="url(#p00cadd93d7)" style="fill: none; stroke: #bf00bf; stroke-width: 2"/>
    <path d="M 280.186364 265.090506 
L 280.186364 264.394007 
" clip-path="url(#p00cadd93d7)" style="fill: none; stroke: #bf00bf; stroke-width: 2"/>
   </g>
   <g id="line2d_20">
    <defs>
     <path id="m0b8242c043" d="M 3 0 
L -3 -0 
" style="stroke: #bf00bf; stroke-width: 2"/>
    </defs>
    <g clip-path="url(#p00cadd93d7)">
     <use xlink:href="#m0b8242c043" x="51.913636" y="52.505312" style="fill: #bf00bf; stroke: #bf00bf; stroke-width: 2"/>
     <use xlink:href="#m0b8242c043" x="70.936364" y="77.695741" style="fill: #bf00bf; stroke: #bf00bf; stroke-width: 2"/>
     <use xlink:href="#m0b8242c043" x="89.959091" y="103.036759" style="fill: #bf00bf; stroke: #bf00bf; stroke-width: 2"/>
     <use xlink:href="#m0b8242c043" x="108.981818" y="127.064385" style="fill: #bf00bf; stroke: #bf00bf; stroke-width: 2"/>
     <use xlink:href="#m0b8242c043" x="128.004545" y="146.971285" style="fill: #bf00bf; stroke: #bf00bf; stroke-width: 2"/>
     <use xlink:href="#m0b8242c043" x="147.027273" y="166.431395" style="fill: #bf00bf; stroke: #bf00bf; stroke-width: 2"/>
     <use xlink:href="#m0b8242c043" x="166.05" y="185.851137" style="fill: #bf00bf; stroke: #bf00bf; stroke-width: 2"/>
     <use xlink:href="#m0b8242c043" x="185.072727" y="202.791086" style="fill: #bf00bf; stroke: #bf00bf; stroke-width: 2"/>
     <use xlink:href="#m0b8242c043" x="204.095455" y="217.07684" style="fill: #bf00bf; stroke: #bf00bf; stroke-width: 2"/>
     <use xlink:href="#m0b8242c043" x="223.118182" y="231.482657" style="fill: #bf00bf; stroke: #bf00bf; stroke-width: 2"/>
     <use xlink:href="#m0b8242c043" x="242.140909" y="244.379104" style="fill: #bf00bf; stroke: #bf00bf; stroke-width: 2"/>
     <use xlink:href="#m0b8242c043" x="261.163636" y="254.901354" style="fill: #bf00bf; stroke: #bf00bf; stroke-width: 2"/>
     <use xlink:href="#m0b8242c043" x="280.186364" y="265.090506" style="fill: #bf00bf; stroke: #bf00bf; stroke-width: 2"/>
    </g>
   </g>
   <g id="line2d_21">
    <g clip-path="url(#p00cadd93d7)">
     <use xlink:href="#m0b8242c043" x="51.913636" y="49.651929" style="fill: #bf00bf; stroke: #bf00bf; stroke-width: 2"/>
     <use xlink:href="#m0b8242c043" x="70.936364" y="76.605891" style="fill: #bf00bf; stroke: #bf00bf; stroke-width: 2"/>
     <use xlink:href="#m0b8242c043" x="89.959091" y="101.526436" style="fill: #bf00bf; stroke: #bf00bf; stroke-width: 2"/>
     <use xlink:href="#m0b8242c043" x="108.981818" y="125.22059" style="fill: #bf00bf; stroke: #bf00bf; stroke-width: 2"/>
     <use xlink:href="#m0b8242c043" x="128.004545" y="145.245177" style="fill: #bf00bf; stroke: #bf00bf; stroke-width: 2"/>
     <use xlink:href="#m0b8242c043" x="147.027273" y="166.160446" style="fill: #bf00bf; stroke: #bf00bf; stroke-width: 2"/>
     <use xlink:href="#m0b8242c043" x="166.05" y="184.792291" style="fill: #bf00bf; stroke: #bf00bf; stroke-width: 2"/>
     <use xlink:href="#m0b8242c043" x="185.072727" y="201.197263" style="fill: #bf00bf; stroke: #bf00bf; stroke-width: 2"/>
     <use xlink:href="#m0b8242c043" x="204.095455" y="215.985204" style="fill: #bf00bf; stroke: #bf00bf; stroke-width: 2"/>
     <use xlink:href="#m0b8242c043" x="223.118182" y="230.734408" style="fill: #bf00bf; stroke: #bf00bf; stroke-width: 2"/>
     <use xlink:href="#m0b8242c043" x="242.140909" y="243.171764" style="fill: #bf00bf; stroke: #bf00bf; stroke-width: 2"/>
     <use xlink:href="#m0b8242c043" x="261.163636" y="254.097416" style="fill: #bf00bf; stroke: #bf00bf; stroke-width: 2"/>
     <use xlink:href="#m0b8242c043" x="280.186364" y="264.394007" style="fill: #bf00bf; stroke: #bf00bf; stroke-width: 2"/>
    </g>
   </g>
   <g id="line2d_22">
    <path d="M 51.913636 138.033451 
L 70.936364 147.266804 
L 89.959091 154.90929 
L 108.981818 164.008931 
L 128.004545 172.031009 
L 147.027273 178.85508 
L 166.05 186.025231 
L 185.072727 193.902275 
L 204.095455 199.695479 
L 223.118182 206.337417 
L 242.140909 212.632572 
L 261.163636 218.170656 
L 280.186364 223.537874 
" clip-path="url(#p00cadd93d7)" style="fill: none; stroke: #ff0000; stroke-width: 1.5; stroke-linecap: square"/>
   </g>
   <g id="line2d_23">
    <path d="M 51.913636 105.451516 
L 70.936364 121.967865 
L 89.959091 135.759882 
L 108.981818 149.033577 
L 128.004545 161.618102 
L 147.027273 174.317424 
L 166.05 185.789177 
L 185.072727 196.701234 
L 204.095455 207.135015 
L 223.118182 216.054959 
L 242.140909 225.687172 
L 261.163636 233.449482 
L 280.186364 241.220038 
" clip-path="url(#p00cadd93d7)" style="fill: none; stroke: #000000; stroke-width: 1.5; stroke-linecap: square"/>
   </g>
   <g id="line2d_24">
    <path d="M 51.913636 77.514818 
L 70.936364 100.461258 
L 89.959091 118.804768 
L 108.981818 138.544341 
L 128.004545 154.375527 
L 147.027273 170.951424 
L 166.05 185.803809 
L 185.072727 199.435779 
L 204.095455 211.641285 
L 223.118182 224.174835 
L 242.140909 235.510054 
L 261.163636 245.527483 
L 280.186364 253.822042 
" clip-path="url(#p00cadd93d7)" style="fill: none; stroke: #0000ff; stroke-width: 1.5; stroke-linecap: square"/>
   </g>
   <g id="line2d_25">
    <path d="M 51.913636 51.078621 
L 70.936364 77.150816 
L 89.959091 102.281598 
L 108.981818 126.142488 
L 128.004545 146.108231 
L 147.027273 166.29592 
L 166.05 185.321714 
L 185.072727 201.994175 
L 204.095455 216.531022 
L 223.118182 231.108532 
L 242.140909 243.775434 
L 261.163636 254.499385 
L 280.186364 264.742256 
" clip-path="url(#p00cadd93d7)" style="fill: none; stroke: #bf00bf; stroke-width: 1.5; stroke-linecap: square"/>
   </g>
   <g id="patch_3">
    <path d="M 40.5 288.36 
L 40.5 38.88 
" style="fill: none; stroke: #000000; stroke-width: 1.6; stroke-linejoin: miter; stroke-linecap: square"/>
   </g>
   <g id="patch_4">
    <path d="M 291.6 288.36 
L 291.6 38.88 
" style="fill: none; stroke: #000000; stroke-width: 1.6; stroke-linejoin: miter; stroke-linecap: square"/>
   </g>
   <g id="patch_5">
    <path d="M 40.5 288.36 
L 291.6 288.36 
" style="fill: none; stroke: #000000; stroke-width: 1.6; stroke-linejoin: miter; stroke-linecap: square"/>
   </g>
   <g id="patch_6">
    <path d="M 40.5 38.88 
L 291.6 38.88 
" style="fill: none; stroke: #000000; stroke-width: 1.6; stroke-linejoin: miter; stroke-linecap: square"/>
   </g>
   <g id="legend_1">
    <g id="patch_7">
     <path d="M 209.120625 118.935 
L 283.2 118.935 
Q 285.6 118.935 285.6 116.535 
L 285.6 47.28 
Q 285.6 44.88 283.2 44.88 
L 209.120625 44.88 
Q 206.720625 44.88 206.720625 47.28 
L 206.720625 116.535 
Q 206.720625 118.935 209.120625 118.935 
z
" style="fill: #ffffff; opacity: 0.8"/>
    </g>
    <g id="LineCollection_5">
     <path d="M 223.520625 60.598125 
L 223.520625 48.598125 
" style="fill: none; stroke: #ff0000; stroke-width: 2"/>
    </g>
    <g id="line2d_26">
     <g>
      <use xlink:href="#m94852dc161" x="223.520625" y="60.598125" style="fill: #ff0000; stroke: #ff0000; stroke-width: 2"/>
     </g>
    </g>
    <g id="line2d_27">
     <g>
      <use xlink:href="#m94852dc161" x="223.520625" y="48.598125" style="fill: #ff0000; stroke: #ff0000; stroke-width: 2"/>
     </g>
    </g>
    <g id="line2d_28">
     <path d="M 211.520625 54.598125 
L 235.520625 54.598125 
" style="fill: none; stroke: #ff0000; stroke-width: 1.5; stroke-linecap: square"/>
    </g>
    <g id="line2d_29"/>
    <g id="text_10">
     <!-- M=4 -->
     <g transform="translate(245.120625 58.798125) scale(0.12 -0.12)">
      <defs>
       <path id="DejaVuSans-4d" d="M 628 4666 
L 1569 4666 
L 2759 1491 
L 3956 4666 
L 4897 4666 
L 4897 0 
L 4281 0 
L 4281 4097 
L 3078 897 
L 2444 897 
L 1241 4097 
L 1241 0 
L 628 0 
L 628 4666 
z
" transform="scale(0.015625)"/>
       <path id="DejaVuSans-3d" d="M 678 2906 
L 4684 2906 
L 4684 2381 
L 678 2381 
L 678 2906 
z
M 678 1631 
L 4684 1631 
L 4684 1100 
L 678 1100 
L 678 1631 
z
" transform="scale(0.015625)"/>
       <path id="DejaVuSans-34" d="M 2419 4116 
L 825 1625 
L 2419 1625 
L 2419 4116 
z
M 2253 4666 
L 3047 4666 
L 3047 1625 
L 3713 1625 
L 3713 1100 
L 3047 1100 
L 3047 0 
L 2419 0 
L 2419 1100 
L 313 1100 
L 313 1709 
L 2253 4666 
z
" transform="scale(0.015625)"/>
      </defs>
      <use xlink:href="#DejaVuSans-4d"/>
      <use xlink:href="#DejaVuSans-3d" x="86.279297"/>
      <use xlink:href="#DejaVuSans-34" x="170.068359"/>
     </g>
    </g>
    <g id="LineCollection_6">
     <path d="M 223.520625 78.211875 
L 223.520625 66.211875 
" style="fill: none; stroke: #000000; stroke-width: 2"/>
    </g>
    <g id="line2d_30">
     <g>
      <use xlink:href="#m7a0ba3a58d" x="223.520625" y="78.211875" style="stroke: #000000; stroke-width: 2"/>
     </g>
    </g>
    <g id="line2d_31">
     <g>
      <use xlink:href="#m7a0ba3a58d" x="223.520625" y="66.211875" style="stroke: #000000; stroke-width: 2"/>
     </g>
    </g>
    <g id="line2d_32">
     <path d="M 211.520625 72.211875 
L 235.520625 72.211875 
" style="fill: none; stroke: #000000; stroke-width: 1.5; stroke-linecap: square"/>
    </g>
    <g id="line2d_33"/>
    <g id="text_11">
     <!-- M=8 -->
     <g transform="translate(245.120625 76.411875) scale(0.12 -0.12)">
      <use xlink:href="#DejaVuSans-4d"/>
      <use xlink:href="#DejaVuSans-3d" x="86.279297"/>
      <use xlink:href="#DejaVuSans-38" x="170.068359"/>
     </g>
    </g>
    <g id="LineCollection_7">
     <path d="M 223.520625 95.825625 
L 223.520625 83.825625 
" style="fill: none; stroke: #0000ff; stroke-width: 2"/>
    </g>
    <g id="line2d_34">
     <g>
      <use xlink:href="#m819dc98607" x="223.520625" y="95.825625" style="fill: #0000ff; stroke: #0000ff; stroke-width: 2"/>
     </g>
    </g>
    <g id="line2d_35">
     <g>
      <use xlink:href="#m819dc98607" x="223.520625" y="83.825625" style="fill: #0000ff; stroke: #0000ff; stroke-width: 2"/>
     </g>
    </g>
    <g id="line2d_36">
     <path d="M 211.520625 89.825625 
L 235.520625 89.825625 
" style="fill: none; stroke: #0000ff; stroke-width: 1.5; stroke-linecap: square"/>
    </g>
    <g id="line2d_37"/>
    <g id="text_12">
     <!-- M=12 -->
     <g transform="translate(245.120625 94.025625) scale(0.12 -0.12)">
      <defs>
       <path id="DejaVuSans-31" d="M 794 531 
L 1825 531 
L 1825 4091 
L 703 3866 
L 703 4441 
L 1819 4666 
L 2450 4666 
L 2450 531 
L 3481 531 
L 3481 0 
L 794 0 
L 794 531 
z
" transform="scale(0.015625)"/>
       <path id="DejaVuSans-32" d="M 1228 531 
L 3431 531 
L 3431 0 
L 469 0 
L 469 531 
Q 828 903 1448 1529 
Q 2069 2156 2228 2338 
Q 2531 2678 2651 2914 
Q 2772 3150 2772 3378 
Q 2772 3750 2511 3984 
Q 2250 4219 1831 4219 
Q 1534 4219 1204 4116 
Q 875 4013 500 3803 
L 500 4441 
Q 881 4594 1212 4672 
Q 1544 4750 1819 4750 
Q 2544 4750 2975 4387 
Q 3406 4025 3406 3419 
Q 3406 3131 3298 2873 
Q 3191 2616 2906 2266 
Q 2828 2175 2409 1742 
Q 1991 1309 1228 531 
z
" transform="scale(0.015625)"/>
      </defs>
      <use xlink:href="#DejaVuSans-4d"/>
      <use xlink:href="#DejaVuSans-3d" x="86.279297"/>
      <use xlink:href="#DejaVuSans-31" x="170.068359"/>
      <use xlink:href="#DejaVuSans-32" x="233.691406"/>
     </g>
    </g>
    <g id="LineCollection_8">
     <path d="M 223.520625 113.439375 
L 223.520625 101.439375 
" style="fill: none; stroke: #bf00bf; stroke-width: 2"/>
    </g>
    <g id="line2d_38">
     <g>
      <use xlink:href="#m0b8242c043" x="223.520625" y="113.439375" style="fill: #bf00bf; stroke: #bf00bf; stroke-width: 2"/>
     </g>
    </g>
    <g id="line2d_39">
     <g>
      <use xlink:href="#m0b8242c043" x="223.520625" y="101.439375" style="fill: #bf00bf; stroke: #bf00bf; stroke-width: 2"/>
     </g>
    </g>
    <g id="line2d_40">
     <path d="M 211.520625 107.439375 
L 235.520625 107.439375 
" style="fill: none; stroke: #bf00bf; stroke-width: 1.5; stroke-linecap: square"/>
    </g>
    <g id="line2d_41"/>
    <g id="text_13">
     <!-- M=16 -->
     <g transform="translate(245.120625 111.639375) scale(0.12 -0.12)">
      <defs>
       <path id="DejaVuSans-36" d="M 2113 2584 
Q 1688 2584 1439 2293 
Q 1191 2003 1191 1497 
Q 1191 994 1439 701 
Q 1688 409 2113 409 
Q 2538 409 2786 701 
Q 3034 994 3034 1497 
Q 3034 2003 2786 2293 
Q 2538 2584 2113 2584 
z
M 3366 4563 
L 3366 3988 
Q 3128 4100 2886 4159 
Q 2644 4219 2406 4219 
Q 1781 4219 1451 3797 
Q 1122 3375 1075 2522 
Q 1259 2794 1537 2939 
Q 1816 3084 2150 3084 
Q 2853 3084 3261 2657 
Q 3669 2231 3669 1497 
Q 3669 778 3244 343 
Q 2819 -91 2113 -91 
Q 1303 -91 875 529 
Q 447 1150 447 2328 
Q 447 3434 972 4092 
Q 1497 4750 2381 4750 
Q 2619 4750 2861 4703 
Q 3103 4656 3366 4563 
z
" transform="scale(0.015625)"/>
      </defs>
      <use xlink:href="#DejaVuSans-4d"/>
      <use xlink:href="#DejaVuSans-3d" x="86.279297"/>
      <use xlink:href="#DejaVuSans-31" x="170.068359"/>
      <use xlink:href="#DejaVuSans-36" x="233.691406"/>
     </g>
    </g>
   </g>
  </g>
 </g>
 <defs>
  <clipPath id="p00cadd93d7">
   <rect x="40.5" y="38.88" width="251.1" height="249.48"/>
  </clipPath>
 </defs>
</svg>
