<?xml version="1.0" encoding="utf-8" standalone="no"?>
<!DOCTYPE svg PUBLIC "-//W3C//DTD SVG 1.1//EN"
  "http://www.w3.org/Graphics/SVG/1.1/DTD/svg11.dtd">
<svg xmlns:xlink="http://www.w3.org/1999/xlink" width="324pt" height="324pt" viewBox="0 0 324 324" xmlns="http://www.w3.org/2000/svg" version="1.1">
 <metadata>
  <rdf:RDF xmlns:dc="http://purl.org/dc/elements/1.1/" xmlns:cc="http://creativecommons.org/ns#" xmlns:rdf="http://www.w3.org/1999/02/22-rdf-syntax-ns#">
   <cc:Work>
    <dc:type rdf:resource="http://purl.org/dc/dcmitype/StillImage"/>
    <dc:date>2026-01-10T18:50:39.993923</dc:date>
    <dc:format>image/svg+xml</dc:format>
    <dc:creator>
     <cc:Agent>
      <dc:title>Matplotlib v3.8.0, https://matplotlib.org/</dc:title>
     </cc:Agent>
    </dc:creator>
   </cc:Work>
  </rdf:RDF>
 </metadata>
 <defs>
  <style type="text/css">*{stroke-linejoin: round; stroke-linecap: butt}</style>
 </defs>
 <g id="figure_1">
  <g id="patch_1">
   <path d="M 0 324 
L 324 324 
L 324 0 
L 0 0 
z
" style="fill: #ffffff"/>
  </g>
  <g id="axes_1">
   <g id="patch_2">
    <path d="M 40.5 288.36 
L 291.6 288.36 
L 291.6 38.88 
L 40.5 38.88 
z
" style="fill: #ffffff"/>
   </g>
   <g id="matplotlib.axis_1">
    <g id="xtick_1">
     <g id="line2d_1">
      <defs>
       <path id="m939c897102" d="M 0 0 
L 0 8 
" style="stroke: #000000; stroke-width: 1.5"/>
      </defs>
      <g>
       <use xlink:href="#m939c897102" x="70.936364" y="288.36" style="stroke: #000000; stroke-width: 1.5"/>
      </g>
     </g>
     <g id="text_1">
      <!-- 7.0 -->
      <g transform="translate(61.394489 308.978125) scale(0.12 -0.12)">
       <defs>
        <path id="DejaVuSans-37" d="M 525 4666 
L 3525 4666 
L 3525 4397 
L 1831 0 
L 1172 0 
L 2766 4134 
L 525 4134 
L 525 4666 
z
" transform="scale(0.015625)"/>
        <path id="DejaVuSans-2e" d="M 684 794 
L 1344 794 
L 1344 0 
L 684 0 
L 684 794 
z
" transform="scale(0.015625)"/>
        <path id="DejaVuSans-30" d="M 2034 4250 
Q 1547 4250 1301 3770 
Q 1056 3291 1056 2328 
Q 1056 1369 1301 889 
Q 1547 409 2034 409 
Q 2525 409 2770 889 
Q 3016 1369 3016 2328 
Q 3016 3291 2770 3770 
Q 2525 4250 2034 4250 
z
M 2034 4750 
Q 2819 4750 3233 4129 
Q 3647 3509 3647 2328 
Q 3647 1150 3233 529 
Q 2819 -91 2034 -91 
Q 1250 -91 836 529 
Q 422 1150 422 2328 
Q 422 3509 836 4129 
Q 1250 4750 2034 4750 
z
" transform="scale(0.015625)"/>
       </defs>
       <use xlink:href="#DejaVuSans-37"/>
       <use xlink:href="#DejaVuSans-2e" x="63.623047"/>
       <use xlink:href="#DejaVuSans-30" x="95.410156"/>
      </g>
     </g>
    </g>
    <g id="xtick_2">
     <g id="line2d_2">
      <g>
       <use xlink:href="#m939c897102" x="118.493182" y="288.36" style="stroke: #000000; stroke-width: 1.5"/>
      </g>
     </g>
     <g id="text_2">
      <!-- 7.5 -->
      <g transform="translate(108.951307 308.978125) scale(0.12 -0.12)">
       <defs>
        <path id="DejaVuSans-35" d="M 691 4666 
L 3169 4666 
L 3169 4134 
L 1269 4134 
L 1269 2991 
Q 1406 3038 1543 3061 
Q 1681 3084 1819 3084 
Q 2600 3084 3056 2656 
Q 3513 2228 3513 1497 
Q 3513 744 3044 326 
Q 2575 -91 1722 -91 
Q 1428 -91 1123 -41 
Q 819 9 494 109 
L 494 744 
Q 775 591 1075 516 
Q 1375 441 1709 441 
Q 2250 441 2565 725 
Q 2881 1009 2881 1497 
Q 2881 1984 2565 2268 
Q 2250 2553 1709 2553 
Q 1456 2553 1204 2497 
Q 953 2441 691 2322 
L 691 4666 
z
" transform="scale(0.015625)"/>
       </defs>
       <use xlink:href="#DejaVuSans-37"/>
       <use xlink:href="#DejaVuSans-2e" x="63.623047"/>
       <use xlink:href="#DejaVuSans-35" x="95.410156"/>
      </g>
     </g>
    </g>
    <g id="xtick_3">
     <g id="line2d_3">
      <g>
       <use xlink:href="#m939c897102" x="166.05" y="288.36" style="stroke: #000000; stroke-width: 1.5"/>
      </g>
     </g>
     <g id="text_3">
      <!-- 8.0 -->
      <g transform="translate(156.508125 308.978125) scale(0.12 -0.12)">
       <defs>
        <path id="DejaVuSans-38" d="M 2034 2216 
Q 1584 2216 1326 1975 
Q 1069 1734 1069 1313 
Q 1069 891 1326 650 
Q 1584 409 2034 409 
Q 2484 409 2743 651 
Q 3003 894 3003 1313 
Q 3003 1734 2745 1975 
Q 2488 2216 2034 2216 
z
M 1403 2484 
Q 997 2584 770 2862 
Q 544 3141 544 3541 
Q 544 4100 942 4425 
Q 1341 4750 2034 4750 
Q 2731 4750 3128 4425 
Q 3525 4100 3525 3541 
Q 3525 3141 3298 2862 
Q 3072 2584 2669 2484 
Q 3125 2378 3379 2068 
Q 3634 1759 3634 1313 
Q 3634 634 3220 271 
Q 2806 -91 2034 -91 
Q 1263 -91 848 271 
Q 434 634 434 1313 
Q 434 1759 690 2068 
Q 947 2378 1403 2484 
z
M 1172 3481 
Q 1172 3119 1398 2916 
Q 1625 2713 2034 2713 
Q 2441 2713 2670 2916 
Q 2900 3119 2900 3481 
Q 2900 3844 2670 4047 
Q 2441 4250 2034 4250 
Q 1625 4250 1398 4047 
Q 1172 3844 1172 3481 
z
" transform="scale(0.015625)"/>
       </defs>
       <use xlink:href="#DejaVuSans-38"/>
       <use xlink:href="#DejaVuSans-2e" x="63.623047"/>
       <use xlink:href="#DejaVuSans-30" x="95.410156"/>
      </g>
     </g>
    </g>
    <g id="xtick_4">
     <g id="line2d_4">
      <g>
       <use xlink:href="#m939c897102" x="213.606818" y="288.36" style="stroke: #000000; stroke-width: 1.5"/>
      </g>
     </g>
     <g id="text_4">
      <!-- 8.5 -->
      <g transform="translate(204.064943 308.978125) scale(0.12 -0.12)">
       <use xlink:href="#DejaVuSans-38"/>
       <use xlink:href="#DejaVuSans-2e" x="63.623047"/>
       <use xlink:href="#DejaVuSans-35" x="95.410156"/>
      </g>
     </g>
    </g>
    <g id="xtick_5">
     <g id="line2d_5">
      <g>
       <use xlink:href="#m939c897102" x="261.163636" y="288.36" style="stroke: #000000; stroke-width: 1.5"/>
      </g>
     </g>
     <g id="text_5">
      <!-- 9.0 -->
      <g transform="translate(251.621761 308.978125) scale(0.12 -0.12)">
       <defs>
        <path id="DejaVuSans-39" d="M 703 97 
L 703 672 
Q 941 559 1184 500 
Q 1428 441 1663 441 
Q 2288 441 2617 861 
Q 2947 1281 2994 2138 
Q 2813 1869 2534 1725 
Q 2256 1581 1919 1581 
Q 1219 1581 811 2004 
Q 403 2428 403 3163 
Q 403 3881 828 4315 
Q 1253 4750 1959 4750 
Q 2769 4750 3195 4129 
Q 3622 3509 3622 2328 
Q 3622 1225 3098 567 
Q 2575 -91 1691 -91 
Q 1453 -91 1209 -44 
Q 966 3 703 97 
z
M 1959 2075 
Q 2384 2075 2632 2365 
Q 2881 2656 2881 3163 
Q 2881 3666 2632 3958 
Q 2384 4250 1959 4250 
Q 1534 4250 1286 3958 
Q 1038 3666 1038 3163 
Q 1038 2656 1286 2365 
Q 1534 2075 1959 2075 
z
" transform="scale(0.015625)"/>
       </defs>
       <use xlink:href="#DejaVuSans-39"/>
       <use xlink:href="#DejaVuSans-2e" x="63.623047"/>
       <use xlink:href="#DejaVuSans-30" x="95.410156"/>
      </g>
     </g>
    </g>
   </g>
   <g id="matplotlib.axis_2">
    <g id="ytick_1">
     <g id="line2d_6">
      <defs>
       <path id="m9bd37199e3" d="M 0 0 
L -8 0 
" style="stroke: #000000; stroke-width: 1.5"/>
      </defs>
      <g>
       <use xlink:href="#m9bd37199e3" x="40.5" y="272.942305" style="stroke: #000000; stroke-width: 1.5"/>
      </g>
     </g>
     <g id="text_6">
      <!-- 0.4 -->
      <g transform="translate(9.91625 277.501367) scale(0.12 -0.12)">
       <defs>
        <path id="DejaVuSans-34" d="M 2419 4116 
L 825 1625 
L 2419 1625 
L 2419 4116 
z
M 2253 4666 
L 3047 4666 
L 3047 1625 
L 3713 1625 
L 3713 1100 
L 3047 1100 
L 3047 0 
L 2419 0 
L 2419 1100 
L 313 1100 
L 313 1709 
L 2253 4666 
z
" transform="scale(0.015625)"/>
       </defs>
       <use xlink:href="#DejaVuSans-30"/>
       <use xlink:href="#DejaVuSans-2e" x="63.623047"/>
       <use xlink:href="#DejaVuSans-34" x="95.410156"/>
      </g>
     </g>
    </g>
    <g id="ytick_2">
     <g id="line2d_7">
      <g>
       <use xlink:href="#m9bd37199e3" x="40.5" y="225.503947" style="stroke: #000000; stroke-width: 1.5"/>
      </g>
     </g>
     <g id="text_7">
      <!-- 0.5 -->
      <g transform="translate(9.91625 230.063009) scale(0.12 -0.12)">
       <use xlink:href="#DejaVuSans-30"/>
       <use xlink:href="#DejaVuSans-2e" x="63.623047"/>
       <use xlink:href="#DejaVuSans-35" x="95.410156"/>
      </g>
     </g>
    </g>
    <g id="ytick_3">
     <g id="line2d_8">
      <g>
       <use xlink:href="#m9bd37199e3" x="40.5" y="178.065588" style="stroke: #000000; stroke-width: 1.5"/>
      </g>
     </g>
     <g id="text_8">
      <!-- 0.6 -->
      <g transform="translate(9.91625 182.624651) scale(0.12 -0.12)">
       <defs>
        <path id="DejaVuSans-36" d="M 2113 2584 
Q 1688 2584 1439 2293 
Q 1191 2003 1191 1497 
Q 1191 994 1439 701 
Q 1688 409 2113 409 
Q 2538 409 2786 701 
Q 3034 994 3034 1497 
Q 3034 2003 2786 2293 
Q 2538 2584 2113 2584 
z
M 3366 4563 
L 3366 3988 
Q 3128 4100 2886 4159 
Q 2644 4219 2406 4219 
Q 1781 4219 1451 3797 
Q 1122 3375 1075 2522 
Q 1259 2794 1537 2939 
Q 1816 3084 2150 3084 
Q 2853 3084 3261 2657 
Q 3669 2231 3669 1497 
Q 3669 778 3244 343 
Q 2819 -91 2113 -91 
Q 1303 -91 875 529 
Q 447 1150 447 2328 
Q 447 3434 972 4092 
Q 1497 4750 2381 4750 
Q 2619 4750 2861 4703 
Q 3103 4656 3366 4563 
z
" transform="scale(0.015625)"/>
       </defs>
       <use xlink:href="#DejaVuSans-30"/>
       <use xlink:href="#DejaVuSans-2e" x="63.623047"/>
       <use xlink:href="#DejaVuSans-36" x="95.410156"/>
      </g>
     </g>
    </g>
    <g id="ytick_4">
     <g id="line2d_9">
      <g>
       <use xlink:href="#m9bd37199e3" x="40.5" y="130.62723" style="stroke: #000000; stroke-width: 1.5"/>
      </g>
     </g>
     <g id="text_9">
      <!-- 0.7 -->
      <g transform="translate(9.91625 135.186293) scale(0.12 -0.12)">
       <use xlink:href="#DejaVuSans-30"/>
       <use xlink:href="#DejaVuSans-2e" x="63.623047"/>
       <use xlink:href="#DejaVuSans-37" x="95.410156"/>
      </g>
     </g>
    </g>
    <g id="ytick_5">
     <g id="line2d_10">
      <g>
       <use xlink:href="#m9bd37199e3" x="40.5" y="83.188872" style="stroke: #000000; stroke-width: 1.5"/>
      </g>
     </g>
     <g id="text_10">
      <!-- 0.8 -->
      <g transform="translate(9.91625 87.747934) scale(0.12 -0.12)">
       <use xlink:href="#DejaVuSans-30"/>
       <use xlink:href="#DejaVuSans-2e" x="63.623047"/>
       <use xlink:href="#DejaVuSans-38" x="95.410156"/>
      </g>
     </g>
    </g>
   </g>
   <g id="line2d_11">
    <path d="M 51.913636 129.459938 
L 70.936364 141.186666 
L 89.959091 150.892928 
L 108.981818 162.449836 
L 128.004545 172.638196 
L 147.027273 181.305038 
L 166.05 190.411417 
L 185.072727 200.415577 
L 204.095455 207.773178 
L 223.118182 216.208705 
L 242.140909 224.203804 
L 261.163636 231.237391 
L 280.186364 238.053972 
" clip-path="url(#p7577296c59)" style="fill: none; stroke: #ff0000; stroke-width: 1.5; stroke-linecap: square"/>
   </g>
   <g id="LineCollection_1">
    <path d="M 51.913636 129.574381 
L 51.913636 129.345494 
" clip-path="url(#p7577296c59)" style="fill: none; stroke: #ff0000; stroke-width: 2"/>
    <path d="M 70.936364 141.443261 
L 70.936364 140.930071 
" clip-path="url(#p7577296c59)" style="fill: none; stroke: #ff0000; stroke-width: 2"/>
    <path d="M 89.959091 151.637183 
L 89.959091 150.148673 
" clip-path="url(#p7577296c59)" style="fill: none; stroke: #ff0000; stroke-width: 2"/>
    <path d="M 108.981818 162.916014 
L 108.981818 161.983657 
" clip-path="url(#p7577296c59)" style="fill: none; stroke: #ff0000; stroke-width: 2"/>
    <path d="M 128.004545 173.040878 
L 128.004545 172.235514 
" clip-path="url(#p7577296c59)" style="fill: none; stroke: #ff0000; stroke-width: 2"/>
    <path d="M 147.027273 181.771041 
L 147.027273 180.839035 
" clip-path="url(#p7577296c59)" style="fill: none; stroke: #ff0000; stroke-width: 2"/>
    <path d="M 166.05 191.036133 
L 166.05 189.7867 
" clip-path="url(#p7577296c59)" style="fill: none; stroke: #ff0000; stroke-width: 2"/>
    <path d="M 185.072727 200.570765 
L 185.072727 200.260389 
" clip-path="url(#p7577296c59)" style="fill: none; stroke: #ff0000; stroke-width: 2"/>
    <path d="M 204.095455 208.062401 
L 204.095455 207.483955 
" clip-path="url(#p7577296c59)" style="fill: none; stroke: #ff0000; stroke-width: 2"/>
    <path d="M 223.118182 216.627583 
L 223.118182 215.789827 
" clip-path="url(#p7577296c59)" style="fill: none; stroke: #ff0000; stroke-width: 2"/>
    <path d="M 242.140909 224.536928 
L 242.140909 223.870679 
" clip-path="url(#p7577296c59)" style="fill: none; stroke: #ff0000; stroke-width: 2"/>
    <path d="M 261.163636 231.775752 
L 261.163636 230.699031 
" clip-path="url(#p7577296c59)" style="fill: none; stroke: #ff0000; stroke-width: 2"/>
    <path d="M 280.186364 238.454213 
L 280.186364 237.653731 
" clip-path="url(#p7577296c59)" style="fill: none; stroke: #ff0000; stroke-width: 2"/>
   </g>
   <g id="line2d_12">
    <defs>
     <path id="m2c9d500434" d="M 3 0 
L -3 -0 
" style="stroke: #ff0000; stroke-width: 2"/>
    </defs>
    <g clip-path="url(#p7577296c59)">
     <use xlink:href="#m2c9d500434" x="51.913636" y="129.574381" style="fill: #ff0000; stroke: #ff0000; stroke-width: 2"/>
     <use xlink:href="#m2c9d500434" x="70.936364" y="141.443261" style="fill: #ff0000; stroke: #ff0000; stroke-width: 2"/>
     <use xlink:href="#m2c9d500434" x="89.959091" y="151.637183" style="fill: #ff0000; stroke: #ff0000; stroke-width: 2"/>
     <use xlink:href="#m2c9d500434" x="108.981818" y="162.916014" style="fill: #ff0000; stroke: #ff0000; stroke-width: 2"/>
     <use xlink:href="#m2c9d500434" x="128.004545" y="173.040878" style="fill: #ff0000; stroke: #ff0000; stroke-width: 2"/>
     <use xlink:href="#m2c9d500434" x="147.027273" y="181.771041" style="fill: #ff0000; stroke: #ff0000; stroke-width: 2"/>
     <use xlink:href="#m2c9d500434" x="166.05" y="191.036133" style="fill: #ff0000; stroke: #ff0000; stroke-width: 2"/>
     <use xlink:href="#m2c9d500434" x="185.072727" y="200.570765" style="fill: #ff0000; stroke: #ff0000; stroke-width: 2"/>
     <use xlink:href="#m2c9d500434" x="204.095455" y="208.062401" style="fill: #ff0000; stroke: #ff0000; stroke-width: 2"/>
     <use xlink:href="#m2c9d500434" x="223.118182" y="216.627583" style="fill: #ff0000; stroke: #ff0000; stroke-width: 2"/>
     <use xlink:href="#m2c9d500434" x="242.140909" y="224.536928" style="fill: #ff0000; stroke: #ff0000; stroke-width: 2"/>
     <use xlink:href="#m2c9d500434" x="261.163636" y="231.775752" style="fill: #ff0000; stroke: #ff0000; stroke-width: 2"/>
     <use xlink:href="#m2c9d500434" x="280.186364" y="238.454213" style="fill: #ff0000; stroke: #ff0000; stroke-width: 2"/>
    </g>
   </g>
   <g id="line2d_13">
    <g clip-path="url(#p7577296c59)">
     <use xlink:href="#m2c9d500434" x="51.913636" y="129.345494" style="fill: #ff0000; stroke: #ff0000; stroke-width: 2"/>
     <use xlink:href="#m2c9d500434" x="70.936364" y="140.930071" style="fill: #ff0000; stroke: #ff0000; stroke-width: 2"/>
     <use xlink:href="#m2c9d500434" x="89.959091" y="150.148673" style="fill: #ff0000; stroke: #ff0000; stroke-width: 2"/>
     <use xlink:href="#m2c9d500434" x="108.981818" y="161.983657" style="fill: #ff0000; stroke: #ff0000; stroke-width: 2"/>
     <use xlink:href="#m2c9d500434" x="128.004545" y="172.235514" style="fill: #ff0000; stroke: #ff0000; stroke-width: 2"/>
     <use xlink:href="#m2c9d500434" x="147.027273" y="180.839035" style="fill: #ff0000; stroke: #ff0000; stroke-width: 2"/>
     <use xlink:href="#m2c9d500434" x="166.05" y="189.7867" style="fill: #ff0000; stroke: #ff0000; stroke-width: 2"/>
     <use xlink:href="#m2c9d500434" x="185.072727" y="200.260389" style="fill: #ff0000; stroke: #ff0000; stroke-width: 2"/>
     <use xlink:href="#m2c9d500434" x="204.095455" y="207.483955" style="fill: #ff0000; stroke: #ff0000; stroke-width: 2"/>
     <use xlink:href="#m2c9d500434" x="223.118182" y="215.789827" style="fill: #ff0000; stroke: #ff0000; stroke-width: 2"/>
     <use xlink:href="#m2c9d500434" x="242.140909" y="223.870679" style="fill: #ff0000; stroke: #ff0000; stroke-width: 2"/>
     <use xlink:href="#m2c9d500434" x="261.163636" y="230.699031" style="fill: #ff0000; stroke: #ff0000; stroke-width: 2"/>
     <use xlink:href="#m2c9d500434" x="280.186364" y="237.653731" style="fill: #ff0000; stroke: #ff0000; stroke-width: 2"/>
    </g>
   </g>
   <g id="line2d_14">
    <path d="M 51.913636 88.079578 
L 70.936364 109.056002 
L 89.959091 126.572415 
L 108.981818 143.430538 
L 128.004545 159.413388 
L 147.027273 175.542034 
L 166.05 190.111619 
L 185.072727 203.970368 
L 204.095455 217.221687 
L 223.118182 228.550371 
L 242.140909 240.783667 
L 261.163636 250.642111 
L 280.186364 260.511028 
" clip-path="url(#p7577296c59)" style="fill: none; stroke: #000000; stroke-width: 1.5; stroke-linecap: square"/>
   </g>
   <g id="LineCollection_2">
    <path d="M 51.913636 90.06217 
L 51.913636 86.096987 
" clip-path="url(#p7577296c59)" style="fill: none; stroke: #000000; stroke-width: 2"/>
    <path d="M 70.936364 109.757873 
L 70.936364 108.354131 
" clip-path="url(#p7577296c59)" style="fill: none; stroke: #000000; stroke-width: 2"/>
    <path d="M 89.959091 127.055058 
L 89.959091 126.089772 
" clip-path="url(#p7577296c59)" style="fill: none; stroke: #000000; stroke-width: 2"/>
    <path d="M 108.981818 144.011543 
L 108.981818 142.849533 
" clip-path="url(#p7577296c59)" style="fill: none; stroke: #000000; stroke-width: 2"/>
    <path d="M 128.004545 160.330027 
L 128.004545 158.49675 
" clip-path="url(#p7577296c59)" style="fill: none; stroke: #000000; stroke-width: 2"/>
    <path d="M 147.027273 175.833603 
L 147.027273 175.250464 
" clip-path="url(#p7577296c59)" style="fill: none; stroke: #000000; stroke-width: 2"/>
    <path d="M 166.05 190.487587 
L 166.05 189.73565 
" clip-path="url(#p7577296c59)" style="fill: none; stroke: #000000; stroke-width: 2"/>
    <path d="M 185.072727 204.326664 
L 185.072727 203.614072 
" clip-path="url(#p7577296c59)" style="fill: none; stroke: #000000; stroke-width: 2"/>
    <path d="M 204.095455 217.616097 
L 204.095455 216.827276 
" clip-path="url(#p7577296c59)" style="fill: none; stroke: #000000; stroke-width: 2"/>
    <path d="M 223.118182 229.041067 
L 223.118182 228.059676 
" clip-path="url(#p7577296c59)" style="fill: none; stroke: #000000; stroke-width: 2"/>
    <path d="M 242.140909 241.223847 
L 242.140909 240.343487 
" clip-path="url(#p7577296c59)" style="fill: none; stroke: #000000; stroke-width: 2"/>
    <path d="M 261.163636 250.767979 
L 261.163636 250.516243 
" clip-path="url(#p7577296c59)" style="fill: none; stroke: #000000; stroke-width: 2"/>
    <path d="M 280.186364 260.709977 
L 280.186364 260.312079 
" clip-path="url(#p7577296c59)" style="fill: none; stroke: #000000; stroke-width: 2"/>
   </g>
   <g id="line2d_15">
    <defs>
     <path id="mbfdbea5c6a" d="M 3 0 
L -3 -0 
" style="stroke: #000000; stroke-width: 2"/>
    </defs>
    <g clip-path="url(#p7577296c59)">
     <use xlink:href="#mbfdbea5c6a" x="51.913636" y="90.06217" style="stroke: #000000; stroke-width: 2"/>
     <use xlink:href="#mbfdbea5c6a" x="70.936364" y="109.757873" style="stroke: #000000; stroke-width: 2"/>
     <use xlink:href="#mbfdbea5c6a" x="89.959091" y="127.055058" style="stroke: #000000; stroke-width: 2"/>
     <use xlink:href="#mbfdbea5c6a" x="108.981818" y="144.011543" style="stroke: #000000; stroke-width: 2"/>
     <use xlink:href="#mbfdbea5c6a" x="128.004545" y="160.330027" style="stroke: #000000; stroke-width: 2"/>
     <use xlink:href="#mbfdbea5c6a" x="147.027273" y="175.833603" style="stroke: #000000; stroke-width: 2"/>
     <use xlink:href="#mbfdbea5c6a" x="166.05" y="190.487587" style="stroke: #000000; stroke-width: 2"/>
     <use xlink:href="#mbfdbea5c6a" x="185.072727" y="204.326664" style="stroke: #000000; stroke-width: 2"/>
     <use xlink:href="#mbfdbea5c6a" x="204.095455" y="217.616097" style="stroke: #000000; stroke-width: 2"/>
     <use xlink:href="#mbfdbea5c6a" x="223.118182" y="229.041067" style="stroke: #000000; stroke-width: 2"/>
     <use xlink:href="#mbfdbea5c6a" x="242.140909" y="241.223847" style="stroke: #000000; stroke-width: 2"/>
     <use xlink:href="#mbfdbea5c6a" x="261.163636" y="250.767979" style="stroke: #000000; stroke-width: 2"/>
     <use xlink:href="#mbfdbea5c6a" x="280.186364" y="260.709977" style="stroke: #000000; stroke-width: 2"/>
    </g>
   </g>
   <g id="line2d_16">
    <g clip-path="url(#p7577296c59)">
     <use xlink:href="#mbfdbea5c6a" x="51.913636" y="86.096987" style="stroke: #000000; stroke-width: 2"/>
     <use xlink:href="#mbfdbea5c6a" x="70.936364" y="108.354131" style="stroke: #000000; stroke-width: 2"/>
     <use xlink:href="#mbfdbea5c6a" x="89.959091" y="126.089772" style="stroke: #000000; stroke-width: 2"/>
     <use xlink:href="#mbfdbea5c6a" x="108.981818" y="142.849533" style="stroke: #000000; stroke-width: 2"/>
     <use xlink:href="#mbfdbea5c6a" x="128.004545" y="158.49675" style="stroke: #000000; stroke-width: 2"/>
     <use xlink:href="#mbfdbea5c6a" x="147.027273" y="175.250464" style="stroke: #000000; stroke-width: 2"/>
     <use xlink:href="#mbfdbea5c6a" x="166.05" y="189.73565" style="stroke: #000000; stroke-width: 2"/>
     <use xlink:href="#mbfdbea5c6a" x="185.072727" y="203.614072" style="stroke: #000000; stroke-width: 2"/>
     <use xlink:href="#mbfdbea5c6a" x="204.095455" y="216.827276" style="stroke: #000000; stroke-width: 2"/>
     <use xlink:href="#mbfdbea5c6a" x="223.118182" y="228.059676" style="stroke: #000000; stroke-width: 2"/>
     <use xlink:href="#mbfdbea5c6a" x="242.140909" y="240.343487" style="stroke: #000000; stroke-width: 2"/>
     <use xlink:href="#mbfdbea5c6a" x="261.163636" y="250.516243" style="stroke: #000000; stroke-width: 2"/>
     <use xlink:href="#mbfdbea5c6a" x="280.186364" y="260.312079" style="stroke: #000000; stroke-width: 2"/>
    </g>
   </g>
   <g id="line2d_17">
    <path d="M 51.913636 52.598857 
L 70.936364 81.741752 
L 89.959091 105.038742 
L 108.981818 130.10879 
L 128.004545 150.215028 
L 147.027273 171.26708 
L 166.05 190.130202 
L 185.072727 207.443349 
L 204.095455 222.944829 
L 223.118182 238.862939 
L 242.140909 253.259119 
L 261.163636 265.981654 
L 280.186364 276.516076 
" clip-path="url(#p7577296c59)" style="fill: none; stroke: #0000ff; stroke-width: 1.5; stroke-linecap: square"/>
   </g>
   <g id="LineCollection_3">
    <path d="M 51.913636 54.977713 
L 51.913636 50.22 
" clip-path="url(#p7577296c59)" style="fill: none; stroke: #0000ff; stroke-width: 2"/>
    <path d="M 70.936364 82.843459 
L 70.936364 80.640045 
" clip-path="url(#p7577296c59)" style="fill: none; stroke: #0000ff; stroke-width: 2"/>
    <path d="M 89.959091 106.05039 
L 89.959091 104.027095 
" clip-path="url(#p7577296c59)" style="fill: none; stroke: #0000ff; stroke-width: 2"/>
    <path d="M 108.981818 130.478225 
L 108.981818 129.739355 
" clip-path="url(#p7577296c59)" style="fill: none; stroke: #0000ff; stroke-width: 2"/>
    <path d="M 128.004545 150.850694 
L 128.004545 149.579362 
" clip-path="url(#p7577296c59)" style="fill: none; stroke: #0000ff; stroke-width: 2"/>
    <path d="M 147.027273 171.959767 
L 147.027273 170.574393 
" clip-path="url(#p7577296c59)" style="fill: none; stroke: #0000ff; stroke-width: 2"/>
    <path d="M 166.05 190.705399 
L 166.05 189.555005 
" clip-path="url(#p7577296c59)" style="fill: none; stroke: #0000ff; stroke-width: 2"/>
    <path d="M 185.072727 207.616667 
L 185.072727 207.270031 
" clip-path="url(#p7577296c59)" style="fill: none; stroke: #0000ff; stroke-width: 2"/>
    <path d="M 204.095455 223.400836 
L 204.095455 222.488821 
" clip-path="url(#p7577296c59)" style="fill: none; stroke: #0000ff; stroke-width: 2"/>
    <path d="M 223.118182 239.082313 
L 223.118182 238.643564 
" clip-path="url(#p7577296c59)" style="fill: none; stroke: #0000ff; stroke-width: 2"/>
    <path d="M 242.140909 253.792203 
L 242.140909 252.726035 
" clip-path="url(#p7577296c59)" style="fill: none; stroke: #0000ff; stroke-width: 2"/>
    <path d="M 261.163636 266.477668 
L 261.163636 265.485641 
" clip-path="url(#p7577296c59)" style="fill: none; stroke: #0000ff; stroke-width: 2"/>
    <path d="M 280.186364 277.02 
L 280.186364 276.012152 
" clip-path="url(#p7577296c59)" style="fill: none; stroke: #0000ff; stroke-width: 2"/>
   </g>
   <g id="line2d_18">
    <defs>
     <path id="m265b909447" d="M 3 0 
L -3 -0 
" style="stroke: #0000ff; stroke-width: 2"/>
    </defs>
    <g clip-path="url(#p7577296c59)">
     <use xlink:href="#m265b909447" x="51.913636" y="54.977713" style="fill: #0000ff; stroke: #0000ff; stroke-width: 2"/>
     <use xlink:href="#m265b909447" x="70.936364" y="82.843459" style="fill: #0000ff; stroke: #0000ff; stroke-width: 2"/>
     <use xlink:href="#m265b909447" x="89.959091" y="106.05039" style="fill: #0000ff; stroke: #0000ff; stroke-width: 2"/>
     <use xlink:href="#m265b909447" x="108.981818" y="130.478225" style="fill: #0000ff; stroke: #0000ff; stroke-width: 2"/>
     <use xlink:href="#m265b909447" x="128.004545" y="150.850694" style="fill: #0000ff; stroke: #0000ff; stroke-width: 2"/>
     <use xlink:href="#m265b909447" x="147.027273" y="171.959767" style="fill: #0000ff; stroke: #0000ff; stroke-width: 2"/>
     <use xlink:href="#m265b909447" x="166.05" y="190.705399" style="fill: #0000ff; stroke: #0000ff; stroke-width: 2"/>
     <use xlink:href="#m265b909447" x="185.072727" y="207.616667" style="fill: #0000ff; stroke: #0000ff; stroke-width: 2"/>
     <use xlink:href="#m265b909447" x="204.095455" y="223.400836" style="fill: #0000ff; stroke: #0000ff; stroke-width: 2"/>
     <use xlink:href="#m265b909447" x="223.118182" y="239.082313" style="fill: #0000ff; stroke: #0000ff; stroke-width: 2"/>
     <use xlink:href="#m265b909447" x="242.140909" y="253.792203" style="fill: #0000ff; stroke: #0000ff; stroke-width: 2"/>
     <use xlink:href="#m265b909447" x="261.163636" y="266.477668" style="fill: #0000ff; stroke: #0000ff; stroke-width: 2"/>
     <use xlink:href="#m265b909447" x="280.186364" y="277.02" style="fill: #0000ff; stroke: #0000ff; stroke-width: 2"/>
    </g>
   </g>
   <g id="line2d_19">
    <g clip-path="url(#p7577296c59)">
     <use xlink:href="#m265b909447" x="51.913636" y="50.22" style="fill: #0000ff; stroke: #0000ff; stroke-width: 2"/>
     <use xlink:href="#m265b909447" x="70.936364" y="80.640045" style="fill: #0000ff; stroke: #0000ff; stroke-width: 2"/>
     <use xlink:href="#m265b909447" x="89.959091" y="104.027095" style="fill: #0000ff; stroke: #0000ff; stroke-width: 2"/>
     <use xlink:href="#m265b909447" x="108.981818" y="129.739355" style="fill: #0000ff; stroke: #0000ff; stroke-width: 2"/>
     <use xlink:href="#m265b909447" x="128.004545" y="149.579362" style="fill: #0000ff; stroke: #0000ff; stroke-width: 2"/>
     <use xlink:href="#m265b909447" x="147.027273" y="170.574393" style="fill: #0000ff; stroke: #0000ff; stroke-width: 2"/>
     <use xlink:href="#m265b909447" x="166.05" y="189.555005" style="fill: #0000ff; stroke: #0000ff; stroke-width: 2"/>
     <use xlink:href="#m265b909447" x="185.072727" y="207.270031" style="fill: #0000ff; stroke: #0000ff; stroke-width: 2"/>
     <use xlink:href="#m265b909447" x="204.095455" y="222.488821" style="fill: #0000ff; stroke: #0000ff; stroke-width: 2"/>
     <use xlink:href="#m265b909447" x="223.118182" y="238.643564" style="fill: #0000ff; stroke: #0000ff; stroke-width: 2"/>
     <use xlink:href="#m265b909447" x="242.140909" y="252.726035" style="fill: #0000ff; stroke: #0000ff; stroke-width: 2"/>
     <use xlink:href="#m265b909447" x="261.163636" y="265.485641" style="fill: #0000ff; stroke: #0000ff; stroke-width: 2"/>
     <use xlink:href="#m265b909447" x="280.186364" y="276.012152" style="fill: #0000ff; stroke: #0000ff; stroke-width: 2"/>
    </g>
   </g>
   <g id="line2d_20">
    <path clip-path="url(#p7577296c59)" style="fill: none; stroke: #bf00bf; stroke-width: 1.5; stroke-linecap: square"/>
   </g>
   <g id="LineCollection_4">
    <path clip-path="url(#p7577296c59)" style="fill: none; stroke: #bf00bf; stroke-width: 2"/>
    <path clip-path="url(#p7577296c59)" style="fill: none; stroke: #bf00bf; stroke-width: 2"/>
    <path clip-path="url(#p7577296c59)" style="fill: none; stroke: #bf00bf; stroke-width: 2"/>
    <path clip-path="url(#p7577296c59)" style="fill: none; stroke: #bf00bf; stroke-width: 2"/>
    <path clip-path="url(#p7577296c59)" style="fill: none; stroke: #bf00bf; stroke-width: 2"/>
    <path clip-path="url(#p7577296c59)" style="fill: none; stroke: #bf00bf; stroke-width: 2"/>
    <path clip-path="url(#p7577296c59)" style="fill: none; stroke: #bf00bf; stroke-width: 2"/>
    <path clip-path="url(#p7577296c59)" style="fill: none; stroke: #bf00bf; stroke-width: 2"/>
    <path clip-path="url(#p7577296c59)" style="fill: none; stroke: #bf00bf; stroke-width: 2"/>
    <path clip-path="url(#p7577296c59)" style="fill: none; stroke: #bf00bf; stroke-width: 2"/>
    <path clip-path="url(#p7577296c59)" style="fill: none; stroke: #bf00bf; stroke-width: 2"/>
    <path clip-path="url(#p7577296c59)" style="fill: none; stroke: #bf00bf; stroke-width: 2"/>
    <path clip-path="url(#p7577296c59)" style="fill: none; stroke: #bf00bf; stroke-width: 2"/>
   </g>
   <g id="line2d_21">
    <defs>
     <path id="m6a4c725334" d="M 3 0 
L -3 -0 
" style="stroke: #bf00bf; stroke-width: 2"/>
    </defs>
    <g clip-path="url(#p7577296c59)"/>
   </g>
   <g id="line2d_22">
    <g clip-path="url(#p7577296c59)"/>
   </g>
   <g id="line2d_23">
    <path d="M 51.913636 129.459938 
L 70.936364 141.186666 
L 89.959091 150.892928 
L 108.981818 162.449836 
L 128.004545 172.638196 
L 147.027273 181.305038 
L 166.05 190.411417 
L 185.072727 200.415577 
L 204.095455 207.773178 
L 223.118182 216.208705 
L 242.140909 224.203804 
L 261.163636 231.237391 
L 280.186364 238.053972 
" clip-path="url(#p7577296c59)" style="fill: none; stroke: #ff0000; stroke-width: 1.5; stroke-linecap: square"/>
   </g>
   <g id="line2d_24">
    <path d="M 51.913636 88.079578 
L 70.936364 109.056002 
L 89.959091 126.572415 
L 108.981818 143.430538 
L 128.004545 159.413388 
L 147.027273 175.542034 
L 166.05 190.111619 
L 185.072727 203.970368 
L 204.095455 217.221687 
L 223.118182 228.550371 
L 242.140909 240.783667 
L 261.163636 250.642111 
L 280.186364 260.511028 
" clip-path="url(#p7577296c59)" style="fill: none; stroke: #000000; stroke-width: 1.5; stroke-linecap: square"/>
   </g>
   <g id="line2d_25">
    <path d="M 51.913636 52.598857 
L 70.936364 81.741752 
L 89.959091 105.038742 
L 108.981818 130.10879 
L 128.004545 150.215028 
L 147.027273 171.26708 
L 166.05 190.130202 
L 185.072727 207.443349 
L 204.095455 222.944829 
L 223.118182 238.862939 
L 242.140909 253.259119 
L 261.163636 265.981654 
L 280.186364 276.516076 
" clip-path="url(#p7577296c59)" style="fill: none; stroke: #0000ff; stroke-width: 1.5; stroke-linecap: square"/>
   </g>
   <g id="line2d_26">
    <path clip-path="url(#p7577296c59)" style="fill: none; stroke: #bf00bf; stroke-width: 1.5; stroke-linecap: square"/>
   </g>
   <g id="patch_3">
    <path d="M 40.5 288.36 
L 40.5 38.88 
" style="fill: none; stroke: #000000; stroke-width: 1.6; stroke-linejoin: miter; stroke-linecap: square"/>
   </g>
   <g id="patch_4">
    <path d="M 291.6 288.36 
L 291.6 38.88 
" style="fill: none; stroke: #000000; stroke-width: 1.6; stroke-linejoin: miter; stroke-linecap: square"/>
   </g>
   <g id="patch_5">
    <path d="M 40.5 288.36 
L 291.6 288.36 
" style="fill: none; stroke: #000000; stroke-width: 1.6; stroke-linejoin: miter; stroke-linecap: square"/>
   </g>
   <g id="patch_6">
    <path d="M 40.5 38.88 
L 291.6 38.88 
" style="fill: none; stroke: #000000; stroke-width: 1.6; stroke-linejoin: miter; stroke-linecap: square"/>
   </g>
   <g id="legend_1">
    <g id="patch_7">
     <path d="M 209.120625 118.935 
L 283.2 118.935 
Q 285.6 118.935 285.6 116.535 
L 285.6 47.28 
Q 285.6 44.88 283.2 44.88 
L 209.120625 44.88 
Q 206.720625 44.88 206.720625 47.28 
L 206.720625 116.535 
Q 206.720625 118.935 209.120625 118.935 
z
" style="fill: #ffffff; opacity: 0.8"/>
    </g>
    <g id="LineCollection_5">
     <path d="M 223.520625 60.598125 
L 223.520625 48.598125 
" style="fill: none; stroke: #ff0000; stroke-width: 2"/>
    </g>
    <g id="line2d_27">
     <g>
      <use xlink:href="#m2c9d500434" x="223.520625" y="60.598125" style="fill: #ff0000; stroke: #ff0000; stroke-width: 2"/>
     </g>
    </g>
    <g id="line2d_28">
     <g>
      <use xlink:href="#m2c9d500434" x="223.520625" y="48.598125" style="fill: #ff0000; stroke: #ff0000; stroke-width: 2"/>
     </g>
    </g>
    <g id="line2d_29">
     <path d="M 211.520625 54.598125 
L 235.520625 54.598125 
" style="fill: none; stroke: #ff0000; stroke-width: 1.5; stroke-linecap: square"/>
    </g>
    <g id="line2d_30"/>
    <g id="text_11">
     <!-- M=4 -->
     <g transform="translate(245.120625 58.798125) scale(0.12 -0.12)">
      <defs>
       <path id="DejaVuSans-4d" d="M 628 4666 
L 1569 4666 
L 2759 1491 
L 3956 4666 
L 4897 4666 
L 4897 0 
L 4281 0 
L 4281 4097 
L 3078 897 
L 2444 897 
L 1241 4097 
L 1241 0 
L 628 0 
L 628 4666 
z
" transform="scale(0.015625)"/>
       <path id="DejaVuSans-3d" d="M 678 2906 
L 4684 2906 
L 4684 2381 
L 678 2381 
L 678 2906 
z
M 678 1631 
L 4684 1631 
L 4684 1100 
L 678 1100 
L 678 1631 
z
" transform="scale(0.015625)"/>
      </defs>
      <use xlink:href="#DejaVuSans-4d"/>
      <use xlink:href="#DejaVuSans-3d" x="86.279297"/>
      <use xlink:href="#DejaVuSans-34" x="170.068359"/>
     </g>
    </g>
    <g id="LineCollection_6">
     <path d="M 223.520625 78.211875 
L 223.520625 66.211875 
" style="fill: none; stroke: #000000; stroke-width: 2"/>
    </g>
    <g id="line2d_31">
     <g>
      <use xlink:href="#mbfdbea5c6a" x="223.520625" y="78.211875" style="stroke: #000000; stroke-width: 2"/>
     </g>
    </g>
    <g id="line2d_32">
     <g>
      <use xlink:href="#mbfdbea5c6a" x="223.520625" y="66.211875" style="stroke: #000000; stroke-width: 2"/>
     </g>
    </g>
    <g id="line2d_33">
     <path d="M 211.520625 72.211875 
L 235.520625 72.211875 
" style="fill: none; stroke: #000000; stroke-width: 1.5; stroke-linecap: square"/>
    </g>
    <g id="line2d_34"/>
    <g id="text_12">
     <!-- M=8 -->
     <g transform="translate(245.120625 76.411875) scale(0.12 -0.12)">
      <use xlink:href="#DejaVuSans-4d"/>
      <use xlink:href="#DejaVuSans-3d" x="86.279297"/>
      <use xlink:href="#DejaVuSans-38" x="170.068359"/>
     </g>
    </g>
    <g id="LineCollection_7">
     <path d="M 223.520625 95.825625 
L 223.520625 83.825625 
" style="fill: none; stroke: #0000ff; stroke-width: 2"/>
    </g>
    <g id="line2d_35">
     <g>
      <use xlink:href="#m265b909447" x="223.520625" y="95.825625" style="fill: #0000ff; stroke: #0000ff; stroke-width: 2"/>
     </g>
    </g>
    <g id="line2d_36">
     <g>
      <use xlink:href="#m265b909447" x="223.520625" y="83.825625" style="fill: #0000ff; stroke: #0000ff; stroke-width: 2"/>
     </g>
    </g>
    <g id="line2d_37">
     <path d="M 211.520625 89.825625 
L 235.520625 89.825625 
" style="fill: none; stroke: #0000ff; stroke-width: 1.5; stroke-linecap: square"/>
    </g>
    <g id="line2d_38"/>
    <g id="text_13">
     <!-- M=12 -->
     <g transform="translate(245.120625 94.025625) scale(0.12 -0.12)">
      <defs>
       <path id="DejaVuSans-31" d="M 794 531 
L 1825 531 
L 1825 4091 
L 703 3866 
L 703 4441 
L 1819 4666 
L 2450 4666 
L 2450 531 
L 3481 531 
L 3481 0 
L 794 0 
L 794 531 
z
" transform="scale(0.015625)"/>
       <path id="DejaVuSans-32" d="M 1228 531 
L 3431 531 
L 3431 0 
L 469 0 
L 469 531 
Q 828 903 1448 1529 
Q 2069 2156 2228 2338 
Q 2531 2678 2651 2914 
Q 2772 3150 2772 3378 
Q 2772 3750 2511 3984 
Q 2250 4219 1831 4219 
Q 1534 4219 1204 4116 
Q 875 4013 500 3803 
L 500 4441 
Q 881 4594 1212 4672 
Q 1544 4750 1819 4750 
Q 2544 4750 2975 4387 
Q 3406 4025 3406 3419 
Q 3406 3131 3298 2873 
Q 3191 2616 2906 2266 
Q 2828 2175 2409 1742 
Q 1991 1309 1228 531 
z
" transform="scale(0.015625)"/>
      </defs>
      <use xlink:href="#DejaVuSans-4d"/>
      <use xlink:href="#DejaVuSans-3d" x="86.279297"/>
      <use xlink:href="#DejaVuSans-31" x="170.068359"/>
      <use xlink:href="#DejaVuSans-32" x="233.691406"/>
     </g>
    </g>
    <g id="LineCollection_8">
     <path d="M 223.520625 113.439375 
L 223.520625 101.439375 
" style="fill: none; stroke: #bf00bf; stroke-width: 2"/>
    </g>
    <g id="line2d_39">
     <g>
      <use xlink:href="#m6a4c725334" x="223.520625" y="113.439375" style="fill: #bf00bf; stroke: #bf00bf; stroke-width: 2"/>
     </g>
    </g>
    <g id="line2d_40">
     <g>
      <use xlink:href="#m6a4c725334" x="223.520625" y="101.439375" style="fill: #bf00bf; stroke: #bf00bf; stroke-width: 2"/>
     </g>
    </g>
    <g id="line2d_41">
     <path d="M 211.520625 107.439375 
L 235.520625 107.439375 
" style="fill: none; stroke: #bf00bf; stroke-width: 1.5; stroke-linecap: square"/>
    </g>
    <g id="line2d_42"/>
    <g id="text_14">
     <!-- M=16 -->
     <g transform="translate(245.120625 111.639375) scale(0.12 -0.12)">
      <use xlink:href="#DejaVuSans-4d"/>
      <use xlink:href="#DejaVuSans-3d" x="86.279297"/>
      <use xlink:href="#DejaVuSans-31" x="170.068359"/>
      <use xlink:href="#DejaVuSans-36" x="233.691406"/>
     </g>
    </g>
   </g>
  </g>
 </g>
 <defs>
  <clipPath id="p7577296c59">
   <rect x="40.5" y="38.88" width="251.1" height="249.48"/>
  </clipPath>
 </defs>
</svg>
